<svg width="607" height="469" viewBox="0 0 607 469" fill="none" xmlns="http://www.w3.org/2000/svg">
<path d="M43.3503 171.241H37.513C19.0049 171.241 4 186.246 4 204.754V263.78C4 282.288 19.0049 297.293 37.513 297.293H43.3503L43.3503 362.156L43.3503 362.161C43.3852 391.519 67.1758 415.309 96.5342 415.345L96.5434 415.345L96.5526 415.345C105.523 415.315 114.292 412.995 122.052 408.663V411.345C122.052 440.72 145.866 464.534 175.241 464.534C204.616 464.534 228.43 440.72 228.43 411.345V297.293H377.832V411.345C377.832 440.72 401.646 464.534 431.021 464.534C460.396 464.534 484.21 440.72 484.21 411.345V408.663C491.969 412.995 500.739 415.315 509.709 415.345L509.718 415.345L509.728 415.345C539.085 415.31 562.875 391.52 562.912 362.161V362.156V297.293H568.749C587.257 297.293 602.262 282.288 602.262 263.78V204.754C602.262 186.246 587.258 171.241 568.749 171.241H562.912V106.378V106.373C562.877 77.0153 539.086 53.2249 509.728 53.1888L509.718 53.1888L509.709 53.1888C500.739 53.2191 491.969 55.5385 484.21 59.8705V57.1888C484.21 27.8138 460.396 4 431.021 4C401.646 4 377.832 27.8138 377.832 57.1888V171.241H228.429V57.1888C228.429 27.8138 204.615 4 175.24 4C145.865 4 122.052 27.8139 122.052 57.1888V59.8705C114.292 55.5385 105.523 53.2191 96.5526 53.1888L96.5435 53.1888L96.5344 53.1888C67.1768 53.2237 43.3865 77.0143 43.3503 106.373V106.378V171.241ZM564.748 198.916V198.917H568.748C570.296 198.917 571.781 199.532 572.875 200.626C573.97 201.721 574.585 203.206 574.585 204.754V263.78C574.585 265.328 573.97 266.813 572.875 267.908C571.781 269.002 570.296 269.617 568.748 269.617H562.91V198.916H564.748ZM509.722 80.8645C523.812 80.8645 535.235 92.2877 535.235 106.378V362.158C535.235 376.247 523.812 387.671 509.722 387.671C495.632 387.671 484.209 376.247 484.209 362.158V106.378C484.209 92.2866 495.632 80.8645 509.722 80.8645ZM405.507 57.1888C405.507 43.0989 416.93 31.6757 431.02 31.6757C445.11 31.6757 456.533 43.0989 456.533 57.1888V411.345C456.533 425.435 445.11 436.858 431.02 436.858C416.93 436.858 405.507 425.435 405.507 411.345V57.1888ZM377.832 198.917V269.618H228.429V198.917H377.832ZM149.728 57.1888C149.728 43.0989 161.151 31.6757 175.241 31.6757C189.331 31.6757 200.754 43.0989 200.754 57.1888V411.345C200.754 425.435 189.331 436.858 175.241 436.858C161.15 436.858 149.728 425.435 149.728 411.345V57.1888ZM71.0261 106.378C71.0261 92.2866 82.4491 80.8645 96.5391 80.8645C110.629 80.8645 122.052 92.2877 122.052 106.378V362.158C122.052 376.247 110.629 387.671 96.5391 387.671C82.4492 387.671 71.0261 376.247 71.0261 362.158V106.378ZM31.6757 204.754C31.6757 203.206 32.2907 201.721 33.3854 200.626C34.4801 199.532 35.9649 198.917 37.513 198.917H43.3503V269.618H37.513C36.7465 269.618 35.9874 269.467 35.2792 269.174C34.571 268.881 33.9275 268.451 33.3854 267.909C32.8434 267.367 32.4134 266.723 32.1201 266.015C31.8267 265.307 31.6757 264.548 31.6757 263.781V204.754Z" fill="#3F3F46" stroke="#3F3F46" stroke-width="8"/>
</svg>
