<svg width="29" height="28" viewBox="0 0 29 28" fill="none" xmlns="http://www.w3.org/2000/svg">
<path d="M15.3003 8.16971H22.7184C23.2819 8.16971 23.7391 7.7125 23.7391 7.14898C23.7391 6.58546 23.2819 6.12825 22.7184 6.12825H15.3003C14.7368 6.12825 14.2796 6.58546 14.2796 7.14898C14.2796 7.7125 14.7368 8.16971 15.3003 8.16971Z" fill="#343636" stroke="#343636" stroke-width="0.304049"/>
<path d="M15.3003 11.6453H20.6608C21.2243 11.6453 21.6815 11.1881 21.6815 10.6246C21.6815 10.061 21.2243 9.60383 20.6608 9.60383H15.3003C14.7368 9.60383 14.2796 10.061 14.2796 10.6246C14.2796 11.1881 14.7368 11.6453 15.3003 11.6453Z" fill="#343636" stroke="#343636" stroke-width="0.304049"/>
<path d="M5.46535 9.70739L5.46537 9.7074L7.15465 11.3962C7.35395 11.5955 7.61545 11.6952 7.87636 11.6952C8.13725 11.6952 8.39887 11.5955 8.59818 11.3962C8.59819 11.3962 8.59819 11.3962 8.59819 11.3962L12.1731 7.82187L12.1731 7.82187C12.5718 7.42318 12.5718 6.77713 12.1731 6.37844C11.7744 5.97975 11.1284 5.97975 10.7297 6.37844L7.87646 9.23113L6.90878 8.26396C6.51009 7.86527 5.86404 7.86527 5.46535 8.26396C5.06666 8.66265 5.06666 9.3087 5.46535 9.70739Z" fill="#343636" stroke="#343636" stroke-width="0.304049"/>
<path d="M15.3003 18.0408H22.7184C23.2819 18.0408 23.7391 17.5836 23.7391 17.0201C23.7391 16.4566 23.2819 15.9993 22.7184 15.9993H15.3003C14.7368 15.9993 14.2796 16.4566 14.2796 17.0201C14.2796 17.5836 14.7368 18.0408 15.3003 18.0408Z" fill="#343636" stroke="#343636" stroke-width="0.304049"/>
<path d="M15.3003 21.5144H20.6608C21.2243 21.5144 21.6815 21.0572 21.6815 20.4937C21.6815 19.9302 21.2243 19.473 20.6608 19.473H15.3003C14.7368 19.473 14.2796 19.9302 14.2796 20.4937C14.2796 21.0572 14.7368 21.5144 15.3003 21.5144Z" fill="#343636" stroke="#343636" stroke-width="0.304049"/>
<path d="M6.50152 22.0929H11.1347C11.6982 22.0929 12.1554 21.6357 12.1554 21.0722V16.439C12.1554 15.8755 11.6982 15.4183 11.1347 15.4183H6.50152C5.938 15.4183 5.48079 15.8755 5.48079 16.439V21.0722C5.48079 21.6357 5.938 22.0929 6.50152 22.0929ZM10.1139 17.4598V20.0514H7.52225V17.4598H10.1139Z" fill="#343636" stroke="#343636" stroke-width="0.304049"/>
<path d="M4.18533 27.152H25.0345C26.8752 27.152 28.3719 25.6553 28.3719 23.8147V3.699C28.3719 1.85836 26.8752 0.361647 25.0345 0.361647H4.18533C2.34469 0.361647 0.847975 1.85836 0.847975 3.699V23.8147C0.847975 25.6553 2.34469 27.152 4.18533 27.152ZM2.88955 3.69889C2.88955 2.98427 3.47071 2.40311 4.18533 2.40311L25.0345 2.40322C25.7491 2.40322 26.3303 2.98438 26.3303 3.699V23.8147C26.3303 24.5293 25.7491 25.1105 25.0345 25.1105H4.18533C3.47071 25.1105 2.88955 24.5293 2.88955 23.8147V3.69889Z" fill="#343636" stroke="#343636" stroke-width="0.304049"/>
</svg>
