<svg width="33" height="31" viewBox="0 0 33 31" fill="none" xmlns="http://www.w3.org/2000/svg">
<path d="M3.73005 30.8563C4.31165 30.8597 4.8875 30.741 5.42035 30.5079C5.9532 30.2747 6.4312 29.9324 6.82345 29.5029C7.21747 29.9303 7.69577 30.2713 8.22818 30.5046C8.7606 30.7379 9.33557 30.8583 9.91684 30.8583C10.4981 30.8583 11.0731 30.7379 11.6055 30.5046C12.1379 30.2713 12.6162 29.9303 13.0102 29.5029C13.4043 29.9303 13.8826 30.2713 14.415 30.5046C14.9474 30.7379 15.5224 30.8583 16.1036 30.8583C16.6849 30.8583 17.2599 30.7379 17.7923 30.5046C18.3247 30.2713 18.803 29.9303 19.197 29.5029C19.5911 29.9303 20.0694 30.2713 20.6018 30.5046C21.1342 30.7379 21.7092 30.8583 22.2904 30.8583C22.8717 30.8583 23.4467 30.7379 23.9791 30.5046C24.5115 30.2713 24.9898 29.9303 25.3838 29.5029C25.776 29.9324 26.254 30.2748 26.7869 30.508C27.3197 30.7411 27.8956 30.8598 28.4772 30.8563C29.2358 30.8664 29.982 30.6637 30.6313 30.2713C31.2806 29.8789 31.8069 29.3124 32.1506 28.6361C32.2194 28.4831 32.2258 28.3092 32.1684 28.1515C32.111 27.9938 31.9944 27.8647 31.8433 27.7917C31.6922 27.7187 31.5186 27.7075 31.3593 27.7605C31.2001 27.8135 31.0678 27.9265 30.9906 28.0755C30.7444 28.5271 30.381 28.904 29.9387 29.1666C29.4965 29.4292 28.9916 29.5678 28.4772 29.5678C27.9629 29.5678 27.458 29.4292 27.0157 29.1666C26.5734 28.904 26.2101 28.5271 25.9638 28.0755C25.9111 27.9665 25.8287 27.8746 25.7261 27.8103C25.6235 27.746 25.5049 27.7119 25.3838 27.7119C25.2628 27.7119 25.1441 27.746 25.0416 27.8103C24.939 27.8746 24.8566 27.9665 24.8038 28.0755C24.5574 28.5269 24.194 28.9036 23.7518 29.1661C23.3095 29.4286 22.8047 29.5671 22.2904 29.5671C21.7761 29.5671 21.2714 29.4286 20.8291 29.1661C20.3868 28.9036 20.0234 28.5269 19.777 28.0755C19.7243 27.9665 19.6419 27.8746 19.5393 27.8103C19.4367 27.746 19.3181 27.7119 19.197 27.7119C19.076 27.7119 18.9574 27.746 18.8548 27.8103C18.7522 27.8746 18.6698 27.9665 18.617 28.0755C18.3709 28.5272 18.0076 28.9043 17.5653 29.1671C17.123 29.4298 16.6181 29.5685 16.1036 29.5685C15.5892 29.5685 15.0842 29.4298 14.6419 29.1671C14.1996 28.9043 13.8363 28.5272 13.5903 28.0755C13.5375 27.9665 13.4551 27.8746 13.3525 27.8103C13.2499 27.746 13.1313 27.7119 13.0102 27.7119C12.8892 27.7119 12.7706 27.746 12.668 27.8103C12.5654 27.8746 12.483 27.9665 12.4302 28.0755C12.1839 28.5269 11.8204 28.9036 11.3782 29.1661C10.9359 29.4286 10.4311 29.5671 9.91684 29.5671C9.40256 29.5671 8.89776 29.4286 8.4555 29.1661C8.01324 28.9036 7.64983 28.5269 7.40346 28.0755C7.35069 27.9665 7.26829 27.8746 7.16571 27.8103C7.06313 27.746 6.94451 27.7119 6.82345 27.7119C6.70238 27.7119 6.58376 27.746 6.48118 27.8103C6.3786 27.8746 6.2962 27.9665 6.24343 28.0755C6.00513 28.5336 5.64353 28.9161 5.19943 29.1797C4.75532 29.4433 4.24639 29.5776 3.73005 29.5674C3.2137 29.5776 2.70477 29.4433 2.26067 29.1797C1.81657 28.9161 1.45497 28.5336 1.21666 28.0755C1.13946 27.9265 1.00718 27.8135 0.847948 27.7605C0.688719 27.7075 0.515101 27.7187 0.36401 27.7917C0.212919 27.8647 0.0962721 27.9938 0.0388719 28.1515C-0.0185283 28.3092 -0.0121544 28.4831 0.0566385 28.6361C0.400368 29.3124 0.926707 29.8789 1.57598 30.2713C2.22525 30.6637 2.97147 30.8664 3.73005 30.8563Z" fill="white"/>
<path d="M3.73005 30.8563C4.31165 30.8597 4.8875 30.741 5.42035 30.5079C5.9532 30.2747 6.4312 29.9324 6.82345 29.5029C7.21747 29.9303 7.69577 30.2713 8.22818 30.5046C8.7606 30.7379 9.33557 30.8583 9.91684 30.8583C10.4981 30.8583 11.0731 30.7379 11.6055 30.5046C12.1379 30.2713 12.6162 29.9303 13.0102 29.5029C13.4043 29.9303 13.8826 30.2713 14.415 30.5046C14.9474 30.7379 15.5224 30.8583 16.1036 30.8583C16.6849 30.8583 17.2599 30.7379 17.7923 30.5046C18.3247 30.2713 18.803 29.9303 19.197 29.5029C19.5911 29.9303 20.0694 30.2713 20.6018 30.5046C21.1342 30.7379 21.7092 30.8583 22.2904 30.8583C22.8717 30.8583 23.4467 30.7379 23.9791 30.5046C24.5115 30.2713 24.9898 29.9303 25.3838 29.5029C25.776 29.9324 26.254 30.2748 26.7869 30.508C27.3197 30.7411 27.8956 30.8598 28.4772 30.8563C29.2358 30.8664 29.982 30.6637 30.6313 30.2713C31.2806 29.8789 31.8069 29.3124 32.1506 28.6361C32.2194 28.4831 32.2258 28.3092 32.1684 28.1515C32.111 27.9938 31.9944 27.8647 31.8433 27.7917C31.6922 27.7187 31.5186 27.7075 31.3593 27.7605C31.2001 27.8135 31.0678 27.9265 30.9906 28.0755C30.7444 28.5271 30.381 28.904 29.9387 29.1666C29.4965 29.4292 28.9916 29.5678 28.4772 29.5678C27.9629 29.5678 27.458 29.4292 27.0157 29.1666C26.5734 28.904 26.2101 28.5271 25.9638 28.0755C25.9111 27.9665 25.8287 27.8746 25.7261 27.8103C25.6235 27.746 25.5049 27.7119 25.3838 27.7119C25.2628 27.7119 25.1441 27.746 25.0416 27.8103C24.939 27.8746 24.8566 27.9665 24.8038 28.0755C24.5574 28.5269 24.194 28.9036 23.7518 29.1661C23.3095 29.4286 22.8047 29.5671 22.2904 29.5671C21.7761 29.5671 21.2714 29.4286 20.8291 29.1661C20.3868 28.9036 20.0234 28.5269 19.777 28.0755C19.7243 27.9665 19.6419 27.8746 19.5393 27.8103C19.4367 27.746 19.3181 27.7119 19.197 27.7119C19.076 27.7119 18.9574 27.746 18.8548 27.8103C18.7522 27.8746 18.6698 27.9665 18.617 28.0755C18.3709 28.5272 18.0076 28.9043 17.5653 29.1671C17.123 29.4298 16.6181 29.5685 16.1036 29.5685C15.5892 29.5685 15.0842 29.4298 14.6419 29.1671C14.1996 28.9043 13.8363 28.5272 13.5903 28.0755C13.5375 27.9665 13.4551 27.8746 13.3525 27.8103C13.2499 27.746 13.1313 27.7119 13.0102 27.7119C12.8892 27.7119 12.7706 27.746 12.668 27.8103C12.5654 27.8746 12.483 27.9665 12.4302 28.0755C12.1839 28.5269 11.8204 28.9036 11.3782 29.1661C10.9359 29.4286 10.4311 29.5671 9.91684 29.5671C9.40256 29.5671 8.89776 29.4286 8.4555 29.1661C8.01324 28.9036 7.64983 28.5269 7.40346 28.0755C7.35069 27.9665 7.26829 27.8746 7.16571 27.8103C7.06313 27.746 6.94451 27.7119 6.82345 27.7119C6.70238 27.7119 6.58376 27.746 6.48118 27.8103C6.3786 27.8746 6.2962 27.9665 6.24343 28.0755C6.00513 28.5336 5.64353 28.9161 5.19943 29.1797C4.75532 29.4433 4.24639 29.5776 3.73005 29.5674C3.2137 29.5776 2.70477 29.4433 2.26067 29.1797C1.81657 28.9161 1.45497 28.5336 1.21666 28.0755C1.13946 27.9265 1.00718 27.8135 0.847948 27.7605C0.688719 27.7075 0.515101 27.7187 0.36401 27.7917C0.212919 27.8647 0.0962721 27.9938 0.0388719 28.1515C-0.0185283 28.3092 -0.0121544 28.4831 0.0566385 28.6361C0.400368 29.3124 0.926707 29.8789 1.57598 30.2713C2.22525 30.6637 2.97147 30.8664 3.73005 30.8563Z" stroke="white" stroke-width='0.1'/>
<path d="M23.0713 25.496C23.0343 25.5722 23.0126 25.6549 23.0075 25.7395C23.0024 25.824 23.014 25.9088 23.0416 25.9889C23.0974 26.1506 23.2152 26.2835 23.3691 26.3583C23.5229 26.4332 23.7002 26.4439 23.8619 26.388C24.0236 26.3322 24.1565 26.2144 24.2313 26.0606L28.8392 16.6083C28.9694 16.3428 29.0369 16.051 29.0365 15.7553C29.0362 15.4596 28.9681 15.1679 28.8374 14.9027C28.7067 14.6375 28.5168 14.4058 28.2825 14.2254C28.0482 14.045 27.7757 13.9208 27.4859 13.8623L25.1259 13.3905V5.80012C25.1259 5.28736 24.9222 4.7956 24.5596 4.43302C24.197 4.07044 23.7052 3.86675 23.1925 3.86675H18.6813V0.644458C18.6813 0.473537 18.6134 0.309617 18.4925 0.188757C18.3717 0.0678982 18.2077 0 18.0368 0H14.1701C13.9991 0 13.8352 0.0678982 13.7144 0.188757C13.5935 0.309617 13.5256 0.473537 13.5256 0.644458V3.86675H9.01441C8.50164 3.86675 8.00988 4.07044 7.6473 4.43302C7.28473 4.7956 7.08103 5.28736 7.08103 5.80012V13.3957L4.73069 13.8623C4.44044 13.9199 4.16728 14.0434 3.93228 14.2232C3.69727 14.4031 3.50668 14.6345 3.37518 14.8996C3.24369 15.1647 3.17481 15.4564 3.17384 15.7523C3.17287 16.0482 3.23984 16.3404 3.3696 16.6064L7.97747 26.0606C8.05234 26.2144 8.18524 26.3322 8.34695 26.388C8.50866 26.4439 8.68593 26.4332 8.83976 26.3583C8.99359 26.2835 9.11137 26.1506 9.16721 25.9889C9.22305 25.8271 9.21236 25.6499 9.1375 25.496L4.52769 16.0399C4.48415 15.9523 4.46149 15.8558 4.46149 15.758C4.46149 15.6601 4.48415 15.5636 4.52769 15.476C4.5714 15.3864 4.63529 15.3082 4.71435 15.2475C4.79341 15.1867 4.88548 15.1452 4.98332 15.1261L15.488 13.0432C15.9305 12.951 16.3872 12.951 16.8297 13.0432L27.2294 15.1248C27.3263 15.1445 27.4175 15.1862 27.4957 15.2468C27.5739 15.3074 27.6371 15.3851 27.6805 15.4741C27.7242 15.5622 27.747 15.6593 27.747 15.7576C27.747 15.856 27.7242 15.9531 27.6805 16.0412L23.0713 25.496ZM14.8145 1.28892H17.3924V3.86675H14.8145V1.28892ZM15.2308 11.78L8.36995 13.1405V5.80012C8.36995 5.6292 8.43785 5.46528 8.5587 5.34442C8.67956 5.22356 8.84348 5.15566 9.01441 5.15566H23.1925C23.3634 5.15566 23.5273 5.22356 23.6482 5.34442C23.769 5.46528 23.8369 5.6292 23.8369 5.80012V13.1328L17.085 11.7794C16.4734 11.6523 15.8423 11.6526 15.2308 11.78Z" fill="white"/>
<path d="M23.0713 25.496C23.0343 25.5722 23.0126 25.6549 23.0075 25.7395C23.0024 25.824 23.014 25.9088 23.0416 25.9889C23.0974 26.1506 23.2152 26.2835 23.3691 26.3583C23.5229 26.4332 23.7002 26.4439 23.8619 26.388C24.0236 26.3322 24.1565 26.2144 24.2313 26.0606L28.8392 16.6083C28.9694 16.3428 29.0369 16.051 29.0365 15.7553C29.0362 15.4596 28.9681 15.1679 28.8374 14.9027C28.7067 14.6375 28.5168 14.4058 28.2825 14.2254C28.0482 14.045 27.7757 13.9208 27.4859 13.8623L25.1259 13.3905V5.80012C25.1259 5.28736 24.9222 4.7956 24.5596 4.43302C24.197 4.07044 23.7052 3.86675 23.1925 3.86675H18.6813V0.644458C18.6813 0.473537 18.6134 0.309617 18.4925 0.188757C18.3717 0.0678982 18.2077 0 18.0368 0H14.1701C13.9991 0 13.8352 0.0678982 13.7144 0.188757C13.5935 0.309617 13.5256 0.473537 13.5256 0.644458V3.86675H9.01441C8.50164 3.86675 8.00988 4.07044 7.6473 4.43302C7.28473 4.7956 7.08103 5.28736 7.08103 5.80012V13.3957L4.73069 13.8623C4.44044 13.9199 4.16728 14.0434 3.93228 14.2232C3.69727 14.4031 3.50668 14.6345 3.37518 14.8996C3.24369 15.1647 3.17481 15.4564 3.17384 15.7523C3.17287 16.0482 3.23984 16.3404 3.3696 16.6064L7.97747 26.0606C8.05234 26.2144 8.18524 26.3322 8.34695 26.388C8.50866 26.4439 8.68593 26.4332 8.83976 26.3583C8.99359 26.2835 9.11137 26.1506 9.16721 25.9889C9.22305 25.8271 9.21236 25.6499 9.1375 25.496L4.52769 16.0399C4.48415 15.9523 4.46149 15.8558 4.46149 15.758C4.46149 15.6601 4.48415 15.5636 4.52769 15.476C4.5714 15.3864 4.63529 15.3082 4.71435 15.2475C4.79341 15.1867 4.88548 15.1452 4.98332 15.1261L15.488 13.0432C15.9305 12.951 16.3872 12.951 16.8297 13.0432L27.2294 15.1248C27.3263 15.1445 27.4175 15.1862 27.4957 15.2468C27.5739 15.3074 27.6371 15.3851 27.6805 15.4741C27.7242 15.5622 27.747 15.6593 27.747 15.7576C27.747 15.856 27.7242 15.9531 27.6805 16.0412L23.0713 25.496ZM14.8145 1.28892H17.3924V3.86675H14.8145V1.28892ZM15.2308 11.78L8.36995 13.1405V5.80012C8.36995 5.6292 8.43785 5.46528 8.5587 5.34442C8.67956 5.22356 8.84348 5.15566 9.01441 5.15566H23.1925C23.3634 5.15566 23.5273 5.22356 23.6482 5.34442C23.769 5.46528 23.8369 5.6292 23.8369 5.80012V13.1328L17.085 11.7794C16.4734 11.6523 15.8423 11.6526 15.2308 11.78Z" stroke="white" stroke-width='0.1'/>
<path d="M19.9697 6.44336H12.2363C12.0653 6.44336 11.9014 6.51126 11.7806 6.63212C11.6597 6.75298 11.5918 6.9169 11.5918 7.08782V10.5808C11.5918 10.7517 11.6597 10.9156 11.7806 11.0365C11.9014 11.1573 12.0653 11.2252 12.2363 11.2252C12.4072 11.2252 12.5711 11.1573 12.692 11.0365C12.8128 10.9156 12.8807 10.7517 12.8807 10.5808V7.73228H19.3253V10.5711C19.3253 10.742 19.3932 10.906 19.514 11.0268C19.6349 11.1477 19.7988 11.2156 19.9697 11.2156C20.1407 11.2156 20.3046 11.1477 20.4255 11.0268C20.5463 10.906 20.6142 10.742 20.6142 10.5711V7.08782C20.6142 6.9169 20.5463 6.75298 20.4255 6.63212C20.3046 6.51126 20.1407 6.44336 19.9697 6.44336Z" fill="white"/>
<path d="M19.9697 6.44336H12.2363C12.0653 6.44336 11.9014 6.51126 11.7806 6.63212C11.6597 6.75298 11.5918 6.9169 11.5918 7.08782V10.5808C11.5918 10.7517 11.6597 10.9156 11.7806 11.0365C11.9014 11.1573 12.0653 11.2252 12.2363 11.2252C12.4072 11.2252 12.5711 11.1573 12.692 11.0365C12.8128 10.9156 12.8807 10.7517 12.8807 10.5808V7.73228H19.3253V10.5711C19.3253 10.742 19.3932 10.906 19.514 11.0268C19.6349 11.1477 19.7988 11.2156 19.9697 11.2156C20.1407 11.2156 20.3046 11.1477 20.4255 11.0268C20.5463 10.906 20.6142 10.742 20.6142 10.5711V7.08782C20.6142 6.9169 20.5463 6.75298 20.4255 6.63212C20.3046 6.51126 20.1407 6.44336 19.9697 6.44336Z" stroke="white" stroke-width='0.1'/>
</svg>
