<svg width="31" height="27" viewBox="0 0 31 28" fill="none" xmlns="http://www.w3.org/2000/svg">
  <path d="M29.2206 14.3587V4.38291C29.2206 3.08927 28.21 2.04021 26.9638 2.04021H23.932C23.4918 2.04021 23.095 1.92436 22.7788 1.71197C21.1978 0.637163 18.476 0 15.5 0C12.524 0 9.8022 0.637163 8.2212 1.71197C7.905 1.92436 7.5082 2.04021 7.068 2.04021H4.0424C2.7962 2.04021 1.7856 3.08927 1.7856 4.38291V14.3587C0.7564 14.6483 0 15.6073 0 16.7593V20.106V26.7093C0 27.0633 0.279 27.3529 0.62 27.3529H3.8812C4.2222 27.3529 4.5012 27.0633 4.5012 26.7093V23.9676H26.4988V26.7093C26.4988 27.0633 26.7778 27.3529 27.1188 27.3529H30.38C30.721 27.3529 31 27.0633 31 26.7093V20.106V16.7593C31 15.6073 30.2436 14.6483 29.2206 14.3587ZM3.0194 4.38291C3.0194 3.79723 3.4782 3.3274 4.0362 3.3274H7.0618C7.7438 3.3274 8.3762 3.14076 8.897 2.79322C10.261 1.86644 12.7906 1.29363 15.5 1.29363C18.2032 1.29363 20.7328 1.86644 22.103 2.79322C22.6176 3.14076 23.2562 3.3274 23.9382 3.3274H26.9638C27.528 3.3274 27.9806 3.80367 27.9806 4.38291V14.2686H26.6538V13.3482C26.6538 12.2348 25.9036 11.2565 24.8806 11.0248C22.9276 10.5872 20.9436 10.5872 18.9906 11.0248C17.9614 11.2565 17.2112 12.2348 17.2112 13.3482V14.2686H13.7888V13.3482C13.7888 12.2348 13.0386 11.2565 12.0094 11.0248C10.0564 10.5872 8.0724 10.5872 6.1194 11.0248C5.0902 11.2565 4.3462 12.2348 4.3462 13.3482V14.2686H3.0194V4.38291ZM18.4512 14.2686V13.3482C18.4512 12.8334 18.786 12.3893 19.251 12.2863C21.0304 11.8873 22.8408 11.8873 24.6202 12.2863C25.0852 12.3893 25.42 12.8398 25.42 13.3482V14.2686H18.4512ZM5.5862 14.2686V13.3482C5.5862 12.8334 5.921 12.3893 6.386 12.2863C8.1654 11.8873 9.9758 11.8873 11.7552 12.2863C12.2202 12.3893 12.555 12.8398 12.555 13.3482V14.2686H5.5862ZM1.24 16.7593C1.24 16.0964 1.7608 15.5558 2.3994 15.5558H4.9538H4.96H13.1626H13.1688H17.8126H17.8188H26.0214H26.0276H28.582C29.2206 15.5558 29.7414 16.0964 29.7414 16.7593V19.4624H1.24V16.7593ZM29.76 26.0657H27.7388V23.324C27.7388 22.97 27.4598 22.6804 27.1188 22.6804H3.8812C3.5402 22.6804 3.2612 22.97 3.2612 23.324V26.0657H1.24V20.7496H29.76V26.0657Z" fill="white" stroke="white" stroke-width="0.1"/>
</svg>
