<svg width="30" height="30" viewBox="0 0 30 30" fill="none" xmlns="http://www.w3.org/2000/svg">
  <path d="M0.425266 22.2338C0.691913 22.4219 1.03272 22.4677 1.33896 22.3565L12.4999 18.3159L12.5006 24.4047L9.85886 26.6185C9.63135 26.8095 9.49974 27.0925 9.49997 27.3905V28.9934C9.49997 29.3113 9.64943 29.6105 9.9028 29.8002C10.1564 29.9901 10.4844 30.0481 10.7872 29.957L15 28.6854L19.2128 29.957C19.3069 29.9855 19.4046 30 19.5028 30C20.0539 29.9975 20.4996 29.5477 20.5 28.9934V27.3905C20.5 27.092 20.3682 26.8086 20.14 26.6176L17.5001 24.405V18.3159L28.6606 22.3565C28.9671 22.4679 29.3081 22.4219 29.5747 22.2338C29.8414 22.0455 30 21.7382 30 21.4106V18.8813C30.0009 18.5383 29.827 18.2186 29.539 18.0346L17.5001 10.2855V2.51466C17.5003 1.80521 17.2025 1.12845 16.68 0.651952C16.1575 0.175225 15.4589 -0.057268 14.7569 0.0120196C13.4585 0.169931 12.4862 1.28521 12.4999 2.60052V10.2855L0.460972 18.034C0.173038 18.2183 -0.000911931 18.5381 3.59609e-06 18.8813V21.4106C0.000232478 21.7382 0.158848 22.0453 0.425266 22.2338ZM0.999988 18.8813L13.2697 10.9836C13.4132 10.8913 13.4999 10.7318 13.4999 10.5603V2.60052C13.483 1.80245 14.0648 1.11901 14.8515 1.01289C15.2733 0.970537 15.6931 1.1098 16.0071 1.39593C16.3211 1.68206 16.5003 2.08835 16.5001 2.51466V10.5603C16.5001 10.7318 16.5868 10.8913 16.7303 10.9836L29 18.8813V21.4106L17.1693 17.1277C17.0162 17.072 16.8457 17.095 16.7125 17.1889C16.5793 17.2831 16.4999 17.4366 16.5001 17.6005V24.4047C16.4999 24.7033 16.6319 24.9867 16.8599 25.1777L19.5 27.3903V28.9931L15.2856 27.7216C15.0986 27.6656 14.8997 27.6659 14.713 27.722L10.5 28.9934L10.4995 27.3905L13.141 25.1768C13.3688 24.9857 13.5001 24.7028 13.4999 24.4047V17.6005C13.5001 17.4366 13.4207 17.2831 13.2875 17.1889C13.1543 17.095 12.9838 17.072 12.8307 17.1277L0.999988 21.4106V18.8813Z" fill="white" stroke="white" stroke-width="0.1"/>
</svg>
