<svg width="31" height="31" viewBox="0 0 31 31" fill="none" xmlns="http://www.w3.org/2000/svg">
<mask id="path-1-outside-1_12527_84567" maskUnits="userSpaceOnUse" x="0" y="0" width="31" height="31" fill="black">
<rect fill="white" width="31" height="31"/>
<path d="M27.4591 23.6925C29.0616 21.3604 30.001 18.5388 30.001 15.5015C30.001 7.50528 23.4967 1 15.5015 1C12.5802 1 9.8585 1.86907 7.57971 3.36103C7.52658 3.38918 7.4773 3.42181 7.43199 3.45834C3.55565 6.06413 1 10.4898 1 15.5015C1 23.4967 7.50528 30.001 15.5015 30.001C20.3877 30.001 24.7167 27.5714 27.3449 23.8571C27.3887 23.8071 27.4266 23.7517 27.4591 23.6925ZM15.5015 28.1451C8.52876 28.1451 2.85595 22.4733 2.85595 15.5015C2.85595 11.4474 4.77404 7.83324 7.74992 5.51747C8.1983 6.072 8.74354 6.4199 9.32504 6.50543C9.42756 6.52049 9.53116 6.52757 9.63572 6.52757C10.348 6.52757 11.0955 6.19831 11.8822 5.85194C12.1863 5.7177 12.504 5.57745 12.8308 5.45278C13.3094 5.26983 13.5497 4.73342 13.3667 4.25491C13.1842 3.77582 12.6478 3.53657 12.1688 3.71907C11.8124 3.85529 11.4655 4.0071 11.1337 4.1534C10.5707 4.40121 9.86801 4.70635 9.5955 4.66913C9.52006 4.65792 9.41821 4.59295 9.30731 4.48046C11.058 3.49261 13.0658 2.90942 15.2034 2.85969C15.0237 3.54642 14.7944 4.37034 14.5691 4.60926C14.281 4.91389 13.7341 5.18129 13.252 5.41761C12.4573 5.80618 11.6359 6.20834 11.4458 7.03124C11.3724 7.34895 11.3745 7.84361 11.8033 8.39349C12.5558 9.35914 13.9085 9.38581 15.217 9.41193C15.9409 9.42597 16.7607 9.44206 17.1413 9.64971C17.2675 9.71859 17.3836 9.88699 17.4313 10.0685C17.4705 10.2178 17.4449 10.3032 17.4399 10.3133C17.4394 10.3138 17.4117 10.3354 17.366 10.347C17.2931 10.3389 17.0975 10.2434 16.9683 10.1801C16.7125 10.0554 16.4219 9.91321 16.0841 9.85889C15.6301 9.78548 15.227 9.8453 14.9027 9.8931C14.7213 9.91973 14.5765 9.94085 14.4207 9.94289C14.1678 9.94238 13.8828 9.89214 13.5812 9.83884C12.9086 9.71972 12.0721 9.57194 11.2145 9.95394C10.4002 10.3164 9.70346 11.0905 9.14395 11.7129C9.01175 11.8601 8.88555 12.0004 8.76643 12.1256L8.65682 12.2401C7.3976 13.5567 6.48776 14.5078 7.58509 16.9216C8.21445 18.3055 8.8604 19.3642 10.9325 19.3642C10.9395 19.3642 10.9461 19.3642 10.9526 19.3642C11.5111 19.3622 12.0243 19.2149 12.4773 19.0852C12.6326 19.0405 12.8422 18.9802 12.997 18.9495C13.0086 19.0274 13.0181 19.138 13.0196 19.2903C13.0276 20.0841 13.5152 20.5305 13.8068 20.7969C13.8797 20.8643 13.9903 20.9653 14.0069 20.9889C14.0069 20.9889 14.0104 21.0201 13.9923 21.095C13.928 21.3599 13.843 21.4896 13.736 21.6535C13.4369 22.112 13.1971 22.6021 13.5303 23.5476L13.5293 23.5487L13.5545 23.6155C13.5575 23.6235 13.5605 23.6316 13.5635 23.6401C13.5656 23.6447 13.5671 23.6497 13.5691 23.6542C13.6405 23.8512 13.7093 24.1428 13.7827 24.4514C14.0401 25.5357 14.5509 27.6913 16.4199 27.6908C16.5958 27.6908 16.7843 27.6722 16.9869 27.6325C18.603 27.3037 19.351 25.4694 19.8457 24.2564C19.8839 24.1624 19.9286 24.0539 19.9709 23.9528C20.5927 23.8673 21.0491 23.6396 21.3593 23.2647C21.9143 22.5911 21.758 21.7465 21.6438 21.1292C21.6087 20.9397 21.5523 20.6391 21.5609 20.4928C22.5246 20.0912 24.4971 19.2597 24.1985 17.5109C24.0668 16.7347 23.3847 16.0461 22.5216 15.1744C21.851 14.4968 20.6033 13.236 20.8526 12.7716C21.0955 12.3202 20.9261 11.7577 20.4746 11.5148C20.0242 11.2725 19.4607 11.4414 19.2179 11.8929C18.3186 13.5663 19.9176 15.1814 21.2025 16.4799C21.6373 16.9188 22.2948 17.5823 22.3687 17.822C22.3807 17.8929 22.3054 18.1714 20.829 18.7862C19.43 19.3699 19.6919 20.7859 19.8181 21.4665C19.8513 21.6465 19.9035 21.9285 19.9005 22.0763C19.8266 22.0999 19.6718 22.1331 19.3862 22.1356C19.1339 22.1381 18.8936 22.2421 18.7197 22.4257C18.4874 22.6705 18.3437 23.0223 18.1265 23.5557C17.8229 24.2987 17.2588 25.682 16.6159 25.8132C16.2107 25.8982 15.9785 25.6654 15.5894 24.0242C15.509 23.6834 15.4321 23.3596 15.3325 23.0726L15.3336 23.0721L15.3094 23.0082C15.3064 23.0002 15.3039 22.9937 15.3009 22.9861C15.3004 22.984 15.2994 22.9816 15.2988 22.9796C15.2561 22.8665 15.238 22.7971 15.2305 22.7594C15.2481 22.7297 15.2687 22.7016 15.2898 22.6699C15.4356 22.4457 15.6568 22.1084 15.796 21.5328C16.08 20.361 15.3908 19.7307 15.0596 19.4276C14.9902 19.3637 14.8781 19.2712 14.8756 19.2712C14.8695 18.6891 14.7876 17.8602 14.1452 17.3811C13.4625 16.8714 12.6321 17.1092 11.9655 17.3007C11.6127 17.4018 11.2472 17.5063 10.9466 17.5073C9.95683 17.4988 9.79947 17.3057 9.27519 16.1526C8.6971 14.8823 8.79565 14.7793 9.99806 13.5226L10.1086 13.407C10.2398 13.2697 10.3786 13.1154 10.5239 12.9541C10.9657 12.4629 11.5152 11.8512 11.9686 11.6496C12.2918 11.5058 12.6688 11.5621 13.258 11.6662C13.6079 11.7275 14.0035 11.7979 14.4172 11.7984C14.6881 11.7984 14.95 11.7617 15.1728 11.729C15.4115 11.6933 15.6176 11.6622 15.7881 11.6908C15.8544 11.7014 16.0339 11.7893 16.1525 11.8477C16.525 12.0297 17.0332 12.2775 17.6274 12.181C18.5166 12.0346 19.1334 11.439 19.2777 10.5879C19.4446 9.6027 18.9082 8.49879 18.0295 8.02022C17.2509 7.59648 16.2359 7.57637 15.2542 7.55677C14.7319 7.54623 13.9326 7.53066 13.4998 7.37478C13.6783 7.27526 13.8974 7.16815 14.0678 7.08471C14.6921 6.77907 15.3999 6.43275 15.9182 5.88327C16.4963 5.27198 16.7683 4.22035 17.0568 3.10693C17.0699 3.05675 17.083 3.00656 17.096 2.95632C22.5278 3.64294 26.8957 7.78991 27.9177 13.1122C27.839 13.0752 27.7448 13.0272 27.6298 12.9661C27.1628 12.7173 26.5239 12.3775 25.7875 12.6223C25.0817 12.8575 24.8163 13.5066 24.6584 13.8951C24.2653 13.6197 23.4856 12.8465 22.9141 12.2076C22.5723 11.8256 21.9856 11.7924 21.6041 12.1342C21.2225 12.4756 21.1888 13.0622 21.5307 13.4443C21.788 13.7323 23.1121 15.1896 23.9079 15.6093C24.2452 15.7873 24.5649 15.8762 24.865 15.8762C25.0329 15.8762 25.1947 15.848 25.3495 15.7923C25.9834 15.5615 26.2192 14.9814 26.3765 14.5974C26.3946 14.5521 26.4178 14.4963 26.4404 14.444C26.5394 14.4888 26.6631 14.5542 26.7565 14.6044C27.0837 14.779 27.5708 15.0383 28.1369 15.0722C28.1417 15.2148 28.145 15.3579 28.145 15.5017C28.145 17.545 27.6572 19.4762 26.7929 21.1861C26.4492 20.9113 25.9216 20.6591 25.1253 20.6176C24.3009 20.5693 22.7968 20.9252 21.9815 23.7779C21.8408 24.2701 22.1263 24.7843 22.6189 24.9251C22.7039 24.9497 22.7903 24.9613 22.8748 24.9613C23.278 24.9613 23.6494 24.6953 23.766 24.2882C24.0938 23.1441 24.5664 22.4403 25.0278 22.471C25.4903 22.4956 25.6356 22.6288 25.6692 22.6691C25.717 22.7264 25.7336 22.8209 25.7367 22.9155C23.4368 26.0818 19.7059 28.1451 15.5015 28.1451Z"/>
</mask>
<path d="M27.4591 23.6925C29.0616 21.3604 30.001 18.5388 30.001 15.5015C30.001 7.50528 23.4967 1 15.5015 1C12.5802 1 9.8585 1.86907 7.57971 3.36103C7.52658 3.38918 7.4773 3.42181 7.43199 3.45834C3.55565 6.06413 1 10.4898 1 15.5015C1 23.4967 7.50528 30.001 15.5015 30.001C20.3877 30.001 24.7167 27.5714 27.3449 23.8571C27.3887 23.8071 27.4266 23.7517 27.4591 23.6925ZM15.5015 28.1451C8.52876 28.1451 2.85595 22.4733 2.85595 15.5015C2.85595 11.4474 4.77404 7.83324 7.74992 5.51747C8.1983 6.072 8.74354 6.4199 9.32504 6.50543C9.42756 6.52049 9.53116 6.52757 9.63572 6.52757C10.348 6.52757 11.0955 6.19831 11.8822 5.85194C12.1863 5.7177 12.504 5.57745 12.8308 5.45278C13.3094 5.26983 13.5497 4.73342 13.3667 4.25491C13.1842 3.77582 12.6478 3.53657 12.1688 3.71907C11.8124 3.85529 11.4655 4.0071 11.1337 4.1534C10.5707 4.40121 9.86801 4.70635 9.5955 4.66913C9.52006 4.65792 9.41821 4.59295 9.30731 4.48046C11.058 3.49261 13.0658 2.90942 15.2034 2.85969C15.0237 3.54642 14.7944 4.37034 14.5691 4.60926C14.281 4.91389 13.7341 5.18129 13.252 5.41761C12.4573 5.80618 11.6359 6.20834 11.4458 7.03124C11.3724 7.34895 11.3745 7.84361 11.8033 8.39349C12.5558 9.35914 13.9085 9.38581 15.217 9.41193C15.9409 9.42597 16.7607 9.44206 17.1413 9.64971C17.2675 9.71859 17.3836 9.88699 17.4313 10.0685C17.4705 10.2178 17.4449 10.3032 17.4399 10.3133C17.4394 10.3138 17.4117 10.3354 17.366 10.347C17.2931 10.3389 17.0975 10.2434 16.9683 10.1801C16.7125 10.0554 16.4219 9.91321 16.0841 9.85889C15.6301 9.78548 15.227 9.8453 14.9027 9.8931C14.7213 9.91973 14.5765 9.94085 14.4207 9.94289C14.1678 9.94238 13.8828 9.89214 13.5812 9.83884C12.9086 9.71972 12.0721 9.57194 11.2145 9.95394C10.4002 10.3164 9.70346 11.0905 9.14395 11.7129C9.01175 11.8601 8.88555 12.0004 8.76643 12.1256L8.65682 12.2401C7.3976 13.5567 6.48776 14.5078 7.58509 16.9216C8.21445 18.3055 8.8604 19.3642 10.9325 19.3642C10.9395 19.3642 10.9461 19.3642 10.9526 19.3642C11.5111 19.3622 12.0243 19.2149 12.4773 19.0852C12.6326 19.0405 12.8422 18.9802 12.997 18.9495C13.0086 19.0274 13.0181 19.138 13.0196 19.2903C13.0276 20.0841 13.5152 20.5305 13.8068 20.7969C13.8797 20.8643 13.9903 20.9653 14.0069 20.9889C14.0069 20.9889 14.0104 21.0201 13.9923 21.095C13.928 21.3599 13.843 21.4896 13.736 21.6535C13.4369 22.112 13.1971 22.6021 13.5303 23.5476L13.5293 23.5487L13.5545 23.6155C13.5575 23.6235 13.5605 23.6316 13.5635 23.6401C13.5656 23.6447 13.5671 23.6497 13.5691 23.6542C13.6405 23.8512 13.7093 24.1428 13.7827 24.4514C14.0401 25.5357 14.5509 27.6913 16.4199 27.6908C16.5958 27.6908 16.7843 27.6722 16.9869 27.6325C18.603 27.3037 19.351 25.4694 19.8457 24.2564C19.8839 24.1624 19.9286 24.0539 19.9709 23.9528C20.5927 23.8673 21.0491 23.6396 21.3593 23.2647C21.9143 22.5911 21.758 21.7465 21.6438 21.1292C21.6087 20.9397 21.5523 20.6391 21.5609 20.4928C22.5246 20.0912 24.4971 19.2597 24.1985 17.5109C24.0668 16.7347 23.3847 16.0461 22.5216 15.1744C21.851 14.4968 20.6033 13.236 20.8526 12.7716C21.0955 12.3202 20.9261 11.7577 20.4746 11.5148C20.0242 11.2725 19.4607 11.4414 19.2179 11.8929C18.3186 13.5663 19.9176 15.1814 21.2025 16.4799C21.6373 16.9188 22.2948 17.5823 22.3687 17.822C22.3807 17.8929 22.3054 18.1714 20.829 18.7862C19.43 19.3699 19.6919 20.7859 19.8181 21.4665C19.8513 21.6465 19.9035 21.9285 19.9005 22.0763C19.8266 22.0999 19.6718 22.1331 19.3862 22.1356C19.1339 22.1381 18.8936 22.2421 18.7197 22.4257C18.4874 22.6705 18.3437 23.0223 18.1265 23.5557C17.8229 24.2987 17.2588 25.682 16.6159 25.8132C16.2107 25.8982 15.9785 25.6654 15.5894 24.0242C15.509 23.6834 15.4321 23.3596 15.3325 23.0726L15.3336 23.0721L15.3094 23.0082C15.3064 23.0002 15.3039 22.9937 15.3009 22.9861C15.3004 22.984 15.2994 22.9816 15.2988 22.9796C15.2561 22.8665 15.238 22.7971 15.2305 22.7594C15.2481 22.7297 15.2687 22.7016 15.2898 22.6699C15.4356 22.4457 15.6568 22.1084 15.796 21.5328C16.08 20.361 15.3908 19.7307 15.0596 19.4276C14.9902 19.3637 14.8781 19.2712 14.8756 19.2712C14.8695 18.6891 14.7876 17.8602 14.1452 17.3811C13.4625 16.8714 12.6321 17.1092 11.9655 17.3007C11.6127 17.4018 11.2472 17.5063 10.9466 17.5073C9.95683 17.4988 9.79947 17.3057 9.27519 16.1526C8.6971 14.8823 8.79565 14.7793 9.99806 13.5226L10.1086 13.407C10.2398 13.2697 10.3786 13.1154 10.5239 12.9541C10.9657 12.4629 11.5152 11.8512 11.9686 11.6496C12.2918 11.5058 12.6688 11.5621 13.258 11.6662C13.6079 11.7275 14.0035 11.7979 14.4172 11.7984C14.6881 11.7984 14.95 11.7617 15.1728 11.729C15.4115 11.6933 15.6176 11.6622 15.7881 11.6908C15.8544 11.7014 16.0339 11.7893 16.1525 11.8477C16.525 12.0297 17.0332 12.2775 17.6274 12.181C18.5166 12.0346 19.1334 11.439 19.2777 10.5879C19.4446 9.6027 18.9082 8.49879 18.0295 8.02022C17.2509 7.59648 16.2359 7.57637 15.2542 7.55677C14.7319 7.54623 13.9326 7.53066 13.4998 7.37478C13.6783 7.27526 13.8974 7.16815 14.0678 7.08471C14.6921 6.77907 15.3999 6.43275 15.9182 5.88327C16.4963 5.27198 16.7683 4.22035 17.0568 3.10693C17.0699 3.05675 17.083 3.00656 17.096 2.95632C22.5278 3.64294 26.8957 7.78991 27.9177 13.1122C27.839 13.0752 27.7448 13.0272 27.6298 12.9661C27.1628 12.7173 26.5239 12.3775 25.7875 12.6223C25.0817 12.8575 24.8163 13.5066 24.6584 13.8951C24.2653 13.6197 23.4856 12.8465 22.9141 12.2076C22.5723 11.8256 21.9856 11.7924 21.6041 12.1342C21.2225 12.4756 21.1888 13.0622 21.5307 13.4443C21.788 13.7323 23.1121 15.1896 23.9079 15.6093C24.2452 15.7873 24.5649 15.8762 24.865 15.8762C25.0329 15.8762 25.1947 15.848 25.3495 15.7923C25.9834 15.5615 26.2192 14.9814 26.3765 14.5974C26.3946 14.5521 26.4178 14.4963 26.4404 14.444C26.5394 14.4888 26.6631 14.5542 26.7565 14.6044C27.0837 14.779 27.5708 15.0383 28.1369 15.0722C28.1417 15.2148 28.145 15.3579 28.145 15.5017C28.145 17.545 27.6572 19.4762 26.7929 21.1861C26.4492 20.9113 25.9216 20.6591 25.1253 20.6176C24.3009 20.5693 22.7968 20.9252 21.9815 23.7779C21.8408 24.2701 22.1263 24.7843 22.6189 24.9251C22.7039 24.9497 22.7903 24.9613 22.8748 24.9613C23.278 24.9613 23.6494 24.6953 23.766 24.2882C24.0938 23.1441 24.5664 22.4403 25.0278 22.471C25.4903 22.4956 25.6356 22.6288 25.6692 22.6691C25.717 22.7264 25.7336 22.8209 25.7367 22.9155C23.4368 26.0818 19.7059 28.1451 15.5015 28.1451Z" fill="#343636"/>
<path d="M27.4591 23.6925C29.0616 21.3604 30.001 18.5388 30.001 15.5015C30.001 7.50528 23.4967 1 15.5015 1C12.5802 1 9.8585 1.86907 7.57971 3.36103C7.52658 3.38918 7.4773 3.42181 7.43199 3.45834C3.55565 6.06413 1 10.4898 1 15.5015C1 23.4967 7.50528 30.001 15.5015 30.001C20.3877 30.001 24.7167 27.5714 27.3449 23.8571C27.3887 23.8071 27.4266 23.7517 27.4591 23.6925ZM15.5015 28.1451C8.52876 28.1451 2.85595 22.4733 2.85595 15.5015C2.85595 11.4474 4.77404 7.83324 7.74992 5.51747C8.1983 6.072 8.74354 6.4199 9.32504 6.50543C9.42756 6.52049 9.53116 6.52757 9.63572 6.52757C10.348 6.52757 11.0955 6.19831 11.8822 5.85194C12.1863 5.7177 12.504 5.57745 12.8308 5.45278C13.3094 5.26983 13.5497 4.73342 13.3667 4.25491C13.1842 3.77582 12.6478 3.53657 12.1688 3.71907C11.8124 3.85529 11.4655 4.0071 11.1337 4.1534C10.5707 4.40121 9.86801 4.70635 9.5955 4.66913C9.52006 4.65792 9.41821 4.59295 9.30731 4.48046C11.058 3.49261 13.0658 2.90942 15.2034 2.85969C15.0237 3.54642 14.7944 4.37034 14.5691 4.60926C14.281 4.91389 13.7341 5.18129 13.252 5.41761C12.4573 5.80618 11.6359 6.20834 11.4458 7.03124C11.3724 7.34895 11.3745 7.84361 11.8033 8.39349C12.5558 9.35914 13.9085 9.38581 15.217 9.41193C15.9409 9.42597 16.7607 9.44206 17.1413 9.64971C17.2675 9.71859 17.3836 9.88699 17.4313 10.0685C17.4705 10.2178 17.4449 10.3032 17.4399 10.3133C17.4394 10.3138 17.4117 10.3354 17.366 10.347C17.2931 10.3389 17.0975 10.2434 16.9683 10.1801C16.7125 10.0554 16.4219 9.91321 16.0841 9.85889C15.6301 9.78548 15.227 9.8453 14.9027 9.8931C14.7213 9.91973 14.5765 9.94085 14.4207 9.94289C14.1678 9.94238 13.8828 9.89214 13.5812 9.83884C12.9086 9.71972 12.0721 9.57194 11.2145 9.95394C10.4002 10.3164 9.70346 11.0905 9.14395 11.7129C9.01175 11.8601 8.88555 12.0004 8.76643 12.1256L8.65682 12.2401C7.3976 13.5567 6.48776 14.5078 7.58509 16.9216C8.21445 18.3055 8.8604 19.3642 10.9325 19.3642C10.9395 19.3642 10.9461 19.3642 10.9526 19.3642C11.5111 19.3622 12.0243 19.2149 12.4773 19.0852C12.6326 19.0405 12.8422 18.9802 12.997 18.9495C13.0086 19.0274 13.0181 19.138 13.0196 19.2903C13.0276 20.0841 13.5152 20.5305 13.8068 20.7969C13.8797 20.8643 13.9903 20.9653 14.0069 20.9889C14.0069 20.9889 14.0104 21.0201 13.9923 21.095C13.928 21.3599 13.843 21.4896 13.736 21.6535C13.4369 22.112 13.1971 22.6021 13.5303 23.5476L13.5293 23.5487L13.5545 23.6155C13.5575 23.6235 13.5605 23.6316 13.5635 23.6401C13.5656 23.6447 13.5671 23.6497 13.5691 23.6542C13.6405 23.8512 13.7093 24.1428 13.7827 24.4514C14.0401 25.5357 14.5509 27.6913 16.4199 27.6908C16.5958 27.6908 16.7843 27.6722 16.9869 27.6325C18.603 27.3037 19.351 25.4694 19.8457 24.2564C19.8839 24.1624 19.9286 24.0539 19.9709 23.9528C20.5927 23.8673 21.0491 23.6396 21.3593 23.2647C21.9143 22.5911 21.758 21.7465 21.6438 21.1292C21.6087 20.9397 21.5523 20.6391 21.5609 20.4928C22.5246 20.0912 24.4971 19.2597 24.1985 17.5109C24.0668 16.7347 23.3847 16.0461 22.5216 15.1744C21.851 14.4968 20.6033 13.236 20.8526 12.7716C21.0955 12.3202 20.9261 11.7577 20.4746 11.5148C20.0242 11.2725 19.4607 11.4414 19.2179 11.8929C18.3186 13.5663 19.9176 15.1814 21.2025 16.4799C21.6373 16.9188 22.2948 17.5823 22.3687 17.822C22.3807 17.8929 22.3054 18.1714 20.829 18.7862C19.43 19.3699 19.6919 20.7859 19.8181 21.4665C19.8513 21.6465 19.9035 21.9285 19.9005 22.0763C19.8266 22.0999 19.6718 22.1331 19.3862 22.1356C19.1339 22.1381 18.8936 22.2421 18.7197 22.4257C18.4874 22.6705 18.3437 23.0223 18.1265 23.5557C17.8229 24.2987 17.2588 25.682 16.6159 25.8132C16.2107 25.8982 15.9785 25.6654 15.5894 24.0242C15.509 23.6834 15.4321 23.3596 15.3325 23.0726L15.3336 23.0721L15.3094 23.0082C15.3064 23.0002 15.3039 22.9937 15.3009 22.9861C15.3004 22.984 15.2994 22.9816 15.2988 22.9796C15.2561 22.8665 15.238 22.7971 15.2305 22.7594C15.2481 22.7297 15.2687 22.7016 15.2898 22.6699C15.4356 22.4457 15.6568 22.1084 15.796 21.5328C16.08 20.361 15.3908 19.7307 15.0596 19.4276C14.9902 19.3637 14.8781 19.2712 14.8756 19.2712C14.8695 18.6891 14.7876 17.8602 14.1452 17.3811C13.4625 16.8714 12.6321 17.1092 11.9655 17.3007C11.6127 17.4018 11.2472 17.5063 10.9466 17.5073C9.95683 17.4988 9.79947 17.3057 9.27519 16.1526C8.6971 14.8823 8.79565 14.7793 9.99806 13.5226L10.1086 13.407C10.2398 13.2697 10.3786 13.1154 10.5239 12.9541C10.9657 12.4629 11.5152 11.8512 11.9686 11.6496C12.2918 11.5058 12.6688 11.5621 13.258 11.6662C13.6079 11.7275 14.0035 11.7979 14.4172 11.7984C14.6881 11.7984 14.95 11.7617 15.1728 11.729C15.4115 11.6933 15.6176 11.6622 15.7881 11.6908C15.8544 11.7014 16.0339 11.7893 16.1525 11.8477C16.525 12.0297 17.0332 12.2775 17.6274 12.181C18.5166 12.0346 19.1334 11.439 19.2777 10.5879C19.4446 9.6027 18.9082 8.49879 18.0295 8.02022C17.2509 7.59648 16.2359 7.57637 15.2542 7.55677C14.7319 7.54623 13.9326 7.53066 13.4998 7.37478C13.6783 7.27526 13.8974 7.16815 14.0678 7.08471C14.6921 6.77907 15.3999 6.43275 15.9182 5.88327C16.4963 5.27198 16.7683 4.22035 17.0568 3.10693C17.0699 3.05675 17.083 3.00656 17.096 2.95632C22.5278 3.64294 26.8957 7.78991 27.9177 13.1122C27.839 13.0752 27.7448 13.0272 27.6298 12.9661C27.1628 12.7173 26.5239 12.3775 25.7875 12.6223C25.0817 12.8575 24.8163 13.5066 24.6584 13.8951C24.2653 13.6197 23.4856 12.8465 22.9141 12.2076C22.5723 11.8256 21.9856 11.7924 21.6041 12.1342C21.2225 12.4756 21.1888 13.0622 21.5307 13.4443C21.788 13.7323 23.1121 15.1896 23.9079 15.6093C24.2452 15.7873 24.5649 15.8762 24.865 15.8762C25.0329 15.8762 25.1947 15.848 25.3495 15.7923C25.9834 15.5615 26.2192 14.9814 26.3765 14.5974C26.3946 14.5521 26.4178 14.4963 26.4404 14.444C26.5394 14.4888 26.6631 14.5542 26.7565 14.6044C27.0837 14.779 27.5708 15.0383 28.1369 15.0722C28.1417 15.2148 28.145 15.3579 28.145 15.5017C28.145 17.545 27.6572 19.4762 26.7929 21.1861C26.4492 20.9113 25.9216 20.6591 25.1253 20.6176C24.3009 20.5693 22.7968 20.9252 21.9815 23.7779C21.8408 24.2701 22.1263 24.7843 22.6189 24.9251C22.7039 24.9497 22.7903 24.9613 22.8748 24.9613C23.278 24.9613 23.6494 24.6953 23.766 24.2882C24.0938 23.1441 24.5664 22.4403 25.0278 22.471C25.4903 22.4956 25.6356 22.6288 25.6692 22.6691C25.717 22.7264 25.7336 22.8209 25.7367 22.9155C23.4368 26.0818 19.7059 28.1451 15.5015 28.1451Z" stroke="#343636" stroke-width="0.322233" mask="url(#path-1-outside-1_12527_84567)"/>
</svg>
