<svg width="33" height="28" viewBox="0 0 33 28" fill="none" xmlns="http://www.w3.org/2000/svg">
<path d="M26.5629 6.88644H6.88867V26.4385H26.5629V6.88644Z" stroke="#343636" stroke-width="2.60693" stroke-miterlimit="10" stroke-linecap="round" stroke-linejoin="round"/>
<path d="M19.7809 2.00066H13.6709C12.6586 2.00066 11.8379 2.82136 11.8379 3.83367V6.88867H21.6139V3.83367C21.6139 2.82136 20.7932 2.00066 19.7809 2.00066Z" stroke="#343636" stroke-width="2.60693" stroke-miterlimit="10" stroke-linecap="round" stroke-linejoin="round"/>
<path d="M6.888 6.88351H4.444C3.09424 6.88351 2 7.97769 2 9.32751V23.9915C2 25.3414 3.09424 26.4355 4.444 26.4355H6.888V6.88351Z" stroke="#343636" stroke-width="2.60693" stroke-miterlimit="10" stroke-linecap="round" stroke-linejoin="round"/>
<path d="M29.0065 6.88351H26.5625V26.4355H29.0065C30.3563 26.4355 31.4505 25.3414 31.4505 23.9915V9.32751C31.4505 7.97769 30.3563 6.88351 29.0065 6.88351Z" stroke="#343636" stroke-width="2.60693" stroke-miterlimit="10" stroke-linecap="round" stroke-linejoin="round"/>
<path d="M18.2089 17.8822L13.9757 20.3262L10.6152 14.5056L11.8153 11.6962L14.8484 12.0616L18.2089 17.8822Z" stroke="#343636" stroke-width="2.60693" stroke-miterlimit="10" stroke-linecap="round" stroke-linejoin="round"/>
<path d="M11.8161 11.6963C11.8161 11.6963 9.39403 9.32823 11.838 6.88423" stroke="#343636" stroke-width="2.60693" stroke-miterlimit="10" stroke-linecap="round" stroke-linejoin="round"/>
<path d="M22.8359 12.3877C22.8359 13.4 22.0152 14.2207 21.0029 14.2207C19.9906 14.2207 19.1699 13.4 19.1699 12.3877C19.1699 11.3754 19.9906 10.5547 21.0029 10.5547C22.0152 10.5547 22.8359 11.3754 22.8359 12.3877Z" stroke="#343636" stroke-width="1.833" stroke-miterlimit="10" stroke-linecap="round" stroke-linejoin="round"/>
</svg>
