<svg width="17" height="26" viewBox="0 0 17 26" fill="none" xmlns="http://www.w3.org/2000/svg">
<path d="M16.7 13.4584V13.4581C16.7 13.102 16.5585 12.7604 16.3067 12.5086C16.0549 12.2568 15.7133 12.1153 15.3572 12.1153C15.001 12.1153 14.6594 12.2568 14.4076 12.5086C14.1558 12.7604 14.0143 13.102 14.0143 13.4581C14.0143 14.9206 13.4333 16.3232 12.3992 17.3573C11.3651 18.3915 9.96249 18.9724 8.50001 18.9724C7.03752 18.9724 5.63494 18.3915 4.60081 17.3573C3.56668 16.3232 2.98572 14.9206 2.98572 13.4581C2.98572 13.102 2.84424 12.7604 2.5924 12.5086C2.34057 12.2568 1.99901 12.1153 1.64286 12.1153C1.28671 12.1153 0.945149 12.2568 0.693314 12.5086C0.44148 12.7604 0.3 13.102 0.3 13.4581L0.3 13.4584C0.302309 15.4285 1.01388 17.332 2.30453 18.8206C3.55726 20.2654 5.27425 21.2255 7.15715 21.5381V23.7439C7.15715 24.1 7.29863 24.4416 7.55046 24.6934C7.8023 24.9452 8.14386 25.0867 8.50001 25.0867C8.85615 25.0867 9.19771 24.9452 9.44955 24.6934C9.70138 24.4416 9.84286 24.1 9.84286 23.7439V21.5381C11.7258 21.2255 13.4428 20.2654 14.6955 18.8206C15.9861 17.332 16.6977 15.4285 16.7 13.4584ZM5.12609 16.8321C6.02091 17.7269 7.23454 18.2296 8.50001 18.2296C9.76547 18.2296 10.9791 17.7269 11.8739 16.8321C12.7687 15.9372 13.2714 14.7236 13.2714 13.4581V5.45815C13.2714 4.19269 12.7687 2.97905 11.8739 2.08424C10.9791 1.18942 9.76547 0.686719 8.50001 0.686719C7.23454 0.686719 6.02091 1.18942 5.12609 2.08424C4.23128 2.97905 3.72857 4.19269 3.72857 5.45815V13.4581C3.72857 14.7236 4.23128 15.9372 5.12609 16.8321ZM7.02518 3.98332C7.41633 3.59218 7.94684 3.37243 8.50001 3.37243C9.05317 3.37243 9.58368 3.59218 9.97483 3.98332C10.366 4.37447 10.5857 4.90498 10.5857 5.45815V13.4581C10.5857 14.0113 10.366 14.5418 9.97483 14.933C9.58368 15.3241 9.05317 15.5439 8.50001 15.5439C7.94684 15.5439 7.41633 15.3241 7.02518 14.933C6.63403 14.5418 6.41429 14.0113 6.41429 13.4581V5.45815C6.41429 4.90498 6.63403 4.37447 7.02518 3.98332Z" fill="#343636" stroke="#343636" stroke-width="0.4"/>
</svg>
