<svg width="101" height="101" viewBox="0 0 101 101" fill="none" xmlns="http://www.w3.org/2000/svg">
<path fill-rule="evenodd" clip-rule="evenodd" d="M29.1314 28.8421C29.3644 22.3716 31.9924 17.0102 36.2244 12.716C37.7703 11.1474 39.4246 9.83524 41.0808 8.76611C42.0822 8.11967 42.8708 7.69382 43.3473 7.47419C47.7113 5.49435 49.7731 3.47902 49.7731 1.57633C49.7731 0.948512 50.282 0.439566 50.9099 0.439566C50.9361 0.439566 50.9622 0.440457 50.988 0.44221C51.0144 0.440382 51.041 0.439453 51.0678 0.439453C51.6956 0.439453 52.2046 0.948399 52.2046 1.57622C52.2046 3.47891 54.2664 5.49424 58.6304 7.47407C59.1069 7.6937 59.8955 8.11955 60.8969 8.766C62.5531 9.83512 64.2074 11.1473 65.7532 12.7159C69.9195 16.9434 72.5312 22.2051 72.8337 28.5411C78.949 28.9529 84.0467 31.5358 88.1635 35.593C89.7321 37.1389 91.0443 38.7932 92.1134 40.4494C92.7598 41.4508 93.1857 42.2393 93.4053 42.7159C95.3852 47.0799 97.4005 49.1417 99.3032 49.1417C99.931 49.1417 100.44 49.6506 100.44 50.2784C100.44 50.305 100.439 50.3313 100.437 50.3574C100.439 50.3834 100.44 50.4097 100.44 50.4363C100.44 51.0641 99.931 51.573 99.3032 51.573C97.4005 51.573 95.3852 53.6348 93.4053 57.9988C93.1857 58.4754 92.7598 59.2639 92.1134 60.2653C91.0443 61.9215 89.7321 63.5759 88.1635 65.1217C83.8999 69.3235 78.5844 71.9441 72.1758 72.2093C71.9051 78.6073 69.2858 83.915 65.0891 88.1734C63.5433 89.7419 61.889 91.0541 60.2328 92.1233C59.2314 92.7697 58.4428 93.1955 57.9663 93.4152C54.2279 95.1112 52.179 96.8332 51.6683 98.4882C51.7126 98.7595 51.7349 99.0344 51.7349 99.313C51.7349 99.9409 51.2259 100.45 50.5981 100.45C50.5654 100.45 50.533 100.448 50.5009 100.446C50.4689 100.448 50.4365 100.45 50.4037 100.45C49.7759 100.45 49.267 99.9409 49.267 99.313C49.267 99.0344 49.2892 98.7595 49.3335 98.4882C48.8228 96.8332 46.7739 95.1112 43.0355 93.4152C42.559 93.1955 41.7705 92.7697 40.769 92.1233C39.1128 91.0541 37.4585 89.7419 35.9127 88.1734C31.7165 83.9155 29.0973 78.6084 28.8261 72.2113C22.363 71.9744 17.007 69.3473 12.7164 65.1189C11.1478 63.573 9.83561 61.9187 8.76649 60.2625C8.12004 59.2611 7.69419 58.4725 7.47456 57.996C5.77966 54.26 4.05874 52.2113 2.40474 51.699C2.13239 51.7437 1.85642 51.7661 1.5767 51.7661C0.948886 51.7661 0.439941 51.2571 0.439941 50.6293C0.439941 50.5963 0.441348 50.5637 0.444103 50.5314C0.441348 50.4991 0.439941 50.4664 0.439941 50.4334C0.439941 49.8056 0.948886 49.2967 1.5767 49.2967C1.85642 49.2967 2.1324 49.3191 2.40475 49.3637C4.05874 48.8514 5.77966 46.8027 7.47456 43.0667C7.69419 42.5902 8.12004 41.8017 8.76649 40.8002C9.83561 39.144 11.1478 37.4897 12.7164 35.9439C17.0744 31.649 22.5314 29.0062 29.1314 28.8421ZM71.0928 30.7566L71.1335 30.7567C71.3061 30.8624 71.5091 30.9233 71.7264 30.9233C71.923 30.9233 72.108 30.8734 72.2693 30.7856C77.99 31.0695 82.7263 33.4266 86.5677 37.2123C88.0102 38.634 89.22 40.1592 90.2033 41.6824C90.546 42.2132 90.8352 42.7045 91.0719 43.1428C91.2104 43.3993 91.2987 43.5766 91.3377 43.6614C92.8016 46.8881 94.3857 49.1411 96.1272 50.3574C94.3857 51.5736 92.8016 53.8266 91.3377 57.0533C91.2987 57.1381 91.2104 57.3154 91.0719 57.5719C90.8352 58.0102 90.546 58.5015 90.2033 59.0323C89.22 60.5556 88.0102 62.0807 86.5677 63.5024C82.466 67.5446 77.3441 69.9581 71.0928 69.9581C70.9895 69.9581 70.8894 69.9719 70.7942 69.9977C70.2958 70.1182 69.9255 70.5672 69.9255 71.1027C69.9255 77.3539 67.5121 82.4758 63.4698 86.5775C62.0482 88.0201 60.523 89.2298 58.9998 90.2131C58.4689 90.5558 57.9777 90.845 57.5394 91.0817C57.2828 91.2203 57.1055 91.3085 57.0208 91.3476C53.9439 92.7435 51.7524 94.2488 50.5009 95.8955C49.2494 94.2488 47.058 92.7435 43.981 91.3476C43.8963 91.3085 43.719 91.2203 43.4625 91.0817C43.0242 90.845 42.5329 90.5558 42.0021 90.2131C40.4788 89.2298 38.9537 88.0201 37.532 86.5775C33.4897 82.4758 31.0763 77.3539 31.0763 71.1027C31.0763 70.4761 30.5694 69.968 29.9434 69.9659C29.8923 69.9589 29.8401 69.9553 29.7871 69.9553C23.5358 69.9553 18.4139 67.5418 14.3122 63.4995C12.8696 62.0779 11.6599 60.5527 10.6766 59.0295C10.3339 58.4986 10.0447 58.0074 9.80802 57.5691C9.66947 57.3125 9.5812 57.1352 9.54214 57.0505C8.14652 53.9742 6.64159 51.783 4.99521 50.5314C6.64159 49.2798 8.14652 47.0886 9.54214 44.0123C9.5812 43.9275 9.66947 43.7502 9.80802 43.4937C10.0447 43.0554 10.3339 42.5641 10.6766 42.0333C11.6599 40.51 12.8696 38.9849 14.3122 37.5632C18.4139 33.521 23.5358 31.1075 29.7871 31.1075C30.0248 31.1075 30.2454 31.0346 30.4278 30.9098C30.9718 30.825 31.388 30.3544 31.388 29.7867C31.388 23.5355 33.8015 18.4135 37.8438 14.3118C39.2654 12.8693 40.7906 11.6595 42.3138 10.6762C42.8447 10.3336 43.3359 10.0444 43.7742 9.80764C44.0307 9.6691 44.2081 9.58082 44.2928 9.54177C47.5196 8.07786 49.7726 6.49368 50.9889 4.75216C52.2051 6.49364 54.4581 8.07778 57.6849 9.54165C57.7696 9.58071 57.9469 9.66898 58.2035 9.80753C58.6418 10.0442 59.133 10.3334 59.6639 10.6761C61.1871 11.6594 62.7122 12.8692 64.1339 14.3117C67.9207 18.1542 70.2781 22.8921 70.5609 28.615C70.2011 28.8058 69.9561 29.1842 69.9561 29.6199C69.9561 30.2477 70.465 30.7566 71.0928 30.7566Z" fill="#00C0C5"/>
<path fill-rule="evenodd" clip-rule="evenodd" d="M81.6997 50.9991C86.3164 46.1967 88.3331 40.433 88.3781 34.273C88.3941 32.0708 88.1522 29.9732 87.7371 28.0461C87.4861 26.8809 87.2296 26.0222 87.048 25.5299C85.3621 21.0441 85.3292 18.1612 86.6746 16.8158C87.1186 16.3718 87.1186 15.6521 86.6746 15.2082C86.6585 15.192 86.642 15.1764 86.6251 15.1614C86.6056 15.1386 86.5851 15.1164 86.5635 15.0948C86.1195 14.6508 85.3998 14.6508 84.9558 15.0948C83.6104 16.4402 80.7275 16.4073 76.2417 14.7215C75.7494 14.5398 74.8907 14.2833 73.7255 14.0323C71.7984 13.6172 69.7008 13.3753 67.4986 13.3914C61.3441 13.4363 55.5852 15.4494 50.7854 20.0574C46.0438 15.6422 40.3919 13.7075 34.36 13.6635C32.1578 13.6474 30.0601 13.8893 28.133 14.3045C26.9678 14.5555 26.1091 14.8119 25.6168 14.9936C21.1311 16.6795 18.2481 16.7123 16.9027 15.3669C16.4588 14.923 15.739 14.923 15.2951 15.3669C15.2761 15.3859 15.2579 15.4054 15.2406 15.4253C15.2212 15.4422 15.2023 15.4599 15.1839 15.4783C14.74 15.9222 14.74 16.642 15.1839 17.0859C16.5293 18.4313 16.4965 21.3143 14.8106 25.8001C14.6289 26.2923 14.3725 27.151 14.1215 28.3163C13.7063 30.2434 13.4644 32.341 13.4805 34.5432C13.5246 40.5828 15.4641 46.2415 19.8912 50.9867C15.6643 55.6679 13.8065 61.2126 13.7634 67.122C13.7473 69.3242 13.9892 71.4218 14.4044 73.3489C14.6554 74.5142 14.9118 75.3729 15.0935 75.8651C16.536 79.7034 16.7683 82.3682 15.9625 83.9004C15.7375 84.0618 15.5257 84.2416 15.3273 84.4401C14.8833 84.884 14.8833 85.6038 15.3273 86.0477C15.3511 86.0716 15.3757 86.0941 15.4011 86.1154C15.4218 86.1399 15.4437 86.1638 15.4668 86.1869C15.9108 86.6308 16.6305 86.6308 17.0744 86.1869C17.2728 85.9885 17.4526 85.7769 17.614 85.552C19.1462 84.7462 21.8109 84.9786 25.649 86.421C26.1413 86.6027 27 86.8591 28.1652 87.1102C30.0923 87.5253 32.19 87.7672 34.3921 87.7511C40.4166 87.7072 46.062 85.7772 50.7998 81.3737C55.5142 85.7029 61.1175 87.6024 67.0938 87.646C69.2959 87.6621 71.3936 87.4202 73.3207 87.005C74.4859 86.754 75.3446 86.4976 75.8369 86.3159C79.6745 84.8736 82.3391 84.6412 83.8714 85.4466C84.0329 85.6718 84.2128 85.8837 84.4115 86.0823C84.8554 86.5262 85.5751 86.5262 86.0191 86.0823C86.0427 86.0586 86.0651 86.0342 86.0862 86.0091C86.1111 85.9882 86.1352 85.966 86.1586 85.9426C86.6026 85.4987 86.6026 84.7789 86.1586 84.335C85.9601 84.1364 85.7482 83.9565 85.523 83.7949C84.7177 82.2626 84.9501 79.5981 86.3924 75.7605C86.5741 75.2683 86.8305 74.4095 87.0815 73.2443C87.4967 71.3172 87.7386 69.2196 87.7225 67.0174C87.6797 61.1572 85.8524 55.6556 81.6997 50.9991ZM67.5152 15.6648C61.7565 15.7068 56.4282 17.622 52.0079 22.0423C51.8398 22.2104 51.6321 22.3149 51.4149 22.3557C50.9686 22.7579 50.2804 22.7442 49.8506 22.3145C45.4303 17.8942 40.102 15.979 34.3434 15.937C32.3181 15.9222 30.3842 16.1452 28.6118 16.527C27.9941 16.6601 27.4423 16.8029 26.965 16.9455C26.6856 17.0289 26.4978 17.0919 26.4103 17.1242C23.0938 18.3706 20.3807 18.8436 18.2893 18.4724C18.6606 20.5638 18.1876 23.2769 16.9412 26.5935C16.9089 26.681 16.8459 26.8688 16.7625 27.1482C16.6199 27.6255 16.4771 28.1774 16.344 28.795C15.9622 30.5674 15.7392 32.5013 15.7539 34.5266C15.7949 40.1448 17.6188 45.3533 21.8124 49.7087C22.0329 49.7483 22.2439 49.8533 22.4144 50.0237C22.8583 50.4676 22.8583 51.1874 22.4144 51.6313C17.9941 56.0516 16.0789 61.3799 16.0369 67.1386C16.0221 69.1639 16.2451 71.0978 16.6269 72.8702C16.76 73.4878 16.9028 74.0397 17.0454 74.517C17.1288 74.7964 17.1918 74.9842 17.2241 75.0717C18.4123 78.2334 18.8976 80.8467 18.6187 82.8957C20.6677 82.6169 23.2809 83.1023 26.4425 84.2905C26.53 84.3228 26.7178 84.3857 26.9972 84.4691C27.4745 84.6117 28.0263 84.7546 28.644 84.8876C30.4164 85.2694 32.3502 85.4924 34.3756 85.4777C40.1342 85.4356 45.4625 83.5205 49.8828 79.1002C49.9107 79.0723 49.9396 79.0462 49.9695 79.0218C49.978 79.0128 49.9866 79.0039 49.9955 78.9951C50.4394 78.5511 51.1591 78.5511 51.6031 78.9951C56.0234 83.4154 61.3517 85.3305 67.1103 85.3726C69.1357 85.3873 71.0695 85.1643 72.8419 84.7825C73.4596 84.6495 74.0114 84.5066 74.4887 84.364C74.7681 84.2806 74.9559 84.2176 75.0434 84.1853C78.2049 82.9972 80.8181 82.5118 82.8671 82.7906C82.5883 80.7416 83.0737 78.1285 84.2618 74.9671C84.2941 74.8796 84.3571 74.6918 84.4405 74.4124C84.5831 73.9351 84.7259 73.3832 84.859 72.7655C85.2408 70.9932 85.4638 69.0593 85.449 67.034C85.407 61.2753 83.4918 55.947 79.0715 51.5267C78.6276 51.0828 78.6276 50.363 79.0715 49.9191C79.3004 49.6902 79.6026 49.5793 79.9025 49.5865C84.1981 45.2013 86.0631 39.9383 86.1046 34.2565C86.1194 32.2311 85.8963 30.2973 85.5145 28.5249C85.3815 27.9072 85.2386 27.3554 85.0961 26.8781C85.0126 26.5987 84.9497 26.4109 84.9174 26.3234C83.6705 23.0057 83.1976 20.2918 83.5696 18.2002C81.4782 18.5715 78.765 18.0985 75.4483 16.852C75.3607 16.8197 75.1729 16.7568 74.8936 16.6733C74.4163 16.5308 73.8644 16.3879 73.2467 16.2549C71.4743 15.8731 69.5405 15.65 67.5152 15.6648Z" fill="#00C0C5"/>
<path fill-rule="evenodd" clip-rule="evenodd" d="M73.4233 28.8118C73.3766 28.6127 73.2757 28.4237 73.1204 28.2684C72.6765 27.8245 71.9568 27.8245 71.5128 28.2684C70.71 29.0713 69.527 29.2841 65.5764 29.5226C62.4584 29.7108 60.8264 29.9758 59.272 30.7725C56.7954 32.0418 53.7862 34.9674 50.1741 39.5686C47.0448 35.6186 44.4023 33.098 42.1831 31.9908C40.7212 31.2614 39.1884 31.0399 36.255 30.9164C33.5707 30.8034 32.2614 30.6771 31.4754 30.3393C31.2494 29.8514 30.9495 29.4523 30.5437 29.0464C30.0998 28.6025 29.38 28.6025 28.9361 29.0464C28.5229 29.4596 28.4943 30.1118 28.8502 30.558C28.8145 30.8884 28.9233 31.2314 29.1766 31.4847C29.3059 31.614 29.4345 31.7325 29.5655 31.8413C29.7824 32.6635 29.8833 33.9378 29.9754 36.1248C30.099 39.0582 30.3205 40.5911 31.0498 42.053C32.2099 44.3783 34.9218 47.1683 39.2037 50.496C34.7199 54.0368 31.862 56.9936 30.6115 59.4334C29.8149 60.9878 29.5499 62.6198 29.3617 65.7378C29.1239 69.6759 28.9117 70.8638 28.1151 71.6665L28.1076 71.6741L28.0864 71.6958C28.0396 71.7451 27.9981 71.7976 27.9618 71.8525C27.6705 72.2937 27.7191 72.8934 28.1075 73.2818C28.5514 73.7257 29.2712 73.7257 29.7151 73.2818L29.7232 73.2737C30.5259 72.4774 31.7141 72.2652 35.6516 72.0275C38.7696 71.8393 40.4016 71.5743 41.956 70.7776C44.2764 69.5884 47.0644 66.9452 50.3776 62.8322C53.5654 66.8794 56.2515 69.4562 58.5022 70.5791C59.9642 71.3084 61.497 71.5299 64.4304 71.6535C68.0916 71.8076 69.1949 71.9865 69.9012 72.6928C70.3451 73.1368 71.0649 73.1368 71.5088 72.6928C71.5501 72.6516 71.5875 72.608 71.6211 72.5624C71.6663 72.529 71.7096 72.4918 71.7505 72.4509C72.1945 72.0069 72.1945 71.2872 71.7505 70.8433C71.0442 70.1369 70.8653 69.0337 70.7112 65.3725C70.5876 62.4391 70.3661 60.9063 69.6368 59.4443C68.5045 57.1749 65.8941 54.4628 61.7886 51.2401C66.4081 47.6169 69.3443 44.5995 70.6165 42.1173C71.4132 40.5628 71.6782 38.9308 71.8664 35.8128C72.1049 31.8622 72.3177 30.6793 73.1205 29.8764C73.4093 29.5877 73.5102 29.1822 73.4233 28.8118ZM33.0842 41.0381C34.1202 43.1146 36.898 45.902 41.3957 49.3125C41.6496 49.368 41.8858 49.5104 42.0558 49.7332C42.4367 50.2322 42.3409 50.9456 41.8419 51.3265C36.8804 55.1133 33.8034 58.1903 32.6348 60.4703C32.0317 61.6472 31.8002 63.0726 31.631 65.8748C31.5157 67.785 31.4076 69.1374 31.2254 70.1638C32.2518 69.9816 33.6043 69.8735 35.5146 69.7581C38.3168 69.589 39.7422 69.3575 40.9191 68.7544C43.0036 67.686 45.7541 65.0227 49.1041 60.7825C49.1075 60.4422 49.2631 60.107 49.5556 59.886C49.6775 59.7939 49.812 59.7301 49.9511 59.6935L50.0629 59.5473C50.4438 59.0482 51.1572 58.9525 51.6562 59.3334C52.1553 59.7143 52.2511 60.4276 51.8702 60.9267L51.8226 60.989C54.9702 65.0433 57.5595 67.568 59.5172 68.5447C60.5915 69.0806 61.9161 69.272 64.5261 69.3819C66.4665 69.4637 67.7952 69.5484 68.7865 69.7288C68.6061 68.7375 68.5214 67.4087 68.4396 65.4681C68.3297 62.8582 68.1383 61.5335 67.6024 60.4593C66.5568 58.3634 63.737 55.5437 59.1655 52.09C58.6645 51.7115 58.5653 50.9986 58.9437 50.4977C59.1065 50.2822 59.3311 50.1411 59.5742 50.0803C64.4254 46.3594 67.4395 43.3314 68.5932 41.0803C69.1964 39.9035 69.4278 38.478 69.597 35.6758C69.7123 33.7653 69.8204 32.4128 70.0027 31.3863C68.9763 31.5685 67.6238 31.6767 65.7134 31.792C62.9113 31.9611 61.4858 32.1926 60.309 32.7958C58.1063 33.9247 55.1599 36.8346 51.5483 41.504C51.6539 41.9321 51.5038 42.4012 51.1297 42.6839C50.6288 43.0623 49.9159 42.963 49.5375 42.4621C46.0838 37.8906 43.264 35.0708 41.1682 34.0252C40.0939 33.4892 38.7692 33.2978 36.1593 33.1879C34.3161 33.1103 33.0249 33.03 32.0505 32.8675C32.136 33.7014 32.1921 34.7277 32.247 36.0292C32.3569 38.6391 32.5483 39.9638 33.0842 41.0381Z" fill="#00C0C5"/>
<path fill-rule="evenodd" clip-rule="evenodd" d="M82.2925 50.8488C82.2926 50.8439 82.2926 50.839 82.2926 50.8341C82.2926 50.2063 81.7837 49.6973 81.1559 49.6973C80.0205 49.6973 79.0335 49.0113 76.0714 46.3865C73.7335 44.3148 72.3921 43.3482 70.7297 42.8124C68.081 41.9587 63.8845 41.8996 58.0769 42.599C58.6572 37.5932 58.5711 33.9422 57.7847 31.5901C57.2667 30.0406 56.3394 28.8001 54.3526 26.6385C52.5343 24.6605 51.6979 23.6453 51.3809 22.8507C51.566 22.346 51.6362 21.8518 51.6362 21.278C51.6362 20.6501 51.1273 20.1412 50.4995 20.1412C49.9151 20.1412 49.4338 20.5821 49.3699 21.1493C49.1111 21.3577 48.9456 21.6771 48.9456 22.0352C48.9456 22.218 48.9527 22.3928 48.9684 22.5624C48.5405 23.2971 47.7107 24.2695 46.2292 25.8813C44.2424 28.0429 43.3151 29.2834 42.7971 30.8329C41.9732 33.2974 41.918 37.1877 42.5926 42.5683C36.9185 41.9016 32.807 41.9714 30.1977 42.8124C28.5352 43.3482 27.1938 44.3148 24.856 46.3865C21.8938 49.0113 20.9069 49.6973 19.7715 49.6973C19.1437 49.6973 18.6347 50.2063 18.6347 50.8341C18.6347 51.4619 19.1437 51.9712 19.7715 51.9712C20.9069 51.9712 21.8938 52.6572 24.856 55.282C27.1938 57.3537 28.5352 58.3203 30.1977 58.8561C32.6794 59.6559 36.5198 59.7583 41.7711 59.1927C41.1633 64.3087 41.2406 68.0302 42.0381 70.4157C42.5561 71.9652 43.4834 73.2057 45.4703 75.3672C47.9501 78.0651 48.6037 78.9717 48.6037 79.9706C48.6037 80.5984 49.1127 81.1074 49.7405 81.1074C49.7986 81.1074 49.8557 81.103 49.9114 81.0946C49.9672 81.103 50.0242 81.1074 50.0823 81.1074C50.7101 81.1074 51.2191 80.5984 51.2191 79.9706C51.2191 78.9717 51.8727 78.0651 54.3526 75.3672C56.3394 73.2057 57.2667 71.9652 57.7847 70.4157C58.5889 68.0103 58.6607 64.2466 58.0364 59.0646C63.865 59.7692 68.0748 59.7117 70.7297 58.8561C72.3921 58.3203 73.7335 57.3537 76.0714 55.282C79.0335 52.6572 80.0205 51.9712 81.1559 51.9712C81.7199 51.9712 82.188 51.5603 82.2772 51.0215C82.2866 50.9652 82.2918 50.9076 82.2925 50.8488ZM44.9533 31.5537C44.2175 33.7546 44.2107 37.6893 44.9794 43.2808C45.1199 43.4997 45.1864 43.7676 45.1491 44.0457C45.0655 44.6679 44.4934 45.1046 43.8712 45.021C37.6852 44.1904 33.3337 44.1904 30.8951 44.9763C29.6365 45.382 28.4649 46.2263 26.3638 48.0881C24.9314 49.3574 23.8986 50.2373 23.0439 50.8343C23.8986 51.4312 24.9314 52.3111 26.3638 53.5804C28.4649 55.4422 29.6365 56.2865 30.8951 56.6922C33.1245 57.4107 36.9528 57.4723 42.3199 56.8429C42.5629 56.6047 42.9099 56.4777 43.2731 56.5283C43.4243 56.5494 43.5645 56.5993 43.6888 56.6718L43.8712 56.6475C44.4934 56.5639 45.0655 57.0006 45.1491 57.6229C45.2326 58.2451 44.796 58.8172 44.1737 58.9008L44.0961 58.9112C43.455 64.0038 43.5007 67.6199 44.1943 69.6948C44.575 70.8334 45.3763 71.9055 47.1441 73.8287C48.4584 75.2585 49.338 76.258 49.9114 77.0865C50.4848 76.258 51.3644 75.2585 52.6787 73.8287C54.4465 71.9055 55.2478 70.8334 55.6285 69.6948C56.3711 67.4735 56.3711 63.4857 55.5807 57.811C55.4941 57.1892 55.928 56.6149 56.5498 56.5283C56.817 56.4911 57.0754 56.55 57.2902 56.6786C63.352 57.478 67.6245 57.4682 70.0323 56.6922C71.2909 56.2865 72.4625 55.4422 74.5635 53.5804C75.996 52.3111 77.0288 51.4312 77.8835 50.8343C77.0288 50.2373 75.996 49.3574 74.5635 48.0881C72.4625 46.2263 71.2909 45.382 70.0323 44.9763C67.6765 44.2171 63.5355 44.1913 57.68 44.9393C57.4519 45.3166 57.0141 45.5421 56.5498 45.4775C55.928 45.3908 55.4941 44.8166 55.5807 44.1947C56.3711 38.52 56.3711 34.5323 55.6285 32.311C55.2478 31.1724 54.4465 30.1003 52.6787 28.1771C51.4303 26.8189 50.5741 25.8491 49.9999 25.0452C49.4707 25.6953 48.7847 26.4608 47.9031 27.4199C46.1353 29.3431 45.3339 30.4151 44.9533 31.5537Z" fill="#00C0C5"/>
</svg>
