<svg width="49" height="49" viewBox="0 0 49 49" fill="none" xmlns="http://www.w3.org/2000/svg">
<path fill-rule="evenodd" clip-rule="evenodd" d="M14.0588 13.9159C14.173 10.7456 15.4607 8.11884 17.5344 6.01488C18.2919 5.24637 19.1025 4.60346 19.914 4.07964C20.4047 3.76292 20.7911 3.55427 21.0246 3.44666C23.163 2.47664 24.1732 1.48924 24.1732 0.557011C24.1732 0.249413 24.4226 5.5114e-05 24.7303 5.5114e-05C24.7431 5.5114e-05 24.7559 0.000491702 24.7686 0.00135088C24.7815 0.000455262 24.7945 0 24.8077 0C25.1153 0 25.3647 0.249358 25.3647 0.556956C25.3647 1.48918 26.3749 2.47659 28.5133 3.44661C28.7468 3.55421 29.1332 3.76286 29.6239 4.07959C30.4354 4.6034 31.2461 5.24631 32.0035 6.01482C34.045 8.08609 35.3247 10.6641 35.4729 13.7684C38.4695 13.9701 40.9673 15.2357 42.9846 17.2235C43.7531 17.9808 44.3961 18.7914 44.92 19.6028C45.2368 20.0935 45.4454 20.4798 45.553 20.7133C46.5232 22.8514 47.5107 23.8616 48.443 23.8616C48.7506 23.8616 49 24.111 49 24.4186C49 24.4316 48.9996 24.4445 48.9987 24.4572C48.9996 24.47 49 24.4829 49 24.4959C49 24.8035 48.7506 25.0529 48.443 25.0529C47.5107 25.0529 46.5232 26.063 45.553 28.2012C45.4454 28.4347 45.2368 28.821 44.92 29.3116C44.3961 30.1231 43.7531 30.9336 42.9846 31.691C40.8954 33.7497 38.2908 35.0336 35.1506 35.1636C35.0179 38.2983 33.7345 40.8988 31.6781 42.9852C30.9207 43.7537 30.11 44.3966 29.2985 44.9204C28.8078 45.2371 28.4214 45.4458 28.1879 45.5534C26.3561 46.3843 25.3521 47.228 25.1019 48.0389C25.1236 48.1718 25.1345 48.3065 25.1345 48.443C25.1345 48.7506 24.8851 49 24.5775 49C24.5615 49 24.5456 48.9993 24.5299 48.998C24.5142 48.9993 24.4983 49 24.4823 49C24.1746 49 23.9252 48.7506 23.9252 48.443C23.9252 48.3065 23.9361 48.1718 23.9578 48.0389C23.7076 47.228 22.7036 46.3843 20.8718 45.5534C20.6383 45.4458 20.252 45.2371 19.7613 44.9204C18.9497 44.3966 18.1391 43.7537 17.3817 42.9852C15.3255 40.899 14.0421 38.2988 13.9092 35.1646C10.7423 35.0485 8.11785 33.7614 6.01544 31.6896C5.24685 30.9322 4.60388 30.1217 4.08001 29.3103C3.76325 28.8196 3.55458 28.4333 3.44696 28.1998C2.61646 26.3694 1.77321 25.3656 0.962753 25.1146C0.8293 25.1365 0.694072 25.1474 0.557014 25.1474C0.249383 25.1474 0 24.8981 0 24.5905C0 24.5743 0.000688997 24.5583 0.00203931 24.5425C0.000688997 24.5267 0 24.5107 0 24.4945C0 24.1869 0.249383 23.9376 0.557014 23.9376C0.694072 23.9376 0.829303 23.9485 0.962756 23.9704C1.77321 23.7194 2.61646 22.7156 3.44696 20.8852C3.55458 20.6517 3.76325 20.2654 4.08001 19.7747C4.60388 18.9633 5.24685 18.1528 6.01544 17.3954C8.15087 15.2911 10.8248 13.9963 14.0588 13.9159ZM34.6199 14.8539L34.6398 14.8539C34.7244 14.9057 34.8239 14.9356 34.9304 14.9356C35.0267 14.9356 35.1173 14.9111 35.1964 14.8681C37.9995 15.0072 40.3203 16.162 42.2026 18.0169C42.9094 18.7134 43.5022 19.4606 43.984 20.207C44.1519 20.467 44.2937 20.7077 44.4096 20.9225C44.4775 21.0482 44.5208 21.135 44.5399 21.1766C45.2572 22.7575 46.0334 23.8613 46.8868 24.4572C46.0334 25.0532 45.2572 26.157 44.5399 27.7379C44.5208 27.7794 44.4775 27.8663 44.4096 27.992C44.2937 28.2068 44.1519 28.4474 43.984 28.7075C43.5022 29.4538 42.9094 30.2011 42.2026 30.8976C40.1928 32.8781 37.683 34.0606 34.6199 34.0606C34.5693 34.0606 34.5202 34.0674 34.4736 34.08C34.2294 34.1391 34.0479 34.359 34.0479 34.6214C34.0479 37.6842 32.8653 40.1937 30.8846 42.2033C30.188 42.9101 29.4407 43.5028 28.6943 43.9846C28.4342 44.1524 28.1935 44.2941 27.9787 44.4101C27.853 44.478 27.7661 44.5212 27.7246 44.5404C26.2169 45.2243 25.1431 45.9618 24.5299 46.7686C23.9167 45.9618 22.8428 45.2243 21.3351 44.5404C21.2936 44.5212 21.2067 44.478 21.081 44.4101C20.8663 44.2941 20.6256 44.1524 20.3654 43.9846C19.619 43.5028 18.8717 42.9101 18.1751 42.2033C16.1944 40.1937 15.0118 37.6842 15.0118 34.6214C15.0118 34.3144 14.7634 34.0655 14.4567 34.0644C14.4316 34.061 14.4061 34.0592 14.3801 34.0592C11.317 34.0592 8.80724 32.8767 6.79741 30.8962C6.09055 30.1997 5.49778 29.4525 5.01597 28.7061C4.84805 28.4461 4.70634 28.2054 4.59036 27.9906C4.52247 27.8649 4.47922 27.7781 4.46008 27.7365C3.77622 26.2293 3.03881 25.1557 2.23208 24.5425C3.03881 23.9293 3.77622 22.8557 4.46008 21.3485C4.47922 21.3069 4.52247 21.2201 4.59036 21.0944C4.70634 20.8796 4.84805 20.6389 5.01597 20.3789C5.49778 19.6325 6.09055 18.8853 6.79741 18.1888C8.80724 16.2083 11.317 15.0258 14.3801 15.0258C14.4966 15.0258 14.6047 14.99 14.6941 14.9289C14.9606 14.8874 15.1646 14.6568 15.1646 14.3787C15.1646 11.3159 16.3472 8.80638 18.3279 6.79676C19.0245 6.08998 19.7718 5.49727 20.5182 5.0155C20.7783 4.84761 21.019 4.70591 21.2338 4.58994C21.3595 4.52206 21.4464 4.47881 21.4879 4.45967C23.069 3.74243 24.173 2.96627 24.769 2.11301C25.3649 2.96624 26.4689 3.74239 28.05 4.45962C28.0915 4.47875 28.1784 4.522 28.3041 4.58988C28.5189 4.70586 28.7596 4.84755 29.0197 5.01545C29.7661 5.49721 30.5134 6.08992 31.21 6.79671C33.0656 8.67933 34.2207 11.0006 34.3593 13.8046C34.183 13.8981 34.0629 14.0835 34.0629 14.2969C34.0629 14.6045 34.3123 14.8539 34.6199 14.8539Z" fill="#00C0C5"/>
<path fill-rule="evenodd" clip-rule="evenodd" d="M39.8173 24.7717C42.0794 22.4187 43.0676 19.5948 43.0897 16.5767C43.0975 15.4978 42.979 14.47 42.7756 13.5259C42.6526 12.955 42.5269 12.5342 42.4379 12.2931C41.6119 10.0953 41.5958 8.68275 42.255 8.02357C42.4725 7.80606 42.4725 7.45342 42.255 7.23591C42.2471 7.228 42.239 7.22037 42.2307 7.21303C42.2212 7.20184 42.2111 7.19094 42.2005 7.18037C41.983 6.96286 41.6303 6.96286 41.4128 7.18037C40.7535 7.83955 39.3409 7.82345 37.1429 6.99746C36.9017 6.90846 36.4809 6.7828 35.9099 6.65982C34.9657 6.45643 33.9378 6.3379 32.8587 6.34578C29.843 6.36778 27.0212 7.35413 24.6693 9.61178C22.3459 7.44858 19.5765 6.50068 16.6208 6.47911C15.5417 6.47124 14.5139 6.58976 13.5696 6.79316C12.9987 6.91614 12.5779 7.04179 12.3367 7.13079C10.1387 7.95678 8.726 7.97288 8.06675 7.3137C7.84922 7.0962 7.49654 7.0962 7.27901 7.3137C7.26972 7.323 7.26082 7.33254 7.25232 7.34231C7.24284 7.35059 7.23357 7.35924 7.22454 7.36827C7.00701 7.58578 7.00701 7.93842 7.22454 8.15593C7.88379 8.81511 7.86769 10.2276 7.04162 12.4254C6.9526 12.6666 6.82694 13.0873 6.70394 13.6582C6.50053 14.6024 6.38199 15.6301 6.38987 16.7091C6.41146 19.6682 7.36185 22.4407 9.53113 24.7656C7.45992 27.0592 6.54963 29.7758 6.52849 32.6711C6.52062 33.75 6.63916 34.7778 6.84257 35.722C6.96557 36.2928 7.09123 36.7136 7.18024 36.9548C7.88708 38.8353 8.0009 40.1409 7.60603 40.8916C7.49578 40.9707 7.39203 41.0588 7.29478 41.156C7.07726 41.3736 7.07726 41.7262 7.29478 41.9437C7.30647 41.9554 7.31855 41.9664 7.33097 41.9769C7.34111 41.9889 7.35185 42.0006 7.36317 42.0119C7.5807 42.2294 7.93338 42.2294 8.15091 42.0119C8.24811 41.9147 8.3362 41.811 8.41527 41.7008C9.16605 41.3061 10.4718 41.4199 12.3525 42.1266C12.5937 42.2156 13.0144 42.3413 13.5854 42.4642C14.5297 42.6676 15.5575 42.7862 16.6366 42.7783C19.5886 42.7568 22.3548 41.8112 24.6763 39.6537C26.9864 41.7747 29.732 42.7054 32.6604 42.7268C33.7394 42.7347 34.7673 42.6161 35.7116 42.4128C36.2825 42.2898 36.7033 42.1641 36.9445 42.0751C38.8249 41.3685 40.1306 41.2546 40.8814 41.6492C40.9605 41.7595 41.0487 41.8633 41.146 41.9606C41.3636 42.1781 41.7162 42.1781 41.9338 41.9606C41.9454 41.9491 41.9563 41.9371 41.9667 41.9248C41.9789 41.9145 41.9907 41.9037 42.0022 41.8922C42.2197 41.6747 42.2197 41.3221 42.0022 41.1045C41.9049 41.0073 41.801 40.9191 41.6907 40.84C41.2961 40.0892 41.41 38.7837 42.1167 36.9035C42.2057 36.6623 42.3314 36.2416 42.4544 35.6707C42.6578 34.7265 42.7763 33.6988 42.7685 32.6198C42.7475 29.7486 41.8521 27.0531 39.8173 24.7717ZM32.8669 7.45966C30.0451 7.48025 27.4342 8.41859 25.2683 10.5843C25.1859 10.6667 25.0842 10.7178 24.9777 10.7378C24.759 10.9349 24.4218 10.9282 24.2112 10.7176C22.0453 8.55192 19.4344 7.61358 16.6127 7.59299C15.6203 7.58575 14.6727 7.69502 13.8042 7.88209C13.5016 7.94728 13.2311 8.01727 12.9973 8.08712C12.8604 8.128 12.7684 8.15884 12.7255 8.17467C11.1004 8.78536 9.77097 9.01709 8.7462 8.83522C8.92812 9.8599 8.69637 11.1892 8.0856 12.8142C8.06977 12.857 8.03892 12.9491 7.99804 13.0859C7.92818 13.3198 7.85818 13.5902 7.79299 13.8928C7.6059 14.7612 7.49662 15.7087 7.50386 16.701C7.52395 19.4536 8.41765 22.0055 10.4725 24.1394C10.5805 24.1588 10.684 24.2103 10.7675 24.2938C10.985 24.5113 10.985 24.8639 10.7675 25.0814C8.60152 27.2471 7.66309 29.8578 7.64249 32.6792C7.63525 33.6715 7.74453 34.619 7.93162 35.4874C7.99681 35.79 8.06682 36.0604 8.13666 36.2942C8.17755 36.4311 8.2084 36.5231 8.22423 36.566C8.80647 38.1151 9.04427 39.3955 8.90761 40.3994C9.91162 40.2628 11.1921 40.5006 12.7412 41.0827C12.7841 41.0986 12.8761 41.1294 13.013 41.1703C13.2469 41.2401 13.5173 41.3101 13.82 41.3753C14.6885 41.5624 15.636 41.6717 16.6285 41.6644C19.4502 41.6438 22.0611 40.7055 24.227 38.5398C24.2407 38.5261 24.2548 38.5133 24.2695 38.5014C24.2736 38.497 24.2779 38.4926 24.2822 38.4883C24.4997 38.2708 24.8524 38.2708 25.0699 38.4883C27.2359 40.654 29.8468 41.5923 32.6685 41.6129C33.6609 41.6202 34.6085 41.5109 35.477 41.3238C35.7796 41.2586 36.05 41.1886 36.2839 41.1188C36.4208 41.0779 36.5128 41.0471 36.5557 41.0312C38.1048 40.4491 39.3853 40.2113 40.3893 40.3479C40.2527 39.344 40.4905 38.0637 41.0727 36.5148C41.0886 36.4719 41.1194 36.3799 41.1603 36.243C41.2301 36.0091 41.3001 35.7387 41.3653 35.4361C41.5524 34.5677 41.6617 33.6202 41.6545 32.6279C41.6339 29.8065 40.6954 27.1959 38.5295 25.0302C38.312 24.8127 38.312 24.46 38.5295 24.2425C38.6416 24.1304 38.7897 24.0761 38.9367 24.0795C41.0415 21.931 41.9554 19.3525 41.9757 16.5686C41.9829 15.5763 41.8736 14.6288 41.6866 13.7604C41.6214 13.4578 41.5514 13.1874 41.4815 12.9536C41.4406 12.8167 41.4098 12.7247 41.3939 12.6818C40.783 11.0563 40.5513 9.72667 40.7335 8.70185C39.7087 8.88378 38.3793 8.65206 36.7541 8.04133C36.7112 8.02551 36.6192 7.99466 36.4823 7.95378C36.2484 7.88394 35.978 7.81394 35.6753 7.74875C34.8069 7.56169 33.8593 7.45242 32.8669 7.45966Z" fill="#00C0C5"/>
<path fill-rule="evenodd" clip-rule="evenodd" d="M35.7618 13.901C35.739 13.8035 35.6895 13.7109 35.6134 13.6348C35.3959 13.4173 35.0432 13.4173 34.8257 13.6348C34.4323 14.0282 33.8527 14.1324 31.9169 14.2493C30.3891 14.3415 29.5894 14.4713 28.8277 14.8616C27.6142 15.4835 26.1397 16.9169 24.3698 19.1713C22.8364 17.236 21.5416 16.001 20.4542 15.4586C19.7378 15.1012 18.9867 14.9927 17.5494 14.9322C16.2341 14.8768 15.5925 14.8149 15.2074 14.6494C15.0966 14.4104 14.9497 14.2148 14.7508 14.016C14.5333 13.7985 14.1806 13.7985 13.9631 14.016C13.7606 14.2184 13.7466 14.5379 13.921 14.7566C13.9035 14.9184 13.9568 15.0865 14.0809 15.2106C14.1443 15.2739 14.2073 15.332 14.2715 15.3853C14.3778 15.7881 14.4273 16.4125 14.4724 17.484C14.5329 18.9212 14.6415 19.6723 14.9988 20.3885C15.5673 21.5278 16.8961 22.8948 18.9943 24.5252C16.7972 26.26 15.3968 27.7086 14.7841 28.904C14.3937 29.6656 14.2639 30.4652 14.1716 31.9929C14.0551 33.9223 13.9512 34.5044 13.5608 34.8977L13.5572 34.9013L13.5468 34.912C13.5238 34.9362 13.5035 34.9619 13.4857 34.9888C13.343 35.205 13.3668 35.4987 13.5571 35.6891C13.7746 35.9066 14.1273 35.9066 14.3448 35.6891L14.3488 35.6851C14.7421 35.2949 15.3244 35.191 17.2537 35.0745C18.7815 34.9823 19.5812 34.8525 20.3429 34.4621C21.4799 33.8795 22.846 32.5844 24.4695 30.5693C26.0315 32.5522 27.3477 33.8147 28.4505 34.3649C29.1669 34.7222 29.918 34.8307 31.3553 34.8912C33.1493 34.9668 33.6899 35.0544 34.036 35.4005C34.2535 35.618 34.6062 35.618 34.8238 35.4005C34.844 35.3803 34.8623 35.3589 34.8787 35.3366C34.9009 35.3202 34.9221 35.302 34.9422 35.2819C35.1597 35.0644 35.1597 34.7118 34.9422 34.4943C34.5961 34.1482 34.5084 33.6077 34.4329 31.8139C34.3724 30.3767 34.2638 29.6257 33.9064 28.9094C33.3517 27.7975 32.0725 26.4687 30.0608 24.8897C32.3244 23.1146 33.7631 21.6362 34.3865 20.42C34.7769 19.6584 34.9067 18.8588 34.999 17.3312C35.1158 15.3956 35.2201 14.816 35.6135 14.4226C35.755 14.2811 35.8044 14.0825 35.7618 13.901ZM15.9957 19.8913C16.5033 20.9087 17.8645 22.2743 20.0683 23.9453C20.1927 23.9725 20.3085 24.0423 20.3918 24.1514C20.5784 24.3959 20.5315 24.7454 20.2869 24.9321C17.8558 26.7874 16.3481 28.295 15.7755 29.4121C15.4799 29.9887 15.3665 30.6871 15.2836 32.06C15.2271 32.9959 15.1742 33.6585 15.0849 34.1614C15.5878 34.0721 16.2505 34.0191 17.1866 33.9626C18.5597 33.8798 19.2581 33.7664 19.8348 33.4708C20.8562 32.9474 22.2039 31.6425 23.8454 29.5651C23.8471 29.3983 23.9233 29.2341 24.0667 29.1258C24.1264 29.0807 24.1923 29.0494 24.2605 29.0315L24.3153 28.9599C24.5019 28.7153 24.8514 28.6684 25.096 28.855C25.3405 29.0417 25.3875 29.3912 25.2008 29.6357L25.1775 29.6662C26.7198 31.6526 27.9886 32.8896 28.9479 33.3681C29.4743 33.6307 30.1233 33.7245 31.4022 33.7783C32.353 33.8184 33.0041 33.8599 33.4898 33.9483C33.4014 33.4626 33.3599 32.8115 33.3198 31.8608C33.266 30.582 33.1722 29.933 32.9096 29.4067C32.3972 28.3798 31.0156 26.9983 28.7755 25.3061C28.5301 25.1207 28.4814 24.7714 28.6668 24.526C28.7466 24.4204 28.8567 24.3513 28.9758 24.3215C31.3529 22.4984 32.8298 21.0149 33.3951 19.9119C33.6907 19.3354 33.8041 18.637 33.887 17.264C33.9435 16.328 33.9964 15.6653 34.0858 15.1624C33.5828 15.2517 32.9201 15.3046 31.984 15.3611C30.6109 15.444 29.9125 15.5574 29.3358 15.8529C28.2565 16.4061 26.8128 17.8318 25.0431 20.1195C25.0949 20.3293 25.0213 20.5591 24.838 20.6976C24.5925 20.883 24.2432 20.8344 24.0578 20.589C22.3655 18.3491 20.9838 16.9676 19.9568 16.4553C19.4304 16.1927 18.7814 16.0989 17.5025 16.0451C16.5993 16.0071 15.9666 15.9677 15.4892 15.8881C15.5311 16.2967 15.5586 16.7995 15.5854 17.4372C15.6393 18.7159 15.7331 19.3649 15.9957 19.8913Z" fill="#00C0C5"/>
<path fill-rule="evenodd" clip-rule="evenodd" d="M40.1078 24.698C40.1078 24.6956 40.1078 24.6932 40.1078 24.6908C40.1078 24.3832 39.8584 24.1339 39.5508 24.1339C38.9944 24.1339 38.5108 23.7978 37.0594 22.5117C35.9139 21.4967 35.2566 21.0231 34.442 20.7606C33.1441 20.3423 31.0878 20.3134 28.2421 20.656C28.5265 18.2034 28.4842 16.4147 28.0989 15.2622C27.8451 14.5031 27.3908 13.8953 26.4172 12.8362C25.5263 11.8671 25.1164 11.3697 24.9611 10.9804C25.0518 10.7331 25.0862 10.491 25.0862 10.2098C25.0862 9.90221 24.8368 9.65286 24.5292 9.65286C24.2428 9.65286 24.007 9.86886 23.9757 10.1468C23.8489 10.2489 23.7678 10.4054 23.7678 10.5808C23.7678 10.6704 23.7712 10.756 23.7789 10.8391C23.5693 11.1991 23.1627 11.6755 22.4367 12.4652C21.4632 13.5243 21.0088 14.1321 20.755 14.8912C20.3513 16.0987 20.3242 18.0048 20.6548 20.641C17.8745 20.3143 15.8599 20.3486 14.5813 20.7606C13.7667 21.0231 13.1094 21.4967 11.9639 22.5117C10.5124 23.7978 10.0288 24.1339 9.47246 24.1339C9.16483 24.1339 8.91545 24.3832 8.91545 24.6908C8.91545 24.9984 9.16483 25.2479 9.47246 25.2479C10.0288 25.2479 10.5124 25.584 11.9639 26.8701C13.1094 27.8851 13.7667 28.3587 14.5813 28.6212C15.7973 29.0131 17.6791 29.0632 20.2522 28.7861C19.9545 31.2927 19.9923 33.116 20.3831 34.2848C20.6369 35.044 21.0913 35.6518 22.0649 36.7108C23.28 38.0326 23.6003 38.4768 23.6003 38.9662C23.6003 39.2738 23.8496 39.5232 24.1573 39.5232C24.1857 39.5232 24.2137 39.521 24.241 39.5169C24.2683 39.521 24.2963 39.5232 24.3248 39.5232C24.6324 39.5232 24.8818 39.2738 24.8818 38.9662C24.8818 38.4768 25.2021 38.0326 26.4172 36.7108C27.3908 35.6518 27.8451 35.044 28.0989 34.2848C28.493 33.1063 28.5282 31.2623 28.2223 28.7234C31.0783 29.0685 33.1411 29.0404 34.442 28.6212C35.2566 28.3587 35.9139 27.8851 37.0594 26.8701C38.5108 25.584 38.9944 25.2479 39.5508 25.2479C39.8272 25.2479 40.0565 25.0466 40.1003 24.7827C40.1049 24.7551 40.1074 24.7268 40.1078 24.698ZM21.8115 15.2444C21.451 16.3227 21.4477 18.2505 21.8243 20.9901C21.8932 21.0973 21.9258 21.2286 21.9075 21.3648C21.8665 21.6697 21.5862 21.8836 21.2813 21.8427C18.2502 21.4357 16.1179 21.4357 14.923 21.8208C14.3063 22.0196 13.7322 22.4332 12.7027 23.3454C12.0008 23.9673 11.4947 24.3984 11.0759 24.6909C11.4947 24.9834 12.0008 25.4145 12.7027 26.0364C13.7322 26.9486 14.3063 27.3622 14.923 27.561C16.0154 27.913 17.8913 27.9432 20.5212 27.6348C20.6403 27.5181 20.8103 27.4559 20.9882 27.4807C21.0624 27.491 21.131 27.5155 21.1919 27.551L21.2813 27.5391C21.5862 27.4982 21.8665 27.7121 21.9075 28.017C21.9484 28.3218 21.7344 28.6022 21.4296 28.6431L21.3915 28.6482C21.0774 31.1433 21.0998 32.915 21.4397 33.9316C21.6262 34.4895 22.0188 35.0147 22.885 35.957C23.529 36.6575 23.9601 37.1472 24.241 37.5532C24.522 37.1472 24.953 36.6575 25.597 35.957C26.4632 35.0147 26.8559 34.4895 27.0424 33.9316C27.4063 32.8433 27.4063 30.8895 27.019 28.1092C26.9765 27.8045 27.1891 27.5231 27.4938 27.4807C27.6248 27.4625 27.7514 27.4913 27.8566 27.5543C30.8269 27.946 32.9204 27.9412 34.1002 27.561C34.717 27.3622 35.2911 26.9486 36.3206 26.0364C37.0225 25.4145 37.5285 24.9834 37.9473 24.6909C37.5285 24.3984 37.0225 23.9673 36.3206 23.3454C35.2911 22.4332 34.717 22.0196 34.1002 21.8208C32.9459 21.4488 30.9168 21.4362 28.0476 21.8027C27.9359 21.9875 27.7213 22.098 27.4938 22.0663C27.1891 22.0239 26.9765 21.7425 27.019 21.4379C27.4063 18.6576 27.4063 16.7038 27.0424 15.6154C26.8559 15.0576 26.4632 14.5323 25.597 13.59C24.9853 12.9246 24.5657 12.4494 24.2844 12.0555C24.0251 12.3741 23.6889 12.7491 23.2569 13.219C22.3907 14.1613 21.9981 14.6866 21.8115 15.2444Z" fill="#00C0C5"/>
</svg>
