<svg width="37" height="43" viewBox="0 0 37 43" fill="none" xmlns="http://www.w3.org/2000/svg">
<path d="M18.5329 9.26953C12.4469 9.26953 7.47461 14.2418 7.47461 20.3278C7.47461 23.51 8.86684 26.573 11.2137 28.6414C12.964 30.3916 12.8049 34.1308 12.7651 34.1706C12.7651 34.3694 12.8049 34.5286 12.964 34.6877C13.0833 34.807 13.2822 34.8866 13.4413 34.8866H23.5847C23.7836 34.8866 23.9427 34.807 24.062 34.6877C24.1814 34.5683 24.2609 34.3694 24.2609 34.1706C24.2609 34.1308 24.062 30.3916 25.8123 28.6414C25.852 28.6016 25.8918 28.5619 25.9316 28.5221C28.2387 26.4138 29.5912 23.4305 29.5912 20.3278C29.5912 14.2418 24.6189 9.26953 18.5329 9.26953ZM24.8974 27.6072C24.8576 27.647 24.778 27.7265 24.778 27.7663C23.2267 29.437 22.9482 32.1816 22.9085 33.4943H14.1175C14.0778 32.1816 13.7993 29.3176 12.1286 27.6072C10.0204 25.7774 8.78728 23.1123 8.78728 20.288C8.78728 14.918 13.1231 10.5822 18.4931 10.5822C23.8631 10.5822 28.1989 14.918 28.1989 20.288C28.1989 23.1123 27.0056 25.7774 24.8974 27.6072Z" fill="#539ED9"/>
<path d="M18.4926 12.0938C18.1346 12.0938 17.8164 12.412 17.8164 12.77C17.8164 13.128 18.1346 13.4462 18.4926 13.4462C22.5102 13.4462 25.7322 16.708 25.7322 20.6858C25.7322 21.0438 26.0504 21.362 26.4085 21.362C26.7665 21.362 27.0847 21.0438 27.0847 20.6858C27.1245 15.9522 23.266 12.0938 18.4926 12.0938Z" fill="#539ED9"/>
<path d="M22.9076 35.6406H14.0769C13.162 35.6406 12.4062 36.3964 12.4062 37.3113C12.4062 38.2262 13.162 38.982 14.0769 38.982H22.8679C23.8225 38.9422 24.5783 38.2262 24.5783 37.3113C24.5783 36.3964 23.8225 35.6406 22.9076 35.6406ZM22.9076 37.5897H14.0769C13.9178 37.5897 13.7587 37.4704 13.7587 37.2715C13.7587 37.0726 13.878 36.9533 14.0769 36.9533H22.8679C23.027 36.9533 23.1861 37.0726 23.1861 37.2715C23.1861 37.4704 23.0667 37.5897 22.9076 37.5897Z" fill="#539ED9"/>
<path d="M21.5948 39.6602H15.3894C14.4745 39.6602 13.7188 40.4159 13.7188 41.3308C13.7188 42.2457 14.4745 43.0015 15.3894 43.0015H21.5948C22.5097 43.0015 23.2655 42.2457 23.2655 41.3308C23.2655 40.3762 22.5097 39.6602 21.5948 39.6602ZM21.5948 41.6093H15.3894C15.2303 41.6093 15.0712 41.4899 15.0712 41.2911C15.0712 41.0922 15.1905 40.9728 15.3894 40.9728H21.5948C21.7539 40.9728 21.913 41.0922 21.913 41.2911C21.913 41.4899 21.7539 41.6093 21.5948 41.6093Z" fill="#539ED9"/>
<path d="M18.4926 5.9667C18.8904 5.9667 19.1689 5.64847 19.1689 5.29047V0.676226C19.1689 0.318224 18.8506 0 18.4926 0C18.1346 0 17.8164 0.318224 17.8164 0.676226V5.29047C17.8164 5.64847 18.1346 5.9667 18.4926 5.9667Z" fill="#539ED9"/>
<path d="M29.7498 3.42094C29.4316 3.18227 29.0338 3.3016 28.835 3.58005L26.2892 7.39873C26.0505 7.71696 26.1301 8.15452 26.4483 8.35341C26.5676 8.43296 26.6869 8.47274 26.8063 8.47274C27.0449 8.47274 27.2438 8.35341 27.3632 8.15452L29.909 4.33583C30.1476 4.05738 30.0681 3.61983 29.7498 3.42094Z" fill="#539ED9"/>
<path d="M10.4174 8.31401C10.5368 8.31401 10.6561 8.27423 10.7754 8.19468C11.0937 7.99579 11.1732 7.55823 10.9743 7.24001L8.50809 3.38154C8.3092 3.06332 7.87164 2.98376 7.55342 3.18265C7.23519 3.38154 7.15564 3.8191 7.35453 4.13732L9.82076 7.99579C9.97987 8.23446 10.1788 8.31401 10.4174 8.31401Z" fill="#539ED9"/>
<path d="M5.60445 12.5314L1.58688 10.3436C1.26865 10.1845 0.831096 10.3038 0.671984 10.6221C0.473094 10.9403 0.592428 11.3778 0.95043 11.5369L4.96801 13.7247C5.08734 13.7645 5.1669 13.8043 5.28623 13.8043C5.5249 13.8043 5.76357 13.685 5.8829 13.4463C6.04201 13.1281 5.92268 12.6905 5.60445 12.5314Z" fill="#539ED9"/>
<path d="M36.3521 10.6221C36.193 10.3038 35.7554 10.1845 35.4372 10.3436L31.3799 12.5314C31.0616 12.6905 30.9423 13.1281 31.1014 13.4463C31.2208 13.685 31.4594 13.8043 31.6981 13.8043C31.8174 13.8043 31.9368 13.7645 32.0163 13.7247L36.0737 11.5369C36.3919 11.3778 36.5112 10.9403 36.3521 10.6221Z" fill="#539ED9"/>
</svg>
