<svg width="36" height="36" viewBox="0 0 36 36" fill="none" xmlns="http://www.w3.org/2000/svg">
<g clip-path="url(#clip0_1283_12286)">
<path d="M33.0808 35.0286H2.9186C2.40251 35.0286 1.90755 34.8236 1.54261 34.4587C1.17768 34.0937 0.972656 33.5988 0.972656 33.0827C0.972656 32.5666 1.17768 32.0716 1.54261 31.7067C1.90755 31.3417 2.40251 31.1367 2.9186 31.1367H33.0808C33.5969 31.1367 34.0918 31.3417 34.4568 31.7067C34.8217 32.0716 35.0267 32.5666 35.0267 33.0827C35.0267 33.5988 34.8217 34.0937 34.4568 34.4587C34.0918 34.8236 33.5969 35.0286 33.0808 35.0286ZM2.9186 32.1097C2.66055 32.1097 2.41307 32.2122 2.23061 32.3947C2.04814 32.5771 1.94563 32.8246 1.94563 33.0827C1.94563 33.3407 2.04814 33.5882 2.23061 33.7707C2.41307 33.9531 2.66055 34.0556 2.9186 34.0556H33.0808C33.3388 34.0556 33.5863 33.9531 33.7688 33.7707C33.9512 33.5882 34.0537 33.3407 34.0537 33.0827C34.0537 32.8246 33.9512 32.5771 33.7688 32.3947C33.5863 32.2122 33.3388 32.1097 33.0808 32.1097H2.9186Z" fill="#539ED9"/>
<path d="M30.6482 32.1082H9.72928C8.29853 32.1181 6.90099 31.6772 5.73496 30.8481C4.56893 30.0189 3.69363 28.8436 3.23327 27.4889C2.77291 26.1342 2.75087 24.669 3.17028 23.301C3.58969 21.9331 4.42925 20.732 5.56982 19.8682C6.39781 19.2262 7.36355 18.7854 8.39094 18.5802C9.41834 18.3751 10.4793 18.4113 11.4904 18.686L31.2758 23.9546C31.7934 24.0929 32.2509 24.3981 32.5772 24.823C32.9036 25.2479 33.0806 25.7686 33.0806 26.3044V29.6757C33.0806 30.3208 32.8244 30.9395 32.3682 31.3957C31.912 31.8519 31.2933 32.1082 30.6482 32.1082ZM9.72928 19.4206C8.17583 19.4206 6.686 20.0377 5.58754 21.1362C4.48909 22.2346 3.87198 23.7244 3.87198 25.2779C3.87198 26.8313 4.48909 28.3212 5.58754 29.4196C6.686 30.5181 8.17583 31.1352 9.72928 31.1352H30.6482C31.0353 31.1352 31.4065 30.9814 31.6802 30.7077C31.9539 30.434 32.1077 30.0628 32.1077 29.6757V26.3044C32.1077 25.9825 32.0014 25.6696 31.8051 25.4145C31.6089 25.1593 31.3339 24.9762 31.0228 24.8936L11.252 19.6249C10.7557 19.4896 10.2437 19.4209 9.72928 19.4206Z" fill="#539ED9"/>
<path d="M9.72963 28.7014C9.0561 28.7014 8.3977 28.5017 7.83768 28.1275C7.27767 27.7533 6.84119 27.2215 6.58344 26.5992C6.32569 25.977 6.25826 25.2923 6.38965 24.6317C6.52105 23.9711 6.84539 23.3643 7.32164 22.888C7.79789 22.4118 8.40468 22.0875 9.06526 21.9561C9.72585 21.8247 10.4106 21.8921 11.0328 22.1498C11.6551 22.4076 12.1869 22.8441 12.5611 23.4041C12.9353 23.9641 13.135 24.6225 13.135 25.296C13.135 25.7432 13.0469 26.1861 12.8758 26.5992C12.7047 27.0124 12.4538 27.3878 12.1376 27.704C11.8214 28.0202 11.446 28.2711 11.0328 28.4422C10.6197 28.6134 10.1768 28.7014 9.72963 28.7014ZM9.72963 22.8636C9.24854 22.8636 8.77825 23.0063 8.37824 23.2735C7.97823 23.5408 7.66646 23.9207 7.48235 24.3652C7.29825 24.8096 7.25008 25.2987 7.34393 25.7706C7.43779 26.2424 7.66945 26.6758 8.00964 27.016C8.34982 27.3562 8.78324 27.5879 9.25508 27.6817C9.72693 27.7756 10.216 27.7274 10.6605 27.5433C11.1049 27.3592 11.4848 27.0474 11.7521 26.6474C12.0194 26.2474 12.1621 25.7771 12.1621 25.296C12.1621 24.6509 11.9058 24.0322 11.4496 23.576C10.9934 23.1199 10.3747 22.8636 9.72963 22.8636Z" fill="#539ED9"/>
<path d="M9.44141 25.6836L9.99892 24.8867L14.5769 28.0896L14.0194 28.8865L9.44141 25.6836Z" fill="#539ED9"/>
<path d="M12.2988 29.8164L15.2189 26.8963L15.9068 27.5842L12.9867 30.5043L12.2988 29.8164Z" fill="#539ED9"/>
<path d="M11.6762 9.73142H5.83837C5.45129 9.73142 5.08007 9.57766 4.80637 9.30395C4.53267 9.03025 4.37891 8.65903 4.37891 8.27196C4.37891 7.88489 4.53267 7.51367 4.80637 7.23997C5.08007 6.96626 5.45129 6.8125 5.83837 6.8125H11.6762C12.0633 6.8125 12.4345 6.96626 12.7082 7.23997C12.9819 7.51367 13.1357 7.88489 13.1357 8.27196C13.1357 8.65903 12.9819 9.03025 12.7082 9.30395C12.4345 9.57766 12.0633 9.73142 11.6762 9.73142ZM5.83837 7.78547C5.70934 7.78547 5.5856 7.83673 5.49437 7.92796C5.40313 8.0192 5.35188 8.14294 5.35188 8.27196C5.35188 8.40098 5.40313 8.52472 5.49437 8.61596C5.5856 8.70719 5.70934 8.75845 5.83837 8.75845H11.6762C11.8052 8.75845 11.929 8.70719 12.0202 8.61596C12.1114 8.52472 12.1627 8.40098 12.1627 8.27196C12.1627 8.14294 12.1114 8.0192 12.0202 7.92796C11.929 7.83673 11.8052 7.78547 11.6762 7.78547H5.83837Z" fill="#539ED9"/>
<path d="M7.78352 19.4313H6.81055V9.2443C6.81055 9.11527 6.8618 8.99153 6.95304 8.9003C7.04427 8.80907 7.16801 8.75781 7.29703 8.75781H10.216C10.345 8.75781 10.4687 8.80907 10.56 8.9003C10.6512 8.99153 10.7024 9.11527 10.7024 9.2443V18.974H9.72947V9.73079H7.78352V19.4313Z" fill="#539ED9"/>
<path d="M30.7502 6.80976H23.3507C23.244 6.81498 23.1386 6.78494 23.0506 6.72428C22.9627 6.66361 22.8972 6.57569 22.8642 6.47409C22.8321 6.37641 22.8317 6.27107 22.8632 6.17318C22.8946 6.07528 22.9563 5.98988 23.0393 5.92922L29.1253 1.49247C29.547 1.19465 30.0425 1.01846 30.5575 0.983157C31.0726 0.947852 31.5875 1.05479 32.0459 1.29228C32.5043 1.52977 32.8886 1.88868 33.1569 2.32979C33.4251 2.77091 33.567 3.27727 33.5669 3.79355C33.5721 4.56112 33.283 5.30152 32.7591 5.86253C32.2352 6.42353 31.5163 6.76251 30.7502 6.80976ZM24.8393 5.83679H30.7502C31.2581 5.79035 31.7298 5.55429 32.0715 5.17564C32.4132 4.797 32.5997 4.30354 32.5939 3.79355C32.595 3.45384 32.5024 3.12042 32.3264 2.82989C32.1503 2.53936 31.8976 2.30295 31.596 2.14662C31.2944 1.99029 30.9556 1.92009 30.6167 1.94372C30.2778 1.96735 29.952 2.0839 29.675 2.28057L24.8393 5.83679Z" fill="#539ED9"/>
<path d="M30.1614 24.0305H29.1885V6.80891H27.2425V23.2522H26.2695V6.32242C26.2695 6.1934 26.3208 6.06966 26.412 5.97843C26.5033 5.88719 26.627 5.83594 26.756 5.83594H29.6749C29.804 5.83594 29.9277 5.88719 30.0189 5.97843C30.1102 6.06966 30.1614 6.1934 30.1614 6.32242V24.0305Z" fill="#539ED9"/>
</g>
<defs>
<clipPath id="clip0_1283_12286">
<rect width="36" height="36" fill="white"/>
</clipPath>
</defs>
</svg>
