<svg width="36" height="36" viewBox="0 0 36 36" fill="none" xmlns="http://www.w3.org/2000/svg">
<path d="M9.37382 28.282C8.80224 28.2738 8.23893 28.4192 7.74275 28.7031C7.24657 28.9869 6.83571 29.3988 6.5531 29.8957C6.48369 30.0275 6.46938 30.1814 6.51329 30.3237C6.5572 30.4661 6.65575 30.5852 6.78734 30.655C6.91893 30.7248 7.07283 30.7396 7.21529 30.6961C7.35776 30.6526 7.47718 30.5544 7.54736 30.423C7.73313 30.1058 8.00057 29.8442 8.32182 29.6656C8.64306 29.4869 9.00634 29.3976 9.37382 29.407C9.74143 29.3977 10.1048 29.4869 10.4263 29.6656C10.7477 29.8443 11.0153 30.1058 11.2014 30.423C11.236 30.4882 11.2831 30.546 11.3401 30.593C11.397 30.64 11.4627 30.6753 11.5333 30.6969C11.6039 30.7186 11.678 30.7261 11.7515 30.719C11.825 30.712 11.8964 30.6906 11.9616 30.6559C12.0268 30.6213 12.0846 30.5742 12.1316 30.5172C12.1786 30.4603 12.2139 30.3946 12.2355 30.324C12.2572 30.2534 12.2647 30.1793 12.2576 30.1058C12.2506 30.0323 12.2292 29.9609 12.1945 29.8957C11.9155 29.3957 11.5054 28.9812 11.0084 28.6969C10.5114 28.4126 9.94626 28.2692 9.37382 28.282Z" fill="#00C0C5"/>
<path d="M9.37383 19.5C7.9648 19.5001 6.58744 19.918 5.41591 20.7009C4.24439 21.4837 3.33132 22.5964 2.79217 23.8982C2.25302 25.2 2.11201 26.6325 2.38695 28.0144C2.6619 29.3963 3.34047 30.6657 4.33684 31.662C5.33321 32.6583 6.60264 33.3368 7.98461 33.6116C9.36657 33.8864 10.799 33.7453 12.1008 33.2061C13.4025 32.6668 14.5151 31.7537 15.2979 30.5821C16.0807 29.4105 16.4985 28.0331 16.4985 26.6241C16.4963 24.7352 15.7449 22.9244 14.4093 21.5888C13.0736 20.2532 11.2627 19.502 9.37383 19.5ZM9.37383 32.6234C8.18732 32.6234 7.02747 32.2715 6.04096 31.6122C5.05445 30.953 4.28558 30.016 3.83157 28.9198C3.37756 27.8236 3.2588 26.6173 3.49032 25.4536C3.72183 24.2899 4.29322 23.221 5.13223 22.382C5.97124 21.5431 7.04019 20.9717 8.2039 20.7403C9.36762 20.5088 10.5738 20.6276 11.67 21.0817C12.7662 21.5357 13.7032 22.3046 14.3624 23.2912C15.0216 24.2777 15.3734 25.4376 15.3735 26.6241C15.3717 28.2147 14.739 29.7397 13.6142 30.8644C12.4895 31.9891 10.9645 32.6218 9.37383 32.6234Z" fill="#00C0C5"/>
<path d="M12.2587 23.9141C12.0758 23.9141 11.897 23.9683 11.7449 24.0699C11.5929 24.1715 11.4744 24.3159 11.4044 24.4849C11.3344 24.6539 11.3161 24.8398 11.3518 25.0192C11.3874 25.1985 11.4755 25.3633 11.6048 25.4926C11.7342 25.6219 11.8989 25.71 12.0783 25.7457C12.2577 25.7814 12.4436 25.763 12.6126 25.693C12.7815 25.6231 12.9259 25.5045 13.0275 25.3525C13.1291 25.2004 13.1834 25.0216 13.1834 24.8387C13.1834 24.7173 13.1594 24.5971 13.113 24.4849C13.0665 24.3727 12.9984 24.2707 12.9125 24.1849C12.8266 24.099 12.7247 24.0309 12.6125 23.9844C12.5003 23.938 12.3801 23.9141 12.2587 23.9141Z" fill="#00C0C5"/>
<path d="M7.41386 24.8388C7.41386 24.6559 7.35963 24.4771 7.25802 24.325C7.15641 24.173 7.012 24.0544 6.84303 23.9845C6.67406 23.9145 6.48813 23.8962 6.30876 23.9318C6.12938 23.9675 5.96462 24.0556 5.83529 24.1849C5.70597 24.3142 5.6179 24.479 5.58222 24.6584C5.54654 24.8377 5.56485 25.0237 5.63484 25.1926C5.70483 25.3616 5.82335 25.506 5.97542 25.6076C6.12749 25.7092 6.30627 25.7635 6.48916 25.7635C6.61059 25.7635 6.73084 25.7396 6.84303 25.6931C6.95522 25.6466 7.05716 25.5785 7.14303 25.4926C7.2289 25.4068 7.29701 25.3048 7.34348 25.1926C7.38995 25.0804 7.41387 24.9602 7.41386 24.8388Z" fill="#00C0C5"/>
<path d="M29.2139 11.0968C29.0821 11.0269 28.9279 11.0122 28.7853 11.056C28.6426 11.0997 28.5231 11.1982 28.4531 11.33C28.2601 11.6407 27.991 11.897 27.6713 12.0747C27.3516 12.2524 26.9919 12.3457 26.6261 12.3457C26.2603 12.3457 25.9006 12.2524 25.5809 12.0747C25.2612 11.897 24.9921 11.6407 24.7991 11.33C24.7644 11.2648 24.7173 11.207 24.6604 11.16C24.6034 11.113 24.5378 11.0777 24.4672 11.0561C24.3966 11.0345 24.3224 11.0269 24.2489 11.034C24.1754 11.041 24.104 11.0625 24.0388 11.0971C23.9736 11.1317 23.9158 11.1788 23.8688 11.2358C23.8218 11.2927 23.7865 11.3584 23.7649 11.429C23.7433 11.4996 23.7358 11.5737 23.7428 11.6472C23.7498 11.7207 23.7713 11.7921 23.8059 11.8573C24.085 12.3573 24.4951 12.7716 24.9921 13.0559C25.4891 13.3402 26.0542 13.4836 26.6267 13.4707C27.1982 13.479 27.7615 13.3336 28.2577 13.0498C28.7539 12.766 29.1648 12.3542 29.4474 11.8573C29.482 11.7921 29.5035 11.7206 29.5105 11.6471C29.5175 11.5735 29.5099 11.4993 29.4882 11.4287C29.4665 11.3581 29.4312 11.2924 29.3841 11.2355C29.337 11.1785 29.2792 11.1314 29.2139 11.0968Z" fill="#00C0C5"/>
<path d="M26.6263 2.25C25.2173 2.24997 23.8399 2.66777 22.6683 3.45056C21.4967 4.23335 20.5836 5.34599 20.0443 6.64776C19.5051 7.94953 19.364 9.38197 19.6388 10.7639C19.9137 12.1459 20.5922 13.4153 21.5885 14.4117C22.5848 15.4081 23.8542 16.0866 25.2362 16.3615C26.6181 16.6365 28.0506 16.4954 29.3524 15.9562C30.6542 15.417 31.7668 14.5039 32.5497 13.3323C33.3325 12.1608 33.7504 10.7834 33.7504 9.37436C33.7483 7.48557 32.997 5.67474 31.6615 4.33914C30.3259 3.00353 28.5151 2.25221 26.6263 2.25ZM26.6263 15.3734C25.4398 15.3735 24.2799 15.0217 23.2933 14.3625C22.3067 13.7033 21.5377 12.7663 21.0837 11.6701C20.6296 10.5739 20.5107 9.36763 20.7422 8.20388C20.9737 7.04013 21.5451 5.97115 22.3841 5.13213C23.2231 4.29312 24.2921 3.72174 25.4558 3.49026C26.6196 3.25878 27.8258 3.3776 28.922 3.83168C30.0183 4.28577 30.9552 5.05472 31.6144 6.04131C32.2736 7.0279 32.6254 8.18781 32.6254 9.37436C32.6235 10.9648 31.9909 12.4896 30.8662 13.6143C29.7416 14.7389 28.2168 15.3715 26.6263 15.3734Z" fill="#00C0C5"/>
<path d="M29.5107 8.51356C30.0214 8.51356 30.4354 8.09954 30.4354 7.58881C30.4354 7.07809 30.0214 6.66406 29.5107 6.66406C29 6.66406 28.5859 7.07809 28.5859 7.58881C28.5859 8.09954 29 8.51356 29.5107 8.51356Z" fill="#00C0C5"/>
<path d="M23.7392 8.51356C24.2499 8.51356 24.664 8.09954 24.664 7.58881C24.664 7.07809 24.2499 6.66406 23.7392 6.66406C23.2285 6.66406 22.8145 7.07809 22.8145 7.58881C22.8145 8.09954 23.2285 8.51356 23.7392 8.51356Z" fill="#00C0C5"/>
<path d="M31.0633 19.6448C30.9905 19.6323 30.9159 19.6343 30.8438 19.6508C30.7717 19.6672 30.7036 19.6976 30.6434 19.7404C30.5831 19.7832 30.5319 19.8375 30.4926 19.9001C30.4534 19.9627 30.4268 20.0325 30.4146 20.1054C30.1295 21.7719 29.451 23.3464 28.4354 24.6982C27.1226 26.4506 25.2867 27.7404 23.193 28.3811L23.9925 27.0399C24.0689 26.9117 24.0911 26.7584 24.0545 26.6138C24.0178 26.4691 23.9252 26.345 23.797 26.2687C23.6688 26.1923 23.5155 26.17 23.3708 26.2067C23.2262 26.2434 23.1021 26.336 23.0257 26.4642L21.6266 28.812C21.5208 28.9893 21.489 29.2011 21.5383 29.4016C21.5875 29.6021 21.7138 29.7751 21.8897 29.8832L24.1688 31.2647C24.232 31.303 24.3021 31.3285 24.3751 31.3397C24.4481 31.3509 24.5226 31.3476 24.5943 31.3301C24.6661 31.3125 24.7337 31.281 24.7932 31.2373C24.8528 31.1936 24.9032 31.1386 24.9415 31.0754C24.9798 31.0123 25.0053 30.9422 25.0165 30.8692C25.0277 30.7962 25.0244 30.7217 25.0069 30.6499C24.9893 30.5782 24.9578 30.5106 24.9141 30.451C24.8704 30.3915 24.8154 30.3411 24.7522 30.3028L23.4145 29.4919C25.7798 28.7931 27.8561 27.3488 29.3341 25.3743C30.4577 23.8788 31.2085 22.1369 31.5242 20.2932C31.549 20.1461 31.5144 19.9951 31.428 19.8735C31.3416 19.7519 31.2104 19.6697 31.0633 19.6448Z" fill="#00C0C5"/>
<path d="M5.40428 16.3578C5.4355 16.3631 5.46711 16.3658 5.49878 16.3657C5.63161 16.3656 5.76012 16.3185 5.86156 16.2327C5.96299 16.147 6.03082 16.0281 6.05304 15.8972C6.33811 14.2306 7.01662 12.6561 8.03223 11.3043C9.345 9.5519 11.1809 8.26214 13.2746 7.62138L12.4751 8.9626C12.3988 9.09081 12.3765 9.24409 12.4131 9.38873C12.4498 9.53336 12.5425 9.6575 12.6707 9.73384C12.7989 9.81018 12.9521 9.83247 13.0968 9.7958C13.2414 9.75912 13.3656 9.66649 13.4419 9.53829L14.841 7.19051C14.9468 7.01324 14.9786 6.80141 14.9293 6.60091C14.8801 6.40042 14.7538 6.2274 14.5779 6.11935L12.2988 4.73779C12.2356 4.69949 12.1655 4.674 12.0925 4.66278C12.0195 4.65156 11.945 4.65483 11.8732 4.6724C11.8015 4.68997 11.7339 4.72151 11.6744 4.7652C11.6148 4.80889 11.5644 4.86389 11.5261 4.92704C11.4878 4.9902 11.4623 5.06028 11.4511 5.13329C11.4399 5.2063 11.4432 5.28081 11.4607 5.35255C11.4783 5.42429 11.5098 5.49187 11.5535 5.55143C11.5972 5.61099 11.6522 5.66136 11.7154 5.69967L13.0531 6.51056C10.6878 7.20939 8.61152 8.65363 7.13353 10.6281C6.00991 12.1237 5.2591 13.8656 4.9434 15.7093C4.91856 15.8564 4.95316 16.0074 5.03958 16.129C5.12601 16.2506 5.25719 16.3329 5.40428 16.3578Z" fill="#00C0C5"/>
</svg>
