<svg width="15" height="15" viewBox="0 0 15 15" fill="none" xmlns="http://www.w3.org/2000/svg">
<path opacity="0.774926" fill-rule="evenodd" clip-rule="evenodd" d="M6.02392 2.4896C5.46346 3.05824 5.12884 3.76832 5.12884 4.63497C5.12884 4.71362 5.07121 4.77882 4.99588 4.79065C4.97055 4.808 4.9399 4.81816 4.90688 4.81816C4.04014 4.81816 3.32999 5.15275 2.76129 5.71315C2.56127 5.91025 2.39354 6.12169 2.25721 6.33286C2.2097 6.40646 2.1696 6.47456 2.13678 6.53533C2.11757 6.57089 2.10533 6.59547 2.09991 6.60722C1.90642 7.0337 1.69776 7.33747 1.4695 7.51099C1.69776 7.68451 1.90642 7.98829 2.09991 8.41476C2.10533 8.42651 2.11757 8.45109 2.13678 8.48666C2.1696 8.54742 2.2097 8.61553 2.25721 8.68912C2.39354 8.9003 2.56127 9.11174 2.76129 9.30883C3.32999 9.86923 4.04014 10.2038 4.90688 10.2038C4.91374 10.2038 4.9205 10.2043 4.92712 10.2051C4.92742 10.2051 4.92771 10.2051 4.928 10.2051C5.01505 10.2051 5.08562 10.2757 5.08562 10.3627C5.08562 11.2294 5.42024 11.9394 5.9807 12.5081C6.17782 12.7081 6.38928 12.8758 6.60048 13.0121C6.67408 13.0596 6.74219 13.0997 6.80296 13.1325C6.83853 13.1517 6.86312 13.164 6.87487 13.1694C7.30148 13.3629 7.60533 13.5716 7.77885 13.7999C7.95236 13.5716 8.25622 13.3629 8.68283 13.1694C8.69458 13.164 8.71916 13.1517 8.75473 13.1325C8.8155 13.0997 8.88361 13.0596 8.95722 13.0121C9.16842 12.8758 9.37988 12.7081 9.57699 12.5081C10.1375 11.9394 10.4721 11.2294 10.4721 10.3627C10.4721 10.2888 10.5229 10.2268 10.5915 10.2098C10.6049 10.206 10.6191 10.204 10.6337 10.204C11.5005 10.204 12.2106 9.86945 12.7793 9.30905C12.9794 9.11196 13.1471 8.90052 13.2834 8.68934C13.3309 8.61574 13.371 8.54764 13.4038 8.48688C13.4231 8.45131 13.4353 8.42673 13.4407 8.41498C13.6437 7.96764 13.8633 7.65529 14.1048 7.48667C13.8633 7.31805 13.6437 7.00571 13.4407 6.55837C13.4353 6.54662 13.4231 6.52204 13.4039 6.48647C13.371 6.42571 13.3309 6.35761 13.2834 6.28401C13.1471 6.07284 12.9794 5.8614 12.7794 5.6643C12.2468 5.13955 11.5903 4.81279 10.7973 4.77334C10.7749 4.7856 10.7491 4.79257 10.7218 4.79257C10.6916 4.79257 10.6633 4.78406 10.6393 4.76931L10.6338 4.76931C10.5467 4.76931 10.4761 4.69875 10.4761 4.61171C10.4761 4.55124 10.5102 4.49873 10.5602 4.4723C10.5209 3.67901 10.1941 3.02225 9.66909 2.4896C9.47198 2.28961 9.26051 2.1219 9.04932 1.98557C8.97571 1.93807 8.9076 1.89797 8.84683 1.86516C8.81126 1.84595 8.78668 1.83371 8.77493 1.8283C8.32752 1.62534 8.01514 1.40572 7.84651 1.16427C7.67788 1.40572 7.36549 1.62534 6.91808 1.8283C6.90634 1.83371 6.88175 1.84595 6.84618 1.86516C6.78541 1.89797 6.7173 1.93807 6.6437 1.98557C6.4325 2.1219 6.22104 2.28961 6.02392 2.4896ZM4.77364 10.5166C4.81128 11.4034 5.17442 12.1391 5.75619 12.7293C5.97052 12.9468 6.19989 13.1287 6.42952 13.2769C6.56837 13.3665 6.6777 13.4256 6.74377 13.456C7.26209 13.6911 7.54618 13.9299 7.61699 14.1593C7.61084 14.1969 7.60776 14.235 7.60776 14.2737C7.60776 14.3607 7.67833 14.4313 7.76537 14.4313C7.76991 14.4313 7.77441 14.4311 7.77885 14.4307C7.78329 14.4311 7.78778 14.4313 7.79232 14.4313C7.87937 14.4313 7.94994 14.3607 7.94994 14.2737C7.94994 14.235 7.94685 14.1969 7.94071 14.1593C8.01151 13.9299 8.2956 13.6911 8.81393 13.456C8.88 13.4256 8.98933 13.3665 9.12818 13.2769C9.35781 13.1287 9.58718 12.9468 9.80151 12.7293C10.3834 12.139 10.7465 11.4031 10.7841 10.5161C11.6725 10.4793 12.4095 10.116 13.0006 9.53354C13.2181 9.31924 13.4 9.08989 13.5483 8.86028C13.6379 8.72145 13.6969 8.61213 13.7274 8.54606C14.0019 7.94105 14.2813 7.65522 14.5451 7.65522C14.6322 7.65522 14.7027 7.58466 14.7027 7.49762C14.7027 7.49397 14.7026 7.49035 14.7024 7.48676C14.7026 7.48311 14.7027 7.47944 14.7027 7.47573C14.7027 7.38869 14.6322 7.31814 14.5451 7.31814C14.2813 7.31814 14.0019 7.0323 13.7274 6.42729C13.6969 6.36122 13.6379 6.2519 13.5483 6.11307C13.4 5.88346 13.2181 5.65411 13.0006 5.43981C12.4299 4.87737 11.7231 4.5193 10.8753 4.46217C10.8333 3.58383 10.4712 2.85441 9.89361 2.26836C9.67928 2.0509 9.44991 1.86898 9.22028 1.72076C9.08143 1.63114 8.9721 1.57211 8.90602 1.54166C8.30095 1.26718 8.01508 0.987784 8.01508 0.724002C8.01508 0.636964 7.94452 0.566406 7.85747 0.566406C7.85379 0.566406 7.85013 0.566533 7.84651 0.566782C7.84288 0.566533 7.83923 0.566406 7.83554 0.566406C7.7485 0.566406 7.67793 0.636964 7.67793 0.724002C7.67793 0.987784 7.39206 1.26718 6.78699 1.54166C6.72092 1.57211 6.61159 1.63114 6.47274 1.72076C6.24311 1.86898 6.01373 2.0509 5.79941 2.26836C5.21262 2.86371 4.84824 3.60702 4.81595 4.50409C3.90087 4.52685 3.14425 4.89324 2.54002 5.48866C2.32254 5.70297 2.1406 5.93231 1.99237 6.16192C1.90274 6.30076 1.84369 6.41008 1.81324 6.47614C1.57826 6.99404 1.33968 7.27806 1.11037 7.34911C1.07259 7.34292 1.0343 7.33981 0.995503 7.33981C0.908456 7.33981 0.837891 7.41036 0.837891 7.4974C0.837891 7.50198 0.838086 7.50651 0.838469 7.51099C0.838086 7.51547 0.837891 7.52001 0.837891 7.52458C0.837891 7.61162 0.908456 7.68218 0.995503 7.68218C1.0343 7.68218 1.07259 7.67907 1.11037 7.67287C1.33968 7.74393 1.57826 8.02795 1.81324 8.54585C1.84369 8.61191 1.90274 8.72123 1.99237 8.86006C2.1406 9.08967 2.32254 9.31902 2.54002 9.53333C3.13492 10.1195 3.87752 10.4838 4.77364 10.5166Z" fill="#93969F"/>
<path opacity="0.452172" fill-rule="evenodd" clip-rule="evenodd" d="M12.1052 7.57713C12.7453 6.91134 13.0249 6.1123 13.0312 5.25832C13.0334 4.95302 12.9999 4.66221 12.9423 4.39505C12.9075 4.23351 12.8719 4.11446 12.8468 4.04621C12.613 3.42432 12.6084 3.02464 12.795 2.83812C12.8565 2.77658 12.8565 2.67679 12.795 2.61525C12.7927 2.61299 12.7904 2.61083 12.7881 2.60874C12.7854 2.60559 12.7826 2.60252 12.7796 2.59954C12.718 2.538 12.6182 2.538 12.5567 2.59954C12.3701 2.78606 11.9704 2.78151 11.3485 2.54779C11.2802 2.5226 11.1612 2.48705 10.9996 2.45225C10.7324 2.3947 10.4416 2.36116 10.1362 2.36339C9.28292 2.36961 8.48447 2.6487 7.81898 3.28749C7.16155 2.67536 6.37789 2.40713 5.54154 2.40102C5.2362 2.3988 4.94536 2.43233 4.67817 2.48988C4.51661 2.52468 4.39755 2.56024 4.3293 2.58542C3.70734 2.81914 3.30762 2.8237 3.12108 2.63718C3.05953 2.57563 2.95973 2.57563 2.89818 2.63718C2.89559 2.63977 2.89311 2.64243 2.89074 2.64515C2.88802 2.64752 2.88536 2.65 2.88277 2.65259C2.82122 2.71414 2.82122 2.81392 2.88277 2.87546C3.06931 3.06199 3.06475 3.46167 2.83101 4.08356C2.80582 4.1518 2.77026 4.27085 2.73546 4.43239C2.6779 4.69956 2.64436 4.99036 2.64659 5.29567C2.6527 6.13301 2.92164 6.91752 3.5355 7.57539C2.9494 8.22439 2.69181 8.99309 2.68584 9.81237C2.68361 10.1177 2.71715 10.4085 2.77471 10.6756C2.80951 10.8372 2.84507 10.9562 2.87025 11.0245C3.07032 11.5568 3.10248 11.9262 2.99064 12.1386C2.95957 12.161 2.93032 12.1858 2.9029 12.2132C2.84135 12.2748 2.84135 12.3745 2.9029 12.4361C2.9059 12.4391 2.909 12.442 2.91217 12.4447C2.91526 12.4484 2.91854 12.452 2.92201 12.4554C2.98357 12.517 3.08336 12.517 3.14491 12.4554C3.17238 12.428 3.19728 12.3987 3.21964 12.3675C3.43203 12.2556 3.8016 12.2878 4.33402 12.4879C4.40227 12.513 4.52133 12.5486 4.68289 12.5834C4.95008 12.6409 5.24092 12.6745 5.54625 12.6723C6.38149 12.6662 7.16418 12.3986 7.82106 11.7882C8.47469 12.3883 9.25154 12.6516 10.0801 12.6577C10.3854 12.6599 10.6763 12.6264 10.9435 12.5688C11.105 12.534 11.2241 12.4985 11.2923 12.4733C11.8245 12.2733 12.1939 12.2411 12.4063 12.3528C12.4287 12.384 12.4537 12.4134 12.4812 12.4409C12.5428 12.5024 12.6426 12.5024 12.7041 12.4409C12.7074 12.4376 12.7105 12.4343 12.7134 12.4308C12.7168 12.4279 12.7202 12.4248 12.7235 12.4215C12.785 12.36 12.785 12.2602 12.7235 12.1987C12.6959 12.1711 12.6666 12.1462 12.6353 12.1238C12.5237 11.9114 12.5559 11.542 12.7559 11.0099C12.7811 10.9417 12.8166 10.8226 12.8514 10.6611C12.909 10.3939 12.9425 10.1031 12.9403 9.79781C12.9344 8.98538 12.681 8.22268 12.1052 7.57713ZM10.1385 2.67857C9.34009 2.6844 8.60132 2.94991 7.98844 3.56272C7.9651 3.58606 7.93625 3.60055 7.90607 3.60619C7.84419 3.66184 7.74886 3.65989 7.68932 3.60036C7.07645 2.98754 6.33767 2.72203 5.53924 2.71621C5.25842 2.71416 4.99029 2.74508 4.74455 2.79801C4.65891 2.81646 4.5824 2.83626 4.51622 2.85602C4.47748 2.86759 4.45144 2.87632 4.43931 2.8808C3.97948 3.0536 3.60331 3.11917 3.31334 3.06771C3.36481 3.35765 3.29923 3.73377 3.12641 4.19356C3.12193 4.20569 3.11321 4.23173 3.10164 4.27046C3.08187 4.33663 3.06206 4.41314 3.04362 4.49877C2.99068 4.74449 2.95976 5.01259 2.96181 5.29337C2.96749 6.0723 3.22041 6.79444 3.80193 7.39828C3.83247 7.40378 3.86169 7.41833 3.88529 7.44193C3.94684 7.50348 3.94684 7.60326 3.88529 7.66481C3.27242 8.27762 3.00688 9.01631 3.00105 9.81467C2.999 10.0955 3.02993 10.3636 3.08286 10.6093C3.10131 10.6949 3.12112 10.7714 3.14088 10.8376C3.15245 10.8763 3.16118 10.9023 3.16566 10.9145C3.33041 11.3528 3.3977 11.7151 3.35903 11.9992C3.64316 11.9604 4.00556 12.0277 4.44403 12.1925C4.45616 12.197 4.4822 12.2057 4.52094 12.2172C4.58711 12.237 4.66363 12.2568 4.74927 12.2753C4.99501 12.3282 5.26314 12.3591 5.54395 12.3571C6.34239 12.3512 7.08117 12.0857 7.69404 11.4729C7.69761 11.4693 7.70131 11.466 7.70512 11.4628C7.70652 11.4613 7.70795 11.4598 7.70942 11.4584C7.77097 11.3968 7.87077 11.3968 7.93232 11.4584C8.54519 12.0712 9.28397 12.3367 10.0824 12.3425C10.3632 12.3446 10.6313 12.3136 10.8771 12.2607C10.9627 12.2423 11.0392 12.2225 11.1054 12.2027C11.1442 12.1911 11.1702 12.1824 11.1823 12.1779C11.6207 12.0132 11.983 11.9459 12.2671 11.9846C12.2284 11.7005 12.2957 11.3382 12.4605 10.8999C12.4649 10.8878 12.4737 10.8618 12.4852 10.823C12.505 10.7568 12.5248 10.6803 12.5433 10.5947C12.5962 10.349 12.6271 10.0809 12.6251 9.80011C12.6192 9.00175 12.3537 8.26306 11.7408 7.65025C11.6793 7.5887 11.6793 7.48892 11.7408 7.42737C11.7726 7.39563 11.8145 7.38026 11.8561 7.38126C12.4516 6.77333 12.7102 6.04371 12.716 5.25602C12.718 4.97524 12.6871 4.70714 12.6341 4.46142C12.6157 4.37579 12.5959 4.29928 12.5761 4.23311C12.5646 4.19438 12.5558 4.16835 12.5513 4.15621C12.3785 3.69627 12.3129 3.32004 12.3645 3.03006C12.0745 3.08154 11.6983 3.01597 11.2385 2.84316C11.2263 2.83868 11.2003 2.82995 11.1615 2.81839C11.0954 2.79862 11.0189 2.77882 10.9332 2.76037C10.6875 2.70744 10.4193 2.67652 10.1385 2.67857Z" fill="black" fill-opacity="0.55"/>
<path fill-rule="evenodd" clip-rule="evenodd" d="M5.36325 6.195C5.50688 6.48286 5.89195 6.86924 6.51546 7.34199C6.5508 7.34963 6.58371 7.36941 6.60737 7.4004C6.66018 7.46959 6.6469 7.56849 6.5777 7.62129C5.88979 8.14628 5.46317 8.57286 5.30114 8.88896C5.21751 9.05211 5.18542 9.24973 5.16197 9.63821C5.14598 9.90303 5.13099 10.0905 5.10573 10.2328C5.24802 10.2076 5.43547 10.1926 5.70021 10.1766C6.08873 10.1532 6.28637 10.1211 6.44954 10.0375C6.73856 9.88934 7.11992 9.5201 7.5844 8.93226C7.58487 8.88507 7.60644 8.83861 7.64701 8.80796C7.66391 8.79519 7.68256 8.78635 7.70185 8.78127L7.71734 8.76102C7.77015 8.69183 7.86906 8.67856 7.93825 8.73136C8.00745 8.78417 8.02073 8.88307 7.96792 8.95225L7.96133 8.96088C8.39774 9.52296 8.75675 9.87296 9.02818 10.0084C9.17713 10.0827 9.3608 10.1092 9.72266 10.1244C9.99171 10.1358 10.1759 10.1475 10.3134 10.1725C10.2884 10.0351 10.2766 9.85089 10.2653 9.58188C10.25 9.22005 10.2235 9.0364 10.1492 8.88747C10.0042 8.59691 9.61326 8.20599 8.97942 7.72718C8.90997 7.67472 8.8962 7.57589 8.94867 7.50644C8.97124 7.47658 9.00237 7.45701 9.03606 7.44858C9.70871 6.93271 10.1266 6.51292 10.2866 6.20083C10.3702 6.03768 10.4023 5.84006 10.4258 5.45158C10.4418 5.18673 10.4567 4.99923 10.482 4.85693C10.3397 4.8822 10.1522 4.89719 9.88728 4.91318C9.49876 4.93663 9.30112 4.96871 9.13796 5.05233C8.83255 5.20884 8.42404 5.61226 7.92329 6.25961C7.93791 6.31895 7.9171 6.38397 7.86524 6.42314C7.79579 6.47561 7.69695 6.46184 7.64448 6.3924C7.16562 5.75862 6.77466 5.3677 6.48407 5.22274C6.33512 5.14844 6.15146 5.1219 5.78959 5.10667C5.53405 5.0959 5.35502 5.08477 5.21992 5.06224C5.23177 5.17785 5.23956 5.32015 5.24716 5.50059C5.2624 5.86242 5.28894 6.04607 5.36325 6.195ZM10.8329 4.38141C10.7833 4.3718 10.7298 4.38622 10.6914 4.42469C10.5801 4.53599 10.416 4.56549 9.86829 4.59856C9.43598 4.62465 9.2097 4.66139 8.99418 4.77184C8.6508 4.94781 8.23358 5.3534 7.73277 5.99128C7.29888 5.44366 6.93249 5.0942 6.62479 4.9407C6.42209 4.83958 6.20957 4.80888 5.80285 4.79175C5.43069 4.77608 5.24915 4.75857 5.14018 4.71175C5.10883 4.64412 5.06727 4.58879 5.011 4.53253C4.94945 4.47099 4.84966 4.47099 4.7881 4.53253C4.73082 4.58981 4.72685 4.6802 4.77618 4.74207C4.77123 4.78787 4.78632 4.83542 4.82143 4.87053C4.83936 4.88847 4.8572 4.90491 4.87538 4.92C4.90545 5.03398 4.91944 5.21064 4.93221 5.51385C4.94934 5.92053 4.98005 6.13303 5.08118 6.33571C5.24203 6.65809 5.61806 7.0449 6.21179 7.50627C5.59018 7.9971 5.19398 8.40698 5.02061 8.7452C4.91016 8.9607 4.87341 9.18695 4.84732 9.61921C4.81486 10.1568 4.78583 10.3247 4.67951 10.436L4.67322 10.4422C4.61167 10.5038 4.61167 10.6036 4.67322 10.6651C4.70643 10.6983 4.75077 10.7136 4.79423 10.711C4.83139 10.7088 4.86793 10.6935 4.89633 10.6651L4.9024 10.659C5.01369 10.5527 5.18166 10.5237 5.71921 10.4912C6.15152 10.4651 6.37779 10.4284 6.59331 10.3179C6.91504 10.1531 7.30159 9.78663 7.76098 9.21641C8.20297 9.7775 8.5754 10.1347 8.88746 10.2904C9.09016 10.3915 9.30269 10.4222 9.7094 10.4394C10.217 10.4607 10.37 10.4855 10.4679 10.5834C10.5295 10.645 10.6293 10.645 10.6908 10.5834C10.6965 10.5778 10.7017 10.5717 10.7063 10.5654C10.7126 10.5608 10.7186 10.5556 10.7243 10.5499C10.7859 10.4884 10.7859 10.3886 10.7243 10.3271C10.6264 10.2291 10.6016 10.0762 10.5802 9.56862C10.5631 9.16194 10.5324 8.94944 10.4313 8.74676C10.2743 8.43213 9.91235 8.05613 9.34311 7.60935C9.98361 7.10704 10.3907 6.68872 10.5671 6.34459C10.6776 6.12909 10.7143 5.90283 10.7404 5.47057C10.7735 4.92288 10.803 4.75888 10.9143 4.64757C10.9759 4.58603 10.9759 4.48624 10.9143 4.4247C10.9066 4.41704 10.8984 4.41034 10.8897 4.40458C10.8722 4.39299 10.8528 4.38527 10.8329 4.38141Z" fill="#D37760"/>
<path fill-rule="evenodd" clip-rule="evenodd" d="M7.01025 4.87906C6.90825 5.18413 6.90729 5.72953 7.01382 6.50455C7.03344 6.53495 7.04274 6.57223 7.03755 6.6109C7.02597 6.69716 6.94664 6.7577 6.86037 6.74612C6.00268 6.63096 5.39934 6.63096 5.06123 6.73992C4.88672 6.79616 4.72428 6.91321 4.43297 7.17132C4.23437 7.34729 4.09117 7.46927 3.97268 7.55203C4.09117 7.63479 4.23437 7.75677 4.43297 7.93274C4.72428 8.19085 4.88672 8.3079 5.06123 8.36414C5.37034 8.46375 5.90112 8.4723 6.64526 8.38504C6.67896 8.352 6.72707 8.33439 6.77744 8.3414C6.79842 8.34433 6.81787 8.35126 6.8351 8.36131L6.86037 8.35794C6.94664 8.34636 7.02597 8.4069 7.03755 8.49316C7.04914 8.57943 6.98859 8.65875 6.90232 8.67033L6.89155 8.67177C6.80266 9.37778 6.809 9.8791 6.90517 10.1668C6.95795 10.3246 7.06906 10.4732 7.31416 10.7399C7.49639 10.9381 7.61835 11.0766 7.69785 11.1915C7.77735 11.0766 7.89931 10.9381 8.08153 10.7399C8.32664 10.4732 8.43774 10.3246 8.49052 10.1668C8.59348 9.8588 8.59348 9.30595 8.48389 8.51923C8.47189 8.43303 8.53204 8.35341 8.61826 8.3414C8.65532 8.33624 8.69117 8.34442 8.72095 8.36226C9.5614 8.47308 10.1538 8.47172 10.4876 8.36414C10.6621 8.3079 10.8246 8.19085 11.1159 7.93274C11.3145 7.75677 11.4577 7.63479 11.5762 7.55203C11.4577 7.46927 11.3145 7.34729 11.1159 7.17132C10.8246 6.91321 10.6621 6.79616 10.4876 6.73992C10.161 6.63466 9.58682 6.63109 8.77496 6.73479C8.74334 6.78709 8.68263 6.81836 8.61826 6.80939C8.53204 6.79739 8.47189 6.71777 8.48389 6.63156C8.59348 5.84485 8.59348 5.292 8.49052 4.98405C8.43774 4.8262 8.32664 4.67757 8.08153 4.41095C7.90839 4.22259 7.78965 4.08811 7.71005 3.97664C7.63666 4.06679 7.54151 4.17294 7.41923 4.30596C7.17413 4.57259 7.06302 4.72121 7.01025 4.87906ZM12.1843 7.52026C12.1696 7.44845 12.1061 7.39442 12.0299 7.39442C11.8725 7.39442 11.7356 7.29932 11.3249 6.93542C11.0008 6.64822 10.8148 6.51421 10.5843 6.43993C10.2171 6.32158 9.63521 6.31338 8.82999 6.41034C8.91045 5.71635 8.89851 5.2102 8.78948 4.88411C8.71766 4.6693 8.58909 4.49732 8.31361 4.19765C8.06136 3.92324 7.94539 3.78251 7.90151 3.67232C7.92712 3.60241 7.93684 3.53395 7.93684 3.45447C7.93684 3.36743 7.86627 3.29688 7.77922 3.29688C7.69816 3.29688 7.63139 3.35807 7.62259 3.43678C7.58681 3.46567 7.56393 3.50989 7.56393 3.55946C7.56393 3.58472 7.56491 3.60887 7.56707 3.63231C7.50778 3.7342 7.39272 3.86905 7.18715 4.09266C6.91167 4.39233 6.78311 4.56431 6.71129 4.77913C6.59705 5.12079 6.5894 5.66012 6.68293 6.40607C5.8963 6.31365 5.3263 6.32334 4.96453 6.43993C4.73403 6.51421 4.54805 6.64822 4.22391 6.93542C3.81321 7.29932 3.67636 7.39442 3.51894 7.39442C3.43189 7.39442 3.36133 7.46498 3.36133 7.55202V7.55204C3.36133 7.63908 3.43189 7.70963 3.51894 7.70963C3.67636 7.70963 3.81321 7.80474 4.22391 8.16864C4.54805 8.45584 4.73403 8.58985 4.96453 8.66413C5.30862 8.77502 5.8411 8.78921 6.56918 8.71081C6.48492 9.42005 6.49564 9.93597 6.60621 10.2667C6.67804 10.4815 6.8066 10.6535 7.08208 10.9532C7.42591 11.3272 7.51654 11.4529 7.51654 11.5913C7.51654 11.6784 7.5871 11.7489 7.67415 11.7489C7.68221 11.7489 7.69012 11.7483 7.69785 11.7472C7.70558 11.7483 7.71349 11.7489 7.72154 11.7489C7.80859 11.7489 7.87916 11.6784 7.87916 11.5913C7.87916 11.4529 7.96978 11.3272 8.31361 10.9532C8.58909 10.6535 8.71766 10.4815 8.78948 10.2667C8.90097 9.93322 8.91094 9.41144 8.82439 8.69304C9.63251 8.79072 10.2162 8.78276 10.5843 8.66413C10.8148 8.58985 11.0008 8.45584 11.3249 8.16864C11.7356 7.80474 11.8725 7.70963 12.0299 7.70963C12.0932 7.70963 12.1477 7.67238 12.1728 7.61862C12.1779 7.60764 12.1818 7.59596 12.1843 7.58378C12.1864 7.57353 12.1875 7.56291 12.1875 7.55204C12.1875 7.55203 12.1875 7.55203 12.1875 7.55202C12.1875 7.54114 12.1864 7.53052 12.1843 7.52026Z" fill="#00C0C5"/>
</svg>
