<svg width="36" height="36" viewBox="0 0 36 36" fill="none" xmlns="http://www.w3.org/2000/svg">
<path d="M9.05999 14.7383H27.0317C29.4456 14.7383 31.6953 15.8211 33.2037 17.709C33.3881 17.9396 33.7245 17.9773 33.9552 17.7929C34.1859 17.6086 34.2235 17.2722 34.0392 17.0415C33.8025 16.7454 33.5493 16.4674 33.2824 16.207C33.9629 14.8639 34.1854 13.6538 33.9597 12.5192C33.7392 11.4111 33.0972 10.3556 31.9391 9.19751C30.3519 7.61037 32.5108 5.39995 32.6028 5.30721C32.8116 5.09841 32.8116 4.75986 32.6028 4.55113C32.394 4.34233 32.0555 4.34233 31.8467 4.55113C31.8168 4.581 31.1092 5.2948 30.6595 6.28442C30.0255 7.67902 30.2115 8.98215 31.183 9.95366C33.0648 11.8354 33.4386 13.3853 32.4465 15.486C30.9056 14.315 29.0179 13.6691 27.0318 13.6691H9.05999C6.99757 13.6691 5.09248 14.3574 3.56665 15.5136C2.55828 13.3988 2.92705 11.8437 4.81703 9.95373C5.78854 8.98222 5.97445 7.67916 5.34056 6.28449C4.89074 5.29495 4.18314 4.58114 4.15327 4.5512C3.94475 4.34262 3.60707 4.34269 3.39812 4.55085C3.18925 4.75901 3.18868 5.09741 3.39648 5.30664C3.48916 5.39995 5.64803 7.61044 4.06088 9.19758C2.90274 10.3557 2.26066 11.4112 2.04016 12.5192C1.81304 13.6607 2.03945 14.8785 2.72966 16.2312C1.05397 17.854 0.00846985 20.1121 5.79235e-05 22.6059C-0.00792628 24.8376 0.809742 26.9794 2.30243 28.6366C2.40801 28.7538 2.55365 28.8134 2.69986 28.8134C2.82739 28.8134 2.95528 28.7681 3.05751 28.6761C3.27693 28.4784 3.29454 28.1403 3.09693 27.921C1.78232 26.4616 1.06224 24.5753 1.0693 22.6097C1.08399 18.2694 4.66854 14.7383 9.05999 14.7383Z" fill="#9AC17E"/>
<path d="M35.2182 18.972C35.0972 18.7026 34.7805 18.5824 34.5114 18.7033C34.2421 18.8242 34.1217 19.1406 34.2427 19.41C34.6883 20.4024 34.9195 21.4628 34.93 22.5615C34.9707 26.878 31.4946 30.455 27.1812 30.5351C24.3172 30.5853 21.6407 29.0815 20.1997 26.6046C19.9762 26.2196 19.6553 25.8978 19.2716 25.674C18.8853 25.4486 18.4453 25.3295 17.9992 25.3295C17.0985 25.3295 16.2589 25.8126 15.8078 26.5905C14.3973 29.0244 11.7765 30.5364 8.96845 30.5364C7.40996 30.5364 5.90266 30.0831 4.60957 29.2254C4.36342 29.0621 4.03164 29.1293 3.86847 29.3754C3.70522 29.6215 3.77244 29.9532 4.01845 30.1165C5.48726 31.0907 7.19895 31.6057 8.96838 31.6057C12.1566 31.6057 15.1318 29.8894 16.7329 27.1268C16.9932 26.6778 17.4784 26.3988 17.9991 26.3988C18.2561 26.3988 18.5098 26.4676 18.7326 26.5976C18.9567 26.7283 19.144 26.9162 19.2749 27.1417C20.8834 29.9065 23.8454 31.6058 27.0356 31.6057C27.0905 31.6057 27.1458 31.6052 27.2007 31.6042C32.0984 31.5132 36.0453 27.4521 35.9991 22.5514C35.9874 21.3041 35.7247 20.0999 35.2182 18.972Z" fill="#9AC17E"/>
<path d="M12.8529 25.4051C12.9494 25.5848 13.1338 25.6869 13.3244 25.6869C13.4098 25.6869 13.4964 25.6664 13.5769 25.6232C13.837 25.4835 13.9347 25.1594 13.795 24.8992L13.0649 23.5396C13.2671 23.3819 13.4628 23.2119 13.6486 23.026C13.8574 22.8172 13.8574 22.4786 13.6486 22.2699C13.4398 22.0611 13.1013 22.0611 12.8925 22.2699C11.907 23.2554 10.5967 23.7981 9.20292 23.7981C7.80918 23.7981 6.49877 23.2554 5.51329 22.2699C5.30449 22.0611 4.96594 22.0611 4.75721 22.2699C4.54841 22.4787 4.54841 22.8172 4.75721 23.026C4.93707 23.2058 5.12605 23.3708 5.32117 23.5243L4.58135 24.7453C4.42836 24.9978 4.50906 25.3266 4.76156 25.4797C4.84818 25.5321 4.9437 25.5571 5.03809 25.5571C5.21894 25.5571 5.39538 25.4653 5.49589 25.2994L6.21554 24.1115C6.54632 24.29 6.88971 24.4361 7.24144 24.551L6.79661 25.7075C6.6906 25.9831 6.82804 26.2925 7.10364 26.3985C7.1668 26.4228 7.23167 26.4343 7.29548 26.4343C7.51027 26.4343 7.71287 26.3039 7.79456 26.0915L8.29193 24.7985C8.59384 24.8423 8.89838 24.8644 9.20285 24.8644C9.32732 24.8644 9.45164 24.8594 9.5759 24.8521L9.71362 26.1297C9.74321 26.4038 9.97496 26.6072 10.2446 26.6072C10.2637 26.6072 10.2831 26.6062 10.3025 26.6041C10.5961 26.5724 10.8085 26.3087 10.7768 26.0152L10.6349 24.6992C11.1629 24.5766 11.6779 24.3855 12.1656 24.1252L12.8529 25.4051Z" fill="#9AC17E"/>
<path d="M30.5034 25.2995C30.604 25.4654 30.7805 25.5572 30.9612 25.5572C31.0556 25.5572 31.1512 25.5321 31.2378 25.4797C31.4903 25.3268 31.571 24.998 31.4181 24.7454L30.6782 23.5243C30.8734 23.3708 31.0623 23.2058 31.2422 23.026C31.451 22.8172 31.451 22.4786 31.2422 22.2699C31.0333 22.0611 30.6948 22.0611 30.486 22.2699C29.5006 23.2554 28.1902 23.7981 26.7964 23.7981C25.4026 23.7981 24.0923 23.2554 23.1068 22.2699C22.8979 22.0611 22.5594 22.0611 22.3506 22.2699C22.1418 22.4787 22.1418 22.8172 22.3506 23.026C22.5366 23.2119 22.7322 23.3819 22.9345 23.5396L22.2044 24.8992C22.0646 25.1593 22.1623 25.4835 22.4225 25.6232C22.503 25.6664 22.5896 25.6869 22.6749 25.6869C22.8656 25.6869 23.05 25.5848 23.1464 25.4051L23.8337 24.1253C24.3215 24.3856 24.8364 24.5766 25.3643 24.6993L25.2225 26.0153C25.1909 26.3088 25.4032 26.5724 25.6967 26.6042C25.7162 26.6062 25.7355 26.6072 25.7547 26.6072C26.0243 26.6072 26.2561 26.4039 26.2856 26.1298L26.4234 24.8522C26.5476 24.8595 26.6719 24.8645 26.7964 24.8645C27.101 24.8645 27.4054 24.8424 27.7074 24.7985L28.2048 26.0915C28.2865 26.304 28.4891 26.4344 28.7039 26.4344C28.7677 26.4344 28.8327 26.4228 28.8957 26.3986C29.1713 26.2926 29.3088 25.9832 29.2028 25.7076L28.7579 24.5511C29.1096 24.4362 29.453 24.29 29.7838 24.1116L30.5034 25.2995Z" fill="#9AC17E"/>
</svg>
