<svg width="36" height="36" viewBox="0 0 36 36" fill="none" xmlns="http://www.w3.org/2000/svg">
<g clip-path="url(#clip0_1283_9860)">
<path d="M25.0312 15.8906H34.875C35.2633 15.8906 35.5781 15.5758 35.5781 15.1875V13.0781C35.5781 10.8726 34.3015 8.96041 32.449 8.03911C33.4929 7.27038 34.1719 6.03352 34.1719 4.64062C34.1719 2.31441 32.2793 0.421875 29.9531 0.421875C27.6269 0.421875 25.7344 2.31441 25.7344 4.64062C25.7344 6.03352 26.4133 7.27038 27.4572 8.03911C26.2178 8.65554 25.2373 9.71564 24.7235 11.0106C24.647 11.038 24.5738 11.0784 24.5081 11.1338L20.9889 14.0934C19.2514 12.7609 16.8034 12.7188 15.0111 14.0933L11.4919 11.1338C11.4261 11.0784 11.3529 11.0381 11.2765 11.0107C10.7627 9.71571 9.78223 8.65561 8.54276 8.03911C9.58669 7.27038 10.2656 6.03352 10.2656 4.64062C10.2656 2.31441 8.37309 0.421875 6.04688 0.421875C3.72066 0.421875 1.82812 2.31441 1.82812 4.64062C1.82812 6.03352 2.50706 7.27038 3.55099 8.03911C1.69847 8.96048 0.421875 10.8726 0.421875 13.0781V15.1875C0.421875 15.5758 0.736664 15.8906 1.125 15.8906H10.9688C11.3571 15.8906 11.6719 15.5758 11.6719 15.1875V13.1225L14.0254 15.1018C12.7905 16.7907 12.7446 19.1084 13.9963 20.8573L10.2053 23.6217C9.86808 21.6308 8.13227 20.1094 6.04688 20.1094C3.72066 20.1094 1.82812 22.0019 1.82812 24.3281C1.82812 25.721 2.50706 26.9579 3.55099 27.7266C1.69847 28.648 0.421875 30.5601 0.421875 32.7656V34.875C0.421875 35.2633 0.736664 35.5781 1.125 35.5781H10.9688C11.3571 35.5781 11.6719 35.2633 11.6719 34.875V32.7656C11.6719 30.5601 10.3953 28.6479 8.54276 27.7266C9.30262 27.1671 9.86843 26.3595 10.1204 25.4241L14.9787 21.8813C16.7554 23.2673 19.237 23.2704 21.0174 21.8843L25.9045 25.5113C26.1674 26.4095 26.7211 27.1846 27.4572 27.7266C25.6047 28.648 24.3281 30.5601 24.3281 32.7656V34.875C24.3281 35.2633 24.6429 35.5781 25.0312 35.5781H34.875C35.2633 35.5781 35.5781 35.2633 35.5781 34.875V32.7656C35.5781 30.5601 34.3015 28.6479 32.449 27.7266C33.4929 26.9579 34.1719 25.721 34.1719 24.3281C34.1719 22.0019 32.2793 20.1094 29.9531 20.1094C27.8501 20.1094 26.1019 21.6562 25.7856 23.6718L22.0001 20.8624C23.2386 19.1366 23.2291 16.8176 21.9746 15.1018L24.3281 13.1225V15.1875C24.3281 15.5758 24.6429 15.8906 25.0312 15.8906ZM27.1406 4.64062C27.1406 3.08981 28.4023 1.82812 29.9531 1.82812C31.5039 1.82812 32.7656 3.08981 32.7656 4.64062C32.7656 6.19144 31.5039 7.45312 29.9531 7.45312C28.4023 7.45312 27.1406 6.19144 27.1406 4.64062ZM25.7344 13.0781C25.7344 10.7519 27.6269 8.85938 29.9531 8.85938C32.2793 8.85938 34.1719 10.7519 34.1719 13.0781V14.4844H25.7344V13.0781ZM3.23438 4.64062C3.23438 3.08981 4.49606 1.82812 6.04688 1.82812C7.59769 1.82812 8.85938 3.08981 8.85938 4.64062C8.85938 6.19144 7.59769 7.45312 6.04688 7.45312C4.49606 7.45312 3.23438 6.19144 3.23438 4.64062ZM10.2656 14.4844H1.82812V13.0781C1.82812 10.7519 3.72066 8.85938 6.04688 8.85938C8.37309 8.85938 10.2656 10.7519 10.2656 13.0781V14.4844ZM10.2656 32.7656V34.1719H1.82812V32.7656C1.82812 30.4394 3.72066 28.5469 6.04688 28.5469C8.37309 28.5469 10.2656 30.4394 10.2656 32.7656ZM6.04688 27.1406C4.49606 27.1406 3.23438 25.8789 3.23438 24.3281C3.23438 22.7773 4.49606 21.5156 6.04688 21.5156C7.59769 21.5156 8.85938 22.7773 8.85938 24.3281C8.85938 25.8789 7.59769 27.1406 6.04688 27.1406ZM14.4844 18C14.4844 16.0615 16.0615 14.4844 18 14.4844C19.9385 14.4844 21.5156 16.0615 21.5156 18C21.5156 19.9385 19.9385 21.5156 18 21.5156C16.0615 21.5156 14.4844 19.9385 14.4844 18ZM34.1719 32.7656V34.1719H25.7344V32.7656C25.7344 30.4394 27.6269 28.5469 29.9531 28.5469C32.2793 28.5469 34.1719 30.4394 34.1719 32.7656ZM29.9531 21.5156C31.5039 21.5156 32.7656 22.7773 32.7656 24.3281C32.7656 25.8789 31.5039 27.1406 29.9531 27.1406C28.4023 27.1406 27.1406 25.8789 27.1406 24.3281C27.1406 22.7773 28.4023 21.5156 29.9531 21.5156Z" fill="#D96D99"/>
</g>
<defs>
<clipPath id="clip0_1283_9860">
<rect width="36" height="36" fill="white"/>
</clipPath>
</defs>
</svg>
