<svg width="36" height="36" viewBox="0 0 36 36" fill="none" xmlns="http://www.w3.org/2000/svg">
<g clip-path="url(#clip0_1058_20808)">
<path d="M32.9905 15.9481C32.9971 15.8281 33.0001 15.7141 33.0001 15.6001C33.0018 13.7934 32.3226 12.0524 31.0978 10.7242C29.873 9.39599 28.1927 8.57815 26.3917 8.43371C25.0914 7.26985 23.4118 6.61914 21.6667 6.60311L23.4433 3.90011C23.6961 3.5229 23.8403 3.08341 23.8601 2.62975C23.8799 2.17608 23.7745 1.72571 23.5555 1.32791C23.3413 0.92345 23.0201 0.585662 22.6269 0.351483C22.2336 0.117304 21.7836 -0.00424912 21.3259 0.000113429H16.5859C16.0831 -0.00200054 15.5913 0.148196 15.1755 0.430936C14.7596 0.713675 14.4391 1.11571 14.2561 1.58411L12.1879 6.81251C11.7385 6.67282 11.2707 6.60123 10.8001 6.60011C9.95861 6.60207 9.13232 6.82472 8.40375 7.24586C7.67519 7.667 7.06983 8.27188 6.64813 9.00011C5.39158 8.98525 4.17945 9.46443 3.27271 10.3345C2.36598 11.2045 1.83716 12.3958 1.80013 13.6519C0.915043 14.3574 0.308765 15.3538 0.0890529 16.4642C-0.130659 17.5745 0.0504282 18.7267 0.600129 19.7161C0.600129 19.7437 0.600129 19.7719 0.600129 19.8001C0.601876 21.3909 1.23458 22.916 2.35942 24.0408C3.48426 25.1657 5.00937 25.7984 6.60013 25.8001C6.69373 25.8001 6.78673 25.7971 6.87613 25.7917C7.14569 26.6662 7.6127 27.467 8.24106 28.1322C8.86941 28.7975 9.6423 29.3093 10.5 29.6283C11.3577 29.9473 12.2772 30.0648 13.1876 29.9717C14.0979 29.8787 14.9747 29.5776 15.7501 29.0917C15.9453 29.7074 16.3326 30.2443 16.8552 30.6237C17.3778 31.0032 18.0083 31.2052 18.6541 31.2001C18.7398 31.2001 18.8245 31.218 18.9028 31.2529C18.981 31.2877 19.0511 31.3386 19.1083 31.4023L22.5841 35.3839C22.7586 35.577 22.9714 35.7316 23.2091 35.8377C23.4467 35.9438 23.7039 35.9991 23.9641 36.0001C24.4509 35.9996 24.9176 35.8061 25.2619 35.4618C25.6061 35.1176 25.7997 34.6509 25.8001 34.1641V31.7491C26.099 31.7824 26.3994 31.7994 26.7001 31.8001C30.5047 31.8001 33.6001 29.2429 33.6001 26.1001C33.5994 25.6157 33.5244 25.1343 33.3775 24.6727C34.1989 24.2554 34.8827 23.6103 35.347 22.8145C35.8113 22.0188 36.0365 21.1061 35.9957 20.1857C35.9549 19.2653 35.6497 18.3761 35.1168 17.6246C34.5838 16.8731 33.8456 16.2911 32.9905 15.9481ZM15.3685 2.02811C15.4636 1.78356 15.6305 1.57354 15.8473 1.42573C16.0641 1.27793 16.3206 1.19926 16.5829 1.20011H21.3229C21.5642 1.19708 21.8017 1.26052 22.0094 1.3835C22.217 1.50648 22.3868 1.68424 22.5001 1.89731C22.6144 2.10527 22.6693 2.34067 22.6587 2.57773C22.6481 2.81479 22.5725 3.04437 22.4401 3.24131L20.0077 6.94271L19.9969 6.95831L18.5569 9.14711C18.4529 9.30998 18.3947 9.49789 18.3885 9.69104C18.3823 9.88419 18.4283 10.0754 18.5217 10.2446C18.615 10.4139 18.7523 10.5548 18.919 10.6525C19.0857 10.7503 19.2757 10.8013 19.4689 10.8001H23.2765C23.3005 10.7984 23.3244 10.8043 23.3448 10.817C23.3652 10.8298 23.381 10.8486 23.3899 10.8709C23.3996 10.8915 23.4024 10.9146 23.3978 10.9369C23.3933 10.9592 23.3817 10.9794 23.3647 10.9945L13.1905 21.7945L16.1803 14.6545C16.2479 14.495 16.2747 14.3213 16.2586 14.1489C16.2424 13.9764 16.1837 13.8107 16.0877 13.6666C15.9918 13.5224 15.8615 13.4043 15.7086 13.3229C15.5558 13.2415 15.3851 13.1993 15.2119 13.2001H11.5801C11.5106 13.1996 11.4421 13.1823 11.3807 13.1497C11.3193 13.117 11.2667 13.0699 11.2274 13.0125C11.1881 12.9551 11.1633 12.889 11.1552 12.8199C11.147 12.7508 11.1557 12.6807 11.1805 12.6157L15.3685 2.02811ZM23.9581 34.8001C23.8677 34.7992 23.7785 34.7797 23.6959 34.7429C23.6133 34.706 23.5392 34.6526 23.4781 34.5859L20.0077 30.6109C19.8308 30.4139 19.6135 30.2573 19.3706 30.1519C19.1277 30.0464 18.8649 29.9947 18.6001 30.0001C18.1332 29.9989 17.685 29.8164 17.3501 29.4909C17.0153 29.1655 16.82 28.7226 16.8055 28.2559C17.0641 28.006 17.2997 27.7333 17.5093 27.4411C18.3861 27.8369 19.3239 28.0804 20.2825 28.1611C20.7163 28.9996 21.327 29.7339 22.0725 30.3131C22.818 30.8923 23.6804 31.3026 24.6001 31.5157V34.1641C24.5998 34.2481 24.583 34.3311 24.5505 34.4085C24.5181 34.4859 24.4707 34.5562 24.411 34.6153C24.3514 34.6743 24.2807 34.7211 24.203 34.7528C24.1253 34.7845 24.0421 34.8006 23.9581 34.8001ZM32.4001 26.1001C32.4001 28.5817 29.8429 30.6001 26.7001 30.6001C26.2352 30.6022 25.7712 30.5558 25.3159 30.4615C23.8412 30.2114 22.5254 29.3878 21.6559 28.1707C22.9859 28.0608 24.2709 27.6375 25.4056 26.9353C26.5404 26.2331 27.4927 25.2721 28.1845 24.1309C28.745 24.5876 29.4022 24.9105 30.1062 25.0749C30.8101 25.2394 31.5424 25.2412 32.2471 25.0801C32.3475 25.4109 32.399 25.7545 32.4001 26.1001ZM31.2001 24.0001C30.4261 23.9946 29.6741 23.7423 29.0534 23.2799C28.4327 22.8175 27.9757 22.1692 27.7489 21.4291C27.7027 21.2776 27.5984 21.1506 27.4589 21.0757C27.3194 21.0008 27.1559 20.984 27.0041 21.0292C26.8523 21.0743 26.7245 21.1776 26.6485 21.3166C26.5726 21.4556 26.5547 21.619 26.5987 21.7711C26.7565 22.2906 27.0016 22.7793 27.3235 23.2165C26.876 24.0489 26.2686 24.7849 25.5363 25.3822C24.8039 25.9796 23.9609 26.4267 23.0556 26.6979C22.1502 26.9691 21.2003 27.0591 20.2601 26.9627C19.3199 26.8663 18.408 26.5854 17.5765 26.1361C17.2231 25.9443 16.8861 25.7236 16.5691 25.4761C16.4433 25.3836 16.2864 25.3438 16.1318 25.3652C15.9771 25.3865 15.8368 25.4673 15.7408 25.5904C15.6447 25.7135 15.6004 25.8692 15.6173 26.0244C15.6342 26.1796 15.7109 26.3221 15.8311 26.4217C16.0285 26.5765 16.2349 26.7217 16.4461 26.8573C15.8269 27.6859 14.9567 28.2923 13.9649 28.5862C12.9732 28.8801 11.913 28.8457 10.9424 28.4883C9.97172 28.1308 9.14251 27.4694 8.57824 26.6025C8.01397 25.7356 7.74484 24.7096 7.81093 23.6773C7.81614 23.5986 7.80579 23.5197 7.78047 23.445C7.75515 23.3703 7.71536 23.3014 7.66337 23.2421C7.61138 23.1828 7.54821 23.1343 7.47747 23.0995C7.40673 23.0646 7.32982 23.044 7.25113 23.0389C7.17227 23.0329 7.09301 23.0427 7.01798 23.0677C6.94295 23.0927 6.87368 23.1324 6.81421 23.1846C6.75475 23.2367 6.7063 23.3002 6.6717 23.3713C6.6371 23.4424 6.61705 23.5197 6.61273 23.5987C6.59332 23.9326 6.60155 24.2676 6.63733 24.6001C6.62473 24.6001 6.61273 24.6001 6.60013 24.6001C5.59598 24.5985 4.61757 24.2823 3.80237 23.696C2.98716 23.1097 2.37613 22.2828 2.05513 21.3313C2.27246 21.4855 2.50225 21.6214 2.74213 21.7375C2.81328 21.7714 2.89041 21.7909 2.96911 21.795C3.04781 21.7991 3.12654 21.7876 3.20081 21.7613C3.27507 21.7349 3.34342 21.6942 3.40195 21.6414C3.46048 21.5886 3.50805 21.5249 3.54193 21.4537C3.57581 21.3826 3.59535 21.3054 3.59942 21.2267C3.60349 21.148 3.59203 21.0693 3.56567 20.995C3.53932 20.9208 3.4986 20.8524 3.44583 20.7939C3.39306 20.7354 3.32928 20.6878 3.25813 20.6539C2.6277 20.3542 2.098 19.8777 1.73353 19.2823C1.72933 19.2751 1.72813 19.2667 1.72393 19.2601C1.41602 18.7522 1.23874 18.1758 1.20794 17.5826C1.17714 16.9894 1.29377 16.3978 1.54741 15.8607C1.80106 15.3236 2.18381 14.8577 2.66148 14.5046C3.13914 14.1515 3.69684 13.9223 4.28473 13.8373C4.36277 13.8262 4.43787 13.7998 4.50572 13.7597C4.57357 13.7196 4.63285 13.6665 4.68018 13.6034C4.72751 13.5404 4.76196 13.4686 4.78157 13.3923C4.80117 13.3159 4.80554 13.2365 4.79443 13.1584C4.78332 13.0804 4.75695 13.0053 4.71682 12.9374C4.67669 12.8696 4.62358 12.8103 4.56054 12.763C4.4975 12.7156 4.42575 12.6812 4.3494 12.6616C4.27304 12.642 4.19357 12.6376 4.11553 12.6487C3.77409 12.6991 3.43914 12.7865 3.11653 12.9091C3.31427 12.135 3.76389 11.4487 4.39458 10.9583C5.02527 10.4678 5.80119 10.2011 6.60013 10.2001C6.72013 10.2001 6.83113 10.2049 6.94393 10.2157C7.36021 10.2547 7.76639 10.3666 8.14393 10.5463C8.28762 10.6147 8.45261 10.6233 8.60261 10.5701C8.7526 10.5168 8.8753 10.4062 8.94373 10.2625C9.01215 10.1188 9.0207 9.95383 8.96747 9.80384C8.91425 9.65384 8.80362 9.53114 8.65993 9.46271C8.43646 9.35756 8.20516 9.26989 7.96813 9.20051C8.30262 8.76712 8.73156 8.41572 9.2223 8.17305C9.71305 7.93038 10.2527 7.80284 10.8001 7.80011C11.1185 7.80175 11.4352 7.84656 11.7415 7.93331L10.0669 12.1669C9.97152 12.4142 9.93739 12.6809 9.96745 12.9443C9.99751 13.2076 10.0909 13.4598 10.2396 13.6792C10.3882 13.8986 10.5878 14.0788 10.8213 14.2044C11.0547 14.3299 11.3151 14.3971 11.5801 14.4001H14.9869L11.8525 21.8839C11.7643 22.1188 11.7591 22.3768 11.8378 22.615C11.9164 22.8533 12.0742 23.0575 12.285 23.1936C12.4957 23.3298 12.7467 23.3898 12.9962 23.3636C13.2458 23.3374 13.4788 23.2267 13.6567 23.0497L24.2365 11.8201C24.4096 11.6317 24.5244 11.3972 24.5671 11.1449C24.6097 10.8927 24.5784 10.6335 24.4768 10.3986C24.3753 10.1638 24.2079 9.96343 23.9949 9.82172C23.7819 9.68001 23.5324 9.60304 23.2765 9.60011H19.6963L20.8435 7.85531C21.7261 7.73313 22.6249 7.81368 23.4717 8.09085C24.3185 8.36802 25.091 8.83452 25.7305 9.45491C25.7359 9.45886 25.7415 9.46247 25.7473 9.46571C26.2952 9.98811 26.7391 10.6097 27.0553 11.2975C27.1033 11.4018 27.1802 11.4901 27.2769 11.552C27.3735 11.6139 27.4859 11.6468 27.6007 11.6467C27.6872 11.6468 27.7726 11.628 27.8509 11.5915C27.9954 11.5249 28.1075 11.4038 28.1626 11.2546C28.2177 11.1054 28.2114 10.9404 28.1449 10.7959C27.9999 10.4863 27.8329 10.1876 27.6451 9.90191C28.8522 10.2889 29.905 11.0493 30.6518 12.0735C31.3986 13.0976 31.8007 14.3326 31.8001 15.6001C31.7995 15.831 31.7849 16.0616 31.7563 16.2907C31.7563 16.2979 31.7563 16.3045 31.7563 16.3117C31.6972 16.8155 31.574 17.3097 31.3897 17.7823C31.3611 17.8557 31.3472 17.9341 31.3489 18.0129C31.3506 18.0917 31.3678 18.1694 31.3995 18.2415C31.4312 18.3137 31.4768 18.3789 31.5337 18.4334C31.5906 18.4879 31.6577 18.5307 31.7311 18.5593C31.8009 18.5867 31.8752 18.6005 31.9501 18.6001C32.071 18.6001 32.189 18.5637 32.2888 18.4955C32.3886 18.4273 32.4655 18.3305 32.5093 18.2179C32.6367 17.8839 32.7388 17.5407 32.8147 17.1913C33.539 17.554 34.1196 18.1507 34.4624 18.8846C34.8051 19.6186 34.8899 20.4467 34.703 21.2349C34.5161 22.0231 34.0684 22.725 33.4326 23.2269C32.7968 23.7288 32.0102 24.0013 31.2001 24.0001Z" fill="#B38DB2"/>
</g>
<defs>
<clipPath id="clip0_1058_20808">
<rect width="36" height="36" fill="white"/>
</clipPath>
</defs>
</svg>
