<svg width="46" height="46" viewBox="0 0 46 46" fill="none" xmlns="http://www.w3.org/2000/svg">
<path d="M38.8434 14.4952H40.6548C42.996 14.4952 43.9681 17.4673 42.0727 18.8302L32.7878 25.5068L36.3523 36.2819C37.0829 38.4904 34.5327 40.333 32.6369 38.9665L23.3873 32.2992L14.1049 39.0062C12.2115 40.3744 9.65996 38.5369 10.3858 36.3279L13.9442 25.4984L4.6351 18.8331C2.73493 17.4725 3.70537 14.4952 6.04904 14.4952H17.5236L21.025 3.6959C21.7426 1.48236 24.8993 1.47854 25.6224 3.69043L29.1545 14.4952H30.9658" stroke="#343636" stroke-width="2.5" stroke-miterlimit="10" stroke-linecap="round" stroke-linejoin="round"/>
<path d="M23.3516 37.7236V44.7441" stroke="#343636" stroke-width="2.5" stroke-miterlimit="10" stroke-linecap="round" stroke-linejoin="round"/>
<path d="M37.9688 27.186L44.7013 29.3555" stroke="#343636" stroke-width="2.5" stroke-miterlimit="10" stroke-linecap="round" stroke-linejoin="round"/>
<path d="M32.3848 10.1445L36.5457 4.46476" stroke="#343636" stroke-width="2.5" stroke-miterlimit="10" stroke-linecap="round" stroke-linejoin="round"/>
<path d="M14.3152 10.1445L10.1543 4.46476" stroke="#343636" stroke-width="2.5" stroke-miterlimit="10" stroke-linecap="round" stroke-linejoin="round"/>
<path d="M8.73255 27.186L2 29.3555" stroke="#343636" stroke-width="2.5" stroke-miterlimit="10" stroke-linecap="round" stroke-linejoin="round"/>
</svg>
