<svg width="46" height="38" viewBox="0 0 46 38" fill="none" xmlns="http://www.w3.org/2000/svg">
<path d="M21.2075 28.709C22.8333 29.9781 24.8636 31.3531 26.7648 32.8887C36.9036 24.6987 44.3863 20.7298 44.3863 12.0553C44.3863 6.30282 39.4617 1.63867 33.7092 1.63867C31.0416 1.63867 28.6076 3.63693 26.7648 5.89301C24.9218 3.63693 22.2274 1.63867 19.5599 1.63867C13.8073 1.63867 8.88281 6.30282 8.88281 12.0553C8.88281 14.9955 9.65278 17.3435 11.1006 19.5094C11.1188 19.5381 11.1389 19.5667 11.1579 19.5954" stroke="#343636" stroke-width="2.5" stroke-miterlimit="10" stroke-linecap="round" stroke-linejoin="round"/>
<path d="M40.7211 14.1523C40.8522 13.4925 40.9156 12.799 40.9156 12.0551C40.9156 6.6862 34.9 3.87196 31.9746 5.73481" stroke="#343636" stroke-width="2.5" stroke-miterlimit="10" stroke-linecap="round" stroke-linejoin="round"/>
<path d="M21.1375 28.6495C19.3086 30.8136 16.2157 32.9941 12.3267 36.3613C5.87969 30.7789 1.68359 28.4898 1.68359 24.1643C1.68359 20.7823 4.41528 18.1322 7.56979 18.1322C9.10365 18.1322 10.2547 18.7337 11.1002 19.5098C11.6167 19.9837 12.0194 20.5228 12.3267 21.0289C13.1366 19.6938 14.8728 18.1322 17.3451 18.1322C20.5004 18.1322 22.9708 20.7823 22.9708 24.1643C22.9708 25.8622 22.3182 27.2519 21.1375 28.6495Z" stroke="#343636" stroke-width="2.5" stroke-miterlimit="10" stroke-linecap="round" stroke-linejoin="round"/>
</svg>
