<svg width="48" height="52" viewBox="0 0 48 52" fill="none" xmlns="http://www.w3.org/2000/svg">
<mask id="path-1-outside-1_846_99556" maskUnits="userSpaceOnUse" x="-0.0175781" y="19.8691" width="48" height="32" fill="black">
<rect fill="white" x="-0.0175781" y="19.8691" width="48" height="32"/>
<path d="M46.5527 39.1209C45.9248 38.4932 45.0904 38.1476 44.2024 38.1476C44.202 38.1476 44.2014 38.1476 44.2011 38.1476H44.124C43.2763 38.1479 42.5247 38.5661 42.0637 39.2067L37.1162 34.2592L36.1093 26.7078C35.6655 23.3793 32.7985 20.8691 29.4381 20.8691C28.5151 20.8691 27.7643 21.62 27.7643 22.543V24.2708C27.7643 26.2059 26.1899 27.7806 24.2546 27.7806C22.3193 27.7806 20.7448 26.206 20.7448 24.2708V22.543C20.7448 21.6199 19.9939 20.8691 19.0686 20.8691C15.7105 20.8691 12.8435 23.3793 12.3999 26.7078L11.393 34.2592L6.44667 39.2054C6.36669 39.0945 6.27724 38.9892 6.17861 38.8906C5.69931 38.4114 5.0623 38.1476 4.38388 38.1476H4.38339C2.50801 38.148 0.982422 39.6741 0.982422 41.5494C0.982422 43.3911 2.4539 44.8946 4.28281 44.9485C3.8372 45.5749 3.57422 46.3395 3.57422 47.1649C3.57431 49.279 5.29413 50.9987 7.408 50.9987H41.1013C43.2153 50.9987 44.935 49.279 44.935 47.165C44.935 46.3396 44.6719 45.5751 44.2265 44.9487C46.0552 44.8954 47.5268 43.3858 47.5268 41.5367V41.4717C47.5268 40.5836 47.1809 39.7487 46.5527 39.1209ZM31.2544 36.068L31.5336 33.6943L31.792 34.9858C32.0247 36.1499 32.5916 37.2089 33.431 38.0484L38.7139 43.3313H32.6625L31.3949 38.2607C31.215 37.5417 31.1677 36.804 31.2544 36.068ZM19.0711 22.489C19.1009 22.489 19.1251 22.5132 19.1251 22.543V24.2708C19.1251 27.0992 21.4262 29.4004 24.2547 29.4004C27.0831 29.4004 29.3842 27.0992 29.3842 24.2708V22.543C29.3842 22.5132 29.4086 22.489 29.4405 22.489C30.0499 22.489 30.6376 22.5989 31.1843 22.7992L29.6456 35.8787C29.5358 36.8101 29.5957 37.7438 29.8232 38.6535L30.9926 43.3312H17.5167L18.6861 38.6535C18.9135 37.7436 18.9734 36.81 18.8638 35.8787L17.3251 22.7995C17.8723 22.599 18.4607 22.489 19.0711 22.489ZM16.9758 33.6942L17.2551 36.0679C17.3417 36.804 17.2944 37.5417 17.1146 38.2607L15.847 43.3313H9.7953L15.0782 38.0484C15.9177 37.209 16.4845 36.15 16.7173 34.9858L16.9758 33.6942ZM4.38427 43.3313C3.40175 43.3313 2.60244 42.532 2.60244 41.5495C2.60244 40.5672 3.40156 39.7678 4.38437 39.7676C4.62949 39.7676 4.85996 39.863 5.0333 40.0363C5.20673 40.2096 5.30224 40.4401 5.30224 40.6855C5.30224 41.0132 5.49951 41.3084 5.80224 41.4338C6.10497 41.5591 6.45331 41.4899 6.68486 41.2582L12.7324 35.2106C12.8582 35.0848 12.9391 34.9212 12.9626 34.745L14.0056 26.9219C14.1796 25.6171 14.8447 24.479 15.7978 23.6822L16.3638 28.4934L15.129 34.668C14.9592 35.5175 14.5455 36.2903 13.933 36.9029L7.50468 43.3312H7.408H4.38427V43.3313ZM20.8529 49.3789H7.408C6.1873 49.3789 5.19413 48.3858 5.19413 47.165C5.19413 45.9442 6.1872 44.9511 7.408 44.9511H13.0775V45.3469C13.0775 46.5456 13.8947 47.5643 15.0647 47.8243L20.8528 49.1106V49.3789H20.8529ZM20.8529 47.4511L15.4162 46.2429C14.9929 46.1489 14.6974 45.7804 14.6974 45.3468V44.9511H20.8529V47.4511ZM41.1013 49.3789H22.4728V44.9512H41.1014C42.322 44.9513 43.3151 45.9444 43.3151 47.1651C43.3151 48.3857 42.322 49.3789 41.1013 49.3789ZM45.9069 41.5367C45.9069 42.5262 45.1082 43.3313 44.1267 43.3313H41.0048L34.5765 36.9029C33.9639 36.2903 33.5502 35.5174 33.3804 34.668L32.1455 28.4933L32.7115 23.6821C33.6645 24.4789 34.3297 25.6171 34.5037 26.922L35.5467 34.7451C35.5703 34.9214 35.6511 35.0849 35.7769 35.2107L41.8245 41.2583C42.0562 41.4899 42.4044 41.5592 42.7072 41.4339C43.0099 41.3085 43.2072 41.0132 43.2072 40.6856C43.2072 40.1796 43.6188 39.7678 44.1249 39.7676H44.2021C44.2023 39.7676 44.2025 39.7676 44.2028 39.7676C44.6579 39.7676 45.0858 39.9449 45.4077 40.2666C45.7295 40.5884 45.907 41.0166 45.907 41.4718V41.5367H45.9069Z"/>
</mask>
<path d="M46.5527 39.1209C45.9248 38.4932 45.0904 38.1476 44.2024 38.1476C44.202 38.1476 44.2014 38.1476 44.2011 38.1476H44.124C43.2763 38.1479 42.5247 38.5661 42.0637 39.2067L37.1162 34.2592L36.1093 26.7078C35.6655 23.3793 32.7985 20.8691 29.4381 20.8691C28.5151 20.8691 27.7643 21.62 27.7643 22.543V24.2708C27.7643 26.2059 26.1899 27.7806 24.2546 27.7806C22.3193 27.7806 20.7448 26.206 20.7448 24.2708V22.543C20.7448 21.6199 19.9939 20.8691 19.0686 20.8691C15.7105 20.8691 12.8435 23.3793 12.3999 26.7078L11.393 34.2592L6.44667 39.2054C6.36669 39.0945 6.27724 38.9892 6.17861 38.8906C5.69931 38.4114 5.0623 38.1476 4.38388 38.1476H4.38339C2.50801 38.148 0.982422 39.6741 0.982422 41.5494C0.982422 43.3911 2.4539 44.8946 4.28281 44.9485C3.8372 45.5749 3.57422 46.3395 3.57422 47.1649C3.57431 49.279 5.29413 50.9987 7.408 50.9987H41.1013C43.2153 50.9987 44.935 49.279 44.935 47.165C44.935 46.3396 44.6719 45.5751 44.2265 44.9487C46.0552 44.8954 47.5268 43.3858 47.5268 41.5367V41.4717C47.5268 40.5836 47.1809 39.7487 46.5527 39.1209ZM31.2544 36.068L31.5336 33.6943L31.792 34.9858C32.0247 36.1499 32.5916 37.2089 33.431 38.0484L38.7139 43.3313H32.6625L31.3949 38.2607C31.215 37.5417 31.1677 36.804 31.2544 36.068ZM19.0711 22.489C19.1009 22.489 19.1251 22.5132 19.1251 22.543V24.2708C19.1251 27.0992 21.4262 29.4004 24.2547 29.4004C27.0831 29.4004 29.3842 27.0992 29.3842 24.2708V22.543C29.3842 22.5132 29.4086 22.489 29.4405 22.489C30.0499 22.489 30.6376 22.5989 31.1843 22.7992L29.6456 35.8787C29.5358 36.8101 29.5957 37.7438 29.8232 38.6535L30.9926 43.3312H17.5167L18.6861 38.6535C18.9135 37.7436 18.9734 36.81 18.8638 35.8787L17.3251 22.7995C17.8723 22.599 18.4607 22.489 19.0711 22.489ZM16.9758 33.6942L17.2551 36.0679C17.3417 36.804 17.2944 37.5417 17.1146 38.2607L15.847 43.3313H9.7953L15.0782 38.0484C15.9177 37.209 16.4845 36.15 16.7173 34.9858L16.9758 33.6942ZM4.38427 43.3313C3.40175 43.3313 2.60244 42.532 2.60244 41.5495C2.60244 40.5672 3.40156 39.7678 4.38437 39.7676C4.62949 39.7676 4.85996 39.863 5.0333 40.0363C5.20673 40.2096 5.30224 40.4401 5.30224 40.6855C5.30224 41.0132 5.49951 41.3084 5.80224 41.4338C6.10497 41.5591 6.45331 41.4899 6.68486 41.2582L12.7324 35.2106C12.8582 35.0848 12.9391 34.9212 12.9626 34.745L14.0056 26.9219C14.1796 25.6171 14.8447 24.479 15.7978 23.6822L16.3638 28.4934L15.129 34.668C14.9592 35.5175 14.5455 36.2903 13.933 36.9029L7.50468 43.3312H7.408H4.38427V43.3313ZM20.8529 49.3789H7.408C6.1873 49.3789 5.19413 48.3858 5.19413 47.165C5.19413 45.9442 6.1872 44.9511 7.408 44.9511H13.0775V45.3469C13.0775 46.5456 13.8947 47.5643 15.0647 47.8243L20.8528 49.1106V49.3789H20.8529ZM20.8529 47.4511L15.4162 46.2429C14.9929 46.1489 14.6974 45.7804 14.6974 45.3468V44.9511H20.8529V47.4511ZM41.1013 49.3789H22.4728V44.9512H41.1014C42.322 44.9513 43.3151 45.9444 43.3151 47.1651C43.3151 48.3857 42.322 49.3789 41.1013 49.3789ZM45.9069 41.5367C45.9069 42.5262 45.1082 43.3313 44.1267 43.3313H41.0048L34.5765 36.9029C33.9639 36.2903 33.5502 35.5174 33.3804 34.668L32.1455 28.4933L32.7115 23.6821C33.6645 24.4789 34.3297 25.6171 34.5037 26.922L35.5467 34.7451C35.5703 34.9214 35.6511 35.0849 35.7769 35.2107L41.8245 41.2583C42.0562 41.4899 42.4044 41.5592 42.7072 41.4339C43.0099 41.3085 43.2072 41.0132 43.2072 40.6856C43.2072 40.1796 43.6188 39.7678 44.1249 39.7676H44.2021C44.2023 39.7676 44.2025 39.7676 44.2028 39.7676C44.6579 39.7676 45.0858 39.9449 45.4077 40.2666C45.7295 40.5884 45.907 41.0166 45.907 41.4718V41.5367H45.9069Z" fill="#343636"/>
<path d="M46.5527 39.1209C45.9248 38.4932 45.0904 38.1476 44.2024 38.1476C44.202 38.1476 44.2014 38.1476 44.2011 38.1476H44.124C43.2763 38.1479 42.5247 38.5661 42.0637 39.2067L37.1162 34.2592L36.1093 26.7078C35.6655 23.3793 32.7985 20.8691 29.4381 20.8691C28.5151 20.8691 27.7643 21.62 27.7643 22.543V24.2708C27.7643 26.2059 26.1899 27.7806 24.2546 27.7806C22.3193 27.7806 20.7448 26.206 20.7448 24.2708V22.543C20.7448 21.6199 19.9939 20.8691 19.0686 20.8691C15.7105 20.8691 12.8435 23.3793 12.3999 26.7078L11.393 34.2592L6.44667 39.2054C6.36669 39.0945 6.27724 38.9892 6.17861 38.8906C5.69931 38.4114 5.0623 38.1476 4.38388 38.1476H4.38339C2.50801 38.148 0.982422 39.6741 0.982422 41.5494C0.982422 43.3911 2.4539 44.8946 4.28281 44.9485C3.8372 45.5749 3.57422 46.3395 3.57422 47.1649C3.57431 49.279 5.29413 50.9987 7.408 50.9987H41.1013C43.2153 50.9987 44.935 49.279 44.935 47.165C44.935 46.3396 44.6719 45.5751 44.2265 44.9487C46.0552 44.8954 47.5268 43.3858 47.5268 41.5367V41.4717C47.5268 40.5836 47.1809 39.7487 46.5527 39.1209ZM31.2544 36.068L31.5336 33.6943L31.792 34.9858C32.0247 36.1499 32.5916 37.2089 33.431 38.0484L38.7139 43.3313H32.6625L31.3949 38.2607C31.215 37.5417 31.1677 36.804 31.2544 36.068ZM19.0711 22.489C19.1009 22.489 19.1251 22.5132 19.1251 22.543V24.2708C19.1251 27.0992 21.4262 29.4004 24.2547 29.4004C27.0831 29.4004 29.3842 27.0992 29.3842 24.2708V22.543C29.3842 22.5132 29.4086 22.489 29.4405 22.489C30.0499 22.489 30.6376 22.5989 31.1843 22.7992L29.6456 35.8787C29.5358 36.8101 29.5957 37.7438 29.8232 38.6535L30.9926 43.3312H17.5167L18.6861 38.6535C18.9135 37.7436 18.9734 36.81 18.8638 35.8787L17.3251 22.7995C17.8723 22.599 18.4607 22.489 19.0711 22.489ZM16.9758 33.6942L17.2551 36.0679C17.3417 36.804 17.2944 37.5417 17.1146 38.2607L15.847 43.3313H9.7953L15.0782 38.0484C15.9177 37.209 16.4845 36.15 16.7173 34.9858L16.9758 33.6942ZM4.38427 43.3313C3.40175 43.3313 2.60244 42.532 2.60244 41.5495C2.60244 40.5672 3.40156 39.7678 4.38437 39.7676C4.62949 39.7676 4.85996 39.863 5.0333 40.0363C5.20673 40.2096 5.30224 40.4401 5.30224 40.6855C5.30224 41.0132 5.49951 41.3084 5.80224 41.4338C6.10497 41.5591 6.45331 41.4899 6.68486 41.2582L12.7324 35.2106C12.8582 35.0848 12.9391 34.9212 12.9626 34.745L14.0056 26.9219C14.1796 25.6171 14.8447 24.479 15.7978 23.6822L16.3638 28.4934L15.129 34.668C14.9592 35.5175 14.5455 36.2903 13.933 36.9029L7.50468 43.3312H7.408H4.38427V43.3313ZM20.8529 49.3789H7.408C6.1873 49.3789 5.19413 48.3858 5.19413 47.165C5.19413 45.9442 6.1872 44.9511 7.408 44.9511H13.0775V45.3469C13.0775 46.5456 13.8947 47.5643 15.0647 47.8243L20.8528 49.1106V49.3789H20.8529ZM20.8529 47.4511L15.4162 46.2429C14.9929 46.1489 14.6974 45.7804 14.6974 45.3468V44.9511H20.8529V47.4511ZM41.1013 49.3789H22.4728V44.9512H41.1014C42.322 44.9513 43.3151 45.9444 43.3151 47.1651C43.3151 48.3857 42.322 49.3789 41.1013 49.3789ZM45.9069 41.5367C45.9069 42.5262 45.1082 43.3313 44.1267 43.3313H41.0048L34.5765 36.9029C33.9639 36.2903 33.5502 35.5174 33.3804 34.668L32.1455 28.4933L32.7115 23.6821C33.6645 24.4789 34.3297 25.6171 34.5037 26.922L35.5467 34.7451C35.5703 34.9214 35.6511 35.0849 35.7769 35.2107L41.8245 41.2583C42.0562 41.4899 42.4044 41.5592 42.7072 41.4339C43.0099 41.3085 43.2072 41.0132 43.2072 40.6856C43.2072 40.1796 43.6188 39.7678 44.1249 39.7676H44.2021C44.2023 39.7676 44.2025 39.7676 44.2028 39.7676C44.6579 39.7676 45.0858 39.9449 45.4077 40.2666C45.7295 40.5884 45.907 41.0166 45.907 41.4718V41.5367H45.9069Z" stroke="#343636" stroke-width="0.555556" mask="url(#path-1-outside-1_846_99556)"/>
<path d="M27.6341 9.92018C27.3538 9.503 26.7968 9.37645 26.3637 9.63237M27.6341 9.92018C27.6342 9.92037 27.6343 9.92057 27.6345 9.92076L27.5191 9.99813L27.6339 9.91989C27.6339 9.91994 27.634 9.92004 27.6341 9.92018ZM27.6341 9.92018L26.3637 9.63237M26.3637 9.63237C23.3961 11.386 19.936 11.8534 18.2953 11.9773M26.3637 9.63237L18.2953 11.9773M18.2953 11.9773C18.4012 8.78183 21.0339 6.21447 24.2547 6.21447C27.4621 6.21447 30.0863 8.76048 30.2125 11.9376L18.2953 11.9773ZM17.3374 13.9196L17.3385 13.9196L17.3413 13.9196C17.3975 13.9195 17.676 13.9191 18.1221 13.8936V14.769C18.1221 18.1506 20.873 20.9015 24.2546 20.9015C27.6362 20.9015 30.387 18.1506 30.387 14.769V13.9267C30.6377 13.9673 30.8975 13.99 31.1661 13.99C31.6902 13.99 32.1149 13.5653 32.1149 13.0412V12.1772C32.1149 9.08603 30.3212 6.40726 27.7212 5.1243C27.7704 4.88804 27.7953 4.64656 27.7953 4.40166C27.7953 2.44936 26.2071 0.861111 24.2547 0.861111C22.3023 0.861111 20.714 2.44937 20.714 4.40175C20.714 4.64692 20.7393 4.88823 20.7885 5.12411C18.1883 6.40707 16.3943 9.08583 16.3943 12.1771V12.9708C16.3943 13.4925 16.8155 13.9164 17.3374 13.9196ZM24.2547 2.75871C25.1605 2.75871 25.8976 3.49584 25.8976 4.40166C25.8976 4.43146 25.8966 4.46129 25.8946 4.49123C25.3655 4.37804 24.8174 4.31677 24.2547 4.31677C23.692 4.31677 23.1438 4.37804 22.6148 4.49116C22.6128 4.46123 22.6117 4.43143 22.6117 4.40166C22.6117 3.49594 23.3489 2.75871 24.2547 2.75871ZM28.4894 14.7689C28.4894 17.1038 26.5896 19.0037 24.2547 19.0037C21.9198 19.0037 20.0199 17.1038 20.0199 14.7689V13.7016C21.8147 13.4455 24.2701 12.8874 26.6055 11.6683C27.0204 12.1345 27.6615 12.7509 28.4895 13.2314L28.4894 14.7689Z" fill="#343636" stroke="#343636" stroke-width="0.277778"/>
</svg>
