<svg width="46" height="42" viewBox="0 0 46 42" fill="none" xmlns="http://www.w3.org/2000/svg">
<path d="M22.5868 7.553C23.1428 7.553 23.5938 7.1022 23.5938 6.54605V1.38173C23.5938 0.825585 23.1428 0.374783 22.5868 0.374783C22.0308 0.374783 21.5799 0.825585 21.5799 1.38173V6.54605C21.5799 7.1022 22.0308 7.553 22.5868 7.553Z" fill="#343636" stroke="#343636" stroke-width="0.277778"/>
<path d="M16.3446 9.25313L16.3446 9.25313C16.5412 9.44955 16.7991 9.54776 17.0563 9.54776C17.314 9.54776 17.572 9.44924 17.7686 9.25254L17.7687 9.25251C18.1617 8.8591 18.1614 8.22161 17.7681 7.82851L17.768 7.8285L15.6911 5.75341L15.6911 5.75339C15.2975 5.36032 14.6601 5.3606 14.267 5.75401L14.267 5.75402C13.874 6.14744 13.8743 6.78493 14.2676 7.17802L14.2676 7.17804L16.3446 9.25313Z" fill="#343636" stroke="#343636" stroke-width="0.277778"/>
<path d="M28.7015 9.3873L28.7015 9.38729L30.9096 7.17748L30.9096 7.17747C31.3026 6.78405 31.3023 6.14656 30.909 5.75347C30.5155 5.36023 29.878 5.36067 29.4849 5.75395L29.4849 5.75397L27.2768 7.96378L27.2768 7.96379C26.8838 8.35721 26.8841 8.99469 27.2774 9.38779C27.474 9.58432 27.7319 9.68252 27.9892 9.68252C28.2469 9.68252 28.5049 9.58401 28.7015 9.3873Z" fill="#343636" stroke="#343636" stroke-width="0.277778"/>
<path d="M39.1239 23.2917H38.6946C39.1866 22.5639 39.4749 21.6874 39.4749 20.7445V19.5195C39.4749 17.0043 37.4289 14.9583 34.9139 14.9583C32.3988 14.9583 30.3528 17.0043 30.3528 19.5194V20.1364L24.0595 13.8429L24.0595 13.8429C23.6706 13.4542 23.1038 13.3216 22.5876 13.4885C22.0714 13.3216 21.5045 13.4542 21.1156 13.843L21.1156 13.843L14.8223 20.1364V19.5194C14.8221 17.0043 12.7762 14.9583 10.2611 14.9583C7.746 14.9583 5.70005 17.0043 5.70005 19.5194V20.7445C5.70005 21.6873 5.98831 22.5639 6.48031 23.2916H6.051C2.83914 23.2917 0.226345 25.9045 0.226345 29.1163V40.6181C0.226345 41.1742 0.677253 41.625 1.23329 41.625H4.90083C4.98718 41.625 5.07076 41.6139 5.15039 41.5934C5.23003 41.6139 5.31361 41.625 5.39996 41.625H15.1222C15.6782 41.625 16.1291 41.1742 16.1291 40.6181V37.6667C16.1291 37.1105 15.6782 36.6597 15.1222 36.6597C14.5661 36.6597 14.1152 37.1105 14.1152 37.6667V39.6111H6.4069V29.8588C6.4069 29.3026 5.956 28.8518 5.39996 28.8518C4.84392 28.8518 4.39301 29.3026 4.39301 29.8588V39.6111H2.24024V29.1163C2.24024 27.0152 3.94984 25.3056 6.051 25.3056H12.084C12.3582 25.3056 12.607 25.1957 12.7884 25.0181L12.7885 25.0183L12.7961 25.0107L21.557 16.2498C21.4407 17.8977 20.8975 19.479 19.9683 20.8591L14.287 29.2964L14.287 29.2964C14.1751 29.4626 14.1153 29.6585 14.1153 29.8588V30.809C14.1153 31.3652 14.5662 31.816 15.1223 31.816C15.6783 31.816 16.1292 31.3652 16.1292 30.809V30.1661L21.6388 21.9838C22.0058 21.4387 22.3219 20.8673 22.5876 20.276C22.8532 20.8672 23.1693 21.4387 23.5363 21.9838L29.0458 30.1661V40.6181C29.0458 41.1742 29.4967 41.625 30.0528 41.625H39.775C39.8613 41.625 39.9449 41.6139 40.0245 41.5934C40.1042 41.6139 40.1878 41.625 40.2741 41.625H43.9416C44.4977 41.625 44.9486 41.1742 44.9486 40.6181V29.1163C44.9486 25.9045 42.3358 23.2917 39.1239 23.2917ZM12.7944 25.0122C12.7943 25.0123 12.7942 25.0124 12.7941 25.0125L12.7944 25.0122ZM12.7866 25.0193C12.7856 25.0202 12.7848 25.0209 12.7843 25.0213L12.7843 25.0212L12.7866 25.0193ZM30.888 29.2964L30.7878 29.3639L30.888 29.2964L25.2068 20.8592C24.2775 19.479 23.7343 17.8978 23.618 16.2498L32.3789 25.0107C32.3928 25.0246 32.4061 25.0366 32.4189 25.0473C32.5967 25.2071 32.8321 25.3057 33.0909 25.3057H39.1239C41.2251 25.3057 42.9347 27.0154 42.9347 29.1165V39.6111H40.7819V33.3264C40.7819 32.7703 40.331 32.3195 39.775 32.3195C39.2189 32.3195 38.768 32.7703 38.768 33.3264V39.6111H31.0597V29.8588C31.0597 29.6584 30.9999 29.4626 30.888 29.2964ZM7.71394 20.7445V19.5195C7.71394 18.115 8.85671 16.9722 10.2611 16.9722C11.6654 16.9722 12.8082 18.115 12.8082 19.5194V20.7445C12.8082 22.1489 11.6655 23.2917 10.2611 23.2917C8.85662 23.2917 7.71394 22.1489 7.71394 20.7445ZM32.3667 19.5194C32.3667 18.115 33.5095 16.9722 34.9139 16.9722C36.3182 16.9722 37.461 18.115 37.461 19.5194V20.7445C37.461 22.1489 36.3183 23.2917 34.9139 23.2917C33.5094 23.2917 32.3667 22.1489 32.3667 20.7445V19.5194Z" fill="#343636" stroke="#343636" stroke-width="0.277778"/>
<path d="M40.4862 29.1483L40.4864 29.1486C40.6736 29.3366 40.7813 29.5948 40.7813 29.8602C40.7813 30.1255 40.6736 30.3847 40.4862 30.5721V29.1483ZM40.4862 29.1483C40.2988 28.9608 40.0395 28.8533 39.7743 28.8533C39.5091 28.8533 39.2498 28.9609 39.0624 29.1483M40.4862 29.1483L39.0624 29.1483M39.0624 29.1483C38.8749 29.3358 38.7674 29.5951 38.7674 29.8602M39.0624 29.1483L38.7674 29.8602M38.7674 29.8602C38.7674 30.1254 38.8748 30.3847 39.0624 30.5722M38.7674 29.8602L39.0624 30.5722M39.0624 30.5722C39.2499 30.7596 39.5091 30.8672 39.7743 30.8672M39.0624 30.5722L39.7743 30.8672M39.7743 30.8672C40.0395 30.8672 40.2987 30.7597 40.4861 30.5722L39.7743 30.8672Z" fill="#343636" stroke="#343636" stroke-width="0.277778"/>
<path d="M14.41 33.7421C14.5975 33.5546 14.8568 33.447 15.122 33.447C15.3871 33.447 15.6464 33.5546 15.8338 33.742C15.8338 33.7421 15.8338 33.7421 15.8338 33.7421C15.8338 33.7421 15.8338 33.7421 15.8338 33.7421C16.0214 33.9296 16.1289 34.1888 16.1289 34.454C16.1289 34.7192 16.0213 34.9785 15.8338 35.1659L14.41 33.7421ZM14.41 33.7421C14.2226 33.9295 14.115 34.1888 14.115 34.454M14.41 33.7421L14.115 34.454M14.115 34.454C14.115 34.7191 14.2225 34.9784 14.4101 35.1659M14.115 34.454L14.4101 35.1659M14.4101 35.1659C14.5976 35.3534 14.8568 35.4609 15.122 35.4609M14.4101 35.1659L15.122 35.4609M15.122 35.4609C15.3871 35.4609 15.6464 35.3534 15.8338 35.1659L15.122 35.4609Z" fill="#343636" stroke="#343636" stroke-width="0.277778"/>
</svg>
