<svg width="46" height="38" viewBox="0 0 46 38" fill="none" xmlns="http://www.w3.org/2000/svg">
<path d="M15.8382 24.7917C14.8697 23.8087 13.7817 22.9438 12.5961 22.2191L3.82374 16.8565C2.66298 16.1468 1.95508 14.8844 1.95508 13.524C1.95508 11.8503 3.02148 10.3626 4.60647 9.82513L6.4234 9.20898" stroke="#343636" stroke-width="2.5" stroke-miterlimit="10" stroke-linecap="round" stroke-linejoin="round"/>
<path d="M41.13 32.645H44.6638C44.6638 34.6067 43.0735 36.1971 41.1117 36.1971H33.0761C28.3388 36.1971 23.869 34.2675 20.6367 30.9531" stroke="#343636" stroke-width="2.5" stroke-miterlimit="10" stroke-linecap="round" stroke-linejoin="round"/>
<path d="M29.111 10.2525C26.5488 11.4876 23.38 11.0426 21.2549 8.9175C19.8119 7.47453 19.1436 5.55022 19.2499 3.66142C19.2777 3.16836 19.1024 2.68564 18.7581 2.33164C18.405 1.96871 17.9117 1.77157 17.4064 1.8043C12.4993 2.12244 7.74375 5.26958 6.44922 9.25274" stroke="#343636" stroke-width="2.5" stroke-miterlimit="10" stroke-linecap="round" stroke-linejoin="round"/>
<path d="M22.7086 10.03C23.5502 8.00755 25.508 6.59071 27.8039 6.46484L32.5712 20.2242C33.3651 22.5153 35.0552 24.3858 37.2542 25.407L41.2179 27.2478C43.3202 28.2239 44.6651 30.3314 44.6651 32.6493H34.8234C29.5666 32.6493 24.643 30.0755 21.6426 25.7591C19.8528 23.1845 17.6348 20.9358 15.0849 19.1109C11.9136 16.8415 9.24492 13.9418 7.24605 10.5933L6.43945 9.2421" stroke="#343636" stroke-width="2.5" stroke-miterlimit="10" stroke-linecap="round" stroke-linejoin="round"/>
<path d="M12.078 3.27344C13.9642 5.05217 14.9798 7.69349 14.5717 10.4527C14.2401 12.6954 13.0308 14.5913 11.3438 15.8438" stroke="#343636" stroke-width="2.5" stroke-miterlimit="10" stroke-linecap="round" stroke-linejoin="round"/>
<path d="M24.9043 10.8262L28.6328 21.5874C29.1073 22.9567 29.8079 24.2303 30.6904 25.3589C32.7203 27.9548 36.5014 28.3455 39.0288 26.2308" stroke="#343636" stroke-width="2.5" stroke-miterlimit="10" stroke-linecap="round" stroke-linejoin="round"/>
<path d="M26.5664 15.3453L30.3003 13.8184" stroke="#343636" stroke-width="2.5" stroke-miterlimit="10" stroke-linecap="round" stroke-linejoin="round"/>
<path d="M27.7695 18.8515L31.4183 17.3555" stroke="#343636" stroke-width="2.5" stroke-miterlimit="10" stroke-linecap="round" stroke-linejoin="round"/>
<path d="M29.2168 22.7024L32.7027 20.9785" stroke="#343636" stroke-width="2.5" stroke-miterlimit="10" stroke-linecap="round" stroke-linejoin="round"/>
<path d="M31.4902 26.1144L34.8468 23.9473" stroke="#343636" stroke-width="2.5" stroke-miterlimit="10" stroke-linecap="round" stroke-linejoin="round"/>
<path d="M33.0761 36.2012H8.28125" stroke="#343636" stroke-width="2.5" stroke-miterlimit="10" stroke-linecap="round" stroke-linejoin="round"/>
<path d="M4.19032 31.5352H1.95508" stroke="#343636" stroke-width="2.5" stroke-miterlimit="10" stroke-linecap="round" stroke-linejoin="round"/>
<path d="M14.6604 31.5352H7.61133" stroke="#343636" stroke-width="2.5" stroke-miterlimit="10" stroke-linecap="round" stroke-linejoin="round"/>
<path d="M10.6272 26.8691H1.95508" stroke="#343636" stroke-width="2.5" stroke-miterlimit="10" stroke-linecap="round" stroke-linejoin="round"/>
</svg>
