<svg width="41" height="47" viewBox="0 0 41 47" fill="none" xmlns="http://www.w3.org/2000/svg">
<path d="M10.103 4.56958C12.6163 3.04429 15.5658 2.16602 18.7204 2.16602C27.1587 2.16602 34.8725 6.80163 34.8725 17.3034L38.7907 23.3485C39.6945 24.989 38.5078 26.9978 36.6349 26.9978H35.3907C34.9103 26.9978 34.521 27.3872 34.521 27.8675V35.41C34.521 37.601 32.7449 39.377 30.554 39.377H27.7601C26.7994 39.377 26.0206 40.1558 26.0206 41.1165V43.1315C26.0206 44.0922 25.2418 44.871 24.2811 44.871H12.2809C11.3202 44.871 10.5414 44.0922 10.5414 43.1315V34.7327C10.5414 33.8702 10.1164 33.0616 9.40235 32.5779C4.98852 29.5873 2.08789 24.5317 2.08789 18.7985C2.08789 15.5876 2.99774 12.5893 4.57365 10.0472" stroke="#343636" stroke-width="2.5" stroke-miterlimit="10" stroke-linecap="round" stroke-linejoin="round"/>
<path d="M19.7306 21.6331L19.2029 22.1608L18.6751 21.6331C14.9989 17.9569 14.9989 11.9965 18.6751 8.32033L19.0956 7.89989C19.1548 7.84066 19.2509 7.84066 19.3101 7.89989L19.7306 8.32033C23.4068 11.9966 23.4068 17.9569 19.7306 21.6331Z" stroke="#343636" stroke-width="2.5" stroke-miterlimit="10" stroke-linecap="round" stroke-linejoin="round"/>
<path d="M22.5853 14.5816C23.4962 13.7652 24.5551 13.1112 25.7159 12.6638C26.7211 12.2768 27.8017 12.0447 28.9314 11.9965C29.173 11.9861 29.3722 12.1862 29.3618 12.4287C29.2495 15.0619 28.1358 17.4365 26.3917 19.1807C24.556 21.0173 22.021 22.1546 19.2207 22.1611" stroke="#343636" stroke-width="2.5" stroke-miterlimit="10" stroke-linecap="round" stroke-linejoin="round"/>
<path d="M25.3076 20.123C26.6541 20.3156 27.9569 20.8896 29.041 21.8455C29.2304 22.0126 29.2309 22.3055 29.0414 22.4726C27.6839 23.6699 25.9829 24.2685 24.2824 24.2685C22.4411 24.2685 20.5998 23.5672 19.194 22.1638C19.1923 22.1622 19.1911 22.161 19.1895 22.1593C19.1911 22.1577 19.1923 22.1564 19.194 22.1548" stroke="#343636" stroke-width="2.5" stroke-miterlimit="10" stroke-linecap="round" stroke-linejoin="round"/>
<path d="M19.1924 22.1548C19.1941 22.1564 19.1953 22.1577 19.197 22.1593C19.1953 22.161 19.1941 22.1622 19.1924 22.1638C17.7866 23.5672 15.9453 24.2685 14.104 24.2685C12.4035 24.2685 10.7025 23.67 9.34498 22.4726C9.15555 22.3055 9.15598 22.0126 9.34542 21.8455C10.4291 20.8898 11.7319 20.3155 13.0785 20.123" stroke="#343636" stroke-width="2.5" stroke-miterlimit="10" stroke-linecap="round" stroke-linejoin="round"/>
<path d="M15.8191 14.5995C14.9036 13.7746 13.8371 13.1139 12.6677 12.6638C11.6625 12.2768 10.582 12.0447 9.45223 11.9965C9.21061 11.9861 9.01144 12.1862 9.02188 12.4287C9.13416 15.0619 10.2479 17.4365 11.992 19.1807C13.8277 21.0173 16.3627 22.1546 19.163 22.1611" stroke="#343636" stroke-width="2.5" stroke-miterlimit="10" stroke-linecap="round" stroke-linejoin="round"/>
</svg>
