<svg width="96" height="95" viewBox="0 0 96 95" fill="none" xmlns="http://www.w3.org/2000/svg">
<g clip-path="url(#clip0_471_19525)">
<path d="M94.6723 0C94.1329 0.449861 93.5936 0.896486 93.0541 1.33987C67.0516 22.6073 35.0121 35.1464 1.48149 37.1783L0.816406 37.2187L18.6167 55.019L26.7077 33.9823L46.1262 48.5462L52.599 25.8913L73.6357 40.4551L75.2539 14.5639L94.6723 24.2731V0Z" fill="#93CAE2"/>
<path d="M0.787109 51.7812C1.36481 52.1405 1.94413 52.4981 2.52668 52.8493C30.1088 69.6849 62.4149 77.1019 94.5783 73.983L95.211 73.9199L81.7249 93.8546L70.3975 74.4361L54.2154 92.2364L46.1244 71.1997L26.7059 87.3818L21.8513 63.1087L4.05103 76.0543L0.788728 51.7812" fill="#FBCC34"/>
<path d="M83.3438 56.6369C85.1313 56.6369 86.5802 55.1879 86.5802 53.4005C86.5802 51.6131 85.1313 50.1641 83.3438 50.1641C81.5564 50.1641 80.1074 51.6131 80.1074 53.4005C80.1074 55.1879 81.5564 56.6369 83.3438 56.6369Z" fill="#FBCC34"/>
<path d="M8.90633 90.6213C10.6938 90.6213 12.1427 89.1723 12.1427 87.3848C12.1427 85.5974 10.6938 84.1484 8.90633 84.1484C7.11891 84.1484 5.66992 85.5974 5.66992 87.3848C5.66992 89.1723 7.11891 90.6213 8.90633 90.6213Z" fill="#06AAE9"/>
<path d="M21.8516 14.5627C23.6391 14.5627 25.0881 13.1137 25.0881 11.3263C25.0881 9.53883 23.6391 8.08984 21.8516 8.08984C20.0642 8.08984 18.6152 9.53883 18.6152 11.3263C18.6152 13.1137 20.0642 14.5627 21.8516 14.5627Z" fill="#ED1C24"/>
<path d="M1.28906 15.7065L3.57761 13.418L6.81362 16.654L4.52507 18.9425L1.28906 15.7065Z" fill="#FBCC34"/>
<path d="M65.543 4.85547H68.7794V9.71009H65.543V4.85547Z" fill="#FF1D25"/>
<path d="M43.3633 3.70866L46.5993 0.472656L48.8878 2.7612L45.6518 5.99721L43.3633 3.70866Z" fill="#06AAE9"/>
<path d="M28.8008 24.7477L32.0368 21.5117L34.3253 23.8003L31.0893 27.0363L28.8008 24.7477Z" fill="#7AC943"/>
<path d="M85.4375 30.2729L87.726 27.9844L90.9621 31.2204L88.6735 33.5089L85.4375 30.2729Z" fill="#7AC943"/>
<path d="M57.4531 43.6914H60.6895V48.546H57.4531V43.6914Z" fill="#FF1D25"/>
<path d="M66.0195 63.5798L69.2555 60.3438L71.5441 62.6323L68.3081 65.8683L66.0195 63.5798Z" fill="#7AC943"/>
<path d="M28.8008 54.5464L31.0893 52.2578L34.3253 55.4938L32.0368 57.7824L28.8008 54.5464Z" fill="#06AAE9"/>
<path d="M39.6523 85.7656H42.8888V90.6202H39.6523V85.7656Z" fill="#7AC943"/>
<path d="M14.2266 77.1987L16.5151 74.9102L19.7511 78.1462L17.4626 80.4347L14.2266 77.1987Z" fill="#06AAE9"/>
<path d="M15.8477 92.7126L19.0837 89.4766L21.3722 91.7651L18.1362 95.0011L15.8477 92.7126Z" fill="#FF1D25"/>
<path d="M66.0195 91.0915L69.2555 87.8555L71.5441 90.144L68.3081 93.38L66.0195 91.0915Z" fill="#06AAE9"/>
</g>
<defs>
<clipPath id="clip0_471_19525">
<rect width="95" height="95" fill="white" transform="translate(0.5)"/>
</clipPath>
</defs>
</svg>
