<svg width="120" height="119" viewBox="0 0 120 119" fill="none" xmlns="http://www.w3.org/2000/svg">
<g clip-path="url(#clip0_471_19383)">
<path d="M68.8976 87.9023L62.7168 88.3293V117.518L62.7184 117.518C62.7368 117.911 62.9845 118.283 63.4712 118.564C64.5885 119.209 66.5401 119.128 67.8303 118.384C68.4939 118.001 68.8506 117.517 68.8913 117.049L68.8976 117.048V87.9023Z" fill="url(#paint0_linear_471_19383)"/>
<path d="M113.866 61.9727L107.686 62.3996V91.5888L107.687 91.5886C107.706 91.9809 107.953 92.3535 108.44 92.6344C109.557 93.2797 111.509 93.1985 112.799 92.4539C113.463 92.0708 113.819 91.5869 113.86 91.1193L113.866 91.1188V61.9727Z" fill="url(#paint1_linear_471_19383)"/>
<path d="M56.0301 3.75697L50.2607 0.423115L50.2579 0.427067C49.5097 -0.0703162 48.5052 -0.175371 47.6162 0.337817L5.75953 24.5039C3.88993 25.5833 2.73828 27.5781 2.73828 29.7369V82.0936C2.73828 83.0716 3.27587 83.8623 4.02264 84.2802L4.02195 84.2812L10.001 87.7359C10.0168 87.7452 10.0324 87.7542 10.0482 87.7631L10.083 87.7833L10.0844 87.7812L56.0273 3.76046L56.0301 3.75697Z" fill="url(#paint2_linear_471_19383)"/>
<path d="M8.76953 85.5798V33.2231C8.76953 31.0643 9.92118 29.0694 11.7908 27.9901L53.6474 3.82401C55.3187 2.859 57.4082 4.06527 57.4082 5.9953V58.3521C57.4082 60.5108 56.2566 62.5057 54.387 63.585L12.5301 87.7511C10.8588 88.7161 8.76953 87.5098 8.76953 85.5798Z" fill="url(#paint3_linear_471_19383)"/>
<path d="M113.295 72.1331L58.532 40.5154C57.4412 39.8855 56.0974 39.8855 55.0066 40.5154L9.33943 66.8815C8.95942 67.1009 8.76953 67.4847 8.76953 67.8686V80.9135C8.76953 81.2975 8.95942 81.6812 9.33943 81.9006L64.1029 113.518C65.1937 114.148 66.5375 114.148 67.6283 113.518L113.296 87.1524C113.681 86.9298 113.87 86.5379 113.865 86.1484H113.866V73.1351H113.865C113.87 72.7462 113.68 72.3553 113.295 72.1331Z" fill="url(#paint4_linear_471_19383)"/>
<path d="M64.103 100.473L9.33955 68.8556C8.57953 68.4167 8.57953 67.3199 9.33955 66.8814L55.007 40.5152C56.0977 39.8856 57.4416 39.8856 58.5323 40.5152L113.296 72.1329C114.056 72.5717 114.056 73.6685 113.296 74.1071L67.6284 100.473C66.5376 101.103 65.1938 101.103 64.103 100.473Z" fill="#D7D1EB"/>
<path d="M113.295 59.0901L58.532 27.4724C57.4412 26.8425 56.0974 26.8425 55.0066 27.4724L9.33943 53.8383C8.95942 54.0577 8.76953 54.4417 8.76953 54.8254V67.8706C8.76953 68.2545 8.95942 68.6383 9.33943 68.8577L64.1029 100.475C65.1937 101.105 66.5375 101.105 67.6283 100.475L113.296 74.1095C113.681 73.887 113.87 73.4949 113.865 73.1054H113.866V60.0921H113.865C113.87 59.7033 113.68 59.3123 113.295 59.0901Z" fill="url(#paint5_linear_471_19383)"/>
<path d="M64.103 87.4303L9.33955 55.8126C8.57953 55.3738 8.57953 54.277 9.33955 53.8384L55.007 27.4722C56.0977 26.8426 57.4416 26.8426 58.5323 27.4722L113.296 59.09C114.056 59.5288 114.056 60.6256 113.296 61.0642L67.6284 87.4301C66.5376 88.06 65.1938 88.06 64.103 87.4303Z" fill="#D7D1EB"/>
<path d="M43.2288 45.0864C43.0626 44.9423 42.8704 44.8315 42.6624 44.7594L31.8234 38.5015C31.3067 38.0436 30.5246 37.9025 29.8432 38.2958L14.8413 46.9572C13.325 47.8327 12.3906 49.4506 12.3906 51.2017C12.3906 51.8845 12.7776 52.431 13.3073 52.7071L24.5509 59.1986C25.0599 59.5461 25.7502 59.623 26.3601 59.2709L41.362 50.6095C42.8783 49.7339 43.8127 48.1158 43.8127 46.365C43.8129 45.8362 43.5793 45.39 43.2288 45.0864Z" fill="url(#paint6_linear_471_19383)"/>
<path d="M26.2614 53.5558L41.2633 44.8943C42.3966 44.2401 43.8135 45.0579 43.8135 46.3667C43.8135 48.1178 42.8794 49.7357 41.3628 50.6112L26.3607 59.2726C25.2274 59.9269 23.8105 59.109 23.8105 57.8002C23.8108 56.0494 24.7449 54.4313 26.2614 53.5558Z" fill="url(#paint7_linear_471_19383)"/>
<path d="M66.713 31.5471C66.5468 31.403 66.3546 31.2922 66.1468 31.2201L55.3078 24.9624C54.7911 24.5045 54.009 24.3634 53.3276 24.7567L38.3257 33.4181C36.8093 34.2937 35.875 35.9115 35.875 37.6626C35.875 38.3455 36.262 38.8919 36.7917 39.168L48.0353 45.6596C48.5443 46.007 49.2346 46.084 49.8445 45.7318L64.8464 37.0704C66.3629 36.1949 67.297 34.5768 67.297 32.8259C67.297 32.2972 67.0635 31.8511 66.713 31.5471Z" fill="url(#paint8_linear_471_19383)"/>
<path d="M49.7456 40.0167L64.7475 31.3553C65.8808 30.701 67.2976 31.5189 67.2976 32.8276C67.2976 34.5787 66.3635 36.1966 64.847 37.0721L49.8451 45.7336C48.7118 46.3878 47.2949 45.5699 47.2949 44.2612C47.2949 42.5103 48.229 40.8922 49.7456 40.0167Z" fill="url(#paint9_linear_471_19383)"/>
<path d="M65.4852 109.198L117.261 68.3869V67.3863C117.261 61.2385 113.981 55.5576 108.657 52.4839L77.5528 34.526C74.4525 32.7361 70.6331 32.7361 67.5328 34.526L31.2883 55.4516C26.2066 58.3855 22.9897 63.6945 22.707 69.5174L65.4852 109.198Z" fill="#E9E5F6"/>
<path d="M55.1043 79.1378L28.7911 63.946C26.9275 62.8701 24.7442 63.4563 23.5586 64.944L31.3756 89.5034C31.3754 89.5043 31.3749 89.5055 31.3747 89.5064L65.4852 109.2V97.1177C65.4849 89.7005 61.528 82.8466 55.1043 79.1378Z" fill="url(#paint10_linear_471_19383)"/>
<path d="M76.4043 79.2941L107.618 62.6074C111.984 60.2734 117.262 63.4367 117.262 68.3873V79.3071L65.4863 109.2V97.5111C65.4863 89.8895 69.6832 82.8874 76.4043 79.2941Z" fill="url(#paint11_linear_471_19383)"/>
<path d="M77.5528 34.526C74.4525 32.7361 70.6331 32.7361 67.5328 34.526L31.288 55.4519C27.5807 57.5922 24.8662 60.9975 23.5586 64.9433L33.6794 66.7676C35.165 64.1935 37.3166 62.0036 39.9794 60.4661L76.2242 39.5403C79.2964 37.7667 83.0737 37.7532 86.1586 39.4947L77.5528 34.526Z" fill="#F2EDFF"/>
<path d="M31.3755 89.5033V75.3695C31.3755 72.2967 32.195 69.3405 33.6792 66.7683L28.7907 63.946C26.9272 62.8701 24.7438 63.4565 23.5582 64.944C23.4896 65.1506 22.6836 67.2675 22.6836 70.3552V84.489L31.3755 89.5033Z" fill="#E9E5F6"/>
</g>
<defs>
<linearGradient id="paint0_linear_471_19383" x1="62.7168" y1="103.451" x2="68.8976" y2="103.451" gradientUnits="userSpaceOnUse">
<stop stop-color="#8B451C"/>
<stop offset="1" stop-color="#BF942A"/>
</linearGradient>
<linearGradient id="paint1_linear_471_19383" x1="107.686" y1="77.5214" x2="113.866" y2="77.5214" gradientUnits="userSpaceOnUse">
<stop stop-color="#8B451C"/>
<stop offset="1" stop-color="#BF942A"/>
</linearGradient>
<linearGradient id="paint2_linear_471_19383" x1="17.1842" y1="39.2906" x2="20.8307" y2="32.9745" gradientUnits="userSpaceOnUse">
<stop stop-color="#252336"/>
<stop offset="1" stop-color="#594A8E"/>
</linearGradient>
<linearGradient id="paint3_linear_471_19383" x1="33.0888" y1="62.5921" x2="33.0888" y2="25.486" gradientUnits="userSpaceOnUse">
<stop stop-color="#594A8E"/>
<stop offset="1" stop-color="#7662BD"/>
</linearGradient>
<linearGradient id="paint4_linear_471_19383" x1="62.7649" y1="77.017" x2="69.0335" y2="77.017" gradientUnits="userSpaceOnUse">
<stop stop-color="#8B451C"/>
<stop offset="1" stop-color="#BF942A"/>
</linearGradient>
<linearGradient id="paint5_linear_471_19383" x1="62.7649" y1="63.974" x2="69.0335" y2="63.974" gradientUnits="userSpaceOnUse">
<stop stop-color="#C5BAEB"/>
<stop offset="1" stop-color="#E9E5F6"/>
</linearGradient>
<linearGradient id="paint6_linear_471_19383" x1="21.6847" y1="59.8982" x2="25.5497" y2="53.204" gradientUnits="userSpaceOnUse">
<stop stop-color="#C5BAEB"/>
<stop offset="1" stop-color="#E9E5F6"/>
</linearGradient>
<linearGradient id="paint7_linear_471_19383" x1="23.8108" y1="52.0836" x2="43.8135" y2="52.0836" gradientUnits="userSpaceOnUse">
<stop stop-color="#C5BAEB"/>
<stop offset="1" stop-color="#E9E5F6"/>
</linearGradient>
<linearGradient id="paint8_linear_471_19383" x1="45.1689" y1="46.3591" x2="49.0338" y2="39.6649" gradientUnits="userSpaceOnUse">
<stop stop-color="#C5BAEB"/>
<stop offset="1" stop-color="#E9E5F6"/>
</linearGradient>
<linearGradient id="paint9_linear_471_19383" x1="47.2949" y1="38.5445" x2="67.2976" y2="38.5445" gradientUnits="userSpaceOnUse">
<stop stop-color="#C5BAEB"/>
<stop offset="1" stop-color="#E9E5F6"/>
</linearGradient>
<linearGradient id="paint10_linear_471_19383" x1="30.2763" y1="76.8378" x2="63.7952" y2="96.1901" gradientUnits="userSpaceOnUse">
<stop stop-color="#D7D1EB"/>
<stop offset="1" stop-color="#E7E3F3"/>
</linearGradient>
<linearGradient id="paint11_linear_471_19383" x1="69.487" y1="95.0825" x2="115.198" y2="68.6913" gradientUnits="userSpaceOnUse">
<stop stop-color="#D7D1EB"/>
<stop offset="1" stop-color="#E7E3F3"/>
</linearGradient>
<clipPath id="clip0_471_19383">
<rect width="119" height="119" fill="white" transform="translate(0.5)"/>
</clipPath>
</defs>
</svg>
