<svg width="120" height="119" viewBox="0 0 120 119" fill="none" xmlns="http://www.w3.org/2000/svg">
<path d="M66.6281 10.2037C66.6281 10.2037 65.9284 0.69794 76.8978 1.20726C76.8978 1.20726 81.4864 1.50238 84.1639 3.92046L66.6281 10.2037Z" fill="#653D28"/>
<path d="M25.1741 28.678L26.326 54.6843C26.6211 56.455 38.9995 60.4415 48.698 58.5899C62.2902 55.9957 68.1521 53.2682 73.976 57.5903C73.976 57.5903 85.3619 67.7362 75.0018 73.5743C67.2287 77.9512 24.4506 67.6243 22.4038 67.3459C17.946 66.7556 13.6953 63.0357 14.5498 55.5149L18.5291 26.2409C18.5291 26.2409 16.0777 16.728 21.0329 13.7744C21.0329 13.7744 22.4371 10.7518 23.0464 7.94345C23.0909 7.72513 23.1919 7.52231 23.3393 7.35526C23.4867 7.1882 23.6754 7.06275 23.8865 6.99145C24.6814 6.74155 25.5525 7.37939 23.2844 13.7792C23.2844 13.7792 26.2784 9.28815 27.5446 6.46547C27.6365 6.26445 27.7943 6.10083 27.9919 6.00165C28.1895 5.90247 28.415 5.87367 28.6311 5.92001C28.8473 5.96635 29.0411 6.08505 29.1807 6.2565C29.3202 6.42794 29.3971 6.64187 29.3986 6.86293C29.4176 8.26951 28.8012 10.6162 26.6283 14.517C26.6283 14.517 29.4843 9.89981 30.61 7.18661C30.6803 7.01609 30.8045 6.87326 30.9636 6.77995C31.1227 6.68663 31.308 6.64794 31.4912 6.66979C31.6743 6.69164 31.8453 6.77282 31.978 6.90095C32.1107 7.02908 32.1978 7.19711 32.226 7.37939C32.3998 8.72171 31.9119 11.2159 29.4367 15.8522C29.4367 15.8522 31.8881 13.7935 33.1804 11.0184C33.2474 10.8839 33.3552 10.7739 33.4884 10.7042C33.6216 10.6345 33.7734 10.6087 33.9222 10.6303C34.0709 10.6519 34.2091 10.7199 34.3169 10.8247C34.4247 10.9294 34.4968 11.0655 34.5227 11.2136C34.6988 12.5963 34.13 14.9192 30.7718 18.4583L26.5069 24.1179C25.5216 25.4265 25.0477 27.0496 25.1741 28.6828V28.678Z" fill="#FFCEAC"/>
<path d="M88.0573 41.6069C79.1965 50.7247 59.7353 45.4816 52.8904 38.8199C46.0455 32.1583 50.0034 26.4011 58.8547 17.2833C67.7059 8.16554 76.1977 2.03705 83.0521 8.69867C89.9065 15.3603 96.9204 32.4891 88.0573 41.6069Z" fill="#FFECDB"/>
<path d="M65.1156 15.2291C65.1156 15.2291 63.5115 14.0557 59.1156 14.0391C58.6273 14.0448 58.1598 14.238 57.8099 14.5786C57.46 14.9192 57.2543 15.3813 57.2354 15.8693C57.18 16.6614 57.3386 17.4539 57.6948 18.1636L59.1989 21.4052L65.1156 15.2291Z" fill="#FFECDB"/>
<path d="M58.9336 41.4779C58.9336 41.4779 64.3219 53.635 62.5417 60.7274L78.7876 59.2042C78.7876 59.2042 72.4901 43.5247 75.2985 37.3867L58.9336 41.4779Z" fill="#FFECDB"/>
<path d="M78.7884 59.2031C78.7884 59.2031 69.454 61.0024 58.9344 64.094C58.9344 64.094 43.8095 80.6541 48.5029 89.0364C48.5029 89.0364 54.9788 101.762 55.8999 117.808H82.1608C82.1608 117.808 83.6293 117.347 84.7788 102.272C85.7641 89.3577 90.8193 77.4577 78.7884 59.2031Z" fill="#FFE2CC"/>
<path d="M82.9762 66.7183C82.9762 66.7183 73.2872 56.927 64.1956 61.4418C64.1956 61.4418 64.2456 82.5215 81.1555 86.3771C83.8783 86.9983 85.8846 86.3033 86.67 82.5048C86.67 82.5048 87.146 85.2513 85.1658 98.5032C85.1658 98.5032 61.4158 95.7424 52.586 100.426C52.586 100.426 51.4626 97.5393 49.968 93.617C48.4734 89.6948 45.7649 84.7254 46.7431 80.5889C46.7431 80.5889 54.3067 65.6092 61.4658 61.0943C61.4658 61.0943 75.8529 56.0559 77.9996 57.0888C77.9996 57.0888 82.8763 65.3498 82.9762 66.7183Z" fill="#47C0EA"/>
<path d="M78.7883 4.12518C78.7883 4.12518 70.0989 4.78444 70.8176 13.3691C70.8176 13.3691 72.0695 26.3353 77.6363 32.2473C77.6363 32.2473 73.7784 41.515 75.2278 47.2841C75.2278 47.2841 101.927 46.8081 102.274 26.2854C102.274 26.2854 102.274 1.06212 78.7883 4.12518Z" fill="#653D28"/>
<path d="M79.4143 33.387C81.9804 32.9145 83.7632 30.9163 83.3964 28.9239C83.0295 26.9315 80.6519 25.6993 78.0858 26.1718C75.5197 26.6443 73.7369 28.6425 74.1037 30.6349C74.4706 32.6273 76.8482 33.8595 79.4143 33.387Z" fill="#FFECDB"/>
<path d="M99.5089 22.4483C99.5089 22.4483 116.347 21.6891 111.078 44.2967C109.917 49.2947 107.953 55.0519 110.421 63.0702C117.047 83.8856 101.377 83.0265 101.377 83.0265C101.377 83.0265 107.613 73.0495 102.279 65.5644C95.8937 56.6132 93.1472 42.9782 99.5089 22.4483Z" fill="#653D28"/>
<path d="M67.0802 21.2389C67.0382 21.2384 66.9966 21.232 66.9564 21.2199C65.3785 20.7272 64.3384 19.9228 63.8624 18.8399C63.2103 17.3167 63.9291 15.822 63.96 15.7602C63.9838 15.7119 64.0168 15.6687 64.0572 15.6332C64.0976 15.5977 64.1447 15.5705 64.1956 15.5531C64.2465 15.5358 64.3004 15.5286 64.3541 15.5321C64.4078 15.5356 64.4603 15.5496 64.5086 15.5733C64.5569 15.5971 64.6 15.6301 64.6355 15.6705C64.6711 15.711 64.6983 15.758 64.7156 15.8089C64.733 15.8599 64.7401 15.9137 64.7366 15.9674C64.7332 16.0211 64.7192 16.0736 64.6954 16.1219C64.6954 16.1386 64.1147 17.3548 64.6193 18.5233C64.9929 19.3849 65.8569 20.0323 67.192 20.4488C67.287 20.4767 67.3686 20.538 67.4218 20.6215C67.475 20.705 67.4961 20.8049 67.4813 20.9028C67.4665 21.0006 67.4168 21.0898 67.3413 21.1538C67.2658 21.2178 67.1696 21.2523 67.0707 21.2508L67.0802 21.2389Z" fill="#40220F"/>
<path d="M55.2343 25.5805C56.0845 24.2821 56.3978 22.9833 55.9341 22.6797C55.4703 22.3761 54.4052 23.1825 53.555 24.481C52.7048 25.7794 52.3916 27.0782 52.8553 27.3818C53.319 27.6854 54.3842 26.879 55.2343 25.5805Z" fill="#C30D23"/>
<path d="M53.929 21.8664L51.7013 21.0382L51.7275 19.0104C51.7459 17.8232 51.3961 16.6595 50.7261 15.6793C50.0561 14.699 49.0989 13.9504 47.9861 13.5364L44.716 12.3202C44.2158 12.1345 43.6751 12.0859 43.1499 12.1797C42.6246 12.2734 42.1341 12.506 41.7291 12.8534L41.522 13.0319C41.1919 13.3123 40.7915 13.4974 40.3639 13.567C39.9364 13.6367 39.4979 13.5884 39.0958 13.4272C38.6937 13.2661 38.3432 12.9983 38.0821 12.6526C37.821 12.307 37.6592 11.8966 37.6141 11.4658C37.559 10.9096 37.349 10.38 37.0077 9.93738C36.6665 9.49473 36.2078 9.15679 35.6839 8.96206L17.1818 2.09337C16.5006 1.83995 15.7761 1.7232 15.0498 1.7498C14.3235 1.7764 13.6096 1.94582 12.9487 2.24838C12.2879 2.55095 11.6932 2.98073 11.1985 3.51319C10.7038 4.04564 10.3188 4.67034 10.0656 5.3516L8.25676 10.2163C7.7456 11.5921 7.80168 13.1145 8.41266 14.4489C9.02364 15.7834 10.1395 16.8206 11.515 17.3325L30.1766 24.275C30.6615 24.4541 31.1846 24.5044 31.6947 24.421C32.2049 24.3375 32.6847 24.1232 33.0873 23.799L33.2372 23.6776C33.5586 23.4253 33.9395 23.2599 34.3433 23.1975C34.7471 23.1351 35.1601 23.1776 35.5427 23.3211C35.9252 23.4645 36.2644 23.7041 36.5276 24.0166C36.7908 24.3292 36.969 24.7042 37.0452 25.1056L37.0809 25.2984C37.1756 25.8072 37.4009 26.2826 37.7347 26.6782C38.0685 27.0737 38.4993 27.3757 38.9849 27.5546L42.3169 28.7922C43.428 29.2058 44.6398 29.2654 45.7861 28.9629C46.9324 28.6603 47.9569 28.0104 48.7191 27.1024L50.0234 25.5483L52.2534 26.3765C52.2534 26.3765 53.0912 26.1837 53.7647 24.3749C54.4383 22.5661 53.929 21.8664 53.929 21.8664Z" fill="#D8EEF5"/>
<path d="M20.9688 19.7345L31.0123 23.6044C31.0123 23.6044 36.0104 21.917 37.4812 23.2141C37.4812 23.2141 37.7192 26.1891 39.1757 26.7079L43.6168 28.036C44.1697 28.2052 44.7596 28.2119 45.3162 28.055C46.3967 27.7432 48.1293 26.9007 49.5168 24.6231L52.1801 25.5751L52.2134 25.5251C52.8225 24.6033 53.2364 23.5665 53.4296 22.4787C53.4296 22.4787 51.973 22.0598 50.3974 21.4124C51.5065 17.9733 50.576 14.8722 46.9012 14.8555C44.4784 14.8436 44.476 16.4049 42.4435 16.8666C40.6894 17.2665 38.1143 16.3216 35.7795 17.2808C33.3305 18.2875 32.0429 20.6437 27.6875 20.2867L20.9688 19.7345Z" fill="#98D6F6"/>
<path d="M29.9642 32.7132L31.1161 58.7194C31.4112 60.4925 43.7872 64.479 53.4881 62.625C67.0826 60.0308 72.9446 57.3033 78.7661 61.6254C78.7661 61.6254 90.1544 71.7737 79.7918 77.6095C72.0188 81.9863 29.2597 71.4477 27.1938 71.381C23.4715 71.262 19.3398 67.1827 19.3398 59.55L23.3168 30.276C23.3168 30.276 20.8678 20.7632 25.8206 17.8096C25.8206 17.8096 27.2248 14.787 27.8364 11.9786C27.8812 11.7607 27.982 11.5583 28.1289 11.3914C28.2758 11.2244 28.4638 11.0987 28.6742 11.0266C29.4691 10.7767 30.3402 11.4145 28.0721 17.8144C28.0721 17.8144 31.0661 13.3257 32.3346 10.5006C32.4266 10.2996 32.5844 10.136 32.782 10.0368C32.9796 9.93763 33.205 9.90883 33.4212 9.95517C33.6373 10.0015 33.8312 10.1202 33.9708 10.2917C34.1103 10.4631 34.1872 10.677 34.1887 10.8981C34.2077 12.307 33.5889 14.6513 31.416 18.5522C31.416 18.5522 34.272 13.935 35.4001 11.2241C35.4702 11.0536 35.5942 10.9108 35.7531 10.8173C35.9121 10.7239 36.0972 10.685 36.2803 10.7065C36.4634 10.7281 36.6344 10.809 36.7673 10.9368C36.9001 11.0646 36.9875 11.2324 37.0161 11.4145C37.1875 12.7569 36.7019 15.2511 34.2244 19.8897C34.2244 19.8897 36.6758 17.8286 37.9681 15.0536C38.0349 14.918 38.1429 14.8072 38.2766 14.7369C38.4104 14.6667 38.5629 14.6407 38.7124 14.6626C38.8619 14.6846 39.0005 14.7534 39.1084 14.8591C39.2163 14.9649 39.2878 15.1021 39.3128 15.2511C39.4889 16.6315 38.9177 18.9544 35.5619 22.4958L31.297 28.1483C30.3109 29.4565 29.8369 31.0799 29.9642 32.7132Z" fill="#FFE2CC"/>
<path d="M72.4387 17.3332H72.3864C72.2788 17.3195 72.181 17.2638 72.1145 17.1781C72.0481 17.0924 72.0183 16.9838 72.0317 16.8762C72.2436 15.1936 71.9889 13.887 71.2725 12.9945C70.764 12.3725 70.0435 11.9606 69.2495 11.8378C69.1417 11.8275 69.0423 11.7749 68.9731 11.6915C68.9039 11.6081 68.8707 11.5006 68.8806 11.3927C68.8848 11.3391 68.8996 11.2868 68.9243 11.239C68.9489 11.1911 68.9828 11.1487 69.024 11.1141C69.0652 11.0796 69.1129 11.0536 69.1643 11.0376C69.2157 11.0217 69.2698 11.0162 69.3233 11.0214C70.3346 11.157 71.2563 11.6727 71.9009 12.4637C72.7672 13.5371 73.0909 15.0532 72.8529 16.9738C72.84 17.0741 72.7907 17.1662 72.7143 17.2325C72.6379 17.2988 72.5398 17.3346 72.4387 17.3332Z" fill="#40220F"/>
<path d="M85.0879 8.84375C85.0879 8.84375 92.4659 15.3626 97.7186 12.716C97.7186 12.716 99.6083 15.265 100.389 17.952C100.389 17.9449 89.1172 17.1214 85.0879 8.84375Z" fill="#86421C"/>
</svg>
