<svg width="119" height="119" viewBox="0 0 119 119" fill="none" xmlns="http://www.w3.org/2000/svg">
<path d="M26.7691 6.6649C26.7691 6.6649 53.8345 11.9723 79.2267 4.4396C79.2267 4.4396 88.6182 -0.965384 95.6796 2.16908C98.7165 3.51616 100.678 6.5459 100.818 9.866C100.956 12.9172 100.718 17.8152 98.7593 23.6914C98.7593 23.6914 95.9676 32.3427 100.851 44.3403C100.851 44.3403 106.014 63.316 82.016 62.4783C82.016 62.4783 58.0185 59.4628 31.798 62.5045C31.798 62.5045 11.9869 66.6623 13.3816 44.0618C13.3745 44.0618 -5.89879 5.30354 26.7691 6.6649Z" fill="#C8E6F0"/>
<path d="M78.1046 62.0766C76.7432 52.1615 74.1157 30.8319 75.8698 25.3151C75.8698 25.3151 79.1756 17.5206 78.1927 4.73047C61.4708 9.45715 44.2063 8.75029 34.5435 7.74593C32.5609 12.425 30.7355 20.3599 32.9941 31.9981C32.9941 31.9981 34.2579 44.4455 34.7791 52.0306C34.7791 52.0306 34.0127 57.2666 35.2384 62.1408C53.8 60.3368 70.7242 61.4054 78.1046 62.0766Z" fill="#AAD6DC"/>
<path d="M49.9089 66.6044C49.9089 66.6044 39.8534 66.2855 38.1279 72.3664C38.1279 72.3664 36.995 81.1724 30.5762 82.6837L54.5237 87.4437L68.7085 73.9372L49.9089 66.6044Z" fill="#B896E4"/>
<path d="M36.551 34.6866C36.551 34.6866 28.9707 28.927 36.5962 21.0587C36.5962 21.0587 39.852 17.8195 43.4316 17.4102L36.551 34.6866Z" fill="#40220F"/>
<path d="M74.2311 39.4036C73.2648 26.7396 55.8027 20.6682 46.2827 21.3941C37.8766 22.0367 36.1011 30.2239 36.4652 40.8506C35.7449 41.4637 35.0689 42.127 34.4422 42.8355C34.4422 42.8355 33.3046 44.0827 34.5708 45.4535C35.1274 46.0176 35.8252 46.422 36.5914 46.6245L36.8294 46.6983C37.8242 58.3841 39.752 64.5887 48.8865 63.8914C58.4136 63.1631 75.2069 52.0676 74.2311 39.4036Z" fill="#FCE3C7"/>
<path d="M40.0383 21.5634C40.0383 21.5634 35.6257 27.3945 40.2096 32.3234C40.9335 33.0816 41.8139 33.6728 42.7895 34.0561C45.7479 35.2675 53.5924 39.1302 52.6213 45.7395C52.6213 45.7395 64.7213 50.0235 69.9953 52.7605C69.9953 52.7605 87.2956 32.4615 72.154 18.6289C72.1588 18.6289 53.2734 1.95225 40.0383 21.5634Z" fill="#40220F"/>
<path d="M42.2525 42.6164C41.8904 42.6172 41.5304 42.5601 41.1863 42.4474C39.6131 41.931 38.9705 40.403 38.9443 40.3387C38.9225 40.2888 38.9109 40.235 38.9102 40.1806C38.9095 40.1261 38.9196 40.072 38.94 40.0215C38.9604 39.971 38.9907 39.9251 39.0291 39.8865C39.0675 39.8478 39.1132 39.8172 39.1636 39.7965C39.214 39.7757 39.268 39.7652 39.3224 39.7656C39.3769 39.766 39.4308 39.7773 39.4808 39.7987C39.5309 39.8202 39.5762 39.8514 39.614 39.8906C39.6518 39.9298 39.6815 39.9762 39.7012 40.027C39.7012 40.027 40.2367 41.2765 41.4505 41.6715C42.3406 41.9619 43.3973 41.7429 44.5921 41.0194C44.6846 40.9687 44.7932 40.9556 44.8951 40.983C44.997 41.0104 45.0845 41.076 45.1391 41.1663C45.1938 41.2566 45.2115 41.3645 45.1885 41.4675C45.1655 41.5705 45.1036 41.6607 45.0157 41.7191C44.0304 42.3165 43.1046 42.6164 42.2525 42.6164Z" fill="#40220F"/>
<path d="M45.4215 35.19C45.3633 35.1897 45.3058 35.1771 45.2528 35.1529C45.1999 35.1287 45.1527 35.0934 45.1145 35.0495C43.9959 33.7786 42.8487 33.1051 41.7087 33.0503C40.9069 33.0129 40.1205 33.2798 39.5072 33.7977C39.4277 33.8712 39.3224 33.9104 39.2141 33.9069C39.1059 33.9033 39.0034 33.8572 38.9288 33.7786C38.8919 33.7399 38.863 33.6943 38.8437 33.6443C38.8244 33.5944 38.8152 33.5412 38.8165 33.4877C38.8179 33.4342 38.8297 33.3815 38.8514 33.3326C38.8732 33.2837 38.9043 33.2395 38.9431 33.2027C39.7121 32.5295 40.7116 32.1798 41.7325 32.2269C43.1105 32.2864 44.4552 33.0527 45.7309 34.5045C45.7666 34.5448 45.7939 34.5917 45.8115 34.6426C45.829 34.6935 45.8363 34.7474 45.833 34.8011C45.8297 34.8548 45.8158 34.9073 45.7921 34.9557C45.7685 35.004 45.7355 35.0473 45.6952 35.0829C45.6199 35.1504 45.5227 35.1885 45.4215 35.19Z" fill="#40220F"/>
<path d="M24.4583 50.895C24.4583 50.895 15.9165 70.1492 36.9938 81.1709L23.8181 84.2102C23.8181 84.2102 8.36001 68.6283 17.3516 51.2829C18.5153 49.0872 19.516 46.8089 20.3457 44.4666C20.9407 42.7173 22.2497 40.4991 25.089 38.4856C25.089 38.4856 26.9264 37.0957 27.3238 38.5713C27.3238 38.5713 25.2366 40.3563 25.2175 40.918C25.2175 40.918 27.8355 37.843 31.327 37.6169C31.4365 37.6064 31.5471 37.6187 31.6516 37.6529C31.7562 37.6872 31.8525 37.7428 31.9346 37.8161C32.0166 37.8894 32.0826 37.9789 32.1284 38.079C32.1741 38.1791 32.1987 38.2876 32.2005 38.3976C32.1814 38.8403 31.7816 39.3686 30.256 39.7209C30.256 39.7209 27.7713 40.9942 26.7622 42.1461C26.7622 42.1461 30.7939 39.0521 33.3595 39.0521C33.5209 39.0514 33.676 39.1146 33.7911 39.2279C33.9061 39.3411 33.9717 39.4952 33.9736 39.6566C33.9736 40.1159 33.6404 40.799 32.0981 41.5035C32.0981 41.5035 28.3068 43.3742 27.7023 44.2024C27.7023 44.2024 31.703 41.9604 33.3 42.1984C33.3 42.1984 34.4591 43.6026 31.4984 44.6808C31.4984 44.6808 28.5353 45.7565 27.5499 46.6229C27.5499 46.6229 27.1691 47.5058 30.3821 45.9089C30.5702 45.8692 30.7662 45.9056 30.9276 46.0099C31.089 46.1142 31.2026 46.2781 31.2437 46.4658C31.2825 46.6631 31.2627 46.8675 31.1865 47.0536C31.1104 47.2397 30.9813 47.3995 30.8153 47.513C29.5862 48.3805 28.2441 49.0756 26.8264 49.5788L24.4583 50.895Z" fill="#FBD8C3"/>
<path d="M12.033 74.7097C17.4927 75.7545 32.7913 77.3705 42.0638 74.0599C42.0638 74.0599 84.4278 54.3059 107.202 75.5688C109.82 78.0179 111.07 81.3998 110.622 84.7652C110.294 87.257 109.518 90.2106 107.785 92.6525C106.341 94.63 105.155 96.7839 104.256 99.0618C101.968 105.078 99.0077 110.219 102.754 117.811H12.2043C12.2043 117.811 16.8834 109.258 12.2043 101.735C12.2043 101.735 5.12384 89.2824 8.15834 76.9088C8.54628 75.3523 10.2861 74.3765 12.033 74.7097Z" fill="#C8E6F0"/>
<path d="M39.6197 54.0877C39.8379 54.0877 40.0148 53.6711 40.0148 53.1571C40.0148 52.6432 39.8379 52.2266 39.6197 52.2266C39.4015 52.2266 39.2246 52.6432 39.2246 53.1571C39.2246 53.6711 39.4015 54.0877 39.6197 54.0877Z" fill="#F4B3C5"/>
<path d="M102.401 103.813C103.13 101.335 104.111 98.9374 105.329 96.6591C105.548 96.2284 105.781 95.8047 106.024 95.3858L106.107 95.2383C106.107 95.2383 76.9305 105.165 57.1194 106.75C57.1194 106.75 23.9612 107.464 13.6487 113.986C13.3139 115.31 12.8351 116.593 12.2207 117.813H102.754C102.622 117.577 102.507 117.333 102.408 117.082C100.095 111.894 100.926 107.848 102.401 103.813Z" fill="#AAD6DC"/>
<path d="M107.201 75.5672C89.8914 59.4236 61.2885 66.9373 48.5508 71.4807C52.4033 72.8901 55.7713 75.3736 58.2564 78.6374C58.2564 78.6374 76.2064 95.2807 109.093 77.8448C108.564 77.0065 107.928 76.2409 107.201 75.5672Z" fill="#BDDCE6"/>
<path d="M55.3465 12.0217C55.3465 12.0217 75.7455 10.2628 82.2262 35.9169C82.2262 35.9169 83.4424 44.8181 92.753 46.5483C95.699 47.0589 98.5119 48.1581 101.023 49.7804C106.331 53.3004 113.421 59.8859 111.162 69.0084C110.06 73.4471 106.997 77.1361 102.944 79.259C94.4356 83.7168 74.9387 91.2566 60.7777 76.2864C53.3997 68.4967 42.8229 72.6046 49.0847 58.4935C55.3465 44.3825 55.3465 12.0217 55.3465 12.0217Z" fill="#40220F"/>
<path d="M51.498 20.9997C51.498 20.9997 62.9887 23.7986 68.9863 16.8633C68.9863 16.8633 71.7042 18.8101 73.5773 21.3115C73.5773 21.3115 58.9831 28.0826 51.498 20.9997Z" fill="#6A3906"/>
</svg>
