<svg width="108" height="107" viewBox="0 0 108 107" fill="none" xmlns="http://www.w3.org/2000/svg">
<g clip-path="url(#clip0_471_19496)">
<path d="M22.9059 106.805C20.3957 106.062 18.9629 103.425 19.7059 100.915L23.9687 86.5117L33.0589 89.2022L28.7961 103.605C28.0531 106.115 25.416 107.548 22.9059 106.805Z" fill="#E19974"/>
<path d="M75.4519 106.805C77.962 106.062 79.3948 103.425 78.6519 100.915L74.389 86.5117L65.2988 89.2022L69.5617 103.605C70.3046 106.115 72.9418 107.548 75.4519 106.805Z" fill="#E19974"/>
<path d="M33.0567 89.2023L28.7941 103.606C28.0518 106.115 25.4131 107.548 22.9032 106.804C22.5664 106.705 22.251 106.572 21.9551 106.407C23.0063 105.826 23.8366 104.847 24.2033 103.606L29.0344 88.0117L33.0567 89.2023Z" fill="#DC8758"/>
<path d="M75.4498 106.804C74.1819 107.179 72.882 107.001 71.8093 106.407C73.7165 105.358 74.7054 103.088 74.0596 100.915L70.166 87.7602L74.3879 86.5117L78.6506 100.915C79.3927 103.425 77.9618 106.061 75.4498 106.804Z" fill="#DC8758"/>
<path d="M49.1778 100.508C74.2691 100.508 94.6096 80.1675 94.6096 55.0763C94.6096 29.985 74.2691 9.64453 49.1778 9.64453C24.0866 9.64453 3.74609 29.985 3.74609 55.0763C3.74609 80.1675 24.0866 100.508 49.1778 100.508Z" fill="#FE646F"/>
<path d="M94.6084 55.0756C94.6084 80.1663 74.2694 100.508 49.1764 100.508C38.6883 100.508 29.0326 96.955 21.3418 90.9847C28.125 95.0156 36.0497 97.3303 44.5125 97.3303C69.6032 97.3303 89.9445 76.9891 89.9445 51.8984C89.9445 37.2894 83.0496 24.2914 72.3342 15.9805C85.6714 23.8987 94.6084 38.4434 94.6084 55.0756Z" fill="#FD4755"/>
<path d="M49.1775 91.1676C69.1104 91.1676 85.2691 75.0088 85.2691 55.076C85.2691 35.1431 69.1104 18.9844 49.1775 18.9844C29.2447 18.9844 13.0859 35.1431 13.0859 55.076C13.0859 75.0088 29.2447 91.1676 49.1775 91.1676Z" fill="#F9F8F9"/>
<path d="M85.2684 55.0735C85.2684 75.007 69.1104 91.1651 49.1768 91.1651C43.9704 91.1651 39.0233 90.0625 34.5527 88.0802C37.8371 89.0627 41.3167 89.5906 44.9207 89.5906C64.8521 89.5906 81.0123 73.4325 81.0123 53.499C81.0123 38.7718 72.191 26.1043 59.5448 20.4922C74.4242 24.9477 85.2684 38.7459 85.2684 55.0735Z" fill="#EFEDEF"/>
<path d="M49.1772 82.1161C64.1113 82.1161 76.2177 70.0097 76.2177 55.0756C76.2177 40.1416 64.1113 28.0352 49.1772 28.0352C34.2432 28.0352 22.1367 40.1416 22.1367 55.0756C22.1367 70.0097 34.2432 82.1161 49.1772 82.1161Z" fill="#FE646F"/>
<path d="M76.2176 55.0744C76.2176 70.0097 64.1119 82.1151 49.1766 82.1151C44.1483 82.1151 39.4394 80.742 35.4062 78.3502C38.2808 79.3908 41.3828 79.9592 44.6158 79.9592C59.5508 79.9592 71.6567 67.8536 71.6567 52.9183C71.6567 43.0158 66.3322 34.3555 58.3906 29.6445C68.7886 33.4117 76.2176 43.3763 76.2176 55.0744Z" fill="#FD4755"/>
<path d="M49.1788 72.4903C58.7968 72.4903 66.5938 64.6933 66.5938 55.0752C66.5938 45.4572 58.7968 37.6602 49.1788 37.6602C39.5607 37.6602 31.7637 45.4572 31.7637 55.0752C31.7637 64.6933 39.5607 72.4903 49.1788 72.4903Z" fill="#F9F8F9"/>
<path d="M66.5919 55.0739C66.5919 64.6932 58.7962 72.4889 49.1768 72.4889C45.5599 72.4889 42.2005 71.3863 39.416 69.5007C41.1065 70.0478 42.9107 70.3437 44.7857 70.3437C54.4027 70.3437 62.2007 62.548 62.2007 52.9286C62.2007 46.9262 59.1632 41.6318 54.5423 38.5039C61.5355 40.7628 66.5919 47.3295 66.5919 55.0739Z" fill="#EFEDEF"/>
<path d="M49.1784 62.931C53.5172 62.931 57.0345 59.4137 57.0345 55.0749C57.0345 50.7361 53.5172 47.2188 49.1784 47.2188C44.8396 47.2188 41.3223 50.7361 41.3223 55.0749C41.3223 59.4137 44.8396 62.931 49.1784 62.931Z" fill="#FE646F"/>
<path d="M57.0327 55.0756C57.0327 59.4153 53.5165 62.9315 49.1767 62.9315C47.3855 62.9315 45.7335 62.3309 44.4121 61.3225C44.6545 61.3461 44.899 61.3568 45.1479 61.3568C49.4856 61.3568 53.0039 57.8408 53.0039 53.5009C53.0039 50.9544 51.7918 48.689 49.9126 47.2539C53.9071 47.6251 57.0327 50.9866 57.0327 55.0756Z" fill="#FD4755"/>
<path d="M49.1772 56.6843C48.7655 56.6843 48.3536 56.5272 48.0395 56.2131C47.4113 55.5849 47.4113 54.5661 48.0395 53.9377L90.8888 11.0883C91.5172 10.4601 92.5358 10.4601 93.1645 11.0883C93.7927 11.7165 93.7927 12.7353 93.1645 13.3638L50.3149 56.2131C50.0006 56.5272 49.5887 56.6843 49.1772 56.6843Z" fill="#8B8089"/>
<path d="M93.5839 10.6684L92.3296 0.751206C92.2401 0.0435852 91.3762 -0.252128 90.8719 0.252361L75.6848 15.4395C75.4844 15.6399 75.396 15.9264 75.4484 16.2048L77.4451 26.8072L93.5839 10.6684Z" fill="#FEE97D"/>
<path d="M93.5854 10.6679L77.4445 26.8066L76.4922 21.7416L92.9096 5.32422L93.5854 10.6679Z" fill="#FEDF30"/>
<path d="M93.5843 10.668L103.501 11.9223C104.209 12.0117 104.505 12.8757 104 13.38L88.813 28.5671C88.6126 28.7675 88.3261 28.8559 88.0477 28.8034L77.4453 26.8068L93.5843 10.668Z" fill="#FEDF30"/>
<path d="M104 13.3787L88.814 28.567C88.6124 28.7666 88.3271 28.8544 88.0481 28.803L83.3242 27.9127L99.2741 11.9628C99.4329 11.804 99.5121 11.6111 99.5251 11.418L103.5 11.922C104.208 12.0121 104.504 12.8746 104 13.3787Z" fill="#FED402"/>
</g>
<defs>
<clipPath id="clip0_471_19496">
<rect width="107" height="107" fill="white" transform="translate(0.5)"/>
</clipPath>
</defs>
</svg>
