<svg width="96" height="95" viewBox="0 0 96 95" fill="none" xmlns="http://www.w3.org/2000/svg">
<g clip-path="url(#clip0_471_19349)">
<path d="M84.3878 88.0336C88.1899 88.0336 90.8063 84.1737 89.3525 80.6605C88.037 77.4816 86.062 75.1643 88.473 69.7608C92.7334 60.2127 90.4402 55.149 86.6706 49.0185C80.2802 38.6256 84.9523 33.3175 82.4674 24.3144C73.5198 -8.10378 22.4809 -8.10582 13.5325 24.3144C11.0475 33.3175 15.7197 38.6255 9.3293 49.0185C5.55973 55.149 3.26655 60.2127 7.52689 69.7608C9.93789 75.1643 7.96293 77.4818 6.6474 80.6605C5.19364 84.1737 7.81004 88.0336 11.6121 88.0336H84.3878Z" fill="#735351"/>
<path d="M88.4738 69.7607C92.7341 60.2126 90.4409 55.1489 86.6714 49.0184C80.281 38.6254 84.953 33.3174 82.4682 24.3143C77.7087 7.07107 61.041 -1.00115 45.1328 0.0989585C59.1331 1.06696 72.5451 9.13899 76.7337 24.3143C79.2187 33.3174 74.5464 38.6254 80.9369 49.0184C84.7064 55.1489 86.9996 60.2126 82.7393 69.7607C80.3283 75.1642 82.3032 77.4817 83.6188 80.6604C85.0725 84.1736 82.4561 88.0335 78.6541 88.0335H84.3884C88.1904 88.0335 90.8068 84.1734 89.3531 80.6604C88.0377 77.4815 86.0628 75.164 88.4738 69.7607Z" fill="#664442"/>
<path d="M74.0397 56.1257C77.2469 56.1257 79.8469 53.5136 79.8469 50.2914C79.8469 47.0692 77.2469 44.457 74.0397 44.457C70.8324 44.457 68.2324 47.0692 68.2324 50.2914C68.2324 53.5136 70.8324 56.1257 74.0397 56.1257Z" fill="#FFD8BA"/>
<path d="M21.9615 56.1257C25.1688 56.1257 27.7688 53.5136 27.7688 50.2914C27.7688 47.0692 25.1688 44.457 21.9615 44.457C18.7543 44.457 16.1543 47.0692 16.1543 50.2914C16.1543 53.5136 18.7543 56.1257 21.9615 56.1257Z" fill="#FFD8BA"/>
<path d="M21.1953 94.9988V90.6866C21.1953 75.9049 33.1783 63.9219 47.9601 63.9219H48.0415C62.8233 63.9219 74.8063 75.9049 74.8063 90.6866V94.9988H21.1953Z" fill="#FF80B3"/>
<path d="M48.0407 63.9219H47.9592C47.0046 63.9219 46.0617 63.972 45.1328 64.0696C58.5859 65.4816 69.0711 76.8597 69.0711 90.6866V94.9988H74.8055V90.6866C74.8055 75.9049 62.8225 63.9219 48.0407 63.9219Z" fill="#FF6BA7"/>
<path d="M48.0117 84.3338H47.9911C44.2412 84.3338 41.2012 81.2938 41.2012 77.5439V66.5547H54.8014V77.5439C54.8014 81.2938 51.7616 84.3338 48.0117 84.3338Z" fill="#FFD8BA"/>
<path d="M34.1471 18.6358C33.2874 27.381 28.8469 28.3553 26.1049 29.3064C24.7901 29.7625 23.9121 31.0098 23.9121 32.4071V48.9423C23.9121 62.3073 34.6963 73.1415 47.9994 73.1415C61.3024 73.1415 72.0866 62.3071 72.0866 48.9423V33.5594C72.0866 31.697 70.5473 30.2231 68.6942 30.2776C65.7941 30.3628 60.9784 30.3847 57.2475 26.6906C52.4913 21.9816 49.7404 23.6582 44.7767 23.5448C38.5711 23.4031 36.0031 20.5119 34.9622 18.48C34.7638 18.0927 34.1897 18.2024 34.1471 18.6358Z" fill="#FFD8BA"/>
<path d="M31.0601 37.8582C30.6354 37.8582 30.2151 37.6708 29.9327 37.3117C29.4444 36.6909 29.5481 35.794 30.1671 35.3036C30.283 35.2117 33.0449 33.0547 36.633 32.9692C37.4262 32.9495 38.0816 33.5769 38.1003 34.3682C38.1192 35.1598 37.4926 35.8168 36.7013 35.8355C34.0949 35.8977 31.965 37.5372 31.9437 37.5539C31.6813 37.7587 31.3696 37.8582 31.0601 37.8582Z" fill="#735351"/>
<path d="M64.9429 37.8607C64.6323 37.8607 64.3196 37.7601 64.0567 37.5532C64.0083 37.5159 61.8893 35.8972 59.2998 35.8354C58.5083 35.8165 57.8819 35.1597 57.9008 34.3681C57.9197 33.5766 58.5782 32.952 59.3681 32.9691C62.9562 33.0546 65.7181 35.2116 65.834 35.3035C66.4545 35.7952 66.559 36.6969 66.0673 37.3174C65.7843 37.6744 65.3655 37.8607 64.9429 37.8607Z" fill="#735351"/>
<path d="M63.1157 49.7616C62.8146 49.7616 62.511 49.6671 62.2524 49.4716C58.7357 46.8136 53.7055 48.6004 53.6547 48.6186C53.1116 48.8166 52.5009 48.6683 52.1087 48.242C51.7168 47.8156 51.6198 47.1955 51.863 46.6698C51.9482 46.4858 54.01 42.1529 59.2671 41.6322C60.0562 41.5534 60.757 42.1297 60.8352 42.9175C60.9133 43.7053 60.3377 44.4074 59.5497 44.4854C58.6487 44.5746 57.8833 44.8249 57.2413 45.1519C59.3337 45.1235 61.8169 45.5482 63.9811 47.1842C64.6127 47.6616 64.7376 48.5607 64.2603 49.1923C63.9787 49.5651 63.5497 49.7616 63.1157 49.7616Z" fill="#F0B07F"/>
<path d="M32.8859 49.7616C32.4519 49.7616 32.0229 49.5653 31.7411 49.1923C31.2639 48.5607 31.3887 47.6618 32.0203 47.1842C34.1838 45.5489 36.6644 45.1231 38.7598 45.1519C38.1178 44.8249 37.3524 44.5746 36.4518 44.4854C35.6639 44.4073 35.0884 43.7053 35.1663 42.9175C35.2446 42.1297 35.9465 41.5534 36.7343 41.6322C41.9914 42.1529 44.0534 46.4856 44.1384 46.6698C44.3817 47.1955 44.2846 47.8158 43.8927 48.242C43.5005 48.6683 42.8906 48.8166 42.3468 48.6186C42.2991 48.6015 37.239 46.8331 33.7491 49.4716C33.4906 49.667 33.1871 49.7616 32.8859 49.7616Z" fill="#F0B07F"/>
<path d="M60.5971 54.7969C60.5971 61.0949 54.9576 66.2004 48.0007 66.2004C41.0438 66.2004 35.4043 61.0949 35.4043 54.7969H60.5971Z" fill="#E86D6D"/>
<path d="M60.5971 54.7969H35.4043C35.4043 56.4649 35.8032 58.0478 36.5141 59.4758H59.4872C60.1982 58.0478 60.5971 56.4651 60.5971 54.7969Z" fill="white"/>
<path d="M24.1455 60.7714C22.5027 62.1888 20.0219 62.006 18.6046 60.3632C17.1872 58.7203 17.3699 56.2396 19.0128 54.8222C20.6556 53.4048 28.0309 52.2305 28.0309 52.2305C28.0309 52.2305 25.7884 59.354 24.1455 60.7714Z" fill="#99D6FF"/>
<path d="M71.8521 60.7714C73.495 62.1888 75.9757 62.006 77.3931 60.3632C78.8105 58.7203 78.6278 56.2396 76.9849 54.8222C75.3421 53.4048 67.9668 52.2305 67.9668 52.2305C67.9668 52.2305 70.2093 59.354 71.8521 60.7714Z" fill="#99D6FF"/>
</g>
<defs>
<clipPath id="clip0_471_19349">
<rect width="95" height="95" fill="white" transform="translate(0.5)"/>
</clipPath>
</defs>
</svg>
