<svg width="94" height="93" viewBox="0 0 94 93" fill="none" xmlns="http://www.w3.org/2000/svg">
<g clip-path="url(#clip0_471_19206)">
<path d="M66.7262 8.35547V84.6445C66.7262 89.2582 62.9844 93 58.3707 93H8.85547C4.2418 93 0.5 89.2582 0.5 84.6445V8.35547C0.5 3.7418 4.2418 0 8.85547 0H58.3707C62.9844 0 66.7262 3.7418 66.7262 8.35547Z" fill="#90A4AE"/>
<path d="M66.7264 8.35547V84.6445C66.7264 89.2582 62.9846 93 58.3709 93H33.6133V0H58.3709C62.9846 0 66.7264 3.7418 66.7264 8.35547Z" fill="#607D8B"/>
<path d="M8.85547 7.26562H58.3525C58.952 7.26562 59.4424 7.75605 59.4424 8.35547V84.6445C59.4424 85.2439 58.952 85.7344 58.3525 85.7344H8.85547C8.25605 85.7344 7.76562 85.2439 7.76562 84.6445V8.35547C7.76562 7.75605 8.25605 7.26562 8.85547 7.26562Z" fill="#FFF5F5"/>
<path d="M59.4607 8.35547V84.6445C59.4607 85.2439 58.9703 85.7344 58.3709 85.7344H33.6133V7.26562H58.3709C58.9703 7.26562 59.4607 7.73789 59.4607 8.35547Z" fill="#D8E6EB"/>
<path d="M68.1611 50.6777C82.1554 50.6777 93.5 39.3331 93.5 25.3389C93.5 11.3446 82.1554 0 68.1611 0C54.1669 0 42.8223 11.3446 42.8223 25.3389C42.8223 39.3331 54.1669 50.6777 68.1611 50.6777Z" fill="#FFDD00"/>
<path d="M93.499 25.3389C93.499 39.3252 82.1465 50.6777 68.1602 50.6777V0C82.1465 0 93.499 11.3525 93.499 25.3389Z" fill="#FFBB17"/>
<path d="M75.4633 39.088C74.4643 39.088 73.5197 38.6884 72.8113 37.98L64.3287 29.4974C63.6203 28.789 63.2207 27.8445 63.2207 26.8454V13.9126C63.2752 11.8419 64.9826 10.189 67.0533 10.2435C69.0695 10.2798 70.6861 11.9146 70.7225 13.9126V25.3197L78.0971 32.6943C79.5684 34.1656 79.5684 36.5451 78.0971 37.9982C77.425 38.7066 76.4623 39.1062 75.4633 39.088Z" fill="#FFF5F5"/>
</g>
<defs>
<clipPath id="clip0_471_19206">
<rect width="93" height="93" fill="white" transform="translate(0.5)"/>
</clipPath>
</defs>
</svg>
