<svg width="120" height="119" viewBox="0 0 120 119" fill="none" xmlns="http://www.w3.org/2000/svg">
<path d="M45.1245 87.3906H20.4157C19.2645 87.3906 18.1334 87.692 17.1348 88.2647C16.1362 88.8374 15.305 89.6616 14.7237 90.6552L14.4181 91.1777C13.5976 92.5802 13.3238 94.2362 13.6493 95.8282C13.9747 97.4201 14.8764 98.8358 16.1814 99.8038C22.2046 104.271 29.5051 106.683 37.0043 106.683H48.9973C52.4561 106.683 55.812 105.507 58.5136 103.347L45.1245 87.3906Z" fill="#E57C90"/>
<path d="M44.135 37.8856V28.5888L41.5639 25.5354C41.2346 25.1444 41.0435 24.6557 41.02 24.145C40.9966 23.6343 41.1422 23.1302 41.4342 22.7106L44.012 19.0072L43.7245 17.3409C43.6663 17.0035 43.7342 16.6564 43.9155 16.3658C44.0967 16.0752 44.3785 15.8615 44.7072 15.7654L58.5828 11.707L52.0908 34.9876L44.125 39.8087L44.135 36.7235" fill="#F0B78F"/>
<path d="M58.584 11.707L52.0901 34.9864L44.125 39.8068L44.1343 36.7226V36.0974C44.7851 35.5917 45.3062 34.9384 45.6546 34.1915L55.7624 12.5321L58.584 11.707Z" fill="#C99978"/>
<path d="M51.1074 55.7812H58.7244C60.5539 55.7812 62.3599 55.3696 64.0089 54.577C65.6578 53.7845 67.1073 52.6312 68.2502 51.2025C69.4236 49.7358 70.2425 48.0179 70.643 46.1828C71.0435 44.3476 71.0149 42.4447 70.5593 40.6225C69.926 39.1345 69.8325 37.472 70.2951 35.9225C70.7577 34.3729 71.7473 33.0337 73.0927 32.1365L76.7612 29.75L62.5751 16.7344L52.502 32.5391L51.1074 55.7812Z" fill="#7A4922"/>
<path d="M50.6431 65.0781C50.3528 66.2399 50.3252 67.4519 50.5625 68.6256C50.7997 69.7994 51.2957 70.9056 52.0143 71.8634L55.2915 76.2344L39.9942 87.3906C35.9371 81.8581 33.1199 75.5162 31.7344 68.7969L50.6431 65.0781Z" fill="#F0B78F"/>
<path d="M55.2915 76.2344L57.5199 76.6063C60.2853 77.0671 62.9024 78.1756 65.1576 79.8412C67.4127 81.5067 69.2418 83.6821 70.4956 86.1897L72.0258 89.25L94.3383 96.6875L92.8455 93.7018C90.1447 88.3001 88.4523 82.451 87.8514 76.4417L86.9008 66.9375L94.3383 65.0781L108.491 97.1707C109.263 98.9208 109.52 100.855 109.233 102.746C108.946 104.637 108.127 106.407 106.87 107.849C105.863 109.005 104.605 109.916 103.192 110.512C101.779 111.108 100.249 111.374 98.7181 111.289L83.4194 110.439C74.6938 109.954 66.1859 107.531 58.514 103.347C52.6891 100.17 47.4458 96.0269 43.0073 91.0952C41.9381 89.9074 40.9337 88.6724 39.9941 87.3902L55.2915 76.2344Z" fill="#FF8AA0"/>
<path d="M86.9004 66.9375L83.5977 64.7358C82.8978 64.2691 82.3239 63.6369 81.9269 62.8952C81.53 62.1535 81.3223 61.3253 81.3223 60.4841C81.3223 59.834 81.4464 59.1899 81.6879 58.5863L83.031 55.973C84.3521 53.4031 85.0411 50.5551 85.041 47.6655V45.7855C85.0411 44.9845 85.3593 44.2164 85.9257 43.6501C86.492 43.0838 87.2602 42.7656 88.0611 42.7656C88.7759 42.7656 89.4676 43.0192 90.013 43.4813C90.5585 43.9433 90.9223 44.5839 91.0398 45.289L94.3379 65.0781L86.9004 66.9375Z" fill="#F0B78F"/>
<path d="M45.2695 99.8793L39.4822 100.553H34.1175C33.0417 100.553 31.9857 100.842 31.0597 101.389C30.1336 101.937 29.3714 102.723 28.8526 103.665L28.1963 104.858C27.9016 105.393 27.7782 106.006 27.843 106.614C27.9077 107.221 28.1573 107.795 28.5582 108.256C28.8385 108.579 29.1849 108.837 29.5738 109.015C29.9628 109.192 30.3852 109.284 30.8127 109.284H42.4254C44.6039 109.284 46.7132 108.518 48.3847 107.121C48.802 106.772 49.1459 106.344 49.3967 105.861C49.6474 105.378 49.7999 104.851 49.8454 104.309C49.8909 103.767 49.8285 103.221 49.6617 102.703C49.495 102.186 49.2272 101.706 48.8739 101.293C48.4353 100.779 47.877 100.382 47.2484 100.135C46.6198 99.889 45.9402 99.801 45.2695 99.8793Z" fill="#F0B78F"/>
<path d="M39.9016 54.0785C39.0254 52.7643 38.5578 51.2201 38.5577 49.6406V41.1133L31.8322 46.3453C30.1484 47.6549 28.8434 49.389 28.0511 51.3696C27.285 53.2849 27.0247 55.3651 27.2952 57.4101C27.5657 59.4552 28.3579 61.3962 29.5956 63.0465L31.1202 65.0795C31.2767 66.3299 31.4817 67.5695 31.735 68.7982L50.6437 65.0795L52.5031 57.642H46.5584C45.2412 57.6419 43.9444 57.3166 42.7832 56.6949C41.6219 56.0733 40.6321 55.1745 39.9016 54.0785Z" fill="#FF8AA0"/>
<path d="M81.3223 27.8906L68.391 10.1104C67.789 9.28247 66.9997 8.60874 66.0876 8.1442C65.1754 7.67967 64.1663 7.43751 63.1427 7.4375C61.9078 7.43752 60.6985 7.78993 59.6569 8.45335C58.6153 9.11677 57.7846 10.0636 57.2624 11.1827L47.1793 32.7894C46.4005 34.458 45.2364 35.9176 43.7829 37.048L38.5566 41.1129V49.6402C38.5567 51.2197 39.0243 52.7639 39.9005 54.0781C40.6311 55.174 41.6209 56.0725 42.7822 56.694C43.9435 57.3155 45.2402 57.6407 46.5573 57.6406H52.502L55.291 46.4844C57.7159 42.8472 59.0098 38.5736 59.0098 34.2023V31.6094L64.5879 22.3125L73.8848 31.6094L79.4629 39.0469L85.4447 43.5326C85.616 43.661 85.8145 43.7483 86.0249 43.7877C86.2353 43.8271 86.4519 43.8175 86.658 43.7597C86.8641 43.7019 87.0541 43.5975 87.2134 43.4544C87.3726 43.3114 87.4968 43.1336 87.5763 42.9348L90.2349 36.2876C90.3461 36.0097 90.365 35.7035 90.2887 35.4141C90.2125 35.1247 90.0451 34.8676 89.8115 34.6806L81.3223 27.8906Z" fill="#F0B78F"/>
</svg>
