<svg width="120" height="119" viewBox="0 0 120 119" fill="none" xmlns="http://www.w3.org/2000/svg">
<path fill-rule="evenodd" clip-rule="evenodd" d="M56.1985 34.5036C55.0647 14.8309 59.249 6.33033 60.5831 4.15532C60.6701 4.01355 60.813 3.93359 60.9792 3.93359C61.1454 3.93359 61.2883 4.01355 61.3752 4.15532C62.7096 6.33033 66.8938 14.8309 65.7599 34.5036L61.0896 39.6898L56.1985 34.5036Z" fill="#9ACD68"/>
<path fill-rule="evenodd" clip-rule="evenodd" d="M49.4671 30.754C49.4671 30.754 48.5788 20.6588 42.6322 15.4495C42.4651 15.3031 42.4242 15.0658 42.5335 14.8719C42.6422 14.6786 42.8654 14.59 43.0771 14.6563C48.4721 16.349 60.9787 21.9706 60.9787 37.7081L72.4903 30.754C72.4903 30.754 73.3961 20.4584 79.5027 15.2966C79.6705 15.1548 79.7166 14.9222 79.6152 14.7274C79.5141 14.5331 79.2984 14.4369 79.0862 14.4919C74.0917 15.793 62.3221 20.3276 61.0847 34.3373C61.0152 35.124 60.9789 36.8605 60.9789 37.7081L49.4671 30.754Z" fill="#AFE269"/>
<path fill-rule="evenodd" clip-rule="evenodd" d="M72.4917 40.0867C72.4917 40.0867 74.2732 30.6067 83.8239 25.2968C84.0205 25.1876 84.11 24.9596 84.04 24.746C83.9701 24.5328 83.7641 24.402 83.5415 24.4294C77.7988 25.1411 63.9339 28.0531 60.9801 39.6879L49.4684 40.0867C49.4684 40.0867 47.6869 30.6067 38.1362 25.2968C37.9396 25.1876 37.8501 24.9596 37.9201 24.746C37.99 24.5328 38.196 24.402 38.4186 24.4294C44.1613 25.1411 58.0262 28.0531 60.9801 39.6879L72.4917 40.0867Z" fill="#C6EA94"/>
<path fill-rule="evenodd" clip-rule="evenodd" d="M60.9795 36.7891C75.2706 36.7891 86.9633 48.4817 86.9633 62.7727V78.7173C86.9633 93.0082 75.2706 104.701 60.9797 104.701C46.6885 104.701 34.9961 93.0082 34.9961 78.7173V62.7727C34.9959 48.4817 46.6883 36.7891 60.9795 36.7891Z" fill="#FDCD56"/>
<path fill-rule="evenodd" clip-rule="evenodd" d="M60.9858 104.049L69.4269 95.608L60.986 87.1671L52.5449 95.608L60.9858 104.049ZM63.5861 37C64.9184 37.1339 66.2218 37.3693 67.4883 37.6989L63.2861 41.9011L71.7269 50.3422L78.4307 43.6384C79.2337 44.3685 79.9905 45.1487 80.6975 45.9726L74.0274 52.6427L82.4683 61.0838L86.3453 57.2068C86.6384 58.5162 86.8311 59.8624 86.9169 61.2363L84.7688 63.3843L86.9692 65.5846V70.1857L82.4683 65.6848L74.0274 74.1257L82.4683 82.5665L86.9692 78.0655V78.7978C86.9692 80.2321 86.8495 81.6396 86.6231 83.0126L84.7688 84.8668L85.936 86.034C85.5988 87.1889 85.1837 88.3113 84.6956 89.3946L82.4681 87.1671L74.0272 95.608L77.3553 98.9362C76.5039 99.6303 75.6082 100.271 74.6731 100.855L71.7267 97.9087L65.2001 104.435C63.8274 104.662 62.4198 104.781 60.9853 104.781C59.5508 104.781 58.1433 104.662 56.7704 104.435L50.2439 97.9089L47.2975 100.855C46.3625 100.272 45.4667 99.6305 44.6154 98.9365L47.9434 95.6084L39.5026 87.1676L37.2753 89.3949C36.7872 88.3115 36.3723 87.1889 36.0348 86.034L37.2021 84.8671L35.348 83.013C35.1212 81.6403 35.002 80.2323 35.002 78.7981V78.0659L39.5028 82.5668L47.9437 74.1259L39.5028 65.6848L35.002 70.1857V65.5846L37.2021 63.3845L35.054 61.2367C35.1396 59.8626 35.3327 58.5167 35.6255 57.2072L39.5023 61.084L47.9432 52.6432L41.2739 45.9726C41.9809 45.1487 42.7377 44.3685 43.5407 43.6384L50.2442 50.3419L58.685 41.9011L54.4829 37.6989C55.7493 37.3696 57.0527 37.1341 58.385 37L60.9856 39.6006L63.5861 37ZM71.7272 93.3077L63.2863 84.8668L71.7272 76.426L80.168 84.8668L71.7272 93.3077ZM41.8033 84.8668L50.2442 76.426L58.6853 84.8668L50.2442 93.3077L41.8033 84.8668ZM60.9858 82.5663L69.4267 74.1254L60.9856 65.6846L52.5447 74.1254L60.9858 82.5663ZM71.7272 71.8249L80.168 63.3841L71.7272 54.9432L63.2863 63.3841L71.7272 71.8249ZM41.8033 63.3838L50.2442 71.8247L58.685 63.3838L50.2442 54.943L41.8033 63.3838ZM60.9858 61.0833L69.4267 52.6425L60.9856 44.2016L52.5447 52.6425L60.9858 61.0833Z" fill="#F5B945"/>
<path fill-rule="evenodd" clip-rule="evenodd" d="M95.0413 78.1904C95.3816 74.0449 97.6832 70.1293 101.558 67.8923C105.433 65.6552 109.975 65.6199 113.735 67.3977C114.181 67.6087 114.437 68.0515 114.396 68.5433C114.056 72.6887 111.754 76.6044 107.88 78.8414C104.005 81.0785 99.4629 81.1138 95.7028 79.336C95.2565 79.1252 95.0008 78.6822 95.0413 78.1904Z" fill="#C6EA94"/>
<path fill-rule="evenodd" clip-rule="evenodd" d="M103.905 71.9649C104.68 71.5156 105.673 71.7804 106.123 72.556C106.572 73.3315 106.307 74.3247 105.532 74.774L95.8821 80.3451C95.1065 80.7944 94.1134 80.5297 93.6641 79.7541C93.2149 78.9785 93.4796 77.9853 94.2552 77.5361L103.905 71.9649Z" fill="#AFE269"/>
<path fill-rule="evenodd" clip-rule="evenodd" d="M96.5801 81.6247C96.5801 82.5232 95.8517 83.2517 94.9531 83.2517C94.0546 83.2517 93.3262 82.5232 93.3262 81.6247V67.5137C93.3262 66.6151 94.0546 65.8867 94.9531 65.8867C95.8517 65.8867 96.5801 66.6151 96.5801 67.5137V81.6247Z" fill="#937661"/>
<path fill-rule="evenodd" clip-rule="evenodd" d="M88.3367 77.1562C90.4991 77.1562 92.5403 77.7845 94.3427 78.8978C94.7264 79.1349 95.1804 79.1349 95.5641 78.8978C97.3665 77.7845 99.4076 77.1562 101.57 77.1562C108.878 77.1562 114.803 84.3281 114.803 93.175C114.803 102.022 108.878 109.194 101.57 109.194C99.4074 109.194 97.3663 108.566 95.5641 107.452C95.1804 107.215 94.7264 107.215 94.3427 107.452C92.5403 108.566 90.4991 109.194 88.3367 109.194C81.0282 109.194 75.1035 102.022 75.1035 93.175C75.1035 84.3279 81.0282 77.1562 88.3367 77.1562Z" fill="#EB5463"/>
<path fill-rule="evenodd" clip-rule="evenodd" d="M9.08151 40.1876C0.36127 57.8403 6.74125 79.4702 24.0358 89.455C41.3303 99.4401 63.2521 94.1506 74.1799 77.7721C74.5499 77.2178 74.661 76.6028 74.5097 75.9536C74.3581 75.3047 73.9855 74.8024 73.4084 74.4691L12.3277 39.2042C11.7506 38.8709 11.1294 38.7993 10.4916 38.9927C9.85385 39.1861 9.37668 39.5901 9.08151 40.1876Z" fill="#C6EA94"/>
<path fill-rule="evenodd" clip-rule="evenodd" d="M70.3624 72.7093C61.5945 87.8957 42.1801 93.0978 26.9934 84.3299C11.8069 75.562 6.60487 56.1476 15.3728 40.9609L70.3624 72.7093Z" fill="#F76C82"/>
<path fill-rule="evenodd" clip-rule="evenodd" d="M59.3741 72.0824C58.4756 72.0824 57.7472 72.8108 57.7472 73.7094C57.7472 74.6079 58.4756 75.3363 59.3741 75.3363C60.2727 75.3363 61.0011 74.6079 61.0011 73.7094C61.0011 72.8108 60.2727 72.0824 59.3741 72.0824ZM31.0535 57.0935C30.155 57.0935 29.4266 57.8219 29.4266 58.7205C29.4266 59.619 30.155 60.3474 31.0535 60.3474C31.9521 60.3474 32.6805 59.619 32.6805 58.7205C32.6802 57.8219 31.9518 57.0935 31.0535 57.0935ZM38.9956 64.6296C38.0971 64.6296 37.3686 65.358 37.3686 66.2565C37.3686 67.1551 38.0971 67.8835 38.9956 67.8835C39.8941 67.8835 40.6226 67.1551 40.6226 66.2565C40.6226 65.358 39.8941 64.6296 38.9956 64.6296ZM20.6584 61.2455C19.7599 61.2455 19.0315 61.9739 19.0315 62.8725C19.0315 63.771 19.7599 64.4994 20.6584 64.4994C21.557 64.4994 22.2854 63.771 22.2854 62.8725C22.2854 61.9739 21.557 61.2455 20.6584 61.2455ZM48.7162 70.6804C47.8176 70.6804 47.0892 71.4088 47.0892 72.3074C47.0892 73.2059 47.8176 73.9343 48.7162 73.9343C49.6147 73.9343 50.3431 73.2059 50.3431 72.3074C50.3431 71.4088 49.6147 70.6804 48.7162 70.6804ZM19.7578 48.9492C18.8593 48.9492 18.1309 49.6776 18.1309 50.5762C18.1309 51.4747 18.8593 52.2031 19.7578 52.2031C20.6564 52.2031 21.3848 51.4747 21.3848 50.5762C21.3848 49.6776 20.6564 48.9492 19.7578 48.9492ZM30.2454 68.5817C29.3468 68.5817 28.6184 69.3101 28.6184 70.2086C28.6184 71.1072 29.3468 71.8356 30.2454 71.8356C31.1439 71.8356 31.8723 71.1072 31.8723 70.2086C31.8721 69.3101 31.1437 68.5817 30.2454 68.5817Z" fill="#636C77"/>
<path fill-rule="evenodd" clip-rule="evenodd" d="M16.1873 72.3076C14.3156 73.3884 15.3996 78.7699 18.6086 84.328C21.8177 89.8861 25.9362 93.5156 27.8079 92.4351C29.6796 91.3546 28.5956 85.9728 25.3865 80.4147C22.1777 74.8566 18.0589 71.2268 16.1873 72.3076ZM7.44424 104.936C6.36371 103.065 9.99344 98.9459 15.5513 95.7371C21.1095 92.5281 26.4912 91.444 27.5717 93.3157C28.6525 95.1874 25.0228 99.3062 19.4646 102.515C13.9067 105.724 8.525 106.808 7.44424 104.936Z" fill="#9ACD68"/>
<path fill-rule="evenodd" clip-rule="evenodd" d="M6.37836 86.9364C6.9378 84.8488 12.4167 84.5029 18.6158 86.164C24.815 87.8252 29.387 90.8641 28.8278 92.9517C28.2683 95.0393 22.7894 95.3852 16.5903 93.724C10.3909 92.0629 5.81892 89.024 6.37836 86.9364Z" fill="#AFE269"/>
<path fill-rule="evenodd" clip-rule="evenodd" d="M98.7652 108.301L49.0372 82.7378C40.3455 78.2697 30.1836 83.5659 27.663 92.9737C25.1774 102.25 31.5147 111.868 41.1065 112.336L96.9537 115.062C98.6988 115.147 100.266 114.135 100.719 112.447C101.171 110.76 100.319 109.1 98.7652 108.301Z" fill="#FC9314"/>
<path fill-rule="evenodd" clip-rule="evenodd" d="M65.722 91.3154L62.4414 89.6289L59.5398 100.457C59.282 101.419 59.8529 102.407 60.8144 102.665C61.7759 102.923 62.7644 102.352 63.0222 101.391L65.722 91.3154ZM39.2949 112.134C39.8843 112.238 40.4889 112.306 41.1069 112.337L42.9491 112.426L46.8238 97.9659C47.0815 97.0043 46.5107 96.0156 45.5492 95.7581C44.5874 95.5003 43.5991 96.0712 43.3414 97.0327L39.2949 112.134ZM73.0556 113.896L76.7399 114.075L78.7634 106.524C79.0212 105.562 78.4503 104.573 77.4888 104.316C76.527 104.058 75.5388 104.629 75.281 105.59L73.0556 113.896Z" fill="#F37423"/>
</svg>
