<svg width="92" height="91" viewBox="0 0 92 91" fill="none" xmlns="http://www.w3.org/2000/svg">
<g clip-path="url(#clip0_471_19639)">
<path d="M53.998 85.668V91H38.002C38.002 89.0706 38.002 87.5974 38.002 85.668H53.998Z" fill="#1C78BF"/>
<path d="M13.8301 34.8359C9.00626 34.8359 5.32382 34.8359 0.5 34.8359C0.5 32.9065 0.5 31.4333 0.5 29.5039H13.8301V34.8359Z" fill="#FFDA2D"/>
<path d="M12.8145 21.2228C8.95567 19.2934 6.00986 17.8202 2.15039 15.8908C3.01337 14.1648 3.67294 12.8471 4.53592 11.1211C8.3947 13.0505 11.3405 14.5237 15.2 16.4531C14.337 18.1791 13.6774 19.4968 12.8145 21.2228Z" fill="#FFDA2D"/>
<path d="M4.53592 53.215C3.67294 51.489 3.01337 50.1713 2.15039 48.4453C6.00986 46.5159 8.95567 45.0427 12.8145 43.1133C13.6774 44.8392 14.337 46.157 15.2 47.8829C11.3405 49.8123 8.3947 51.2856 4.53592 53.215Z" fill="#FFDA2D"/>
<path d="M91.5 34.8359C86.6762 34.8359 82.9937 34.8359 78.1699 34.8359C78.1699 32.9065 78.1699 31.4333 78.1699 29.5039H91.5V34.8359Z" fill="#FDBF00"/>
<path d="M79.1844 21.2228C78.3214 19.4968 77.6618 18.1791 76.7988 16.4531C80.6583 14.5237 83.6041 13.0505 87.4629 11.1211C88.3259 12.8471 88.9854 14.1648 89.8484 15.8908C85.9889 17.8202 83.0431 19.2934 79.1844 21.2228Z" fill="#FDBF00"/>
<path d="M87.4629 53.215C83.6041 51.2856 80.6583 49.8123 76.7988 47.8829C77.6618 46.157 78.3214 44.8392 79.1844 43.1133C83.0431 45.0427 85.9889 46.5159 89.8484 48.4453C88.9854 50.1713 88.3259 51.489 87.4629 53.215Z" fill="#FDBF00"/>
<path d="M59.3301 69.4961V80.1602H32.6699C32.6699 76.3014 32.6699 73.3549 32.6699 69.4961C35.0818 67.5667 36.923 66.0935 39.335 64.1641H54.3181C56.1316 66.0935 57.5166 67.5667 59.3301 69.4961Z" fill="#E0F4FF"/>
<path d="M46 85.668H53.998V91C51.1036 91 48.8944 91 46 91C46 89.0706 46 87.5974 46 85.668Z" fill="#145383"/>
<path d="M59.3301 69.4961V80.1602C54.5063 80.1602 50.8238 80.1602 46 80.1602C46 74.372 46 69.9522 46 64.1641H54.3181C56.1316 66.0935 57.5166 67.5667 59.3301 69.4961Z" fill="#BBDCFF"/>
<path d="M68.9812 32.168C71.3202 34.2286 72.6602 37.0869 72.6602 40.166C72.6602 45.2606 69.0638 49.5436 64.2351 50.6169C62.9091 50.8821 61.9961 52.0478 61.9961 53.3892V53.4426V53.4961C61.9961 56.9598 59.7591 59.8938 56.6641 61.0144V66.8262H35.3359C35.3359 64.7232 35.3359 63.1174 35.3359 61.0144C32.2409 59.8938 30.0039 56.9598 30.0039 53.4961C30.0039 52.5373 30.1636 51.6833 30.4837 50.8301C24.374 51.0953 19.3398 46.2138 19.3398 40.166C19.3398 37.0869 20.6798 34.2286 23.0188 32.168C20.6853 30.1115 19.3398 27.2553 19.3398 24.1699C19.3398 18.3054 24.138 13.5059 30.0039 13.5059C30.0039 7.64132 34.802 2.66406 40.668 2.66406C42.5987 2.66406 44.3553 3.22504 46 4.15675C47.6447 3.22504 49.4013 2.66406 51.332 2.66406C57.1966 2.66406 61.9961 7.63993 61.9961 13.5059C67.8606 13.5059 72.6602 18.304 72.6602 24.1699C72.6602 27.2553 71.3147 30.1115 68.9812 32.168Z" fill="#FFDA2D"/>
<path d="M68.9812 32.168C71.3202 34.2286 72.6602 37.0869 72.6602 40.166C72.6602 45.2606 69.0638 49.5436 64.2351 50.6169C62.9091 50.8821 61.9961 52.0478 61.9961 53.3892V53.4426V53.4961C61.9961 56.9598 59.7591 59.8938 56.6641 61.0144V66.8262C52.8053 66.8262 49.8588 66.8262 46 66.8262C46 44.2129 46 26.77 46 4.15675C47.6447 3.22504 49.4013 2.66406 51.332 2.66406C57.1966 2.66406 61.9961 7.63993 61.9961 13.5059C67.8606 13.5059 72.6602 18.304 72.6602 24.1699C72.6602 27.2553 71.3147 30.1115 68.9812 32.168Z" fill="#FDBF00"/>
<path d="M75.3262 24.1719C75.3262 17.7214 70.6884 12.2387 64.449 11.0549C63.2673 4.8266 57.793 0 51.332 0C49.4485 0 47.6913 0.380463 46 1.17263C44.3087 0.380463 42.5515 0 40.668 0C34.2161 0 28.7341 4.81757 27.551 11.0549C21.3234 12.2366 16.6738 17.7096 16.6738 24.1719C16.6738 26.9649 17.5819 29.8101 19.3933 32.1699C17.6896 34.3902 16.6738 37.1993 16.6738 40.168C16.6738 43.8525 18.1172 47.2628 20.7798 49.7656C22.6335 51.5666 24.8656 52.7475 27.3379 53.2314V53.4981C27.3379 57.3777 29.4554 60.8254 32.6699 62.7222V69.4941H59.3301C59.3301 67.0441 59.3301 65.173 59.3301 62.7222C62.5446 60.8254 64.6621 57.3777 64.6621 53.4981L64.769 53.2314C70.8939 51.8998 75.3262 46.413 75.3262 40.168C75.3262 37.3805 74.4215 34.5346 72.6067 32.1699C74.3139 29.9455 75.3262 27.135 75.3262 24.1719ZM43.334 64.1621C41.4046 64.1621 39.9313 64.1621 38.002 64.1621C38.002 62.3487 38.002 60.9636 38.002 59.1501C34.9228 58.0303 32.6699 56.859 32.6699 53.4981C32.6699 52.2553 33.8356 49.2713 34.2695 48.0056C34.0015 48.0168 30.1921 48.1757 29.9296 48.1757C27.8024 48.1757 25.9299 47.3489 24.4587 45.9263C22.8758 44.4496 22.0059 42.3799 22.0059 40.168C22.0059 38.1296 22.8154 36.3182 24.1387 34.8359H27.7114C28.8979 39.4765 33.0886 42.834 38.002 42.834V37.502C35.0693 37.502 32.6699 35.1025 32.6699 32.1699C32.6699 29.2373 35.0693 26.8379 38.002 26.8379V21.5059C33.0886 21.5059 28.8979 24.8634 27.7114 29.5039C26.4187 29.5039 25.4314 29.5039 24.1387 29.5039C22.7099 27.9029 22.0059 26.0666 22.0059 24.1719C22.0059 19.7459 25.5779 16.1738 30.0039 16.1738H32.6699C32.6699 15.2088 32.6699 14.4729 32.6699 13.5078C32.6699 9.08181 36.242 5.33203 40.668 5.33203C41.5747 5.33203 42.4814 5.54517 43.334 5.86523V64.1621ZM59.3301 32.1699C59.3301 35.1025 56.9307 37.502 53.998 37.502V42.834C58.9114 42.834 63.1021 39.4765 64.2886 34.8359H67.8613C69.1846 36.3182 69.9941 38.1296 69.9941 40.168C69.9941 43.8921 67.3337 47.2051 63.6492 48.0056C61.1963 48.5277 59.3287 50.7529 59.3287 53.3356C59.3287 53.3717 59.3294 53.4085 59.3301 53.4446V53.4981C59.3301 57.1555 56.8855 58.1004 53.998 59.1501V64.1621C52.0687 64.1621 50.5954 64.1621 48.666 64.1621C48.666 43.1311 48.666 26.8962 48.666 5.86523C49.5186 5.54517 50.4253 5.33203 51.332 5.33203C55.758 5.33203 59.3301 9.08181 59.3301 13.5078V16.1738H61.9961C66.4221 16.1738 69.9941 19.7459 69.9941 24.1719C69.9941 26.0666 69.2901 27.9029 67.8613 29.5039C66.5686 29.5039 65.5813 29.5039 64.2886 29.5039C63.1021 24.8634 58.9114 21.5059 53.998 21.5059V26.8379C56.9307 26.8379 59.3301 29.2373 59.3301 32.1699Z" fill="#FDBF00"/>
<path d="M75.3262 24.1719C75.3262 17.7214 70.6884 12.2387 64.449 11.0549C63.2673 4.8266 57.793 0 51.332 0C49.4485 0 47.6913 0.380463 46 1.17263V69.4941H59.3301C59.3301 67.0441 59.3301 65.173 59.3301 62.7222C62.5446 60.8254 64.6621 57.3777 64.6621 53.4981L64.769 53.2314C70.8939 51.8998 75.3262 46.413 75.3262 40.168C75.3262 37.3805 74.4215 34.5346 72.6067 32.1699C74.3139 29.9455 75.3262 27.135 75.3262 24.1719ZM59.3301 32.1699C59.3301 35.1025 56.9307 37.502 53.998 37.502V42.834C58.9114 42.834 63.1021 39.4765 64.2886 34.8359H67.8613C69.1846 36.3182 69.9941 38.1296 69.9941 40.168C69.9941 43.8921 67.3337 47.2051 63.6492 48.0056C61.1963 48.5277 59.3287 50.7529 59.3287 53.3356C59.3287 53.3717 59.3294 53.4085 59.3301 53.4446V53.4981C59.3301 57.1555 56.8855 58.1004 53.998 59.1501V64.1621C52.0687 64.1621 50.5954 64.1621 48.666 64.1621C48.666 43.1311 48.666 26.8962 48.666 5.86523C49.5186 5.54517 50.4253 5.33203 51.332 5.33203C55.758 5.33203 59.3301 9.08181 59.3301 13.5078V16.1738H61.9961C66.4221 16.1738 69.9941 19.7459 69.9941 24.1719C69.9941 26.0666 69.2901 27.9029 67.8613 29.5039C66.5686 29.5039 65.5813 29.5039 64.2886 29.5039C63.1021 24.8634 58.9114 21.5059 53.998 21.5059V26.8379C56.9307 26.8379 59.3301 29.2373 59.3301 32.1699Z" fill="#FF9100"/>
</g>
<defs>
<clipPath id="clip0_471_19639">
<rect width="91" height="91" fill="white" transform="translate(0.5)"/>
</clipPath>
</defs>
</svg>
