<svg width="107" height="107" viewBox="0 0 107 107" fill="none" xmlns="http://www.w3.org/2000/svg">
<path fill-rule="evenodd" clip-rule="evenodd" d="M10.3583 75.4245L28.4173 64.9617C31.8066 62.9981 35.253 61.6056 38.9781 62.8142C43.1315 64.1611 49.9138 67.0532 56.8304 68.3008C59.3978 69.1332 60.9982 71.7039 60.2999 74.3104C59.6013 76.9175 57.3986 78.2614 54.2904 77.7808L56.7083 78.1678C59.4788 78.6111 62.0234 78.2318 64.4485 76.8197L81.8113 66.7067C95.308 58.8462 97.2904 70.9391 92.8029 73.7018L61.2934 93.1039C58.3955 94.8878 55.2245 95.3043 51.937 94.4233L29.0823 88.2994L20.6184 93.1861C18.991 94.1255 16.8974 93.5648 15.9578 91.9374L9.1136 80.0828C8.17526 78.4564 8.73388 76.3655 10.3583 75.4245Z" fill="#F6DCCD"/>
<path fill-rule="evenodd" clip-rule="evenodd" d="M59.8877 75.393C58.9226 77.2791 56.9339 78.1909 54.2901 77.7819C50.5463 76.7919 46.8069 75.7769 43.0663 74.7748C42.0645 74.5063 41.4699 73.4766 41.7382 72.4745C42.0066 71.4727 43.0365 70.8781 44.0385 71.1464L59.8877 75.393Z" fill="#F1CBBC"/>
<path fill-rule="evenodd" clip-rule="evenodd" d="M10.3584 75.4243L28.4176 64.9617C31.8069 62.9981 35.2533 61.6056 38.9784 62.8142C41.2005 63.5347 44.1752 64.6975 47.5202 65.8143L12.5371 86.0118L9.11369 80.0825C8.17515 78.4566 8.73397 76.3655 10.3584 75.4243Z" fill="#F1CBBC"/>
<path fill-rule="evenodd" clip-rule="evenodd" d="M12.1585 69.725L26.4809 95.0313C27.1734 96.2549 26.7387 97.8227 25.5151 98.5153L20.6435 101.272C19.4199 101.965 17.8521 101.53 17.1595 100.307L2.83741 75.0004C2.14504 73.7768 2.57952 72.209 3.80312 71.5164L8.67476 68.7593C9.89836 68.0669 11.4662 68.5014 12.1585 69.725Z" fill="#D1D1D6"/>
<path fill-rule="evenodd" clip-rule="evenodd" d="M19.6919 87.1122L22.2269 91.5914L24.7336 96.0206C25.4247 97.2417 24.9934 98.8055 23.7754 99.5002L25.5157 98.5152C26.7393 97.8226 27.1737 96.2548 26.4814 95.0312L23.966 90.587L18.9155 81.6631L13.8593 72.7293L12.159 69.7249C11.5593 68.6649 10.3024 68.1972 9.18164 68.5412L12.1256 73.7428L17.1761 82.6667L19.6915 87.1109L19.6919 87.1122Z" fill="#B1B1B5"/>
<path fill-rule="evenodd" clip-rule="evenodd" d="M8.88438 73.5068C7.93392 73.6458 7.27604 74.529 7.41501 75.4794C7.55399 76.4299 8.43715 77.0878 9.38762 76.9488C10.3381 76.8098 10.996 75.9266 10.857 74.9762C10.718 74.0257 9.83484 73.3678 8.88438 73.5068Z" fill="#685E68"/>
<path fill-rule="evenodd" clip-rule="evenodd" d="M67.3914 67.1636C61.1131 63.4755 49.5623 55.0112 49.4083 46.5651C49.2367 37.1625 59.8055 32.8981 67.7561 40.9825C75.7057 32.8992 86.2738 37.1608 86.1039 46.5634C85.9513 55.0099 74.3995 63.4751 68.1208 67.1634C67.8894 67.2993 67.6226 67.2993 67.3914 67.1636Z" fill="#FE646F"/>
<path fill-rule="evenodd" clip-rule="evenodd" d="M67.3909 67.162C67.0474 66.9601 66.6871 66.7432 66.3145 66.5133C72.7478 62.5461 83.0769 54.546 83.2211 46.5618C83.3185 41.1712 79.8861 37.4716 75.4418 36.8183C81.1881 36.0055 86.221 40.05 86.1034 46.5618C85.9508 55.0083 74.399 63.4734 68.1203 67.1618C67.8889 67.2976 67.6221 67.2976 67.3909 67.162Z" fill="#FD4755"/>
<path fill-rule="evenodd" clip-rule="evenodd" d="M29.3003 56.3765C24.146 53.3488 14.6633 46.3996 14.5368 39.4657C14.396 31.7465 23.0726 28.2456 29.5998 34.8825C36.1262 28.2464 44.8024 31.745 44.6628 39.4643C44.5376 46.3986 35.0539 53.3481 29.8993 56.3763C29.7091 56.4879 29.4901 56.4879 29.3003 56.3765Z" fill="#FE646F"/>
<path fill-rule="evenodd" clip-rule="evenodd" d="M29.2998 56.3752C29.0177 56.2095 28.7218 56.0312 28.416 55.8427C33.6977 52.5857 42.1774 46.0179 42.2959 39.4631C42.376 35.0377 39.558 32.0003 35.9094 31.4638C40.627 30.7966 44.7588 34.1169 44.6623 39.4631C44.5369 46.3974 35.0534 53.347 29.8988 56.3752C29.7086 56.4866 29.4896 56.4866 29.2998 56.3752Z" fill="#FD4755"/>
<path fill-rule="evenodd" clip-rule="evenodd" d="M69.9214 30.3922C64.767 27.3644 55.2844 20.4152 55.1579 13.4813C55.0171 5.76188 63.6937 2.26118 70.2209 8.89811C76.7473 2.26202 85.4235 5.76063 85.2839 13.4799C85.1587 20.4142 75.675 27.3638 70.5204 30.3919C70.3304 30.5035 70.1114 30.5035 69.9214 30.3922Z" fill="#FE646F"/>
<path fill-rule="evenodd" clip-rule="evenodd" d="M69.9209 30.3906C69.6388 30.2249 69.3431 30.0468 69.0371 29.8581C74.3188 26.6011 82.7985 20.0333 82.917 13.4786C82.9971 9.0531 80.1791 6.01572 76.5305 5.47946C81.2481 4.81218 85.3799 8.13252 85.2833 13.4786C85.158 20.4129 75.6745 27.3624 70.5196 30.3906C70.3299 30.5022 70.1109 30.5022 69.9209 30.3906Z" fill="#FD4755"/>
<path fill-rule="evenodd" clip-rule="evenodd" d="M94.2799 33.7552C94.2799 32.8319 95.0285 32.0833 95.9518 32.0833C96.8751 32.0833 97.6237 32.8319 97.6237 33.7552V37.2525C97.6237 38.1758 96.8751 38.9244 95.9518 38.9244C95.0285 38.9244 94.2799 38.1758 94.2799 37.2525V33.7552ZM35.4199 18.7877C35.4199 17.8644 36.1685 17.1159 37.0918 17.1159C38.0151 17.1159 38.7636 17.8644 38.7636 18.7877V22.2851C38.7636 23.2084 38.0151 23.957 37.0918 23.957C36.1685 23.957 35.4199 23.2084 35.4199 22.2851V18.7877ZM33.72 13.7439C34.6433 13.7439 35.3919 14.4925 35.3919 15.4158C35.3919 16.3391 34.6433 17.0876 33.72 17.0876H30.2227C29.2994 17.0876 28.5508 16.3391 28.5508 15.4158C28.5508 14.4925 29.2994 13.7439 30.2227 13.7439H33.72ZM43.9609 13.7439C44.8842 13.7439 45.6327 14.4925 45.6327 15.4158C45.6327 16.3391 44.8842 17.0876 43.9609 17.0876H40.4635C39.5402 17.0876 38.7916 16.3391 38.7916 15.4158C38.7916 14.4925 39.5402 13.7439 40.4635 13.7439H43.9609ZM35.4199 8.54687C35.4199 7.62358 36.1685 6.875 37.0918 6.875C38.0151 6.875 38.7636 7.62358 38.7636 8.54687V12.0442C38.7636 12.9675 38.0151 13.7161 37.0918 13.7161C36.1685 13.7161 35.4199 12.9675 35.4199 12.0442V8.54687ZM92.58 28.7116C93.5033 28.7116 94.2519 29.4601 94.2519 30.3834C94.2519 31.3067 93.5033 32.0553 92.58 32.0553H89.0827C88.1594 32.0553 87.4108 31.3067 87.4108 30.3834C87.4108 29.4601 88.1594 28.7116 89.0827 28.7116H92.58ZM102.821 28.7116C103.744 28.7116 104.493 29.4601 104.493 30.3834C104.493 31.3067 103.744 32.0553 102.821 32.0553H99.3235C98.4003 32.0553 97.6517 31.3067 97.6517 30.3834C97.6517 29.4601 98.4003 28.7116 99.3235 28.7116H102.821ZM94.2799 23.5143C94.2799 22.591 95.0285 21.8425 95.9518 21.8425C96.8751 21.8425 97.6237 22.591 97.6237 23.5143V27.0117C97.6237 27.935 96.8751 28.6836 95.9518 28.6836C95.0285 28.6836 94.2799 27.935 94.2799 27.0117V23.5143Z" fill="#FFE177"/>
</svg>
