<svg width="120" height="119" viewBox="0 0 120 119" fill="none" xmlns="http://www.w3.org/2000/svg">
<path d="M76.6833 55.9314C76.4579 55.9314 76.2474 55.8188 76.1224 55.6312L75.4004 54.5481C75.1939 54.2383 75.2776 53.8198 75.5874 53.6133C75.8971 53.4069 76.3157 53.4905 76.5222 53.8003L76.6833 54.042L76.8445 53.8003C77.051 53.4905 77.4695 53.4068 77.7793 53.6133C78.0891 53.8198 78.1728 54.2383 77.9663 54.5481L77.2442 55.6312C77.1192 55.8188 76.9087 55.9314 76.6833 55.9314Z" fill="#FF326C"/>
<path d="M60.0759 60.8064C59.8504 60.8064 59.64 60.6937 59.515 60.5062L58.793 59.4231C58.5864 59.1133 58.6702 58.6948 58.9799 58.4883C59.2897 58.2818 59.7082 58.3655 59.9148 58.6753L60.0759 58.917L60.2371 58.6753C60.4436 58.3654 60.8621 58.2818 61.1719 58.4883C61.4817 58.6948 61.5654 59.1133 61.3588 59.4231L60.6368 60.5062C60.5117 60.6937 60.3012 60.8064 60.0759 60.8064Z" fill="#FF326C"/>
<path d="M59.3532 52.6853C59.1278 52.6853 58.9173 52.5727 58.7923 52.3851L58.0703 51.302C57.8638 50.9922 57.9475 50.5737 58.2573 50.3672C58.5671 50.1607 58.9855 50.2444 59.1921 50.5542L59.3533 50.7959L59.5144 50.5542C59.7209 50.2444 60.1395 50.1607 60.4492 50.3672C60.759 50.5737 60.8427 50.9922 60.6362 51.302L59.9142 52.3851C59.7891 52.5727 59.5786 52.6853 59.3532 52.6853Z" fill="#FF326C"/>
<path d="M26.1382 61.8238C25.6574 62.018 25.2677 62.3866 25.047 62.8559C24.8264 63.3251 24.7911 63.8604 24.9482 64.3545C24.5985 63.9716 24.117 63.735 23.6003 63.6919C23.0835 63.6488 22.5695 63.8024 22.1612 64.1221C20.3001 65.4001 21.9978 68.9995 27.7264 69.1637C30.4444 64.1189 28.1739 60.8504 26.1382 61.8238Z" fill="#EB6750"/>
<path d="M22.9266 45.4006C22.1597 45.7273 21.5443 46.3316 21.2038 47.0925C20.8633 47.8535 20.8226 48.715 21.0901 49.5046C20.5157 48.8999 19.7341 48.5346 18.9017 48.4816C18.0694 48.4286 17.2478 48.692 16.6014 49.219C13.6486 51.3316 16.4911 57.0658 25.7073 57.1523C29.9223 48.9564 26.1706 43.7711 22.9266 45.4006Z" fill="#EB6750"/>
<path d="M103.879 60.7075C103.128 60.0008 102.139 59.6036 101.108 59.5955C100.077 59.5874 99.0817 59.969 98.3204 60.6639C98.72 59.7136 98.7458 58.6474 98.3927 57.6789C98.0397 56.7103 97.3338 55.9109 96.4164 55.4406C92.5616 53.1455 87.4795 59.2058 91.9508 69.6809C103.317 70.3894 107.331 63.5723 103.879 60.7075Z" fill="#EB6750"/>
<path d="M89.4835 44.6518C88.5466 43.4618 87.0837 42.82 85.9556 41.8085C83.7454 39.8252 83.048 36.6519 82.9949 33.6808C82.9417 30.7098 83.4082 27.7269 82.9949 24.7876C82.6866 22.6888 81.9426 20.6778 80.8106 18.8839C79.6786 17.0899 78.1838 15.5527 76.4221 14.3711L60.3968 45.96L44.5817 14.571C42.7968 15.7032 41.2697 17.1977 40.0992 18.9577C38.9287 20.7176 38.1409 22.7038 37.7868 24.7876C37.3742 27.7269 37.8399 30.7138 37.7868 33.6808C37.7336 36.6479 37.0394 39.8268 34.8292 41.8101C33.7011 42.8216 32.2382 43.4626 31.3013 44.6534C30.3221 46.1065 29.9191 47.8722 30.1708 49.6062C30.605 53.9812 32.7036 58.0222 36.0327 60.8937C39.3661 63.7292 43.4737 65.4993 47.824 65.9751C51.603 66.5365 55.463 65.9001 58.8617 64.1551C59.3968 63.8577 59.9099 63.522 60.3968 63.1508C60.8823 63.5217 61.3937 63.8573 61.9271 64.1551C65.3247 65.8992 69.1831 66.5356 72.9608 65.9751C77.3125 65.5001 81.4216 63.73 84.7561 60.8937C88.0852 58.0222 90.1838 53.9812 90.618 49.6062C90.8689 47.8711 90.4644 46.1048 89.4835 44.6518Z" fill="#333333"/>
<path d="M84.3679 91.9615L96.7185 81.3531C96.4741 80.9977 96.2274 80.6573 95.9807 80.3217C95.4126 80.7106 94.731 80.8988 94.0439 80.8567C93.3568 80.8146 92.7033 80.5446 92.187 80.0893C89.4505 77.9374 86.5633 75.9845 83.5476 74.2456C80.7709 72.7042 77.849 70.3694 74.5638 70.2083C71.5627 70.0608 70.3282 67.2436 70.8645 65.0064C70.3378 64.9763 69.8721 64.9676 69.4778 64.97C69.0672 64.9752 68.6702 64.8231 68.3682 64.5449C68.0662 64.2666 67.8822 63.8834 67.8538 63.4737L67.3239 55.8633L59.9998 56.686L52.675 55.8633L52.1458 63.4737C52.1165 63.8825 51.9322 64.2647 51.6305 64.5421C51.3288 64.8194 50.9325 64.9711 50.5227 64.966C50.2133 64.966 49.8555 64.966 49.4628 64.9874C49.6386 65.9514 49.4806 66.9465 49.0149 67.8086C48.5493 68.6708 47.8037 69.3485 46.9011 69.73C43.4144 71.1929 39.7254 71.4539 36.7464 73.9473C34.2942 75.9981 31.4969 77.7553 29.2494 80.0195C28.5899 80.7294 27.677 81.1505 26.7088 81.1914C25.7407 81.2322 24.7955 80.8895 24.0785 80.2377C23.8127 80.6026 23.5477 80.9699 23.2852 81.3531L35.6358 91.9615H84.3679Z" fill="#EABA99"/>
<path d="M84.5781 109.756L84.586 109.836H35.4232L35.4311 109.772L36.5259 92.7393L23.2852 81.3471C23.4676 81.0773 23.6501 80.8155 23.8405 80.5617C33.7968 66.6545 45.562 65.0282 50.0998 64.9727C51.1796 66.5771 52.6371 67.8916 54.3442 68.8005C56.0513 69.7093 57.9556 70.1847 59.8896 70.1847C61.8235 70.1847 63.7278 69.7093 65.4349 68.8005C67.142 67.8916 68.5996 66.5771 69.6793 64.9727C74.0506 64.9885 86.0458 66.4086 96.1687 80.5617C96.3591 80.8235 96.5416 81.0773 96.724 81.3471L83.4674 92.7393L84.5781 109.756Z" fill="#838BC5"/>
<path d="M73.8646 50.5847C72.1181 55.1667 68.8415 59.0041 64.5897 61.447C63.2252 62.2705 61.597 62.5399 60.04 62.1999C58.4878 62.5399 56.8643 62.2704 55.5053 61.447C51.2488 59.0057 47.9669 55.1683 46.2153 50.5847C44.3169 45.0861 43.9258 34.2317 43.9258 34.2317C44.1217 29.2599 45.9535 25.7724 47.5204 22.8799C47.9616 22.0685 48.4796 21.3013 49.0674 20.5888C49.5776 19.9895 50.2185 19.5151 50.9407 19.2021C51.6629 18.8891 52.4472 18.7458 53.2334 18.7832C54.0196 18.8205 54.7868 19.0376 55.4761 19.4178C56.1653 19.7979 56.7583 20.3309 57.2094 20.9759C58.4896 22.7135 60.0286 24.2447 61.7726 25.5162C65.1117 27.9755 68.7825 26.6982 71.8971 26.7752C72.7339 26.7709 73.543 27.0742 74.1707 27.6276C74.7983 28.1809 75.2007 28.9457 75.3013 29.7764C75.3727 30.4761 75.4235 33.7851 75.4513 34.5403C75.4513 34.5403 75.763 45.0861 73.8646 50.5847Z" fill="#F1C8A6"/>
<path d="M55.3502 42.0312C55.3502 42.0312 54.1736 45.7171 51.1939 45.011C48.2141 44.3049 48.7623 42.0312 48.7623 42.0312C49.1873 42.5684 49.7401 42.9903 50.3703 43.2585C51.0005 43.5267 51.6879 43.6325 52.3696 43.5663C54.7147 43.3299 55.3502 42.0312 55.3502 42.0312Z" fill="#E0B190"/>
<path d="M71.2658 35.7111C69.1416 35.3359 66.9911 35.1285 64.8343 35.0907C64.5528 35.0809 64.2748 35.1558 64.0364 35.3058C63.7979 35.4557 63.6099 35.6737 63.4967 35.9316C63.1913 36.6242 63.0207 37.5421 63.9949 37.9197C65.6514 38.5639 67.8601 37.1835 70.3456 37.0915C71.0263 37.0374 71.7098 37.1519 72.3358 37.4247C72.9618 37.6976 73.5109 38.1204 73.9346 38.6559C73.8123 37.9635 73.4969 37.3198 73.0247 36.7988C72.5526 36.2778 71.9429 35.9008 71.2658 35.7111Z" fill="#4D4D4D"/>
<path d="M56.1449 35.9316C56.0317 35.6737 55.8437 35.4557 55.6053 35.3058C55.3668 35.1558 55.0889 35.0809 54.8074 35.0907C52.6506 35.1285 50.5001 35.336 48.3758 35.7111C47.6988 35.9008 47.0891 36.2778 46.6169 36.7988C46.1448 37.3198 45.8294 37.9635 45.707 38.6559C46.1308 38.1204 46.6799 37.6976 47.3058 37.4247C47.9318 37.1519 48.6154 37.0374 49.2961 37.0915C51.7816 37.1835 53.9902 38.5639 55.6467 37.9197C56.6193 37.5421 56.4503 36.6242 56.1449 35.9316Z" fill="#4D4D4D"/>
<path d="M64.7383 42.0312C64.7383 42.0312 65.914 45.7171 68.8938 45.011C71.8735 44.3049 71.3253 42.0312 71.3253 42.0312C70.9004 42.5684 70.3475 42.9903 69.7173 43.2585C69.0871 43.5267 68.3997 43.6325 67.718 43.5663C65.3729 43.3299 64.7383 42.0312 64.7383 42.0312Z" fill="#E0B190"/>
<path d="M60.0007 53.3837C60.0007 53.3837 56.8472 52.4071 53.1836 55.0307C55.3924 55.7952 57.7048 56.2187 60.0412 56.2865C62.3874 56.3077 64.7161 55.8814 66.9027 55.0307C62.1903 52.116 60.0007 53.3837 60.0007 53.3837Z" fill="#E0B190"/>
<path d="M79.4501 17.6005C76.9114 12.9547 69.2954 8.95313 59.1368 8.75955C45.5771 8.50093 51.0448 17.2141 51.0448 17.2141C51.0448 17.2141 57.8436 29.3989 74.7147 29.8963L76.295 41.3656L78.4854 31.5655C79.5556 27.0951 81.6587 21.6346 79.4501 17.6005Z" fill="#333333"/>
<path d="M55.5049 18.7761C55.5049 18.7761 54.1007 26.861 44.8687 31.6123L43.5549 40.3818C43.5549 40.3818 39.1352 31.7701 39.1075 22.9427C39.0797 14.1153 50.5592 11.6219 54.038 13.8599C57.5168 16.0978 55.5049 18.7761 55.5049 18.7761Z" fill="#333333"/>
<path d="M63.7286 48.1562C63.6006 48.5028 63.3777 48.8063 63.0854 49.0322C62.793 49.2581 62.443 49.3971 62.0753 49.4335C61.9453 49.836 61.6895 50.1862 61.3457 50.4325C61.0018 50.6789 60.5879 50.8084 60.165 50.802C60.165 50.802 60.0912 50.8115 60.0452 50.8115C59.9992 50.8115 59.9254 50.802 59.9254 50.802C59.5029 50.8097 59.0893 50.6806 58.7461 50.434C58.403 50.1873 58.1488 49.8364 58.0214 49.4335C57.6522 49.3971 57.3006 49.2583 57.0062 49.0326C56.7118 48.8069 56.4863 48.5033 56.3554 48.1562C56.2852 47.9257 56.278 47.6805 56.3347 47.4463C56.3913 47.212 56.5097 46.9972 56.6775 46.8242C56.6 46.9659 56.5521 47.1219 56.5369 47.2827C56.5216 47.4436 56.5392 47.6058 56.5886 47.7596C56.7103 48.0837 56.9206 48.3671 57.1955 48.5775C57.4704 48.7879 57.7989 48.9168 58.1436 48.9496C58.2662 49.3268 58.5062 49.6549 58.8284 49.8863C59.1506 50.1176 59.5383 50.24 59.9349 50.2356C59.9349 50.2356 60.0087 50.2451 60.0452 50.2451C60.0821 50.2441 60.1189 50.2409 60.1555 50.2356C60.5534 50.2411 60.9427 50.1193 61.2665 49.8879C61.5904 49.6566 61.8318 49.3278 61.9555 48.9496C62.2994 48.9153 62.6269 48.7858 62.9012 48.5755C63.1755 48.3653 63.3856 48.0827 63.5081 47.7596C63.5982 47.4578 63.5722 47.1332 63.4351 46.8496C63.592 47.024 63.7013 47.2357 63.7527 47.4645C63.8041 47.6933 63.7958 47.9315 63.7286 48.1562Z" fill="#E0B190"/>
<g opacity="0.4">
<path d="M65.5297 23.8441C62.4114 22.9334 59.6395 21.1051 57.575 18.597C60.7483 19.6664 64.0906 20.7509 67.3948 20.1836C64.9359 19.7308 62.5124 19.1027 60.143 18.3042C57.7664 17.5015 55.5893 16.1989 53.7582 14.4843C55.7974 15.278 57.9622 15.7001 60.1501 15.7307L54.4143 13.8267C53.1053 13.3927 51.0664 13.9496 49.9788 13.1016C50.3263 13.8449 49.4647 14.1083 48.7095 14.424C47.9542 14.7398 48.0256 14.3114 47.2259 14.4923C45.9268 14.8413 44.7806 15.6124 43.9677 16.6843C43.1649 17.7509 42.4827 18.9033 41.9336 20.1202C43.4584 18.2344 45.7852 17.2198 48.0185 16.2749C46.9308 17.0079 46.4318 18.3233 45.8535 19.5022C45.2751 20.6811 44.3961 21.9044 43.0958 22.0797C44.3658 22.0996 45.6199 21.7948 46.739 21.1942C47.8582 20.5936 48.8054 19.7171 49.4909 18.6478L45.64 24.9294C47.9457 24.4352 50.0145 23.1708 51.506 21.3443C51.659 22.1597 51.6347 22.9984 51.4349 23.8036C51.235 24.6088 50.8642 25.3615 50.3477 26.0107C50.9995 25.6629 51.5737 25.1861 52.0354 24.6093C52.4971 24.0325 52.8365 23.3678 53.0331 22.6557C53.2013 22.0321 52.7515 19.2927 53.4298 19.0286C53.9264 18.8342 56.3707 20.9008 56.9403 21.2142C59.5903 22.6765 62.5153 23.5721 65.5297 23.8441Z" fill="#4D4D4D"/>
</g>
<path d="M78.8695 90.2183C78.165 89.3695 72.5315 87.828 72.1095 87.759C71.6874 87.69 64.0571 90.615 60.0421 91.4314C58.1381 91.8169 58.2571 90.6602 57.3773 90.2215C56.4608 89.9216 55.4898 89.8258 54.5324 89.9407H46.4229L36.1889 97.9414L35.4297 109.773L38.0786 102.507C38.3221 101.838 38.7185 101.235 39.2361 100.746L46.5665 93.8193C47.237 93.1859 48.0831 92.7697 48.9941 92.6253L51.6645 92.2009C52.6494 92.0445 53.6585 92.2136 54.5387 92.6824L58.2229 94.6475C58.6807 94.8915 59.1891 95.0252 59.7077 95.038C60.2262 95.0508 60.7406 94.9424 61.2099 94.7213L64.2586 93.2846C64.8695 92.9967 65.5365 92.8474 66.2118 92.8475H70.668C71.8629 92.8472 73.0105 93.3141 73.8659 94.1485L80.7124 99.4385C81.1358 99.8515 81.4753 100.343 81.712 100.885L84.5846 109.837V97.1235C84.5846 97.1235 79.5739 91.0672 78.8695 90.2183Z" fill="#7582BF"/>
<path d="M60.017 76.8664C60.0681 75.7611 60.3663 74.6813 60.8897 73.7065L64.796 70.6427C65.0643 70.4321 65.3795 70.2896 65.7147 70.2272C66.05 70.1647 66.3954 70.1843 66.7214 70.2841L73.3743 71.9501C73.7159 72.0366 74.0283 72.2127 74.2793 72.46C74.5303 72.7074 74.7108 73.0172 74.8023 73.3574L77.1823 82.1999L87.3735 90.5228L84.8277 88.4435L96.715 81.3511C96.715 81.3511 107.926 99.355 109.114 106.658C110.302 113.962 95.6964 107.848 95.6964 107.848L73.5766 89.9365H65.4672L60.9825 92.0952C60.8717 92.1489 60.7489 92.173 60.626 92.1653C60.5031 92.1575 60.3843 92.1181 60.2812 92.0509C60.178 91.9836 60.094 91.8909 60.0373 91.7816C59.9806 91.6723 59.9531 91.5502 59.9575 91.4272C60.0993 90.0507 60.6598 88.7507 61.5632 87.7025C61.7949 87.4132 62.086 87.1771 62.4168 87.0099C63.795 86.2936 65.285 85.8166 66.823 85.5994C69.541 85.2598 70.8857 82.5419 70.8857 82.5419V79.8247L70.1463 75.0393L64.8857 74.2714L61.6996 77.551C61.5638 77.6914 61.3891 77.788 61.198 77.8283C61.0068 77.8686 60.8079 77.8508 60.627 77.7772C60.446 77.7036 60.2913 77.5775 60.1825 77.4152C60.0738 77.2528 60.0162 77.0617 60.017 76.8664Z" fill="#F1C8A6"/>
<path d="M84.832 88.4439L97.78 97.9385L86.0538 87.7148L84.832 88.4439Z" fill="#EABA99"/>
<path d="M59.9842 76.8664C59.9332 75.7611 59.635 74.6813 59.1115 73.7065L55.2052 70.6427C54.9369 70.4321 54.6217 70.2896 54.2865 70.2272C53.9512 70.1647 53.6058 70.1843 53.2798 70.2841L46.6269 71.9501C46.2853 72.0366 45.9729 72.2127 45.7219 72.46C45.4709 72.7074 45.2904 73.0172 45.1989 73.3574L42.8189 82.1999L32.6237 90.522L35.1521 88.4593L23.2822 81.3527C23.2822 81.3527 12.0716 99.3566 10.8832 106.66C9.69482 113.963 24.3009 107.847 24.3009 107.847L46.4246 89.9365H54.534L59.0187 92.0952C59.1295 92.1489 59.2523 92.173 59.3752 92.1653C59.4981 92.1575 59.6169 92.1181 59.72 92.0509C59.8232 91.9837 59.9072 91.8909 59.9639 91.7816C60.0206 91.6723 60.0481 91.5502 60.0437 91.4272C59.9019 90.0507 59.3414 88.7507 58.438 87.7025C58.2063 87.4132 57.9152 87.1771 57.5844 87.0099C56.2062 86.2936 54.7162 85.8166 53.1782 85.5994C50.4603 85.2598 49.1156 82.5419 49.1156 82.5419V79.8247L49.8549 75.0393L55.1155 74.2714L58.3016 77.551C58.4374 77.6914 58.6121 77.788 58.8033 77.8283C58.9944 77.8686 59.1933 77.8508 59.3742 77.7772C59.5552 77.7036 59.71 77.5775 59.8187 77.4152C59.9274 77.2529 59.985 77.0617 59.9842 76.8664Z" fill="#F1C8A6"/>
<path d="M35.1512 88.4599L22.2207 97.9403L33.9779 87.7578L35.1512 88.4599Z" fill="#EABA99"/>
</svg>
