<svg width="100" height="99" viewBox="0 0 100 99" fill="none" xmlns="http://www.w3.org/2000/svg">
<g clip-path="url(#clip0_471_18982)">
<path d="M87.2786 30.6525C86.3087 30.6525 85.4032 30.1679 84.8655 29.3608L81.7589 24.7009C80.8703 23.3681 81.2307 21.5673 82.5633 20.6788C83.8959 19.7907 85.6969 20.1504 86.5854 21.4834L87.2788 22.5233L87.9722 21.4834C88.8604 20.1504 90.6612 19.7903 91.9942 20.6788C93.3271 21.5673 93.6873 23.3681 92.7986 24.7009L89.6921 29.3608C89.154 30.1679 88.2483 30.6525 87.2786 30.6525Z" fill="#FF326C"/>
<path d="M15.8274 51.6212C14.8575 51.6212 13.952 51.1366 13.4143 50.3295L10.3078 45.6696C9.41909 44.3367 9.77951 42.536 11.1121 41.6475C12.4448 40.7592 14.2455 41.1192 15.1342 42.4521L15.8276 43.4919L16.521 42.4521C17.4095 41.119 19.2102 40.7592 20.5431 41.6475C21.8759 42.536 22.2361 44.3367 21.3474 45.6696L18.2409 50.3295C17.7028 51.1366 16.7971 51.6212 15.8274 51.6212Z" fill="#FF326C"/>
<path d="M12.72 16.672C11.7501 16.672 10.8446 16.1875 10.3069 15.3804L7.20035 10.7204C6.31167 9.38759 6.67209 7.58684 8.00472 6.69835C9.33755 5.81006 11.1381 6.17009 12.0268 7.50292L12.7202 8.54281L13.4136 7.50292C14.3021 6.1699 16.1028 5.80986 17.4356 6.69835C18.7685 7.58684 19.1287 9.38759 18.24 10.7204L15.1335 15.3804C14.5954 16.1875 13.6899 16.672 12.72 16.672Z" fill="#FF326C"/>
<path d="M99.0128 44.7718C96.4195 40.882 91.0984 40.2625 87.6454 43.1975L61.196 65.6772C60.8205 65.9965 60.3697 66.2148 59.8863 66.3113L44.353 69.418C42.1398 69.8612 41.1017 67.9498 40.9402 67.1427C40.6262 65.5719 41.6448 64.0439 43.2157 63.7299L56.4351 61.0859C59.4234 60.4883 61.0256 58.1633 61.0256 55.8474C61.0256 52.2481 56.9531 49.6936 53.1511 49.6936H37.2078C30.6005 49.6936 24.7574 53.9051 22.6683 60.1729L19.7447 68.941L2.54272 74.6748C0.531783 75.3452 -0.00865668 77.5663 0.98463 79.056L13.4113 97.6958C14.0114 98.5965 15.6384 99.5811 17.3167 98.5741L32.4798 89.4761L69.3408 80.261C69.9012 80.1208 70.407 79.8167 70.7934 79.3874L98.7554 48.3209C99.6422 47.3358 99.7482 45.8747 99.0128 44.7718Z" fill="#EBB49B"/>
<path d="M50.0005 43.0805C49.6116 43.0805 49.2228 43.0023 48.8579 42.8459C47.8983 42.4346 25.3535 32.5743 25.3535 15.327C25.3535 6.87567 32.2292 0 40.6805 0C44.0705 0 47.3423 1.12961 50.0005 3.16549C52.6588 1.12961 55.9304 0 59.3204 0C67.7717 0 74.6474 6.87567 74.6474 15.327C74.6474 32.5745 52.1027 42.4346 51.143 42.8459C50.7781 43.0023 50.3893 43.0805 50.0005 43.0805Z" fill="#FF785A"/>
<path d="M50 3.16549C52.6583 1.12961 55.9299 0 59.3199 0C67.7713 0 74.6469 6.87567 74.6469 15.327C74.6469 32.5745 52.1022 42.4346 51.1426 42.8459C50.7777 43.0023 50.389 43.0805 50 43.0805V3.16549Z" fill="#FF326C"/>
<path d="M87.6453 43.1974L61.1959 65.6774C60.8204 65.9966 60.3697 66.2149 59.8863 66.3114L50 68.2887V85.0963L69.3408 80.2611C69.9011 80.1209 70.407 79.8168 70.7933 79.3875L98.7554 48.321C99.6421 47.3359 99.7481 45.8749 99.0127 44.7719C96.4196 40.8821 91.0983 40.2624 87.6453 43.1974Z" fill="#DC9678"/>
<path d="M61.0252 55.8492C61.0252 52.2498 56.9526 49.6953 53.1506 49.6953H50V62.3747L56.4348 61.0877C59.4232 60.4898 61.0252 58.1648 61.0252 55.8492Z" fill="#DC9678"/>
</g>
<defs>
<clipPath id="clip0_471_18982">
<rect width="99" height="99" fill="white" transform="translate(0.5)"/>
</clipPath>
</defs>
</svg>
