<svg width="120" height="119" viewBox="0 0 120 119" fill="none" xmlns="http://www.w3.org/2000/svg">
<path d="M82.1641 85.7784L91.1918 88.3494L111.205 90.4821L114.883 88.7896C116.102 88.229 117 87.1455 117.326 85.8439L117.471 85.2643C117.659 84.5117 117.646 83.7224 117.433 82.9763C117.034 81.5808 115.979 80.4675 114.603 80.0036C112.732 79.3724 109.88 78.5082 106.87 77.9611C101.662 77.0142 93.3054 75.1172 93.3054 75.1172" fill="#514654"/>
<path d="M101.633 82.6058C96.1422 82.7178 91.8842 83.9878 91.4733 82.1577C91.1344 80.6479 94.8081 76.9807 96.1064 75.7415C94.4288 75.3724 93.3048 75.1172 93.3048 75.1172L83.4998 84.5005L83.041 86.0285L91.1916 88.3494L92.5071 88.4898L104.435 84.997L105.2 83.6382L109.514 83.0544C109.515 83.0544 107.124 82.4938 101.633 82.6058Z" fill="#403742"/>
<path d="M29.7011 88.554C26.9228 89.1453 16.1774 92.7181 15.7144 92.8171C15.4397 92.8757 14.4343 91.8981 13.6612 91.0925C13.083 90.4901 12.177 90.3427 11.4346 90.7253L7.91158 92.541L3.49185 93.4814C2.83084 93.6222 2.36088 94.2098 2.36925 94.8857C2.37808 95.6006 2.91777 96.1975 3.62805 96.2774L9.82256 96.9747C9.82256 96.9747 17.7928 95.7628 18.8177 96.0287C19.6828 96.2532 38.8316 97.4246 44.6054 97.7737L44.3372 89.004C39.1914 88.7293 31.6126 88.1473 29.7011 88.554Z" fill="#F5D3A6"/>
<path d="M40.6613 95.6743C40.6571 95.6743 40.6534 95.6743 40.6497 95.6743C33.6482 95.2453 21.639 94.4913 19.2246 94.2268C19.2055 94.2245 19.186 94.2226 19.1683 94.2208C19.1349 94.2171 19.1014 94.2133 19.0721 94.2096C19.0214 94.2036 18.9777 94.1975 18.9401 94.1924C18.9289 94.1906 18.9196 94.1892 18.9099 94.1878C18.8708 94.1817 18.8378 94.1757 18.8178 94.1706C17.7933 93.9047 9.82264 95.1165 9.82264 95.1165L3.62813 94.4193C3.53749 94.409 3.4501 94.39 3.36596 94.3639C3.35573 94.3607 3.34644 94.3551 3.33621 94.3519C3.2623 94.3272 3.19071 94.2984 3.12331 94.2621C3.12052 94.2608 3.11773 94.2584 3.11494 94.257C2.96433 94.1757 2.83139 94.0688 2.72029 93.9414C2.4372 94.2668 2.29821 94.7163 2.40513 95.1881C2.54086 95.7896 3.08008 96.2168 3.69274 96.2861L9.8231 96.9764C9.8231 96.9764 17.7933 95.7645 18.8183 96.0304C19.6834 96.2549 38.8321 97.4263 44.606 97.7754L44.5488 95.9123C43.5722 95.8524 42.2283 95.7706 40.6613 95.6743Z" fill="#F0C792"/>
<path d="M82.25 42.3086V47.936L89.3514 51.2262V44.0936L82.25 42.3086Z" fill="#F0C792"/>
<path d="M79.7962 71.4922L76.3298 74.034C74.9228 75.0659 73.7081 76.3377 72.7426 77.7913L70.7024 80.8625C69.3893 82.839 67.4871 84.3521 65.2656 85.1874C61.7407 86.5048 50.392 88.789 49.0835 89.0675C48.5057 89.1907 46.6719 89.1293 44.3379 89.0047L44.6061 97.7745L59.2236 97.5862C62.2892 97.5281 65.3 96.7616 68.0208 95.347L73.7239 92.3813C77.8489 90.2361 81.6746 87.5586 85.1028 84.4176L91.1914 79.9258L79.7962 71.4922Z" fill="#514654"/>
<path d="M92.4385 77.831L94.1119 71.8662L80.75 69.793L92.4385 77.831Z" fill="#F0C792"/>
<path d="M97.3185 56.2065C96.7505 55.2596 95.95 54.4736 94.9934 53.9227L84.559 47.0788C84.0844 46.852 83.5657 46.7344 83.0399 46.7344C81.36 46.7344 79.9134 47.9202 79.5838 49.5676L79.0683 52.1452C78.9958 52.5082 78.9809 52.8805 79.0241 53.2482L80.7506 69.793L94.113 71.8661L95.7553 66.0133C95.9045 65.4592 96.1267 64.927 96.4158 64.4314L97.3604 62.8119C98.5518 60.7671 98.536 58.236 97.3185 56.2065Z" fill="#7F8B4B"/>
<path d="M111.204 90.4811C111.204 90.4811 110.024 87.527 109.55 86.6391C109.077 85.7513 105.198 83.6367 105.198 83.6367C103.192 83.7873 101.128 84.1397 99.8082 84.8941L94.7678 87.4284L85.5639 89.7954L82.4774 89.0238C82.0307 88.9122 81.5579 88.9922 81.173 89.2451C80.3949 89.7559 80.0081 90.6907 80.1982 91.6018L80.572 93.3933C81.0206 95.5437 82.6373 97.2608 84.756 97.8386L85.6783 98.0901C86.2143 98.2361 86.7851 98.1798 87.282 97.9311L87.493 97.8256C88.5431 97.3003 89.0159 96.0583 88.5794 94.9677L88.2531 94.1519L102.607 93.1093L111.204 90.4811Z" fill="#F5D3A6"/>
<path d="M80.7497 24.2465L76.8794 31.8006C75.218 31.8364 73.6868 30.7575 72.7813 29.2249C71.4454 26.9649 72.1947 24.0503 74.4548 22.7143C76.613 21.4383 79.3426 22.2184 80.7497 24.2465Z" fill="#704C0F"/>
<path d="M74.5054 28.2105C74.5082 28.2156 74.5115 28.2203 74.5143 28.2254C74.8792 28.8381 75.7968 28.7386 76.0664 28.0785C76.785 26.3181 77.9141 24.7447 79.3124 23.7592C79.5197 23.6132 79.7354 23.4793 79.9553 23.3515C80.2495 23.6137 80.5196 23.9098 80.7511 24.2436L76.8808 31.7977C76.7027 31.8014 76.5275 31.7875 76.3537 31.7657C76.283 31.7573 76.2133 31.7452 76.1435 31.7331C76.052 31.7164 75.9613 31.695 75.8711 31.6718C75.6559 31.6178 75.4449 31.5481 75.2394 31.4598C75.238 31.4593 75.2366 31.4589 75.2357 31.4584C74.2433 31.0303 73.3777 30.2284 72.7837 29.2234C71.8967 27.7238 71.9683 25.8263 72.8655 24.3328C73.546 23.2 74.4338 22.604 75.3691 22.3047C73.7594 23.7917 73.3452 26.2475 74.5054 28.2105Z" fill="#5E400D"/>
<path d="M95.2502 27.8086C95.8155 30.057 95.5608 32.6406 95.5608 32.6406L97.4015 35.737L95.4046 37.2635C95.4046 37.2635 95.4878 40.0819 94.8728 41.3723C94.1713 42.844 91.9405 44.1413 90.5493 44.8005C89.4197 45.3355 88.2423 45.4122 87.0713 45.2309C85.5555 44.9962 84.0512 44.3287 82.6762 43.6635C81.211 42.9546 80.1986 41.3537 79.3921 40.007C79.1295 39.5682 78.8766 39.1099 78.6367 38.6399C80.4608 35.4892 95.2502 27.8091 95.2502 27.8086Z" fill="#F5D3A6"/>
<path d="M90.2771 22.6684C92.2086 23.1965 94.2218 25.0006 94.9563 26.8729C95.0734 27.1718 95.171 27.4861 95.2519 27.8073C95.2519 27.8073 80.462 35.4874 78.6388 38.6381C77.989 37.3645 77.44 35.9988 77.0918 34.6581C76.1654 31.0863 77.9411 26.2203 80.9589 24.0932C83.5713 22.2519 87.2589 21.8433 90.2771 22.6684Z" fill="#704C0F"/>
<path d="M87.0192 24.9493C89.3402 25.7926 91.0346 27.7584 92.1418 29.4797C91.9805 29.5685 91.8164 29.6587 91.6468 29.7526C90.5818 28.1098 88.9734 26.2486 86.8301 25.4695C84.8238 24.7402 82.3369 24.6016 80.2637 24.6597C80.4877 24.4571 80.7174 24.2646 80.9581 24.095C80.9623 24.0917 80.967 24.0894 80.9712 24.0861C82.9296 24.0791 85.151 24.2702 87.0192 24.9493Z" fill="#5E400D"/>
<path d="M81.8594 31.129C82.8774 32.1075 84.1804 32.8303 85.4401 33.3602C85.2458 33.4806 85.0538 33.601 84.8623 33.7214C83.6691 33.1845 82.4572 32.4724 81.4755 31.5283C80.2371 30.3374 79.0225 28.9405 78.0254 27.7157C78.1137 27.5339 78.2062 27.3554 78.3034 27.1797C79.3149 28.4329 80.576 29.8953 81.8594 31.129Z" fill="#5E400D"/>
<path d="M77.604 28.6875C78.0666 30.1462 78.6974 31.8122 79.4764 33.0965C80.1035 34.1304 81.0457 34.9699 81.9922 35.623C81.8276 35.7396 81.6691 35.8549 81.5125 35.9693C80.5716 35.2962 79.6438 34.4409 79.0028 33.3838C78.3171 32.2533 77.7491 30.863 77.3047 29.5633C77.3916 29.2681 77.4943 28.9762 77.604 28.6875Z" fill="#5E400D"/>
<path d="M90.2205 71.2624L88.6386 53.9052C88.4667 52.0202 87.5983 50.2668 86.2033 48.9881C84.3714 47.3086 81.467 47.6916 80.1325 49.7881C79.6435 50.5564 79.4315 51.4689 79.5324 52.3744L81.4805 69.906L90.2205 71.2624Z" fill="#727D43"/>
<path d="M44.6582 97.7773C44.681 97.7787 44.7093 97.7806 44.7414 97.7825C44.7154 97.7811 44.6875 97.7792 44.6582 97.7773Z" fill="#403742"/>
<path d="M89.9334 78.9948L79.7965 71.4922L78.0492 72.7738L78.5494 77.2744C78.6214 77.921 78.9561 78.5095 79.4749 78.9018L82.4266 81.1321C83.6399 82.0488 83.6557 83.8584 82.4703 84.8109C79.7519 86.9957 76.8234 88.9103 73.7243 90.5224L68.0211 93.4881C65.3008 94.9026 62.2901 95.6692 59.2244 95.7273L45.7379 95.9834C45.7379 95.9834 45.5752 95.9286 44.5488 95.8667L44.6069 97.7749L59.2244 97.5867C62.2901 97.5286 65.3008 96.762 68.0216 95.3475L73.7247 92.3818C77.8498 90.2365 81.6754 87.559 85.1037 84.4181L91.1922 79.9263L89.9334 78.9948Z" fill="#403742"/>
<path d="M45.0176 97.8008C45.0399 97.8022 45.0566 97.8031 45.0669 97.8036C45.0576 97.8031 45.0418 97.8022 45.0176 97.8008Z" fill="#403742"/>
<path d="M44.9707 97.7969C44.9888 97.7978 45.0051 97.7992 45.0181 97.7997C45.0037 97.7987 44.9879 97.7978 44.9707 97.7969Z" fill="#403742"/>
<path d="M44.7676 97.7852C44.8345 97.7893 44.9094 97.7935 44.9702 97.7972C44.9219 97.7945 44.8573 97.7903 44.7676 97.7852Z" fill="#403742"/>
<path d="M108.022 90.2588L101.084 84.3516C100.613 84.5045 100.179 84.6816 99.8083 84.894L94.768 87.4284L93.9824 87.6306L101.866 93.1631L102.607 93.1092L109.172 91.102L108.022 90.2588Z" fill="#F0C792"/>
<path d="M78.2711 49.7883C77.7821 50.5567 77.5702 51.4692 77.671 52.3747L80.2435 75.5271C80.3155 76.1737 80.6502 76.7622 81.169 77.1546L101.66 92.6362L110.654 96.4237H113.968L104.974 89.3223L88.6409 74.3506L86.7773 53.9049C86.6053 52.02 85.737 50.2666 84.342 48.9878C82.5101 47.3088 79.6057 47.6914 78.2711 49.7883Z" fill="#F5D3A6"/>
</svg>
