<svg width="120" height="119" viewBox="0 0 120 119" fill="none" xmlns="http://www.w3.org/2000/svg">
<path d="M100.737 15.5469L67.4824 25.2156C67.4824 25.2156 67.3894 37.5084 62.7921 47.993C60.024 54.3125 56.9676 62.0289 60.0728 67.9812C62.397 72.4182 67.2779 73.8778 76.1424 76.5042C82.2691 78.3194 89.2603 80.281 96.0215 77.0178C97.8843 76.0939 99.5839 74.8724 101.053 73.4013C114.903 59.5885 104.788 27.0494 103.41 22.7775C102.367 19.5445 101.346 16.9995 100.737 15.5469Z" fill="#2D1929"/>
<mask id="mask0_471_19080" style="mask-type:luminance" maskUnits="userSpaceOnUse" x="78" y="44" width="13" height="23">
<path d="M90.3262 66.4883H78.8283V44.0828H90.3262V66.4883Z" fill="white"/>
</mask>
<g mask="url(#mask0_471_19080)">
<path d="M90.3262 66.4883H78.8283V44.0828H90.3262V66.4883Z" fill="#F5B493"/>
<path d="M92.3072 54.4609C87.3055 56.2158 81.8553 56.2158 76.8535 54.4609V46.0938L92.3072 46.7329V54.4609Z" fill="#EBA284"/>
</g>
<path d="M77.9485 58.8555C77.9485 58.8555 63.5523 61.0751 59.9358 68.1802C56.3194 75.2854 51.6035 111.843 51.6035 111.843H67.722L77.9485 58.8555Z" fill="#E73F46"/>
<path d="M91.6845 59.2852C103.838 62.216 107.076 68.159 107.97 70.1764C109.342 73.2677 108.354 78.9597 106.318 90.2205C104.754 98.8782 101.881 111.836 101.902 111.836H89.1465L91.6845 59.2852Z" fill="#E73F46"/>
<path d="M43.8583 66.168L38.2871 68.613L40.7624 70.7955L51.2865 69.7054V66.67L43.8583 66.168Z" fill="#F5B493"/>
<path d="M69.3906 27.2451C69.3906 27.2451 69.6672 13.8692 79.1523 10.4828C79.2383 10.4665 79.3197 10.4595 79.4057 10.4456C85.6509 8.04468 90.204 10.4061 90.6061 10.4828C92.1399 11.0364 93.544 11.8986 94.7316 13.0162C100.156 18.0969 100.349 27.2381 100.349 27.2404C100.415 27.7552 100.441 28.2742 100.426 28.793C100.34 31.3496 98.799 37.2741 98.4712 39.3054C96.5305 45.697 91.5358 53.5436 84.7398 53.2089C76.4981 52.7162 73.1814 42.6407 72.2355 39.5797C71.2198 36.2909 70.39 33.0974 70.2529 32.607C69.9338 31.4901 69.8127 30.3259 69.895 29.1672C69.7207 28.4978 69.5533 27.8401 69.3906 27.2451Z" fill="#F5B493"/>
<path d="M85.3853 39.4709C86.4962 39.1896 87.1401 38.7736 87.2981 38.2228C87.663 36.9654 85.2969 36.1031 85.6572 31.6034C85.6597 31.5726 85.6743 31.544 85.6978 31.5239C85.7213 31.5039 85.7519 31.494 85.7827 31.4965C85.8135 31.4989 85.8421 31.5135 85.8622 31.5371C85.8822 31.5606 85.8921 31.5912 85.8896 31.622C85.5363 36.038 87.9326 36.884 87.5166 38.2878C87.333 38.9177 86.6357 39.3918 85.4387 39.6963C85.4098 39.7008 85.3803 39.6942 85.356 39.6779C85.3318 39.6616 85.3146 39.6367 85.3078 39.6083C85.3011 39.5798 85.3053 39.5499 85.3197 39.5244C85.334 39.499 85.3574 39.4798 85.3853 39.4709Z" fill="#2D1929"/>
<path d="M92.8642 32.5554C92.8642 33.6385 92.2925 34.5147 91.5929 34.5147C90.8933 34.5147 90.3262 33.6362 90.3262 32.5531C90.3262 31.47 90.8979 30.5938 91.5975 30.5938C92.2971 30.5938 92.8642 31.4723 92.8642 32.5554Z" fill="#2D1929"/>
<path d="M94.8081 27.5857C94.7527 27.5857 94.6991 27.566 94.657 27.53C94.5547 27.4416 92.112 25.3987 89.2718 27.0186C89.2187 27.0464 89.1569 27.0526 89.0993 27.0359C89.0417 27.0192 88.9928 26.9809 88.9628 26.929C88.9328 26.8771 88.9241 26.8156 88.9383 26.7574C88.9526 26.6992 88.9888 26.6487 89.0394 26.6165C92.1701 24.8292 94.9289 27.1534 94.9568 27.1767C94.9928 27.2074 95.0185 27.2484 95.0306 27.2942C95.0426 27.3399 95.0404 27.3883 95.0242 27.4328C95.0081 27.4772 94.9787 27.5157 94.9401 27.543C94.9014 27.5704 94.8554 27.5853 94.8081 27.5857Z" fill="#2D1929"/>
<path d="M80.483 32.5531C80.483 33.6362 79.9159 34.5124 79.2163 34.5147C78.5167 34.517 77.9473 33.6385 77.9473 32.5554C77.9473 31.4723 78.5121 30.5938 79.2116 30.5938C79.9112 30.5938 80.4807 31.47 80.483 32.5531Z" fill="#2D1929"/>
<path d="M76.002 27.5857C75.9545 27.5857 75.9081 27.5712 75.8691 27.544C75.8301 27.5169 75.8004 27.4784 75.7839 27.4338C75.7675 27.3893 75.7651 27.3407 75.777 27.2947C75.789 27.2488 75.8148 27.2076 75.8509 27.1767C75.8788 27.1534 78.64 24.8292 81.7684 26.6165C81.7961 26.6311 81.8207 26.6511 81.8405 26.6753C81.8604 26.6996 81.8751 26.7276 81.8838 26.7577C81.8926 26.7878 81.8951 26.8194 81.8913 26.8505C81.8876 26.8816 81.8775 26.9117 81.8618 26.9388C81.8462 26.9659 81.8251 26.9896 81.8001 27.0084C81.775 27.0272 81.7464 27.0408 81.7159 27.0482C81.6855 27.0557 81.6538 27.0569 81.6229 27.0518C81.592 27.0467 81.5624 27.0354 81.5359 27.0186C78.6957 25.3917 76.2553 27.4416 76.1507 27.53C76.1092 27.5654 76.0566 27.5852 76.002 27.5857Z" fill="#2D1929"/>
<path d="M87.8276 57.6992C87.8276 57.6992 104.583 62.5801 106.01 68.6045C107.437 74.6288 100.125 111.835 100.125 111.835H61.9242C61.9242 111.835 59.0933 75.6817 61.9242 67.1774C64.7551 58.6731 87.8276 57.6992 87.8276 57.6992Z" fill="#E73F46"/>
<path d="M58.2903 31.0955L14.2541 36.1016C12.7741 36.2698 11.7106 37.6061 11.8789 39.0862L15.3168 69.3276C15.4851 70.8077 16.8213 71.8712 18.3014 71.7029L62.3375 66.6968C63.8176 66.5285 64.881 65.1923 64.7127 63.7122L61.2748 33.4707C61.1066 31.9907 59.7703 30.9272 58.2903 31.0955Z" fill="#287EEF"/>
<path d="M56.2519 35.3046L22.0898 39.1882C20.9734 39.3151 20.1712 40.323 20.2982 41.4395L22.9928 65.1429C23.1197 66.2593 24.1277 67.0615 25.2441 66.9345L59.4061 63.0509C60.5226 62.924 61.3247 61.9161 61.1978 60.7996L58.5032 37.0962C58.3762 35.9798 57.3683 35.1776 56.2519 35.3046Z" fill="#86EBF9"/>
<path d="M55.105 38.0428L23.8262 41.5986C23.3376 41.6542 22.9864 42.0954 23.042 42.5841L25.4089 63.4042C25.4644 63.8929 25.9056 64.244 26.3943 64.1885L57.6731 60.6326C58.1618 60.5771 58.5129 60.1359 58.4573 59.6472L56.0905 38.827C56.0349 38.3384 55.5937 37.9872 55.105 38.0428Z" fill="#1573D8"/>
<path d="M15.3366 46.1407L18.802 45.7467C18.8587 45.7403 18.9162 45.7451 18.9711 45.7608C19.0259 45.7766 19.0772 45.803 19.1219 45.8385C19.1665 45.8741 19.2038 45.9181 19.2314 45.9681C19.2591 46.018 19.2767 46.0729 19.2831 46.1296L19.4179 47.3148C19.4309 47.4294 19.3979 47.5445 19.326 47.6347C19.2542 47.7249 19.1495 47.7829 19.0349 47.796L15.5695 48.1899C15.455 48.2029 15.3399 48.1699 15.2497 48.0981C15.1594 48.0263 15.1014 47.9216 15.0884 47.807L14.9537 46.6218C14.9406 46.5066 14.9738 46.391 15.046 46.3002C15.1182 46.2095 15.2234 46.1512 15.3386 46.1381L15.3366 46.1407Z" fill="#86EBF9"/>
<path d="M15.7193 49.5108L19.1986 49.1153C19.3138 49.1022 19.4294 49.1354 19.5201 49.2076C19.6109 49.2798 19.6692 49.385 19.6823 49.5002L19.817 50.6854C19.8235 50.7423 19.8186 50.8 19.8028 50.855C19.7869 50.9101 19.7603 50.9614 19.7245 51.0062C19.6887 51.0509 19.6444 51.0881 19.5942 51.1157C19.5439 51.1433 19.4888 51.1606 19.4318 51.1668L15.9664 51.5607C15.8512 51.5738 15.7355 51.5406 15.6448 51.4684C15.5541 51.3962 15.4958 51.291 15.4827 51.1758L15.3479 49.9906C15.3351 49.878 15.3667 49.7648 15.4361 49.6752C15.5055 49.5856 15.6071 49.5266 15.7193 49.5108Z" fill="#86EBF9"/>
<path d="M19.5723 52.4858L16.1 52.8806C15.8614 52.9077 15.69 53.1231 15.7171 53.3617L15.8521 54.5492C15.8792 54.7878 16.0946 54.9592 16.3332 54.9321L19.8056 54.5374C20.0442 54.5102 20.2156 54.2948 20.1885 54.0562L20.0535 52.8687C20.0263 52.6301 19.8109 52.4587 19.5723 52.4858Z" fill="#86EBF9"/>
<path d="M16.4832 56.2436L19.9486 55.8496C20.0638 55.8365 20.1794 55.8698 20.2702 55.9419C20.3609 56.0141 20.4192 56.1194 20.4323 56.2346L20.5667 57.4175C20.5798 57.532 20.5467 57.6471 20.4749 57.7373C20.4031 57.8276 20.2984 57.8856 20.1838 57.8986L16.7184 58.2925C16.6614 58.2993 16.6036 58.2948 16.5484 58.2793C16.4931 58.2637 16.4415 58.2375 16.3964 58.202C16.3512 58.1665 16.3136 58.1224 16.2855 58.0723C16.2574 58.0223 16.2395 57.9672 16.2327 57.9102L16.0979 56.725C16.0915 56.6681 16.0963 56.6104 16.1122 56.5554C16.1281 56.5003 16.1547 56.4489 16.1905 56.4042C16.2263 56.3595 16.2706 56.3223 16.3208 56.2947C16.371 56.2671 16.4262 56.2498 16.4832 56.2436Z" fill="#86EBF9"/>
<path d="M20.3399 59.2241L16.8676 59.6189C16.629 59.646 16.4575 59.8614 16.4847 60.1L16.6197 61.2875C16.6468 61.5261 16.8622 61.6975 17.1008 61.6704L20.5731 61.2756C20.8117 61.2485 20.9832 61.0331 20.956 60.7945L20.821 59.607C20.7939 59.3684 20.5785 59.197 20.3399 59.2241Z" fill="#86EBF9"/>
<path d="M78.8262 58.7014C78.9005 59.0199 79.7396 62.3946 82.4984 63.3359C86.2846 64.6282 90.7727 60.347 90.3241 58.5039C90.0429 57.3418 87.7674 56.9862 86.7053 56.8188C82.9842 56.2447 79.9883 57.9554 78.8262 58.7014Z" fill="#F5B493"/>
<path d="M89.9035 96.1704C89.9035 96.1704 92.6415 95.4103 95.5491 97.9252C98.4567 100.44 103.096 108.003 103.252 111.845H81.4922L89.9035 96.1704Z" fill="#CC3745"/>
<path d="M42.707 98.8666C42.707 98.8666 52.4525 94.3064 57.3264 98.8666C62.2003 103.427 60.0155 111.843 60.0155 111.843L46.3212 111.817L42.707 98.8666Z" fill="#CC3745"/>
<path d="M42.4464 71.8164C41.887 85.1528 41.3261 98.4891 40.7637 111.826H58.0117L54.0814 71.9675L42.4464 71.8164Z" fill="#F5B493"/>
<path d="M65.8787 67.9375L62.8572 79.9235C57.7276 85.1437 57.7439 92.6881 60.5771 99.3005C60.1355 103.484 59.6932 107.668 59.25 111.851L83.4358 111.819C83.4358 111.819 70.0088 109.33 65.7718 106.38C61.5347 103.431 63.4127 98.5986 63.4127 98.5986C62.0919 95.7368 61.5699 92.571 61.9022 89.4367C62.2344 86.3024 63.4085 83.3163 65.2999 80.7951C65.4859 76.5077 65.6788 72.2218 65.8787 67.9375Z" fill="#CC3745"/>
<path d="M95.47 69.1133C95.47 69.1133 91.1074 74.3009 90.8727 83.0261C90.6379 91.7512 87.5723 101.536 87.5723 101.536L92.3718 103.193C92.3718 103.193 94.2916 90.2892 93.585 84.7739C92.8785 79.2585 95.47 69.1133 95.47 69.1133Z" fill="#CC3745"/>
<path d="M65.2891 75.6004L70.8672 85.5039L79.0229 111.837H98.874L74.0049 69.6992L65.2891 75.6004Z" fill="#F5B493"/>
<path d="M82.6602 41.8047H89.7351C89.6115 42.6547 89.186 43.4318 88.5364 43.9938C87.8868 44.5558 87.0566 44.8651 86.1976 44.8651C85.3387 44.8651 84.5084 44.5558 83.8588 43.9938C83.2093 43.4318 82.7837 42.6547 82.6602 41.8047Z" fill="#EDEDED"/>
<path d="M82.659 14.1329C82.659 14.1329 81.1692 27.8249 71.9328 30.2142L68.5999 33.2194C68.5999 33.2194 65.2414 17.1986 69.3901 12.0109C73.5388 6.82325 83.8374 7.84359 83.8374 7.84359C83.8374 7.84359 93.1134 5.78201 97.9873 9.36827C102.861 12.9545 101.994 32.5547 101.994 32.5547C101.994 32.5547 94.2127 30.4025 90.9124 21.9144C87.612 13.4264 82.659 14.1329 82.659 14.1329Z" fill="#2D1929"/>
<path d="M95.0954 31.6922C96.1204 29.1565 98.6421 27.7852 100.729 28.6266C102.816 29.468 103.676 32.2082 102.651 34.7439C101.626 37.2797 99.1047 38.6509 97.0198 37.8096C94.935 36.9682 94.0751 34.2256 95.0954 31.6922Z" fill="#F5B493"/>
<path d="M98.9991 36.0054C98.9755 36.0052 98.9524 35.9978 98.9331 35.9841C98.9138 35.9704 98.8991 35.9512 98.8911 35.929C98.883 35.9067 98.8819 35.8825 98.8879 35.8597C98.8939 35.8368 98.9068 35.8163 98.9248 35.8009C99.1432 35.615 99.708 35.0432 99.6824 34.6132C99.6546 34.1019 98.8945 33.9276 98.8876 33.916C98.8612 33.9096 98.8378 33.8943 98.8213 33.8728C98.8047 33.8512 98.7962 33.8246 98.7969 33.7974C98.8574 32.1286 99.7452 29.7951 101.386 30.1205C101.401 30.1236 101.415 30.1295 101.428 30.1381C101.441 30.1466 101.451 30.1576 101.46 30.1703C101.468 30.183 101.474 30.1973 101.477 30.2123C101.48 30.2273 101.48 30.2427 101.477 30.2576C101.474 30.2728 101.468 30.2871 101.46 30.3C101.451 30.3128 101.44 30.3237 101.428 30.3322C101.415 30.3407 101.4 30.3465 101.385 30.3492C101.37 30.352 101.355 30.3517 101.34 30.3483C99.8963 30.0601 99.1153 32.2449 99.034 33.7138C99.2664 33.7881 99.8847 34.0299 99.9149 34.59C99.9521 35.2245 99.1107 35.938 99.0735 35.9683C99.0543 35.9896 99.0277 36.0029 98.9991 36.0054Z" fill="#2D1929"/>
<path d="M70.0767 28.6266C72.1685 27.7852 74.6856 29.1565 75.7129 31.6922C76.7402 34.228 75.8756 36.9659 73.7861 37.8096C71.6966 38.6533 69.1795 37.2797 68.1545 34.7439C67.1295 32.2082 67.9918 29.4703 70.0767 28.6266Z" fill="#F5B493"/>
<path d="M71.8123 36.0047C71.785 36.0047 71.7586 35.9948 71.7379 35.9768C71.7008 35.9466 70.8617 35.2331 70.8966 34.5986C70.9291 34.0384 71.5381 33.7967 71.7775 33.7223C71.6961 32.2534 70.9152 30.071 69.4718 30.3569C69.441 30.363 69.409 30.3567 69.3829 30.3393C69.3567 30.3218 69.3385 30.2947 69.3324 30.2639C69.3262 30.2331 69.3325 30.2011 69.35 30.1749C69.3674 30.1488 69.3945 30.1306 69.4253 30.1245C71.0662 29.7991 71.9541 32.1302 72.0145 33.8014C72.0157 33.8286 72.0073 33.8554 71.9907 33.8771C71.9742 33.8988 71.9505 33.9139 71.9239 33.9199C71.9239 33.9199 71.1569 34.0965 71.129 34.6172C71.1058 35.0471 71.6682 35.6189 71.8867 35.8048C71.9031 35.8205 71.9145 35.8407 71.9195 35.8628C71.9246 35.8849 71.923 35.908 71.9151 35.9292C71.9072 35.9504 71.8933 35.9689 71.875 35.9823C71.8568 35.9957 71.835 36.0035 71.8123 36.0047Z" fill="#2D1929"/>
<path d="M61.3418 64.8446L59.4824 61.9648L62.9199 62.2135C63.3847 62.2482 63.8347 62.3924 64.2331 62.6342L85.1255 75.3988C86.6688 76.3401 87.3405 78.0903 86.5851 79.278C86.0087 80.1821 84.4933 80.4587 83.1151 79.5406L62.1646 65.672C61.8359 65.4562 61.5557 65.1745 61.3418 64.8446Z" fill="#EDEDED"/>
<path d="M65.3187 67.6546L67.232 64.6474C67.3099 64.525 67.2738 64.3626 67.1514 64.2847L65.2662 63.0853C65.1438 63.0074 64.9814 63.0435 64.9035 63.1659L62.9902 66.1731C62.9123 66.2956 62.9484 66.4579 63.0708 66.5358L64.956 67.7353C65.0784 67.8132 65.2408 67.7771 65.3187 67.6546Z" fill="#C6C6C6"/>
<path d="M58.7447 61.359C58.7785 61.303 58.8231 61.2544 58.8759 61.2158C58.9287 61.1773 58.9886 61.1496 59.0522 61.1345C59.1158 61.1193 59.1818 61.117 59.2463 61.1276C59.3108 61.1382 59.3726 61.1616 59.428 61.1963L60.5901 61.9377C60.6924 62.0123 60.7625 62.1231 60.786 62.2476C60.8094 62.372 60.7845 62.5008 60.7163 62.6075C60.6481 62.7142 60.5418 62.7909 60.419 62.8219C60.2962 62.853 60.1662 62.836 60.0555 62.7744L58.8934 62.033C58.7843 61.9633 58.7073 61.8532 58.6794 61.7268C58.6515 61.6004 58.675 61.4681 58.7447 61.359Z" fill="#C6C6C6"/>
<path d="M78.8277 78.0734C78.8277 78.0734 77.5888 71.6284 76.4081 69.1136C75.2274 66.5988 67.2182 64.0305 66.8998 65.2159C66.5813 66.4012 71.0508 68.8393 71.0508 68.8393L72.0851 70.529C72.0851 70.529 66.7394 67.8794 65.8678 68.1327C64.9962 68.3861 65.5424 70.0967 65.5424 70.0967C65.5424 70.0967 63.6133 70.5267 64.7731 72.4744C64.4288 72.6068 64.1249 72.8263 63.891 73.1115C63.6572 73.3967 63.5014 73.7378 63.439 74.1013C63.1833 75.3983 63.346 80.1443 64.708 80.1071C66.07 80.0699 66.1026 75.791 66.1026 75.791L78.8277 78.0734Z" fill="#F5B493"/>
<path d="M67.0573 73.6339C67.0178 73.6339 67.1642 73.6943 64.7331 72.581C64.719 72.575 64.7063 72.5662 64.6957 72.5552C64.6851 72.5441 64.6769 72.531 64.6714 72.5167C64.666 72.5024 64.6635 72.4871 64.6642 72.4718C64.6648 72.4565 64.6684 72.4415 64.675 72.4276C64.6877 72.3996 64.7109 72.3778 64.7397 72.3669C64.7685 72.356 64.8003 72.357 64.8284 72.3695L67.1108 73.4131C67.1347 73.4247 67.1539 73.4441 67.1653 73.4681C67.1766 73.4921 67.1794 73.5193 67.1732 73.5451C67.1669 73.5709 67.152 73.5938 67.1309 73.61C67.1099 73.6261 67.0839 73.6346 67.0573 73.6339Z" fill="#2D1929"/>
<path d="M69.9953 71.9431C69.9627 71.9431 70.244 72.0477 65.4932 70.2046C65.4789 70.1994 65.4658 70.1914 65.4546 70.1811C65.4434 70.1708 65.4344 70.1583 65.4281 70.1444C65.4218 70.1306 65.4184 70.1156 65.418 70.1004C65.4176 70.0852 65.4203 70.07 65.4258 70.0558C65.4313 70.0414 65.4395 70.0282 65.45 70.017C65.4606 70.0058 65.4732 69.9968 65.4873 69.9906C65.5013 69.9843 65.5165 69.9809 65.5319 69.9805C65.5473 69.9801 65.5626 69.9828 65.5769 69.9884L70.0371 71.7177C70.063 71.727 70.0847 71.7453 70.0984 71.7692C70.112 71.7931 70.1168 71.821 70.1118 71.8481C70.1067 71.8752 70.0923 71.8996 70.0709 71.917C70.0496 71.9344 70.0228 71.9436 69.9953 71.9431Z" fill="#2D1929"/>
<path d="M54.1892 72.998C55.2328 68.768 54.6215 65.1445 53.3293 63.6338C52.7548 63.0242 52.1228 62.4715 51.442 61.9836C50.4124 61.2282 49.6407 60.6634 49.2014 60.9237C48.7622 61.184 48.8575 62.2997 49.0248 62.9272C49.0862 63.167 49.1792 63.3976 49.3014 63.6128C49.6599 64.1984 50.0607 64.7569 50.5007 65.284C50.847 65.7906 50.9423 66.7738 49.7918 68.8818L40.123 70.2392L44.2509 74.2461L54.1892 72.998Z" fill="#F5B493"/>
</svg>
