<svg width="120" height="119" viewBox="0 0 120 119" fill="none" xmlns="http://www.w3.org/2000/svg">
<path d="M56.2811 36.8771C51.4467 32.9074 42.7007 36.5889 42.624 41.9091C42.5473 47.2292 43.2748 56.6121 52.7622 59.6545C62.2497 62.6969 66.1753 54.6551 66.1753 54.6551C53.3898 53.8788 56.2811 36.8771 56.2811 36.8771Z" fill="#383333"/>
<path d="M14.4746 34.9788C15.0771 35.2607 15.6335 35.6321 16.1248 36.0805C17.1183 37.007 17.8147 38.2073 18.126 39.5296C18.1588 38.3501 18.6009 37.2186 19.3764 36.3292C20.0294 35.6014 20.8809 35.0803 21.8261 34.8301C21.0057 34.7162 20.2298 34.3883 19.5763 33.8795C18.6447 33.1277 18.0218 32.0599 17.8261 30.8789C17.8116 31.721 17.5506 32.5403 17.0754 33.2357C16.4525 34.1169 15.5265 34.7375 14.4746 34.9788Z" fill="#FFB833"/>
<path d="M13.6914 91.2213C14.1523 91.4349 14.5773 91.7188 14.9511 92.0627C15.712 92.7703 16.2445 93.6888 16.4805 94.7007C16.5058 93.7984 16.8443 92.9331 17.438 92.2533C17.9368 91.6961 18.5882 91.2977 19.3114 91.1074C18.6835 91.0215 18.0894 90.7714 17.5891 90.3823C16.8776 89.8062 16.4021 88.9892 16.2527 88.0859C16.2396 88.7278 16.0402 89.352 15.6786 89.8826C15.2021 90.5567 14.4952 91.0329 13.6914 91.2213Z" fill="#FFB833"/>
<path d="M71.0312 65.4283C71.4917 65.6428 71.9165 65.9266 72.291 66.2697C73.0514 66.9777 73.5838 67.896 73.8203 68.9077C73.8456 68.0054 74.1842 67.1401 74.7779 66.4603C75.2763 65.9027 75.9278 65.5042 76.6512 65.3145C76.0235 65.2263 75.4298 64.9755 74.929 64.587C74.2176 64.0118 73.742 63.1955 73.5925 62.293C73.5795 62.9348 73.38 63.5591 73.0185 64.0896C72.5419 64.7637 71.835 65.24 71.0312 65.4283Z" fill="#FFB833"/>
<path d="M96.5862 62.3696C96.5315 62.3706 96.4782 62.3523 96.4357 62.3178C96.3932 62.2834 96.3642 62.2351 96.3538 62.1813C94.1876 50.6974 94.6502 41.9909 95.4241 36.7102C96.2608 30.9741 97.6344 27.9084 97.6484 27.8782C97.674 27.8221 97.7208 27.7785 97.7785 27.7569C97.8363 27.7353 97.9003 27.7376 97.9563 27.7631C98.0124 27.7887 98.0561 27.8355 98.0777 27.8933C98.0992 27.951 98.097 28.015 98.0714 28.0711C98.0179 28.192 92.6932 40.2663 96.814 62.0953C96.8197 62.1254 96.8194 62.1563 96.8132 62.1863C96.8069 62.2162 96.7948 62.2447 96.7775 62.2699C96.7602 62.2952 96.7382 62.3168 96.7125 62.3335C96.6869 62.3502 96.6582 62.3617 96.6281 62.3673L96.5862 62.3696Z" fill="#383333"/>
<path d="M90.6478 61.4263H90.6199C90.5895 61.4225 90.5602 61.4128 90.5335 61.3977C90.5069 61.3826 90.4835 61.3623 90.4647 61.3381C90.4459 61.3139 90.4321 61.2863 90.424 61.2567C90.416 61.2272 90.4138 61.1963 90.4177 61.1659C92.7048 42.1771 86.5247 39.123 86.4666 39.0859C86.4102 39.0609 86.366 39.0145 86.3438 38.957C86.3215 38.8995 86.3231 38.8355 86.348 38.7791C86.373 38.7227 86.4193 38.6785 86.4769 38.6563C86.5344 38.634 86.5984 38.6356 86.6548 38.6605C86.9244 38.7814 93.2207 41.8145 90.8826 61.2054C90.8796 61.2655 90.8534 61.322 90.8097 61.3631C90.7659 61.4043 90.7079 61.4269 90.6478 61.4263Z" fill="#383333"/>
<path d="M95.0234 47.5011C95.0234 47.5011 95.1164 42.6923 98.4284 41.5604C101.74 40.4285 102.349 39.7011 102.428 40.5494C102.507 41.3977 97.2338 49.5255 95.0234 47.5011Z" fill="#00CCC1"/>
<path d="M90.6089 48.5862C90.6089 48.5862 87.4177 44.9859 89.0865 41.911C90.7553 38.8361 90.7135 37.8878 91.3433 38.4572C91.9732 39.0266 93.6048 48.5745 90.6089 48.5862Z" fill="#00CCC1"/>
<path d="M95.8043 38.3253C95.8043 38.3253 95.7113 33.5165 92.3993 32.3846C89.0873 31.2528 88.4783 30.5253 88.3993 31.3736C88.3203 32.222 93.5939 40.3497 95.8043 38.3253Z" fill="#00CCC1"/>
<path d="M83.3073 35.4875C83.3073 35.4875 81.5083 35.2039 81.9127 36.373C82.3172 37.5421 83.3863 39.7013 84.983 40.1452C86.5798 40.5891 87.5931 39.3968 87.5676 37.9279C87.542 36.459 85.3921 35.1923 84.6251 34.674C83.8581 34.1557 83.2561 34.5369 83.3073 35.4875Z" fill="#FFB833"/>
<path d="M94.6492 26.5714C94.6492 26.5714 91.4465 26.4994 91.6998 28.3936C91.9532 30.2878 93.8869 31.1246 96.0531 30.1414C96.0531 30.1414 95.2605 35.2012 98.6864 34.8015C102.112 34.4017 100.111 29.486 100.111 29.486C100.111 29.486 104.843 30.9061 105.245 28.8306C105.647 26.755 103.463 25.2257 100.258 26.0996C100.258 26.0996 104.007 23.1873 102.514 21.7673C101.022 20.3472 98.7957 21.5488 97.9078 24.6795C97.9078 24.6795 97.2338 21.1467 94.6539 21.5836C92.074 22.0206 92.6109 24.9328 94.6492 26.5714Z" fill="#FFB833"/>
<path d="M98.1831 28.8662C98.884 28.8662 99.4521 28.298 99.4521 27.5971C99.4521 26.8963 98.884 26.3281 98.1831 26.3281C97.4822 26.3281 96.9141 26.8963 96.9141 27.5971C96.9141 28.298 97.4822 28.8662 98.1831 28.8662Z" fill="#FF535C"/>
<path d="M81.0761 75.7401C81.0761 75.7401 83.663 74.2852 86.1266 74.578C88.5903 74.8709 92.4299 76.2352 95.9836 76.0725C99.5374 75.9098 99.5002 75.9516 98.61 77.4066C97.7198 78.8615 95.2166 79.3775 93.004 79.9539C90.7913 80.5303 84.9134 83.4565 83.0098 83.9051C81.1063 84.3537 79.3399 77.0324 81.0761 75.7401Z" fill="#FFB08D"/>
<path d="M43.3348 43.404C52.215 43.404 59.4137 36.2052 59.4137 27.325C59.4137 18.4449 52.215 11.2461 43.3348 11.2461C34.4546 11.2461 27.2559 18.4449 27.2559 27.325C27.2559 36.2052 34.4546 43.404 43.3348 43.404Z" fill="#FFB08D"/>
<path d="M49.2784 39.1123C48.5253 43.0333 48.2859 47.9653 51.1587 51.0518C51.8054 51.7316 52.564 52.2953 53.4015 52.7183C59.6235 56.2744 60.6973 70.2569 61.3945 83.6699C61.8315 91.9999 62.0918 99.3352 62.2475 105.415C56.245 108.119 49.6851 109.354 43.1104 109.018C36.5358 108.683 30.1356 106.787 24.4395 103.486C28.1907 92.7948 28.7881 84.1696 28.6393 78.2754C28.3906 68.3952 25.834 57.4504 30.6916 54.3964C32.5882 53.2087 36.2488 52.8136 37.8432 49.5155C38.1384 48.8815 38.3411 48.2083 38.4452 47.5167C39.0428 44.336 39.411 41.1164 39.5469 37.8828L49.2784 39.1123Z" fill="#FFB08D"/>
<path d="M59.4137 18.2758C61.3056 30.2456 59.4137 40.4837 53.6915 43.4378C52.2551 44.1816 50.756 44.3675 49.5497 44.5116C41.6474 45.4413 35.4417 41.439 32.9199 39.5726C32.9199 39.5726 39.358 -2.28654 59.4137 18.2758Z" fill="#FFB08D"/>
<path d="M33.3491 25.9042C33.1771 25.7368 32.2358 24.8513 30.8878 24.9489C30.6902 24.9628 29.9069 25.0209 29.377 25.516C28.0057 26.799 28.531 30.8501 30.8994 31.889C32.2242 32.4701 33.6303 31.889 34.1045 31.6775C33.8581 29.7531 33.6063 27.8286 33.3491 25.9042Z" fill="#FFB08D"/>
<path d="M31.8459 30.6317C31.8232 30.6313 31.8016 30.6221 31.7854 30.6062C31.1951 30.0367 30.9278 29.444 30.9906 28.849C31.0673 28.1216 31.6158 27.58 31.9388 27.3174L29.9447 27.408C29.9332 27.409 29.9216 27.4076 29.9107 27.404C29.8997 27.4004 29.8896 27.3946 29.8809 27.387C29.8723 27.3795 29.8652 27.3702 29.8602 27.3598C29.8552 27.3495 29.8523 27.3382 29.8517 27.3267C29.8511 27.3151 29.8527 27.3035 29.8566 27.2925C29.8605 27.2816 29.8665 27.2715 29.8742 27.2628C29.882 27.2542 29.8914 27.2472 29.9019 27.2422C29.9124 27.2372 29.9238 27.2343 29.9354 27.2337L32.2201 27.1291C32.2395 27.1277 32.2587 27.133 32.2748 27.1439C32.2908 27.1549 32.3027 27.171 32.3084 27.1896C32.3143 27.208 32.3139 27.2279 32.3072 27.246C32.3004 27.2641 32.2877 27.2795 32.2712 27.2895C32.2712 27.2895 31.2625 27.9287 31.1649 28.8676C31.1068 29.4069 31.3578 29.9507 31.9063 30.4806C31.9145 30.4887 31.9211 30.4982 31.9255 30.5088C31.93 30.5194 31.9323 30.5308 31.9323 30.5422C31.9323 30.5537 31.93 30.5651 31.9255 30.5757C31.9211 30.5862 31.9145 30.5958 31.9063 30.6038C31.8987 30.6124 31.8894 30.6192 31.879 30.624C31.8686 30.6288 31.8573 30.6315 31.8459 30.6317Z" fill="#383333"/>
<path d="M39.8073 24.0697C40.6431 23.4721 41.6432 23.1474 42.6707 23.14C43.368 23.1214 44.3093 23.0981 44.5998 23.6443C44.6651 23.7628 44.6976 23.8966 44.6939 24.0318C44.6903 24.1671 44.6505 24.2989 44.5789 24.4137C44.2535 24.8506 43.4331 24.4555 42.1059 24.4439C40.3604 24.4276 39.2262 25.09 39.11 24.839C39.0263 24.653 39.5865 24.2347 39.8073 24.0697Z" fill="#383333"/>
<path d="M57.6749 24.1874C56.8286 23.6047 55.8227 23.2978 54.7952 23.3089C54.098 23.3089 53.1566 23.3089 52.8777 23.8504C52.8144 23.97 52.784 24.1043 52.7897 24.2395C52.7955 24.3747 52.8371 24.5059 52.9103 24.6197C53.245 25.0497 54.0584 24.6383 55.3832 24.6011C57.1287 24.55 58.2769 25.1892 58.3885 24.9382C58.4559 24.7545 57.8864 24.3478 57.6749 24.1874Z" fill="#383333"/>
<path d="M49.5976 31.6309C49.2234 31.6309 48.9003 31.6077 48.7655 31.5961C48.7502 31.5949 48.7354 31.5906 48.7217 31.5837C48.7081 31.5767 48.696 31.5671 48.686 31.5555C48.6761 31.5438 48.6686 31.5303 48.6639 31.5157C48.6592 31.5012 48.6574 31.4858 48.6586 31.4706C48.6598 31.4553 48.664 31.4404 48.671 31.4268C48.6779 31.4132 48.6875 31.401 48.6992 31.3911C48.7108 31.3812 48.7243 31.3737 48.7389 31.3689C48.7535 31.3642 48.7688 31.3624 48.7841 31.3637C49.6626 31.438 50.9595 31.3985 51.092 31.0801C51.2408 30.7198 50.5621 28.8814 50.0973 27.8076C50.0849 27.7792 50.0844 27.7472 50.0957 27.7184C50.107 27.6896 50.1293 27.6665 50.1577 27.6542C50.1861 27.6419 50.2181 27.6413 50.2469 27.6526C50.2757 27.664 50.2988 27.6863 50.3111 27.7146C50.4366 28.0098 51.5429 30.6013 51.3059 31.1684C51.1478 31.5496 50.2855 31.6309 49.5976 31.6309Z" fill="#383333"/>
<path d="M49.9298 36.9561C49.5925 36.9616 49.2582 36.8918 48.9513 36.7516C48.9338 36.7398 48.921 36.7222 48.9153 36.7018C48.9097 36.6814 48.9115 36.6597 48.9205 36.6406C48.9295 36.6214 48.9451 36.6062 48.9644 36.5975C48.9837 36.5889 49.0055 36.5875 49.0257 36.5935C49.8787 37.0026 50.9502 36.6098 50.9595 36.6052C50.9704 36.6006 50.9821 36.5983 50.994 36.5983C51.0058 36.5984 51.0175 36.6008 51.0284 36.6055C51.0393 36.6102 51.0491 36.617 51.0573 36.6255C51.0655 36.6341 51.0719 36.6442 51.0761 36.6553C51.0803 36.6663 51.0822 36.6781 51.0818 36.69C51.0813 36.7018 51.0785 36.7134 51.0735 36.7241C51.0685 36.7349 51.0613 36.7444 51.0525 36.7524C51.0437 36.7603 51.0334 36.7663 51.0222 36.7702C50.6706 36.8911 50.3017 36.954 49.9298 36.9561Z" fill="#383333"/>
<path d="M42.4434 32.5392C42.4548 31.873 41.5971 31.3182 40.5279 31.3001C39.4586 31.2819 38.5826 31.8072 38.5713 32.4734C38.56 33.1396 39.4176 33.6944 40.4869 33.7126C41.5561 33.7308 42.4321 33.2054 42.4434 32.5392Z" fill="#FF8C5F"/>
<path d="M58.3106 33.0392C58.322 32.373 57.4643 31.8182 56.3951 31.8001C55.3258 31.7819 54.4498 32.3072 54.4385 32.9734C54.4271 33.6396 55.2848 34.1944 56.354 34.2126C57.4233 34.2308 58.2993 33.7054 58.3106 33.0392Z" fill="#FF8C5F"/>
<path fill-rule="evenodd" clip-rule="evenodd" d="M44.8569 29.5778C44.657 29.7541 44.4093 29.8672 44.1451 29.9028C43.8809 29.9384 43.6121 29.8948 43.3727 29.7776C43.1333 29.6605 42.9339 29.4749 42.7999 29.2445C42.6659 29.0141 42.6032 28.7491 42.6198 28.483C42.6364 28.217 42.7314 27.9618 42.893 27.7498C43.0546 27.5377 43.2754 27.3784 43.5275 27.2918C43.7796 27.2052 44.0518 27.1954 44.3095 27.2634C44.5672 27.3315 44.799 27.4745 44.9755 27.6742C45.2112 27.9429 45.331 28.2938 45.3088 28.6505C45.2866 29.0071 45.1241 29.3405 44.8569 29.5778Z" fill="#383333"/>
<path fill-rule="evenodd" clip-rule="evenodd" d="M41.7254 27.6572C41.7556 27.6316 42.0182 28.0918 42.3599 28.057C42.6086 28.0337 42.6737 27.7571 42.9921 27.5154C43.2699 27.3164 43.6033 27.2098 43.945 27.2109C43.8004 27.4971 43.6174 27.7622 43.4012 27.9989C43.092 28.3335 42.8945 28.5497 42.6249 28.552C42.0787 28.5683 41.6859 27.6967 41.7254 27.6572Z" fill="#383333"/>
<path fill-rule="evenodd" clip-rule="evenodd" d="M55.9393 29.6359C55.7628 29.8368 55.5307 29.9808 55.2724 30.0497C55.0141 30.1186 54.7411 30.1092 54.4881 30.0228C54.2351 29.9363 54.0134 29.7768 53.8512 29.5642C53.6889 29.3517 53.5935 29.0958 53.5768 28.8289C53.5602 28.5621 53.6232 28.2963 53.7577 28.0653C53.8923 27.8342 54.0924 27.6483 54.3327 27.5312C54.573 27.414 54.8427 27.3708 55.1076 27.407C55.3725 27.4432 55.6207 27.5573 55.8207 27.7347C56.0867 27.9723 56.2483 28.3051 56.2704 28.661C56.2926 29.0169 56.1736 29.3672 55.9393 29.6359Z" fill="#383333"/>
<path fill-rule="evenodd" clip-rule="evenodd" d="M57.163 27.8408C57.1328 27.8152 56.8678 28.2731 56.5285 28.2405C56.2775 28.2173 56.2124 27.9407 55.894 27.699C55.6168 27.5004 55.2843 27.3939 54.9434 27.3945C55.0863 27.6817 55.2694 27.947 55.4872 28.1824C55.7963 28.5171 55.9939 28.7333 56.2635 28.7356C56.8097 28.7426 57.2095 27.8733 57.163 27.8408Z" fill="#383333"/>
<path d="M37.1599 50.5859C38.6331 51.8652 40.355 52.8258 42.2174 53.4075C47.3167 54.9787 51.7257 53.0752 52.9762 52.4779C54.5044 53.0343 55.9287 53.8427 57.19 54.8695C57.19 54.8695 61.0087 57.0775 61.9244 61.791C63.054 67.6015 60.9947 99.0017 63.7838 106.516C63.7838 106.516 36.028 116.092 23.1797 103.243C26.3476 94.8321 27.1587 87.8664 27.3005 83.0018C27.6863 69.6724 23.3889 61.3099 28.2697 55.246C30.7148 52.1966 34.4336 51.0647 37.1599 50.5859Z" fill="#FFF3E3"/>
<path d="M53.5827 52.8101C56.7111 53.4237 58.7123 54.6695 60.0232 55.8525C64.2811 59.6828 64.0557 64.9518 66.5682 75.0017C66.5682 75.0017 66.5681 75.0017 69.9615 84.6984L60.8715 87.7198C54.2912 77.3478 51.7011 64.9391 53.5827 52.8008V52.8101Z" fill="#FFF3E3"/>
<path d="M83.3342 74.9624C80.845 75.4621 77.0588 76.1826 72.4267 76.9008C63.7666 78.2442 60.4964 78.2954 58.8509 80.852C57.5447 82.895 57.4912 86.1791 58.9322 87.9641C63.4087 93.5097 82.4301 84.7102 85.8397 83.1158C85.7676 80.2168 84.9009 77.3933 83.3342 74.9531V74.9624Z" fill="#FFF3E3"/>
<mask id="mask0_471_19412" style="mask-type:luminance" maskUnits="userSpaceOnUse" x="82" y="55" width="24" height="22">
<path d="M98.9296 76.9942H89.3096C86.1533 76.9942 83.5479 74.8024 83.3759 72.0017L82.3672 55.6602H105.398L104.364 72.4224C104.206 74.986 101.819 76.9942 98.9296 76.9942Z" fill="white"/>
</mask>
<g mask="url(#mask0_471_19412)">
<path d="M98.9296 76.9942H89.3096C86.1533 76.9942 83.5479 74.8024 83.3759 72.0017L82.3672 55.6602H105.398L104.364 72.4224C104.206 74.986 101.819 76.9942 98.9296 76.9942Z" fill="#00CCC1"/>
<path d="M95.7789 59.821L93.4888 61.3699C93.29 61.5043 93.2379 61.7744 93.3723 61.9732L93.3944 62.0059C93.5288 62.2046 93.7989 62.2568 93.9977 62.1224L96.2878 60.5735C96.4865 60.4391 96.5387 60.169 96.4043 59.9702L96.3821 59.9375C96.2477 59.7388 95.9776 59.6866 95.7789 59.821Z" fill="#AAEEEA"/>
<path d="M88.8072 60.2387L86.6969 58.4492C86.5137 58.2939 86.2393 58.3164 86.084 58.4996L86.0585 58.5297C85.9032 58.7129 85.9257 58.9873 86.1089 59.1426L88.2192 60.9321C88.4023 61.0874 88.6767 61.0648 88.832 60.8816L88.8576 60.8515C89.0129 60.6683 88.9903 60.394 88.8072 60.2387Z" fill="#AAEEEA"/>
<path d="M84.6268 64.7507L82.085 65.8405C81.8644 65.9351 81.7622 66.1905 81.8568 66.4111L81.8724 66.4475C81.9669 66.6681 82.2224 66.7702 82.443 66.6756L84.9848 65.5859C85.2054 65.4913 85.3076 65.2358 85.213 65.0152L85.1974 64.9789C85.1029 64.7583 84.8474 64.6562 84.6268 64.7507Z" fill="#AAEEEA"/>
<path d="M103.89 74.5576L101.609 72.9921C101.411 72.8562 101.14 72.9066 101.004 73.1047L100.982 73.1373C100.846 73.3353 100.896 73.606 101.094 73.7418L103.376 75.3073C103.574 75.4431 103.845 75.3927 103.981 75.1947L104.003 75.1621C104.139 74.9641 104.088 74.6934 103.89 74.5576Z" fill="#AAEEEA"/>
<path d="M90.3938 70.053L87.8879 68.8831C87.6704 68.7815 87.4118 68.8755 87.3103 69.093L87.2936 69.1288C87.192 69.3463 87.286 69.6049 87.5035 69.7064L90.0093 70.8764C90.2268 70.9779 90.4854 70.8839 90.587 70.6664L90.6037 70.6306C90.7052 70.4132 90.6112 70.1545 90.3938 70.053Z" fill="#AAEEEA"/>
<path d="M94.8098 65.8694L92.3039 64.6995C92.0865 64.5979 91.8278 64.6919 91.7263 64.9094L91.7096 64.9452C91.6081 65.1627 91.702 65.4213 91.9195 65.5228L94.4254 66.6928C94.6428 66.7943 94.9014 66.7003 95.003 66.4828L95.0197 66.447C95.1212 66.2296 95.0272 65.971 94.8098 65.8694Z" fill="#AAEEEA"/>
<path d="M105.156 66.1801L102.398 66.3958C102.159 66.4145 101.98 66.6237 101.999 66.863L102.002 66.9024C102.021 67.1417 102.23 67.3206 102.469 67.3018L105.227 67.0861C105.466 67.0674 105.645 66.8582 105.626 66.6189L105.623 66.5795C105.604 66.3402 105.395 66.1613 105.156 66.1801Z" fill="#AAEEEA"/>
<path d="M106.269 58.5238L103.511 58.7395C103.272 58.7583 103.093 58.9674 103.112 59.2068L103.115 59.2462C103.134 59.4855 103.343 59.6643 103.582 59.6456L106.34 59.4298C106.579 59.4111 106.758 59.2019 106.739 58.9626L106.736 58.9232C106.717 58.6839 106.508 58.5051 106.269 58.5238Z" fill="#AAEEEA"/>
<path d="M99.1385 70.8516L99.8881 68.1881C99.9531 67.9569 99.8185 67.7168 99.5873 67.6517L99.5493 67.641C99.3181 67.576 99.078 67.7106 99.0129 67.9418L98.2634 70.6053C98.1983 70.8364 98.333 71.0766 98.5642 71.1416L98.6022 71.1523C98.8334 71.2174 99.0735 71.0827 99.1385 70.8516Z" fill="#AAEEEA"/>
<path d="M92.1939 75.4008L89.9536 77.0326C89.7592 77.1743 89.7164 77.4467 89.858 77.6411L89.8813 77.6731C90.0229 77.8675 90.2954 77.9104 90.4898 77.7687L92.7301 76.1369C92.9245 75.9953 92.9673 75.7228 92.8257 75.5284L92.8024 75.4964C92.6608 75.302 92.3884 75.2592 92.1939 75.4008Z" fill="#AAEEEA"/>
</g>
<path d="M105.279 53.8398H82.4878C81.6855 53.8398 81.0352 54.4902 81.0352 55.2925V55.418C81.0352 56.2203 81.6855 56.8706 82.4878 56.8706H105.279C106.081 56.8706 106.732 56.2203 106.732 55.418V55.2925C106.732 54.4902 106.081 53.8398 105.279 53.8398Z" fill="#AAEEEA"/>
<path d="M34.8015 51.1314C34.8015 51.1314 38.6644 55.4544 39.9706 62.4829C41.2768 69.5113 53.6207 68.5444 55.7753 66.7664C57.9298 64.9884 55.2663 53.2232 55.2663 53.2232C56.0676 53.3522 56.8299 53.6587 57.4975 54.1203C57.4975 54.1203 62.304 65.4091 62.6689 72.742C63.0338 80.0749 63.831 103.787 66.0855 109.072C66.0855 109.072 39.0897 118.136 23.1758 103.236L27.2618 83.9122C27.2618 83.9122 35.2176 76.2167 36.1868 68.9442C37.156 61.6717 32.3704 52.0611 32.3704 52.0611C32.3704 52.0611 33.4163 51.0733 34.8015 51.1314Z" fill="#FF535C"/>
<path d="M28.3103 55.2969C30.5066 56.2894 32.4732 57.7266 34.086 59.5177C38.1208 64.0662 38.1766 68.8471 40.631 78.6692C40.631 78.6692 40.631 78.6692 44.0267 88.3659L34.9343 91.3873C33.233 89.1561 19.1808 70.2927 26.0883 58.1975C26.6979 57.1369 27.4451 56.1616 28.3103 55.2969Z" fill="#FFF3E3"/>
<path d="M49.4805 70.6058C49.4805 70.6058 50.6426 67.9818 51.8651 66.8871C53.0877 65.7924 53.2178 63.252 53.4921 62.3618C53.7663 61.4717 54.947 63.1102 54.7448 65.0905C54.7448 65.0905 56.302 64.363 56.9877 64.7465C57.0788 64.7877 57.1607 64.8467 57.2286 64.9202C57.2964 64.9936 57.3488 65.0799 57.3826 65.174C57.4165 65.2681 57.431 65.3681 57.4255 65.4679C57.4199 65.5677 57.3943 65.6654 57.3503 65.7552C57.3503 65.7552 58.7239 65.7157 58.3404 67.0684C58.3404 67.0684 59.8349 66.836 59.4909 68.2816C59.7534 68.3403 59.9843 68.4954 60.138 68.7162C60.2916 68.937 60.3568 69.2074 60.3206 69.474C60.2393 70.4827 58.8262 73.0904 57.9569 73.7366C57.0876 74.3827 55.5932 74.2409 54.7843 75.0683C54.7936 75.0707 49.8035 72.607 49.4805 70.6058Z" fill="#FFB08D"/>
<path d="M50.0356 69.418C48.6411 70.6475 45.8799 73.0577 42.3355 76.1001C35.2606 82.1663 32.9968 83.9257 32.9805 86.7055C32.9689 89.1273 34.6679 91.9629 36.8527 92.6694C43.4116 94.7915 54.1332 77.6573 56.1065 74.4476C55.5632 73.1897 54.7299 72.0782 53.6748 71.2041C52.6196 70.3299 51.3726 69.7179 50.0356 69.418Z" fill="#FFF3E3"/>
<path d="M50.0041 35.9025C49.3948 35.8921 48.7943 35.7554 48.2406 35.501C47.6868 35.2465 47.192 34.8799 46.7873 34.4243C46.7659 34.4022 46.7539 34.3726 46.7539 34.3418C46.7539 34.311 46.7659 34.2814 46.7873 34.2593C46.7987 34.2492 46.812 34.2414 46.8264 34.2365C46.8407 34.2316 46.856 34.2297 46.8711 34.2308C46.8863 34.2318 46.9011 34.2359 46.9146 34.2428C46.9282 34.2497 46.9402 34.2593 46.95 34.2709C47.3395 34.7085 47.817 35.059 48.3513 35.2993C48.8856 35.5396 49.4647 35.6644 50.0505 35.6654C50.6169 35.6513 51.1743 35.5202 51.6875 35.2802C52.2007 35.0402 52.6586 34.6965 53.0325 34.2709C53.0423 34.2593 53.0544 34.2497 53.0679 34.2428C53.0815 34.2359 53.0962 34.2318 53.1114 34.2308C53.1266 34.2297 53.1418 34.2316 53.1562 34.2365C53.1706 34.2414 53.1838 34.2492 53.1952 34.2593C53.2166 34.2814 53.2286 34.311 53.2286 34.3418C53.2286 34.3726 53.2166 34.4022 53.1952 34.4243C52.8002 34.8753 52.316 35.2395 51.7731 35.4939C51.2303 35.7483 50.6406 35.8875 50.0412 35.9025H50.0041Z" fill="#383333"/>
<path d="M35.9448 86.6915C35.9164 86.6912 35.889 86.6807 35.8677 86.662C35.8464 86.6432 35.8325 86.6174 35.8286 86.5892C35.8286 86.5218 35.1058 79.9118 40.3585 77.6503C40.3725 77.6442 40.3876 77.6409 40.4029 77.6406C40.4183 77.6404 40.4335 77.6431 40.4477 77.6487C40.462 77.6544 40.475 77.6627 40.486 77.6733C40.497 77.684 40.5058 77.6967 40.5119 77.7107C40.518 77.7248 40.5213 77.7399 40.5215 77.7552C40.5218 77.7705 40.5191 77.7857 40.5134 77.7999C40.5078 77.8142 40.4995 77.8272 40.4888 77.8382C40.4782 77.8492 40.4655 77.858 40.4515 77.8641C35.3614 80.0466 36.0587 86.487 36.0587 86.5521C36.062 86.5825 36.053 86.6131 36.0339 86.637C36.0147 86.661 35.9869 86.6764 35.9564 86.6799L35.9448 86.6915Z" fill="#383333"/>
<path d="M64.712 84.6641C64.682 84.6642 64.6531 84.6526 64.6315 84.6318C64.6098 84.611 64.597 84.5826 64.5958 84.5526C64.5958 84.5038 64.3634 79.5299 67.4244 77.5381C67.4507 77.5214 67.4825 77.5156 67.5129 77.5222C67.5433 77.5287 67.57 77.5469 67.5871 77.5729C67.6037 77.5988 67.6094 77.6303 67.6028 77.6603C67.5963 77.6904 67.5781 77.7166 67.5522 77.7333C64.6028 79.6508 64.8259 84.4921 64.8283 84.5409C64.8296 84.5716 64.8189 84.6016 64.7985 84.6246C64.7781 84.6476 64.7496 84.6617 64.719 84.6641H64.712Z" fill="#383333"/>
<path d="M55.2574 101.753C55.23 101.753 55.2035 101.743 55.1826 101.725C55.1618 101.708 55.1479 101.683 55.1435 101.656L54.7926 99.5966C54.7899 99.5807 54.7907 99.5644 54.7947 99.5488C54.7987 99.5332 54.8059 99.5186 54.8158 99.506C54.8256 99.4932 54.8378 99.4825 54.8518 99.4745C54.8658 99.4665 54.8812 99.4614 54.8972 99.4595C58.2696 99.1713 60.294 98.4298 61.405 97.8581C62.5996 97.2422 63.004 96.696 63.0087 96.6797C63.0268 96.6554 63.0537 96.639 63.0837 96.6343C63.1136 96.6295 63.1443 96.6366 63.1691 96.6541C63.1815 96.6627 63.1922 96.6737 63.2004 96.6865C63.2086 96.6993 63.2141 96.7135 63.2167 96.7285C63.2193 96.7434 63.2189 96.7587 63.2155 96.7735C63.2121 96.7883 63.2058 96.8022 63.1969 96.8145C63.1319 96.9075 61.5212 99.0992 55.0506 99.6803L55.362 101.516C56.0941 101.477 60.5892 101.161 62.5206 99.1132C62.5314 99.1023 62.5442 99.0936 62.5584 99.0877C62.5726 99.0818 62.5878 99.0788 62.6031 99.0788C62.6184 99.0788 62.6336 99.0818 62.6478 99.0877C62.662 99.0936 62.6748 99.1023 62.6856 99.1132C62.6964 99.1238 62.705 99.1364 62.7109 99.1504C62.7168 99.1644 62.7198 99.1794 62.7198 99.1945C62.7198 99.2097 62.7168 99.2247 62.7109 99.2386C62.705 99.2526 62.6964 99.2653 62.6856 99.2759C60.5241 101.568 55.4805 101.751 55.2644 101.758L55.2574 101.753Z" fill="#383333"/>
<path d="M44.1121 103.148C42.2365 103.148 39.7263 102.878 37.4672 101.753C37.4401 101.739 37.4197 101.714 37.4102 101.684C37.4007 101.655 37.4028 101.623 37.416 101.595C37.4304 101.568 37.4546 101.548 37.4836 101.538C37.5127 101.529 37.5442 101.531 37.5718 101.544C41.5043 103.52 46.2155 102.829 46.8686 102.72L47.3056 100.373C42.7966 101.463 34.5921 98.8364 34.5085 98.8085C34.4938 98.8041 34.4802 98.7967 34.4684 98.7868C34.4567 98.777 34.447 98.7648 34.4401 98.7512C34.4331 98.7375 34.429 98.7226 34.428 98.7073C34.427 98.6919 34.429 98.6766 34.4341 98.6621C34.4436 98.6328 34.4644 98.6086 34.4919 98.5946C34.5194 98.5807 34.5512 98.5782 34.5805 98.5877C34.6642 98.6156 43.0221 101.291 47.4218 100.101C47.4409 100.096 47.4609 100.096 47.48 100.101C47.4992 100.105 47.5167 100.115 47.531 100.129C47.546 100.142 47.5572 100.158 47.5633 100.177C47.5694 100.196 47.5703 100.216 47.5659 100.236L47.0825 102.841C47.0779 102.864 47.0666 102.885 47.0501 102.902C47.0335 102.918 47.0124 102.929 46.9895 102.934C46.0381 103.086 45.0756 103.157 44.1121 103.148Z" fill="#383333"/>
<path d="M46.1267 109.651H46.1104C46.0802 109.646 46.0529 109.63 46.0343 109.606C46.0157 109.582 46.0071 109.551 46.0105 109.521L46.8588 102.795C46.8625 102.764 46.8783 102.736 46.9027 102.716C46.9271 102.697 46.9582 102.689 46.989 102.692C47.0198 102.696 47.0479 102.712 47.0671 102.736C47.0862 102.761 47.0949 102.792 47.0912 102.822L46.2429 109.549C46.2395 109.577 46.2257 109.603 46.2043 109.622C46.1829 109.641 46.1552 109.651 46.1267 109.651Z" fill="#383333"/>
<path d="M56.1052 107.735C56.0774 107.735 56.0506 107.724 56.0297 107.706C56.0088 107.688 55.9952 107.662 55.9913 107.635L55.0616 101.204C55.0575 101.173 55.0654 101.143 55.0837 101.118C55.1019 101.093 55.1289 101.076 55.1592 101.071C55.19 101.067 55.2211 101.076 55.2458 101.094C55.2706 101.113 55.2871 101.141 55.2917 101.171L56.2214 107.602C56.2253 107.633 56.217 107.664 56.1983 107.688C56.1796 107.712 56.1519 107.728 56.1214 107.733L56.1052 107.735Z" fill="#383333"/>
<path d="M53.8634 65.6863C53.8503 65.6869 53.8373 65.6842 53.8256 65.6785C53.8138 65.6728 53.8037 65.6643 53.796 65.6537C53.789 65.6449 53.7837 65.6348 53.7806 65.6239C53.7775 65.613 53.7766 65.6017 53.7779 65.5904C53.7792 65.5792 53.7827 65.5683 53.7882 65.5585C53.7937 65.5486 53.8011 65.5399 53.8099 65.5329C54.0893 65.3204 54.3956 65.1461 54.721 65.0146C54.7317 65.0101 54.7431 65.0078 54.7547 65.0078C54.7663 65.0078 54.7777 65.0102 54.7883 65.0148C54.799 65.0193 54.8086 65.026 54.8166 65.0343C54.8246 65.0427 54.8308 65.0526 54.8349 65.0634C54.8427 65.085 54.8421 65.1088 54.833 65.13C54.8239 65.1511 54.8072 65.168 54.7861 65.1773C54.4774 65.3032 54.1861 65.468 53.9192 65.6677C53.9035 65.6806 53.8836 65.6873 53.8634 65.6863Z" fill="#383333"/>
<path d="M56.1054 67.0403C56.0935 67.0404 56.0818 67.0379 56.071 67.0331C56.0602 67.0283 56.0505 67.0212 56.0426 67.0124C56.0266 66.9959 56.0176 66.9738 56.0176 66.9508C56.0176 66.9278 56.0266 66.9057 56.0426 66.8892L57.2954 65.6969C57.3118 65.6809 57.3339 65.6719 57.3569 65.6719C57.3799 65.6719 57.402 65.6809 57.4185 65.6969C57.4268 65.7049 57.4333 65.7145 57.4378 65.7251C57.4422 65.7356 57.4445 65.747 57.4445 65.7585C57.4445 65.77 57.4422 65.7813 57.4378 65.7919C57.4333 65.8025 57.4268 65.8121 57.4185 65.8201L56.1658 67.0101C56.1584 67.019 56.1492 67.0264 56.1388 67.0316C56.1283 67.0368 56.117 67.0397 56.1054 67.0403Z" fill="#383333"/>
<path d="M57.3584 68.2938C57.342 68.2932 57.3261 68.288 57.3125 68.2788C57.2988 68.2697 57.288 68.2569 57.2813 68.2419C57.2745 68.2269 57.2721 68.2104 57.2742 68.1941C57.2763 68.1778 57.2829 68.1624 57.2933 68.1497L58.2835 67.0178C58.2909 67.0093 58.3 67.0023 58.3102 66.9972C58.3204 66.9922 58.3314 66.9892 58.3428 66.9885C58.3541 66.9877 58.3655 66.9892 58.3762 66.9928C58.387 66.9965 58.3969 67.0022 58.4055 67.0097C58.414 67.0172 58.421 67.0262 58.426 67.0364C58.4311 67.0466 58.4341 67.0577 58.4348 67.069C58.4356 67.0803 58.4341 67.0917 58.4304 67.1025C58.4268 67.1132 58.4211 67.1231 58.4136 67.1317L57.4235 68.2636C57.4155 68.273 57.4055 68.2806 57.3943 68.2858C57.383 68.291 57.3708 68.2937 57.3584 68.2938Z" fill="#383333"/>
<path d="M58.6713 69.7277C58.6548 69.7274 58.6387 69.7226 58.6248 69.7138C58.6152 69.7078 58.6068 69.7 58.6002 69.6909C58.5936 69.6817 58.5889 69.6713 58.5863 69.6603C58.5837 69.6493 58.5833 69.6379 58.5851 69.6267C58.5869 69.6155 58.591 69.6048 58.5969 69.5952L59.4243 68.2402C59.4368 68.2206 59.4564 68.2067 59.4791 68.2015C59.5017 68.1963 59.5254 68.2002 59.5452 68.2123C59.5551 68.2183 59.5638 68.2262 59.5706 68.2355C59.5774 68.2449 59.5823 68.2555 59.5849 68.2668C59.5875 68.2781 59.5878 68.2898 59.5858 68.3012C59.5837 68.3126 59.5794 68.3235 59.5731 68.3332L58.7457 69.6859C58.7378 69.6986 58.7269 69.7091 58.7139 69.7164C58.7009 69.7237 58.6862 69.7276 58.6713 69.7277Z" fill="#383333"/>
<path d="M46.8735 13.5709C46.8735 13.5709 47.9566 18.6841 50.992 19.9578C54.0275 21.2315 59.7171 20.8875 59.7171 20.8875C59.7171 20.8875 62.906 12.4297 50.5527 8.2879C38.1995 4.14614 27.3849 12.8132 25.0816 23.128C22.855 33.1222 28.9259 40.5736 24.3146 47.5579C23.6174 48.6247 22.4553 50.1889 22.0323 52.6991C21.3675 56.6247 23.0201 60.1831 24.4913 62.5491C24.9168 60.4177 25.7881 58.4004 27.0479 56.6293C28.3588 54.8048 30.8108 52.2807 31.8962 52.8316C32.6725 53.2267 31.9288 54.7885 32.6632 57.5985C32.9491 58.6909 33.579 61.0849 35.4523 62.4213C38.2414 64.4015 42.1577 62.8025 42.6365 62.5979C41.3179 61.5634 40.2594 60.235 39.5452 58.7188C38.0717 55.4951 38.9805 52.7851 39.3477 49.4754C40.3215 40.6829 36.9863 31.988 34.0996 31.6765C33.0119 31.558 32.0078 32.6248 30.7062 32.0019C30.0717 31.6998 29.4884 31.0722 29.0793 29.9101C27.8405 26.3796 29.0561 24.6969 31.364 24.8851C33.672 25.0734 33.4395 29.4569 34.9735 28.8758C36.5075 28.2948 35.5894 24.999 37.2001 20.7783C38.8108 16.5575 42.3483 11.8068 46.8735 13.5709Z" fill="#383333"/>
<path d="M47.324 44.7766C45.2275 44.7402 43.1444 44.4356 41.1253 43.8702C41.1105 43.8662 41.0966 43.8592 41.0845 43.8497C41.0725 43.8403 41.0624 43.8284 41.055 43.815C41.0477 43.8015 41.0431 43.7867 41.0416 43.7714C41.0401 43.7561 41.0417 43.7407 41.0463 43.7261C41.0554 43.6969 41.0756 43.6725 41.1026 43.6582C41.1295 43.6438 41.1611 43.6406 41.1904 43.6494C41.2322 43.6494 45.2252 44.844 48.7882 44.4698C48.8035 44.4683 48.8189 44.4698 48.8336 44.4742C48.8483 44.4786 48.8619 44.4859 48.8738 44.4956C48.8857 44.5053 48.8955 44.5173 48.9028 44.5308C48.91 44.5443 48.9145 44.5591 48.9161 44.5744C48.9176 44.5897 48.9161 44.6051 48.9117 44.6198C48.9072 44.6344 48.8999 44.6481 48.8902 44.66C48.8805 44.6719 48.8686 44.6817 48.8551 44.6889C48.8415 44.6962 48.8267 44.7007 48.8115 44.7022C48.3172 44.7526 47.8208 44.7775 47.324 44.7766Z" fill="#383333"/>
<path d="M54.4424 18.7115C52.8155 18.6929 51.5557 18.1816 50.7237 17.1961C49.2199 15.3995 49.6499 12.6872 49.6685 12.5733C49.6741 12.543 49.6914 12.5161 49.7166 12.4983C49.7417 12.4805 49.7728 12.4732 49.8033 12.478C49.8183 12.4802 49.8328 12.4855 49.8457 12.4934C49.8587 12.5013 49.87 12.5118 49.8789 12.5241C49.8878 12.5365 49.8941 12.5505 49.8975 12.5653C49.9008 12.5801 49.9012 12.5955 49.8986 12.6105C49.8986 12.6384 49.4663 15.3344 50.9026 17.0474C51.6836 17.9771 52.8736 18.4605 54.4378 18.4791C54.4686 18.4791 54.4981 18.4914 54.5199 18.5132C54.5417 18.5349 54.554 18.5645 54.554 18.5953C54.554 18.6261 54.5417 18.6557 54.5199 18.6775C54.4981 18.6993 54.4686 18.7115 54.4378 18.7115H54.4424Z" fill="white"/>
<path d="M57.9509 18.5713C53.8719 18.5713 52.4472 14.0995 52.4309 14.0507C52.4217 14.0199 52.425 13.9867 52.4403 13.9583C52.4555 13.93 52.4814 13.9089 52.5122 13.8996C52.5431 13.8904 52.5763 13.8938 52.6046 13.909C52.633 13.9243 52.6541 13.9502 52.6633 13.981C52.9888 14.9186 53.4887 15.7861 54.1369 16.5376C55.5314 18.1158 57.2932 18.662 59.3966 18.1646C59.4264 18.1582 59.4576 18.1636 59.4836 18.1796C59.5095 18.1956 59.5283 18.2211 59.536 18.2506C59.543 18.2805 59.5379 18.3119 59.5218 18.338C59.5057 18.3642 59.4799 18.3829 59.45 18.39C58.9593 18.5097 58.456 18.5706 57.9509 18.5713Z" fill="white"/>
<path d="M33.736 25.1282C33.6822 25.1283 33.6284 25.1229 33.5757 25.1119C33.5449 25.1064 33.5175 25.0888 33.4996 25.0631C33.4818 25.0374 33.4748 25.0056 33.4804 24.9748C33.4859 24.944 33.5035 24.9166 33.5292 24.8988C33.5549 24.8809 33.5867 24.874 33.6175 24.8795C33.6849 24.8957 33.7549 24.8975 33.823 24.8847C33.8911 24.8719 33.9558 24.8447 34.0126 24.8051C34.4566 24.4983 34.6448 23.4106 34.8865 22.0416C35.198 20.2543 35.5838 18.0324 36.7459 16.173C39.0701 12.4542 45.2386 11.2596 45.3014 11.248C45.3322 11.2424 45.3639 11.2493 45.3897 11.2672C45.4154 11.2851 45.4329 11.3124 45.4385 11.3433C45.444 11.3741 45.4371 11.4058 45.4192 11.4316C45.4014 11.4573 45.374 11.4748 45.3432 11.4804C45.2828 11.492 39.2073 12.6541 36.9435 16.2962C35.8116 18.1184 35.4258 20.3171 35.1166 22.0835C34.8586 23.5663 34.6704 24.6401 34.1474 24.998C34.0275 25.0838 33.8835 25.1294 33.736 25.1282Z" fill="white"/>
<path d="M29.1793 23.6896C28.9881 23.6896 28.7974 23.6709 28.6099 23.6338C28.5946 23.6309 28.5801 23.6251 28.5671 23.6165C28.5541 23.608 28.5429 23.597 28.5342 23.5842C28.5254 23.5713 28.5193 23.5569 28.5161 23.5417C28.513 23.5265 28.5129 23.5108 28.5158 23.4955C28.5187 23.4803 28.5245 23.4657 28.533 23.4528C28.5416 23.4398 28.5526 23.4286 28.5654 23.4198C28.5782 23.4111 28.5927 23.405 28.6079 23.4018C28.6231 23.3986 28.6388 23.3985 28.654 23.4014C32.0009 24.0638 34.5413 18.1975 34.5669 18.1371C34.5796 18.1099 34.6025 18.0887 34.6305 18.078C34.6586 18.0672 34.6897 18.0678 34.7174 18.0795C34.745 18.0913 34.7671 18.1132 34.7789 18.1409C34.7907 18.1685 34.7913 18.1996 34.7807 18.2277C34.3113 19.271 33.7308 20.2607 33.0491 21.1795C31.7987 22.8343 30.4809 23.6896 29.1793 23.6896Z" fill="white"/>
<path d="M39.0399 61.3461C39.0276 61.3483 39.015 61.3483 39.0028 61.3461C34.6053 59.854 33.4874 55.1265 35.6838 47.2962C36.8645 43.0801 36.5019 40.7698 35.9882 39.5752C35.4397 38.2968 34.6053 37.9947 34.5937 37.9924C34.5647 37.9818 34.5409 37.9604 34.5275 37.9326C34.514 37.9048 34.5119 37.8729 34.5217 37.8436C34.5317 37.8148 34.5527 37.791 34.5801 37.7776C34.6075 37.7641 34.6391 37.7619 34.6681 37.7716C34.8145 37.8204 38.2241 39.0801 35.9022 47.359C33.7198 55.1497 34.7587 59.6518 39.0818 61.1276C39.1126 61.1326 39.1402 61.1495 39.1585 61.1748C39.1768 61.2001 39.1843 61.2316 39.1794 61.2624C39.1745 61.2933 39.1575 61.3209 39.1322 61.3392C39.1069 61.3575 39.0754 61.365 39.0446 61.3601L39.0399 61.3461Z" fill="white"/>
<path d="M24.4384 58.7179C24.4118 58.7183 24.3859 58.7091 24.3655 58.6921C24.345 58.675 24.3313 58.6512 24.3269 58.6249C24.119 57.1391 24.2703 55.625 24.7681 54.2096C25.2659 52.7942 26.0957 51.5188 27.188 50.4902C30.8393 46.9667 29.8492 42.7436 29.8376 42.7017C29.8306 42.6718 29.8357 42.6404 29.8518 42.6143C29.8679 42.5881 29.8937 42.5694 29.9236 42.5623C29.9382 42.5585 29.9535 42.5576 29.9685 42.5598C29.9835 42.5619 29.9979 42.567 30.0109 42.5748C30.0239 42.5826 30.0352 42.5929 30.0441 42.6051C30.0531 42.6173 30.0595 42.6312 30.063 42.6459C30.063 42.6901 31.102 47.0387 27.3484 50.6575C26.2884 51.6579 25.4825 52.8968 24.9974 54.2711C24.5123 55.6455 24.3621 57.1158 24.5593 58.5599C24.5627 58.5747 24.5631 58.59 24.5605 58.605C24.5579 58.62 24.5523 58.6343 24.544 58.6471C24.5358 58.6598 24.5251 58.6708 24.5126 58.6794C24.5 58.688 24.4859 58.694 24.471 58.697L24.4384 58.7179Z" fill="white"/>
<path d="M29.4596 37.9887C29.4409 37.989 29.4224 37.9847 29.4058 37.9762C29.3892 37.9677 29.3749 37.9552 29.3643 37.9399C26.1987 33.4449 27.3004 29.6401 27.312 29.6029C27.3209 29.5721 27.3417 29.5461 27.3698 29.5306C27.398 29.5151 27.4311 29.5115 27.4619 29.5204C27.4927 29.5294 27.5187 29.5502 27.5342 29.5783C27.5497 29.6064 27.5533 29.6395 27.5444 29.6703C27.3567 30.456 27.3009 31.2673 27.3794 32.0712C27.4817 33.4193 27.9465 35.5088 29.5642 37.8074C29.5812 37.8328 29.5876 37.8638 29.5819 37.8938C29.5763 37.9238 29.559 37.9504 29.5339 37.9678C29.5125 37.9836 29.4861 37.991 29.4596 37.9887Z" fill="white"/>
<path d="M56.2796 52.9269C56.2612 52.9267 56.243 52.9227 56.2261 52.9153C52.1843 50.8235 53.0094 45.6521 53.0187 45.601C53.0212 45.5858 53.0267 45.5713 53.0349 45.5583C53.043 45.5453 53.0537 45.5341 53.0662 45.5252C53.0788 45.5164 53.0929 45.5101 53.1079 45.5067C53.1229 45.5034 53.1384 45.503 53.1535 45.5057C53.1838 45.5113 53.2107 45.5286 53.2285 45.5538C53.2463 45.5789 53.2536 45.61 53.2488 45.6405C53.2488 45.6893 52.4446 50.691 56.333 52.7084C56.3604 52.7224 56.3811 52.7466 56.3907 52.7757C56.4003 52.8049 56.3979 52.8367 56.3842 52.8641C56.3741 52.8831 56.359 52.899 56.3406 52.91C56.3221 52.9211 56.3011 52.9269 56.2796 52.9269Z" fill="white"/>
<path d="M29.0081 82.1786C28.9862 82.1789 28.9648 82.173 28.9462 82.1614C28.9277 82.1499 28.9128 82.1333 28.9035 82.1135L27.3974 79.0363C27.3904 79.0228 27.3862 79.008 27.3851 78.9928C27.384 78.9776 27.386 78.9624 27.391 78.948C27.396 78.9337 27.4039 78.9205 27.4142 78.9093C27.4245 78.8981 27.4369 78.8891 27.4508 78.8829C27.4644 78.8762 27.4792 78.8722 27.4942 78.8713C27.5093 78.8704 27.5245 78.8725 27.5387 78.8774C27.553 78.8824 27.5662 78.8902 27.5774 78.9003C27.5887 78.9104 27.5978 78.9227 27.6042 78.9363L29.1127 82.0113C29.1194 82.025 29.1234 82.0399 29.1243 82.0552C29.1253 82.0705 29.1232 82.0858 29.1183 82.1002C29.1133 82.1147 29.1055 82.128 29.0954 82.1395C29.0852 82.151 29.073 82.1603 29.0592 82.167C29.0431 82.1741 29.0257 82.1781 29.0081 82.1786Z" fill="#383333"/>
<path fill-rule="evenodd" clip-rule="evenodd" d="M71.4929 26.3264C71.4929 26.3264 66.3796 19.0376 63.7811 23.3049C61.1827 27.5721 68.7108 35.5791 71.4929 34.8237C74.275 34.0683 79.1442 25.7151 76.9409 23.5745C74.7375 21.4339 71.4929 26.3264 71.4929 26.3264Z" fill="#FF535C"/>
<path fill-rule="evenodd" clip-rule="evenodd" d="M76.9406 44.0214C76.9406 44.0214 79.467 40.4212 80.7523 42.5292C82.0376 44.6373 78.3165 48.5931 76.9406 48.2189C75.5647 47.8447 73.1614 43.7216 74.2492 42.6617C75.3369 41.6019 76.9406 44.0214 76.9406 44.0214Z" fill="#FF535C"/>
</svg>
