<svg width="120" height="119" viewBox="0 0 120 119" fill="none" xmlns="http://www.w3.org/2000/svg">
<path d="M107.281 49.6525C106.311 49.6525 105.405 49.1679 104.867 48.3608L101.761 43.7009C100.872 42.3681 101.233 40.5673 102.565 39.6788C103.898 38.7907 105.699 39.1504 106.587 40.4834L107.281 41.5233L107.974 40.4834C108.862 39.1504 110.663 38.7903 111.996 39.6788C113.329 40.5673 113.689 42.3681 112.801 43.7009L109.694 48.3608C109.156 49.1679 108.25 49.6525 107.281 49.6525Z" fill="#FF326C"/>
<path d="M35.8274 70.6251C34.8575 70.6251 33.952 70.1405 33.4143 69.3334L30.3078 64.6735C29.4191 63.3406 29.7795 61.5399 31.1121 60.6514C32.4448 59.7631 34.2455 60.1231 35.1342 61.456L35.8276 62.4958L36.521 61.456C37.4095 60.1229 39.2102 59.7631 40.5431 60.6514C41.8759 61.5399 42.2361 63.3406 41.3474 64.6735L38.2409 69.3334C37.7028 70.1405 36.7971 70.6251 35.8274 70.6251Z" fill="#FF326C"/>
<path d="M32.72 35.672C31.7501 35.672 30.8446 35.1875 30.3069 34.3804L27.2003 29.7204C26.3117 28.3876 26.6721 26.5868 28.0047 25.6983C29.3375 24.8101 31.1381 25.1701 32.0268 26.5029L32.7202 27.5428L33.4136 26.5029C34.3021 25.1699 36.1028 24.8099 37.4356 25.6983C38.7685 26.5868 39.1287 28.3876 38.24 29.7204L35.1335 34.3804C34.5954 35.1875 33.6899 35.672 32.72 35.672Z" fill="#FF326C"/>
<path d="M77.5704 35.2188L64.592 38.9724C64.592 38.9724 65.9168 50.798 62.5862 59.5022C59.2556 68.2064 61.1916 76.7014 67.3183 78.3051C73.4449 79.9088 84.0736 75.0721 84.0736 75.0721L77.5704 35.2188Z" fill="#2D1929"/>
<path d="M73.6962 66.3789C73.6962 66.3789 64.6991 67.0553 60.4017 75.9384C56.1042 84.8216 51.7416 99.0086 41.0293 103.157L43.8184 109.461L52.8154 110.211C56.1321 108.761 63.8647 104.833 69.3615 96.1359C77.7334 82.8809 74.3586 68.9193 73.6962 66.3789Z" fill="#917EEC"/>
<path d="M28.9555 21.0352C27.0988 21.7974 25.4173 22.9307 24.0142 24.3658C18.536 30.0624 22.3291 36.1426 18.5801 46.3017C15.6609 54.2041 11.0078 55.4289 11.4425 62.4016C11.8724 69.279 12.1165 75.0802 30.6893 76.2609C49.2622 77.4416 55.3051 73.6322 55.1308 65.3859C54.9565 57.1396 52.272 55.9775 56.3533 50.1111C60.4347 44.2448 54.5195 28.819 54.5195 28.819L28.9555 21.0352Z" fill="#287EEF"/>
<mask id="mask0_471_19133" style="mask-type:luminance" maskUnits="userSpaceOnUse" x="30" y="53" width="14" height="23">
<path d="M31.7793 53.0352L43.8114 53.6374L42.738 75.0824L30.706 74.4802L31.7793 53.0352Z" fill="white"/>
</mask>
<g mask="url(#mask0_471_19133)">
<path d="M31.7793 53.0352L43.8114 53.6374L42.738 75.0824L30.706 74.4802L31.7793 53.0352Z" fill="#834A27"/>
<path d="M29.7852 59.8284C30.5754 60.4931 34.7729 63.8864 40.279 63.0358C42.0223 62.7587 43.6845 62.1061 45.1506 61.1229L45.5503 53.281L30.2105 52.5117L29.7852 59.8284Z" fill="#6E3D1E"/>
</g>
<mask id="mask1_471_19133" style="mask-type:luminance" maskUnits="userSpaceOnUse" x="74" y="52" width="13" height="21">
<path d="M74.7559 52.957H86.184V72.5316H74.7559V52.957Z" fill="white"/>
</mask>
<g mask="url(#mask1_471_19133)">
<path d="M74.7559 52.957H86.184V72.5316H74.7559V52.957Z" fill="#F5B493"/>
<path d="M73.8242 62.1299C78.6191 64.2217 83.8184 64.2612 88.5086 62.1299V54.4414H73.8242V62.1299Z" fill="#EBA284"/>
</g>
<path d="M25.5098 37.3282C25.5098 37.3282 26.3488 25.4956 34.888 22.918C34.9647 22.9064 35.0367 22.9041 35.1204 22.8948C40.7427 21.0494 44.6334 23.3271 45.0379 23.427C46.3762 23.9847 47.5851 24.8123 48.5893 25.8582C53.168 30.5972 52.9332 38.7018 52.9332 38.7041C52.9684 39.1629 52.9684 39.6236 52.9332 40.0824C52.745 42.3369 51.118 47.5199 50.7368 49.3049C48.7334 54.883 43.9594 61.607 37.9536 61.0073C30.6765 60.2055 28.1919 51.1364 27.4946 48.3822C26.7393 45.4234 26.1489 42.56 26.0467 42.1231C25.8147 41.1192 25.7596 40.0825 25.884 39.0597C25.7445 38.4531 25.6237 37.8628 25.5098 37.3282Z" fill="#834A27"/>
<path d="M39.1281 48.8554C40.1206 48.6579 40.7063 48.3162 40.869 47.8444C41.2455 46.7567 39.1886 45.8828 39.7069 41.9107C39.7109 41.8799 39.727 41.8519 39.7516 41.8329C39.7762 41.814 39.8074 41.8056 39.8382 41.8096C39.869 41.8136 39.897 41.8297 39.9159 41.8543C39.9349 41.8789 39.9433 41.9101 39.9393 41.9409C39.428 45.8526 41.5174 46.68 41.0875 47.9211C40.8969 48.4766 40.2531 48.8671 39.1746 49.0832C39.1597 49.0863 39.1443 49.0863 39.1293 49.0834C39.1143 49.0805 39.1 49.0747 39.0873 49.0663C39.0616 49.0493 39.0437 49.0228 39.0375 48.9926C39.0313 48.9624 39.0374 48.931 39.0544 48.9052C39.0714 48.8795 39.0979 48.8616 39.1281 48.8554Z" fill="#2D1929"/>
<path d="M46.0538 43.0781C46.005 44.038 45.4611 44.7888 44.8405 44.7562C44.22 44.7237 43.7575 43.9218 43.8063 42.9643C43.8551 42.0067 44.3989 41.2536 45.0195 41.2862C45.6401 41.3187 46.1096 42.1206 46.0538 43.0781Z" fill="#2D1929"/>
<path d="M48.0144 38.7889C47.9549 38.7893 47.8975 38.7668 47.854 38.7261C47.768 38.6448 45.7111 36.7389 43.1382 38.0289C43.083 38.0566 43.0191 38.0613 42.9605 38.0419C42.9019 38.0225 42.8533 37.9806 42.8256 37.9255C42.7979 37.8703 42.7932 37.8064 42.8126 37.7477C42.832 37.6891 42.8739 37.6406 42.929 37.6128C45.7971 36.1625 48.1515 38.3543 48.1748 38.3775C48.2125 38.4086 48.2395 38.4509 48.2518 38.4983C48.2642 38.5456 48.2612 38.5956 48.2434 38.6412C48.2257 38.6868 48.194 38.7256 48.1528 38.7522C48.1117 38.7787 48.0633 38.7915 48.0144 38.7889Z" fill="#2D1929"/>
<path d="M35.0984 42.5327C35.0496 43.4926 34.508 44.2457 33.8898 44.2155C33.2715 44.1852 32.8044 43.3834 32.8508 42.4235C32.8973 41.4636 33.4389 40.7129 34.0594 40.7431C34.68 40.7733 35.1448 41.5682 35.0984 42.5327Z" fill="#2D1929"/>
<path d="M31.3606 37.9531C31.3122 37.953 31.2651 37.9377 31.2258 37.9095C31.1865 37.8813 31.1569 37.8415 31.1413 37.7957C31.1257 37.7499 31.1248 37.7003 31.1387 37.654C31.1526 37.6076 31.1806 37.5668 31.2188 37.5371C31.2444 37.5162 33.8057 35.5708 36.5134 37.3047C36.5421 37.3195 36.5674 37.3401 36.5877 37.3653C36.6079 37.3904 36.6228 37.4195 36.6312 37.4507C36.6396 37.4818 36.6414 37.5144 36.6365 37.5463C36.6316 37.5783 36.6202 37.6088 36.6028 37.6361C36.5855 37.6633 36.5626 37.6866 36.5358 37.7045C36.5089 37.7225 36.4786 37.7346 36.4468 37.7402C36.415 37.7457 36.3824 37.7446 36.351 37.7368C36.3197 37.7291 36.2903 37.7149 36.2647 37.6951C33.8359 36.1426 31.5977 37.8346 31.5024 37.9067C31.4615 37.9373 31.4117 37.9536 31.3606 37.9531Z" fill="#2D1929"/>
<path d="M36.2273 64.6133C36.2273 64.6133 22.0797 65.5871 19.4929 72.2669C16.906 78.9467 20.569 110.266 20.569 110.266H56.8896C56.8896 110.266 55.3858 73.1455 51.7344 69.0618C48.0831 64.9782 36.2273 64.6133 36.2273 64.6133Z" fill="#EFBD42"/>
<path d="M94.2822 39.3898C94.2822 39.3898 94.0498 27.7687 85.8104 24.8286L85.5896 24.7937C80.1788 22.7019 76.2625 24.7496 75.8604 24.8286C74.5233 25.3083 73.2994 26.0584 72.2649 27.0319C67.5514 31.448 67.384 39.3898 67.384 39.3898C67.3303 39.8378 67.3085 40.2891 67.3189 40.7402C67.3933 42.9575 68.7297 48.1103 69.0179 49.872C70.703 55.4269 75.0446 62.2439 80.9482 61.958C88.1091 61.5303 90.9911 52.7773 91.8116 50.1184C92.6948 47.2596 93.4153 44.4845 93.5361 44.0638C93.8122 43.0922 93.9175 42.0801 93.8476 41.0725C93.9963 40.4799 94.1428 39.9081 94.2822 39.3898Z" fill="#F5B493"/>
<path d="M80.3317 50.2206C79.2858 49.9556 78.6745 49.5396 78.5142 48.9864C78.1562 47.7592 80.2387 47.0271 79.932 43.1922C79.9307 43.1769 79.9324 43.1615 79.9371 43.1469C79.9418 43.1323 79.9494 43.1188 79.9593 43.1072C79.9692 43.0955 79.9814 43.0859 79.995 43.079C80.0087 43.072 80.0236 43.0678 80.0389 43.0666C80.0696 43.0647 80.0998 43.0748 80.1232 43.0947C80.1467 43.1147 80.1614 43.1429 80.1644 43.1736C80.4758 47.0736 78.4259 47.8476 78.7373 48.9214C78.8721 49.3862 79.4346 49.7511 80.3875 49.9951C80.4164 50.0035 80.4409 50.0227 80.4559 50.0487C80.4709 50.0747 80.4753 50.1055 80.468 50.1347C80.4608 50.1639 80.4426 50.1891 80.4172 50.2051C80.3918 50.2211 80.3611 50.2267 80.3317 50.2206Z" fill="#2D1929"/>
<path d="M72.1996 39.7159C72.1519 39.7164 72.1052 39.7022 72.0658 39.6752C72.0265 39.6483 71.9964 39.6098 71.9796 39.5651C71.9629 39.5205 71.9603 39.4717 71.9722 39.4255C71.9841 39.3793 72.01 39.3379 72.0462 39.3069C72.0718 39.286 74.4866 37.2546 77.2246 38.8165C77.2512 38.8316 77.2746 38.8519 77.2933 38.8762C77.3121 38.9005 77.3259 38.9282 77.3338 38.9578C77.3418 38.9874 77.3439 39.0183 77.3399 39.0487C77.3359 39.079 77.3259 39.1084 77.3106 39.1349C77.2799 39.188 77.2295 39.2269 77.1703 39.243C77.111 39.2591 77.0478 39.2512 76.9945 39.2209C74.5448 37.8263 72.439 39.5858 72.346 39.6602C72.3052 39.6951 72.2534 39.7149 72.1996 39.7159Z" fill="#2D1929"/>
<path d="M93.6849 40.5941C91.8721 39.862 89.6826 41.059 88.7901 43.2554C87.8976 45.4517 88.6484 47.8387 90.4636 48.5708C92.2788 49.303 94.4682 48.106 95.3584 45.9096C96.2486 43.7132 95.4978 41.3263 93.6849 40.5941Z" fill="#F5B493"/>
<path d="M91.5871 47.0157C91.5635 47.0155 91.5404 47.008 91.5211 46.9944C91.5018 46.9807 91.4871 46.9615 91.4791 46.9392C91.471 46.917 91.4699 46.8928 91.4759 46.8699C91.4819 46.8471 91.4948 46.8266 91.5127 46.8112C91.701 46.6508 92.1868 46.1581 92.1658 45.7909C92.1426 45.3586 91.4942 45.2098 91.4872 45.2075C91.4608 45.2011 91.4374 45.1858 91.4209 45.1643C91.4044 45.1427 91.3958 45.1161 91.3965 45.0889C91.45 43.6224 92.2309 41.6026 93.665 41.8815C93.6798 41.8843 93.694 41.89 93.7066 41.8983C93.7193 41.9066 93.7301 41.9174 93.7386 41.9299C93.747 41.9425 93.7528 41.9566 93.7558 41.9714C93.7587 41.9862 93.7586 42.0015 93.7556 42.0163C93.7528 42.0315 93.7471 42.046 93.7386 42.0589C93.7302 42.0718 93.7193 42.0829 93.7065 42.0915C93.6938 42.1002 93.6794 42.1062 93.6643 42.1093C93.6492 42.1123 93.6336 42.1123 93.6185 42.1093C92.3774 41.8629 91.7056 43.7363 91.6336 45.0076C91.8521 45.075 92.3704 45.2888 92.3983 45.7792C92.4308 46.337 91.701 46.9623 91.6615 46.9878C91.6411 47.0061 91.6145 47.0161 91.5871 47.0157Z" fill="#2D1929"/>
<path d="M88.5357 39.7167C88.4803 39.7167 88.4267 39.6969 88.3846 39.6609C88.2963 39.5866 86.1905 37.8225 83.7362 39.2217C83.6825 39.2525 83.6189 39.2607 83.5591 39.2446C83.4994 39.2285 83.4486 39.1893 83.4177 39.1357C83.3869 39.082 83.3787 39.0184 83.3948 38.9586C83.4109 38.8989 83.4501 38.8481 83.5037 38.8172C86.2417 37.2554 88.6565 39.2821 88.6798 39.3076C88.7155 39.3381 88.7411 39.3787 88.7533 39.424C88.7655 39.4694 88.7636 39.5173 88.748 39.5616C88.7325 39.6059 88.7038 39.6444 88.6659 39.6721C88.628 39.6998 88.5826 39.7153 88.5357 39.7167Z" fill="#2D1929"/>
<path d="M43.0333 65.3867C43.0333 65.3867 50.5754 65.5006 55.1192 71.4994C59.663 77.4982 65.1552 92.271 80.8994 96.5684V107.313C79.2399 107.36 60.4463 107.546 49.3714 92.1292C41.1599 80.6917 42.6242 68.2339 43.0333 65.3867Z" fill="#EFBD42"/>
<path d="M77.5306 65.6233C77.5306 65.6233 65.512 66.553 63.1506 72.5308C60.7892 78.5087 66.5975 110.265 66.5975 110.265H98.1487C98.1487 110.265 97.484 77.084 95.2318 70.9225C92.9797 64.761 77.5306 65.6233 77.5306 65.6233Z" fill="#917EEC"/>
<path d="M82.8027 65.7952C82.8027 65.7952 93.701 65.3094 98.97 71.1037C104.239 76.898 100.797 110.267 100.797 110.267H92.3506L87.2583 76.2332L82.8027 65.7952Z" fill="#917EEC"/>
<path d="M36.6914 51.5977L42.5996 52.1346C42.2742 52.766 41.7529 53.2749 41.1139 53.585C40.4748 53.8951 39.7525 53.9897 39.0551 53.8545C38.4962 53.7222 37.9826 53.4434 37.5671 53.0467C37.1517 52.6501 36.8494 52.1499 36.6914 51.5977Z" fill="#E5E5E5"/>
<path d="M69.3696 67.4626C69.3696 67.4626 69.265 73.1244 72.3167 75.0721C75.3684 77.0198 80.8954 79.8832 80.8954 79.8832C80.8954 79.8832 84.8465 77.3754 88.4119 76.3737C91.9772 75.3719 93.3183 67.4649 93.3183 67.4649C93.3183 67.4649 91.7332 66.4725 86.183 65.7752C80.6327 65.078 73.8995 65.3964 69.3696 67.4626Z" fill="#F5B493"/>
<path d="M43.5841 62.4023H30.9566C30.2082 62.4023 29.6016 63.009 29.6016 63.7574V66.7765C29.6016 67.5249 30.2082 68.1315 30.9566 68.1315H43.5841C44.3324 68.1315 44.9391 67.5249 44.9391 66.7765V63.7574C44.9391 63.009 44.3324 62.4023 43.5841 62.4023Z" fill="#EFBD42"/>
<path d="M10.2608 95.1781C8.49203 101.56 10.3072 107.459 14.1213 109.57C15.8575 110.53 19.0626 111.29 21.7145 109.784C23.6018 108.712 24.4106 106.946 24.8661 105.916C27.281 100.447 24.5408 94.5854 23.8086 93.1328L10.2608 95.1781Z" fill="#D7981A"/>
<path d="M55.3855 77.5508L56.2454 84.4281C58.6533 89.1486 58.5557 94.4711 56.2873 99.2892L56.8892 110.266H35.2949C35.2949 110.266 44.6429 109.237 47.8643 106.68C51.0857 104.124 45.124 103.787 44.9381 101.681C44.7522 99.5751 52.1618 100.544 54.3117 97.3206C56.4616 94.0969 56.7823 88.6164 54.9555 85.7158L55.3855 77.5508Z" fill="#D7981A"/>
<path d="M21.722 96.2842L23.8138 75.0664C24.5808 87.0292 25.2804 96.0773 25.5105 100.756C25.5732 102.027 25.6918 104.837 27.5512 107.417C28.3915 108.568 29.4565 109.537 30.6819 110.264H20.5762V107.88L22.5796 104.768L21.722 96.2842Z" fill="#D7981A"/>
<path d="M11.1206 67.7711C11.1206 67.7711 7.10896 104.368 14.414 107.318C21.719 110.267 24.1362 101.1 23.7876 92.036C23.4389 82.9715 19.4273 66.3789 19.4273 66.3789L11.1206 67.7711Z" fill="#834A27"/>
<path d="M87.7811 43.6088C87.7599 43.6087 87.7392 43.6027 87.7212 43.5917C87.7032 43.5806 87.6885 43.5649 87.6788 43.5461C87.6788 43.5461 87.1024 42.4839 85.931 42.4258C85.5926 42.4172 85.257 42.4877 84.9507 42.6318C84.6444 42.7758 84.376 42.9894 84.1669 43.2556C84.1576 43.2678 84.146 43.278 84.1327 43.2857C84.1194 43.2935 84.1048 43.2985 84.0896 43.3005C84.0743 43.3026 84.0589 43.3016 84.044 43.2977C84.0292 43.2938 84.0153 43.2869 84.0031 43.2776C83.9908 43.2683 83.9806 43.2567 83.9729 43.2434C83.9652 43.2302 83.9601 43.2155 83.9581 43.2003C83.956 43.1851 83.957 43.1696 83.9609 43.1548C83.9649 43.1399 83.9717 43.126 83.981 43.1138C84.2136 42.8174 84.5118 42.5792 84.8523 42.4178C85.1927 42.2565 85.566 42.1765 85.9426 42.1841C87.2442 42.2492 87.8578 43.3811 87.8833 43.4299C87.8948 43.4477 87.9012 43.4684 87.9018 43.4897C87.9023 43.5109 87.897 43.5319 87.8865 43.5504C87.8759 43.5688 87.8605 43.584 87.842 43.5943C87.8234 43.6046 87.8023 43.6097 87.7811 43.6088Z" fill="#2D1929"/>
<path d="M73.2939 43.1246C73.4844 42.8008 73.7476 42.5258 74.0626 42.3213C74.3776 42.1168 74.7359 41.9884 75.1092 41.9462C76.4014 41.8323 77.1707 42.8759 77.2009 42.9131C77.2158 42.9381 77.2207 42.9677 77.2147 42.9962C77.2087 43.0247 77.1923 43.0498 77.1686 43.0668C77.145 43.0837 77.1158 43.0911 77.087 43.0876C77.0581 43.0841 77.0316 43.0699 77.0127 43.0479C76.9825 43.0083 76.2922 42.074 75.1277 42.1763C74.7931 42.2162 74.4722 42.3328 74.19 42.517C73.9078 42.7012 73.6719 42.9481 73.5008 43.2384C73.4857 43.2659 73.4603 43.2862 73.4302 43.2949C73.4002 43.3036 73.3678 43.3 73.3404 43.2849C73.313 43.2698 73.2927 43.2444 73.284 43.2144C73.2752 43.1843 73.2788 43.152 73.2939 43.1246Z" fill="#2D1929"/>
<path d="M77.4648 52.9585L83.624 52.5703C83.5731 53.3239 83.2499 54.0332 82.7146 54.5661C82.1793 55.0989 81.4685 55.4189 80.7147 55.4664C79.9609 55.5139 79.2156 55.2857 78.6176 54.8242C78.0197 54.3628 77.61 53.6997 77.4648 52.9585Z" fill="#2D1929"/>
<path d="M37.7354 25.6552C37.7354 25.6552 36.041 39.3681 23.7901 42.4709C23.7901 42.4709 20.8523 31.8167 23.7901 24.8673C26.7279 17.9179 38.335 20.4257 38.335 20.4257C38.335 20.4257 45.9375 17.1927 51.3507 22.1758C56.7638 27.159 54.7812 41.6017 54.7812 41.6017C54.7812 41.6017 50.7115 41.7039 49.5842 37.9457C48.457 34.1874 42.6999 25.4414 37.7354 25.6552Z" fill="#287EEF"/>
<path d="M48.0773 42.4116C49.1 40.2129 51.3917 39.1112 53.2046 39.948C55.0174 40.7847 55.6543 43.253 54.6363 45.4517C53.6183 47.6504 51.3219 48.7544 49.5114 47.9154C47.7008 47.0763 47.0593 44.6243 48.0773 42.4116Z" fill="#834A27"/>
<path d="M51.3451 46.4157C51.3205 46.4162 51.2964 46.4089 51.2763 46.3948C51.2561 46.3808 51.2409 46.3607 51.2329 46.3374C51.2249 46.3141 51.2245 46.2889 51.2317 46.2654C51.2389 46.2419 51.2534 46.2213 51.2731 46.2066C51.4753 46.0532 51.9959 45.5744 51.9936 45.2002C51.9936 44.7562 51.3358 44.568 51.3289 44.568C51.3029 44.5601 51.2805 44.5436 51.2653 44.5212C51.25 44.4988 51.243 44.4718 51.2452 44.4448C51.3753 42.955 52.2725 40.9283 53.7182 41.2932C53.7329 41.2967 53.7468 41.3031 53.759 41.3121C53.7712 41.321 53.7815 41.3323 53.7893 41.3453C53.7971 41.3583 53.8022 41.3727 53.8043 41.3877C53.8065 41.4027 53.8056 41.418 53.8018 41.4326C53.7941 41.4626 53.775 41.4885 53.7485 41.5045C53.722 41.5206 53.6902 41.5257 53.6601 41.5186C52.405 41.2025 51.624 43.0875 51.4846 44.3727C51.7031 44.4541 52.2237 44.6981 52.226 45.1978C52.226 45.7673 51.4474 46.36 51.4149 46.3902C51.395 46.4061 51.3705 46.4151 51.3451 46.4157Z" fill="#2D1929"/>
<path d="M26.0658 38.5805C27.9508 37.9274 30.1216 39.2545 30.9188 41.5462C31.716 43.8379 30.8281 46.2225 28.9409 46.8779C27.0536 47.5334 24.8851 46.2039 24.0902 43.9146C23.2954 41.6252 24.1693 39.2406 26.0658 38.5805Z" fill="#834A27"/>
<path d="M27.27 45.2088C27.2408 45.2091 27.2126 45.1983 27.191 45.1786C27.1608 45.1484 26.4426 44.4814 26.4937 43.9096C26.5472 43.4122 27.0887 43.2123 27.3142 43.1635C27.3142 41.8713 26.7145 39.9096 25.4339 40.1025C25.4189 40.1052 25.4035 40.1047 25.3887 40.1011C25.3738 40.0976 25.3599 40.091 25.3477 40.0819C25.3355 40.0727 25.3253 40.0612 25.3177 40.048C25.3102 40.0347 25.3054 40.0201 25.3037 40.0049C25.2997 39.9748 25.3077 39.9442 25.326 39.9199C25.3442 39.8956 25.3713 39.8794 25.4014 39.8748C26.8796 39.6586 27.5652 41.7667 27.5443 43.2588C27.5446 43.2858 27.5351 43.312 27.5176 43.3325C27.5 43.353 27.4757 43.3665 27.449 43.3704C27.449 43.3704 26.7726 43.4936 26.7262 43.9328C26.6843 44.3094 27.1561 44.837 27.3398 45.0066C27.3567 45.0219 27.3687 45.0418 27.3744 45.0639C27.3801 45.086 27.3792 45.1092 27.3718 45.1308C27.3643 45.1524 27.3507 45.1712 27.3326 45.1851C27.3146 45.199 27.2928 45.2072 27.27 45.2088Z" fill="#2D1929"/>
<path d="M62.7891 82.4922C62.7891 82.4922 66.2754 102.369 69.3689 104.087C72.4625 105.804 85.499 99.466 86.1823 100.649C86.8656 101.832 79.3305 106.406 80.3578 107.88C81.3851 109.353 88.4136 110.204 88.4136 110.204L66.5961 110.257C64.5532 101.125 63.2797 91.8374 62.7891 82.4922Z" fill="#6D5FDE"/>
<path d="M81.3477 27.6957C80.948 29.8224 80.8039 32.6672 82.3193 35.0379C84.5552 38.5382 88.1298 37.4389 90.0543 40.4115C92.5481 44.2511 89.8381 51.0867 87.7812 56.2766C86.3006 60.014 84.4459 63.2493 85.9218 65.7711C86.3697 66.4962 87.0146 67.079 87.7812 67.4515C90.8422 69.0622 100.081 68.846 100.908 75.9C100.908 75.9 104.162 68.5601 100.444 61.3272C96.7248 54.0942 98.4377 43.9931 97.1478 35.7608C95.8578 27.5284 89.4476 23.726 83.6278 23.296C81.5649 22.7368 79.4123 22.5876 77.292 22.8567C77.292 22.8567 72.8457 23.4308 69.464 26.0897C64.6645 29.8642 62.919 38.0338 65.5593 46.3104L69.643 46.6567L69.4989 41.3691C69.4989 40.4603 69.6151 34.587 74.3495 30.6545C76.3498 29.0168 78.7793 27.9897 81.3477 27.6957Z" fill="#2D1929"/>
<path d="M71.9429 43.2558C71.0527 41.0548 68.861 39.8624 67.0481 40.5946C65.2352 41.3267 64.4915 43.7067 65.377 45.9101C66.2625 48.1134 68.4589 49.3034 70.2718 48.5759C72.0847 47.8485 72.8331 45.4592 71.9429 43.2558Z" fill="#F5B493"/>
<path d="M68.5575 47.0173C68.5301 47.0177 68.5036 47.0077 68.4832 46.9894C68.4506 46.9638 67.7138 46.3386 67.7464 45.7785C67.7743 45.2904 68.2926 45.0812 68.511 45.0092C68.439 43.7425 67.765 41.8645 66.5262 42.1109C66.511 42.1139 66.4955 42.1139 66.4804 42.1108C66.4652 42.1078 66.4509 42.1018 66.4381 42.0931C66.4254 42.0845 66.4144 42.0733 66.406 42.0604C66.3976 42.0475 66.3918 42.0331 66.389 42.0179C66.386 42.0031 66.3859 41.9878 66.3889 41.973C66.3918 41.9581 66.3977 41.944 66.4061 41.9315C66.4145 41.9189 66.4254 41.9082 66.438 41.8999C66.4507 41.8916 66.4648 41.8859 66.4797 41.8831C67.9137 41.5949 68.6947 43.6239 68.7481 45.0905C68.7489 45.1177 68.7403 45.1443 68.7238 45.1658C68.7073 45.1874 68.6839 45.2027 68.6575 45.209C68.6575 45.209 68.002 45.3601 67.9788 45.7924C67.9579 46.1596 68.4436 46.6524 68.6319 46.8128C68.6499 46.8281 68.6628 46.8486 68.6688 46.8715C68.6748 46.8944 68.6737 46.9186 68.6656 46.9408C68.6575 46.963 68.6428 46.9823 68.6235 46.9959C68.6042 47.0096 68.5812 47.0171 68.5575 47.0173Z" fill="#2D1929"/>
<path d="M81.0733 72.1831C78.9234 72.1831 77.1732 70.5027 76.0274 68.6852C75.4618 67.7845 74.9972 66.8243 74.6422 65.8218C74.6326 65.7909 74.6357 65.7576 74.6507 65.729C74.6658 65.7005 74.6915 65.6791 74.7224 65.6695C74.7532 65.66 74.7865 65.663 74.8151 65.6781C74.8436 65.6931 74.865 65.7189 74.8746 65.7497C74.8909 65.8032 76.6805 71.1907 80.3876 71.8856C84.0948 72.5806 87.6555 67.4394 87.6927 67.386C87.7104 67.3613 87.737 67.3445 87.7668 67.3389C87.7967 67.3332 87.8275 67.3393 87.853 67.3557C87.8658 67.3644 87.8767 67.3754 87.8851 67.3883C87.8936 67.4012 87.8994 67.4156 87.9022 67.4308C87.905 67.4459 87.9048 67.4614 87.9015 67.4765C87.8983 67.4915 87.8921 67.5058 87.8833 67.5184C87.2122 68.4509 86.4423 69.3081 85.5869 70.0751C84.025 71.4673 82.4841 72.1831 81.0733 72.1831Z" fill="#E5E5E5"/>
<path d="M80.9571 74.4881C81.4911 74.4881 81.924 73.7545 81.924 72.8495C81.924 71.9446 81.4911 71.2109 80.9571 71.2109C80.4231 71.2109 79.9902 71.9446 79.9902 72.8495C79.9902 73.7545 80.4231 74.4881 80.9571 74.4881Z" fill="#E5E5E5"/>
<path d="M10.8651 71.925L11.2323 68.0041C11.2323 68.0041 7.47176 62.5189 7.65072 60.2063C7.82969 57.8937 9.44037 58.7328 9.44037 58.7328C9.44037 58.7328 9.44037 54.8048 12.1992 57.3894C12.1992 57.3894 11.6182 47.6276 12.6199 47.9019C13.6216 48.1762 14.5839 56.3737 14.5839 56.3737C14.5839 56.3737 16.4711 47.5812 17.5868 47.8949C18.7024 48.2087 17.0011 57.143 17.0011 57.143C17.6681 57.2034 18.8999 57.4196 19.7181 58.3679C20.3479 59.0977 20.5269 60.0227 20.4339 62.2865C20.2945 65.717 20.2247 67.4323 19.567 68.5386C17.3474 72.3062 11.1905 71.9483 10.8651 71.925Z" fill="#834A27"/>
<path d="M12.7361 64.146C12.7178 64.1461 12.6997 64.1419 12.6833 64.1337C12.6669 64.1255 12.6527 64.1135 12.6419 64.0988C12.631 64.0841 12.6238 64.067 12.6207 64.0489C12.6177 64.0309 12.619 64.0124 12.6245 63.9949C12.9535 62.959 13.5864 62.0459 14.4411 61.3745C15.2958 60.703 16.3327 60.3041 17.417 60.2297L16.5362 59.5696C12.5315 59.3999 11.8761 57.9426 16.9801 57.0292C16.9953 57.0265 17.011 57.0267 17.0261 57.0301C17.0413 57.0334 17.0556 57.0396 17.0684 57.0485C17.0811 57.0573 17.092 57.0686 17.1004 57.0816C17.1087 57.0947 17.1145 57.1092 17.1172 57.1245C17.12 57.1398 17.1197 57.1554 17.1164 57.1706C17.1131 57.1857 17.1068 57.2001 17.098 57.2128C17.0891 57.2255 17.0778 57.2364 17.0648 57.2448C17.0517 57.2532 17.0372 57.2589 17.0219 57.2616C15.5577 57.5219 13.5147 58.103 13.5821 58.5516C13.6564 59.0443 15.467 59.2953 16.5896 59.3395C16.6431 59.3395 16.5501 59.2814 17.8122 60.2483C17.8317 60.2629 17.8461 60.2833 17.8533 60.3066C17.8606 60.3299 17.8604 60.3548 17.8527 60.378C17.845 60.4011 17.8302 60.4212 17.8104 60.4355C17.7906 60.4498 17.7668 60.4574 17.7424 60.4574C16.6489 60.4663 15.5863 60.8209 14.7066 61.4705C13.827 62.1201 13.1754 63.0314 12.8453 64.0739C12.8367 64.0957 12.8216 64.1143 12.8021 64.1272C12.7825 64.1401 12.7595 64.1466 12.7361 64.146Z" fill="#2D1929"/>
<path d="M11.1007 62.7845C10.1105 62.7845 8.51845 60.8391 8.33252 60.6067C8.3131 60.5827 8.30403 60.5519 8.30729 60.5212C8.31056 60.4905 8.32591 60.4623 8.34995 60.4429C8.37399 60.4234 8.40476 60.4144 8.43549 60.4176C8.46621 60.4209 8.49439 60.4363 8.5138 60.4603C9.02513 61.0971 10.5033 62.7125 11.2053 62.5381C11.2256 62.5348 11.2447 62.5258 11.2603 62.5123C11.2759 62.4988 11.2874 62.4812 11.2936 62.4614C11.4725 61.9641 10.1942 59.9536 9.34588 58.8031C9.32822 58.778 9.32102 58.747 9.32579 58.7166C9.33056 58.6863 9.34693 58.6589 9.37144 58.6404C9.3961 58.6219 9.42709 58.614 9.4576 58.6184C9.48811 58.6227 9.51564 58.639 9.53414 58.6637C10.3151 59.7305 12.4301 62.7845 11.1007 62.7845Z" fill="#2D1929"/>
<path d="M11.1129 61.6354C11.0882 61.6169 11.0719 61.5893 11.0676 61.5588C11.0632 61.5283 11.0712 61.4973 11.0896 61.4727C11.1085 61.4485 11.136 61.4326 11.1663 61.4283C11.1966 61.4239 11.2275 61.4315 11.2523 61.4494C11.5638 61.6818 12.4586 62.2118 12.8421 61.8004C13.2256 61.389 12.5702 58.9137 12.0867 57.4262C12.0772 57.3969 12.0797 57.3651 12.0936 57.3376C12.1076 57.3101 12.1318 57.2894 12.1611 57.2798C12.1756 57.2747 12.191 57.2727 12.2063 57.2737C12.2216 57.2747 12.2365 57.2788 12.2502 57.2858C12.2638 57.2927 12.276 57.3024 12.2858 57.3141C12.2957 57.3259 12.3031 57.3395 12.3075 57.3542C12.54 58.1072 13.5533 61.3797 13.0048 61.9608C12.5469 62.4581 11.6544 62.0375 11.1129 61.6354Z" fill="#2D1929"/>
<path d="M106.019 70.168C106.019 70.168 110.033 106.765 102.728 109.703C101.101 110.356 99.7317 110.416 98.5719 110.012C93.9235 108.399 93.5493 99.0185 93.354 94.4142C93.1356 89.2126 93.5469 81.0848 97.2913 71.2441L106.019 70.168Z" fill="#917EEC"/>
<path d="M97.1266 71.2109C97.1266 71.2109 86.7606 95.8872 89.7681 110.258H97.1266C97.1266 110.258 86.1493 111.752 97.1266 71.2109Z" fill="#6D5FDE"/>
<path d="M97.127 71.757L98.7679 67.3247C98.7679 67.3247 98.4239 62.8692 99.8161 60.5101C101.208 58.151 100.021 54.0999 100.853 53.7699C101.685 53.4398 102.965 55.771 103.233 57.2562C103.5 58.7414 103.698 59.6153 104.65 59.685C105.603 59.7547 109.164 58.0906 110.243 58.7553C111.321 59.42 109.894 61.0261 109.894 61.0261C109.894 61.0261 112.304 61.463 110.896 63.176C110.896 63.176 112.574 63.4084 111.377 65.2562C111.377 65.2562 112.818 65.5467 111.967 66.8692C111.116 68.1916 109.134 70.9273 106.549 70.8087L106.398 73.5002C106.398 73.5002 100.655 75.2759 97.127 71.757Z" fill="#F5B493"/>
<path d="M104.215 64.3618C104.196 64.3618 104.178 64.3573 104.161 64.3487C104.145 64.3401 104.131 64.3276 104.12 64.3124C104.109 64.2971 104.102 64.2794 104.1 64.261C104.097 64.2425 104.099 64.2236 104.106 64.2061C104.773 62.3955 103.803 59.4089 103.794 59.3787C103.785 59.3494 103.788 59.3178 103.802 59.2905C103.816 59.2632 103.84 59.2424 103.869 59.2323C103.898 59.2227 103.93 59.2252 103.957 59.2392C103.985 59.2531 104.005 59.2774 104.015 59.3066C104.057 59.4322 105.019 62.4002 104.324 64.2851C104.315 64.3072 104.3 64.3263 104.281 64.3399C104.262 64.3536 104.239 64.3612 104.215 64.3618Z" fill="#2D1929"/>
<path d="M107.089 67.1693C106.933 66.7045 107.642 66.3303 108.096 66.1234C107.068 66.2373 106.152 66.1606 105.96 65.5958C105.767 65.031 106.457 64.5941 106.98 64.3245C106.083 64.429 105.548 64.3244 105.353 63.9781C104.976 63.3157 106.376 62.5255 107.047 62.1653C105.885 62.4999 104.765 62.6859 104.491 62.2745C103.928 61.4122 106.35 59.3413 106.638 59.1089C106.662 59.0892 106.693 59.0797 106.723 59.0825C106.739 59.0839 106.753 59.0883 106.767 59.0954C106.78 59.1025 106.792 59.1123 106.802 59.124C106.812 59.1358 106.819 59.1493 106.824 59.1639C106.828 59.1785 106.83 59.1939 106.828 59.2091C106.827 59.2243 106.823 59.2391 106.816 59.2526C106.808 59.2661 106.799 59.2781 106.787 59.2879C105.795 60.1176 104.347 61.626 104.695 62.1467C104.858 62.3977 106.134 62.3535 108.879 61.3123C109.418 61.0798 109.808 60.9381 109.864 60.9195C109.892 60.9109 109.923 60.9133 109.949 60.9262C109.975 60.939 109.996 60.9614 110.006 60.9887C110.017 61.0161 110.017 61.0464 110.006 61.0736C109.995 61.1009 109.974 61.123 109.948 61.1356C109.774 61.21 109.448 61.3425 109.037 61.4982C108.295 61.8073 105.172 63.1693 105.569 63.8619C105.778 64.2292 106.731 64.1734 107.861 63.941C108.847 63.5805 109.856 63.2877 110.882 63.0647C110.913 63.0561 110.946 63.0601 110.974 63.0758C111.002 63.0914 111.022 63.1176 111.031 63.1484C111.04 63.1792 111.036 63.2122 111.02 63.2401C111.004 63.268 110.978 63.2885 110.947 63.2971C109.944 63.6561 108.918 63.9504 107.877 64.178C107.322 64.3919 105.978 64.959 106.171 65.5261C106.415 66.2373 108.507 65.8515 109.241 65.6981C110.197 65.3959 111.15 65.1914 111.333 65.1495C111.364 65.1418 111.397 65.1467 111.424 65.163C111.451 65.1794 111.471 65.2059 111.478 65.2367C111.486 65.2675 111.481 65.3001 111.465 65.3274C111.449 65.3546 111.422 65.3743 111.391 65.382C111.18 65.4494 110.285 65.7306 109.276 65.9398C108.811 66.0862 107.138 66.637 107.291 67.1019C107.524 67.7992 109.365 67.8503 110.055 67.8108C110.086 67.8089 110.116 67.8194 110.139 67.8399C110.162 67.8604 110.176 67.8892 110.178 67.92C110.18 67.9508 110.169 67.9811 110.149 68.0042C110.128 68.0273 110.1 68.0414 110.069 68.0432C109.218 68.099 107.368 68.006 107.089 67.1693Z" fill="#2D1929"/>
</svg>
