<svg width="106" height="105" viewBox="0 0 106 105" fill="none" xmlns="http://www.w3.org/2000/svg">
<g clip-path="url(#clip0_471_19550)">
<path d="M59.0634 74.9478C57.9106 72.3696 57.3069 69.5658 57.3069 66.7164L57.2575 57.5808C57.2575 44.4861 46.6422 33.8711 33.5478 33.8711C30.5645 33.8711 27.7096 34.4211 25.0801 35.4268L17.2623 44.707L17.2129 77.8271L33.548 89.758L57.3145 79.379C59.0193 78.6345 59.8228 76.6461 59.0634 74.9478Z" fill="#785353"/>
<path d="M25.0809 35.4258C16.1741 38.8377 9.83906 47.4729 9.83906 57.5798L9.78963 66.7154C9.78963 69.5647 9.18588 72.3686 8.03314 74.947C7.27374 76.6453 8.07723 78.6337 9.78205 79.3781L25.0809 86.0592V35.4258Z" fill="#6E4848"/>
<path d="M48.6124 89.3897L44.9456 87.723C43.1318 86.8986 41.9674 85.0902 41.9674 83.0979V81.1406H25.0319V83.0979C25.0319 85.0902 23.8674 86.8988 22.0535 87.7232L18.3867 89.3899L16.291 99.6664H51.4619L48.6124 89.3897Z" fill="#D19A6E"/>
<path d="M25.0315 81.0962C27.6247 82.2968 30.5029 82.9856 33.5486 82.9856C36.555 82.9856 39.3994 82.3154 41.9668 81.1438V72.8242H25.0312L25.0315 81.0962Z" fill="#C38C66"/>
<path d="M48.5631 57.6022C36.1455 59.1034 29.1531 54.1149 25.8206 50.5266C25.1717 49.8281 24.0602 49.8365 23.3861 50.5108L18.052 55.8445C17.0992 56.7973 17.1113 58.0895 17.1113 59.4368V62.0828L25.0337 77.2618C27.2038 78.5673 29.6906 79.3883 32.372 79.562C42.2357 80.2006 50.4349 72.3894 50.4349 62.6631V59.3C50.4349 58.2923 49.5635 57.4812 48.5631 57.6022Z" fill="#E2A975"/>
<path d="M70.2266 15.242C70.2266 23.6599 75.9374 29.463 84.3554 29.463C89.2293 29.463 93.569 28.1962 96.3591 24.6362C98.3879 22.0475 99.5974 18.786 99.5974 15.242C99.5972 6.82397 92.7733 0 84.3554 0C80.8041 0 77.5366 1.21447 74.9452 3.2509C71.3943 6.0414 70.2266 10.3753 70.2266 15.242Z" fill="#FAF5DC"/>
<path d="M27.5703 28.7892C27.5703 39.0778 35.0657 46.3466 45.3543 46.3466C51.1278 46.3466 56.2878 44.7919 59.7048 40.6686C62.377 37.4442 63.9834 33.3042 63.9834 28.7892C63.9834 18.5007 55.6428 10.1602 45.3543 10.1602C40.853 10.1602 36.7246 11.7565 33.5045 14.4141C29.3643 17.8311 27.5703 23.0019 27.5703 28.7892Z" fill="#FAF5DC"/>
<path d="M84.4758 20.2441C83.5396 20.2441 82.7823 19.4858 82.7823 18.5506V14.5142C82.7823 13.5791 83.5398 12.8207 84.4758 12.8207C85.0744 12.8207 85.6318 12.581 86.0453 12.1452C86.4603 11.7102 86.6703 11.1389 86.639 10.5359C86.5811 9.41047 85.6499 8.51161 84.5219 8.48926C84.507 8.48843 84.4922 8.48844 84.4756 8.48844C83.3973 8.48844 82.4794 9.28147 82.3305 10.3491C82.3171 10.4508 82.3089 10.5517 82.3089 10.6543C82.3089 11.5894 81.5514 12.3478 80.6154 12.3478C79.6792 12.3478 78.9219 11.5894 78.9219 10.6543C78.9219 10.3914 78.9401 10.1334 78.9764 9.87948C79.3634 7.09862 81.836 5.0544 84.5896 5.10239C87.4855 5.16022 89.872 7.46981 90.0226 10.3616C90.1003 11.9013 89.5611 13.3633 88.5011 14.479C87.8561 15.1578 87.0489 15.6582 86.1691 15.941V18.5506C86.1693 19.4858 85.4118 20.2441 84.4758 20.2441Z" fill="#FF8086"/>
<path d="M84.4767 25.2855C85.4121 25.2855 86.1703 24.5273 86.1703 23.592C86.1703 22.6567 85.4121 21.8984 84.4767 21.8984C83.5414 21.8984 82.7832 22.6567 82.7832 23.592C82.7832 24.5273 83.5414 25.2855 84.4767 25.2855Z" fill="#FF8086"/>
<path d="M75.2526 56.4819C74.3164 56.4819 73.5591 55.7235 73.5591 54.7883V49.4969C73.5591 48.5618 74.3166 47.8034 75.2526 47.8034C76.1837 47.8034 77.052 47.4303 77.6953 46.754C78.337 46.0776 78.6645 45.1903 78.6149 44.2559C78.5238 42.5054 77.0784 41.1061 75.3221 41.0715C75.3006 41.0707 75.2774 41.0707 75.2542 41.0707C73.579 41.0707 72.1516 42.3044 71.9184 43.9666C71.8986 44.1163 71.8871 44.275 71.8871 44.437C71.8871 45.3722 71.1295 46.1306 70.1935 46.1306C69.2576 46.1306 68.5 45.3722 68.5 44.437C68.5 44.1196 68.5215 43.8085 68.5628 43.5035C69.0307 40.1603 71.8936 37.6836 75.2542 37.6836C75.299 37.6836 75.3453 37.6836 75.3914 37.6844C78.9124 37.7556 81.8151 40.5645 81.9987 44.0798C82.0946 45.9519 81.438 47.7298 80.1513 49.0859C79.2764 50.0063 78.1584 50.6562 76.9461 50.9731V54.7885C76.9461 55.7237 76.1886 56.4819 75.2526 56.4819Z" fill="#FF8086"/>
<path d="M60.5959 99.9189V99.2001C60.5959 96.5438 59.0432 94.1324 56.625 93.033L48.6119 89.3906L35.6686 95.5028C34.295 96.1514 32.7032 96.1514 31.3298 95.5028L18.3865 89.3906L10.3733 93.0332C7.95499 94.1324 6.40234 96.5437 6.40234 99.2003V99.9191C6.40234 102.725 8.67707 105 11.4829 105H55.5153C58.3212 105 60.5959 102.725 60.5959 99.9189Z" fill="#F5EBCD"/>
<path d="M50.4354 59.2984V57.8547C50.4354 56.8469 49.564 56.0358 48.5634 56.1568C36.1455 57.658 29.1532 52.6693 25.8207 49.0812C25.1718 48.3827 24.0603 48.3913 23.3862 49.0654L18.0525 54.3991C17.0997 55.3519 16.5645 56.6441 16.5645 57.9915V62.0813C16.5645 68.4307 19.8978 74.1895 25.0342 77.2604V59.4881C25.0342 56.965 27.7656 55.2885 29.9919 56.4761C33.5125 58.3542 38.1774 59.8162 44.1704 59.8162C46.1115 59.8158 48.2086 59.6413 50.4354 59.2984Z" fill="#D19A6E"/>
<path d="M45.2843 34.6776C44.3481 34.6776 43.5907 33.9192 43.5907 32.984V28.507C43.5907 27.5718 44.3483 26.8134 45.2843 26.8134C46.0004 26.8134 46.6669 26.5265 47.1613 26.0065C47.6558 25.4864 47.9072 24.8041 47.8693 24.0855C47.7998 22.7402 46.6884 21.6652 45.3388 21.6379C45.3222 21.6371 45.3042 21.6371 45.2859 21.6371C43.9992 21.6371 42.9011 22.5847 42.7224 23.8624C42.7042 23.9864 42.6976 24.1046 42.6976 24.2254C42.6976 25.1605 41.9401 25.9189 41.0041 25.9189C40.0679 25.9189 39.3105 25.1605 39.3105 24.2254C39.3105 23.9409 39.3304 23.6606 39.3684 23.3868C39.7802 20.4421 42.3139 18.25 45.2859 18.25C45.3273 18.25 45.3669 18.25 45.4067 18.2508C48.5243 18.3144 51.0911 20.8001 51.2531 23.9104C51.3374 25.5668 50.757 27.1395 49.6174 28.3394C48.8914 29.1036 47.9751 29.6575 46.9778 29.9536V32.9842C46.9778 33.9192 46.2202 34.6776 45.2843 34.6776Z" fill="#FF8086"/>
<path d="M45.2834 40.2386C46.2187 40.2386 46.9769 39.4804 46.9769 38.5451C46.9769 37.6098 46.2187 36.8516 45.2834 36.8516C44.3481 36.8516 43.5898 37.6098 43.5898 38.5451C43.5898 39.4804 44.3481 40.2386 45.2834 40.2386Z" fill="#FF8086"/>
<path d="M47.8235 44.9484C37.5349 44.9484 29.1944 36.6078 29.1944 26.3193C29.1944 21.8041 30.8315 17.6385 33.5039 14.4141C29.3814 17.8311 26.7246 23.0163 26.7246 28.7892C26.7246 39.0778 35.0651 47.4183 45.3537 47.4183C51.1271 47.4183 56.2872 44.7919 59.7042 40.6688C56.4796 43.3416 52.3391 44.9484 47.8235 44.9484Z" fill="#F5EBCD"/>
<path d="M86.8956 27.9428C78.4778 27.9428 71.6536 21.1187 71.6536 12.7008C71.6536 9.13964 72.8986 5.84485 74.9451 3.25C71.4067 6.04111 69.1133 10.3843 69.1133 15.2411C69.1133 23.659 75.9373 30.4831 84.3553 30.4831C89.2118 30.4831 93.5678 28.174 96.3589 24.6353C93.7641 26.682 90.4568 27.9428 86.8956 27.9428Z" fill="#F5EBCD"/>
<path d="M75.2521 63.1097C76.1874 63.1097 76.9457 62.3515 76.9457 61.4162C76.9457 60.4809 76.1874 59.7227 75.2521 59.7227C74.3168 59.7227 73.5586 60.4809 73.5586 61.4162C73.5586 62.3515 74.3168 63.1097 75.2521 63.1097Z" fill="#FF8086"/>
</g>
<defs>
<clipPath id="clip0_471_19550">
<rect width="105" height="105" fill="white" transform="translate(0.5)"/>
</clipPath>
</defs>
</svg>
