<svg width="119" height="119" viewBox="0 0 119 119" fill="none" xmlns="http://www.w3.org/2000/svg">
<path d="M102.266 52.0625H98.2756C97.2397 52.0625 96.2243 51.774 95.3431 51.2294C94.4619 50.6848 93.7497 49.9055 93.2865 48.979L91.1094 44.625H102.266V52.0625Z" fill="#EA9D2D"/>
<path d="M102.266 52.0625H106.256C107.292 52.0625 108.307 51.774 109.188 51.2294C110.069 50.6848 110.782 49.9055 111.245 48.979L113.422 44.625H102.266V52.0625Z" fill="#EA9D2D"/>
<path d="M102.266 37.1875L99.7959 40.8918C98.9814 42.1136 98.5468 43.5492 98.5469 45.0176V45.263C98.5469 46.2397 98.7393 47.2069 99.113 48.1093C99.4868 49.0117 100.035 49.8316 100.725 50.5222L102.266 52.0625L103.806 50.5222C104.497 49.8316 105.044 49.0117 105.418 48.1093C105.792 47.2069 105.984 46.2397 105.984 45.263V45.0176C105.984 43.5492 105.55 42.1136 104.735 40.8918L102.266 37.1875Z" fill="#FBB540"/>
<path d="M40.9062 91.1094L44.625 87.3906L46.4844 81.8125H72.5156L74.375 87.3906L78.0938 91.1094L81.8125 94.0844L59.5 105.984L37.1875 94.8281L40.9062 91.1094Z" fill="#5D70B3"/>
<path d="M58.6493 100.405L57.7127 105.088L37.1875 94.8267L40.9063 91.1079L41.729 90.2852L58.6493 100.405Z" fill="#CF5252"/>
<path d="M81.8125 94.083L62.1891 104.549L61.3594 100.405L77.6498 90.6641L78.0938 91.108L81.8125 94.083Z" fill="#CF5252"/>
<path d="M44.625 47.1797L40.6297 48.4813C39.5501 49.021 38.6 49.788 37.8448 50.7295C37.0895 51.671 36.5469 52.7648 36.2541 53.9357L31.6094 72.5137L16.7344 81.8105L11.1562 79.9512L5.57812 81.8105L7.4375 91.1074L35.1117 82.4592C35.7682 82.2542 36.3765 81.9187 36.9003 81.4731C37.424 81.0274 37.8525 80.4806 38.16 79.8654L44.625 66.9355V47.1797Z" fill="#FDC9A6"/>
<path d="M74.375 47.1797L78.3703 48.4801C79.4499 49.0199 80.4 49.7868 81.1552 50.7283C81.9105 51.6698 82.4531 52.7636 82.7459 53.9346L87.3906 72.5137L102.266 81.8105L107.844 79.9512L113.422 81.8105L111.562 91.1074L83.8883 82.4592C83.2318 82.2542 82.6235 81.9187 82.0997 81.4731C81.576 81.0274 81.1475 80.4806 80.84 79.8654L74.375 66.9355V47.1797Z" fill="#FDC9A6"/>
<path d="M65.0781 14.875L64.4299 11.6343C64.0884 9.92655 63.1657 8.38985 61.8189 7.28568C60.472 6.18152 58.7842 5.57811 57.0426 5.57813C55.0445 5.57817 53.1283 6.37191 51.7155 7.78474C49.4676 10.0326 47.6844 12.7012 46.4678 15.6382C45.2512 18.5753 44.625 21.7231 44.625 24.9021V25.427C44.6251 27.3288 44.1556 29.2012 43.2582 30.878C42.3608 32.5548 41.0633 33.9841 39.4808 35.039L39.0469 35.3281L40.4879 36.0486C42.3094 36.9596 44.3395 37.3727 46.3722 37.2462C48.4049 37.1196 50.368 36.4579 52.0625 35.3281L65.0781 14.875Z" fill="#683B0D"/>
<path d="M66.9375 44.9969L65.0781 44.625V37.1875H53.9219V44.625L52.0625 44.9969V53.9219L59.5 59.5L66.9375 53.9219V44.9969Z" fill="#FDC9A6"/>
<path d="M65.0781 37.1875V39.0469C63.4689 40.2538 61.5116 40.9062 59.5 40.9062C57.4884 40.9062 55.5311 40.2538 53.9219 39.0469V37.1875H65.0781Z" fill="#FDC9A6"/>
<path d="M66.9382 44.9961L74.3757 47.1809V55.7805C75.455 57.3994 75.9913 59.3198 75.9069 61.2637C75.8225 63.2076 75.122 65.0743 73.9065 66.5937L70.657 70.6555H48.3445L45.095 66.5937C43.8795 65.0743 43.1789 63.2076 43.0946 61.2637C43.0102 59.3198 43.5465 57.3994 44.6257 55.7805V47.1809L52.0632 44.9961V53.9211L59.5007 59.4992L66.9382 53.9211V44.9961Z" fill="#F1746A"/>
<path d="M48.3438 70.6562V73.8204C48.3437 75.4193 48.086 77.0076 47.5805 78.5244L46.4844 81.8125H72.5156L71.4195 78.5244C70.914 77.0076 70.6563 75.4193 70.6562 73.8204V70.6562H48.3438Z" fill="#FDC9A6"/>
<path d="M81.8125 94.0829L78.0938 91.1079L77.6498 90.664L61.3594 100.405H58.6493L41.729 90.2852L40.9062 91.1079L37.1875 94.8267L57.7127 104.124H62.1891L81.8125 94.0829Z" fill="#4162AA"/>
<path d="M65.0781 37.1875V39.0469C63.4689 40.2538 61.5116 40.9062 59.5 40.9062C57.4884 40.9062 55.5311 40.2538 53.9219 39.0469V37.1875H65.0781Z" fill="#F6BB92"/>
<path d="M16.7344 53.9219H12.7444C11.7085 53.9219 10.693 53.6334 9.81182 53.0888C8.93062 52.5441 8.21849 51.7649 7.75522 50.8383L5.57812 46.4844H16.7344V53.9219Z" fill="#029532"/>
<path d="M16.7344 53.9219H20.7244C21.7603 53.9219 22.7757 53.6334 23.6569 53.0888C24.5381 52.5441 25.2503 51.7649 25.7135 50.8383L27.8906 46.4844H16.7344V53.9219Z" fill="#029532"/>
<path d="M63.2188 111.561L95.7627 98.2693C96.6067 97.8225 97.3522 97.2106 97.955 96.47C98.5578 95.7293 99.0056 94.875 99.2716 93.9579C99.5377 93.0407 99.6167 92.0795 99.5039 91.1312C99.3911 90.1829 99.0888 89.267 98.615 88.4379C98.1303 87.5897 97.4765 86.8502 96.6939 86.2653C95.9114 85.6805 95.017 85.2629 94.0662 85.0384C93.1154 84.8138 92.1287 84.7873 91.1672 84.9603C90.2057 85.1332 89.2901 85.5021 88.4772 86.0439L61.3594 102.264L63.2188 111.561Z" fill="#5D70B3"/>
<path d="M56.7901 111.561L24.2462 98.2693C23.4022 97.8225 22.6566 97.2106 22.0538 96.47C21.451 95.7293 21.0033 94.875 20.7372 93.9579C20.4711 93.0407 20.3922 92.0795 20.505 91.1312C20.6178 90.1829 20.9201 89.267 21.3939 88.4379C21.8785 87.5897 22.5324 86.8502 23.3149 86.2653C24.0975 85.6805 24.9919 85.2629 25.9427 85.0384C26.8934 84.8138 27.8802 84.7873 28.8417 84.9603C29.8032 85.1332 30.7188 85.5021 31.5317 86.0439L58.6495 102.264L56.7901 111.561Z" fill="#5D70B3"/>
<path d="M61.3594 102.266L52.0625 104.125L46.4844 102.266L42.7656 105.984L44.625 111.562H63.2188L61.3594 102.266Z" fill="#FDC9A6"/>
<path d="M68.7969 26.0303V29.749C68.7969 32.2147 67.8174 34.5794 66.0739 36.3229C64.3304 38.0664 61.9657 39.0459 59.5 39.0459C57.0343 39.0459 54.6696 38.0664 52.9261 36.3229C51.1826 34.5794 50.2031 32.2147 50.2031 29.749V22.3115C50.2022 21.3246 50.3586 20.3439 50.6663 19.4062L68.7969 26.0303Z" fill="#FDC9A6"/>
<path d="M68.7969 22.3109V26.0297C62.7622 26.0297 56.8903 24.0724 52.0625 20.4516L50.668 19.4057C51.3584 17.3051 52.7748 15.5194 54.6631 14.3691C56.5514 13.2187 58.7879 12.779 60.9711 13.1289C63.1544 13.4787 65.1414 14.5953 66.5757 16.2781C68.0099 17.9609 68.7974 20.0998 68.7969 22.3109Z" fill="#683B0D"/>
<path d="M16.7344 39.0469L14.2647 42.7512C13.4502 43.973 13.0156 45.4085 13.0156 46.8769V47.1224C13.0156 48.0991 13.208 49.0663 13.5818 49.9687C13.9556 50.871 14.5034 51.691 15.1941 52.3816L16.7344 53.9219L18.2746 52.3816C18.9653 51.691 19.5132 50.871 19.887 49.9687C20.2607 49.0663 20.4531 48.0991 20.4531 47.1224V46.8769C20.4532 45.4085 20.0186 43.973 19.2041 42.7512L16.7344 39.0469Z" fill="#02A437"/>
</svg>
