<svg width="120" height="119" viewBox="0 0 120 119" fill="none" xmlns="http://www.w3.org/2000/svg">
<path d="M47.7547 78.1367L46.8535 83.024C46.8535 83.024 52.7296 85.1738 56.8115 85.2163C60.8934 85.2588 69.5093 83.445 69.5093 83.445L68.8384 79.0084C68.8384 79.0084 55.302 80.0289 47.7547 78.1367Z" fill="#FFA9A9"/>
<path d="M72.1376 56.6424C72.7757 59.4694 72.7678 62.8498 71.8959 64.9336C71.024 67.0174 69.4224 76.9249 69.4224 76.9249L69.5489 77.8364C69.6641 78.6766 69.0712 79.4492 68.2298 79.5531C66.7604 79.7349 63.4726 79.9371 58.7165 79.9009C53.093 79.858 49.594 79.1804 47.8908 78.7342C47.2131 78.5569 46.7907 77.8838 46.9251 77.1971C47.4594 74.4604 46.9952 72.0332 46.9952 72.0332C47.5204 71.1602 49.3331 58.6889 49.3331 58.6889L45.8748 55.6778C40.2626 53.594 39.4121 49.676 39.4121 49.676L41.3886 47.3945C42.2764 46.727 43.2974 46.2369 44.3353 45.8788C45.8635 49.8375 47.3984 52.9729 47.4458 53.07C47.4153 52.965 46.4722 49.7901 46.0295 45.3988C48.6396 44.8092 50.9335 44.9087 50.9335 44.9087C50.9335 44.9087 53.2308 46.5441 59.5026 47.128C65.7744 47.7131 68.6962 45.0634 68.6962 45.0634C68.9989 45.0307 69.2993 45.0126 69.5952 45.0069C69.5828 45.0645 69.5704 45.1233 69.5591 45.182C68.9266 48.4223 68.9662 51.761 69.654 54.99C69.654 54.99 71.094 49.0616 73.563 45.6371C76.7356 46.6864 78.8905 48.6719 78.8905 48.6719C77.4979 53.0722 72.1376 56.6424 72.1376 56.6424Z" fill="#39897E"/>
<path d="M59.8314 52.186C65.039 52.186 69.2605 51.2996 69.2605 50.2063C69.2605 49.1129 65.039 48.2266 59.8314 48.2266C54.6239 48.2266 50.4023 49.1129 50.4023 50.2063C50.4023 51.2996 54.6239 52.186 59.8314 52.186Z" fill="#E55E4A"/>
<path d="M59.8306 52.0965C62.9461 52.0965 65.4717 51.705 65.4717 51.2221C65.4717 50.7391 62.9461 50.3477 59.8306 50.3477C56.7151 50.3477 54.1895 50.7391 54.1895 51.2221C54.1895 51.705 56.7151 52.0965 59.8306 52.0965Z" fill="#C14C40"/>
<path d="M56.8275 42.801C56.8117 43.3872 56.6874 43.9869 56.3373 44.2579C56.2277 44.3427 56.0967 44.3958 55.9409 44.4059C54.6646 44.4918 44.2771 46.0484 44.2771 46.0484C44.2771 46.0484 42.3876 39.904 43.7587 35.6923C45.0271 31.798 44.9695 29.7356 48.403 26.8984C48.4132 27.069 48.4267 27.243 48.4436 27.4191V27.4225C48.5487 28.5587 48.7644 29.8045 49.0976 31.0548C49.1123 31.1101 49.127 31.1666 49.1428 31.222C49.1473 31.2412 49.1529 31.2592 49.1575 31.2773C49.1721 31.3281 49.1868 31.379 49.2015 31.4287C49.2512 31.6003 49.3043 31.772 49.3619 31.9425C49.372 31.9753 49.3822 32.0069 49.3935 32.0385C49.4104 32.0882 49.4274 32.1379 49.4443 32.1865C49.4647 32.2452 49.485 32.3028 49.5064 32.3604C49.5098 32.3683 49.5132 32.3774 49.5155 32.3842C49.5336 32.4338 49.5516 32.4824 49.5697 32.5321C49.5731 32.5412 49.5776 32.5502 49.581 32.5604C49.6024 32.6168 49.625 32.6733 49.6476 32.7309C49.6713 32.7896 49.6951 32.8495 49.7199 32.9093C49.7233 32.9161 49.7267 32.924 49.7301 32.932C49.7527 32.9873 49.7764 33.0426 49.8001 33.0979C49.8238 33.1511 49.8464 33.2041 49.8713 33.2583C49.8746 33.2663 49.878 33.2753 49.8825 33.2832C49.9051 33.3329 49.9266 33.3815 49.9503 33.4312C49.9605 33.4537 49.9706 33.4752 49.9808 33.4967C50.0034 33.5452 50.0271 33.5938 50.0508 33.6412C50.0802 33.7011 50.1107 33.7621 50.1412 33.8208C50.1706 33.8807 50.2022 33.9394 50.2338 33.9992C50.2349 34.0015 50.2349 34.0038 50.2372 34.006C50.2677 34.0637 50.2982 34.1201 50.3298 34.1766C50.3626 34.2353 50.3953 34.2941 50.4292 34.3527C50.4597 34.4058 50.4913 34.4601 50.5229 34.5132C50.5263 34.5177 50.5297 34.5233 50.532 34.5278C50.9838 35.2812 51.5293 35.9927 52.1866 36.6354C52.932 37.365 53.8209 38.0042 54.8803 38.5136C55.8019 40.0722 56.5417 41.2977 56.6106 41.3327C56.7032 41.3801 56.8478 42.0804 56.8275 42.801Z" fill="#6767A4"/>
<path d="M70.8588 43.8237C70.2151 46.0871 67.2896 44.7159 64.3881 43.8237C64.3881 43.8237 63.9026 41.0927 64.6356 39.0394C65.2489 38.809 65.8238 38.5312 66.3614 38.2183C66.977 37.8591 67.5428 37.4537 68.0612 37.0211C68.0624 37.0199 68.0635 37.0188 68.0646 37.0177C68.129 36.9646 68.1934 36.9092 68.2566 36.8539C68.2916 36.8245 68.3255 36.794 68.3594 36.7647C68.3673 36.7568 68.3763 36.7489 68.3842 36.741C68.4215 36.7082 68.4588 36.6755 68.496 36.6416L68.5401 36.6009C68.5819 36.5614 68.6237 36.523 68.6655 36.4834C68.714 36.4383 68.7615 36.392 68.8089 36.3468C69.0224 36.1401 69.2257 35.93 69.4199 35.7166C69.4459 35.6883 69.473 35.659 69.499 35.6296C69.5363 35.5878 69.5747 35.546 69.6108 35.5031C69.6526 35.4568 69.6933 35.4094 69.7339 35.3619C69.7814 35.3066 69.8288 35.2501 69.8762 35.1936C69.9101 35.153 69.9429 35.1134 69.9756 35.0728C70.0095 35.0321 70.0434 34.9904 70.075 34.9497C70.206 34.787 70.3303 34.6255 70.45 34.4629C70.4771 34.4256 70.5042 34.3895 70.5313 34.3533C70.5663 34.3059 70.6002 34.2585 70.633 34.2111C70.7278 34.0789 70.8193 33.9456 70.9074 33.8146C70.93 33.7807 70.9537 33.7457 70.9763 33.7118C71.0712 33.5684 71.1615 33.4261 71.2485 33.286C71.2756 33.242 71.3016 33.1991 71.3276 33.1561C71.4778 32.9099 71.6156 32.6693 71.7421 32.4389C71.7556 32.4129 71.7692 32.387 71.7839 32.361C71.8979 32.1487 72.003 31.9442 72.0978 31.75C72.1137 31.7195 72.1283 31.6878 72.143 31.6574C72.2932 31.3445 72.4186 31.061 72.5191 30.8148C72.5315 30.7843 72.5428 30.755 72.5541 30.7267C72.6185 30.5675 72.6705 30.4274 72.7134 30.3065C72.7213 30.2851 72.7281 30.2636 72.7348 30.2422C73.356 31.8562 74.0122 33.7773 74.263 35.2422C74.7916 38.3335 71.5015 41.5591 70.8588 43.8237Z" fill="#6767A4"/>
<path d="M60.5009 14.3711C60.4162 14.5055 57.6603 18.8369 52.3271 23.5771C45.8351 29.3497 45.3607 38.7614 46.0294 45.3979C45.4725 45.5233 44.901 45.6814 44.3352 45.8779C42.5168 41.1625 40.7063 35.2793 41.4314 31.9723C42.7732 25.8451 45.6894 23.5263 51.3513 21.0777C56.9251 18.6686 60.3936 14.501 60.5009 14.3711Z" fill="#8C8EB6"/>
<path d="M73.176 27.3592C73.2321 26.2302 73.2023 25.0533 73.0848 24.0807C73.0485 23.7803 73.0065 23.4991 72.9611 23.245C72.8828 22.8067 72.6412 22.4487 72.5425 22.2104C71.9912 20.8833 63.7282 13.1071 62.4429 12.5378C61.1576 11.9686 53.1397 13.6131 48.5499 22.905C48.5499 22.905 48.2164 24.2332 48.2118 26.1487C48.2107 26.4864 48.222 26.8422 48.247 27.2115C48.2542 27.3319 48.2652 27.4558 48.2758 27.5791C47.6702 28.0506 47.2676 28.8826 47.2676 29.8309C47.2676 31.2437 48.1605 32.3988 49.2885 32.4868C49.29 32.491 49.2914 32.4954 49.2929 32.4996C49.3133 32.5583 49.3337 32.6159 49.3553 32.6735C49.3587 32.6814 49.3621 32.6904 49.3644 32.6972C49.3825 32.7469 49.4007 32.7955 49.4188 32.8452C49.4222 32.8542 49.4268 32.8632 49.4302 32.8734C49.4517 32.9299 49.4744 32.9864 49.4971 33.0439C49.5209 33.1027 49.5447 33.1626 49.5697 33.2224C49.5731 33.2292 49.5765 33.2371 49.5799 33.245C49.6026 33.3003 49.6264 33.3557 49.6502 33.411C49.6741 33.4641 49.6968 33.5172 49.7217 33.5714C49.7251 33.5793 49.7285 33.5884 49.733 33.5963C49.7557 33.6459 49.7773 33.6945 49.8011 33.7442C49.8113 33.7668 49.8215 33.7883 49.8317 33.8097C49.8544 33.8583 49.8783 33.9069 49.9021 33.9543C49.9316 34.0142 49.9622 34.0752 49.9928 34.1338C50.0223 34.1937 50.0541 34.2525 50.0859 34.3123C50.087 34.3146 50.087 34.3168 50.0893 34.3191C50.1199 34.3767 50.1505 34.4332 50.1823 34.4897C50.2152 34.5484 50.2481 34.6071 50.2821 34.6658C50.3127 34.7189 50.3445 34.7731 50.3763 34.8262C50.3797 34.8308 50.3831 34.8364 50.3853 34.8409C50.8391 35.5942 51.387 36.3058 52.0472 36.9485C52.7959 37.6781 53.6887 38.3173 54.7528 38.8267C55.4493 39.1598 56.2207 39.4388 57.0726 39.6478C57.2473 40.3537 57.1248 41.726 56.7085 43.114C56.6262 43.3897 56.5306 43.6655 56.425 43.9374C54.751 44.5876 49.1616 44.1773 49.1616 44.1773L47.5751 44.5393C47.5751 44.5393 56.1165 47.9616 61.9239 48.0466C67.7313 48.1317 70.5264 45.2102 69.5975 44.785C68.6686 44.3598 64.6259 43.6931 64.6259 43.6931C64.6259 43.6931 64.5557 43.6865 64.4299 43.6757C64.2634 42.8111 63.9997 40.8904 64.5518 39.3508C65.1677 39.1204 65.7452 38.8425 66.2851 38.5297C66.9034 38.1705 67.4717 37.765 67.9924 37.3325C67.9936 37.3313 67.9947 37.3302 67.9958 37.329C68.0605 37.276 68.1251 37.2206 68.1887 37.1653C68.2238 37.1359 68.2579 37.1054 68.2919 37.0761C68.2998 37.0682 68.3089 37.0602 68.3169 37.0524C68.3543 37.0196 68.3917 36.9868 68.4292 36.9529L68.4734 36.9123C68.5154 36.8727 68.5573 36.8343 68.5993 36.7948C68.6481 36.7496 68.6957 36.7033 68.7434 36.6582C68.9578 36.4515 69.162 36.2414 69.3571 36.0279C69.3832 35.9997 69.4104 35.9703 69.4365 35.9409C69.4739 35.8992 69.5125 35.8574 69.5488 35.8145C69.5908 35.7682 69.6316 35.7207 69.6725 35.6733C69.7201 35.6179 69.7678 35.5615 69.8154 35.505C69.8494 35.4644 69.8823 35.4248 69.9152 35.3842C69.9493 35.3435 69.9833 35.3017 70.0151 35.2611C70.1467 35.0984 70.2714 34.9369 70.3917 34.7743C70.4189 34.737 70.4461 34.7008 70.4734 34.6647C70.5085 34.6173 70.5426 34.5698 70.5755 34.5224C70.6707 34.3902 70.7626 34.257 70.8511 34.126C70.8738 34.0921 70.8976 34.0571 70.9203 34.0232C71.0156 33.8797 71.1064 33.7374 71.1937 33.5974C71.2209 33.5533 71.247 33.5104 71.2731 33.4675C71.424 33.2213 71.5624 32.9807 71.6894 32.7503C71.7031 32.7243 71.7167 32.6983 71.7314 32.6724C71.7781 32.5858 71.8222 32.5016 71.8658 32.4178C72.029 32.4664 72.1992 32.4928 72.3745 32.4928C73.567 32.4928 74.5336 31.301 74.5336 29.8309C74.5336 28.7101 73.9715 27.7517 73.176 27.3592Z" fill="#FFA9A9"/>
<path d="M47.4464 53.0696C47.399 52.9725 45.8641 49.8371 44.3359 45.8784C44.9018 45.6819 45.4733 45.5238 46.0301 45.3984C46.4728 49.7897 47.4159 52.9646 47.4464 53.0696Z" fill="#8C8EB6"/>
<path d="M78.4199 31.3503C77.9162 26.2814 70.2202 22.4153 70.0993 22.3555C70.9747 24.6448 71.7732 26.9715 72.3345 29.3603C72.8608 31.5954 73.3273 33.9469 72.6914 36.2103C71.8586 39.1712 70.2974 41.815 69.6327 44.839C69.5855 44.8359 69.5594 44.8368 69.5583 44.8423C68.9259 48.0827 68.9654 51.7604 69.6532 54.9895C69.6532 54.9895 71.0932 49.0611 73.5622 45.6366C72.8775 45.4099 73.0239 45.4584 73.5622 45.6366C73.6887 45.4593 73.8186 45.2899 73.9519 45.1272C76.658 41.8214 78.9293 36.4599 78.4199 31.3503Z" fill="#8C8EB6"/>
<path d="M71.1465 96.8906C71.1718 97.0204 71.1972 97.1501 71.2226 97.2798L71.1465 96.8906Z" fill="#FFCB89"/>
<path d="M65.7612 11.5149C65.6066 10.4431 70.7971 7.71688 71.8683 8.63513C72.4247 9.11195 73.5931 15.4727 73.2587 15.6856C72.4549 16.197 65.9293 12.6778 65.7612 11.5149Z" fill="#8C8EB6"/>
<path d="M56.8301 11.304C56.9772 10.2322 52.0403 7.50594 51.0213 8.42419C50.4921 8.90103 49.3808 15.2617 49.6988 15.4746C50.4633 15.986 56.6702 12.4669 56.8301 11.304Z" fill="#8C8EB6"/>
<path d="M59.9158 27.5906C60.0616 27.0237 59.7969 29.8285 58.8707 30.7432C58.7277 30.8845 58.689 31.1005 58.7644 31.2869C58.9336 31.7053 59.3386 32.3547 60.2607 32.5772C60.2607 32.5772 58.6949 32.5292 58.2689 31.2579C58.1028 30.7628 58.034 30.4633 58.5398 30.2794C59.3461 29.9862 59.8468 28.3608 59.9158 27.5906Z" fill="#C14C40"/>
<path d="M71.2951 30.2788C71.3008 29.8732 70.4061 29.5318 69.2968 29.5162C68.1874 29.5007 67.2835 29.8169 67.2779 30.2226C67.2722 30.6282 68.1669 30.9696 69.2762 30.9852C70.3856 31.0007 71.2895 30.6844 71.2951 30.2788Z" fill="#FF7061"/>
<path d="M71.0153 27.1148C70.8421 27.2614 70.6618 27.3959 70.4796 27.5273C70.2961 27.6582 70.1104 27.7853 69.9169 27.8994C69.8602 27.9329 69.786 27.9213 69.7415 27.8684C69.6576 27.7761 69.553 27.6862 69.4494 27.6019C68.7164 27.0156 67.7896 26.6514 66.856 26.6829C65.7568 26.7055 64.7424 27.2588 64.3889 28.3655C64.3867 28.3748 64.3789 28.3815 64.369 28.3808C64.3587 28.3799 64.3509 28.3707 64.3516 28.3602C64.3928 27.7815 64.7267 27.2328 65.2036 26.8901C65.6783 26.5471 66.2644 26.3946 66.8415 26.3641C67.6746 26.3205 68.5091 26.5796 69.2084 27.044C69.2553 27.003 69.3032 26.9633 69.3523 26.9253C69.5787 26.7547 69.8147 26.5979 70.067 26.4684C70.1292 26.4369 70.1917 26.5174 70.1463 26.5717C69.9373 26.8101 69.7085 27.0314 69.4569 27.2222C69.5182 27.2696 69.5787 27.3181 69.6374 27.3687C69.7197 27.4402 69.7981 27.5136 69.874 27.5961C70.0322 27.5 70.194 27.4099 70.3584 27.3241C70.5576 27.2213 70.7588 27.1217 70.9672 27.0342C70.9855 27.0266 71.0076 27.0315 71.021 27.0479C71.0376 27.0682 71.035 27.0981 71.0153 27.1148Z" fill="#35284C"/>
<path d="M52.0458 31.2423C53.1551 31.2423 54.0544 30.9135 54.0544 30.5079C54.0544 30.1023 53.1551 29.7734 52.0458 29.7734C50.9364 29.7734 50.0371 30.1023 50.0371 30.5079C50.0371 30.9135 50.9364 31.2423 52.0458 31.2423Z" fill="#FF7061"/>
<path d="M56.2831 28.0921C56.2732 28.0936 56.2651 28.0873 56.2623 28.0782C55.8376 26.9972 54.7894 26.5118 53.6909 26.5615C52.7571 26.5914 51.8558 27.0157 51.1622 27.6488C51.0644 27.7397 50.9658 27.8362 50.8881 27.9339C50.8471 27.9896 50.7738 28.006 50.715 27.9763C50.5145 27.8751 50.3209 27.7606 50.1293 27.642C49.9389 27.5229 49.7502 27.4006 49.5679 27.2656C49.5471 27.2503 49.5426 27.2205 49.5578 27.1993C49.5702 27.182 49.5919 27.1757 49.6107 27.1821C49.8243 27.2557 50.0315 27.3419 50.2371 27.4313C50.4067 27.5061 50.574 27.5854 50.7382 27.6709C50.8086 27.5836 50.8821 27.5052 50.9595 27.4285C51.0148 27.3741 51.072 27.3218 51.1302 27.2704C50.8667 27.0966 50.6239 26.8908 50.4 26.6667C50.3511 26.6155 50.4082 26.5311 50.4723 26.5584C50.7325 26.671 50.9783 26.8121 51.2152 26.9673C51.2668 27.002 51.3171 27.0385 51.3666 27.0763C52.0344 26.567 52.8504 26.2537 53.6847 26.2425C54.2626 26.235 54.8574 26.3487 55.3535 26.6597C55.8517 26.9702 56.2205 27.4958 56.2991 28.0705C56.3006 28.0809 56.2934 28.0906 56.2831 28.0921Z" fill="#35284C"/>
<path d="M60.3332 20.9416C59.3188 20.9416 58.4595 20.2791 58.1634 19.3633C58.0918 19.5845 58.0527 19.8204 58.0527 20.0655C58.0527 21.3249 59.0737 22.3458 60.3332 22.3458C61.5926 22.3458 62.6136 21.3249 62.6136 20.0655C62.6136 19.8204 62.5745 19.5845 62.5029 19.3633C62.2068 20.2791 61.3475 20.9416 60.3332 20.9416Z" fill="#6767A4"/>
<path d="M67.2642 54.9478C67.2642 54.9478 69.1497 52.9062 69.0149 50.5679C69.0149 50.5679 68.3697 49.5486 67.6469 50.6749C66.9241 51.8013 67.2217 52.9152 65.0532 52.9748C62.8847 53.0344 61.8723 52.2169 60.9515 51.3889C60.0308 50.5609 58.8263 49.4084 58.1224 49.7604C57.6122 50.0155 57.9736 51.139 59.2492 52.3328C59.2492 52.3328 56.1902 49.8609 55.4649 50.0367C54.7633 50.2068 55.1436 50.9838 55.4504 51.2195C55.4504 51.2195 53.9325 50.0826 53.4686 50.3966C53.0047 50.7107 53.2923 51.0861 54.1896 51.7755C54.1896 51.7755 53.1321 50.941 52.5523 51.3889C51.611 52.116 54.083 53.0489 55.4437 53.4741C56.8043 53.8993 59.0285 54.3465 60.5455 54.9613C62.433 55.7261 62.7996 56.8612 63.4799 59.2423C64.1603 61.6234 67.3493 72.4235 67.817 74.592C68.2847 76.7605 71.5587 83.1876 75.4706 82.1851C79.3824 81.1826 79.7651 73.7841 79.0848 70.0424C78.4045 66.3006 78.9147 62.9841 79.0848 61.5384C79.2549 60.0927 79.0568 51.8752 78.2489 50.1017C78.2489 50.1017 73.9824 55.6281 72.0265 56.6486C72.0265 56.6486 72.7068 63.0266 71.5587 64.94C71.5587 64.94 67.6044 58.0943 67.4343 56.521C67.2642 54.9478 67.2642 54.9478 67.2642 54.9478Z" fill="#FFA9A9"/>
<path d="M52.8569 45.3309C52.7293 45.6505 53.0692 47.0962 52.9631 47.8473C52.8569 48.5972 51.4327 52.6655 50.7257 54.7064C50.0186 56.7473 49.2009 59.8306 49.2009 59.8306C49.2009 59.8306 48.3708 67.2081 47.0324 72.5866C45.6929 77.9649 40.9086 79.7087 39.804 79.3474C38.6983 78.9859 36.8482 74.3089 36.7206 72.5018C36.593 70.6947 37.1882 67.2081 37.7202 64.8476C38.251 62.4882 39.1444 58.342 39.4629 56.6626C39.7825 54.9831 40.0796 51.099 40.0796 51.099C40.8024 52.9117 45.9899 55.6844 45.9899 55.6844C46.9895 53.4312 47.308 51.2627 47.3294 49.922C47.3509 48.5814 46.6811 46.998 46.2542 45.8843C45.8273 44.7707 46.6823 44.2263 46.6823 44.2263C46.3118 43.5678 46.7557 42.6733 47.0109 42.4248C47.1962 42.2453 47.3724 42.0567 47.5553 41.8748C48.2172 41.2096 48.8903 40.5409 49.6346 39.9683C49.8774 39.7808 50.1666 39.5369 50.4761 39.4747C51.0329 39.3618 51.6563 39.3539 52.2538 39.3438C51.8811 39.9209 51.662 40.6561 51.671 41.4535C51.6857 42.8055 52.3509 43.9564 53.2917 44.4522C53.137 44.7447 52.9326 45.1423 52.8569 45.3309Z" fill="#FFA9A9"/>
<path d="M54.7351 42.8668C54.6809 42.8769 54.6244 42.8815 54.568 42.8826C53.7943 42.895 53.2341 42.1869 53.2228 41.2268C53.216 40.5774 53.4543 40.1697 53.8711 39.8828C53.9151 39.9404 53.9592 39.9991 54.001 40.0556C54.0834 40.1674 54.1591 40.2724 54.228 40.356C54.4403 40.6158 54.8469 41.0857 54.6538 41.4505C54.6086 41.5363 54.5522 41.6018 54.49 41.6504C54.132 41.9373 53.5865 41.7136 53.8756 42.0558C54.0518 42.2648 54.4663 42.546 54.7351 42.8668Z" fill="#FFA9A9"/>
<path d="M46.9843 82.3125C46.9843 82.3125 57.6692 86.1756 69.3692 82.5166C69.3692 82.5166 69.5462 88.0844 74.9462 91.7411C74.9462 91.7411 66.2296 93.7395 61.6375 98.9695L47.3082 97.6939L42.4609 91.7836C42.4609 91.7836 46.2139 86.4903 46.9843 82.3125Z" fill="#6767A4"/>
<path d="M45.0547 101.438C45.0547 101.438 62.0627 108.156 72.8202 109.814C83.5778 111.472 89.9558 110.282 93.9952 108.028C98.0346 105.775 98.8 101.565 98.8 100.29C98.8 99.014 98.2047 96.0376 91.6141 94.3793C85.0235 92.7211 78.1152 91.5555 74.228 91.9295C68.6533 92.4659 60.9012 98.7589 60.9012 98.7589L47.3082 97.6959C47.3082 97.6959 45.4799 99.3542 45.0547 101.438Z" fill="#8C8EB6"/>
<path d="M60.0644 106.201C60.0644 106.201 47.6061 111.792 35.9981 110.591C24.3902 109.39 21.2012 105.266 21.2012 104.203C21.2012 103.14 21.4563 94.7211 26.6012 92.8502C31.7461 90.9793 39.9525 93.1053 41.8659 94.2534C43.7793 95.4014 53.3463 98.2502 53.3463 98.2502L60.0644 106.201Z" fill="#8C8EB6"/>
<path d="M70.6309 98.0132C70.6309 98.0132 77.264 97.9494 79.1774 98.4384C79.1774 98.4384 86.0018 93.3785 88.5743 93.1872C91.1468 92.9958 92.3161 93.2578 92.635 92.7229C92.9539 92.1879 92.5074 91.2738 91.1042 91.2738C89.7011 91.2738 88.4467 91.699 87.2349 91.0824C86.0231 90.4659 83.8927 90.6612 83.0647 91.1887C82.2367 91.7163 80.3254 92.9485 79.3049 92.8977C78.2845 92.847 76.9783 91.9852 74.9845 92.4374C72.9907 92.8895 72.5728 95.7596 71.6975 96.7801C70.8222 97.8006 70.6309 98.0132 70.6309 98.0132Z" fill="#FFA9A9"/>
<path d="M47.3082 97.6954C47.3082 97.6954 45.7892 99.0717 45.0547 101.437C45.0547 101.437 32.4263 94.3431 29.8593 94.5975C27.2929 94.8518 26.525 95.0851 26.1187 94.6134C25.3307 93.6985 26.5495 93.2458 27.2975 93.1273C30.938 92.5505 31.4351 91.8368 32.3214 91.6475C33.1387 91.473 34.1457 91.3488 34.9427 91.6804C35.8491 92.0575 37.9353 92.4785 38.9318 92.2529C39.9283 92.0272 40.4191 91.683 42.461 91.7852C44.5028 91.8873 44.2719 94.4172 45.3098 95.2718C46.3477 96.1263 47.3082 97.6954 47.3082 97.6954Z" fill="#FFA9A9"/>
<path d="M38.8047 69.5912C38.8047 69.5912 41.9245 62.3563 44.3199 59.3609C46.7153 56.3655 47.3512 51.3051 47.3299 49.9245C47.3087 48.5438 47.3305 54.3266 42.7616 60.8477C40.0563 64.709 38.8047 69.5912 38.8047 69.5912Z" fill="#E55E4A"/>
<path d="M50.6941 46.7136C50.6941 46.7136 50.285 45.2892 49.9023 44.9596L51.4543 43.7266C51.4543 43.7266 52.0287 44.8475 53.2244 44.7122C53.2244 44.7122 52.0177 44.9809 51.465 44.3325L50.3807 45.0022C50.3807 45.0022 50.7205 46.2884 50.6941 46.7136Z" fill="#E55E4A"/>
<path d="M58.8619 53.1813C58.8619 53.1813 55.6405 51.2528 55.0877 50.8382C54.5349 50.4236 53.7383 50.375 53.7383 50.375C53.7383 50.375 54.1734 50.4258 55.6438 51.4351C56.8785 52.2826 58.8619 53.1813 58.8619 53.1813Z" fill="#E55E4A"/>
<path d="M57.7364 53.3039C57.7364 53.3039 54.1415 51.573 53.5385 51.3154C52.9355 51.0579 52.7773 51.2354 52.7773 51.2354C52.7773 51.2354 53.0581 51.2101 54.6843 52.0913C56.3106 52.9725 57.1394 53.0898 57.7364 53.3039Z" fill="#E55E4A"/>
<path d="M67.5488 56.75C67.5488 56.75 70.0217 63.3518 72.8426 66.2219C75.5782 69.0053 76.0953 73.1308 76.0953 73.1308C76.0953 73.1308 74.2631 68.5706 71.9351 65.9556C69.6072 63.3406 67.5488 56.75 67.5488 56.75Z" fill="#E55E4A"/>
<path d="M64.7138 10.6881C64.7138 10.6881 62.2902 16.4851 67.9028 23.2572C73.5155 30.0292 76.5769 29.9673 78.4903 33.6975C78.4903 33.6975 78.6179 23.9815 74.7911 17.731C70.9643 11.4806 67.265 10.2259 64.7138 10.6881Z" fill="#6767A4"/>
<path d="M64.9473 11.0034C64.9473 11.0034 65.2418 12.2308 64.9484 13.0484C64.3944 14.5924 62.4157 16.4835 57.1203 18.5979C52.6878 20.3678 48.242 22.962 45.2872 26.7947C42.1388 30.8785 41.9853 35.0136 42.5785 39.9974C42.8307 42.1159 40.5872 34.8631 41.6148 29.41C42.6423 23.9568 48.7971 13.8861 53.2617 11.6027C57.7263 9.31927 62.9203 9.27538 64.9473 11.0034Z" fill="#6767A4"/>
<path d="M83.9279 80.8281L84.3146 81.5723L85.0338 81.9859L84.3044 82.3805L83.8989 83.1142L83.5121 82.3701L82.793 81.9564L83.5224 81.5618L83.9279 80.8281Z" fill="#381952"/>
<path d="M72.5391 33.5195L73.0916 34.5614L74.1189 35.1407L73.077 35.6931L72.4978 36.7205L71.9453 35.6785L70.918 35.0993L71.9599 34.5468L72.5391 33.5195Z" fill="white"/>
<path d="M72.5181 34.2345C72.4264 34.2345 72.3516 34.16 72.3516 34.068V31.5415C72.3516 31.4495 72.4264 31.375 72.5181 31.375C72.6098 31.375 72.6846 31.4495 72.6846 31.5415V34.068C72.6846 34.16 72.6098 34.2345 72.5181 34.2345Z" fill="white"/>
<path d="M48.7325 33.7812L49.2849 34.8232L50.3123 35.4024L49.2703 35.9549L48.6911 36.9822L48.1386 35.9403L47.1113 35.361L48.1532 34.8086L48.7325 33.7812Z" fill="white"/>
<path d="M48.7115 34.4963C48.6197 34.4963 48.5449 34.4218 48.5449 34.3297V31.8033C48.5449 31.7112 48.6197 31.6367 48.7115 31.6367C48.8032 31.6367 48.878 31.7112 48.878 31.8033V34.3297C48.878 34.4218 48.8032 34.4963 48.7115 34.4963Z" fill="white"/>
<path d="M34.8298 82.8672L35.4447 84.0503L36.5881 84.708L35.4284 85.3353L34.7838 86.5019L34.1688 85.3187L33.0254 84.6611L34.1851 84.0337L34.8298 82.8672Z" fill="#381952"/>
<path d="M39.4329 11.3594L40.0044 12.459L41.0672 13.0703L39.9893 13.6534L39.3901 14.7375L38.8186 13.6379L37.7559 13.0266L38.8337 12.4436L39.4329 11.3594Z" fill="#381952"/>
<path d="M84.023 20.2227L84.6952 21.5158L85.945 22.2347L84.6774 22.9205L83.9728 24.1955L83.3006 22.9023L82.0508 22.1834L83.3184 21.4977L84.023 20.2227Z" fill="#381952"/>
<path d="M88.4727 52.0977L88.9667 54.9181L91.4854 55.6066L88.9357 56.2373L88.385 59.0261L87.778 56.2057L85.0332 55.5172L87.809 54.8865L88.4727 52.0977Z" fill="#381952"/>
<path d="M66.3187 24.4426C66.2694 24.7507 67.0298 24.7044 68.073 24.8958C69.1162 25.0871 71.0013 26.0099 71.0505 25.7018C71.0998 25.3937 69.489 24.3448 68.4677 24.0526C66.8941 23.6023 66.3679 24.1345 66.3187 24.4426Z" fill="#381952"/>
<path d="M54.7056 24.4426C54.7549 24.7507 53.9945 24.7044 52.9513 24.8958C51.9081 25.0871 50.023 26.0099 49.9738 25.7018C49.9245 25.3937 51.5353 24.3448 52.5566 24.0526C54.1302 23.6023 54.6564 24.1345 54.7056 24.4426Z" fill="#381952"/>
<path d="M59.1297 106.412C59.1297 106.412 44.2051 100.757 39.9531 98.6308C35.7011 96.5048 33.1074 95.1441 31.9594 94.974C30.8113 94.804 39.8637 98.7889 42.9295 100.361C46.0325 101.951 58.7045 106.76 58.7045 106.76L59.1297 106.412Z" fill="#381952"/>
<path d="M62.0371 98.4407C62.0371 98.4407 66.8581 93.5623 73.4177 92.1641C73.4177 92.1641 66.5741 92.6016 60.9023 98.7596L62.0371 98.4407Z" fill="#381952"/>
<path d="M88.7235 100.589C88.7234 100.588 77.8383 97.272 70.1847 98.2499C67.86 98.547 65.5457 98.9585 63.1916 98.9916C60.6734 99.0269 58.1626 98.7776 55.6602 98.5262C52.877 98.2466 50.0938 97.9671 47.3105 97.6875C50.7612 97.6875 54.2514 98.0475 57.6981 98.2262C59.5178 98.3206 61.3344 98.4744 63.1579 98.4642C65.7535 98.4497 68.2989 97.8849 70.8936 97.8168C73.2642 97.7545 75.6399 97.8726 77.9948 98.1494C81.6803 98.5825 85.1841 99.5102 88.7235 100.589Z" fill="#381952"/>
<path d="M67.4121 33.9336C66.3109 33.6038 64.802 32.9871 60.5248 33.1148C54.6833 33.2898 53.3992 34.2024 53.3992 34.2024C53.4026 34.2024 53.7041 34.9648 53.7696 36.1654C53.8159 37.0238 53.5833 37.9284 53.642 38.2176C53.0852 38.4028 52.6029 38.8049 52.2539 39.3459C52.4549 39.3425 52.6526 39.338 52.8435 39.3301C52.9835 39.3244 53.127 39.3199 53.2614 39.3594C53.4816 39.4261 53.6883 39.6486 53.8713 39.8824C53.8961 39.8643 53.9221 39.8485 53.9481 39.8315C53.9616 39.8971 53.9797 39.9727 54.0012 40.0552C54.1073 40.4753 54.2971 41.0841 54.4902 41.65C54.6009 41.9741 54.7127 42.2858 54.811 42.5388C54.8471 42.6325 54.8844 42.7263 54.9228 42.8189C54.8618 42.8404 54.7997 42.8562 54.7353 42.8664C54.9838 43.1611 55.108 43.4887 54.8132 43.8241C54.1965 44.5255 53.4805 44.1008 53.4805 44.1008C53.4805 44.1008 53.398 44.2522 53.2919 44.4544C53.6217 44.6294 53.9853 44.7232 54.3671 44.7164C54.8234 44.7085 55.2503 44.5583 55.623 44.3007C56.3798 45.6888 56.8891 46.4614 58.1428 47.1288C60.1159 48.1792 63.0276 47.8065 64.5535 45.9577C66.512 43.5847 67.298 41.4105 67.0371 35.9451C66.9705 34.5492 67.4121 33.9336 67.4121 33.9336Z" fill="#E55E4A"/>
<path d="M54.8123 43.8259C54.1956 44.5272 53.4796 44.1025 53.4796 44.1025C53.4796 44.1025 53.3971 44.2539 53.2909 44.4561C52.3501 43.9603 51.6849 42.8094 51.6702 41.4574C51.6612 40.66 51.8803 39.9248 52.253 39.3476C52.454 39.3442 52.6517 39.3397 52.8425 39.3318C52.9826 39.3261 53.126 39.3217 53.2604 39.3612C53.4807 39.4278 53.6874 39.6503 53.8703 39.8841C53.4536 40.171 53.2153 40.5787 53.222 41.2282C53.2333 42.1882 53.7935 42.8963 54.5672 42.8839C54.6237 42.8828 54.6801 42.8782 54.7344 42.8681C54.9828 43.1629 55.1071 43.4904 54.8123 43.8259Z" fill="#FFA9A9"/>
<path d="M63.8657 45.9833C63.8657 46.6023 62.4341 47.3657 60.6682 47.3657C58.9023 47.3657 57.4707 46.6023 57.4707 45.9833C57.4707 45.3643 58.9023 45.4276 60.6682 45.4276C62.4341 45.4276 63.8657 45.3643 63.8657 45.9833Z" fill="#C14C40"/>
<path d="M63.1853 42.0956C62.8826 42.71 62.6364 42.8907 62.1925 43.094C62.1835 43.0759 62.1609 43.0466 62.1654 43.0409C62.6827 42.4457 62.5935 41.8257 62.2524 41.1898C62.2004 41.0926 62.1846 40.9741 62.1654 40.8634C62.1293 40.6578 62.1056 40.4331 62.3416 40.3393C62.5573 40.2535 62.7471 40.3743 62.8702 40.546C62.973 40.6883 63.0294 40.8645 63.1085 41.0317C63.5535 40.1439 63.5275 39.9779 62.8487 39.3025C62.7855 39.2392 62.7188 39.1771 62.6714 39.1026C62.6093 39.0066 62.5731 38.8925 62.6432 38.7863C62.7155 38.679 62.8386 38.661 62.9447 38.7027C63.1311 38.7762 63.3073 38.8733 63.488 38.9614C63.6506 38.5164 63.6585 38.5074 63.4202 38.2905C63.2723 38.155 63.0927 38.0533 62.93 37.9325C62.8352 37.8624 62.7674 37.771 62.8216 37.6467C62.8747 37.5259 62.9865 37.5123 63.104 37.5101C63.2632 37.5067 63.3886 37.6614 63.5693 37.5914C63.6834 37.3124 63.5467 37.0255 63.5524 36.7375C63.5546 36.6393 63.5908 36.5512 63.6913 36.5433C63.7455 36.5387 63.8313 36.5873 63.8573 36.6359C63.9725 36.8527 64.0708 37.0775 64.1747 37.2989C64.2131 37.2808 64.2357 37.274 64.2526 37.2605C64.413 37.1272 64.509 36.7635 64.753 36.9284C64.9992 37.0956 64.8027 37.3824 64.6728 37.588C64.5768 37.7393 64.4345 37.8591 64.3272 38.0025C64.1679 38.2137 64.1634 38.4486 64.221 38.7005C64.4582 38.6745 64.5214 38.4735 64.6649 38.373C64.8083 38.2724 64.9529 38.2239 65.0941 38.3447C65.2398 38.4701 65.1946 38.6316 65.1234 38.7796C64.9495 39.141 64.6287 39.3612 64.3147 39.5781C63.9816 39.8096 63.8562 40.1044 63.9217 40.5279C64.1374 40.4398 64.3238 40.3698 64.5056 40.2885C64.7417 40.1834 64.9687 40.1801 65.0794 40.4398C65.1912 40.7041 64.9992 40.8611 64.7868 40.9684C64.6265 41.0486 64.4537 41.1062 64.2865 41.1717C63.8155 41.3558 63.4281 41.602 63.1853 42.0956Z" fill="white"/>
<path d="M60.4641 40.4838C60.4878 40.6702 60.367 40.7775 60.219 40.8475C59.1494 41.3512 57.5761 41.0271 57.0238 39.8175C56.6568 39.0133 56.903 38.0431 57.6349 37.4524C58.4424 36.7996 59.3302 36.7307 60.4268 37.1881C59.7051 37.4343 59.3403 37.8364 59.1799 38.4181C58.9552 39.2381 59.3324 39.9609 60.1219 40.2173C60.2732 40.267 60.4404 40.2862 60.4641 40.4838Z" fill="white"/>
<path d="M62.0512 35.3614C61.7158 35.3422 61.8174 35.7195 61.578 35.8166C61.3747 35.5806 61.0212 35.3874 61.5125 35.0599C61.6051 34.9978 61.5305 34.7933 61.7146 34.668C61.8332 34.8238 61.7056 35.1796 62.0456 35.1819C62.1178 35.1819 62.1608 35.3671 62.0512 35.3614Z" fill="white"/>
<path d="M60.8286 43.3888C60.4931 43.3696 60.5948 43.7468 60.3553 43.844C60.152 43.6079 59.7985 43.4148 60.2898 43.0872C60.3824 43.0251 60.3079 42.8207 60.492 42.6953C60.6106 42.8512 60.4829 43.2069 60.8229 43.2092C60.8952 43.2092 60.9381 43.3944 60.8286 43.3888Z" fill="white"/>
<path d="M56.7895 35.8068C56.454 35.7876 56.5557 36.1648 56.3163 36.2619C56.113 36.0259 55.7594 35.8327 56.2507 35.5052C56.3434 35.4431 56.2688 35.2386 56.4529 35.1133C56.5715 35.2691 56.4439 35.6249 56.7838 35.6272C56.8561 35.6272 56.899 35.8124 56.7895 35.8068Z" fill="white"/>
<path d="M46.6816 44.2279C46.6816 44.2279 50.2647 41.9915 51.2195 41.995C52.1078 41.9983 52.7577 42.2344 53.4798 44.1008C53.4798 44.1008 53.0275 42.3561 52.6121 42.0694C51.8032 41.5112 50.8955 41.6493 50.0446 42.0547C49.822 42.1608 49.6032 42.2852 49.3912 42.4202C48.3687 43.0711 47.1643 43.8081 46.6816 44.2279Z" fill="#E55E4A"/>
<path d="M54.6546 41.5924C54.6546 41.5924 53.6338 41.9644 52.8471 41.5042C51.9975 41.0072 51.913 41.0822 51.913 41.0822C51.913 41.0822 50.7835 41.7377 50.1914 42.0429L50.9405 41.89L51.913 41.3886C51.913 41.3886 53.7826 42.2954 54.6546 41.5924Z" fill="#E55E4A"/>
<path d="M64.6771 12.953C64.6771 12.953 62.6566 17.9647 56.6443 19.9941C52.0392 21.5485 48.5403 23.9331 46.5312 29.0794C46.5312 29.0794 48.1308 22.0987 56.2442 19.4124C61.3172 17.7328 63.9165 13.0376 64.0764 11.6817C64.2363 10.3257 64.6771 12.953 64.6771 12.953Z" fill="#6767A4"/>
<path d="M31.504 33.5195L31.998 36.34L34.5167 37.0285L31.967 37.6592L31.4163 40.448L30.8092 37.6276L28.0645 36.939L30.8402 36.3083L31.504 33.5195Z" fill="#381952"/>
</svg>
