<svg width="17" height="17" viewBox="0 0 17 17" fill="none" xmlns="http://www.w3.org/2000/svg">
<path d="M13.1146 14.5155L11.6301 7.75258L14.5167 4.86598C15.7538 3.62887 16.1662 1.97938 15.7538 1.15464C14.9291 0.742268 13.2796 1.15464 12.0425 2.39175L9.15587 5.27835L2.39298 3.79381C1.98061 3.71134 1.65072 3.87629 1.48577 4.20619L1.23834 4.61856C1.0734 5.03093 1.15587 5.4433 1.48577 5.69072L5.8569 8.57732L4.20742 11.0515H1.73319L0.908447 11.8763L3.38267 13.5258L5.03216 16L5.8569 15.1753V12.701L8.33113 11.0515L11.2177 15.4227C11.4651 15.7526 11.8775 15.8351 12.2899 15.6701L12.7023 15.5052C13.0322 15.2577 13.1971 14.9278 13.1146 14.5155Z" stroke="#606060" stroke-width="1.2" stroke-linecap="round" stroke-linejoin="round"/>
</svg>
