<svg width="22" height="17" viewBox="0 0 22 17" fill="none" xmlns="http://www.w3.org/2000/svg">
<path d="M10.8388 15.989C10.8666 15.9769 10.8422 16.019 10.8388 15.989ZM10.8388 15.989C10.8111 15.9769 10.8354 16.019 10.8388 15.989ZM10.8388 15.989C10.571 13.6127 10.1696 11.101 10.8388 9.44686M10.8388 15.989C10.4758 12.7686 7.67291 9.32641 4.63297 8.91224M10.8388 15.989C11.2018 12.7686 14.0047 9.32641 17.0447 8.91224M10.8388 15.989C5.96692 15.989 2.2977 13.8722 0.646631 9.38C0.529052 9.06009 3.56593 8.67727 4.63297 8.91224M10.8388 15.989C15.7107 15.989 19.3799 13.8722 21.031 9.38C21.1486 9.06009 17.8237 8.67727 17.0447 8.91224M10.8388 9.44686C10.267 8.03339 9.23035 6.80983 7.83544 6.02537M10.8388 9.44686C11.4107 8.03339 12.4473 6.80983 13.8422 6.02537M4.63297 8.91224C4.5399 8.22909 4.54853 7.51946 4.67273 6.80185L4.98596 4.99214C4.99515 4.93907 5.05018 4.90729 5.10073 4.92587L6.8246 5.55947C7.1794 5.68987 7.51677 5.84616 7.83544 6.02537M17.0447 8.91224C17.1377 8.22909 17.1291 7.51946 17.0049 6.80185L16.6917 4.99214C16.6825 4.93907 16.6275 4.90729 16.5769 4.92587L14.853 5.55947C14.4982 5.68987 14.1609 5.84616 13.8422 6.02537M7.83544 6.02537V6.02537C8.44851 4.36224 9.33856 2.81483 10.4679 1.44867L10.7469 1.11114C10.7957 1.05212 10.8852 1.04921 10.9377 1.10492L11.4298 1.62692C12.5956 2.86356 13.426 4.37761 13.8422 6.02537V6.02537" stroke="#606060" stroke-width="1.2" stroke-linecap="round"/>
</svg>
