<svg width="19" height="17" viewBox="0 0 19 17" fill="none" xmlns="http://www.w3.org/2000/svg">
<path d="M7.28589 5.64258H13.0002" stroke="#606060" stroke-width="1.2" stroke-linecap="round"/>
<path d="M7.28589 7.78516H13.0002" stroke="#606060" stroke-width="1.2" stroke-linecap="round"/>
<path d="M7.36353 9.86328H9.74989" stroke="#606060" stroke-width="1.2" stroke-linecap="round"/>
<path d="M17.6433 15.2857L16.1356 10.7624C16.852 9.32991 17.0354 7.68916 16.6527 6.13382C16.2701 4.57848 15.3465 3.21006 14.0471 2.27345C12.7478 1.33683 11.1576 0.89315 9.56104 1.0218C7.9645 1.15046 6.46584 1.84305 5.33325 2.97563C4.20067 4.10822 3.50808 5.60687 3.37943 7.20342C3.25077 8.79996 3.69445 10.3902 4.63107 11.6895C5.56768 12.9888 6.9361 13.9125 8.49144 14.2951C10.0468 14.6777 11.6875 14.4944 13.1201 13.7779L17.6433 15.2857Z" stroke="#606060" stroke-width="1.2" stroke-linecap="round" stroke-linejoin="round"/>
<path d="M3.60897 9.61133C3.49569 9.67366 3.3858 9.74306 3.27997 9.81935C2.66279 10.2642 2.22406 10.9142 2.04231 11.653C1.86056 12.3918 1.94763 13.1712 2.28796 13.8516L1.57178 16.0002L3.72032 15.284C4.40077 15.6243 5.18013 15.7114 5.91892 15.5296C6.6577 15.3479 7.3077 14.9092 7.75259 14.292C7.7907 14.2391 7.82709 14.1852 7.86173 14.1304" stroke="#606060" stroke-width="1.2" stroke-linecap="round" stroke-linejoin="round"/>
</svg>
