<svg width="16" height="17" viewBox="0 0 16 17" fill="none" xmlns="http://www.w3.org/2000/svg">
<path d="M8.15496 4.14355H7.85515C7.11189 4.14355 6.38446 4.35837 5.76044 4.76215V4.76215C4.66232 5.4727 3.99927 6.69148 3.99927 7.99944L3.99927 8.31128C3.99927 9.31879 4.43666 10.2767 5.19803 10.9365L5.782 11.4426C6.17246 11.781 6.39678 12.2723 6.39678 12.789V12.9822C6.39678 13.2617 6.49192 13.5329 6.66653 13.7511V13.7511C6.90013 14.0431 7.25381 14.2131 7.62776 14.2131H8.15496" stroke="#606060" stroke-width="1.2"/>
<path d="M8.15509 4.14355H8.45491C9.19817 4.14355 9.9256 4.35837 10.5496 4.76215V4.76215C11.6477 5.4727 12.3108 6.69148 12.3108 7.99944L12.3108 8.31128C12.3108 9.31879 11.8734 10.2767 11.112 10.9365L10.5281 11.4426C10.1376 11.781 9.91327 12.2723 9.91327 12.789V12.9822C9.91327 13.2617 9.81814 13.5329 9.64353 13.7511V13.7511C9.40992 14.0431 9.05625 14.2131 8.6823 14.2131H8.15509" stroke="#606060" stroke-width="1.2"/>
<path d="M6.93018 13.9072V14.7793C6.93018 15.4536 7.4768 16.0002 8.15111 16.0002V16.0002C8.82541 16.0002 9.37204 15.4536 9.37204 14.7793V13.9072" stroke="#606060" stroke-width="1.2"/>
<path d="M8.3147 1L8.3147 1.86311" stroke="#606060" stroke-width="1.2" stroke-linecap="round"/>
<path d="M1.86304 8.31445L0.999931 8.31445" stroke="#606060" stroke-width="1.2" stroke-linecap="round"/>
<path d="M3.39771 3.97266L2.7874 3.36235" stroke="#606060" stroke-width="1.2" stroke-linecap="round"/>
<path d="M12.9792 3.97266L13.5896 3.36235" stroke="#606060" stroke-width="1.2" stroke-linecap="round"/>
<path d="M15.3418 8.31445L14.4787 8.31445" stroke="#606060" stroke-width="1.2" stroke-linecap="round"/>
<path d="M6.07446 7.80013L6.0887 7.65779C6.16429 6.90188 6.75795 6.30167 7.51297 6.21777V6.21777" stroke="#606060" stroke-width="1.2" stroke-linecap="round"/>
</svg>
