<svg width="17" height="17" viewBox="0 0 17 17" fill="none" xmlns="http://www.w3.org/2000/svg">
<path d="M15.5634 10.75H12.1584C11.7606 10.75 11.3791 10.908 11.0978 11.1893C10.8165 11.4706 10.6584 11.8522 10.6584 12.25V15.655M4.65845 2.00502V3.25002C4.65845 3.84676 4.8955 4.41905 5.31746 4.84101C5.73941 5.26297 6.31171 5.50002 6.90845 5.50002C7.30627 5.50002 7.6878 5.65806 7.96911 5.93936C8.25041 6.22066 8.40845 6.6022 8.40845 7.00002C8.40845 7.82502 9.08345 8.50002 9.90845 8.50002C10.3063 8.50002 10.6878 8.34198 10.9691 8.06068C11.2504 7.77938 11.4084 7.39784 11.4084 7.00002C11.4084 6.17502 12.0834 5.50002 12.9084 5.50002H15.2859M7.65848 15.9625V13C7.65848 12.6022 7.50045 12.2206 7.21914 11.9393C6.93784 11.658 6.55631 11.5 6.15848 11.5C5.76066 11.5 5.37913 11.342 5.09782 11.0607C4.81652 10.7794 4.65848 10.3978 4.65848 10V9.25C4.65848 8.85218 4.50045 8.47064 4.21914 8.18934C3.93784 7.90804 3.55631 7.75 3.15848 7.75H0.945984M15.9084 8.5C15.9084 12.6421 12.5506 16 8.40845 16C4.26631 16 0.908447 12.6421 0.908447 8.5C0.908447 4.35786 4.26631 1 8.40845 1C12.5506 1 15.9084 4.35786 15.9084 8.5Z" stroke="#606060" stroke-width="1.2" stroke-linecap="round" stroke-linejoin="round"/>
</svg>
