<svg width="20" height="17" viewBox="0 0 20 17" fill="none" xmlns="http://www.w3.org/2000/svg">
<path d="M16.0762 3.99907H4.00024V16H16.0762V3.99907Z" stroke="#606060" stroke-width="1.2" stroke-miterlimit="10" stroke-linecap="round" stroke-linejoin="round"/>
<path d="M11.9135 1.00074H8.16317C7.54182 1.00074 7.03809 1.50448 7.03809 2.12583V4.00098H13.0385V2.12583C13.0385 1.50448 12.5348 1.00074 11.9135 1.00074Z" stroke="#606060" stroke-width="1.2" stroke-miterlimit="10" stroke-linecap="round" stroke-linejoin="round"/>
<path d="M4.00023 3.99712H2.50011C1.67164 3.99712 1 4.66872 1 5.49723V14.4979C1 15.3264 1.67164 15.998 2.50011 15.998H4.00023V3.99712Z" stroke="#606060" stroke-width="1.2" stroke-miterlimit="10" stroke-linecap="round" stroke-linejoin="round"/>
<path d="M17.576 3.99712H16.0759V15.998H17.576C18.4046 15.998 19.0762 15.3264 19.0762 14.4979V5.49723C19.0762 4.66872 18.4046 3.99712 17.576 3.99712Z" stroke="#606060" stroke-width="1.2" stroke-miterlimit="10" stroke-linecap="round" stroke-linejoin="round"/>
<path d="M10.949 10.7489L8.35074 12.249L6.28809 8.67638L7.02468 6.952L8.88636 7.17627L10.949 10.7489Z" stroke="#606060" stroke-width="1.2" stroke-miterlimit="10" stroke-linecap="round" stroke-linejoin="round"/>
<path d="M7.02468 6.95117C7.02468 6.95117 5.53803 5.49767 7.03815 3.99756" stroke="#606060" stroke-width="1.2" stroke-miterlimit="10" stroke-linecap="round" stroke-linejoin="round"/>
<path d="M13.7885 7.37589C13.7885 7.99724 13.2848 8.50098 12.6634 8.50098C12.0421 8.50098 11.5383 7.99724 11.5383 7.37589C11.5383 6.75454 12.0421 6.2508 12.6634 6.2508C13.2848 6.2508 13.7885 6.75454 13.7885 7.37589Z" stroke="#606060" stroke-width="1.2" stroke-miterlimit="10" stroke-linecap="round" stroke-linejoin="round"/>
</svg>
