<svg width="241" height="215" viewBox="0 0 241 215" fill="none" xmlns="http://www.w3.org/2000/svg">
<path d="M114.472 8.11855C28.4441 -19.8888 16.4998 29.626 6.10781 79.5742C-2.5 157.626 -4.34531 191.812 30.4985 206.103C123.183 236.777 200.536 172.292 232.244 133.95C263.952 95.6081 200.5 36.1259 114.472 8.11855Z" fill="#A850B2" fill-opacity="0.1"/>
<path d="M89.5842 88.892C88.6838 90.7584 87.4899 92.5005 86.4057 93.8917C83.7072 97.355 77.829 99.2069 73.6347 97.9014C70.0034 96.7714 66.9457 93.5881 65.5361 90.1424C64.6344 87.9374 64.8768 84.7301 66.111 82.6799C66.345 82.2914 66.6299 81.8662 66.9444 81.4247C66.9505 81.43 77.024 90.1008 89.5842 88.892Z" fill="#704C0F"/>
<path d="M89.5841 88.892C77.0239 90.1008 66.9505 81.43 66.9443 81.4247C68.7499 78.8903 71.5516 75.8033 71.5516 75.8033L73.2439 71.7577L76.3904 73.0742C76.3904 73.0742 79.8808 69.7811 81.8666 70.0839C85.8386 70.6894 88.4663 75.5754 89.1435 76.8117C90.0207 78.4121 90.4818 80.3152 90.8507 82.095C91.3061 84.2886 90.6525 86.6778 89.5841 88.892Z" fill="#F0C792"/>
<path d="M73.95 97.9833C77.0506 98.8189 80.9706 98.0213 83.8616 96.1633C85.0997 97.705 85.1912 99.9315 84.4019 101.897C83.2377 104.796 79.9447 106.202 77.0462 105.038C74.2777 103.926 73.0348 100.785 73.9286 97.9876L73.95 97.9833Z" fill="#704C0F"/>
<path d="M84.4019 101.897C84.2388 102.304 84.0296 102.677 83.7894 103.022C83.796 102.972 83.8021 102.923 83.8078 102.873C84.0659 100.606 81.8605 98.8902 79.6818 99.5683C77.7331 100.175 75.6624 100.468 73.6762 100.403C73.5988 99.606 73.6744 98.783 73.9286 97.9872L73.9501 97.9833C77.0506 98.8189 80.9706 98.0213 83.8616 96.1633C85.0998 97.7046 85.1912 99.931 84.4019 101.897Z" fill="#5E400D"/>
<path d="M69.9367 91.7113C70.8362 94.7248 74.7042 97.2491 76.5609 98.3131C76.2323 98.3127 75.9077 98.2987 75.587 98.2703C73.536 97.0133 70.3471 94.6709 69.5023 91.8408C68.6435 88.9638 69.6108 85.6602 70.3278 83.8201C70.4578 83.901 70.5903 83.9824 70.7273 84.0646C70.0395 85.8689 69.1361 89.0298 69.9367 91.7113Z" fill="#5E400D"/>
<path d="M75.1269 91.0839C76.2434 93.9009 78.7617 96.7552 79.8344 97.894C79.6634 97.9377 79.4919 97.9745 79.3199 98.0117C78.1431 96.7464 75.8029 94.0173 74.7056 91.2505C73.9199 89.2687 73.9658 87.3301 74.1907 85.9174C74.3342 85.9848 74.4803 86.0513 74.6269 86.1182C74.4304 87.4644 74.4086 89.2717 75.1269 91.0839Z" fill="#5E400D"/>
<path d="M82.8589 96.7373C82.6143 96.865 82.3662 96.9862 82.1121 97.0999C82.7543 96.0906 83.4819 94.5607 84.1281 92.2564C84.4693 91.0397 84.7309 89.9249 84.9366 88.9113C85.0875 88.9239 85.2402 88.9318 85.3924 88.9419C85.1833 89.9823 84.916 91.1276 84.5647 92.3789C84.0235 94.3083 83.4254 95.7139 82.8589 96.7373Z" fill="#5E400D"/>
<path d="M76.2626 139.695C76.3051 139.006 76.3182 138.314 76.2517 137.628C76.2316 137.418 76.2062 137.208 76.1756 136.999L72.4384 117.372C72.3986 117.099 72.4901 116.822 72.6856 116.627L74.9492 114.363C75.9524 113.36 75.9769 111.741 75.0048 110.708L72.5854 107.624C71.2926 105.976 70.3524 104.079 69.8235 102.052L67.6566 96.7184L66.0544 96.2582C65.4949 96.0976 64.9375 96.5176 64.9375 97.0995V151.209L75.4397 146.44L76.2626 139.695Z" fill="#F5D3A6"/>
<path d="M156.947 161.703C153.882 160.572 144.785 158.98 145.532 154.125C146.161 150.034 153.13 133.942 156.992 125.233L142.754 127.939C139.938 135.567 138.532 151.5 138.532 151.5L134.551 159.397C134.293 159.955 134.193 160.573 134.261 161.185C134.45 162.894 135.896 164.188 137.616 164.188H156.499C157.207 164.188 157.782 163.614 157.782 162.905C157.782 162.369 157.45 161.888 156.947 161.703Z" fill="#F5D3A6"/>
<path d="M158.785 121.218C159.276 120.125 159.495 118.931 159.424 117.735L159.283 115.333C159.164 113.312 158.104 111.465 156.421 110.343C154.752 109.231 152.707 108.84 150.745 109.257C150.562 109.296 150.359 109.34 150.139 109.39C142.413 111.138 135.035 114.173 128.285 118.319L124.287 120.774L124.229 116.434L115.651 111.62L105.862 117.368C105.839 117.996 105.751 118.621 105.598 119.234C105.412 119.977 105.133 120.692 104.768 121.363C103.364 121.995 100.95 123.362 98.1875 126.125C96.2494 128.063 95.1701 130.516 94.5685 132.648C93.5981 136.088 91.4364 139.068 88.4536 141.037L75.0171 149.905L75.4397 146.44L64.9375 151.208V152.553C64.9375 155.329 65.5876 158.067 66.8363 160.548C67.8285 162.518 69.8602 163.75 72.0666 163.75H72.5522C74.4632 163.75 76.3615 163.442 78.1745 162.838C78.1745 162.838 95.6666 156.053 99.339 153.804L115.25 144.063L125.438 140.44C130.503 138.639 135.029 135.582 138.592 131.555L143.977 125.353C143.544 126.021 143.136 126.905 142.754 127.939L156.992 125.233C157.722 123.588 158.341 122.205 158.785 121.218Z" fill="#A850B2"/>
<path d="M123.749 106.636C123.703 105.837 123.584 105.046 123.395 104.274C122.028 105.213 118.483 107.45 114.266 108.588C110.434 109.622 106.333 110.614 104.73 110.997C105.043 111.957 105.292 112.94 105.466 113.944L105.735 115.487C105.843 116.109 105.885 116.739 105.863 117.367L109.755 115.713C113.012 114.247 116.695 114.036 120.098 115.118L124.23 116.433L123.749 106.636Z" fill="#F5D3A6"/>
<path d="M123.395 104.275C123.078 102.978 122.563 101.733 121.864 100.585L118.51 95.0748C117.799 93.9071 117.276 92.6357 116.959 91.3057C115.898 86.8493 112.582 83.2736 108.218 81.8806L99.616 79.1353C99.6016 79.1309 99.5876 79.1261 99.5732 79.1218C97.3957 78.4384 95.0166 79.0045 93.2793 80.4841L88.6855 84.3958C87.8906 85.0731 87.3437 86.0115 87.212 87.0475C87.2112 87.0536 87.2107 87.0593 87.2099 87.0654L87.1215 87.7707C86.6647 91.4247 88.3452 95.0166 91.4427 97.0081L97.5204 100.915C98.1894 101.345 98.8198 101.835 99.3881 102.391C101.848 104.798 103.671 107.756 104.728 110.997C106.331 110.615 110.432 109.623 114.264 108.589C118.483 107.45 122.027 105.213 123.395 104.275Z" fill="#7F8B4B"/>
<path d="M102.014 102.391C101.446 101.835 100.815 101.345 100.147 100.915L94.0689 97.008C90.9714 95.0165 89.2909 91.4247 89.7477 87.7707L89.8361 87.0654C89.8369 87.0593 89.8374 87.0536 89.8383 87.0475C89.9699 86.0115 90.5164 85.0726 91.3118 84.3958L95.9055 80.4841C96.8015 79.7211 97.8681 79.2035 98.9894 78.9725C96.9791 78.5499 94.8634 79.1362 93.2805 80.4841L88.6868 84.3958C87.8918 85.073 87.3449 86.0115 87.2133 87.0475C87.2124 87.0536 87.2119 87.0593 87.2111 87.0654L87.1227 87.7707C86.6659 91.4247 88.3464 95.0165 91.4439 97.008L97.5216 100.915C98.1906 101.345 98.821 101.835 99.3893 102.391C101.849 104.798 103.672 107.756 104.729 110.997C105.278 110.866 106.122 110.663 107.144 110.412C106.064 107.401 104.324 104.652 102.014 102.391Z" fill="#727D43"/>
<path d="M116.453 108.151C119.278 107.389 121.798 106.134 123.567 105.106C123.518 104.827 123.462 104.549 123.395 104.274C122.027 105.213 118.482 107.45 114.266 108.588C113.218 108.871 112.151 109.15 111.12 109.415C112.74 109.07 114.606 108.649 116.453 108.151Z" fill="#F0C792"/>
<path d="M107.922 115.05L107.653 113.507C107.487 112.552 107.41 111.356 107.134 110.415C106.117 110.664 105.276 110.867 104.729 110.997C105.042 111.957 105.292 112.941 105.466 113.944L105.734 115.488C105.842 116.11 105.885 116.74 105.862 117.368L108.042 116.441C108.034 115.976 108.002 115.511 107.922 115.05Z" fill="#F0C792"/>
<path d="M122.285 114.682C119.568 113.817 116.672 113.78 113.957 114.546C116.005 114.298 118.099 114.484 120.098 115.119L124.229 116.434L124.173 115.282L122.285 114.682Z" fill="#F0C792"/>
<path d="M72.585 107.624C71.2922 105.976 70.352 104.079 69.8231 102.052L67.6561 96.7189L66.054 96.2586C65.4949 96.0976 64.9375 96.5176 64.9375 97.0995V104.47C66.4014 104.237 67.9506 104.806 68.8868 106.111L74.8692 114.443L74.9488 114.364C75.952 113.36 75.9765 111.742 75.0044 110.708L72.585 107.624Z" fill="#F0C792"/>
<path d="M101.264 84.7917C97.5584 80.8591 85.9182 69.7824 84.625 68.8125C82.875 67.5 71.9375 59.625 70.1875 59.625H66.2251C65.0578 59.625 64.0327 60.3932 63.7055 61.5132C62.8742 64.3566 61.4375 69.7667 61.4375 73.1875C61.4375 78 61 89.375 61 89.375L59.3869 92.0639C58.7346 93.1515 58.4966 94.4378 58.7171 95.6868L59.3699 99.3846C59.5759 100.552 60.1701 101.616 61.0564 102.404L61.8404 103.101C62.8169 103.969 64.3184 103.857 65.1549 102.853C65.5741 102.35 65.7604 101.693 65.6677 101.045L64.9375 95.9375L66.9727 98.2637C67.4627 98.8237 68.3644 98.7082 68.6974 98.0423C68.8116 97.8135 68.8382 97.551 68.7726 97.3042L67.125 91.125L65.8125 88.5C65.8125 88.5 66.6875 78 68.4375 74.5C69.2482 72.8791 70.1818 71.4738 70.9531 70.4273L88.125 85.7932L93.6353 91.6273C94.8292 92.8912 96.6037 93.4276 98.2977 93.0369L98.7978 92.9214C100.337 92.5661 101.61 91.4907 102.218 90.0326C102.961 88.2493 102.589 86.1979 101.264 84.7917Z" fill="#F5D3A6"/>
<path d="M100.341 130.055C100.918 126.246 104.768 121.362 104.768 121.362C103.364 121.995 100.95 123.362 98.1874 126.125C96.2493 128.063 95.17 130.516 94.5684 132.647C93.5981 136.087 91.4364 139.068 88.4535 141.037L83.2319 144.483C86.021 144.159 90.9131 143.449 93.3907 142.234C95.9636 140.973 98.2469 137.503 99.4352 134.216C100.779 136.215 103.843 136.422 103.843 136.422C99.9545 134.698 100.29 130.528 100.341 130.055Z" fill="#8F3C98"/>
<path d="M75.0172 149.905L74.0315 153.25C74.0315 153.25 74.8487 151.403 78.4314 147.652L75.0172 149.905Z" fill="#403742"/>
<path d="M136.937 115.562C141.443 114.114 143.529 112.407 144.445 110.93C138.783 112.716 133.357 115.204 128.285 118.319L124.287 120.774V127C124.287 127 126.437 118.937 136.937 115.562Z" fill="#8F3C98"/>
<path d="M149.219 117.368C146.687 118.61 143.977 125.352 143.977 125.352L143.031 127.226C143.031 127.226 151.75 116.125 149.219 117.368Z" fill="#403742"/>
<path d="M109.871 141.553C109.863 141.546 109.852 141.538 109.844 141.532C109.539 141.277 109.457 141.391 109.871 141.553Z" fill="#514654"/>
<path d="M136.763 133.452C136.49 133.609 126.602 139.306 118.281 141.109C112.892 142.277 110.604 141.839 109.871 141.553C110.223 141.831 112.397 142.972 114.924 144.262L115.25 144.062L125.438 140.44C129.673 138.934 133.53 136.547 136.763 133.452Z" fill="#8F3C98"/>
</svg>
