<svg width="241" height="215" viewBox="0 0 241 215" fill="none" xmlns="http://www.w3.org/2000/svg">
<path d="M114.472 8.11855C28.4441 -19.8888 16.4998 29.626 6.10781 79.5742C-2.5 157.626 -4.34531 191.812 30.4985 206.103C123.183 236.777 200.536 172.292 232.244 133.95C263.952 95.6081 200.5 36.1259 114.472 8.11855Z" fill="#A850B2" fill-opacity="0.1"/>
<path d="M92.9897 102.636C92.0514 102.459 91.0294 102.518 89.9375 103.096C88.2106 104.009 87.1797 105.855 87.1797 107.808L85.8437 127.337C85.8437 128.568 85.3343 129.744 84.4361 130.586L71.5937 142.626L66.1783 144.103C63.7113 144.776 62.1861 147.243 62.6875 149.751L71.2954 148.029C72.9511 147.698 74.4936 146.947 75.7752 145.849L76.9375 144.853L87.7996 139.246C89.7086 138.261 91.2405 136.676 92.1601 134.735L94.0054 130.839C94.4979 129.799 94.8034 128.681 94.9081 127.535L95.6406 119.504L92.9897 102.636Z" fill="#F5D3A6"/>
<path d="M146.184 142.403L133.565 130.587C132.666 129.744 132.156 128.568 132.156 127.336L130.82 107.809C130.82 105.855 129.789 104.01 128.062 103.096C126.971 102.518 125.949 102.459 125.01 102.636L122.359 119.504L123.092 127.535C123.197 128.681 123.502 129.799 123.995 130.839L125.782 134.611C126.737 136.628 128.353 138.258 130.361 139.232L141.953 144.853C143.394 146.582 145.383 147.765 147.59 148.207L155.312 149.751C155.816 147.234 154.307 144.75 151.84 144.038L146.184 142.403Z" fill="#F5D3A6"/>
<path d="M114.344 99.876H103.656L92.9688 102.548L95.1472 124.912L96.5312 133.72H121.469L122.853 124.912L125.031 102.548L114.344 99.876Z" fill="#7F8B4B"/>
<path d="M103.656 102.993H114.344L124.735 105.591L125.031 102.548L114.344 99.876H103.656L92.9688 102.548L93.2653 105.591L103.656 102.993Z" fill="#727D43"/>
<path d="M150.106 151.685C147.97 150.01 145.476 148.85 142.842 148.192L121.246 142.181H96.7539L72.4844 148.86C72.4844 148.86 65.3594 152.423 65.3594 155.54C65.3594 158.657 68.9219 159.103 74.2656 162.22C75.6016 162.999 78.2734 163.305 81.648 163.312L132.14 166.639C133.879 166.66 135.534 166.673 137.055 166.673C149.969 166.673 153.086 159.548 153.086 155.985C153.086 154.458 151.696 152.932 150.106 151.685Z" fill="#A850B2"/>
<path d="M133.606 155.695L141.691 154.117C141.691 154.117 137.397 154.045 136.896 153.544C136.395 153.043 134.391 151.469 130.598 151.898C126.804 152.328 117 149.823 115.568 150.753C114.137 151.684 104.636 153.258 100.771 152.972C96.9066 152.686 77.9238 149.179 77.9238 149.179C77.9238 149.179 79.1333 151.214 81.1764 151.556L114.781 156.765L124.3 154.205L133.606 155.695Z" fill="#8F3C98"/>
<path d="M109 66.5283C102.677 66.5283 97.5515 72.5454 97.5515 79.9683C97.5515 80.919 97.637 81.9041 97.7969 82.8985C98.9551 76.9157 103.553 72.5013 109 72.5013C114.446 72.5013 119.094 76.5764 120.254 82.5565C120.38 81.6783 120.449 80.8095 120.449 79.9679C120.449 72.5454 115.323 66.5283 109 66.5283Z" fill="#704C0F"/>
<path d="M103.656 93.671V103.884C103.656 106.835 106.049 109.228 109 109.228C111.951 109.228 114.344 106.835 114.344 103.884V93.671H103.656Z" fill="#F0C792"/>
<path d="M102.346 69.035C104.221 67.459 106.517 66.5283 109 66.5283C111.497 66.5283 113.805 67.4693 115.687 69.0621H115.692C115.799 68.5808 115.969 68.0375 115.969 67.524C115.969 63.6752 112.849 60.5553 109 60.5553C105.152 60.5553 102.032 63.6752 102.032 67.524C102.032 68.0793 102.217 68.5175 102.34 69.0354L102.346 69.035Z" fill="#704C0F"/>
<path d="M96.9766 133.72L96.7539 142.181H121.246L121.023 133.72H96.9766Z" fill="#F5D3A6"/>
<path d="M109 72.5013C103.553 72.5013 98.9551 76.9152 97.7964 82.898C98.8852 89.669 103.487 96.8924 109 96.8924C114.606 96.8924 119.268 89.4236 120.253 82.5564C119.093 76.5768 114.446 72.5013 109 72.5013Z" fill="#F5D3A6"/>
<path d="M104.526 67.5935C104.411 67.651 104.298 67.7133 104.184 67.7752C102.87 70.4195 102.643 73.0441 102.671 74.7109C102.744 74.6548 102.817 74.5992 102.891 74.5453C102.881 72.8397 103.148 70.2093 104.526 67.5935Z" fill="#5E400D"/>
<path d="M105.463 67.1851C105.38 67.2167 105.296 67.2501 105.214 67.284C104.688 69.7145 104.841 71.9103 105.06 73.3086C105.13 73.2788 105.201 73.2512 105.272 73.2231C105.056 71.8164 104.912 69.6147 105.463 67.1851Z" fill="#5E400D"/>
<path d="M113.58 67.6496C114.91 69.7679 116.458 72.805 116.647 75.6862C116.711 75.7485 116.776 75.8077 116.838 75.8714C116.863 75.8496 116.88 75.8211 116.878 75.7859C116.728 72.972 115.28 70.0062 113.967 67.8558C113.84 67.7836 113.71 67.7164 113.58 67.6496Z" fill="#5E400D"/>
<path d="M113.815 73.6435C113.902 73.6871 113.985 73.7397 114.072 73.786C114.065 73.7522 114.059 73.7197 114.053 73.6858C113.572 71.2678 111.83 68.351 110.727 66.681C110.629 66.6637 110.53 66.6512 110.431 66.637C111.502 68.2392 113.301 71.1934 113.815 73.6435Z" fill="#5E400D"/>
<path d="M115.687 69.0621H115.692C115.757 68.7691 115.842 68.4529 115.901 68.1345C113.982 66.4299 111.592 65.4177 109 65.4177C106.411 65.4177 104.023 66.4277 102.105 68.1292C102.171 68.4307 102.265 68.7192 102.34 69.0354H102.345C104.221 67.4595 106.517 66.5287 109 66.5287C111.497 66.5283 113.805 67.4692 115.687 69.0621Z" fill="#5E400D"/>
<path d="M131.878 156.207L92.5235 162.665L85.9404 164.744C84.8779 165.079 84.2482 166.171 84.49 167.259C84.7465 168.413 85.8865 169.143 87.0417 168.893L101.43 165.782C101.43 165.782 119.109 166.476 132.14 166.639L132.88 166.647C132.88 166.647 134.94 163.834 134.94 161.051C134.94 158.268 131.878 156.207 131.878 156.207Z" fill="#F5D3A6"/>
<path d="M86.1051 164.692C97.7669 163.631 110.437 161.605 115.872 160.966C120.936 160.37 127.806 158.871 133.361 157.534C132.612 156.703 131.877 156.207 131.877 156.207L92.5234 162.665L86.1051 164.692Z" fill="#F0C792"/>
<path d="M132.9 152.804L124.141 152.423L117.88 151.64C117.334 151.572 116.788 151.76 116.399 152.149L114.115 154.433C113.701 154.847 113.108 155.031 112.531 154.925L89.4062 150.642L81.176 151.556C81.172 151.557 79.6094 154.204 79.6094 157.321C79.6094 160.438 81.9718 163.311 81.9718 163.311C92.0955 163.332 108.221 160.661 113.898 159.993C120.107 159.263 129.908 156.736 133.235 155.85C133.913 155.669 134.383 155.055 134.383 154.353C134.383 153.522 133.729 152.84 132.9 152.804Z" fill="#F5D3A6"/>
</svg>
