<svg width="60" height="60" viewBox="0 0 60 60" fill="none" xmlns="http://www.w3.org/2000/svg">
<circle cx="30" cy="30" r="30" fill="#BFF2F2" fill-opacity="0.2"/>
<path d="M27.6301 20.7972C24.6285 21.4971 22.2122 23.8775 21.4744 26.8615C20.7342 29.8552 21.5813 32.9065 23.7405 35.0239C24.5043 35.773 24.9603 36.9735 24.9603 38.2354V38.4369C24.9603 39.2678 25.3229 40.0156 25.8978 40.5309V42.1868C25.8978 43.7375 27.1594 44.9992 28.7102 44.9992H30.5852C32.136 44.9992 33.3976 43.7375 33.3976 42.1868V40.5309C33.9726 40.0156 34.3351 39.2679 34.3351 38.4369V38.2317C34.3351 36.989 34.8155 35.7657 35.6203 34.9592C37.2097 33.3663 38.085 31.2498 38.085 28.9996C38.085 23.6197 33.0996 19.5224 27.6301 20.7972ZM31.5227 42.1868C31.5227 42.7037 31.1021 43.1243 30.5852 43.1243H28.7102C28.1933 43.1243 27.7727 42.7037 27.7727 42.1868V41.2493H31.5227V42.1868ZM34.293 33.6348C33.1282 34.8021 32.4601 36.4776 32.4601 38.2317V38.4369C32.4601 38.9538 32.0396 39.3743 31.5227 39.3743H27.7727C27.2558 39.3743 26.8353 38.9538 26.8353 38.4369V38.2354C26.8353 36.4543 26.1857 34.7958 25.0532 33.6853C23.3726 32.0372 22.7152 29.6545 23.2945 27.3116C23.8648 25.0049 25.7337 23.1646 28.0559 22.6232C32.3478 21.6225 36.2101 24.8264 36.2101 28.9996C36.2101 30.7498 35.5292 32.3959 34.293 33.6348Z" fill="#00C0C5"/>
<path d="M22.3545 20.3818L19.7029 17.7303C19.3369 17.3642 18.7432 17.3642 18.3771 17.7303C18.011 18.0964 18.011 18.6899 18.3771 19.0561L21.0288 21.7076C21.3948 22.0737 21.9885 22.0737 22.3545 21.7076C22.7207 21.3415 22.7207 20.748 22.3545 20.3818Z" fill="#00C0C5"/>
<path d="M18.3974 28.062H14.5849C14.0672 28.062 13.6475 28.4818 13.6475 28.9995C13.6475 29.5172 14.0672 29.937 14.5849 29.937H18.3974C18.9151 29.937 19.3348 29.5172 19.3348 28.9995C19.3348 28.4818 18.9151 28.062 18.3974 28.062Z" fill="#00C0C5"/>
<path d="M44.7099 28.0625H40.8974C40.3797 28.0625 39.96 28.4822 39.96 29C39.96 29.5177 40.3797 29.9375 40.8974 29.9375H44.7099C45.2276 29.9375 45.6473 29.5177 45.6473 29C45.6473 28.4822 45.2276 28.0625 44.7099 28.0625Z" fill="#00C0C5"/>
<path d="M40.9151 17.7309C40.5491 17.3648 39.9555 17.3648 39.5893 17.7309L36.9377 20.3825C36.5716 20.7485 36.5716 21.3421 36.9377 21.7082C37.3037 22.0744 37.8973 22.0744 38.2635 21.7082L40.9151 19.0567C41.2812 18.6906 41.2812 18.097 40.9151 17.7309Z" fill="#00C0C5"/>
<path d="M29.6465 13C29.1287 13 28.709 13.4197 28.709 13.9375V17.7499C28.709 18.2676 29.1287 18.6874 29.6465 18.6874C30.1642 18.6874 30.5839 18.2676 30.5839 17.7499V13.9375C30.5839 13.4197 30.1642 13 29.6465 13Z" fill="#00C0C5"/>
<path d="M29.6482 24.312C29.2628 24.312 28.8702 24.3582 28.4821 24.4491C26.8655 24.8264 25.5123 26.1571 25.1147 27.7603C24.9901 28.2628 25.2964 28.7712 25.7989 28.8959C26.3015 29.0205 26.8099 28.714 26.9345 28.2116C27.1633 27.2893 27.9749 26.4929 28.909 26.2748C29.1579 26.2165 29.4066 26.187 29.6482 26.187C30.1659 26.187 30.5856 25.7672 30.5856 25.2495C30.5856 24.7318 30.1659 24.312 29.6482 24.312Z" fill="#00C0C5"/>
</svg>
