<svg width="71" height="70" viewBox="0 0 71 70" fill="none" xmlns="http://www.w3.org/2000/svg">
<path d="M45.6308 22.2614C38.8231 12.246 29.7308 6.92296 24.9692 10.1845C24.4449 10.5537 23.9893 11.0119 23.6231 11.5383C23.6231 11.5768 12.6 33.8845 12.6 33.8845L6.44616 38.0537C5.50145 38.695 4.69235 39.5162 4.06508 40.4702C3.4378 41.4243 3.00464 42.4926 2.79034 43.6141C2.57603 44.7356 2.58479 45.8884 2.81611 47.0065C3.04742 48.1246 3.49677 49.1862 4.13846 50.1306L4.41539 50.5383C5.71247 52.4278 7.70217 53.7297 9.95292 54.1617C12.2037 54.5938 14.534 54.121 16.4385 52.846L26.3231 67.4076C27.7769 69.1999 30.5692 70.9845 34.0154 68.8845C34.6259 68.4886 35.1467 67.9692 35.5441 67.3598C35.9416 66.7503 36.207 66.0643 36.3231 65.346C36.4623 64.6316 36.4585 63.8966 36.312 63.1836C36.1654 62.4707 35.879 61.7938 35.4692 61.1922L26.7615 48.346C26.7615 48.346 47.3462 46.7076 47.4231 46.6768C48.0658 46.5423 48.6751 46.2808 49.2154 45.9076C51.6615 44.246 52.5385 40.7614 51.6923 36.0922C50.9308 31.7922 48.7692 26.923 45.6308 22.2614ZM6.65385 49.023L6.37693 48.6153C5.93419 47.9635 5.62434 47.2307 5.46513 46.4591C5.30592 45.6874 5.30047 44.8918 5.44908 44.118C5.5977 43.3442 5.89747 42.6073 6.33123 41.9495C6.76499 41.2917 7.32423 40.7259 7.97693 40.2845L13.2923 36.6691L20.3077 46.9999L14.9923 50.6153C14.3404 51.0586 13.6074 51.3691 12.8354 51.529C12.0634 51.6889 11.2675 51.6951 10.4931 51.5472C9.71869 51.3993 8.98103 51.1003 8.32227 50.6671C7.66351 50.234 7.09657 49.6753 6.65385 49.023ZM33.2539 62.7076C33.6743 63.3331 33.8294 64.0999 33.6852 64.8397C33.541 65.5795 33.1092 66.2319 32.4846 66.6537C31.8578 67.0745 31.0899 67.2299 30.3488 67.0857C29.6078 66.9415 28.9541 66.5096 28.5308 65.8845L18.6769 51.3691L22.6385 48.6768L23.6846 48.5922L33.2539 62.7076ZM22.8538 45.9537L15.2077 34.6922L22.5 19.823C23.2077 23.9999 25.2769 28.9614 28.5846 33.8307C31.8923 38.6999 35.7385 42.4537 39.3538 44.6537L22.8538 45.9537ZM45.5462 44.1614C41.8692 43.923 35.8846 39.7768 30.8154 32.3076C25.7462 24.8383 24.1 17.7691 25.2308 14.2537C25.435 13.5939 25.8425 13.0154 26.3951 12.601C26.9476 12.1865 27.6171 11.9573 28.3077 11.946C31.9539 11.946 38.1615 16.1153 43.3769 23.7999C46.3154 28.123 48.4538 32.646 49.0385 36.5999C50.1846 44.1614 45.5462 44.1614 45.5462 44.1614Z" fill="white"/>
<path d="M36.0154 22.5465C35.0731 22.3615 34.1034 22.3662 33.163 22.5603C32.2226 22.7545 31.3304 23.1342 30.5385 23.6773C30.3925 23.7783 30.2678 23.9071 30.1716 24.0563C30.0754 24.2054 30.0096 24.3721 29.9778 24.5468C29.946 24.7214 29.9489 24.9006 29.9864 25.0741C30.0239 25.2476 30.0951 25.4121 30.1961 25.558C30.2972 25.704 30.4259 25.8287 30.5751 25.9249C30.7243 26.0211 30.891 26.0869 31.0656 26.1187C31.2403 26.1505 31.4195 26.1476 31.593 26.1101C31.7665 26.0726 31.9309 26.0014 32.0769 25.9003C32.5785 25.5599 33.1422 25.3216 33.7358 25.199C34.3294 25.0765 34.9414 25.072 35.5368 25.1859C36.1322 25.2999 36.6993 25.53 37.2057 25.863C37.7121 26.1961 38.148 26.6257 38.4885 27.1273C38.8289 27.6288 39.0672 28.1925 39.1898 28.7862C39.3123 29.3798 39.3168 29.9918 39.2029 30.5871C39.0889 31.1825 38.8589 31.7496 38.5258 32.2561C38.1927 32.7625 37.7631 33.1984 37.2615 33.5388C37.025 33.7021 36.847 33.9368 36.7535 34.2086C36.66 34.4804 36.656 34.7749 36.742 35.0492C36.8279 35.3234 36.9994 35.563 37.2313 35.7327C37.4632 35.9025 37.7434 35.9936 38.0308 35.9927C38.305 35.9978 38.5739 35.9171 38.8 35.7619C39.9964 34.9514 40.9254 33.804 41.4692 32.4651C42.0131 31.1262 42.1472 29.6561 41.8548 28.2408C41.5624 26.8256 40.8565 25.529 39.8265 24.5153C38.7966 23.5016 37.4889 22.8164 36.0692 22.5465H36.0154Z" fill="white"/>
<path d="M47.2923 12.9H47.4231C47.756 12.8999 48.0771 12.7764 48.3243 12.5533C48.5715 12.3303 48.7273 12.0235 48.7615 11.6923L49.8 1.60002C49.8236 1.42156 49.8112 1.24018 49.7635 1.06659C49.7158 0.893013 49.6338 0.730762 49.5223 0.589441C49.4108 0.44812 49.272 0.3306 49.1143 0.243834C48.9566 0.157067 48.7831 0.102818 48.604 0.0842942C48.4249 0.0657706 48.244 0.0833495 48.0718 0.135991C47.8997 0.188632 47.7398 0.275266 47.6018 0.390768C47.4637 0.50627 47.3502 0.648293 47.268 0.808434C47.1857 0.968575 47.1365 1.14358 47.1231 1.3231L46.0923 11.4231C46.0557 11.7781 46.1616 12.133 46.3866 12.4099C46.6116 12.6869 46.9374 12.8632 47.2923 12.9Z" fill="white"/>
<path d="M64.6923 10.8232C64.4947 10.5253 64.1872 10.3176 63.837 10.2456C63.4868 10.1735 63.1223 10.2429 62.8231 10.4386L53.4462 16.5924C53.2027 16.7532 53.0181 16.9888 52.92 17.2636C52.822 17.5384 52.8159 17.8376 52.9027 18.1162C52.9895 18.3948 53.1644 18.6376 53.4012 18.8081C53.638 18.9786 53.9237 19.0676 54.2154 19.0617C54.4875 19.0679 54.7554 18.993 54.9847 18.8463L64.3616 12.6924C64.6525 12.4878 64.8505 12.1763 64.9125 11.8261C64.9745 11.4758 64.8953 11.1153 64.6923 10.8232Z" fill="white"/>
<path d="M67.5615 27.2543L56.6538 25.2927C56.3019 25.2295 55.9392 25.3086 55.6457 25.5128C55.3521 25.7169 55.1516 26.0293 55.0884 26.3812C55.0252 26.7331 55.1043 27.0958 55.3084 27.3893C55.5126 27.6829 55.8249 27.8833 56.1769 27.9466L67.0769 29.9081H67.3153C67.6583 29.9182 67.9922 29.7968 68.2487 29.5689C68.5052 29.341 68.6651 29.0238 68.6955 28.682C68.726 28.3402 68.6247 27.9997 68.4125 27.7301C68.2003 27.4604 67.8931 27.282 67.5538 27.2312L67.5615 27.2543Z" fill="white"/>
</svg>
