<svg width="55" height="55" viewBox="0 0 55 55" fill="none" xmlns="http://www.w3.org/2000/svg">
<g clip-path="url(#clip0_1105_15407)">
<path d="M1.07422 19.0786H2.7573C3.35064 19.0786 3.83152 18.5977 3.83152 18.0044C3.83152 17.4111 3.35064 16.9302 2.7573 16.9302H1.07422C0.480881 16.9302 0 17.4111 0 18.0044C0 18.5977 0.480881 19.0786 1.07422 19.0786Z" fill="white"/>
<path d="M17.5815 3.93894C18.1749 3.93894 18.6557 3.45806 18.6557 2.86472V1.18164C18.6557 0.588303 18.1749 0.107422 17.5815 0.107422C16.9882 0.107422 16.5073 0.588303 16.5073 1.18164V2.86472C16.5073 3.45806 16.9882 3.93894 17.5815 3.93894Z" fill="white"/>
<path d="M6.33957 7.96613C6.54938 8.17593 6.82423 8.28084 7.09908 8.28084C7.37392 8.28084 7.64877 8.17593 7.85858 7.96613C8.2782 7.54693 8.2782 6.86673 7.85858 6.44711L5.33165 3.92018C4.91245 3.50056 4.23225 3.50056 3.81264 3.92018C3.39302 4.3398 3.39302 5.02 3.81264 5.43919L6.33957 7.96613Z" fill="white"/>
<path d="M28.0635 8.28078C28.3388 8.28078 28.6136 8.17587 28.8235 7.96606L31.219 5.57005C31.6387 5.15044 31.6387 4.47024 31.219 4.05104C30.7998 3.63142 30.1196 3.63142 29.7 4.05104L27.304 6.44705C26.8848 6.86667 26.8848 7.54687 27.304 7.96606C27.5138 8.17587 27.7887 8.28078 28.0635 8.28078Z" fill="white"/>
<path d="M35.4576 15.1299H35.4626C36.0535 15.1299 36.5339 14.6524 36.5369 14.0607C36.5394 13.4674 36.0606 12.984 35.4673 12.9814H35.4274C34.8341 12.9814 34.3532 13.4623 34.3532 14.0557C34.3532 14.649 34.8341 15.1299 35.4274 15.1299H35.4576Z" fill="white"/>
<path d="M42.722 22.425C42.722 23.0179 43.2029 23.4992 43.7962 23.4992C44.3896 23.4992 44.8704 23.0179 44.8704 22.425C44.8704 19.0844 43.0783 15.96 40.1925 14.2706C39.681 13.9706 39.0227 14.1426 38.7231 14.655C38.423 15.1669 38.5951 15.8249 39.1074 16.1245C41.3368 17.4303 42.722 19.8444 42.722 22.425Z" fill="white"/>
<path d="M15.2187 40.7266C14.935 40.7266 14.6589 40.8411 14.4592 41.0413C14.2582 41.241 14.1444 41.518 14.1444 41.8008C14.1444 42.0832 14.2582 42.3601 14.4592 42.5599C14.6589 42.76 14.9358 42.875 15.2187 42.875C15.5011 42.875 15.7772 42.76 15.9777 42.5599C16.1779 42.3601 16.2929 42.0832 16.2929 41.8008C16.2929 41.518 16.1779 41.241 15.9777 41.0413C15.778 40.8411 15.5011 40.7266 15.2187 40.7266Z" fill="white"/>
<path d="M54.2191 37.4321C54.7369 36.2664 55 35.0239 55 33.7315C55 31.6405 54.2757 29.5966 52.9607 27.976C51.8961 26.6647 50.4824 25.6715 48.9042 25.1117C49.0792 24.2301 49.1673 23.33 49.1673 22.4245C49.1673 14.8483 43.0036 8.68456 35.4274 8.68456C32.394 8.68456 29.473 9.67989 27.0854 11.5069C26.2 10.1478 25.0322 8.98795 23.6517 8.11137C21.8381 6.95952 19.7392 6.35107 17.5815 6.35107C11.3301 6.35107 6.2439 11.4368 6.2439 17.6883C6.2439 20.2119 7.0953 22.6423 8.6034 24.6052C3.81222 24.8855 0 28.8711 0 33.7315C0 38.7728 4.10175 42.8745 9.14345 42.8745H10.9214C11.5147 42.8745 11.9956 42.3936 11.9956 41.8003C11.9956 41.207 11.5147 40.7261 10.9214 40.7261H9.14345C5.28633 40.7261 2.14844 37.5882 2.14844 33.7315C2.14844 29.8744 5.28633 26.7365 9.14345 26.7365C10.1434 26.7365 11.111 26.945 12.0203 27.3558C12.372 27.5149 12.7828 27.4729 13.095 27.2455C13.4076 27.018 13.5738 26.6404 13.5301 26.2564C13.2796 24.0388 14.4764 21.9277 16.5077 21.0024C18.3851 20.1472 20.583 20.4938 22.1067 21.8853C22.4063 22.1585 22.8339 22.2403 23.2128 22.0959C23.5917 21.952 23.8573 21.6067 23.8993 21.2038C24.1955 18.3714 25.4875 15.8734 27.4077 14.0385C27.4924 13.9793 27.5667 13.9096 27.6297 13.8316C29.6938 11.9601 32.4343 10.833 35.4274 10.833C41.819 10.833 47.0189 16.0329 47.0189 22.4245C47.0189 23.4916 46.8737 24.549 46.5875 25.5674C46.5078 25.8515 46.5481 26.1557 46.6996 26.4092C46.8506 26.6622 47.0995 26.8422 47.3877 26.9064C50.5533 27.6135 52.8511 30.4837 52.8511 33.7311C52.8511 34.4713 52.7366 35.1888 52.5146 35.8766C51.0615 34.8657 49.315 34.3005 47.5031 34.3005H41.7372L32.1259 22.6624C31.9219 22.4153 31.6181 22.2722 31.2975 22.2722H27.5231C27.1811 22.2722 26.8597 22.435 26.657 22.7107C26.4547 22.9864 26.396 23.3422 26.4984 23.6687L29.8415 34.3009H25.1745L23.3903 31.4517C23.1939 31.1383 22.8498 30.9477 22.4801 30.9477H18.3691C18.0221 30.9477 17.6961 31.1156 17.4947 31.398C17.2928 31.6808 17.2404 32.0434 17.3537 32.3719L19.4941 38.5881L17.3528 44.8278C17.2404 45.156 17.2932 45.5181 17.4947 45.8005C17.6965 46.0829 18.0221 46.2507 18.3691 46.2507H22.4797C22.8506 46.2507 23.1947 46.0594 23.3911 45.7451L25.1686 42.8976H29.8415L26.4984 53.5298C26.3956 53.8559 26.4547 54.2117 26.657 54.4874C26.8592 54.7631 27.1811 54.9263 27.5231 54.9263H31.2975C31.6181 54.9263 31.9215 54.7832 32.1259 54.5361L41.7372 42.8976H47.5031C50.3301 42.8976 52.9984 41.5242 54.6412 39.2234C54.9077 38.85 54.9077 38.3485 54.6412 37.9751C54.5074 37.7875 54.3664 37.6066 54.2191 37.4321ZM22.0584 19.2421C20.0883 18.1943 17.712 18.0932 15.6173 19.047C13.3505 20.0797 11.8181 22.1534 11.4404 24.5222C9.51691 22.7891 8.39233 20.3 8.39233 17.6887C8.39233 12.6218 12.5146 8.49951 17.5811 8.49951C20.8529 8.49951 23.8078 10.1922 25.464 12.9634C23.7881 14.727 22.6165 16.8918 22.0584 19.2421ZM28.9871 24.4206H30.7915L38.9509 34.3005H32.0935L28.9871 24.4206ZM30.7915 52.7775H28.9871L32.0935 42.8976H38.9509L30.7915 52.7775ZM47.5035 40.7492H31.3152C31.3101 40.7492 31.3055 40.7492 31.3009 40.7492H24.5732C24.2022 40.7492 23.8581 40.9401 23.6618 41.2544L21.8843 44.1019H19.8735L21.6463 38.936C21.724 38.7094 21.7236 38.4635 21.6459 38.2373L19.8751 33.0962H21.8855L23.6697 35.945C23.8661 36.2584 24.2098 36.4489 24.5799 36.4489H31.2984C31.3009 36.4489 31.303 36.4493 31.3051 36.4493C31.3072 36.4493 31.3097 36.4489 31.3122 36.4489H47.5035C49.3683 36.4489 51.1416 37.2407 52.387 38.599C51.1416 39.9573 49.3679 40.7492 47.5035 40.7492Z" fill="white"/>
</g>
<defs>
<clipPath id="clip0_1105_15407">
<rect width="55" height="55" fill="white"/>
</clipPath>
</defs>
</svg>
