<svg width="108" height="108" viewBox="0 0 108 108" fill="none" xmlns="http://www.w3.org/2000/svg">
<g opacity="0.4" clip-path="url(#clip0_1105_15113)">
<path d="M4.71384 64.4405L35.0866 68.6302L20.265 90.1959C19.9286 90.6855 19.8533 91.3088 20.064 91.864C20.2739 92.42 20.7422 92.837 21.3186 92.9814L28.5718 94.7947C29.1535 94.9408 29.7698 94.7902 30.2178 94.3918L56.0449 71.4343L70.4876 72.7464C72.3389 72.9155 74.6587 72.9952 77.0537 72.9952C80.4802 73.0138 83.9058 72.8358 87.3119 72.4622L92.1046 71.8637C95.4656 71.444 98.7513 70.5533 101.865 69.2181L105.31 67.7421C106.851 67.0816 107.889 65.6101 107.991 63.9367C108.095 62.2633 107.246 60.6749 105.798 59.8311L95.3133 53.7148C90.5994 50.9674 85.241 49.5188 79.7843 49.5171H66.0977L45.1014 25.675C44.7419 25.2863 44.2372 25.0632 43.7069 25.0605L36.2332 25.1951C35.6214 25.2049 35.0565 25.521 34.7298 26.038C34.4022 26.5542 34.357 27.2006 34.6103 27.7575L44.347 49.5171H19.253L10.6983 32.3863C10.3893 31.7683 9.7562 31.3796 9.06559 31.3841H1.81239C1.27938 31.3841 0.773814 31.6187 0.429393 32.0251C0.0849728 32.4324 -0.062889 32.9707 0.0247656 33.4958L3.43001 53.9334L3.02007 54.1389C0.879176 55.2102 -0.316113 57.5503 0.0725771 59.9134C0.461268 62.2766 2.34186 64.1111 4.71384 64.4405ZM28.5223 91.0415L24.7327 90.0932L42.5975 64.1085L57.3181 65.4463L54.8098 67.6749L54.5619 67.6501L54.538 67.9121L28.5223 91.0415ZM39.0399 28.7686L42.9348 28.6978L61.2652 49.5171H48.3207L39.0399 28.7686ZM7.22749 54.6577L3.95417 35.0107H7.94378L16.5074 52.1405C16.8155 52.7559 17.4441 53.1446 18.1321 53.1437H79.7843C84.4521 53.1481 89.0393 54.3531 93.1069 56.6428L93.6709 57.7725L92.0497 58.5836H85.2242V62.2102H92.4774C92.758 62.2128 93.036 62.1508 93.2884 62.0287L96.915 60.2154C97.2806 60.0232 97.5684 59.7116 97.7304 59.3317L103.971 62.9734C104.238 63.1266 104.396 63.4179 104.376 63.726C104.358 64.0341 104.166 64.3041 103.881 64.4237L100.436 65.8996C97.6348 67.1002 94.6785 67.9015 91.6548 68.2805L86.8621 68.879C81.532 69.4474 76.1621 69.5377 70.816 69.149L59.7547 68.145L62.8501 65.3941C63.4061 64.9168 63.6213 64.1527 63.3946 63.4568C63.168 62.76 62.5446 62.2686 61.8151 62.2102L41.8688 60.3969C41.2153 60.3375 40.5823 60.6359 40.2113 61.176L37.3895 65.2922L5.21232 60.8475C4.41546 60.7369 3.7824 60.1197 3.65225 59.3246C3.52121 58.5304 3.92318 57.7433 4.64301 57.383L6.25001 56.579C6.96276 56.2231 7.35942 55.4431 7.22749 54.6577Z" fill="white"/>
<path d="M23.572 54.957H27.1986V58.5836H23.572V54.957Z" fill="white"/>
<path d="M30.8252 54.957H34.4518V58.5836H30.8252V54.957Z" fill="white"/>
<path d="M38.0784 54.957H41.705V58.5836H38.0784V54.957Z" fill="white"/>
<path d="M45.3316 54.957H48.9582V58.5836H45.3316V54.957Z" fill="white"/>
<path d="M52.5848 54.957H56.2114V58.5836H52.5848V54.957Z" fill="white"/>
<path d="M59.838 54.957H63.4646V58.5836H59.838V54.957Z" fill="white"/>
<path d="M67.0912 54.957H70.7178V58.5836H67.0912V54.957Z" fill="white"/>
<path d="M99.5261 16.9771C98.8204 14.0827 96.4165 11.9135 93.4646 11.5089C90.5127 11.1042 87.6139 12.5457 86.1547 15.1443C84.3007 14.8335 82.4166 15.4958 81.1646 16.8974C77.948 16.6583 75.0633 18.871 74.4604 22.0407C73.8574 25.2095 75.7274 28.3261 78.8077 29.2859C79.099 29.4719 79.4381 29.571 79.7843 29.571H101.544C101.865 29.571 102.18 29.4798 102.451 29.3081C105.473 28.4094 107.379 25.4282 106.924 22.3081C106.468 19.1879 103.791 16.8744 100.637 16.8779C100.264 16.8779 99.8926 16.9107 99.5261 16.9771ZM103.357 23.2245C103.358 24.5172 102.448 25.631 101.182 25.8895C101.113 25.9037 101.045 25.9223 100.978 25.9444H80.3518C80.2845 25.9223 80.2155 25.9037 80.1455 25.8895C78.7758 25.6115 77.84 24.3401 77.9807 22.95C78.1215 21.559 79.2938 20.5019 80.6909 20.5045C80.9548 20.5098 81.216 20.5559 81.4657 20.6382C82.3121 20.8923 83.2179 20.4992 83.611 19.7077C83.843 19.2526 84.2556 18.9152 84.7487 18.7771C85.241 18.6399 85.7687 18.7142 86.2034 18.9825C86.7002 19.3039 87.3217 19.3632 87.8698 19.1419C88.4178 18.9205 88.8233 18.4451 88.9562 17.8696C89.4396 15.9952 91.3131 14.8335 93.207 15.2337C95.1008 15.6339 96.3439 17.4534 96.0278 19.3632C95.8871 20.1096 96.2262 20.864 96.8769 21.2545C97.5286 21.6458 98.3538 21.5891 98.9461 21.1137C99.7554 20.4461 100.879 20.3088 101.825 20.7613C102.772 21.2137 103.37 22.1753 103.357 23.2245Z" fill="white"/>
<path d="M64.3712 94.8496C63.9985 94.8496 63.6266 94.8824 63.2601 94.9488C62.5544 92.0544 60.1505 89.8852 57.1986 89.4805C54.2467 89.0759 51.3479 90.5173 49.8888 93.116C48.0347 92.8052 46.1506 93.4675 44.8986 94.8691C41.682 94.63 38.7973 96.8426 38.1944 100.012C37.5914 103.181 39.4614 106.298 42.5417 107.258C42.833 107.444 43.1721 107.543 43.5183 107.543H65.2779C65.5993 107.543 65.9136 107.451 66.1845 107.28C69.2073 106.381 71.1127 103.4 70.6576 100.28C70.2016 97.1596 67.525 94.8461 64.3712 94.8496ZM64.9158 103.861C64.8467 103.875 64.7794 103.894 64.7121 103.916H44.0858C44.0186 103.894 43.9495 103.875 43.8795 103.861C42.5098 103.583 41.574 102.312 41.7147 100.922C41.8555 99.5307 43.0278 98.4735 44.4249 98.4762C44.6888 98.4815 44.95 98.5276 45.1997 98.6099C46.0461 98.864 46.9519 98.4709 47.345 97.6793C47.577 97.2242 47.9896 96.886 48.4819 96.7479C48.975 96.6107 49.5027 96.685 49.9374 96.9542C50.4342 97.2756 51.0557 97.3349 51.6038 97.1136C52.1518 96.8922 52.5573 96.4168 52.6902 95.8413C53.1736 93.9669 55.0471 92.8052 56.941 93.2054C58.8348 93.6056 60.0779 95.4251 59.7619 97.3349C59.6211 98.0813 59.9602 98.8357 60.6109 99.2261C61.2626 99.6175 62.0878 99.5608 62.6801 99.0854C63.5576 98.3673 64.7892 98.269 65.7693 98.8392C66.7503 99.4094 67.2736 100.528 67.0832 101.646C66.8937 102.764 66.0296 103.647 64.9158 103.861Z" fill="white"/>
<path d="M26.9941 6.09721C26.2884 3.20283 23.8846 1.0336 20.9326 0.628975C17.9807 0.224348 15.0819 1.66578 13.6228 4.26443C11.7687 3.95277 9.8846 4.61505 8.63265 6.01752C5.41599 5.77846 2.53136 7.99108 1.9284 11.1608C1.32544 14.3297 3.19541 17.4463 6.27571 18.406C6.56701 18.592 6.90612 18.6911 7.25231 18.6911H29.0119C29.3333 18.6911 29.6476 18.5999 29.9186 18.4282C32.9413 17.5295 34.8467 14.5483 34.3916 11.4282C33.9356 8.30805 31.259 5.9945 28.1053 5.99804C27.7325 5.99804 27.3606 6.0308 26.9941 6.09721ZM30.8252 12.3446C30.8261 13.6373 29.9159 14.7511 28.6498 15.0096C28.5807 15.0238 28.5134 15.0424 28.4461 15.0645H7.81985C7.75256 15.0424 7.68438 15.0238 7.61532 15.0096C6.24561 14.7316 5.30974 13.4611 5.45052 12.071C5.59041 10.6809 6.7618 9.62287 8.15896 9.62464C8.42281 9.62995 8.684 9.67599 8.93368 9.75833C9.78013 10.0124 10.6859 9.61933 11.079 8.82778C11.311 8.37268 11.7236 8.03446 12.2159 7.89634C12.709 7.7591 13.2367 7.83347 13.6715 8.10264C14.1682 8.42404 14.7897 8.48336 15.3378 8.26201C15.8858 8.04066 16.2914 7.5652 16.4242 6.98969C16.9076 5.1153 18.7811 3.95365 20.675 4.35385C22.5688 4.75405 23.8119 6.57355 23.4959 8.48336C23.3551 9.22975 23.6942 9.98411 24.345 10.3746C24.9966 10.7659 25.8218 10.7093 26.4141 10.2338C27.2234 9.5662 28.347 9.42897 29.2935 9.8814C30.24 10.3338 30.8376 11.2954 30.8252 12.3446Z" fill="white"/>
</g>
<defs>
<clipPath id="clip0_1105_15113">
<rect width="108" height="108" fill="white"/>
</clipPath>
</defs>
</svg>
