<svg width="63" height="63" viewBox="0 0 63 63" fill="none" xmlns="http://www.w3.org/2000/svg">
<circle cx="31.5" cy="31.75" r="31" fill="#F6F6F6"/>
<g clip-path="url(#clip0_1105_18079)">
<path d="M15.2461 34.5339L25.2626 35.9156L20.3746 43.0277C20.2637 43.1892 20.2389 43.3947 20.3084 43.5778C20.3776 43.7612 20.532 43.8987 20.7221 43.9463L23.1141 44.5443C23.306 44.5925 23.5092 44.5428 23.6569 44.4114L32.1744 36.8403L36.9374 37.2731C37.548 37.3288 38.313 37.3551 39.1028 37.3551C40.2328 37.3613 41.3626 37.3026 42.4859 37.1793L44.0664 36.982C45.1748 36.8435 46.2584 36.5498 47.2854 36.1095L48.4215 35.6227C48.9296 35.4049 49.2718 34.9196 49.3057 34.3677C49.3398 33.8159 49.0598 33.292 48.5824 33.0138L45.1246 30.9967C43.57 30.0906 41.8029 29.6129 40.0033 29.6123H35.4897L28.5654 21.7495C28.4468 21.6213 28.2804 21.5478 28.1055 21.5469L25.6407 21.5913C25.439 21.5945 25.2527 21.6987 25.1449 21.8692C25.0369 22.0395 25.022 22.2526 25.1055 22.4363L28.3166 29.6123H20.0409L17.2196 23.9628C17.1177 23.759 16.909 23.6308 16.6812 23.6323H14.2892C14.1134 23.6323 13.9467 23.7097 13.8331 23.8437C13.7195 23.978 13.6708 24.1555 13.6997 24.3287L14.8227 31.0688L14.6875 31.1365C13.9814 31.4898 13.5872 32.2616 13.7154 33.0409C13.8436 33.8202 14.4638 34.4253 15.2461 34.5339ZM23.0978 43.3065L21.848 42.9938L27.7396 34.4244L32.5943 34.8656L31.7671 35.6005L31.6853 35.5924L31.6774 35.6788L23.0978 43.3065ZM26.5664 22.7697L27.8508 22.7464L33.896 29.6123H29.627L26.5664 22.7697ZM16.075 31.3076L14.9955 24.8283H16.3113L19.1354 30.4775C19.237 30.6804 19.4443 30.8086 19.6712 30.8083H40.0033C41.5427 30.8098 43.0555 31.2072 44.397 31.9623L44.583 32.3349L44.0483 32.6023H41.7973V33.7983H44.1893C44.2819 33.7992 44.3736 33.7788 44.4568 33.7385L45.6528 33.1405C45.7734 33.0771 45.8683 32.9743 45.9217 32.8491L47.9797 34.05C48.0679 34.1006 48.1199 34.1966 48.1134 34.2982C48.1073 34.3999 48.044 34.4889 47.9502 34.5283L46.8141 35.0151C45.8902 35.411 44.9152 35.6753 43.9181 35.8003L42.3375 35.9976C40.5797 36.1851 38.8088 36.2149 37.0457 36.0867L33.3978 35.7556L34.4187 34.8484C34.602 34.691 34.673 34.439 34.5982 34.2095C34.5235 33.9797 34.3179 33.8176 34.0773 33.7983L27.4993 33.2003C27.2838 33.1808 27.075 33.2792 26.9527 33.4573L26.0221 34.8148L15.4105 33.349C15.1477 33.3125 14.9389 33.1089 14.896 32.8467C14.8527 32.5848 14.9853 32.3252 15.2227 32.2064L15.7527 31.9413C15.9877 31.8239 16.1185 31.5666 16.075 31.3076Z" fill="#132979" fill-opacity="0.6"/>
<path d="M21.4652 31.4062H22.6612V32.6023H21.4652V31.4062Z" fill="#132979" fill-opacity="0.6"/>
<path d="M23.8573 31.4062H25.0533V32.6023H23.8573V31.4062Z" fill="#132979" fill-opacity="0.6"/>
<path d="M26.2493 31.4062H27.4453V32.6023H26.2493V31.4062Z" fill="#132979" fill-opacity="0.6"/>
<path d="M28.6413 31.4062H29.8373V32.6023H28.6413V31.4062Z" fill="#132979" fill-opacity="0.6"/>
<path d="M31.0333 31.4062H32.2293V32.6023H31.0333V31.4062Z" fill="#132979" fill-opacity="0.6"/>
<path d="M33.4253 31.4062H34.6213V32.6023H33.4253V31.4062Z" fill="#132979" fill-opacity="0.6"/>
<path d="M35.8173 31.4062H37.0133V32.6023H35.8173V31.4062Z" fill="#132979" fill-opacity="0.6"/>
<path d="M46.5139 18.8813C46.2812 17.9267 45.4884 17.2113 44.5149 17.0779C43.5414 16.9445 42.5854 17.4198 42.1042 18.2768C41.4928 18.1743 40.8714 18.3928 40.4585 18.855C39.3977 18.7761 38.4464 19.5058 38.2476 20.5512C38.0487 21.5962 38.6654 22.624 39.6813 22.9406C39.7773 23.0019 39.8892 23.0346 40.0033 23.0346H47.1794C47.2854 23.0346 47.389 23.0045 47.4784 22.9479C48.4752 22.6515 49.1036 21.6683 48.9535 20.6394C48.8031 19.6104 47.9204 18.8474 46.8804 18.8486C46.7574 18.8486 46.6348 18.8594 46.5139 18.8813ZM47.7774 20.9416C47.7777 21.3679 47.4775 21.7352 47.0599 21.8205C47.0372 21.8251 47.015 21.8313 46.9928 21.8386H40.1905C40.1683 21.8313 40.1455 21.8251 40.1225 21.8205C39.6708 21.7288 39.3621 21.3095 39.4085 20.851C39.455 20.3923 39.8416 20.0437 40.3023 20.0446C40.3893 20.0463 40.4755 20.0615 40.5578 20.0887C40.837 20.1725 41.1357 20.0428 41.2653 19.7818C41.3418 19.6317 41.4779 19.5204 41.6405 19.4749C41.8029 19.4296 41.9769 19.4542 42.1203 19.5426C42.2841 19.6486 42.4891 19.6682 42.6698 19.5952C42.8506 19.5222 42.9843 19.3654 43.0281 19.1756C43.1875 18.5574 43.8054 18.1743 44.43 18.3063C45.0545 18.4383 45.4645 19.0384 45.3602 19.6682C45.3138 19.9143 45.4257 20.1631 45.6403 20.2919C45.8552 20.4209 46.1273 20.4023 46.3227 20.2455C46.5895 20.0253 46.9601 19.98 47.2722 20.1292C47.5844 20.2785 47.7815 20.5956 47.7774 20.9416Z" fill="#132979" fill-opacity="0.6"/>
<path d="M34.9203 44.5624C34.7974 44.5624 34.6747 44.5732 34.5539 44.5951C34.3211 43.6406 33.5284 42.9252 32.5549 42.7918C31.5814 42.6583 30.6254 43.1337 30.1442 43.9907C29.5327 43.8882 28.9114 44.1066 28.4985 44.5688C27.4377 44.49 26.4864 45.2197 26.2875 46.265C26.0887 47.3101 26.7054 48.3379 27.7212 48.6544C27.8173 48.7157 27.9291 48.7484 28.0433 48.7484H35.2193C35.3253 48.7484 35.429 48.7184 35.5183 48.6617C36.5152 48.3653 37.1436 47.3822 36.9935 46.3532C36.8431 45.3242 35.9604 44.5613 34.9203 44.5624ZM35.0999 47.5343C35.0771 47.539 35.0549 47.5451 35.0327 47.5524H28.2304C28.2083 47.5451 28.1855 47.539 28.1624 47.5343C27.7107 47.4426 27.4021 47.0233 27.4485 46.5649C27.4949 46.1062 27.8815 45.7576 28.3423 45.7584C28.4293 45.7602 28.5154 45.7754 28.5978 45.8025C28.8769 45.8863 29.1756 45.7567 29.3053 45.4956C29.3818 45.3456 29.5178 45.234 29.6802 45.1885C29.8428 45.1432 30.0169 45.1677 30.1602 45.2565C30.324 45.3625 30.529 45.3821 30.7098 45.3091C30.8905 45.2361 31.0242 45.0793 31.068 44.8895C31.2275 44.2713 31.8453 43.8882 32.4699 44.0202C33.0945 44.1522 33.5044 44.7522 33.4002 45.3821C33.3538 45.6282 33.4656 45.877 33.6802 46.0057C33.8951 46.1348 34.1673 46.1161 34.3626 45.9593C34.652 45.7225 35.0581 45.6901 35.3814 45.8781C35.7049 46.0662 35.8775 46.435 35.8147 46.8038C35.7522 47.1726 35.4672 47.4637 35.0999 47.5343Z" fill="#132979" fill-opacity="0.6"/>
<path d="M22.5938 15.2934C22.3611 14.3388 21.5683 13.6235 20.5948 13.49C19.6213 13.3566 18.6653 13.8319 18.1841 14.6889C17.5727 14.5862 16.9513 14.8046 16.5384 15.2671C15.4776 15.1883 14.5263 15.9179 14.3275 16.9633C14.1286 18.0083 14.7453 19.0361 15.7612 19.3527C15.8572 19.414 15.9691 19.4467 16.0832 19.4467H23.2593C23.3653 19.4467 23.4689 19.4166 23.5583 19.36C24.5551 19.0636 25.1835 18.0804 25.0334 17.0515C24.883 16.0225 24.0003 15.2595 22.9603 15.2607C22.8373 15.2607 22.7147 15.2715 22.5938 15.2934ZM23.8573 17.3537C23.8576 17.78 23.5574 18.1473 23.1398 18.2326C23.1171 18.2372 23.0949 18.2434 23.0727 18.2507H16.2704C16.2482 18.2434 16.2257 18.2372 16.2029 18.2326C15.7512 18.1409 15.4426 17.7219 15.489 17.2635C15.5352 16.805 15.9215 16.4561 16.3822 16.4567C16.4692 16.4584 16.5554 16.4736 16.6377 16.5008C16.9169 16.5846 17.2156 16.4549 17.3452 16.1939C17.4217 16.0438 17.5578 15.9323 17.7201 15.8867C17.8828 15.8414 18.0568 15.866 18.2002 15.9547C18.364 16.0607 18.569 16.0803 18.7497 16.0073C18.9305 15.9343 19.0642 15.7775 19.108 15.5877C19.2674 14.9695 19.8853 14.5865 20.5098 14.7184C21.1344 14.8504 21.5444 15.4505 21.4401 16.0803C21.3937 16.3264 21.5055 16.5752 21.7202 16.704C21.9351 16.8331 22.2072 16.8144 22.4026 16.6576C22.6694 16.4374 23.04 16.3921 23.3521 16.5414C23.6643 16.6906 23.8614 17.0077 23.8573 17.3537Z" fill="#132979" fill-opacity="0.6"/>
</g>
<defs>
<clipPath id="clip0_1105_18079">
<rect width="35.617" height="35.617" fill="white" transform="translate(13.6915 13.2822)"/>
</clipPath>
</defs>
</svg>
