<svg width="55" height="36" viewBox="0 0 55 36" fill="none" xmlns="http://www.w3.org/2000/svg">
<path d="M54.9556 8.72282L52.1173 0.564683C51.9998 0.227579 51.6716 0 51.3024 0H46.753C46.3837 0 46.0556 0.227579 45.9381 0.564683L43.0999 8.72282C43.0121 8.97548 43.0558 9.25315 43.2174 9.46946C43.3785 9.6857 43.6382 9.81385 43.9147 9.81385H48.1671V31.7626H45.3037C44.8291 31.7626 44.4443 32.1333 44.4443 32.5905C44.4443 33.0476 44.8291 33.4184 45.3037 33.4184H52.7519C53.2264 33.4184 53.6112 33.0476 53.6112 32.5905C53.6112 32.1333 53.2264 31.7626 52.7519 31.7626H49.8859V9.81385H54.1407C54.4173 9.81385 54.677 9.6857 54.8381 9.46946C54.9997 9.25323 55.0433 8.97548 54.9556 8.72282ZM45.1088 8.15814L47.3714 1.65572H50.6839L52.9464 8.15814H45.1088Z" fill="white"/>
<path d="M40.0457 15.7638V5.77117C40.0457 2.58905 37.3522 0 34.0414 0H8.1162C4.80546 0 2.11192 2.58905 2.11192 5.77117V15.763C0.825087 16.7669 0 18.2977 0 20.0118V30.7687C0 31.2258 0.384829 31.5966 0.859376 31.5966H1.0847V32.3892C1.0847 34.1177 2.54874 35.5236 4.3481 35.5236C6.14746 35.5236 7.61106 34.1177 7.61106 32.3892V31.5966H34.3335V32.3892C34.3335 34.1177 35.7963 35.5236 37.5939 35.5236C39.3933 35.5236 40.8569 34.1177 40.8569 32.3892V31.5966H41.2983C41.7729 31.5966 42.1577 31.2258 42.1577 30.7687V20.0118C42.1577 18.2981 41.3326 16.7676 40.0457 15.7638ZM40.439 29.9408H1.71875V21.2717H40.439V29.9408ZM1.76043 19.616C1.96969 17.7003 3.64066 16.1966 5.68838 16.1966H36.4665C38.5158 16.1966 40.1879 17.7003 40.3974 19.616H1.76043ZM9.02138 13.7571V10.5685C9.02138 10.1364 9.38817 9.78471 9.83925 9.78471H16.5157C16.9685 9.78471 17.337 10.1364 17.337 10.5685V13.7571C17.337 14.1893 16.9685 14.5409 16.5157 14.5409H9.83925C9.38808 14.5409 9.02138 14.1893 9.02138 13.7571ZM24.8208 13.7571V10.5685C24.8208 10.1364 25.1875 9.78471 25.6386 9.78471H32.3151C32.7662 9.78471 33.1333 10.1364 33.1333 10.5685V13.7571C33.1333 14.1893 32.7662 14.5409 32.3151 14.5409H25.6386C25.1875 14.5409 24.8208 14.1893 24.8208 13.7571ZM3.83067 5.77117C3.83067 3.50184 5.75335 1.65572 8.1162 1.65572H34.0414C36.4043 1.65572 38.327 3.50184 38.327 5.77117V14.8472C37.7429 14.6522 37.1186 14.5409 36.4664 14.5409H34.7058C34.7939 14.2936 34.8522 14.0329 34.8522 13.7571V10.5685C34.8522 9.22326 33.7142 8.129 32.3152 8.129H25.6387C24.2402 8.129 23.1021 9.22326 23.1021 10.5685V13.7571C23.1021 14.0329 23.1604 14.2936 23.2484 14.5409H18.9092C18.9974 14.2936 19.0557 14.0329 19.0557 13.7571V10.5685C19.0557 9.22326 17.9164 8.129 16.5157 8.129H9.83925C8.4407 8.129 7.30263 9.22326 7.30263 10.5685V13.7571C7.30263 14.0329 7.3609 14.2936 7.44898 14.5409H5.68829C5.03715 14.5409 4.41384 14.6519 3.83067 14.8465V5.77117ZM5.89222 32.3892C5.89222 33.2045 5.1994 33.8678 4.34801 33.8678C3.4962 33.8678 2.80337 33.2044 2.80337 32.3892V31.5965H5.89214L5.89222 32.3892ZM39.1381 32.3892C39.1381 33.2045 38.4453 33.8678 37.5939 33.8678C36.7437 33.8678 36.0523 33.2044 36.0523 32.3892V31.5965H39.1381V32.3892Z" fill="white"/>
</svg>
