<svg width="11" height="11" viewBox="0 0 11 11" fill="none" xmlns="http://www.w3.org/2000/svg">
<path d="M8.83751 1.7085H3.0547C2.97182 1.7085 2.89233 1.74142 2.83373 1.80003C2.77512 1.85863 2.7422 1.93812 2.7422 2.021C2.7422 2.10388 2.77512 2.18336 2.83373 2.24197C2.89233 2.30057 2.97182 2.3335 3.0547 2.3335H8.2247L1.81251 8.746C1.78151 8.77453 1.7566 8.80903 1.73928 8.84743C1.72196 8.88583 1.71258 8.92734 1.71171 8.96946C1.71083 9.01158 1.71849 9.05344 1.7342 9.09252C1.74992 9.13161 1.77338 9.16711 1.80317 9.1969C1.83296 9.22669 1.86846 9.25015 1.90755 9.26586C1.94663 9.28158 1.98849 9.28923 2.03061 9.28836C2.07273 9.28749 2.11424 9.27811 2.15264 9.26079C2.19104 9.24346 2.22554 9.21856 2.25407 9.18756L8.66657 2.77506V7.94537C8.66657 8.02825 8.6995 8.10774 8.7581 8.16634C8.81671 8.22495 8.89619 8.25787 8.97907 8.25787C9.06195 8.25787 9.14144 8.22495 9.20004 8.16634C9.25865 8.10774 9.29157 8.02825 9.29157 7.94537V2.16287C9.29141 2.04247 9.24353 1.92704 9.15842 1.84187C9.07331 1.75671 8.95791 1.70874 8.83751 1.7085Z" fill="black"/>
</svg>
