<svg width="22" height="22" viewBox="0 0 22 22" fill="none" xmlns="http://www.w3.org/2000/svg">
<g clip-path="url(#clip0_1400_15153)">
<path d="M7.17322 15.7792L15.0745 8.13873L15.0745 12.738C15.0731 12.8195 15.0884 12.9006 15.1197 12.9764C15.1509 13.0521 15.1975 13.1211 15.2566 13.1793C15.3158 13.2375 15.3863 13.2837 15.4641 13.3153C15.5419 13.3468 15.6255 13.3631 15.7098 13.3631C15.7942 13.3631 15.8777 13.3468 15.9555 13.3153C16.0333 13.2837 16.1039 13.2375 16.163 13.1793C16.2221 13.1211 16.2687 13.0521 16.3 12.9764C16.3312 12.9006 16.3466 12.8195 16.3451 12.738L16.3451 6.65547C16.3451 6.49255 16.2782 6.3363 16.159 6.2211C16.0399 6.1059 15.8783 6.04116 15.7098 6.04114L9.41969 6.04114C9.25311 6.04394 9.09433 6.10989 8.97755 6.2248C8.86077 6.3397 8.79534 6.49436 8.79534 6.65547C8.79534 6.81658 8.86077 6.97124 8.97755 7.08614C9.09433 7.20105 9.25311 7.267 9.41969 7.2698L14.1759 7.2698L6.27463 14.9103C6.15547 15.0255 6.08852 15.1818 6.08852 15.3447C6.08852 15.5077 6.15547 15.664 6.27463 15.7792C6.39379 15.8944 6.5554 15.9592 6.72392 15.9592C6.89244 15.9592 7.05406 15.8944 7.17322 15.7792Z" fill="#A74FB1"/>
</g>
<defs>
<clipPath id="clip0_1400_15153">
<rect width="15" height="15" fill="white" transform="matrix(-0.718872 0.695142 -0.718872 -0.695142 22 11)"/>
</clipPath>
</defs>
</svg>
