<svg width="28" height="27" viewBox="0 0 28 27" fill="none" xmlns="http://www.w3.org/2000/svg">
<g clip-path="url(#clip0_1105_15380)">
<path d="M9.02304 19.6192L18.7485 10.2148L18.7485 15.8758C18.7466 15.9762 18.7655 16.076 18.804 16.1692C18.8425 16.2625 18.8998 16.3474 18.9726 16.4191C19.0454 16.4907 19.1322 16.5476 19.228 16.5864C19.3238 16.6252 19.4266 16.6452 19.5304 16.6452C19.6343 16.6452 19.7371 16.6252 19.8329 16.5864C19.9286 16.5476 20.0154 16.4907 20.0882 16.4191C20.161 16.3474 20.2183 16.2625 20.2568 16.1692C20.2953 16.076 20.3142 15.9762 20.3124 15.8758L20.3124 8.38912C20.3124 8.18859 20.23 7.99627 20.0833 7.85447C19.9367 7.71267 19.7378 7.633 19.5304 7.63297L11.7881 7.63297C11.5831 7.63641 11.3877 7.71759 11.2439 7.85902C11.1002 8.00046 11.0196 8.19082 11.0196 8.38912C11.0196 8.58742 11.1002 8.77779 11.2439 8.91922C11.3877 9.06065 11.5831 9.14183 11.7881 9.14528L17.6424 9.14528L7.917 18.5496C7.77033 18.6915 7.68793 18.8838 7.68793 19.0844C7.68793 19.285 7.77033 19.4773 7.917 19.6192C8.06367 19.761 8.2626 19.8407 8.47002 19.8407C8.67745 19.8407 8.87637 19.761 9.02304 19.6192Z" fill="white"/>
</g>
<defs>
<clipPath id="clip0_1105_15380">
<rect width="18.4629" height="18.4629" fill="white" transform="matrix(-0.718872 0.695142 -0.718872 -0.695142 27.2727 13.7368)"/>
</clipPath>
</defs>
</svg>
