<svg width="60" height="60" viewBox="0 0 60 60" fill="none" xmlns="http://www.w3.org/2000/svg">
<circle cx="30" cy="30" r="30" fill="#53FFFF" fill-opacity="0.2"/>
<path d="M41.0619 24.5984H42.3553C44.027 24.5984 44.7212 26.7383 43.3678 27.7196L36.7379 32.5267L39.2831 40.2848C39.8048 41.875 37.9838 43.2016 36.6302 42.2177L30.0255 37.4173L23.3974 42.2463C22.0454 43.2314 20.2235 41.9084 20.7418 40.3179L23.2826 32.5207L16.6355 27.7216C15.2787 26.742 15.9716 24.5984 17.6451 24.5984H25.8385L28.3386 16.8229C28.8511 15.2292 31.1051 15.2264 31.6214 16.819L34.1435 24.5984H35.4369" stroke="#2FB8BC" stroke-width="1.8" stroke-miterlimit="10" stroke-linecap="round" stroke-linejoin="round"/>
<path d="M30 41.3212V46.376" stroke="#2FB8BC" stroke-width="1.8" stroke-miterlimit="10" stroke-linecap="round" stroke-linejoin="round"/>
<path d="M40.4385 33.7368L45.2459 35.2988" stroke="#2FB8BC" stroke-width="1.8" stroke-miterlimit="10" stroke-linecap="round" stroke-linejoin="round"/>
<path d="M36.4512 21.4668L39.4223 17.3774" stroke="#2FB8BC" stroke-width="1.8" stroke-miterlimit="10" stroke-linecap="round" stroke-linejoin="round"/>
<path d="M23.5488 21.4668L20.5776 17.3774" stroke="#2FB8BC" stroke-width="1.8" stroke-miterlimit="10" stroke-linecap="round" stroke-linejoin="round"/>
<path d="M19.5618 33.7368L14.7544 35.2988" stroke="#2FB8BC" stroke-width="1.8" stroke-miterlimit="10" stroke-linecap="round" stroke-linejoin="round"/>
</svg>
