<svg width="60" height="60" viewBox="0 0 60 60" fill="none" xmlns="http://www.w3.org/2000/svg">
<circle cx="30" cy="30" r="30" fill="#FF936E" fill-opacity="0.2"/>
<mask id="path-2-outside-1_615_123384" maskUnits="userSpaceOnUse" x="12.2441" y="25.3066" width="35" height="23" fill="black">
<rect fill="white" x="12.2441" y="25.3066" width="35" height="23"/>
<path d="M46.0547 39.4479C45.6027 38.996 45.0018 38.7471 44.3625 38.7471C44.3622 38.7471 44.3618 38.7471 44.3616 38.7471H44.306C43.6957 38.7474 43.1545 39.0484 42.8227 39.5097L39.2604 35.9474L38.5355 30.5105C38.2159 28.1139 36.1517 26.3066 33.7323 26.3066C33.0677 26.3066 32.5271 26.8473 32.5271 27.5118V28.7558C32.5271 30.1491 31.3935 31.2829 30.0001 31.2829C28.6067 31.2829 27.473 30.1492 27.473 28.7558V27.5118C27.473 26.8472 26.9324 26.3066 26.2662 26.3066C23.8484 26.3066 21.7841 28.1139 21.4647 30.5105L20.7397 35.9474L17.1784 39.5088C17.1208 39.4289 17.0564 39.3531 16.9854 39.2821C16.6403 38.9371 16.1817 38.7471 15.6932 38.7471H15.6928C14.3426 38.7474 13.2441 39.8462 13.2441 41.1964C13.2441 42.5224 14.3036 43.605 15.6204 43.6438C15.2996 44.0948 15.1102 44.6453 15.1102 45.2396C15.1103 46.7617 16.3486 47.9999 17.8706 47.9999H42.1297C43.6518 47.9999 44.89 46.7617 44.89 45.2397C44.89 44.6454 44.7006 44.0949 44.3799 43.6439C45.6965 43.6055 46.7561 42.5186 46.7561 41.1873V41.1404C46.7561 40.501 46.507 39.8999 46.0547 39.4479ZM35.0399 37.2498L35.241 35.5408L35.427 36.4706C35.5945 37.3088 36.0027 38.0712 36.6071 38.6757L40.4108 42.4794H36.0538L35.1411 38.8286C35.0116 38.3109 34.9776 37.7797 35.0399 37.2498ZM26.268 27.4729C26.2894 27.4729 26.3068 27.4903 26.3068 27.5118V28.7558C26.3068 30.7923 27.9637 32.4491 30.0001 32.4491C32.0366 32.4491 33.6934 30.7923 33.6934 28.7558V27.5118C33.6934 27.4903 33.7109 27.4729 33.7339 27.4729C34.1727 27.4729 34.5958 27.5521 34.9895 27.6963L33.8816 37.1135C33.8026 37.7841 33.8457 38.4564 34.0095 39.1114L34.8515 42.4793H25.1488L25.9908 39.1114C26.1545 38.4563 26.1976 37.7841 26.1188 37.1135L25.0108 27.6965C25.4049 27.5522 25.8285 27.4729 26.268 27.4729ZM24.7593 35.5407L24.9604 37.2498C25.0228 37.7797 24.9888 38.3109 24.8593 38.8286L23.9466 42.4794H19.5894L23.3931 38.6757C23.9975 38.0713 24.4056 37.3088 24.5732 36.4706L24.7593 35.5407ZM15.6935 42.4794C14.9861 42.4794 14.4106 41.9039 14.4106 41.1965C14.4106 40.4892 14.9859 39.9137 15.6935 39.9136C15.87 39.9136 16.036 39.9822 16.1608 40.107C16.2856 40.2318 16.3544 40.3977 16.3544 40.5744C16.3544 40.8103 16.4964 41.0229 16.7144 41.1132C16.9324 41.2034 17.1832 41.1536 17.3499 40.9867L21.7041 36.6325C21.7947 36.5419 21.853 36.4241 21.8699 36.2973L22.6209 30.6646C22.7461 29.7252 23.225 28.9057 23.9112 28.3321L24.3188 31.7961L23.4297 36.2418C23.3074 36.8534 23.0095 37.4099 22.5685 37.8509L17.9402 42.4793H17.8706H15.6935V42.4794ZM27.5509 46.8336H17.8706C16.9916 46.8336 16.2766 46.1186 16.2766 45.2397C16.2766 44.3607 16.9916 43.6457 17.8706 43.6457H21.9526V43.9306C21.9526 44.7937 22.541 45.5272 23.3834 45.7143L27.5508 46.6405V46.8336H27.5509ZM27.5509 45.4457L23.6364 44.5758C23.3317 44.508 23.119 44.2428 23.119 43.9306V43.6457H27.5509V45.4457ZM42.1297 46.8336H28.7172V43.6457H42.1298C43.0086 43.6458 43.7236 44.3608 43.7236 45.2397C43.7236 46.1186 43.0086 46.8336 42.1297 46.8336ZM45.5897 41.1873C45.5897 41.8997 45.0147 42.4794 44.308 42.4794H42.0603L37.4319 37.8509C36.9908 37.4099 36.693 36.8534 36.5707 36.2418L35.6815 31.7961L36.0891 28.332C36.7752 28.9057 37.2542 29.7252 37.3794 30.6647L38.1304 36.2973C38.1474 36.4242 38.2056 36.542 38.2962 36.6326L42.6504 40.9868C42.8172 41.1536 43.068 41.2034 43.2859 41.1132C43.5039 41.0229 43.6459 40.8103 43.6459 40.5745C43.6459 40.2101 43.9423 39.9137 44.3067 39.9136H44.3623C44.3624 39.9136 44.3626 39.9136 44.3628 39.9136C44.6904 39.9136 44.9985 40.0412 45.2303 40.2728C45.462 40.5045 45.5898 40.8128 45.5898 41.1406V41.1873H45.5897Z"/>
</mask>
<path d="M46.0547 39.4479C45.6027 38.996 45.0018 38.7471 44.3625 38.7471C44.3622 38.7471 44.3618 38.7471 44.3616 38.7471H44.306C43.6957 38.7474 43.1545 39.0484 42.8227 39.5097L39.2604 35.9474L38.5355 30.5105C38.2159 28.1139 36.1517 26.3066 33.7323 26.3066C33.0677 26.3066 32.5271 26.8473 32.5271 27.5118V28.7558C32.5271 30.1491 31.3935 31.2829 30.0001 31.2829C28.6067 31.2829 27.473 30.1492 27.473 28.7558V27.5118C27.473 26.8472 26.9324 26.3066 26.2662 26.3066C23.8484 26.3066 21.7841 28.1139 21.4647 30.5105L20.7397 35.9474L17.1784 39.5088C17.1208 39.4289 17.0564 39.3531 16.9854 39.2821C16.6403 38.9371 16.1817 38.7471 15.6932 38.7471H15.6928C14.3426 38.7474 13.2441 39.8462 13.2441 41.1964C13.2441 42.5224 14.3036 43.605 15.6204 43.6438C15.2996 44.0948 15.1102 44.6453 15.1102 45.2396C15.1103 46.7617 16.3486 47.9999 17.8706 47.9999H42.1297C43.6518 47.9999 44.89 46.7617 44.89 45.2397C44.89 44.6454 44.7006 44.0949 44.3799 43.6439C45.6965 43.6055 46.7561 42.5186 46.7561 41.1873V41.1404C46.7561 40.501 46.507 39.8999 46.0547 39.4479ZM35.0399 37.2498L35.241 35.5408L35.427 36.4706C35.5945 37.3088 36.0027 38.0712 36.6071 38.6757L40.4108 42.4794H36.0538L35.1411 38.8286C35.0116 38.3109 34.9776 37.7797 35.0399 37.2498ZM26.268 27.4729C26.2894 27.4729 26.3068 27.4903 26.3068 27.5118V28.7558C26.3068 30.7923 27.9637 32.4491 30.0001 32.4491C32.0366 32.4491 33.6934 30.7923 33.6934 28.7558V27.5118C33.6934 27.4903 33.7109 27.4729 33.7339 27.4729C34.1727 27.4729 34.5958 27.5521 34.9895 27.6963L33.8816 37.1135C33.8026 37.7841 33.8457 38.4564 34.0095 39.1114L34.8515 42.4793H25.1488L25.9908 39.1114C26.1545 38.4563 26.1976 37.7841 26.1188 37.1135L25.0108 27.6965C25.4049 27.5522 25.8285 27.4729 26.268 27.4729ZM24.7593 35.5407L24.9604 37.2498C25.0228 37.7797 24.9888 38.3109 24.8593 38.8286L23.9466 42.4794H19.5894L23.3931 38.6757C23.9975 38.0713 24.4056 37.3088 24.5732 36.4706L24.7593 35.5407ZM15.6935 42.4794C14.9861 42.4794 14.4106 41.9039 14.4106 41.1965C14.4106 40.4892 14.9859 39.9137 15.6935 39.9136C15.87 39.9136 16.036 39.9822 16.1608 40.107C16.2856 40.2318 16.3544 40.3977 16.3544 40.5744C16.3544 40.8103 16.4964 41.0229 16.7144 41.1132C16.9324 41.2034 17.1832 41.1536 17.3499 40.9867L21.7041 36.6325C21.7947 36.5419 21.853 36.4241 21.8699 36.2973L22.6209 30.6646C22.7461 29.7252 23.225 28.9057 23.9112 28.3321L24.3188 31.7961L23.4297 36.2418C23.3074 36.8534 23.0095 37.4099 22.5685 37.8509L17.9402 42.4793H17.8706H15.6935V42.4794ZM27.5509 46.8336H17.8706C16.9916 46.8336 16.2766 46.1186 16.2766 45.2397C16.2766 44.3607 16.9916 43.6457 17.8706 43.6457H21.9526V43.9306C21.9526 44.7937 22.541 45.5272 23.3834 45.7143L27.5508 46.6405V46.8336H27.5509ZM27.5509 45.4457L23.6364 44.5758C23.3317 44.508 23.119 44.2428 23.119 43.9306V43.6457H27.5509V45.4457ZM42.1297 46.8336H28.7172V43.6457H42.1298C43.0086 43.6458 43.7236 44.3608 43.7236 45.2397C43.7236 46.1186 43.0086 46.8336 42.1297 46.8336ZM45.5897 41.1873C45.5897 41.8997 45.0147 42.4794 44.308 42.4794H42.0603L37.4319 37.8509C36.9908 37.4099 36.693 36.8534 36.5707 36.2418L35.6815 31.7961L36.0891 28.332C36.7752 28.9057 37.2542 29.7252 37.3794 30.6647L38.1304 36.2973C38.1474 36.4242 38.2056 36.542 38.2962 36.6326L42.6504 40.9868C42.8172 41.1536 43.068 41.2034 43.2859 41.1132C43.5039 41.0229 43.6459 40.8103 43.6459 40.5745C43.6459 40.2101 43.9423 39.9137 44.3067 39.9136H44.3623C44.3624 39.9136 44.3626 39.9136 44.3628 39.9136C44.6904 39.9136 44.9985 40.0412 45.2303 40.2728C45.462 40.5045 45.5898 40.8128 45.5898 41.1406V41.1873H45.5897Z" fill="#F07E58"/>
<path d="M46.0547 39.4479C45.6027 38.996 45.0018 38.7471 44.3625 38.7471C44.3622 38.7471 44.3618 38.7471 44.3616 38.7471H44.306C43.6957 38.7474 43.1545 39.0484 42.8227 39.5097L39.2604 35.9474L38.5355 30.5105C38.2159 28.1139 36.1517 26.3066 33.7323 26.3066C33.0677 26.3066 32.5271 26.8473 32.5271 27.5118V28.7558C32.5271 30.1491 31.3935 31.2829 30.0001 31.2829C28.6067 31.2829 27.473 30.1492 27.473 28.7558V27.5118C27.473 26.8472 26.9324 26.3066 26.2662 26.3066C23.8484 26.3066 21.7841 28.1139 21.4647 30.5105L20.7397 35.9474L17.1784 39.5088C17.1208 39.4289 17.0564 39.3531 16.9854 39.2821C16.6403 38.9371 16.1817 38.7471 15.6932 38.7471H15.6928C14.3426 38.7474 13.2441 39.8462 13.2441 41.1964C13.2441 42.5224 14.3036 43.605 15.6204 43.6438C15.2996 44.0948 15.1102 44.6453 15.1102 45.2396C15.1103 46.7617 16.3486 47.9999 17.8706 47.9999H42.1297C43.6518 47.9999 44.89 46.7617 44.89 45.2397C44.89 44.6454 44.7006 44.0949 44.3799 43.6439C45.6965 43.6055 46.7561 42.5186 46.7561 41.1873V41.1404C46.7561 40.501 46.507 39.8999 46.0547 39.4479ZM35.0399 37.2498L35.241 35.5408L35.427 36.4706C35.5945 37.3088 36.0027 38.0712 36.6071 38.6757L40.4108 42.4794H36.0538L35.1411 38.8286C35.0116 38.3109 34.9776 37.7797 35.0399 37.2498ZM26.268 27.4729C26.2894 27.4729 26.3068 27.4903 26.3068 27.5118V28.7558C26.3068 30.7923 27.9637 32.4491 30.0001 32.4491C32.0366 32.4491 33.6934 30.7923 33.6934 28.7558V27.5118C33.6934 27.4903 33.7109 27.4729 33.7339 27.4729C34.1727 27.4729 34.5958 27.5521 34.9895 27.6963L33.8816 37.1135C33.8026 37.7841 33.8457 38.4564 34.0095 39.1114L34.8515 42.4793H25.1488L25.9908 39.1114C26.1545 38.4563 26.1976 37.7841 26.1188 37.1135L25.0108 27.6965C25.4049 27.5522 25.8285 27.4729 26.268 27.4729ZM24.7593 35.5407L24.9604 37.2498C25.0228 37.7797 24.9888 38.3109 24.8593 38.8286L23.9466 42.4794H19.5894L23.3931 38.6757C23.9975 38.0713 24.4056 37.3088 24.5732 36.4706L24.7593 35.5407ZM15.6935 42.4794C14.9861 42.4794 14.4106 41.9039 14.4106 41.1965C14.4106 40.4892 14.9859 39.9137 15.6935 39.9136C15.87 39.9136 16.036 39.9822 16.1608 40.107C16.2856 40.2318 16.3544 40.3977 16.3544 40.5744C16.3544 40.8103 16.4964 41.0229 16.7144 41.1132C16.9324 41.2034 17.1832 41.1536 17.3499 40.9867L21.7041 36.6325C21.7947 36.5419 21.853 36.4241 21.8699 36.2973L22.6209 30.6646C22.7461 29.7252 23.225 28.9057 23.9112 28.3321L24.3188 31.7961L23.4297 36.2418C23.3074 36.8534 23.0095 37.4099 22.5685 37.8509L17.9402 42.4793H17.8706H15.6935V42.4794ZM27.5509 46.8336H17.8706C16.9916 46.8336 16.2766 46.1186 16.2766 45.2397C16.2766 44.3607 16.9916 43.6457 17.8706 43.6457H21.9526V43.9306C21.9526 44.7937 22.541 45.5272 23.3834 45.7143L27.5508 46.6405V46.8336H27.5509ZM27.5509 45.4457L23.6364 44.5758C23.3317 44.508 23.119 44.2428 23.119 43.9306V43.6457H27.5509V45.4457ZM42.1297 46.8336H28.7172V43.6457H42.1298C43.0086 43.6458 43.7236 44.3608 43.7236 45.2397C43.7236 46.1186 43.0086 46.8336 42.1297 46.8336ZM45.5897 41.1873C45.5897 41.8997 45.0147 42.4794 44.308 42.4794H42.0603L37.4319 37.8509C36.9908 37.4099 36.693 36.8534 36.5707 36.2418L35.6815 31.7961L36.0891 28.332C36.7752 28.9057 37.2542 29.7252 37.3794 30.6647L38.1304 36.2973C38.1474 36.4242 38.2056 36.542 38.2962 36.6326L42.6504 40.9868C42.8172 41.1536 43.068 41.2034 43.2859 41.1132C43.5039 41.0229 43.6459 40.8103 43.6459 40.5745C43.6459 40.2101 43.9423 39.9137 44.3067 39.9136H44.3623C44.3624 39.9136 44.3626 39.9136 44.3628 39.9136C44.6904 39.9136 44.9985 40.0412 45.2303 40.2728C45.462 40.5045 45.5898 40.8128 45.5898 41.1406V41.1873H45.5897Z" stroke="#F07E58" stroke-width="0.4" mask="url(#path-2-outside-1_615_123384)"/>
<path d="M32.4341 18.4226C32.2323 18.1222 31.8312 18.031 31.5194 18.2153M32.4341 18.4226C32.4342 18.4227 32.4342 18.4228 32.4343 18.4229L32.3513 18.4786L32.4339 18.4223C32.4339 18.4224 32.434 18.4225 32.4341 18.4226ZM32.4341 18.4226L31.5194 18.2153M31.5194 18.2153C29.3827 19.4779 26.8915 19.8144 25.7101 19.9037C25.7864 17.6029 27.6819 15.7544 30.0009 15.7544C32.3102 15.7544 34.1996 17.5875 34.2905 19.875L31.5194 18.2153ZM25.0204 21.3021L25.0212 21.3021L25.0232 21.3021C25.0636 21.3021 25.2642 21.3017 25.5854 21.2834V21.9137C25.5854 24.3484 27.5661 26.329 30.0008 26.329C32.4355 26.329 34.4161 24.3484 34.4161 21.9137V21.3072C34.5966 21.3365 34.7837 21.3528 34.9771 21.3528C35.3544 21.3528 35.6603 21.047 35.6603 20.6697V20.0476C35.6603 17.8219 34.3687 15.8932 32.4968 14.9695C32.5322 14.7994 32.5501 14.6255 32.5501 14.4492C32.5501 13.0435 31.4066 11.9 30.0009 11.9C28.5951 11.9 27.4516 13.0435 27.4516 14.4493C27.4516 14.6258 27.4698 14.7995 27.5052 14.9694C25.6331 15.8931 24.3414 17.8218 24.3414 20.0475V20.619C24.3414 20.9946 24.6447 21.2998 25.0204 21.3021ZM30.0009 13.2663C30.653 13.2663 31.1838 13.797 31.1838 14.4492C31.1838 14.4707 31.183 14.4921 31.1816 14.5137C30.8007 14.4322 30.406 14.3881 30.0009 14.3881C29.5957 14.3881 29.201 14.4322 28.8201 14.5136C28.8187 14.4921 28.8179 14.4706 28.8179 14.4492C28.8179 13.7971 29.3487 13.2663 30.0009 13.2663ZM33.0499 21.9136C33.0499 23.5948 31.682 24.9626 30.0009 24.9626C28.3197 24.9626 26.9519 23.5948 26.9519 21.9136V21.1452C28.2441 20.9608 30.012 20.5589 31.6935 19.6812C31.9922 20.0168 32.4538 20.4606 33.0499 20.8066L33.0499 21.9136Z" fill="#F07E58" stroke="#F07E58" stroke-width="0.2"/>
</svg>
