<svg width="60" height="60" viewBox="0 0 60 60" fill="none" xmlns="http://www.w3.org/2000/svg">
<circle cx="30" cy="30" r="30" fill="#8CD956" fill-opacity="0.2"/>
<path d="M25.6208 34.1688C24.9235 33.461 24.1402 32.8383 23.2865 32.3165L16.9704 28.4554C16.1347 27.9445 15.625 27.0355 15.625 26.056C15.625 24.851 16.3928 23.7798 17.534 23.3928L18.8422 22.9492" stroke="#689647" stroke-width="1.8" stroke-miterlimit="10" stroke-linecap="round" stroke-linejoin="round"/>
<path d="M43.8308 39.8255H46.3752C46.3752 41.238 45.2302 42.383 43.8177 42.383H38.0321C34.6212 42.383 31.4029 40.9938 29.0757 38.6074" stroke="#689647" stroke-width="1.8" stroke-miterlimit="10" stroke-linecap="round" stroke-linejoin="round"/>
<path d="M35.1778 23.7014C33.333 24.5907 31.0515 24.2703 29.5214 22.7402C28.4825 21.7013 28.0013 20.3158 28.0778 18.9559C28.0978 18.6009 27.9716 18.2533 27.7237 17.9984C27.4695 17.7371 27.1143 17.5952 26.7505 17.6187C23.2174 17.8478 19.7934 20.1137 18.8613 22.9816" stroke="#689647" stroke-width="1.8" stroke-miterlimit="10" stroke-linecap="round" stroke-linejoin="round"/>
<path d="M30.5663 23.5396C31.1723 22.0834 32.5819 21.0633 34.2349 20.9727L37.6674 30.8794C38.239 32.529 39.4559 33.8757 41.0392 34.611L43.893 35.9363C45.4067 36.6392 46.375 38.1565 46.375 39.8255H39.289C35.5041 39.8255 31.9591 37.9723 29.7988 34.8645C28.5102 33.0108 26.9132 31.3917 25.0772 30.0778C22.7939 28.4438 20.8725 26.356 19.4333 23.9452L18.8525 22.9723" stroke="#689647" stroke-width="1.8" stroke-miterlimit="10" stroke-linecap="round" stroke-linejoin="round"/>
<path d="M22.9135 18.6768C24.2715 19.9574 25.0027 21.8592 24.7089 23.8458C24.4701 25.4606 23.5995 26.8256 22.3848 27.7274" stroke="#689647" stroke-width="1.8" stroke-miterlimit="10" stroke-linecap="round" stroke-linejoin="round"/>
<path d="M32.1479 24.1133L34.8324 31.8613C35.1741 32.8473 35.6785 33.7642 36.3139 34.5768C37.7754 36.4459 40.4979 36.7272 42.3176 35.2046" stroke="#689647" stroke-width="1.8" stroke-miterlimit="10" stroke-linecap="round" stroke-linejoin="round"/>
<path d="M33.3452 27.367L36.0336 26.2676" stroke="#689647" stroke-width="1.8" stroke-miterlimit="10" stroke-linecap="round" stroke-linejoin="round"/>
<path d="M34.2114 29.8926L36.8386 28.8154" stroke="#689647" stroke-width="1.8" stroke-miterlimit="10" stroke-linecap="round" stroke-linejoin="round"/>
<path d="M35.2549 32.666L37.7647 31.4248" stroke="#689647" stroke-width="1.8" stroke-miterlimit="10" stroke-linecap="round" stroke-linejoin="round"/>
<path d="M36.8911 35.1209L39.3079 33.5605" stroke="#689647" stroke-width="1.8" stroke-miterlimit="10" stroke-linecap="round" stroke-linejoin="round"/>
<path d="M38.032 42.3828H20.1797" stroke="#689647" stroke-width="1.8" stroke-miterlimit="10" stroke-linecap="round" stroke-linejoin="round"/>
<path d="M17.2344 39.0244H15.625" stroke="#689647" stroke-width="1.8" stroke-miterlimit="10" stroke-linecap="round" stroke-linejoin="round"/>
<path d="M24.7736 39.0244H19.6982" stroke="#689647" stroke-width="1.8" stroke-miterlimit="10" stroke-linecap="round" stroke-linejoin="round"/>
<path d="M21.8689 35.666H15.625" stroke="#689647" stroke-width="1.8" stroke-miterlimit="10" stroke-linecap="round" stroke-linejoin="round"/>
</svg>
