<svg width="60" height="60" viewBox="0 0 60 60" fill="none" xmlns="http://www.w3.org/2000/svg">
<circle cx="30" cy="30" r="30" fill="#FF74FC" fill-opacity="0.2"/>
<path d="M22.7709 16.7306C24.5804 15.6324 26.7041 15 28.9754 15C35.051 15 40.6049 18.3376 40.6049 25.8989L43.426 30.2514C44.0768 31.4325 43.2223 32.8789 41.8738 32.8789H40.978C40.6322 32.8789 40.3518 33.1592 40.3518 33.5051V38.9357C40.3518 40.5131 39.073 41.7919 37.4956 41.7919H35.484C34.7923 41.7919 34.2315 42.3526 34.2315 43.0443V44.4951C34.2315 45.1868 33.6708 45.7476 32.9791 45.7476H24.339C23.6472 45.7476 23.0865 45.1868 23.0865 44.4951V38.448C23.0865 37.827 22.7805 37.2448 22.2664 36.8965C19.0885 34.7433 17 31.1033 17 26.9754C17 24.6636 17.6551 22.5048 18.7897 20.6745" stroke="#E485E1" stroke-width="1.8" stroke-miterlimit="10" stroke-linecap="round" stroke-linejoin="round"/>
<path d="M29.7026 29.0165L29.3227 29.3965L28.9427 29.0165C26.2958 26.3697 26.2958 22.0782 28.9427 19.4314L29.2454 19.1287C29.288 19.086 29.3572 19.086 29.3999 19.1287L29.7026 19.4314C32.3495 22.0783 32.3495 26.3697 29.7026 29.0165Z" stroke="#E485E1" stroke-width="1.8" stroke-miterlimit="10" stroke-linecap="round" stroke-linejoin="round"/>
<path d="M31.7595 23.9387C32.4152 23.3509 33.1777 22.88 34.0135 22.5579C34.7372 22.2793 35.5152 22.1121 36.3286 22.0774C36.5026 22.07 36.646 22.214 36.6385 22.3887C36.5576 24.2845 35.7558 25.9943 34.5 27.25C33.1783 28.5724 31.3531 29.3913 29.3369 29.396" stroke="#E485E1" stroke-width="1.8" stroke-miterlimit="10" stroke-linecap="round" stroke-linejoin="round"/>
<path d="M33.7171 27.9307C34.6866 28.0693 35.6246 28.4826 36.4051 29.1708C36.5415 29.2911 36.5418 29.502 36.4054 29.6223C35.428 30.4844 34.2033 30.9154 32.9789 30.9154C31.6532 30.9154 30.3274 30.4104 29.3153 29.4C29.3141 29.3988 29.3132 29.398 29.312 29.3968C29.3132 29.3956 29.3141 29.3947 29.3153 29.3935" stroke="#E485E1" stroke-width="1.8" stroke-miterlimit="10" stroke-linecap="round" stroke-linejoin="round"/>
<path d="M29.3149 29.3935C29.316 29.3947 29.3169 29.3956 29.3181 29.3968C29.3169 29.398 29.316 29.3988 29.3149 29.4C28.3026 30.4104 26.9769 30.9154 25.6512 30.9154C24.4268 30.9154 23.2021 30.4845 22.2247 29.6223C22.0883 29.502 22.0886 29.2911 22.225 29.1708C23.0053 28.4827 23.9433 28.0692 24.9128 27.9307" stroke="#E485E1" stroke-width="1.8" stroke-miterlimit="10" stroke-linecap="round" stroke-linejoin="round"/>
<path d="M26.8855 23.9516C26.2263 23.3577 25.4585 22.882 24.6165 22.5579C23.8928 22.2793 23.1147 22.1121 22.3013 22.0774C22.1274 22.07 21.984 22.214 21.9915 22.3887C22.0723 24.2845 22.8742 25.9943 24.13 27.25C25.4517 28.5724 27.2769 29.3913 29.2931 29.396" stroke="#E485E1" stroke-width="1.8" stroke-miterlimit="10" stroke-linecap="round" stroke-linejoin="round"/>
</svg>
