<svg width="17" height="10" viewBox="0 0 17 10" fill="none" xmlns="http://www.w3.org/2000/svg">
<path d="M8.46499 9.19998C8.13481 9.19869 7.81577 9.07701 7.57725 8.8572L7.57666 8.85665L1.12252 2.85973L1.11684 2.85445L1.11159 2.84876C0.9007 2.61994 0.788234 2.32272 0.800976 2.01621C0.813714 1.70977 0.950403 1.42216 1.17892 1.20983L1.31358 1.35475L1.17893 1.20983C1.40704 0.997872 1.71016 0.875847 2.027 0.864476C2.34382 0.853105 2.65559 0.95303 2.89991 1.14744L2.9059 1.15221L2.91151 1.15742L8.46565 6.31809L14.0199 1.14755L14.02 1.14743C14.261 0.923497 14.585 0.8 14.9199 0.8C15.2549 0.8 15.5788 0.923497 15.8198 1.14743C16.0613 1.37181 16.2 1.67943 16.2 2.00358C16.2 2.32772 16.0613 2.63534 15.8198 2.85973L9.36565 8.85665L9.36505 8.8572C9.24528 8.96759 9.10401 9.05421 8.9497 9.11278C8.79549 9.1713 8.63082 9.20084 8.46499 9.19998ZM8.46499 9.19998L8.46577 8.99998L8.4647 9.19998C8.4648 9.19998 8.46489 9.19998 8.46499 9.19998Z" fill="#7C7C7C" stroke="#8C8C8C" stroke-width="0.4"/>
</svg>
