<svg width="20" height="20" viewBox="0 0 20 20" fill="none" xmlns="http://www.w3.org/2000/svg">
<g clip-path="url(#clip0_1644_228)">
<path fill-rule="evenodd" clip-rule="evenodd" d="M1.61625 14.1969C0.981874 12.9344 0.625 11.5081 0.625 10C0.625 8.49187 0.981874 7.06563 1.61625 5.80313C3.15687 2.73313 6.33438 0.625 10 0.625C13.6656 0.625 16.8431 2.73313 18.3838 5.80313C19.0181 7.06563 19.375 8.49187 19.375 10C19.375 11.5081 19.0181 12.9344 18.3838 14.1969C16.8431 17.2669 13.6656 19.375 10 19.375C6.33438 19.375 3.15687 17.2669 1.61625 14.1969ZM2.49125 6.89188C2.09438 7.84938 1.875 8.89937 1.875 10C1.875 11.1006 2.09438 12.1506 2.49125 13.1081C3.51188 12.7125 4.715 12.395 6.04312 12.1812C5.97437 11.4825 5.9375 10.7519 5.9375 10C5.9375 9.24813 5.97437 8.5175 6.04312 7.81875C4.715 7.605 3.51188 7.2875 2.49125 6.89188ZM16.9381 5.7725C15.9037 4.07938 14.2675 2.79437 12.3281 2.21437C12.415 2.34937 12.4994 2.4925 12.5806 2.64375C13.1137 3.63938 13.54 4.99937 13.7962 6.58C14.9637 6.39062 16.0269 6.115 16.9381 5.7725ZM7.67188 2.21437C5.7325 2.79437 4.09625 4.07938 3.06188 5.7725C3.97313 6.11562 5.03625 6.39062 6.20375 6.58C6.46 4.99937 6.88625 3.63938 7.41938 2.64375C7.50063 2.4925 7.585 2.34937 7.67188 2.21437ZM17.5088 13.1081C17.9056 12.1506 18.125 11.1006 18.125 10C18.125 8.89937 17.9056 7.84938 17.5088 6.89188C16.4881 7.2875 15.285 7.605 13.9569 7.81875C14.0256 8.5175 14.0625 9.24813 14.0625 10C14.0625 10.7519 14.0256 11.4825 13.9569 12.1812C15.285 12.395 16.4881 12.7125 17.5088 13.1081ZM3.06188 14.2275C4.09625 15.9206 5.7325 17.2056 7.67188 17.7856C7.585 17.6506 7.50063 17.5075 7.41938 17.3562C6.88625 16.3606 6.46 15.0006 6.20375 13.42C5.03625 13.6094 3.97313 13.885 3.06188 14.2275ZM12.3281 17.7856C14.2675 17.2056 15.9037 15.9206 16.9381 14.2275C16.0269 13.885 14.9637 13.6094 13.7962 13.42C13.54 15.0006 13.1137 16.3606 12.5806 17.3562C12.4994 17.5075 12.415 17.6506 12.3281 17.7856ZM10 1.875C9.75937 1.875 9.53437 1.98937 9.31812 2.17312C9.02812 2.41937 8.76313 2.7825 8.52125 3.23438C8.04375 4.12563 7.66875 5.3375 7.44 6.74438C8.25875 6.83 9.11625 6.875 10 6.875C10.8837 6.875 11.7413 6.82938 12.56 6.74438C12.3313 5.3375 11.9562 4.12563 11.4787 3.23438C11.2369 2.7825 10.9719 2.41937 10.6819 2.17312C10.4656 1.98937 10.2406 1.875 10 1.875ZM10 18.125C10.2406 18.125 10.4656 18.0106 10.6819 17.8269C10.9719 17.5806 11.2369 17.2175 11.4787 16.7656C11.9562 15.8744 12.3313 14.6625 12.56 13.2556C11.7413 13.1706 10.8837 13.125 10 13.125C9.11625 13.125 8.25875 13.1706 7.44 13.2556C7.66875 14.6625 8.04375 15.8744 8.52125 16.7656C8.76313 17.2175 9.02812 17.5806 9.31812 17.8269C9.53437 18.0106 9.75937 18.125 10 18.125ZM12.7187 12.0169C12.78 11.3706 12.8125 10.695 12.8125 10C12.8125 9.305 12.78 8.62938 12.7187 7.98313C11.8494 8.07563 10.9381 8.125 10 8.125C9.06188 8.125 8.15063 8.07563 7.28125 7.98313C7.22 8.62938 7.1875 9.305 7.1875 10C7.1875 10.695 7.22 11.3706 7.28125 12.0169C8.15063 11.9244 9.06188 11.875 10 11.875C10.9381 11.875 11.8494 11.9244 12.7187 12.0169Z" fill="black"/>
</g>
<defs>
<clipPath id="clip0_1644_228">
<rect width="20" height="20" fill="white"/>
</clipPath>
</defs>
</svg>
