<svg width="38" height="38" viewBox="0 0 38 38" fill="none" xmlns="http://www.w3.org/2000/svg">
<path d="M35.8283 9.70447H2.1709C0.973602 9.70447 0 10.6789 0 11.8762V26.1242C0 27.3215 0.973602 28.2954 2.1709 28.2954H35.8283C37.0256 28.2954 38 27.3215 38 26.1242V11.8762C38 10.6789 37.0256 9.70447 35.8283 9.70447Z" fill="#E6B91E"/>
<path fill-rule="evenodd" clip-rule="evenodd" d="M5.47131 13.6417H8.28339V24.4846H5.47131V13.6417Z" fill="#010101"/>
<path fill-rule="evenodd" clip-rule="evenodd" d="M14.2853 13.6417L13.6337 18.7085L13.234 15.9545C13.1133 15.0715 13.003 14.2988 12.8927 13.6416H9.245V24.4845H11.7098L11.7206 17.3263L12.756 24.4845H14.5115L15.4995 17.1687L15.5047 24.4845H17.9639V13.6417H14.2853Z" fill="#010101"/>
<path fill-rule="evenodd" clip-rule="evenodd" d="M22.3369 24.4846C23.0097 24.4846 23.5141 24.4477 23.851 24.3743C24.1814 24.3009 24.4657 24.1747 24.6915 23.9853C24.9176 23.8009 25.0808 23.5439 25.1698 23.2178C25.2644 22.8922 25.317 22.2407 25.317 21.2683V17.463C25.317 16.4381 25.2749 15.7496 25.2172 15.3976C25.1542 15.0507 24.9967 14.73 24.744 14.4464C24.497 14.1622 24.1293 13.9573 23.6509 13.8318C23.1726 13.7054 22.3842 13.6417 21.0229 13.6417H18.9258V24.4846H22.3369ZM22.3634 15.5973C22.4732 15.6602 22.5474 15.7605 22.5791 15.902C22.6104 16.0387 22.6265 16.3539 22.6265 16.8427V21.0418C22.6265 21.7676 22.5791 22.2091 22.4841 22.3723C22.3899 22.5351 22.1429 22.6136 21.7379 22.6136V15.4978C22.0426 15.4978 22.2526 15.5291 22.3634 15.5973Z" fill="#010101"/>
<path fill-rule="evenodd" clip-rule="evenodd" d="M26.2733 13.6417V24.4846H28.8071L28.9855 23.7962C29.2113 24.0748 29.4638 24.2793 29.7422 24.4217C30.6611 24.8705 32.2213 24.5614 32.5178 23.4489C32.6072 23.1289 32.6493 22.6453 32.6493 21.9985V18.9559C32.6493 18.2992 32.6385 17.873 32.6072 17.6737C32.5291 17.176 32.1807 16.7636 31.7239 16.5693C31.1424 16.3221 30.3124 16.3194 29.737 16.591C29.4639 16.7169 29.2113 16.9114 28.9855 17.1688V13.6418L26.2733 13.6417ZM29.9371 21.857C29.9371 22.3775 29.9106 22.7135 29.8581 22.8502C29.8055 22.9869 29.5794 23.0546 29.4058 23.0546C29.2382 23.0546 29.1271 22.9921 29.0698 22.8557C29.0173 22.7242 28.9856 22.4195 28.9856 21.9411V19.0765C28.9856 18.5821 29.0116 18.2773 29.0593 18.1511C29.1119 18.0304 29.2221 17.9675 29.3849 17.9675C29.5582 17.9675 29.7891 18.0412 29.8477 18.1779C29.9054 18.3195 29.9371 18.6194 29.9371 19.0766V21.857H29.9371Z" fill="#010101"/>
</svg>
