<svg width="30" height="30" viewBox="0 0 30 30" fill="none" xmlns="http://www.w3.org/2000/svg">
<g clip-path="url(#clip0_1644_30)">
<path d="M21.0628 0H8.93716C4.00919 0 0 4.00919 0 8.93716V21.0628C0 25.9908 4.00919 30 8.93716 30H21.0628C25.9908 30 30 25.9908 30 21.0628V8.93716C29.9999 4.00919 25.9908 0 21.0628 0ZM26.982 21.0628C26.982 24.3319 24.3319 26.982 21.0628 26.982H8.93716C5.66813 26.982 3.018 24.3319 3.018 21.0628V8.93716C3.018 5.66807 5.66813 3.018 8.93716 3.018H21.0628C24.3319 3.018 26.982 5.66807 26.982 8.93716V21.0628Z" fill="url(#paint0_linear_1644_30)"/>
<path d="M15 7.24094C10.7217 7.24094 7.24097 10.7216 7.24097 14.9999C7.24097 19.2783 10.7217 22.759 15 22.759C19.2784 22.759 22.7591 19.2783 22.7591 14.9999C22.7591 10.7216 19.2784 7.24094 15 7.24094ZM15 19.7411C12.3816 19.7411 10.259 17.6184 10.259 15C10.259 12.3816 12.3816 10.2589 15 10.2589C17.6185 10.2589 19.7411 12.3816 19.7411 15C19.7411 17.6184 17.6184 19.7411 15 19.7411Z" fill="url(#paint1_linear_1644_30)"/>
<path d="M22.7741 9.15841C23.801 9.15841 24.6334 8.326 24.6334 7.29917C24.6334 6.27235 23.801 5.43994 22.7741 5.43994C21.7473 5.43994 20.9149 6.27235 20.9149 7.29917C20.9149 8.326 21.7473 9.15841 22.7741 9.15841Z" fill="url(#paint2_linear_1644_30)"/>
</g>
<defs>
<linearGradient id="paint0_linear_1644_30" x1="15" y1="29.9127" x2="15" y2="0.233015" gradientUnits="userSpaceOnUse">
<stop stop-color="#E09B3D"/>
<stop offset="0.3" stop-color="#C74C4D"/>
<stop offset="0.6" stop-color="#C21975"/>
<stop offset="1" stop-color="#7024C4"/>
</linearGradient>
<linearGradient id="paint1_linear_1644_30" x1="15" y1="29.9127" x2="15" y2="0.23302" gradientUnits="userSpaceOnUse">
<stop stop-color="#E09B3D"/>
<stop offset="0.3" stop-color="#C74C4D"/>
<stop offset="0.6" stop-color="#C21975"/>
<stop offset="1" stop-color="#7024C4"/>
</linearGradient>
<linearGradient id="paint2_linear_1644_30" x1="22.7741" y1="29.9127" x2="22.7741" y2="0.233004" gradientUnits="userSpaceOnUse">
<stop stop-color="#E09B3D"/>
<stop offset="0.3" stop-color="#C74C4D"/>
<stop offset="0.6" stop-color="#C21975"/>
<stop offset="1" stop-color="#7024C4"/>
</linearGradient>
<clipPath id="clip0_1644_30">
<rect width="30" height="30" fill="white"/>
</clipPath>
</defs>
</svg>
