<svg width="24" height="24" viewBox="0 0 24 24" fill="none" xmlns="http://www.w3.org/2000/svg">
<path d="M9.94975 18.2926L7.12177 21.1206C5.94935 22.2931 4.0507 22.2931 2.87926 21.1209C1.70759 19.9492 1.70759 18.0504 2.87902 16.8789L8.53597 11.222C9.70741 10.0505 11.6063 10.0505 12.7777 11.222C13.1682 11.6125 13.8014 11.6125 14.1919 11.222C14.5824 10.8315 14.5824 10.1983 14.1919 9.80777C12.2394 7.85526 9.07428 7.85526 7.12177 9.80777L1.46487 15.4647C-0.487639 17.4172 -0.487639 20.5823 1.46487 22.5348C3.41714 24.4884 6.58248 24.4884 8.53602 22.5348L11.364 19.7069C11.7545 19.3163 11.7545 18.6832 11.364 18.2926C10.9735 17.9021 10.3403 17.9021 9.94975 18.2926Z" fill="black"/>
<path d="M22.5351 8.53489C24.4876 6.58239 24.4876 3.41728 22.5351 1.46477C20.5827 -0.487689 17.4177 -0.487689 15.4642 1.46454L12.071 4.85773C11.6805 5.24824 11.6805 5.88142 12.071 6.27193C12.4615 6.66245 13.0947 6.66245 13.4852 6.27193L16.8782 2.87897C18.0504 1.70749 19.9494 1.70749 21.1209 2.87897C22.2924 4.05041 22.2924 5.94925 21.1209 7.12069L14.899 13.3426C13.7275 14.5141 11.8287 14.5141 10.6573 13.3426C10.2668 12.9521 9.63359 12.9521 9.24308 13.3426C8.85257 13.7331 8.85257 14.3663 9.24308 14.7568C11.1956 16.7093 14.3607 16.7093 16.3132 14.7568L22.5351 8.53489Z" fill="black"/>
<path d="M18.7075 17.2932C18.3169 16.9027 17.6838 16.9027 17.2932 17.2932C16.9027 17.6837 16.9027 18.3169 17.2932 18.7074L20.2922 21.7064C20.6827 22.0969 21.3159 22.0969 21.7064 21.7064C22.0969 21.3159 22.0969 20.6827 21.7064 20.2922L18.7075 17.2932Z" fill="black"/>
<path d="M5.29425 6.70833C5.68476 7.09885 6.31794 7.09885 6.70846 6.70833C7.09897 6.31782 7.09897 5.68464 6.70846 5.29413L3.70648 2.29215C3.31596 1.90164 2.68278 1.90164 2.29227 2.29215C1.90176 2.68266 1.90176 3.31584 2.29227 3.70635L5.29425 6.70833Z" fill="black"/>
<path d="M22.9998 14.9998H19.9999C19.4476 14.9998 18.9999 15.4475 18.9999 15.9998C18.9999 16.5521 19.4476 16.9998 19.9999 16.9998H22.9998C23.5521 16.9998 23.9998 16.5521 23.9998 15.9998C23.9998 15.4475 23.5521 14.9998 22.9998 14.9998Z" fill="black"/>
<path d="M7.99997 4.99996C8.55225 4.99996 8.99995 4.55226 8.99995 3.99998V1.00002C8.99995 0.447698 8.55225 0 7.99997 0C7.4477 0 7 0.447698 7 0.999973V3.99994C6.99995 4.55221 7.4477 4.99996 7.99997 4.99996Z" fill="black"/>
<path d="M1.00009 8.99988H4.00006C4.55233 8.99988 5.00003 8.55219 5.00003 7.99991C5.00003 7.44764 4.55233 6.99994 4.00006 6.99994H1.00009C0.44782 6.99994 0.00012207 7.44764 0.00012207 7.99991C0.00012207 8.55219 0.44782 8.99988 1.00009 8.99988Z" fill="black"/>
<path d="M15.9999 18.9998C15.4476 18.9998 14.9999 19.4475 14.9999 19.9997V22.9997C14.9999 23.552 15.4476 23.9997 15.9999 23.9997C16.5521 23.9997 16.9998 23.552 16.9998 22.9997V19.9997C16.9999 19.4475 16.5521 18.9998 15.9999 18.9998Z" fill="black"/>
</svg>
