<svg width="20" height="20" viewBox="0 0 20 20" fill="none" xmlns="http://www.w3.org/2000/svg">
<g clip-path="url(#clip0_1644_233)">
<path d="M15.5405 11.8254C15.5373 11.8222 15.5342 11.819 15.531 11.8158C15.5296 11.8144 15.5279 11.8127 15.5263 11.8112L14.4063 10.6912C14.0915 10.3763 13.6729 10.2029 13.2277 10.2029C12.7852 10.2029 12.3688 10.3743 12.0546 10.6856C12.0523 10.6877 12.0502 10.69 12.0479 10.6921L11.4526 11.2875L8.71139 8.54614L9.30648 7.9509C9.30877 7.94876 9.3109 7.94647 9.31304 7.94434C9.95742 7.29401 9.95574 6.24069 9.30755 5.5925L8.18923 4.47403C8.18709 4.47189 8.18511 4.46991 8.18313 4.46793C7.86834 4.15375 7.45009 3.98071 7.00545 3.98071C6.56219 3.98071 6.14532 4.15268 5.83098 4.46472C5.82671 4.46899 5.82244 4.47327 5.81832 4.47769L5.30471 4.99115C5.03448 5.26138 4.82711 5.46875 4.81902 5.47699C4.02587 6.26999 3.84048 7.53418 4.29702 9.03671C4.71511 10.4129 5.63506 11.8605 6.8872 13.1128C8.63524 14.8608 10.7761 15.9467 12.4739 15.9467C13.3136 15.9467 14.0224 15.6819 14.5207 15.1834C14.5311 15.1732 14.8178 14.8865 15.1582 14.5461L15.531 14.1733C15.5316 14.1727 15.5322 14.1721 15.533 14.1713C16.1734 13.5287 16.1795 12.4867 15.5504 11.8364C15.5472 11.8326 15.5437 11.8288 15.5405 11.8254ZM14.7066 13.3403C14.7031 13.3438 14.6995 13.3473 14.696 13.351L14.3297 13.7173C13.995 14.052 13.7125 14.3346 13.6943 14.3526C13.4141 14.6327 13.0035 14.7748 12.4739 14.7748C11.0965 14.7748 9.22896 13.7971 7.7159 12.2842C6.59728 11.1656 5.78139 9.89136 5.41823 8.69598C5.0981 7.64267 5.18172 6.77139 5.64803 6.30508L6.13326 5.81985L6.65496 5.29816C6.65694 5.29617 6.65877 5.29434 6.6606 5.29236C6.75353 5.20218 6.8756 5.15259 7.00545 5.15259C7.13592 5.15259 7.25875 5.20279 7.35198 5.29404C7.3532 5.29541 7.35457 5.29678 7.3561 5.29816L8.47884 6.42105C8.67187 6.61407 8.67187 6.9281 8.47884 7.12112C8.47854 7.12143 8.47823 7.12189 8.47777 7.12219V7.12234L7.46825 8.13187C7.23952 8.36075 7.23952 8.73169 7.46825 8.96057L11.0384 12.5305C11.1482 12.6405 11.2973 12.7022 11.4526 12.7022C11.6081 12.7022 11.7572 12.6404 11.8671 12.5305L12.8702 11.5271C12.8738 11.5237 12.8773 11.5201 12.8808 11.5166C12.9741 11.4252 13.0971 11.3748 13.2277 11.3748C13.3598 11.3748 13.484 11.4264 13.5776 11.5198L14.6974 12.6395L14.6999 12.6421C14.7011 12.6433 14.7023 12.6445 14.7034 12.6457C14.8938 12.8372 14.8947 13.1474 14.7066 13.3403Z" fill="black"/>
<path d="M17.0711 2.92892C15.1823 1.04019 12.6712 0 10 0C7.3288 0 4.81766 1.04019 2.92892 2.92892C1.04019 4.81781 0 7.32895 0 10C0 12.6711 1.04019 15.1823 2.92892 17.0711C4.81766 18.9598 7.32895 20 10 20C12.6711 20 15.1822 18.9598 17.0711 17.0711C18.9598 15.1823 20 12.6712 20 10C20 7.32895 18.9598 4.81781 17.0711 2.92892ZM10 18.8281C5.13214 18.8281 1.17188 14.8677 1.17188 10C1.17188 5.13229 5.13214 1.17203 10 1.17188C14.8679 1.17203 18.8281 5.13229 18.8281 10C18.828 14.8679 14.8677 18.8281 10 18.8281Z" fill="black"/>
</g>
<defs>
<clipPath id="clip0_1644_233">
<rect width="20" height="20" fill="white"/>
</clipPath>
</defs>
</svg>
