<svg width="83" height="15" viewBox="0 0 83 15" fill="none" xmlns="http://www.w3.org/2000/svg">
<path opacity="0.774926" fill-rule="evenodd" clip-rule="evenodd" d="M5.61014 2.08066C5.00385 2.69585 4.64186 3.46408 4.64186 4.40168C4.64186 4.48621 4.58035 4.55637 4.49965 4.56984C4.47193 4.58933 4.43815 4.60076 4.4017 4.60076C3.46409 4.60076 2.69587 4.96275 2.08067 5.56904C1.8643 5.78227 1.68285 6.01102 1.53537 6.23949C1.48398 6.31911 1.4406 6.39278 1.4051 6.45852C1.38432 6.497 1.37108 6.5236 1.36522 6.53631C1.15604 6.99738 0.930493 7.3259 0.683764 7.51369C0.930492 7.70148 1.15604 8.02999 1.36522 8.49106C1.37107 8.50377 1.38431 8.53037 1.40509 8.56885C1.4406 8.63459 1.48397 8.70826 1.53537 8.78788C1.68285 9.01635 1.8643 9.2451 2.08067 9.45833C2.69587 10.0646 3.46409 10.4266 4.4017 10.4266C4.40875 10.4266 4.41569 10.427 4.42252 10.4279C4.42321 10.4279 4.42391 10.4279 4.42461 10.4279C4.51877 10.4279 4.59511 10.5042 4.59511 10.5984C4.59511 11.536 4.9571 12.3042 5.56338 12.9194C5.77662 13.1357 6.00537 13.3172 6.23384 13.4647C6.31346 13.5161 6.38714 13.5594 6.45288 13.5949C6.49135 13.6157 6.51795 13.629 6.53066 13.6348C6.99216 13.8442 7.32085 14.07 7.50856 14.3169C7.69626 14.07 8.02496 13.8442 8.48646 13.6348C8.49917 13.629 8.52576 13.6157 8.56424 13.5949C8.62998 13.5594 8.70366 13.5161 8.78328 13.4647C9.01175 13.3172 9.2405 13.1357 9.45373 12.9194C10.06 12.3042 10.422 11.536 10.422 10.5984C10.422 10.5412 10.4501 10.4906 10.4933 10.4597C10.522 10.4377 10.5579 10.4246 10.5969 10.4246C11.5345 10.4246 12.3027 10.0626 12.9179 9.45635C13.1343 9.24312 13.3157 9.01437 13.4632 8.7859C13.5146 8.70629 13.558 8.63261 13.5935 8.56687C13.6142 8.52839 13.6275 8.50179 13.6333 8.48908C13.8527 8.00563 14.09 7.66792 14.3509 7.48536C14.09 7.3028 13.8527 6.96508 13.6333 6.48162C13.6275 6.46891 13.6142 6.44232 13.5934 6.40384C13.5579 6.3381 13.5146 6.26442 13.4632 6.1848C13.3157 5.95633 13.1342 5.72758 12.9179 5.51435C12.3422 4.94699 11.6325 4.59356 10.7753 4.55052C10.7507 4.56431 10.7223 4.57218 10.6921 4.57218C10.6588 4.57218 10.6277 4.56261 10.6014 4.54608L10.5968 4.54608C10.5027 4.54608 10.4263 4.46974 10.4263 4.37558C10.4263 4.31016 10.4632 4.25335 10.5172 4.22476C10.4746 3.36694 10.121 2.65671 9.55334 2.08066C9.3401 1.86429 9.11135 1.68284 8.88288 1.53536C8.80326 1.48397 8.72958 1.44059 8.66384 1.40509C8.62537 1.38431 8.59877 1.37107 8.58606 1.36521C8.10208 1.14564 7.76416 0.908041 7.58174 0.646837C7.39931 0.908041 7.06139 1.14564 6.57741 1.36521C6.5647 1.37107 6.53811 1.38431 6.49963 1.40509C6.43389 1.44059 6.36021 1.48397 6.28059 1.53536C6.05212 1.68284 5.82337 1.86429 5.61014 2.08066ZM4.25762 10.765C4.29838 11.7243 4.6912 12.5202 5.32051 13.1587C5.55236 13.394 5.80049 13.5908 6.0489 13.7512C6.1991 13.8481 6.31737 13.912 6.38884 13.9449C6.94955 14.1993 7.25687 14.4576 7.33346 14.7058C7.32682 14.7465 7.32348 14.7877 7.32348 14.8295C7.32348 14.9237 7.39982 15 7.49398 15C7.49889 15 7.50375 14.9998 7.50856 14.9994C7.51336 14.9998 7.51822 15 7.52313 15C7.6173 15 7.69363 14.9237 7.69363 14.8295C7.69363 14.7877 7.6903 14.7465 7.68366 14.7058C7.76025 14.4576 8.06756 14.1993 8.62827 13.9449C8.69975 13.912 8.81802 13.8481 8.96822 13.7512C9.21663 13.5908 9.46475 13.394 9.69661 13.1587C10.3265 12.5196 10.7195 11.7228 10.7596 10.7623C11.7207 10.7224 12.5178 10.3294 13.1573 9.69923C13.3925 9.46738 13.5893 9.21925 13.7497 8.97084C13.8466 8.82064 13.9105 8.70237 13.9435 8.6309C14.2404 7.97635 14.5427 7.66711 14.8281 7.66711C14.9222 7.66711 14.9986 7.59078 14.9986 7.49661C14.9986 7.49277 14.9984 7.48897 14.9982 7.48519C14.9984 7.48152 14.9985 7.47782 14.9985 7.47409C14.9985 7.37993 14.9222 7.30359 14.828 7.30359C14.5427 7.30359 14.2404 6.99435 13.9434 6.33981C13.9105 6.26833 13.8466 6.15006 13.7497 5.99986C13.5893 5.75145 13.3925 5.50333 13.1572 5.27147C12.5398 4.66299 11.7753 4.27559 10.8581 4.21379C10.8125 3.26396 10.4209 2.47513 9.79621 1.8413C9.56436 1.60604 9.31623 1.40923 9.06782 1.24887C8.91762 1.15191 8.79935 1.08804 8.72788 1.0551C8.07333 0.75815 7.76409 0.455878 7.76409 0.170499C7.76409 0.0763351 7.68775 0 7.59359 0C7.5896 0 7.58565 0.000136543 7.58174 0.000405203C7.57782 0.000136543 7.57387 0 7.56989 0C7.47573 0 7.39939 0.0763351 7.39939 0.170499C7.39939 0.455878 7.09015 0.75815 6.4356 1.0551C6.36413 1.08804 6.24585 1.15191 6.09565 1.24887C5.84724 1.40923 5.59912 1.60604 5.36726 1.8413C4.7323 2.4856 4.33808 3.29006 4.30336 4.26098C3.31345 4.2856 2.49496 4.68199 1.84131 5.32616C1.60605 5.55801 1.40923 5.80614 1.24888 6.05455C1.15192 6.20475 1.08805 6.32302 1.05511 6.39449C0.801466 6.95357 0.543943 7.26073 0.29638 7.33843C0.254984 7.33155 0.21303 7.32809 0.1705 7.32809C0.0763354 7.32809 0 7.40443 0 7.49859C0 7.50368 0.000222683 7.50872 0.000659466 7.51369C0.000223637 7.51866 1.43051e-06 7.52369 1.43051e-06 7.52878C1.43051e-06 7.62294 0.0763369 7.69928 0.170502 7.69928C0.213031 7.69928 0.254984 7.69582 0.29638 7.68894C0.543942 7.76665 0.801465 8.0738 1.0551 8.63288C1.08805 8.70435 1.15192 8.82262 1.24888 8.97282C1.40923 9.22123 1.60605 9.46936 1.84131 9.70121C2.48486 10.3354 3.28821 10.7295 4.25762 10.765Z" fill="#93969F"/>
<path opacity="0.452172" fill-rule="evenodd" clip-rule="evenodd" d="M12.1892 7.58409C12.8816 6.86379 13.1841 5.99933 13.1908 5.07543C13.1933 4.74513 13.157 4.43052 13.0947 4.14148C13.0571 3.96671 13.0186 3.83791 12.9914 3.76408C12.7385 3.09127 12.7336 2.65887 12.9354 2.45708C13.0019 2.39049 13.0019 2.28254 12.9354 2.21595C12.9329 2.21352 12.9304 2.21117 12.9279 2.20891C12.925 2.20551 12.9219 2.20219 12.9187 2.19896C12.8521 2.13238 12.7441 2.13238 12.6776 2.19896C12.4758 2.40076 12.0434 2.39583 11.3706 2.14297C11.2967 2.11572 11.1679 2.07726 10.9932 2.03961C10.7041 1.97735 10.3895 1.94106 10.0592 1.94347C9.13612 1.95021 8.27238 2.25215 7.55247 2.94324C6.84129 2.28099 5.99355 1.99079 5.0888 1.98419C4.7585 1.98178 4.44388 2.01806 4.15484 2.08033C3.98007 2.11798 3.85128 2.15644 3.77745 2.18369C3.10464 2.43655 2.67223 2.44148 2.47043 2.23968C2.40385 2.1731 2.29589 2.1731 2.22931 2.23968C2.22651 2.24248 2.22382 2.24536 2.22125 2.2483C2.21831 2.25087 2.21544 2.25355 2.21264 2.25636C2.14605 2.32294 2.14605 2.43089 2.21264 2.49748C2.41443 2.69927 2.4095 3.13168 2.15664 3.80448C2.1294 3.87832 2.09093 4.00711 2.05328 4.18188C1.99102 4.47092 1.95473 4.78554 1.95714 5.11584C1.96376 6.02173 2.25468 6.87048 2.91874 7.58221C2.28472 8.28434 2.00607 9.11599 1.9996 10.0023C1.99719 10.3326 2.03347 10.6473 2.09574 10.9363C2.13339 11.1111 2.17185 11.2399 2.1991 11.3137C2.41552 11.8895 2.45032 12.2893 2.32933 12.5191C2.29571 12.5432 2.26407 12.5701 2.23441 12.5998C2.16783 12.6663 2.16783 12.7743 2.23441 12.8409C2.23766 12.8441 2.24101 12.8472 2.24444 12.8502C2.24778 12.8542 2.25133 12.8581 2.25509 12.8618C2.32168 12.9284 2.42963 12.9284 2.49621 12.8618C2.52593 12.8321 2.55287 12.8004 2.57705 12.7667C2.80681 12.6456 3.20659 12.6804 3.78255 12.8969C3.85638 12.9241 3.98518 12.9626 4.15995 13.0002C4.44899 13.0625 4.7636 13.0988 5.09391 13.0964C5.99744 13.0898 6.84412 12.8004 7.55472 12.14C8.26179 12.7892 9.10216 13.0741 9.99848 13.0806C10.3288 13.083 10.6434 13.0468 10.9324 12.9845C11.1072 12.9468 11.236 12.9084 11.3098 12.8811C11.8855 12.6648 12.2851 12.6299 12.5149 12.7508C12.5392 12.7845 12.5661 12.8163 12.5959 12.8461C12.6625 12.9127 12.7705 12.9127 12.837 12.8461C12.8406 12.8425 12.8439 12.8389 12.8471 12.8351C12.8508 12.832 12.8545 12.8287 12.858 12.8251C12.9246 12.7586 12.9246 12.6506 12.858 12.584C12.8282 12.5542 12.7964 12.5273 12.7627 12.503C12.6418 12.2732 12.6767 11.8736 12.893 11.2979C12.9203 11.2241 12.9588 11.0953 12.9964 10.9205C13.0587 10.6315 13.0949 10.3169 13.0925 9.98659C13.0861 9.10764 12.8121 8.28249 12.1892 7.58409ZM10.0617 2.28446C9.19796 2.29077 8.39877 2.57802 7.73579 3.241C7.71053 3.26625 7.67933 3.28193 7.64668 3.28803C7.57974 3.34823 7.47662 3.34613 7.41221 3.28172C6.74922 2.61873 5.95004 2.33148 5.08632 2.32518C4.78254 2.32296 4.49249 2.35641 4.22665 2.41368C4.13401 2.43364 4.05124 2.45506 3.97965 2.47644C3.93775 2.48896 3.90958 2.4984 3.89645 2.50325C3.39902 2.69019 2.9921 2.76113 2.67842 2.70546C2.73409 3.01914 2.66315 3.42606 2.4762 3.92349C2.47136 3.93662 2.46191 3.96478 2.4494 4.00669C2.42802 4.07827 2.40659 4.16105 2.38664 4.25369C2.32937 4.51952 2.29592 4.80958 2.29814 5.11335C2.30429 5.95606 2.57788 6.73732 3.20696 7.3906C3.23999 7.39655 3.2716 7.41229 3.29713 7.43783C3.36372 7.50441 3.36372 7.61236 3.29713 7.67895C2.63415 8.34193 2.34689 9.14111 2.34059 10.0048C2.33837 10.3086 2.37183 10.5987 2.42909 10.8645C2.44905 10.9571 2.47047 11.0399 2.49186 11.1115C2.50437 11.1534 2.51381 11.1816 2.51866 11.1947C2.69688 11.6689 2.76967 12.0608 2.72784 12.3682C3.03521 12.3263 3.42723 12.3991 3.90155 12.5773C3.91468 12.5822 3.94285 12.5916 3.98475 12.6041C4.05634 12.6255 4.13911 12.6469 4.23176 12.6669C4.49759 12.7242 4.78765 12.7576 5.09142 12.7554C5.95514 12.7491 6.75433 12.4618 7.41731 11.7988C7.42118 11.795 7.42518 11.7913 7.4293 11.7879C7.43081 11.7863 7.43236 11.7847 7.43395 11.7831C7.50054 11.7165 7.60849 11.7165 7.67508 11.7831C8.33806 12.4461 9.13725 12.7333 10.001 12.7396C10.3047 12.7419 10.5948 12.7084 10.8606 12.6511C10.9533 12.6312 11.036 12.6098 11.1076 12.5884C11.1495 12.5759 11.1777 12.5664 11.1908 12.5616C11.665 12.3834 12.057 12.3106 12.3643 12.3524C12.3225 12.0451 12.3953 11.6531 12.5735 11.1789C12.5783 11.1658 12.5878 11.1376 12.6003 11.0957C12.6217 11.0242 12.6431 10.9414 12.663 10.8487C12.7203 10.5829 12.7538 10.2928 12.7515 9.98908C12.7452 9.12536 12.458 8.32618 11.795 7.6632C11.7284 7.59661 11.7284 7.48866 11.795 7.42207C11.8293 7.38773 11.8747 7.3711 11.9197 7.37218C12.5639 6.71448 12.8436 5.92513 12.8499 5.07294C12.8521 4.76917 12.8186 4.47912 12.7614 4.21329C12.7414 4.12064 12.72 4.03787 12.6986 3.96628C12.6861 3.92438 12.6766 3.89621 12.6718 3.88309C12.4848 3.38549 12.4139 2.97845 12.4696 2.66473C12.1559 2.72042 11.749 2.64949 11.2515 2.46253C11.2384 2.45768 11.2103 2.44824 11.1683 2.43573C11.0968 2.41434 11.014 2.39292 10.9213 2.37296C10.6555 2.3157 10.3655 2.28225 10.0617 2.28446Z" fill="black" fill-opacity="0.55"/>
<path fill-rule="evenodd" clip-rule="evenodd" d="M4.89653 6.08851C5.05186 6.39986 5.46824 6.81772 6.1424 7.32899C6.18084 7.33717 6.21666 7.35861 6.24238 7.3923C6.29951 7.46716 6.28514 7.57415 6.21029 7.63128C5.46613 8.19925 5.00462 8.66076 4.82934 9.00274C4.73888 9.17925 4.70416 9.39305 4.67879 9.81333C4.66146 10.1005 4.64521 10.3036 4.61778 10.4576C4.77172 10.4303 4.97455 10.4141 5.26104 10.3968C5.68133 10.3714 5.89513 10.3367 6.07164 10.2462C6.38428 10.086 6.79683 9.68653 7.29929 9.05057C7.29975 8.99947 7.32309 8.94914 7.36701 8.91595C7.38534 8.90211 7.40555 8.89253 7.42647 8.88704L7.4431 8.8653C7.50023 8.79044 7.60722 8.77608 7.68208 8.83321C7.75693 8.89034 7.7713 8.99733 7.71417 9.07219L7.70709 9.08146C8.17917 9.68951 8.56751 10.0682 8.86112 10.2146C9.02225 10.295 9.22093 10.3237 9.61239 10.3402C9.90352 10.3525 10.1028 10.3652 10.2515 10.3923C10.2244 10.2435 10.2117 10.044 10.1994 9.75254C10.1829 9.36109 10.1542 9.1624 10.0738 9.00128C9.91698 8.68693 9.49405 8.26401 8.80838 7.74599C8.73325 7.68923 8.71836 7.58231 8.77512 7.50718C8.79961 7.47476 8.83344 7.45355 8.87003 7.44448C9.59746 6.88652 10.0494 6.43245 10.2224 6.09487C10.3129 5.91836 10.3476 5.70456 10.373 5.28427C10.3902 4.99836 10.4064 4.79578 10.4337 4.64195C10.2797 4.66927 10.0769 4.68548 9.79047 4.70277C9.37018 4.72814 9.15638 4.76286 8.97987 4.85332C8.64951 5.02264 8.20762 5.45905 7.66597 6.15934C7.68164 6.22345 7.6591 6.29364 7.6031 6.33595C7.52796 6.39271 7.42104 6.37782 7.36428 6.30269C6.84626 5.61702 6.42333 5.19409 6.10899 5.03726C5.94786 4.95688 5.74918 4.92817 5.35772 4.91168C5.08133 4.90004 4.88768 4.888 4.74154 4.86364C4.75433 4.9886 4.76274 5.14235 4.77095 5.33725C4.78743 5.7287 4.81614 5.92739 4.89653 6.08851ZM10.6461 4.18782C10.5256 4.29717 10.3396 4.328 9.76992 4.36239C9.30226 4.39062 9.05748 4.43037 8.82434 4.54986C8.45292 4.74022 8.00164 5.17894 7.45995 5.86893C6.99052 5.27635 6.59412 4.89821 6.26122 4.73213C6.04194 4.62274 5.81204 4.58952 5.37207 4.57099C4.96989 4.55405 4.7735 4.53513 4.65558 4.4846C4.62163 4.41108 4.57656 4.35101 4.51548 4.28993C4.4489 4.22335 4.34094 4.22335 4.27436 4.28993C4.21237 4.35191 4.20809 4.44975 4.26151 4.51668C4.25597 4.5664 4.27227 4.61809 4.3104 4.65622C4.32987 4.67569 4.34924 4.69354 4.36898 4.70991C4.40137 4.83325 4.41647 5.02426 4.43025 5.3516C4.44878 5.79156 4.482 6.02147 4.59139 6.24074C4.76538 6.58948 5.17209 7.00791 5.81426 7.50699C5.14194 8.03795 4.7134 8.48133 4.52588 8.84721C4.40639 9.08035 4.36664 9.32513 4.33841 9.79278C4.30264 10.3853 4.27072 10.5627 4.15031 10.6832C4.12677 10.7067 4.11155 10.7354 4.10466 10.7656C4.09163 10.8212 4.10677 10.882 4.15008 10.9253C4.21666 10.9919 4.32462 10.9919 4.3912 10.9253C4.51162 10.8049 4.68905 10.7729 5.28159 10.7372C5.74924 10.7089 5.99403 10.6692 6.22717 10.5497C6.57521 10.3713 6.99339 9.97485 7.49036 9.35791C7.96846 9.9649 8.37133 10.3514 8.70889 10.5198C8.92817 10.6292 9.15807 10.6624 9.59804 10.6809C10.1472 10.704 10.3127 10.7309 10.4186 10.8368C10.4852 10.9034 10.5931 10.9034 10.6597 10.8368C10.6663 10.8302 10.6723 10.8232 10.6776 10.8158C10.684 10.811 10.6901 10.8057 10.696 10.7999C10.7626 10.7333 10.7626 10.6253 10.696 10.5587C10.59 10.4528 10.5632 10.2873 10.5401 9.7382C10.5216 9.29823 10.4883 9.06832 10.3789 8.84905C10.2091 8.50868 9.81764 8.10194 9.20193 7.61861C9.89474 7.07522 10.3351 6.62269 10.5259 6.2504C10.6454 6.01725 10.6851 5.77248 10.7134 5.30482C10.7477 4.73557 10.7785 4.54944 10.8877 4.42892C10.8923 4.4245 10.8968 4.42 10.9014 4.41541C10.9333 4.38355 10.9499 4.34223 10.9513 4.3005C10.953 4.25468 10.9364 4.20829 10.9015 4.17332C10.8349 4.10673 10.7269 4.10673 10.6603 4.17332C10.6555 4.17815 10.6508 4.18298 10.6461 4.18782Z" fill="#D37760"/>
<path fill-rule="evenodd" clip-rule="evenodd" d="M6.67766 4.66681C6.5673 4.99692 6.56628 5.58713 6.68159 6.42585C6.70283 6.45875 6.71291 6.49909 6.70729 6.54095C6.69476 6.63428 6.60894 6.69978 6.51561 6.68724C5.5878 6.56266 4.93513 6.56266 4.56937 6.68054C4.38059 6.74138 4.20486 6.86801 3.88973 7.14726C3.67533 7.33725 3.52062 7.46907 3.39259 7.55859C3.52062 7.64812 3.67533 7.77994 3.88973 7.96993C4.20486 8.24917 4.38059 8.3758 4.56937 8.43665C4.90391 8.54447 5.47848 8.55367 6.28407 8.45912C6.32046 8.42413 6.37197 8.40558 6.42586 8.41308C6.44797 8.41616 6.46851 8.42336 6.48679 8.43379L6.51561 8.42994C6.60894 8.41741 6.69476 8.48291 6.70729 8.57624C6.71982 8.66956 6.65432 8.75538 6.56099 8.76791L6.54943 8.76946C6.45313 9.53382 6.45995 10.0765 6.56404 10.3879C6.62113 10.5587 6.74132 10.7194 7.00646 11.0079C7.20359 11.2224 7.33552 11.3723 7.42153 11.4965C7.50753 11.3723 7.63946 11.2224 7.83659 11.0079C8.10173 10.7194 8.22192 10.5587 8.27901 10.3879C8.3904 10.0547 8.3904 9.4566 8.27185 8.60547C8.25886 8.51221 8.32393 8.42607 8.4172 8.41308C8.45636 8.40763 8.49426 8.41594 8.52602 8.43431C9.43642 8.55451 10.078 8.55313 10.4394 8.43665C10.6282 8.3758 10.8039 8.24917 11.1191 7.96993C11.3335 7.77993 11.4882 7.64812 11.6162 7.5586C11.4882 7.46907 11.3335 7.33725 11.1191 7.14726C10.8039 6.86801 10.6282 6.74138 10.4394 6.68054C10.086 6.56664 9.46473 6.56279 8.58617 6.67506C8.55182 6.73111 8.48647 6.76454 8.4172 6.75489C8.32393 6.7419 8.25886 6.65576 8.27185 6.5625C8.3904 5.71137 8.3904 5.11326 8.27901 4.78009C8.22192 4.60931 8.10173 4.44852 7.83659 4.16007C7.64935 3.95636 7.52093 3.8109 7.43481 3.69033C7.35541 3.7879 7.25244 3.90279 7.12009 4.04679C6.85494 4.33524 6.73475 4.49603 6.67766 4.66681ZM12.0827 7.38785C11.9222 7.37773 11.7675 7.26624 11.3452 6.89205C10.9946 6.58133 10.7934 6.43635 10.544 6.35598C10.1467 6.22794 9.51728 6.21907 8.64615 6.32399C8.73329 5.57275 8.72041 5.02489 8.60242 4.67197C8.52472 4.43957 8.38565 4.25351 8.08764 3.9293C7.81483 3.6325 7.68937 3.48024 7.64188 3.36104C7.66952 3.28549 7.68001 3.21148 7.68001 3.12558C7.68001 3.03141 7.60368 2.95508 7.50951 2.95508C7.42192 2.95508 7.34975 3.02113 7.34011 3.10615C7.30141 3.13741 7.27666 3.18524 7.27666 3.23886C7.27666 3.26626 7.27773 3.29245 7.28008 3.31787C7.21595 3.42811 7.09148 3.57402 6.86903 3.81602C6.57102 4.14023 6.43195 4.32629 6.35425 4.55869C6.23065 4.9284 6.22239 5.51206 6.32365 6.31935C5.47271 6.21937 4.8561 6.22986 4.46477 6.35598C4.21541 6.43635 4.01422 6.58133 3.66358 6.89205C3.2413 7.26624 3.08665 7.37773 2.92615 7.38785C2.91785 7.38765 2.90946 7.38756 2.90097 7.38756C2.8068 7.38756 2.73047 7.46389 2.73047 7.55806V7.55859V7.55913C2.73047 7.65329 2.8068 7.72963 2.90097 7.72963C2.90947 7.72963 2.91785 7.72953 2.92615 7.72934C3.08666 7.73946 3.2413 7.85095 3.66358 8.22514C4.01422 8.53586 4.21541 8.68084 4.46477 8.76121C4.837 8.88117 5.41304 8.89652 6.2007 8.81169C6.10941 9.57954 6.12096 10.138 6.24063 10.496C6.31833 10.7284 6.4574 10.9145 6.75541 11.2387C7.12735 11.6433 7.22539 11.7793 7.22539 11.9291C7.22539 12.0233 7.30173 12.0996 7.39589 12.0996C7.4046 12.0996 7.41316 12.099 7.42153 12.0977C7.42989 12.099 7.43845 12.0996 7.44716 12.0996C7.54133 12.0996 7.61766 12.0233 7.61766 11.9291C7.61766 11.7793 7.7157 11.6433 8.08764 11.2387C8.38565 10.9145 8.52472 10.7284 8.60242 10.496C8.72309 10.1351 8.73382 9.57022 8.64005 8.79246C9.51435 8.89815 10.1458 8.88955 10.544 8.76121C10.7934 8.68084 10.9946 8.53586 11.3452 8.22514C11.7675 7.85095 11.9222 7.73946 12.0827 7.72934C12.091 7.72953 12.0993 7.72963 12.1078 7.72963C12.202 7.72963 12.2783 7.65329 12.2783 7.55913C12.2783 7.55895 12.2783 7.55877 12.2783 7.55859C12.2783 7.55842 12.2783 7.55824 12.2783 7.55806C12.2783 7.46389 12.202 7.38756 12.1078 7.38756C12.0993 7.38756 12.091 7.38765 12.0827 7.38785Z" fill="#00C0C5"/>
<path d="M68.8121 1.94922L66.1419 6.2554L63.4583 1.94922H61.5625V11.0559H63.4049V5.16259L66.0351 9.37771H66.2487L68.8789 5.14958V11.0559H70.708V1.94922H68.8121Z" fill="#778294"/>
<path d="M78.9467 8.49305C78.9867 8.24587 79.0134 8.02471 79.0134 7.80354C79.0134 6.82782 78.693 6.02123 78.0521 5.35774C77.4246 4.69425 76.6102 4.36901 75.6356 4.36901C74.6076 4.36901 73.7531 4.69425 73.0989 5.35774C72.4447 6.00822 72.1109 6.82782 72.1109 7.80354C72.1109 8.79227 72.4447 9.61188 73.1123 10.2624C73.7798 10.9128 74.661 11.2381 75.7691 11.2381C77.0508 11.2381 78.0254 10.7697 78.6796 9.84605L77.2911 9.06547C76.9573 9.49479 76.45 9.71596 75.7958 9.71596C74.7678 9.71596 74.1403 9.31266 73.9133 8.49305H78.9467ZM73.8866 7.19209C74.0869 6.35948 74.7144 5.87812 75.6356 5.87812C76.4233 5.87812 77.0909 6.30744 77.2911 7.19209H73.8866Z" fill="#778294"/>
<path d="M27.1395 11.0559L25.0701 7.62141C26.1516 7.14005 26.8725 6.09928 26.8725 4.96745C26.8725 4.13483 26.5654 3.4193 25.9646 2.83387C25.3639 2.24844 24.6295 1.94922 23.7617 1.94922H20.0234V11.0559H21.8659V7.89461H23.2677L25.1502 11.0559H27.1395ZM23.7617 3.62746C24.456 3.62746 25.0301 4.2259 25.0301 4.96745C25.0301 5.709 24.456 6.32045 23.7617 6.32045H21.8659V3.62746H23.7617Z" fill="#5D697C"/>
<path d="M34.3827 8.49305C34.4228 8.24587 34.4495 8.02471 34.4495 7.80354C34.4495 6.82782 34.1291 6.02123 33.4882 5.35774C32.8607 4.69425 32.0463 4.36901 31.0717 4.36901C30.0437 4.36901 29.1892 4.69425 28.535 5.35774C27.8808 6.00822 27.547 6.82782 27.547 7.80354C27.547 8.79227 27.8808 9.61188 28.5483 10.2624C29.2159 10.9128 30.0971 11.2381 31.2052 11.2381C32.4869 11.2381 33.4615 10.7697 34.1157 9.84605L32.7272 9.06547C32.3934 9.49479 31.8861 9.71596 31.2319 9.71596C30.2039 9.71596 29.5764 9.31266 29.3494 8.49305H34.3827ZM29.3227 7.19209C29.523 6.35948 30.1505 5.87812 31.0717 5.87812C31.8594 5.87812 32.527 6.30744 32.7272 7.19209H29.3227Z" fill="#5D697C"/>
<path d="M39.4522 4.36901C38.5444 4.36901 37.8768 4.66823 37.4629 5.27968V4.55114H35.7406V11.0559H37.4629V7.54335C37.4629 6.46355 38.037 5.93016 38.9315 5.93016C39.7326 5.93016 40.2533 6.39851 40.2533 7.27015V11.0559H41.9756V7.062C41.9756 6.21637 41.7353 5.56589 41.2546 5.08453C40.7873 4.60318 40.1865 4.36901 39.4522 4.36901Z" fill="#5D697C"/>
<path d="M50.0236 8.49305C50.0637 8.24587 50.0904 8.02471 50.0904 7.80354C50.0904 6.82782 49.7699 6.02123 49.1291 5.35774C48.5016 4.69425 47.6872 4.36901 46.7125 4.36901C45.6845 4.36901 44.8301 4.69425 44.1759 5.35774C43.5217 6.00822 43.1879 6.82782 43.1879 7.80354C43.1879 8.79227 43.5217 9.61188 44.1892 10.2624C44.8568 10.9128 45.7379 11.2381 46.8461 11.2381C48.1278 11.2381 49.1024 10.7697 49.7566 9.84605L48.3681 9.06547C48.0343 9.49479 47.527 9.71596 46.8728 9.71596C45.8447 9.71596 45.2172 9.31266 44.9903 8.49305H50.0236ZM44.9636 7.19209C45.1638 6.35948 45.7913 5.87812 46.7125 5.87812C47.5003 5.87812 48.1678 6.30744 48.3681 7.19209H44.9636Z" fill="#5D697C"/>
<path d="M57.5025 8.5581L56.2876 4.55114H54.6588L53.4438 8.54509L52.309 4.55114H50.4799L52.6027 11.0559H54.2449L55.4732 7.11403L56.7015 11.0559H58.3437L60.4665 4.55114H58.6374L57.5025 8.5581Z" fill="#5D697C"/>
<g opacity="0.65">
<path d="M81.0632 1.72131V1.96511H80.6993V3.04698H80.4303V1.96511H80.0664V1.72131H81.0632Z" fill="#8B96A3"/>
<path d="M82.5675 1.72113V3.0468H82.2985V2.1935L81.903 2.803H81.8713L81.4916 2.1935V3.0468H81.2227V1.72113H81.5074L81.903 2.34587L82.2985 1.72113H82.5675Z" fill="#8B96A3"/>
</g>
</svg>
