<svg width="56" height="55" viewBox="0 0 56 55" fill="none" xmlns="http://www.w3.org/2000/svg">
<path d="M29.3686 16.2857H44.0849C45.2572 16.2857 46.2083 15.3346 46.2083 14.1623C46.2083 12.9901 45.2572 12.039 44.0849 12.039H29.3686C28.1964 12.039 27.2453 12.9901 27.2453 14.1623C27.2453 15.3346 28.1964 16.2857 29.3686 16.2857Z" fill="#343636" stroke="#343636" stroke-width="0.8"/>
<path d="M29.3686 23.1807H40.003C41.1753 23.1807 42.1264 22.2297 42.1264 21.0574C42.1264 19.8851 41.1753 18.934 40.003 18.934H29.3686C28.1964 18.934 27.2453 19.8851 27.2453 21.0574C27.2453 22.2297 28.1964 23.1807 29.3686 23.1807Z" fill="#343636" stroke="#343636" stroke-width="0.8"/>
<path d="M9.78794 19.3071L9.78798 19.3072L13.1393 22.6575C13.5538 23.0721 14.098 23.2795 14.6406 23.2795C15.1832 23.2795 15.7276 23.0721 16.1422 22.6575C16.1422 22.6575 16.1422 22.6575 16.1422 22.6575L23.2343 15.5666L23.2343 15.5665C24.0637 14.7372 24.0637 13.3932 23.2343 12.5638C22.4049 11.7345 21.061 11.7345 20.2316 12.5638C20.2316 12.5638 20.2316 12.5638 20.2316 12.5638L14.6408 18.1536L12.7907 16.3044C12.7906 16.3044 12.7906 16.3044 12.7906 16.3043C11.9612 15.475 10.6173 15.4751 9.78794 16.3044C8.95858 17.1338 8.95858 18.4778 9.78794 19.3071Z" fill="#343636" stroke="#343636" stroke-width="0.8"/>
<path d="M29.3686 35.869H44.0849C45.2572 35.869 46.2083 34.9179 46.2083 33.7456C46.2083 32.5733 45.2572 31.6222 44.0849 31.6222H29.3686C28.1964 31.6222 27.2453 32.5733 27.2453 33.7456C27.2453 34.9179 28.1964 35.869 29.3686 35.869Z" fill="#343636" stroke="#343636" stroke-width="0.8"/>
<path d="M29.3686 42.7608H40.003C41.1753 42.7608 42.1264 41.8097 42.1264 40.6374C42.1264 39.4652 41.1753 38.5141 40.003 38.5141H29.3686C28.1964 38.5141 27.2453 39.4652 27.2453 40.6374C27.2453 41.8097 28.1964 42.7608 29.3686 42.7608Z" fill="#343636" stroke="#343636" stroke-width="0.8"/>
<path d="M11.915 43.9086H21.1065C22.2788 43.9086 23.2298 42.9575 23.2298 41.7852V32.5937C23.2298 31.4215 22.2788 30.4704 21.1065 30.4704H11.915C10.7427 30.4704 9.79165 31.4215 9.79165 32.5937V41.7852C9.79165 42.9575 10.7427 43.9086 11.915 43.9086ZM18.9831 34.7171V39.6618H14.0384V34.7171H18.9831Z" fill="#343636" stroke="#343636" stroke-width="0.8"/>
<path d="M7.31921 53.9448H48.6808C52.3867 53.9448 55.4 50.9315 55.4 47.2256V7.31921C55.4 3.61331 52.3867 0.6 48.6808 0.6H7.31921C3.61331 0.6 0.6 3.61331 0.6 7.31921V47.2256C0.6 50.9315 3.61331 53.9448 7.31921 53.9448ZM4.84699 7.31899C4.84699 5.95563 5.95586 4.84676 7.31921 4.84676L48.6808 4.84699C50.0441 4.84699 51.153 5.95586 51.153 7.31921V47.2256C51.153 48.589 50.0441 49.6978 48.6808 49.6978H7.31921C5.95586 49.6978 4.84699 48.589 4.84699 47.2256V7.31899Z" fill="#343636" stroke="#343636" stroke-width="0.8"/>
</svg>
