<svg width="17" height="17" viewBox="0 0 17 17" fill="none" xmlns="http://www.w3.org/2000/svg">
<path d="M8.5 0.934375C4.31851 0.934375 0.934375 4.31813 0.934375 8.5C0.934375 12.6814 4.31813 16.0656 8.5 16.0656C12.6815 16.0656 16.0656 12.6819 16.0656 8.5C16.0656 4.31851 12.6819 0.934375 8.5 0.934375ZM8.5 14.8879C4.97779 14.8879 2.11214 12.0222 2.11214 8.5C2.11214 4.97776 4.97779 2.11214 8.5 2.11214C12.0222 2.11214 14.8879 4.97776 14.8879 8.5C14.8879 12.0222 12.0222 14.8879 8.5 14.8879Z" fill="#343636" stroke="#343636" stroke-width="0.13125"/>
<path d="M8.63187 10.4759C8.1971 10.4759 7.84703 10.8376 7.84703 11.2702C7.84703 11.6923 8.18654 12.0646 8.63187 12.0646C9.07614 12.0646 9.42618 11.6934 9.42618 11.2702C9.42618 10.8366 9.06555 10.4759 8.63187 10.4759Z" fill="#343636" stroke="#343636" stroke-width="0.126251"/>
<path d="M8.6957 7.75423L8.69533 7.75455C8.55486 7.87562 8.38947 8.03811 8.25969 8.27668C8.12969 8.51563 8.03717 8.82763 8.03717 9.2458C8.03717 9.49396 8.06954 9.67375 8.16714 9.78974C8.26778 9.90934 8.42323 9.94517 8.62258 9.94517C8.86332 9.94517 9.02159 9.89129 9.11976 9.80165C9.21915 9.7109 9.24597 9.59368 9.24597 9.49267C9.24597 9.24382 9.24898 9.0606 9.31213 8.88891C9.37434 8.71973 9.49783 8.55529 9.75353 8.35539L9.71465 8.30565L9.7534 8.35548C9.88249 8.25509 10.1534 8.03994 10.3922 7.73568C10.6308 7.43167 10.8413 7.0336 10.8413 6.56784C10.8413 5.62741 9.99138 4.93785 8.75554 4.93785C7.45047 4.93785 6.82164 5.71511 6.82164 6.27349C6.82164 6.47865 6.90933 6.63172 7.03387 6.73216C7.15668 6.8312 7.31352 6.87792 7.45453 6.87792C7.6014 6.87792 7.70021 6.82412 7.77842 6.74488C7.81612 6.70668 7.84855 6.66313 7.87893 6.61949C7.8909 6.6023 7.90226 6.58554 7.91354 6.5689C7.93207 6.54155 7.9504 6.51451 7.97091 6.4863C8.03468 6.39862 8.1089 6.31539 8.22212 6.25312C8.33542 6.1908 8.49297 6.14668 8.72704 6.14668C8.95639 6.14668 9.15609 6.19731 9.2965 6.29452C9.43423 6.38988 9.51859 6.53215 9.51859 6.72932C9.51859 6.96153 9.39885 7.14811 9.23216 7.31364C9.14891 7.39632 9.05552 7.47217 8.96207 7.5448C8.93719 7.56414 8.91216 7.58335 8.88731 7.60243C8.81997 7.65413 8.75393 7.70483 8.6957 7.75424L8.6957 7.75423Z" fill="#343636" stroke="#343636" stroke-width="0.126251"/>
</svg>
