<svg width="54" height="54" viewBox="0 0 54 54" fill="none" xmlns="http://www.w3.org/2000/svg">
<path d="M23.5955 13.1584C18.5302 14.3395 14.4526 18.3565 13.2075 23.3922C11.9584 28.444 13.3879 33.5933 17.0317 37.1665C18.3205 38.4305 19.0901 40.4565 19.0901 42.586V42.9259C19.0901 44.3282 19.7019 45.5901 20.6721 46.4597V49.2541C20.6721 51.871 22.8012 54.0001 25.4182 54.0001H28.5823C31.1993 54.0001 33.3284 51.871 33.3284 49.2541V46.4597C34.2986 45.5901 34.9104 44.3283 34.9104 42.9259V42.5798C34.9104 40.4826 35.7212 38.4182 37.0792 37.0573C39.7614 34.3692 41.2385 30.7975 41.2385 27.0001C41.2385 17.9215 32.8254 11.0071 23.5955 13.1584ZM30.1643 49.2541C30.1643 50.1264 29.4546 50.8361 28.5823 50.8361H25.4182C24.5459 50.8361 23.8362 50.1264 23.8362 49.2541V47.672H30.1643V49.2541ZM34.8393 34.8223C32.8737 36.7922 31.7464 39.6196 31.7464 42.5798V42.9259C31.7464 43.7983 31.0367 44.508 30.1643 44.508H23.8362C22.9639 44.508 22.2542 43.7983 22.2542 42.9259V42.586C22.2542 39.5802 21.158 36.7815 19.2469 34.9075C16.4109 32.1262 15.3015 28.1055 16.2789 24.1516C17.2413 20.2591 20.3953 17.1535 24.314 16.2399C31.5567 14.551 38.0745 19.9578 38.0745 27.0001C38.0745 29.9537 36.9255 32.7316 34.8393 34.8223Z" fill="#343636"/>
<path d="M14.695 12.4573L10.2203 7.98266C9.60259 7.36482 8.60085 7.36482 7.98301 7.98266C7.36518 8.60049 7.36518 9.60213 7.98301 10.22L12.4577 14.6946C13.0755 15.3124 14.0773 15.3124 14.695 14.6946C15.3129 14.0767 15.3129 13.0751 14.695 12.4573Z" fill="#343636"/>
<path d="M8.01562 25.418H1.58203C0.708328 25.418 0 26.1263 0 27C0 27.8737 0.708328 28.582 1.58203 28.582H8.01562C8.88933 28.582 9.59766 27.8737 9.59766 27C9.59766 26.1263 8.88933 25.418 8.01562 25.418Z" fill="#343636"/>
<path d="M52.418 25.418H45.9844C45.1107 25.418 44.4023 26.1263 44.4023 27C44.4023 27.8737 45.1107 28.582 45.9844 28.582H52.418C53.2917 28.582 54 27.8737 54 27C54 26.1263 53.2917 25.418 52.418 25.418Z" fill="#343636"/>
<path d="M46.0171 7.98266C45.3995 7.36482 44.3978 7.36482 43.7798 7.98266L39.3051 12.4573C38.6873 13.075 38.6873 14.0767 39.3051 14.6946C39.9228 15.3124 40.9246 15.3124 41.5424 14.6946L46.0171 10.22C46.635 9.60224 46.635 8.60049 46.0171 7.98266Z" fill="#343636"/>
<path d="M27 0C26.1263 0 25.418 0.708328 25.418 1.58203V8.01562C25.418 8.88933 26.1263 9.59766 27 9.59766C27.8737 9.59766 28.582 8.88933 28.582 8.01562V1.58203C28.582 0.708328 27.8737 0 27 0Z" fill="#343636"/>
<path d="M27.0002 19.0898C26.3499 19.0898 25.6874 19.1678 25.0324 19.3212C22.3044 19.958 20.0207 22.2035 19.3498 24.9089C19.1395 25.7569 19.6564 26.6148 20.5044 26.8252C21.3526 27.0355 22.2104 26.5184 22.4207 25.6706C22.8069 24.1141 24.1765 22.7702 25.7528 22.4022C26.1728 22.3038 26.5926 22.2539 27.0002 22.2539C27.8739 22.2539 28.5822 21.5456 28.5822 20.6719C28.5822 19.7982 27.8739 19.0898 27.0002 19.0898Z" fill="#343636"/>
</svg>
