<svg width="14" height="14" viewBox="0 0 14 14" fill="none" xmlns="http://www.w3.org/2000/svg">
<g clip-path="url(#clip0_852_18139)">
<path d="M7 13.875C5.64026 13.875 4.31105 13.4718 3.18046 12.7164C2.04987 11.9609 1.16868 10.8872 0.648331 9.63095C0.127979 8.37471 -0.00816911 6.99238 0.257104 5.65876C0.522378 4.32514 1.17716 3.10013 2.13864 2.13864C3.10013 1.17716 4.32514 0.522378 5.65876 0.257104C6.99238 -0.00816911 8.37471 0.127979 9.63095 0.648331C10.8872 1.16868 11.9609 2.04987 12.7164 3.18046C13.4718 4.31105 13.875 5.64026 13.875 7C13.873 8.82276 13.1481 10.5703 11.8592 11.8592C10.5703 13.1481 8.82276 13.873 7 13.875ZM7 1.27084C5.86688 1.27084 4.75921 1.60685 3.81705 2.23638C2.87489 2.8659 2.14057 3.76068 1.70694 4.80755C1.27332 5.85441 1.15986 7.00636 1.38092 8.11771C1.60198 9.22906 2.14763 10.2499 2.94887 11.0511C3.75011 11.8524 4.77095 12.398 5.8823 12.6191C6.99365 12.8401 8.14559 12.7267 9.19246 12.2931C10.2393 11.8594 11.1341 11.1251 11.7636 10.183C12.3932 9.2408 12.7292 8.13313 12.7292 7C12.7275 5.48105 12.1234 4.02478 11.0493 2.95071C9.97523 1.87665 8.51896 1.2725 7 1.27084Z" fill="#4D5D71"/>
<path d="M7.57357 8.72054H6.42773V8.29487C6.41927 7.89063 6.51915 7.49149 6.71701 7.13889C6.91488 6.78628 7.20351 6.49306 7.55294 6.28966C7.76462 6.17307 7.93402 5.99254 8.03692 5.77388C8.13982 5.55522 8.17095 5.30963 8.12586 5.07221C8.08122 4.84602 7.97017 4.63828 7.80689 4.47551C7.64361 4.31274 7.43552 4.20234 7.20919 4.15841C7.04403 4.12784 6.87417 4.13395 6.71164 4.17632C6.5491 4.21868 6.39787 4.29626 6.26865 4.40357C6.13942 4.51087 6.03537 4.64527 5.96386 4.79725C5.89235 4.94923 5.85512 5.11508 5.85482 5.28304H4.70898C4.70913 4.87885 4.81617 4.48189 5.01925 4.13243C5.22233 3.78296 5.51423 3.49342 5.86533 3.29318C6.21643 3.09294 6.61425 2.98912 7.01842 2.99226C7.4226 2.99539 7.81876 3.10537 8.16671 3.31103C8.51467 3.51669 8.80204 3.81072 8.99967 4.1633C9.19731 4.51587 9.29818 4.91445 9.29205 5.31859C9.28593 5.72273 9.17302 6.11806 8.96479 6.46449C8.75656 6.81091 8.46041 7.09609 8.10638 7.29112C7.93722 7.39688 7.79891 7.54533 7.70538 7.72154C7.61184 7.89775 7.56638 8.0955 7.57357 8.29487V8.72054Z" fill="#4D5D71"/>
<path d="M7.57357 9.86328H6.42773V11.0091H7.57357V9.86328Z" fill="#4D5D71"/>
</g>
<defs>
<clipPath id="clip0_852_18139">
<rect width="13.75" height="13.75" fill="white" transform="translate(0.125 0.125)"/>
</clipPath>
</defs>
</svg>
