<svg width="39" height="39" viewBox="0 0 39 39" fill="none" xmlns="http://www.w3.org/2000/svg">
<path d="M32.0868 11.7829H33.5844C35.5202 11.7829 36.3239 14.2607 34.7568 15.397L27.0799 20.9633L30.027 29.9467C30.6311 31.788 28.5226 33.3241 26.9551 32.1848L19.3073 26.6263L11.6325 32.218C10.067 33.3586 7.9573 31.8267 8.55747 29.985L11.4996 20.9564L3.80264 15.3994C2.23155 14.2651 3.03392 11.7829 4.97172 11.7829H14.4591L17.3541 2.77942C17.9475 0.933968 20.5575 0.930785 21.1553 2.77486L24.0758 11.7829H25.5734" stroke="white" stroke-width="2.48806" stroke-miterlimit="10" stroke-linecap="round" stroke-linejoin="round"/>
<path d="M19.2778 31.1469V37" stroke="white" stroke-width="2.48806" stroke-miterlimit="10" stroke-linecap="round" stroke-linejoin="round"/>
<path d="M31.3647 22.3653L36.9314 24.174" stroke="white" stroke-width="2.48806" stroke-miterlimit="10" stroke-linecap="round" stroke-linejoin="round"/>
<path d="M26.7476 8.15637L30.1879 3.42109" stroke="white" stroke-width="2.48806" stroke-miterlimit="10" stroke-linecap="round" stroke-linejoin="round"/>
<path d="M11.808 8.15637L8.36768 3.42109" stroke="white" stroke-width="2.48806" stroke-miterlimit="10" stroke-linecap="round" stroke-linejoin="round"/>
<path d="M7.19112 22.3653L1.62451 24.174" stroke="white" stroke-width="2.48806" stroke-miterlimit="10" stroke-linecap="round" stroke-linejoin="round"/>
</svg>
