<svg width="22" height="22" viewBox="0 0 22 22" fill="none" xmlns="http://www.w3.org/2000/svg">
<path d="M9.41992 5.86484C7.41884 6.33141 5.80799 7.91834 5.31609 9.90771C4.82264 11.9035 5.38738 13.9377 6.82685 15.3493C7.336 15.8487 7.64004 16.649 7.64004 17.4903V17.6246C7.64004 18.1786 7.88174 18.6771 8.26503 19.0206V20.1245C8.26503 21.1584 9.10613 21.9995 10.14 21.9995H11.39C12.4238 21.9995 13.2649 21.1584 13.2649 20.1245V19.0206C13.6482 18.6771 13.8899 18.1786 13.8899 17.6246V17.4878C13.8899 16.6594 14.2102 15.8438 14.7467 15.3062C15.8063 14.2442 16.3899 12.8332 16.3899 11.3331C16.3899 7.74651 13.0662 5.01494 9.41992 5.86484ZM12.0149 20.1245C12.0149 20.4692 11.7346 20.7495 11.39 20.7495H10.14C9.79537 20.7495 9.515 20.4692 9.515 20.1245V19.4995H12.0149V20.1245ZM13.8618 14.4232C13.0853 15.2014 12.6399 16.3184 12.6399 17.4878V17.6246C12.6399 17.9692 12.3596 18.2496 12.0149 18.2496H9.515C9.17038 18.2496 8.89001 17.9692 8.89001 17.6246V17.4903C8.89001 16.3029 8.45698 15.1972 7.702 14.4569C6.5816 13.3581 6.14332 11.7697 6.52948 10.2077C6.90968 8.66999 8.15565 7.4431 9.70375 7.08219C12.565 6.41499 15.1399 8.55095 15.1399 11.3331C15.1399 12.4999 14.686 13.5973 13.8618 14.4232Z" fill="#303030"/>
<path d="M5.90303 5.58792L4.13527 3.8202C3.89124 3.57613 3.4955 3.57613 3.25142 3.8202C3.00734 4.06428 3.00734 4.45998 3.25142 4.70406L5.01917 6.47177C5.26321 6.71585 5.65899 6.71585 5.90303 6.47177C6.14711 6.2277 6.14711 5.832 5.90303 5.58792Z" fill="#303030"/>
<path d="M3.26474 10.7079H0.723131C0.377972 10.7079 0.0981445 10.9878 0.0981445 11.3329C0.0981445 11.6781 0.377972 11.9579 0.723131 11.9579H3.26474C3.6099 11.9579 3.88973 11.6781 3.88973 11.3329C3.88973 10.9878 3.6099 10.7079 3.26474 10.7079Z" fill="#303030"/>
<path d="M20.8062 10.7083H18.2646C17.9195 10.7083 17.6396 10.9881 17.6396 11.3333C17.6396 11.6785 17.9195 11.9583 18.2646 11.9583H20.8062C21.1514 11.9583 21.4312 11.6785 21.4312 11.3333C21.4312 10.9881 21.1514 10.7083 20.8062 10.7083Z" fill="#303030"/>
<path d="M18.2766 3.82053C18.0326 3.57645 17.6368 3.57645 17.3927 3.82053L15.625 5.58824C15.3809 5.83228 15.3809 6.22802 15.625 6.4721C15.869 6.71618 16.2647 6.71618 16.5088 6.4721L18.2766 4.70439C18.5206 4.46035 18.5206 4.06461 18.2766 3.82053Z" fill="#303030"/>
<path d="M10.7641 0.666647C10.419 0.666647 10.1392 0.946474 10.1392 1.29163V3.83325C10.1392 4.17841 10.419 4.45823 10.7641 4.45823C11.1093 4.45823 11.3891 4.17841 11.3891 3.83325V1.29163C11.3891 0.946474 11.1093 0.666647 10.7641 0.666647Z" fill="#303030"/>
<path d="M10.7654 8.20795C10.5085 8.20795 10.2468 8.23874 9.98804 8.29936C8.91036 8.5509 8.00817 9.438 7.74313 10.5068C7.66005 10.8418 7.86426 11.1807 8.19925 11.2638C8.53432 11.3469 8.87323 11.1426 8.95632 10.8077C9.10885 10.1928 9.64993 9.66188 10.2727 9.5165C10.4386 9.47763 10.6044 9.45792 10.7654 9.45792C11.1106 9.45792 11.3904 9.17809 11.3904 8.83293C11.3904 8.48777 11.1106 8.20795 10.7654 8.20795Z" fill="#303030"/>
</svg>
