<svg width="37" height="31" viewBox="0 0 37 31" fill="none" xmlns="http://www.w3.org/2000/svg">
<path d="M31.5919 14.311C31.5919 14.4273 31.6858 14.5211 31.802 14.5211C31.9182 14.5211 32.012 14.4273 32.012 14.311C32.012 14.1948 31.9182 14.101 31.802 14.101C31.6858 14.101 31.5919 14.1948 31.5919 14.311Z" stroke="white" stroke-width="1.84635"/>
<path d="M17.039 23.7138C18.3746 24.7564 20.0426 25.8859 21.6044 27.1475C29.9336 20.4192 36.0808 17.1588 36.0808 10.0325C36.0808 5.30675 32.0351 1.47508 27.3094 1.47508C25.1179 1.47508 23.1183 3.11669 21.6044 4.97009C20.0903 3.11669 17.8769 1.47508 15.6855 1.47508C10.9596 1.47508 6.91406 5.30675 6.91406 10.0325C6.91406 12.448 7.5466 14.3769 8.73602 16.1562C8.75099 16.1797 8.76747 16.2033 8.78308 16.2268" stroke="white" stroke-width="1.84635" stroke-miterlimit="10" stroke-linecap="round" stroke-linejoin="round"/>
<path d="M33.0687 11.7554C33.1764 11.2133 33.2285 10.6436 33.2285 10.0325C33.2285 5.62181 28.2865 3.30987 25.8833 4.84023" stroke="white" stroke-width="1.84635" stroke-miterlimit="10" stroke-linecap="round" stroke-linejoin="round"/>
<path d="M16.9817 23.6646C15.4792 25.4424 12.9384 27.2338 9.74352 30C4.44716 25.4139 1 23.5334 1 19.9799C1 17.2016 3.24412 15.0244 5.83561 15.0244C7.09569 15.0244 8.04129 15.5186 8.73588 16.1562C9.16018 16.5455 9.49107 16.9884 9.74352 17.4041C10.4089 16.3073 11.8351 15.0244 13.8661 15.0244C16.4583 15.0244 18.4878 17.2016 18.4878 19.9799C18.4878 21.3748 17.9516 22.5164 16.9817 23.6646Z" stroke="white" stroke-width="1.84635" stroke-miterlimit="10" stroke-linecap="round" stroke-linejoin="round"/>
</svg>
