<svg width="100" height="99" viewBox="0 0 100 99" fill="none" xmlns="http://www.w3.org/2000/svg">
<path d="M98.4375 94.9323H84.3114C83.7448 92.6244 81.9483 90.7619 79.5589 90.1646L76.1619 89.3149L80.4558 68.4901C81.2797 64.4888 79.0092 60.4144 75.0785 59.0559C65.4715 55.7219 68.7574 57.198 59.9201 55.1798C62.9953 53.3105 67.2313 50.6357 68.5533 49.3137C70.1017 47.7632 74.8139 43.0445 74.8139 38.5313C74.8139 37.2591 74.4296 35.8573 73.6702 34.3517L98.3385 9.68341C99.4099 8.61218 99.9999 7.18765 99.9999 5.67251C99.9999 0.650928 93.8802 -1.90185 90.3169 1.66161C89.7066 2.27173 89.7066 3.26093 90.3169 3.87105C90.927 4.48117 91.9162 4.48117 92.5263 3.87105C94.1274 2.27036 96.8751 3.41776 96.8751 5.67231C96.8751 6.35274 96.6101 6.99235 96.1291 7.47358L67.3804 36.2225C66.3931 37.2095 67.1058 38.8897 68.4852 38.8897C69.3326 38.8897 69.5785 38.4436 71.3024 36.7197C71.5549 37.39 71.6891 38.0025 71.6891 38.5313C71.6891 40.6681 69.8902 43.5529 66.3345 47.1134C65.0694 48.3786 59.3226 51.937 55.4826 54.1935L50.1968 53.5328C49.3402 53.4248 48.5598 54.033 48.4528 54.8893C48.3457 55.7455 48.9531 56.5264 49.8093 56.6334L55.5313 57.3488C68.8195 60.6072 63.5907 58.4116 74.0802 62.0173C76.4841 62.8537 77.9094 65.3655 77.396 67.8593L75.409 77.4958H70.2958L71.1208 70.2652C71.22 69.3949 70.5835 68.6114 69.7095 68.5321C51.0624 66.8404 52.8105 68.8942 46.4119 66.6668C45.9924 66.5252 45.3557 66.2776 44.9092 66.0465C41.0895 64.0693 40.2681 58.3434 41.475 55.1243C42.9546 54.0771 44.4288 52.8652 45.8576 51.5198C46.4859 50.9283 46.5156 49.9394 45.924 49.3112C45.3324 48.6831 44.3438 48.6534 43.7153 49.2448C42.1041 50.7619 40.0902 52.3209 39.9626 52.3504C39.5693 52.442 39.4599 52.5711 37.9053 53.5924C34.0206 56.1449 34.7741 55.6489 14.6278 72.5828L2.42577 80.7238C0.289567 82.1489 -0.554329 84.8167 0.373547 87.2113C2.90289 93.7382 2.89918 93.9347 3.60344 94.9323H1.5682C0.705363 94.9323 0.0057949 95.6319 0.0057949 96.4947C0.0057949 97.3576 0.705363 98.0571 1.5682 98.0571H98.4375C99.3004 98.0571 99.9999 97.3576 99.9999 96.4947C99.9999 95.6319 99.3004 94.9323 98.4375 94.9323ZM37.8469 57.3935C37.596 61.3448 39.0949 65.7711 42.3609 68.1323C36.5509 70.8357 28.7549 73.9378 19.192 78.8698L17.4259 74.3128C32.9054 61.2991 35.4926 59.043 37.8469 57.3935ZM4.16004 83.3232L14.8123 76.2162L16.446 80.4316L9.19412 85.0501C8.66212 85.3889 8.38597 86.0145 8.49416 86.6357L9.93568 94.9198C8.12231 95.0509 6.35464 93.998 5.66425 92.2165L3.28724 86.0822C2.89254 85.0638 3.2515 83.9293 4.16004 83.3232ZM11.7512 87.1263C18.8555 82.602 19.9183 81.4622 37.6339 73.6715C40.828 72.2668 43.6146 71.0394 46.0363 69.8322C52.4514 71.8694 51.994 70.1498 67.834 71.5036C65.5602 91.4327 66.1265 87.5546 65.1899 91.3011C64.8807 92.5375 65.0119 93.8103 65.5422 94.9321H13.1095L11.7512 87.1263ZM70.4646 94.9323C68.9611 94.9323 67.8559 93.5201 68.2213 92.0592C69.2228 88.053 68.7873 90.7124 69.9388 80.6209H74.7641L72.799 90.1515C72.6299 90.9718 73.1374 91.7796 73.9501 91.9827L78.801 93.1961C79.7749 93.4396 80.5603 94.0865 80.9975 94.9323H70.4646Z" fill="white"/>
<path d="M54.2921 15.7794C54.5138 18.8498 55.7725 21.6943 57.8671 23.9536C56.4672 29.6913 54.3054 34.9758 51.4321 39.6706C50.9816 40.4067 51.213 41.3684 51.9491 41.8189C52.6895 42.2722 53.6496 42.0334 54.0974 41.302C56.888 36.7423 59.0442 31.6682 60.5214 26.1892C61.3042 26.6972 62.1332 27.1235 62.9926 27.4627L63.8636 28.1154L61.5688 30.4102C60.5816 31.3973 61.2942 33.0775 62.6736 33.0775C63.0734 33.0775 63.4734 32.9249 63.7785 32.6199C80.0136 16.3847 51.0794 45.3189 83.8087 12.5896C86.7541 9.64426 88.3762 5.72828 88.3762 1.5629C88.3762 0.700057 87.6767 0.000488281 86.8138 0.000488281C85.951 0.000488281 85.2514 0.700057 85.2514 1.5629C85.2514 4.89356 83.9544 8.02502 81.5993 10.3802L74.8145 17.1649C74.8145 13.5364 75.0815 11.466 73.4966 8.67518C70.8105 3.94127 64.729 2.19802 59.8201 4.66779C57.4693 0.649864 51.3487 1.19886 49.7959 5.59508L48.7479 8.57206C47.4593 12.2179 50.3453 16.0005 54.2921 15.7794ZM70.2775 9.46321C68.8088 11.5115 66.4367 12.7134 63.8974 12.7478C61.6169 12.7796 61.7706 15.8763 63.7855 15.8763C66.7156 15.8763 69.5492 14.7332 71.6278 12.6826C71.711 13.2911 71.6893 12.904 71.6893 20.2893L66.7392 25.2394C64.7017 24.9617 62.858 24.1399 61.3716 22.9558L62.6865 19.6925C63.0391 18.8176 62.542 17.8051 61.5827 17.5866C60.8474 17.4186 60.0783 17.8028 59.7877 18.5246L59.0356 20.3917C57.9618 18.7357 57.3775 16.8212 57.3775 14.7979C57.3775 14.599 57.3554 14.6528 57.4878 14.5453C58.3198 13.8714 58.8905 13.0036 59.1994 12.1324C60.2466 9.16011 60.4548 8.71463 60.533 7.85511C63.6654 5.81519 67.9669 6.45675 70.2775 9.46321ZM51.6944 9.61106L52.7424 6.63389C53.0832 5.66949 54.0181 5.06386 55.021 5.06386C56.6613 5.06386 57.8321 6.61026 57.3005 8.11779C56.2824 11.0079 56.2152 11.7586 55.2157 12.3308C53.2185 13.4575 50.9958 11.5895 51.6944 9.61106Z" fill="white"/>
</svg>
