<svg width="38" height="41" viewBox="0 0 38 41" fill="none" xmlns="http://www.w3.org/2000/svg">
<mask id="path-1-outside-1_264_5010" maskUnits="userSpaceOnUse" x="0" y="15.7075" width="39" height="26" fill="black">
<rect fill="white" y="15.7075" width="39" height="26"/>
<path d="M37.0225 31.1352C36.5262 30.639 35.8665 30.3659 35.1646 30.3659C35.1643 30.3659 35.1638 30.3659 35.1636 30.3659H35.1026C34.4326 30.3661 33.8384 30.6966 33.474 31.203L29.5631 27.2921L28.7672 21.3229C28.4163 18.6917 26.15 16.7075 23.4937 16.7075C22.7641 16.7075 22.1706 17.3011 22.1706 18.0306V19.3965C22.1706 20.9262 20.9261 22.1709 19.3962 22.1709C17.8664 22.1709 16.6218 20.9262 16.6218 19.3965V18.0306C16.6218 17.301 16.0282 16.7075 15.2968 16.7075C12.6423 16.7075 10.376 18.6917 10.0253 21.3229L9.22934 27.2921L5.31939 31.202C5.25617 31.1143 5.18546 31.0311 5.10749 30.9532C4.72861 30.5744 4.22507 30.3659 3.68879 30.3659H3.68841C2.20595 30.3662 1 31.5725 1 33.0549C1 34.5107 2.16318 35.6992 3.6089 35.7418C3.25665 36.2369 3.04877 36.8414 3.04877 37.4938C3.04884 39.165 4.40833 40.5244 6.0793 40.5244H32.7133C34.3843 40.5244 35.7437 39.165 35.7437 37.4939C35.7437 36.8415 35.5357 36.2371 35.1837 35.742C36.6292 35.6998 37.7925 34.5065 37.7925 33.0448V32.9934C37.7925 32.2914 37.5191 31.6315 37.0225 31.1352ZM24.9294 28.722L25.1502 26.8456L25.3544 27.8665C25.5383 28.7867 25.9864 29.6238 26.65 30.2874L30.8261 34.4635H26.0425L25.0405 30.4552C24.8983 29.8869 24.8609 29.3037 24.9294 28.722ZM15.2987 17.988C15.3223 17.988 15.3414 18.0071 15.3414 18.0306V19.3965C15.3414 21.6323 17.1605 23.4513 19.3963 23.4513C21.6321 23.4513 23.4511 21.6323 23.4511 19.3965V18.0306C23.4511 18.0071 23.4703 17.988 23.4956 17.988C23.9773 17.988 24.4418 18.0749 24.8741 18.2332L23.6577 28.5723C23.5709 29.3086 23.6182 30.0466 23.7981 30.7657L24.7225 34.4634H14.07L14.9944 30.7657C15.1742 30.0465 15.2216 29.3085 15.1349 28.5723L13.9186 18.2334C14.3512 18.075 14.8163 17.988 15.2987 17.988ZM13.6424 26.8455L13.8632 28.7219C13.9317 29.3037 13.8943 29.8869 13.7522 30.4552L12.7501 34.4635H7.96642L12.1425 30.2874C12.806 29.6238 13.2541 28.7867 13.4381 27.8665L13.6424 26.8455ZM3.6891 34.4635C2.91244 34.4635 2.28059 33.8316 2.28059 33.055C2.28059 32.2784 2.91228 31.6466 3.68918 31.6464C3.88294 31.6464 4.06512 31.7218 4.20214 31.8588C4.33924 31.9958 4.41474 32.178 4.41474 32.372C4.41474 32.631 4.57067 32.8644 4.80998 32.9635C5.04928 33.0626 5.32464 33.0079 5.50767 32.8247L10.2881 28.0442C10.3876 27.9448 10.4516 27.8154 10.4701 27.6761L11.2946 21.4921C11.4321 20.4607 11.9579 19.561 12.7113 18.9312L13.1587 22.7344L12.1826 27.6153C12.0484 28.2867 11.7214 28.8977 11.2372 29.3819L6.15573 34.4634H6.0793H3.6891V34.4635ZM16.7073 39.2439H6.0793C5.11436 39.2439 4.32928 38.4589 4.32928 37.4939C4.32928 36.5289 5.11428 35.7439 6.0793 35.7439H10.561V36.0568C10.561 37.0043 11.2069 37.8096 12.1318 38.0151L16.7072 39.0319V39.2439H16.7073ZM16.7073 37.7201L12.4096 36.765C12.0751 36.6907 11.8415 36.3994 11.8415 36.0567V35.7439H16.7073V37.7201ZM32.7133 39.2439H17.9878V35.744H32.7133C33.6782 35.7441 34.4632 36.5291 34.4632 37.494C34.4632 38.4589 33.6782 39.2439 32.7133 39.2439ZM36.512 33.0448C36.512 33.8271 35.8807 34.4635 35.1048 34.4635H32.637L27.5555 29.3819C27.0713 28.8977 26.7443 28.2867 26.61 27.6153L25.6338 22.7343L26.0812 18.9311C26.8346 19.561 27.3605 20.4607 27.4979 21.4922L28.3225 27.6762C28.3411 27.8155 28.405 27.9448 28.5044 28.0443L33.2849 32.8248C33.4681 33.0079 33.7434 33.0626 33.9827 32.9636C34.222 32.8644 34.3779 32.631 34.3779 32.3721C34.3779 31.9721 34.7033 31.6466 35.1034 31.6464H35.1644C35.1645 31.6464 35.1647 31.6464 35.1649 31.6464C35.5246 31.6464 35.8629 31.7866 36.1173 32.0408C36.3718 32.2953 36.512 32.6337 36.512 32.9936V33.0448H36.512Z"/>
</mask>
<path d="M37.0225 31.1352C36.5262 30.639 35.8665 30.3659 35.1646 30.3659C35.1643 30.3659 35.1638 30.3659 35.1636 30.3659H35.1026C34.4326 30.3661 33.8384 30.6966 33.474 31.203L29.5631 27.2921L28.7672 21.3229C28.4163 18.6917 26.15 16.7075 23.4937 16.7075C22.7641 16.7075 22.1706 17.3011 22.1706 18.0306V19.3965C22.1706 20.9262 20.9261 22.1709 19.3962 22.1709C17.8664 22.1709 16.6218 20.9262 16.6218 19.3965V18.0306C16.6218 17.301 16.0282 16.7075 15.2968 16.7075C12.6423 16.7075 10.376 18.6917 10.0253 21.3229L9.22934 27.2921L5.31939 31.202C5.25617 31.1143 5.18546 31.0311 5.10749 30.9532C4.72861 30.5744 4.22507 30.3659 3.68879 30.3659H3.68841C2.20595 30.3662 1 31.5725 1 33.0549C1 34.5107 2.16318 35.6992 3.6089 35.7418C3.25665 36.2369 3.04877 36.8414 3.04877 37.4938C3.04884 39.165 4.40833 40.5244 6.0793 40.5244H32.7133C34.3843 40.5244 35.7437 39.165 35.7437 37.4939C35.7437 36.8415 35.5357 36.2371 35.1837 35.742C36.6292 35.6998 37.7925 34.5065 37.7925 33.0448V32.9934C37.7925 32.2914 37.5191 31.6315 37.0225 31.1352ZM24.9294 28.722L25.1502 26.8456L25.3544 27.8665C25.5383 28.7867 25.9864 29.6238 26.65 30.2874L30.8261 34.4635H26.0425L25.0405 30.4552C24.8983 29.8869 24.8609 29.3037 24.9294 28.722ZM15.2987 17.988C15.3223 17.988 15.3414 18.0071 15.3414 18.0306V19.3965C15.3414 21.6323 17.1605 23.4513 19.3963 23.4513C21.6321 23.4513 23.4511 21.6323 23.4511 19.3965V18.0306C23.4511 18.0071 23.4703 17.988 23.4956 17.988C23.9773 17.988 24.4418 18.0749 24.8741 18.2332L23.6577 28.5723C23.5709 29.3086 23.6182 30.0466 23.7981 30.7657L24.7225 34.4634H14.07L14.9944 30.7657C15.1742 30.0465 15.2216 29.3085 15.1349 28.5723L13.9186 18.2334C14.3512 18.075 14.8163 17.988 15.2987 17.988ZM13.6424 26.8455L13.8632 28.7219C13.9317 29.3037 13.8943 29.8869 13.7522 30.4552L12.7501 34.4635H7.96642L12.1425 30.2874C12.806 29.6238 13.2541 28.7867 13.4381 27.8665L13.6424 26.8455ZM3.6891 34.4635C2.91244 34.4635 2.28059 33.8316 2.28059 33.055C2.28059 32.2784 2.91228 31.6466 3.68918 31.6464C3.88294 31.6464 4.06512 31.7218 4.20214 31.8588C4.33924 31.9958 4.41474 32.178 4.41474 32.372C4.41474 32.631 4.57067 32.8644 4.80998 32.9635C5.04928 33.0626 5.32464 33.0079 5.50767 32.8247L10.2881 28.0442C10.3876 27.9448 10.4516 27.8154 10.4701 27.6761L11.2946 21.4921C11.4321 20.4607 11.9579 19.561 12.7113 18.9312L13.1587 22.7344L12.1826 27.6153C12.0484 28.2867 11.7214 28.8977 11.2372 29.3819L6.15573 34.4634H6.0793H3.6891V34.4635ZM16.7073 39.2439H6.0793C5.11436 39.2439 4.32928 38.4589 4.32928 37.4939C4.32928 36.5289 5.11428 35.7439 6.0793 35.7439H10.561V36.0568C10.561 37.0043 11.2069 37.8096 12.1318 38.0151L16.7072 39.0319V39.2439H16.7073ZM16.7073 37.7201L12.4096 36.765C12.0751 36.6907 11.8415 36.3994 11.8415 36.0567V35.7439H16.7073V37.7201ZM32.7133 39.2439H17.9878V35.744H32.7133C33.6782 35.7441 34.4632 36.5291 34.4632 37.494C34.4632 38.4589 33.6782 39.2439 32.7133 39.2439ZM36.512 33.0448C36.512 33.8271 35.8807 34.4635 35.1048 34.4635H32.637L27.5555 29.3819C27.0713 28.8977 26.7443 28.2867 26.61 27.6153L25.6338 22.7343L26.0812 18.9311C26.8346 19.561 27.3605 20.4607 27.4979 21.4922L28.3225 27.6762C28.3411 27.8155 28.405 27.9448 28.5044 28.0443L33.2849 32.8248C33.4681 33.0079 33.7434 33.0626 33.9827 32.9636C34.222 32.8644 34.3779 32.631 34.3779 32.3721C34.3779 31.9721 34.7033 31.6466 35.1034 31.6464H35.1644C35.1645 31.6464 35.1647 31.6464 35.1649 31.6464C35.5246 31.6464 35.8629 31.7866 36.1173 32.0408C36.3718 32.2953 36.512 32.6337 36.512 32.9936V33.0448H36.512Z" fill="white"/>
<path d="M37.0225 31.1352C36.5262 30.639 35.8665 30.3659 35.1646 30.3659C35.1643 30.3659 35.1638 30.3659 35.1636 30.3659H35.1026C34.4326 30.3661 33.8384 30.6966 33.474 31.203L29.5631 27.2921L28.7672 21.3229C28.4163 18.6917 26.15 16.7075 23.4937 16.7075C22.7641 16.7075 22.1706 17.3011 22.1706 18.0306V19.3965C22.1706 20.9262 20.9261 22.1709 19.3962 22.1709C17.8664 22.1709 16.6218 20.9262 16.6218 19.3965V18.0306C16.6218 17.301 16.0282 16.7075 15.2968 16.7075C12.6423 16.7075 10.376 18.6917 10.0253 21.3229L9.22934 27.2921L5.31939 31.202C5.25617 31.1143 5.18546 31.0311 5.10749 30.9532C4.72861 30.5744 4.22507 30.3659 3.68879 30.3659H3.68841C2.20595 30.3662 1 31.5725 1 33.0549C1 34.5107 2.16318 35.6992 3.6089 35.7418C3.25665 36.2369 3.04877 36.8414 3.04877 37.4938C3.04884 39.165 4.40833 40.5244 6.0793 40.5244H32.7133C34.3843 40.5244 35.7437 39.165 35.7437 37.4939C35.7437 36.8415 35.5357 36.2371 35.1837 35.742C36.6292 35.6998 37.7925 34.5065 37.7925 33.0448V32.9934C37.7925 32.2914 37.5191 31.6315 37.0225 31.1352ZM24.9294 28.722L25.1502 26.8456L25.3544 27.8665C25.5383 28.7867 25.9864 29.6238 26.65 30.2874L30.8261 34.4635H26.0425L25.0405 30.4552C24.8983 29.8869 24.8609 29.3037 24.9294 28.722ZM15.2987 17.988C15.3223 17.988 15.3414 18.0071 15.3414 18.0306V19.3965C15.3414 21.6323 17.1605 23.4513 19.3963 23.4513C21.6321 23.4513 23.4511 21.6323 23.4511 19.3965V18.0306C23.4511 18.0071 23.4703 17.988 23.4956 17.988C23.9773 17.988 24.4418 18.0749 24.8741 18.2332L23.6577 28.5723C23.5709 29.3086 23.6182 30.0466 23.7981 30.7657L24.7225 34.4634H14.07L14.9944 30.7657C15.1742 30.0465 15.2216 29.3085 15.1349 28.5723L13.9186 18.2334C14.3512 18.075 14.8163 17.988 15.2987 17.988ZM13.6424 26.8455L13.8632 28.7219C13.9317 29.3037 13.8943 29.8869 13.7522 30.4552L12.7501 34.4635H7.96642L12.1425 30.2874C12.806 29.6238 13.2541 28.7867 13.4381 27.8665L13.6424 26.8455ZM3.6891 34.4635C2.91244 34.4635 2.28059 33.8316 2.28059 33.055C2.28059 32.2784 2.91228 31.6466 3.68918 31.6464C3.88294 31.6464 4.06512 31.7218 4.20214 31.8588C4.33924 31.9958 4.41474 32.178 4.41474 32.372C4.41474 32.631 4.57067 32.8644 4.80998 32.9635C5.04928 33.0626 5.32464 33.0079 5.50767 32.8247L10.2881 28.0442C10.3876 27.9448 10.4516 27.8154 10.4701 27.6761L11.2946 21.4921C11.4321 20.4607 11.9579 19.561 12.7113 18.9312L13.1587 22.7344L12.1826 27.6153C12.0484 28.2867 11.7214 28.8977 11.2372 29.3819L6.15573 34.4634H6.0793H3.6891V34.4635ZM16.7073 39.2439H6.0793C5.11436 39.2439 4.32928 38.4589 4.32928 37.4939C4.32928 36.5289 5.11428 35.7439 6.0793 35.7439H10.561V36.0568C10.561 37.0043 11.2069 37.8096 12.1318 38.0151L16.7072 39.0319V39.2439H16.7073ZM16.7073 37.7201L12.4096 36.765C12.0751 36.6907 11.8415 36.3994 11.8415 36.0567V35.7439H16.7073V37.7201ZM32.7133 39.2439H17.9878V35.744H32.7133C33.6782 35.7441 34.4632 36.5291 34.4632 37.494C34.4632 38.4589 33.6782 39.2439 32.7133 39.2439ZM36.512 33.0448C36.512 33.8271 35.8807 34.4635 35.1048 34.4635H32.637L27.5555 29.3819C27.0713 28.8977 26.7443 28.2867 26.61 27.6153L25.6338 22.7343L26.0812 18.9311C26.8346 19.561 27.3605 20.4607 27.4979 21.4922L28.3225 27.6762C28.3411 27.8155 28.405 27.9448 28.5044 28.0443L33.2849 32.8248C33.4681 33.0079 33.7434 33.0626 33.9827 32.9636C34.222 32.8644 34.3779 32.631 34.3779 32.3721C34.3779 31.9721 34.7033 31.6466 35.1034 31.6464H35.1644C35.1645 31.6464 35.1647 31.6464 35.1649 31.6464C35.5246 31.6464 35.8629 31.7866 36.1173 32.0408C36.3718 32.2953 36.512 32.6337 36.512 32.9936V33.0448H36.512Z" stroke="white" stroke-width="0.422003" mask="url(#path-1-outside-1_264_5010)"/>
<path d="M13.9292 11.2084L13.9301 11.2084L13.9322 11.2084C13.9768 11.2084 14.1986 11.208 14.5538 11.1876V11.8842C14.5538 14.5549 16.7264 16.7275 19.3971 16.7275C22.0678 16.7275 24.2404 14.5549 24.2404 11.8842V11.2133C24.4398 11.2459 24.6466 11.2641 24.8605 11.2641C25.2724 11.2641 25.6062 10.9302 25.6062 10.5183V9.8354C25.6062 7.39238 24.1879 5.27545 22.1325 4.26256C22.1718 4.07506 22.1917 3.88337 22.1917 3.68895C22.1917 2.14806 20.9381 0.894499 19.3971 0.894499C17.8562 0.894499 16.6026 2.14807 16.6026 3.68902C16.6026 3.88365 16.6228 4.07521 16.6621 4.26241C14.6064 5.2753 13.188 7.39222 13.188 9.83532V10.4627C13.188 10.8727 13.519 11.2059 13.9292 11.2084ZM19.3971 2.38594C20.1155 2.38594 20.7001 2.97055 20.7001 3.68895C20.7001 3.71425 20.6992 3.73957 20.6974 3.76498C20.278 3.67491 19.8434 3.62614 19.3971 3.62614C18.951 3.62614 18.5163 3.67491 18.0969 3.76493C18.0951 3.73953 18.0941 3.71423 18.0941 3.68895C18.0941 2.97062 18.6787 2.38594 19.3971 2.38594ZM22.7489 11.8841C22.7489 13.7322 21.2452 15.2359 19.3971 15.2359C17.5491 15.2359 16.0454 13.7322 16.0454 11.8841V11.0367C17.4649 10.8344 19.4084 10.393 21.2564 9.42774C21.5845 9.79674 22.0925 10.2856 22.749 10.6662L22.7489 11.8841ZM22.065 8.05371C21.8447 7.72576 21.4069 7.62626 21.0665 7.82742C18.717 9.21585 15.9772 9.58457 14.6819 9.68201C14.7633 7.15151 16.8472 5.11765 19.3971 5.11765C21.9369 5.11765 24.0145 7.13533 24.1112 9.6519C23.5295 9.46569 23.0359 9.09371 22.6767 8.75142C22.2956 8.3882 22.073 8.06536 22.065 8.05371Z" fill="white" stroke="white" stroke-width="0.211002"/>
</svg>
