<svg width="13" height="13" viewBox="0 0 13 13" fill="none" xmlns="http://www.w3.org/2000/svg">
<g clip-path="url(#clip0_723_27588)">
<path d="M12.9661 4.9871C12.881 4.72386 12.6475 4.5369 12.3713 4.512L8.61915 4.1713L7.13544 0.698551C7.02604 0.444043 6.77689 0.279297 6.50007 0.279297C6.22324 0.279297 5.97409 0.444043 5.86469 0.699146L4.38099 4.1713L0.628234 4.512C0.352501 4.53749 0.119615 4.72386 0.0340187 4.9871C-0.0515777 5.25033 0.0274725 5.53906 0.236058 5.72107L3.07224 8.20842L2.23592 11.8924C2.17472 12.1633 2.27986 12.4433 2.50461 12.6058C2.62542 12.6931 2.76675 12.7375 2.90928 12.7375C3.03217 12.7375 3.15407 12.7044 3.26347 12.6389L6.50007 10.7045L9.73547 12.6389C9.97222 12.7813 10.2707 12.7683 10.4949 12.6058C10.7198 12.4428 10.8248 12.1627 10.7636 11.8924L9.92729 8.20842L12.7635 5.72156C12.9721 5.53906 13.0517 5.25083 12.9661 4.9871Z" fill="#8FBA70"/>
</g>
<defs>
<clipPath id="clip0_723_27588">
<rect width="13" height="13" fill="white"/>
</clipPath>
</defs>
</svg>
