<svg width="100" height="74" viewBox="0 0 100 74" fill="none" xmlns="http://www.w3.org/2000/svg">
<path d="M98.289 35.076H89.8289C93.346 27.0913 92.9658 20.6274 91.635 16.2548C89.3536 8.46008 81.654 0 70.2471 0C67.2053 0 64.1635 0.570341 61.0266 1.71103C55.6084 3.70722 51.9962 5.89354 50.3802 7.03422C48.7643 5.89354 45.2471 3.70722 39.7338 1.71103C36.597 0.570341 33.4601 0 30.5133 0C19.1065 0 11.4068 8.46008 9.12548 16.2548C7.79468 20.9125 7.31939 27.9468 11.7871 36.7871H1.52091C0.665399 36.7871 0 37.4525 0 38.308C0 39.1635 0.665399 39.8289 1.52091 39.8289H13.5932C14.0684 40.6844 14.6388 41.5399 15.3042 42.3954C25.1901 56.654 46.673 72.1483 50.5703 73.0989V73.1939C50.5703 73.1939 50.6654 73.1939 50.7605 73.0989C50.8555 73.0989 50.9506 73.0989 51.0456 73.0989V73.0038C54.3726 71.3878 75 58.0798 85.8365 42.3004C86.8821 40.8745 87.7376 39.4487 88.4981 38.0228H98.4791C99.3346 38.0228 100 37.3574 100 36.5019C100 35.6464 99.1445 35.076 98.289 35.076ZM83.0798 40.6844C73.0038 55.4183 54.4677 67.3004 50.4753 69.8669C46.3878 67.3004 27.9468 55.3232 17.7757 40.6844C17.5856 40.3992 17.3954 40.1141 17.2053 39.8289H31.1787C31.749 39.8289 32.3194 39.5437 32.6046 38.9734L38.9734 26.4259L48.9544 51.9962C49.1445 52.5665 49.8099 52.9468 50.3802 52.9468C50.3802 52.9468 50.3802 52.9468 50.4753 52.9468C51.1407 52.9468 51.711 52.4715 51.9011 51.8061L60.6464 21.8631L65.3042 36.9772C65.4943 37.5475 65.9696 37.9278 66.5399 38.0228C67.1103 38.1179 67.6806 37.8327 68.0608 37.3574L71.7681 31.9392L74.9049 37.2624C75.1901 37.7376 75.6654 38.0228 76.2357 38.0228H84.7909C84.2205 38.9734 83.6502 39.8289 83.0798 40.6844ZM86.5019 35.076H77.1863L73.289 28.4221C73.0038 27.9468 72.5285 27.6616 71.9582 27.6616C71.3878 27.6616 70.9126 27.8517 70.6274 28.327L67.3954 33.0799L62.1673 16.0646C61.9772 15.3992 61.3118 15.019 60.6464 14.924C59.981 14.924 59.3156 15.3992 59.1255 16.0646L50.2852 46.5779L40.6844 22.0532C40.4943 21.4829 39.924 21.1027 39.3536 21.1027C38.6882 21.1027 38.2129 21.3878 37.9278 21.9582L30.4183 36.692H15.3042C11.5019 29.7529 10.4563 23.0989 12.1673 17.1103C14.1635 10.3612 20.7224 3.13688 30.6084 3.13688C33.27 3.13688 36.0266 3.70722 38.7833 4.65779C45.7224 7.22433 49.4297 10.1711 49.5247 10.1711C50.0951 10.6464 50.8555 10.6464 51.4259 10.1711C51.4259 10.1711 55.1331 7.22433 62.1673 4.65779C64.924 3.61217 67.6806 3.13688 70.3422 3.13688C80.1331 3.13688 86.7871 10.3612 88.7833 17.1103C90.3992 22.6236 89.5437 28.7072 86.5019 35.076Z" fill="white"/>
</svg>
