<svg width="112" height="137" viewBox="0 0 112 137" fill="none" xmlns="http://www.w3.org/2000/svg">
<path d="M63.7416 7.42188C55.7271 7.42188 49.1813 14.0995 49.1813 22.2754C49.1813 31.9129 57.1515 42.9098 72.1806 56.3251C73.6699 57.6431 76.1015 57.5648 77.217 56.3371C86.5531 46.813 99.8406 34.5278 100.22 22.2754C100.22 14.0995 93.6732 7.42188 85.6587 7.42188C81.2905 7.42188 77.3767 9.41671 74.7002 12.5393C72.0235 9.41677 68.1099 7.42188 63.7416 7.42188ZM63.7416 11.5781C67.6982 11.5781 71.1241 13.805 72.9222 17.0865C73.6999 18.5051 75.7009 18.5051 76.4785 17.0865C78.2764 13.8051 81.7022 11.5781 85.6587 11.5781C91.468 11.5781 96.1453 16.3491 96.1453 22.2754C96.1453 29.5315 89.2922 40.1205 74.7065 53.0506C60.1125 39.9896 53.2555 29.3794 53.2555 22.2754C53.2555 16.3491 57.9323 11.5781 63.7416 11.5781ZM67.5357 66.5863L66.8095 66.7208C63.3333 67.3645 60.9915 70.8131 61.6222 74.3593C62.7988 80.9744 63.9758 87.5894 65.1526 94.2045L57.3684 81.1415C55.5329 78.0616 51.5379 77.067 48.5188 78.9391C48.3087 79.0701 48.098 79.2005 47.8876 79.331C44.8688 81.2034 43.8946 85.2791 45.7295 88.3588L54.7137 103.437L45.0734 98.1093C41.9668 96.3923 38.0251 97.5875 36.342 100.757L35.9905 101.419C34.3073 104.588 35.4786 108.609 38.5851 110.326L52.6102 118.077C54.0545 123.195 56.3279 127.387 59.7256 130.838V138.677C59.7256 141.912 62.3392 144.578 65.5104 144.578H87.9982C91.1694 144.578 93.7835 141.912 93.7835 138.677V130.955C96.6087 128.498 98.1451 126.106 99.7743 123.314C100.288 122.434 101.051 121.122 102.065 119.379C104.087 115.904 107.114 110.695 111.128 103.786C112.442 101.465 113.928 98.2419 113.763 95.6647C113.571 93.323 111.889 91.4027 109.908 90.8721C105.97 89.817 101.349 92.2724 98.402 97.0698L95.1317 101.722C94.2397 100.849 93.2708 100.044 92.2306 99.3112L93.723 76.7654C93.9612 73.1691 91.2551 70.009 87.7299 69.7661C87.4898 69.7513 87.2383 69.7329 86.9942 69.716C83.4692 69.4735 80.3717 72.2325 80.1335 75.8289L78.939 93.8858L75.0239 71.8786C73.9902 67.9432 70.9253 65.9725 67.5357 66.5863ZM71.0147 72.6207L75.3513 96.9969C75.5242 97.9685 76.3434 98.6818 77.3111 98.7035C78.3897 98.7277 79.4466 98.8218 80.4759 98.98C81.6535 99.1605 82.7311 98.2767 82.8113 97.0647L84.1982 76.109C84.2877 74.757 85.3945 73.7713 86.7196 73.8625L87.4557 73.9131C88.7812 74.0044 89.7474 75.1332 89.6579 76.4852L88.0864 100.225C88.0359 100.993 88.4066 101.728 89.0495 102.132C90.8994 103.297 92.4958 104.712 93.7694 106.3C94.6183 107.358 96.2198 107.306 97.0011 106.195C98.5875 103.904 100.245 101.632 101.814 99.3418C104.002 95.7349 107.62 94.6561 108.873 94.8924C109.322 94.977 109.643 95.2783 109.703 96.0094C109.777 96.922 109.36 98.8526 107.682 101.57C104.637 106.807 101.531 112.156 98.5621 117.258C97.5484 119.001 96.7848 120.311 96.2731 121.188C94.7453 123.946 92.6601 126.666 90.5282 128.315C90.013 128.707 89.7094 129.324 89.7093 129.98V138.677C89.7093 139.662 88.9641 140.422 87.9982 140.422H65.5104C64.5445 140.422 63.7998 139.662 63.7998 138.677V129.98C63.7997 129.403 63.5645 128.852 63.1505 128.459C59.7351 125.217 57.6257 121.433 56.263 116.117C56.1202 115.561 55.7578 115.09 55.2621 114.816L40.5263 106.671C39.3584 106.026 38.94 104.59 39.5728 103.398L39.9247 102.737C40.6842 101.395 42.143 101.254 43.1331 101.764L55.8137 108.772C56.761 109.296 57.9443 108.977 58.5138 108.043C58.8605 107.476 59.2453 106.924 59.6665 106.391C60.2058 105.709 60.268 104.756 59.822 104.007L49.2113 86.2C48.5215 85.0423 48.8696 83.5859 50.0043 82.8824C50.2142 82.7518 50.4244 82.6216 50.6345 82.4913C51.7861 81.8131 53.2729 82.2145 53.8871 83.2998L63.9426 100.175C64.4841 101.084 65.6105 101.429 66.5531 100.975C67.2159 100.656 67.9021 100.366 68.6093 100.109C69.5488 99.7671 70.1075 98.7816 69.9294 97.7804L65.6309 73.6176C65.3938 72.2845 66.2305 71.0521 67.5371 70.8103L68.2633 70.6757V70.6763H68.2638C69.8577 70.5377 70.7617 71.5202 71.0147 72.6207ZM89.6847 106.911C89.5012 106.905 89.3178 106.925 89.1395 106.97C85.7185 107.776 82.9155 109.465 81.0843 112.033C79.2532 114.602 78.4494 117.909 78.5006 121.732C78.5123 122.883 79.438 123.805 80.5658 123.789C81.6936 123.773 82.5942 122.826 82.5749 121.675C82.5319 118.47 83.1907 116.145 84.3796 114.478C85.5685 112.81 87.3424 111.659 90.0558 111.02C91.0636 110.799 91.7508 109.845 91.6562 108.798C91.5617 107.75 90.7152 106.94 89.6847 106.911Z" fill="white" fill-opacity="0.4"/>
</svg>
