<svg width="40" height="40" viewBox="0 0 40 40" fill="none" xmlns="http://www.w3.org/2000/svg">
<path d="M19.999 7.49984C20.4716 7.49984 20.8412 7.08683 20.8412 6.59476V1.80508C20.8412 1.31301 20.4716 0.9 19.999 0.9C19.5265 0.9 19.1568 1.31301 19.1568 1.80508V6.59476C19.1568 7.08683 19.5265 7.49984 19.999 7.49984Z" fill="white" stroke="white" stroke-width="0.2"/>
<path d="M14.6709 9.08084L14.6709 9.08084C14.8346 9.25828 15.0511 9.34859 15.2689 9.34859C15.4872 9.34859 15.7038 9.258 15.8675 9.0803L15.8675 9.08028C16.1925 8.72743 16.1922 8.15877 15.867 7.80619L15.867 7.80618L14.0913 5.88163L14.0913 5.88162C13.7615 5.52439 13.2239 5.52466 12.8945 5.88218L12.8945 5.88218C12.5696 6.23504 12.5698 6.8037 12.895 7.15627L12.895 7.15629L14.6709 9.08084Z" fill="white" stroke="white" stroke-width="0.2"/>
<path d="M25.2177 9.20724L25.2177 9.20723L27.1056 7.15774L27.1057 7.15773C27.4306 6.80488 27.4304 6.23622 27.1052 5.88364C26.7755 5.52627 26.2377 5.52668 25.9084 5.88408L25.9084 5.88409L24.0205 7.93359L24.0205 7.9336C23.6956 8.28645 23.6958 8.85511 24.021 9.20768C24.1848 9.38522 24.4013 9.47553 24.6192 9.47553C24.8374 9.47553 25.054 9.38494 25.2177 9.20724Z" fill="white" stroke="white" stroke-width="0.2"/>
<path d="M11.6095 23.7046L11.6096 23.7045L11.6111 23.7032L11.6095 23.7046ZM11.6095 23.7046L11.6093 23.7048L11.6093 23.7049L11.6092 23.7049C11.6092 23.7049 11.6093 23.7048 11.6095 23.7046ZM34.1387 22.1543H33.7277C34.1639 21.4748 34.42 20.6505 34.42 19.7631V18.6269C34.42 16.3179 32.6866 14.4255 30.5391 14.4255C28.3915 14.4255 26.6581 16.3179 26.6581 18.6268V19.2541L21.2481 13.3855L21.2481 13.3855C20.9204 13.0302 20.4392 12.9073 20.0001 13.0629C19.5611 12.9073 19.0797 13.0302 18.752 13.3856L18.752 13.3856L13.342 19.2541V18.6268C13.3419 16.3179 11.6085 14.4255 9.46094 14.4255C7.3134 14.4255 5.58001 16.3179 5.58001 18.6268V19.7631C5.58001 20.6505 5.83609 21.4747 6.2723 22.1542H5.86133C3.11804 22.1543 0.9 24.5725 0.9 27.5276V38.1949C0.9 38.687 1.26963 39.1 1.74219 39.1H4.87793C4.95187 39.1 5.02334 39.0895 5.09131 39.0703C5.15927 39.0895 5.23075 39.1 5.30469 39.1H13.6172C14.0897 39.1 14.4594 38.687 14.4594 38.1949V35.4576C14.4594 34.9656 14.0897 34.5526 13.6172 34.5526C13.1446 34.5526 12.775 34.9656 12.775 35.4576V37.2898H6.14687V28.2162C6.14687 27.7241 5.77725 27.3111 5.30469 27.3111C4.83213 27.3111 4.4625 27.7241 4.4625 28.2162V37.2898H2.58438V27.5276C2.58438 25.5551 4.06199 23.9645 5.86133 23.9645H11.0195C11.2522 23.9645 11.4615 23.863 11.6126 23.702L11.6127 23.7022L11.6179 23.6965L19.1414 15.5354C19.0502 17.0925 18.582 18.587 17.7741 19.8886L12.9167 27.7138L12.9166 27.7138C12.8241 27.8629 12.7751 28.0379 12.7751 28.2162V29.0975C12.7751 29.5896 13.1447 30.0026 13.6173 30.0026C14.0898 30.0026 14.4594 29.5896 14.4594 29.0975V28.4904L19.1753 20.8932L19.098 20.8452L19.1753 20.8932C19.4956 20.3773 19.7704 19.8358 20.0001 19.2754C20.2297 19.8358 20.5045 20.3773 20.8248 20.8932L25.5406 28.4904V38.1949C25.5406 38.687 25.9103 39.1 26.3828 39.1H34.6953C34.7693 39.1 34.8407 39.0895 34.9087 39.0703C34.9767 39.0895 35.0481 39.1 35.1221 39.1H38.2578C38.7304 39.1 39.1 38.687 39.1 38.1949V27.5276C39.1 24.5725 36.882 22.1543 34.1387 22.1543ZM7.26439 19.7631V18.6269C7.26439 17.3006 8.25735 16.2357 9.46094 16.2357C10.6645 16.2357 11.6575 17.3006 11.6575 18.6268V19.7631C11.6575 21.0894 10.6646 22.1543 9.46094 22.1543C8.25728 22.1543 7.26439 21.0894 7.26439 19.7631ZM28.3425 18.6268C28.3425 17.3006 29.3355 16.2357 30.5391 16.2357C31.7427 16.2357 32.7356 17.3006 32.7356 18.6268V19.7631C32.7356 21.0894 31.7427 22.1543 30.5391 22.1543C29.3354 22.1543 28.3425 21.0894 28.3425 19.7631V18.6268ZM37.4156 37.2898H35.5375V31.4322C35.5375 30.9402 35.1679 30.5272 34.6953 30.5272C34.2228 30.5272 33.8531 30.9402 33.8531 31.4322V37.2898H27.225V28.2162C27.225 28.0378 27.176 27.8629 27.0834 27.7138L22.2259 19.8886C21.4181 18.5871 20.9499 17.0926 20.8587 15.5355L28.3821 23.6965C28.3936 23.7089 28.4045 23.7196 28.4151 23.7292C28.5634 23.8739 28.7613 23.9646 28.9805 23.9646H34.1387C35.938 23.9646 37.4156 25.5553 37.4156 27.5277V37.2898Z" fill="white" stroke="white" stroke-width="0.2"/>
<path d="M35.2935 27.579L35.2937 27.5792C35.4492 27.7488 35.5375 27.98 35.5375 28.216C35.5375 28.4518 35.4493 28.684 35.2935 28.8529V27.579ZM35.2935 27.579C35.1375 27.4097 34.9198 27.3109 34.6953 27.3109C34.4708 27.3109 34.2531 27.4097 34.0971 27.579M35.2935 27.579L34.0971 27.579M34.0971 27.579C33.9413 27.748 33.8531 27.9802 33.8531 28.216M34.0971 27.579L33.8531 28.216M33.8531 28.216C33.8531 28.4517 33.9412 28.6839 34.0971 28.8529L33.8531 28.216ZM34.0971 28.853C34.2531 29.0222 34.4708 29.1211 34.6953 29.1211C34.9198 29.1211 35.1375 29.0222 35.2935 28.8529L34.0971 28.853Z" fill="white" stroke="white" stroke-width="0.2"/>
<path d="M13.0189 31.8417C13.175 31.6724 13.3927 31.5736 13.6172 31.5736C13.8417 31.5736 14.0594 31.6724 14.2154 31.8417M13.0189 31.8417L14.2154 33.1156C14.3711 32.9467 14.4594 32.7145 14.4594 32.4787C14.4594 32.2429 14.3712 32.0107 14.2154 31.8417M13.0189 31.8417C12.8632 32.0107 12.775 32.2429 12.775 32.4787C12.775 32.7144 12.8631 32.9467 13.019 33.1157C13.175 33.2849 13.3927 33.3837 13.6172 33.3837C13.8417 33.3837 14.0594 33.2849 14.2154 33.1156L13.0189 31.8417ZM14.2154 31.8417L14.1418 31.9095L14.2153 31.8417C14.2154 31.8417 14.2154 31.8417 14.2154 31.8417Z" fill="white" stroke="white" stroke-width="0.2"/>
</svg>
