<svg width="39" height="32" viewBox="0 0 39 32" fill="none" xmlns="http://www.w3.org/2000/svg">
<path d="M13.6823 21.3455C12.8673 20.5184 11.9518 19.7905 10.9541 19.1807L3.57244 14.6682C2.59568 14.0711 2 13.0088 2 11.864C2 10.4556 2.89736 9.2038 4.23108 8.7515L5.75998 8.23303" stroke="white" stroke-width="2.10369" stroke-miterlimit="10" stroke-linecap="round" stroke-linejoin="round"/>
<path d="M34.9643 27.9562H37.9379C37.9379 29.607 36.5998 30.9452 34.9489 30.9452H28.1872C24.2008 30.9452 20.4396 29.3216 17.7197 26.5326" stroke="white" stroke-width="2.10369" stroke-miterlimit="10" stroke-linecap="round" stroke-linejoin="round"/>
<path d="M24.8521 9.1119C22.696 10.1512 20.0295 9.77675 18.2413 7.98854C17.0271 6.77432 16.4647 5.15506 16.5542 3.56568C16.5776 3.15079 16.4301 2.74458 16.1403 2.44671C15.8432 2.14131 15.4281 1.97542 15.0029 2.00296C10.8737 2.27067 6.87203 4.91891 5.78271 8.27064" stroke="white" stroke-width="2.10369" stroke-miterlimit="10" stroke-linecap="round" stroke-linejoin="round"/>
<path d="M19.462 8.923C20.1703 7.22113 21.8177 6.02889 23.7496 5.92297L27.7612 17.5012C28.4292 19.429 29.8514 21.003 31.7019 21.8624L35.0372 23.4113C36.8062 24.2327 37.9379 26.0061 37.9379 27.9566H29.6564C25.2329 27.9566 21.0898 25.7908 18.565 22.1586C17.059 19.9921 15.1926 18.0999 13.0469 16.5644C10.3783 14.6547 8.13271 12.2146 6.4507 9.39698L5.77197 8.25997" stroke="white" stroke-width="2.10369" stroke-miterlimit="10" stroke-linecap="round" stroke-linejoin="round"/>
<path d="M10.5178 3.24011C12.105 4.73687 12.9595 6.95948 12.6161 9.28128C12.3371 11.1685 11.3195 12.7638 9.8999 13.8177" stroke="white" stroke-width="2.10369" stroke-miterlimit="10" stroke-linecap="round" stroke-linejoin="round"/>
<path d="M21.3105 9.59363L24.448 18.6489C24.8472 19.8012 25.4368 20.8728 26.1794 21.8226C27.8875 24.007 31.0693 24.3357 33.196 22.5562" stroke="white" stroke-width="2.10369" stroke-miterlimit="10" stroke-linecap="round" stroke-linejoin="round"/>
<path d="M22.71 13.3959L25.8519 12.1111" stroke="white" stroke-width="2.10369" stroke-miterlimit="10" stroke-linecap="round" stroke-linejoin="round"/>
<path d="M23.7222 16.3472L26.7925 15.0884" stroke="white" stroke-width="2.10369" stroke-miterlimit="10" stroke-linecap="round" stroke-linejoin="round"/>
<path d="M24.9414 19.589L27.8747 18.1384" stroke="white" stroke-width="2.10369" stroke-miterlimit="10" stroke-linecap="round" stroke-linejoin="round"/>
<path d="M26.854 22.4581L29.6785 20.6345" stroke="white" stroke-width="2.10369" stroke-miterlimit="10" stroke-linecap="round" stroke-linejoin="round"/>
<path d="M28.1875 30.9452H7.32324" stroke="white" stroke-width="2.10369" stroke-miterlimit="10" stroke-linecap="round" stroke-linejoin="round"/>
<path d="M3.8809 27.0199H2" stroke="white" stroke-width="2.10369" stroke-miterlimit="10" stroke-linecap="round" stroke-linejoin="round"/>
<path d="M12.6919 27.0199H6.76025" stroke="white" stroke-width="2.10369" stroke-miterlimit="10" stroke-linecap="round" stroke-linejoin="round"/>
<path d="M9.29739 23.0946H2" stroke="white" stroke-width="2.10369" stroke-miterlimit="10" stroke-linecap="round" stroke-linejoin="round"/>
</svg>
