<svg width="100" height="105" viewBox="0 0 100 105" fill="none" xmlns="http://www.w3.org/2000/svg">
<path d="M99.023 50.9147C90.7982 38.1104 90.2622 34.511 90.239 34.3233C86.3696 -5.73732 38.9516 -7.81375 20.0021 13.1093C18.7311 14.6901 21.1241 16.7107 22.4234 15.1285C39.8001 -3.92261 83.5694 -2.18359 87.0988 34.556C87.1221 35.2152 87.731 39.1859 96.4038 52.6872C96.6893 53.1439 96.8121 53.6836 96.7522 54.2189C96.6374 54.7359 96.2391 55.1571 95.5115 55.6203C93.0501 56.9902 90.4993 58.1928 87.8763 59.2197C85.528 59.8415 88.5308 69.8453 87.0335 76.2782C87.152 78.5064 79.2092 80.1212 73.5669 79.6819C70.0405 79.6821 68.7769 81.5048 68.7769 83.1857V95.0099C66.1407 103.476 40.0397 101.763 33.9175 97.6715C33.0737 97.1509 32.6311 96.1703 32.7989 95.1938C33.4308 90.7558 34.0127 82.0639 30.5551 73.5557C29.818 71.6391 26.8577 72.8506 27.6413 74.7351C30.8193 82.5807 30.2794 90.6219 29.6707 94.7305C29.3316 96.9853 30.3912 99.2208 32.3509 100.386C41.0968 105.471 60.281 105.457 68.9684 100.359C70.8227 99.2225 71.9536 97.2042 71.955 95.0292L71.936 83.205C71.964 83.0372 73.1278 82.7542 73.8966 82.8222C92.7186 83.5824 91.2399 75.9698 90.1625 61.7009C94.7311 59.7086 102.799 57.0164 99.023 50.9147Z" fill="white"/>
<path d="M55.8731 66.1656C71.5604 67.5153 81.2065 47.7088 81.7953 43.156C82.5961 40.091 70.8253 37.4826 68.3904 37.0646C68.5149 34.7049 68.9002 22.8426 65.829 22.9199C65.3845 22.9201 58.1437 23.1078 51.2781 26.707C48.976 22.1804 45.7902 18.161 41.9084 14.8867C38.812 13.103 31.8762 24.1517 30.5628 26.7263C23.6704 23.1269 16.4488 22.9394 16.0123 22.9394C12.9283 22.9983 13.3146 34.5986 13.4124 37.0648C10.9373 37.4946 -0.660867 40.0624 0.0295889 43.1412C0.217471 43.7503 4.24191 58.2356 15.641 63.8913C22.3733 68.2414 37.022 65.1325 40.913 62.846C42.923 63.7189 49.0191 66.1656 55.8731 66.1656ZM67.9537 40.2734C71.5618 40.8446 75.0652 41.9479 78.3497 43.5474C74.5523 56.0894 62.8381 67.3994 46.714 61.586C55.2386 60.03 67.004 51.2521 67.9691 40.258L67.9537 40.2734ZM64.6033 26.1442C67.888 39.4306 62.2842 55.388 45.412 58.6223C50.8147 53.1101 57.0154 39.3594 52.5263 29.6362C57.2439 27.1282 62.2905 26.3815 64.6033 26.1442ZM40.913 18.2487C54.4425 29.7563 53.2843 47.1725 40.913 58.9058C28.4939 47.1127 27.4384 29.7736 40.913 18.2487ZM17.2224 26.1442C19.5198 26.3815 24.5818 27.1282 29.3223 29.6516C24.764 39.3839 31.037 53.1719 36.4292 58.6875C19.3356 55.1293 14.0495 39.7142 17.2224 26.1442ZM17.0347 61.0997C8.71801 56.9758 4.65156 46.9895 3.45691 43.5319C6.74058 41.9382 10.2347 40.8204 13.8336 40.2122C14.8863 51.3729 26.4682 59.9215 35.1156 61.5708C30.3753 62.9722 23.1537 64.1401 17.0347 61.0997Z" fill="white"/>
</svg>
