<svg width="100" height="100" viewBox="0 0 100 100" fill="none" xmlns="http://www.w3.org/2000/svg">
<path d="M80.11 31.0364C81.6221 31.0331 83.107 30.6336 84.4166 29.8775C85.7262 29.1214 86.8147 28.0353 87.5737 26.7273C87.7256 26.4648 87.8056 26.1669 87.8056 25.8636C87.8056 25.5604 87.7256 25.2625 87.5737 25C86.8173 23.6898 85.7293 22.6019 84.4191 21.8455C83.109 21.0891 81.6229 20.6909 80.1101 20.6909C78.5973 20.6909 77.1112 21.0891 75.801 21.8455C74.4909 22.6019 73.4029 23.6898 72.6464 25C72.4945 25.2625 72.4146 25.5604 72.4146 25.8636C72.4146 26.1669 72.4945 26.4648 72.6464 26.7273C73.4054 28.0352 74.4939 29.1214 75.8035 29.8774C77.113 30.6335 78.5979 31.0331 80.11 31.0364ZM80.11 24.1394C80.837 24.141 81.5555 24.2954 82.2191 24.5924C82.8827 24.8894 83.4764 25.3225 83.962 25.8636C83.4775 26.4061 82.884 26.8401 82.2202 27.1372C81.5564 27.4343 80.8373 27.5879 80.1101 27.5879C79.3828 27.5879 78.6638 27.4343 78 27.1372C77.3362 26.8401 76.7426 26.4061 76.2581 25.8636C76.7437 25.3225 77.3374 24.8895 78.001 24.5924C78.6645 24.2954 79.383 24.1411 80.11 24.1394Z" fill="white"/>
<path d="M91.3076 86.8099C90.1749 85.8807 88.8372 84.8895 87.3206 83.8532C94.8122 79.3872 100 70.011 100 60.3485C100 51.5902 96.5492 41.0941 88.84 37.3885C85.6517 35.8561 80.7467 35.0608 74.3051 38.5914C73.9971 35.5123 73.0616 32.9382 72.181 30.5215C70.5171 25.9557 69.2029 22.3494 72.2325 16.2894L69.1486 14.747C65.4547 22.1354 67.2271 26.9989 68.9413 31.7024C69.938 34.4375 70.9537 37.2279 70.9455 40.7435C70.8593 40.8057 70.7759 40.8644 70.6901 40.9282C65.9577 37.4077 61.9176 36.1697 58.6215 36.0936V25.8637C58.6196 25.4909 58.4988 25.1285 58.2767 24.8291L48.2775 11.4951V1.72424C48.2775 1.26695 48.0958 0.828378 47.7725 0.505019C47.4492 0.181661 47.0106 0 46.5534 0H15.5199C15.0626 0 14.6241 0.181661 14.3008 0.505019C13.9774 0.828378 13.7958 1.26695 13.7958 1.72424V11.4951L3.79609 24.8291C3.57403 25.1285 3.45324 25.4909 3.45127 25.8637V63.1819C1.90704 64.118 0.783678 65.6141 0.315377 67.3582C-0.412833 69.8709 -0.233528 73.5224 4.75662 76.6549C5.91549 77.3662 7.13415 77.9752 8.39875 78.4749C3.28835 81.2535 2.67651 84.6606 2.69483 86.2057C2.73254 89.3635 5.19928 92.1113 8.97912 93.2075C9.54093 93.3678 10.1226 93.4476 10.7069 93.4445C13.8134 93.4445 17.6487 91.3429 22.1395 87.1726C23.4897 85.9189 24.7256 84.6425 25.7583 83.5148C25.9406 85.0468 26.4861 86.5131 27.3495 87.7916C29.4429 90.8922 33.4374 93.1141 40.7057 95.2209C47.6915 97.2459 60.8935 99.1652 72.097 99.7861C74.7062 99.9305 77.1589 100.002 79.4149 100.002C82.1506 100.025 84.8853 99.8844 87.6043 99.5811C92.8987 98.9276 95.6803 97.5336 96.3581 95.1949C97.0359 92.8561 95.4312 90.1935 91.3076 86.8099ZM70.4966 44.8142C70.2532 45.9448 69.9355 47.0581 69.5456 48.1469C68.8507 47.9884 68.1958 47.6886 67.6217 47.2661C67.0477 46.8436 66.5666 46.3075 66.2086 45.6912L63.2238 47.418C63.9808 48.7283 65.0692 49.8163 66.3797 50.5727C67.6903 51.3291 69.1768 51.7274 70.6899 51.7274C72.2031 51.7274 73.6896 51.3291 75.0001 50.5727C76.3106 49.8163 77.3991 48.7283 78.1561 47.418L75.1712 45.6912C74.7343 46.4433 74.1151 47.0733 73.3707 47.5232C73.8482 45.9171 74.1672 44.268 74.323 42.5996C79.18 39.4481 83.6412 38.7151 87.3457 40.4958C92.7664 43.1018 96.5518 51.2652 96.5518 60.3485C96.5518 69.3452 91.2197 78.3464 84.0238 81.705C82.274 80.6134 80.3618 79.4872 78.3127 78.3428C68.5139 72.8754 56.3307 67.4369 49.3457 65.4124C47.8408 64.9762 46.4536 64.6206 45.1668 64.3419C44.9445 63.0223 44.8316 61.6867 44.8293 60.3485C44.8293 51.2652 48.6147 43.1018 54.0348 40.4967C58.3808 38.4075 63.7677 39.7755 69.6134 44.4525C69.8676 44.6543 70.1739 44.7797 70.4966 44.8142ZM6.89944 27.5879H34.4848V37.9334H6.89944V27.5879ZM37.933 27.5879H55.1738V36.4535C54.2655 36.6708 53.383 36.9842 52.5411 37.3885C44.8319 41.0941 41.3811 51.5902 41.3811 60.3485C41.3825 61.4828 41.4541 62.6158 41.5953 63.7412C40.3803 63.5946 39.1543 63.5606 37.933 63.6399V27.5879ZM39.657 24.1394L46.5534 14.9434L53.4497 24.1394H39.657ZM17.2439 3.44849H44.8293V10.3455H17.2439V3.44849ZM16.3819 13.794H43.1052L35.3468 24.1394H8.62352L16.3819 13.794ZM6.89944 41.3819H34.4848V64.3848C34.3505 64.4369 34.2171 64.4908 34.0863 64.5481C32.6736 65.165 31.4286 66.1102 30.4547 67.3052C30.1843 65.8008 29.8237 64.0643 29.3537 62.2851C27.4841 55.2088 24.828 51.1256 21.4589 50.1492C17.6788 49.0534 14.1246 50.0565 12.4049 52.705C11.5644 53.9999 10.2582 57.207 13.0911 62.2879C11.755 62.0341 10.3993 61.8971 9.03946 61.8784H8.97481C8.28088 61.8759 7.58767 61.9232 6.90052 62.02L6.89944 41.3819ZM9.93814 89.8952C7.65114 89.2324 6.1611 87.7679 6.14192 86.1646C6.12037 84.3375 8.12462 81.7445 13.8171 79.9467C14.1699 79.8352 14.4775 79.6132 14.6944 79.3134C14.9113 79.0136 15.026 78.6519 15.0215 78.2819C15.0171 77.9119 14.8937 77.5531 14.6697 77.2586C14.4457 76.9641 14.1328 76.7495 13.7775 76.6465C5.97792 74.3854 2.65712 71.6613 3.62691 68.3184C4.20362 66.3282 5.94731 65.3363 8.90994 65.3363C10.9239 65.3363 13.5016 65.795 16.6584 66.7099C17.0138 66.8129 17.3929 66.7989 17.7397 66.6698C18.0865 66.5407 18.3826 66.3035 18.5842 65.9931C18.7858 65.6828 18.8821 65.3158 18.8591 64.9464C18.836 64.5771 18.6948 64.225 18.4562 63.9421C14.6078 59.3787 14.3001 56.1157 15.2955 54.5835C16.169 53.2388 18.2112 52.7985 20.4982 53.4613C24.2306 54.5432 26.915 64.8652 27.6768 72.0482L25.9437 78.0281C21.4593 83.6905 13.6716 90.9767 9.93922 89.8952H9.93814ZM93.0476 94.2377C92.8067 95.0692 88.4758 97.2409 72.2879 96.3447C69.571 96.1938 66.7375 95.9667 63.9091 95.6798L65.5927 89.8702L62.2809 88.9102L60.4301 95.2968C53.0596 94.422 46.0691 93.187 41.6658 91.9106C35.3238 90.0724 31.7896 88.2074 30.2071 85.8637C28.7632 83.7252 28.7378 80.7748 30.1209 75.9982C31.5041 71.2216 33.1044 68.7419 35.4679 67.7072C36.4722 67.2675 37.6853 67.0455 39.1644 67.0455C41.501 67.0455 44.5004 67.5998 48.3841 68.7253C48.9031 68.8762 49.4552 69.0486 50.0311 69.2366L45.7209 84.1103L49.0326 85.0703L53.2879 70.3867C60.0693 72.934 69.0585 77.1297 76.6311 81.3552C78.4727 82.3827 80.1151 83.3461 81.5818 84.2476L79.8002 90.3978L83.1119 91.358L84.6113 86.1853C91.7867 90.9769 93.233 93.5961 93.0476 94.2377Z" fill="white"/>
</svg>
