<svg width="30" height="35" viewBox="0 0 30 35" fill="none" xmlns="http://www.w3.org/2000/svg">
<path d="M7.02791 2.80764C8.91803 1.66052 11.1363 1 13.5087 1C19.8549 1 25.6562 4.48629 25.6562 12.3843L28.6029 16.9306C29.2826 18.1644 28.3902 19.6751 26.9816 19.6751H26.0459C25.6846 19.6751 25.3918 19.9679 25.3918 20.3292V26.0017C25.3918 27.6494 24.0561 28.9851 22.4084 28.9851H20.3072C19.5846 28.9851 18.9989 29.5708 18.9989 30.2933V31.8087C18.9989 32.5312 18.4133 33.1169 17.6907 33.1169H8.6658C7.94327 33.1169 7.35758 32.5312 7.35758 31.8087V25.4923C7.35758 24.8436 7.03798 24.2355 6.50095 23.8717C3.18146 21.6226 1 17.8204 1 13.5087C1 11.0939 1.68427 8.83901 2.86945 6.92717" stroke="white" stroke-width="1.88016" stroke-miterlimit="10" stroke-linecap="round" stroke-linejoin="round"/>
<path d="M14.2688 15.6403L13.8718 16.0372L13.4749 15.6403C10.7102 12.8756 10.7102 8.39303 13.4749 5.62829L13.7911 5.3121C13.8357 5.26755 13.9079 5.26755 13.9525 5.3121L14.2687 5.62829C17.0335 8.3931 17.0335 12.8756 14.2688 15.6403Z" stroke="white" stroke-width="1.88016" stroke-miterlimit="10" stroke-linecap="round" stroke-linejoin="round"/>
<path d="M16.4167 10.3373C17.1016 9.72331 17.898 9.23142 18.7711 8.89495C19.527 8.60393 20.3397 8.42935 21.1893 8.39311C21.371 8.38533 21.5208 8.53577 21.513 8.71821C21.4285 10.6985 20.5909 12.4844 19.2793 13.7961C17.8987 15.1774 15.9922 16.0327 13.8862 16.0376" stroke="white" stroke-width="1.88016" stroke-miterlimit="10" stroke-linecap="round" stroke-linejoin="round"/>
<path d="M18.4616 14.506C19.4743 14.6508 20.4541 15.0825 21.2694 15.8014C21.4118 15.927 21.4121 16.1473 21.2697 16.273C20.2487 17.1735 18.9695 17.6236 17.6906 17.6236C16.3058 17.6236 14.921 17.0962 13.8638 16.0408C13.8625 16.0395 13.8616 16.0386 13.8604 16.0374C13.8616 16.0361 13.8625 16.0352 13.8638 16.034" stroke="white" stroke-width="1.88016" stroke-miterlimit="10" stroke-linecap="round" stroke-linejoin="round"/>
<path d="M13.8637 16.034C13.8649 16.0352 13.8658 16.0361 13.8671 16.0374C13.8658 16.0386 13.8649 16.0395 13.8637 16.0408C12.8064 17.0962 11.4216 17.6236 10.0369 17.6236C8.75795 17.6236 7.4787 17.1735 6.45776 16.273C6.31529 16.1473 6.31562 15.927 6.45809 15.8014C7.27311 15.0826 8.25291 14.6507 9.2656 14.506" stroke="white" stroke-width="1.88016" stroke-miterlimit="10" stroke-linecap="round" stroke-linejoin="round"/>
<path d="M11.3261 10.3507C10.6376 9.73038 9.83552 9.23352 8.95607 8.89495C8.20011 8.60393 7.38744 8.42935 6.53782 8.39311C6.3561 8.38533 6.20631 8.53577 6.21416 8.71821C6.29861 10.6985 7.1362 12.4844 8.44789 13.7961C9.82846 15.1774 11.7349 16.0327 13.8409 16.0376" stroke="white" stroke-width="1.88016" stroke-miterlimit="10" stroke-linecap="round" stroke-linejoin="round"/>
</svg>
