<svg width="10" height="11" viewBox="0 0 10 11" fill="none" xmlns="http://www.w3.org/2000/svg">
<path d="M8.3373 1.70801H2.55448C2.4716 1.70801 2.39212 1.74093 2.33351 1.79954C2.27491 1.85814 2.24198 1.93763 2.24198 2.02051C2.24198 2.10339 2.27491 2.18287 2.33351 2.24148C2.39212 2.30008 2.4716 2.33301 2.55448 2.33301H7.72448L1.3123 8.74551C1.2813 8.77404 1.25639 8.80854 1.23907 8.84694C1.22175 8.88534 1.21237 8.92685 1.21149 8.96897C1.21062 9.01109 1.21827 9.05295 1.23399 9.09203C1.24971 9.13112 1.27317 9.16662 1.30295 9.19641C1.33274 9.2262 1.36825 9.24966 1.40733 9.26538C1.44642 9.28109 1.48828 9.28875 1.5304 9.28787C1.57252 9.287 1.61403 9.27762 1.65243 9.2603C1.69083 9.24298 1.72533 9.21807 1.75386 9.18707L8.16636 2.77457V7.94488C8.16636 8.02776 8.19928 8.10725 8.25789 8.16585C8.31649 8.22446 8.39598 8.25738 8.47886 8.25738C8.56174 8.25738 8.64123 8.22446 8.69983 8.16585C8.75844 8.10725 8.79136 8.02776 8.79136 7.94488V2.16238C8.79119 2.04198 8.74331 1.92655 8.6582 1.84138C8.5731 1.75622 8.4577 1.70826 8.3373 1.70801Z" fill="white"/>
</svg>
