<svg width="73" height="54" viewBox="0 0 73 54" fill="none" xmlns="http://www.w3.org/2000/svg">
<path fill-rule="evenodd" clip-rule="evenodd" d="M11.5182 15.0447V38.6959C11.5182 40.7915 7.67871 40.7915 7.67871 38.6959V15.0447C7.67871 12.9491 11.5182 12.9491 11.5182 15.0447Z" fill="white"/>
<path fill-rule="evenodd" clip-rule="evenodd" d="M19.1974 8.47918V45.2615C19.1974 47.3571 15.3579 47.3571 15.3579 45.2615V8.47918C15.3579 6.38357 19.1974 6.38357 19.1974 8.47918Z" fill="white"/>
<path fill-rule="evenodd" clip-rule="evenodd" d="M26.8761 21.4051V32.3354C26.8761 34.431 23.0366 34.431 23.0366 32.3354V21.4051C23.0366 19.3095 26.8761 19.3095 26.8761 21.4051Z" fill="white"/>
<path fill-rule="evenodd" clip-rule="evenodd" d="M34.5548 14.6259V39.1146C34.5548 41.2101 30.7153 41.2101 30.7153 39.1146V14.6259C30.7153 12.5304 34.5548 12.5304 34.5548 14.6259Z" fill="white"/>
<path fill-rule="evenodd" clip-rule="evenodd" d="M42.234 1.57171V52.1691C42.234 54.2647 38.3945 54.2647 38.3945 52.1691V1.57171C38.3945 -0.523905 42.234 -0.523905 42.234 1.57171Z" fill="white"/>
<path fill-rule="evenodd" clip-rule="evenodd" d="M49.9127 8.48276V45.2578C49.9128 47.3534 46.0732 47.3534 46.0732 45.2578V8.48281C46.0731 6.38719 49.9127 6.38714 49.9127 8.48276Z" fill="white"/>
<path fill-rule="evenodd" clip-rule="evenodd" d="M57.5914 19.9208V33.8197C57.5914 35.9154 53.752 35.9154 53.752 33.8197V19.9208C53.752 17.8252 57.5914 17.8252 57.5914 19.9208Z" fill="white"/>
<path fill-rule="evenodd" clip-rule="evenodd" d="M65.2706 15.046V38.6945C65.2707 40.7901 61.4311 40.7901 61.4312 38.6945V15.046C61.4312 12.9505 65.2706 12.9505 65.2706 15.046Z" fill="white"/>
<path fill-rule="evenodd" clip-rule="evenodd" d="M72.9493 19.917V33.8235C72.9493 35.9191 69.1099 35.9191 69.1099 33.8235V19.917C69.1099 17.8214 72.9493 17.8214 72.9493 19.917Z" fill="white"/>
<path fill-rule="evenodd" clip-rule="evenodd" d="M3.83946 19.917V33.8235C3.83946 35.9191 0 35.9191 0 33.8235V19.917C0 17.8214 3.83946 17.8214 3.83946 19.917Z" fill="white"/>
</svg>
