<svg width="77" height="130" viewBox="0 0 77 130" fill="none" xmlns="http://www.w3.org/2000/svg">
<path d="M28.7416 0.421875C20.7271 0.421875 14.1813 7.09949 14.1813 15.2754C14.1813 24.9129 22.1515 35.9098 37.1806 49.3251C38.6699 50.6431 41.1015 50.5648 42.217 49.3371C51.5531 39.813 64.8406 27.5278 65.2195 15.2754C65.2195 7.09949 58.6732 0.421875 50.6587 0.421875C46.2905 0.421875 42.3767 2.41671 39.7002 5.53926C37.0235 2.41677 33.1099 0.421875 28.7416 0.421875ZM28.7416 4.57812C32.6982 4.57812 36.1241 6.80502 37.9222 10.0865C38.6999 11.5051 40.7009 11.5051 41.4785 10.0865C43.2764 6.80513 46.7022 4.57812 50.6587 4.57812C56.468 4.57812 61.1453 9.34908 61.1453 15.2754C61.1453 22.5315 54.2922 33.1205 39.7065 46.0506C25.1125 32.9896 18.2555 22.3794 18.2555 15.2754C18.2555 9.34908 22.9323 4.57812 28.7416 4.57812ZM32.5357 59.5863L31.8095 59.7208C28.3333 60.3645 25.9915 63.8131 26.6222 67.3593C27.7988 73.9744 28.9758 80.5894 30.1526 87.2045L22.3684 74.1415C20.5329 71.0616 16.5379 70.067 13.5188 71.9391C13.3087 72.0701 13.098 72.2005 12.8876 72.331C9.86885 74.2034 8.89457 78.2791 10.7295 81.3588L19.7137 96.4373L10.0734 91.1093C6.96678 89.3923 3.02514 90.5875 1.34201 93.7566L0.990514 94.419C-0.692656 97.5882 0.478553 101.609 3.5851 103.326L17.6102 111.077C19.0545 116.195 21.3279 120.387 24.7256 123.838V131.677C24.7256 134.912 27.3392 137.578 30.5104 137.578H52.9982C56.1694 137.578 58.7835 134.912 58.7835 131.677V123.955C61.6087 121.498 63.1451 119.106 64.7743 116.314C65.2879 115.434 66.051 114.122 67.0652 112.379C69.0872 108.904 72.1142 103.695 76.1285 96.7857C77.4419 94.4649 78.9275 91.2419 78.7626 88.6647C78.5715 86.323 76.8888 84.4027 74.908 83.8721C70.97 82.817 66.349 85.2724 63.402 90.0698L60.1317 94.7219C59.2397 93.8489 58.2708 93.0436 57.2306 92.3112L58.723 69.7654C58.9612 66.1691 56.2551 63.009 52.7299 62.7661C52.4898 62.7513 52.2383 62.7329 51.9942 62.716C48.4692 62.4735 45.3717 65.2325 45.1335 68.8289L43.939 86.8858L40.0239 64.8786C38.9902 60.9432 35.9253 58.9725 32.5357 59.5863ZM36.0147 65.6207L40.3513 89.9969C40.5242 90.9685 41.3434 91.6818 42.3111 91.7035C43.3897 91.7277 44.4466 91.8218 45.4759 91.98C46.6535 92.1605 47.7311 91.2767 47.8113 90.0647L49.1982 69.109C49.2877 67.757 50.3945 66.7713 51.7196 66.8625L52.4557 66.9131C53.7812 67.0044 54.7474 68.1332 54.6579 69.4852L53.0864 93.2245C53.0359 93.9935 53.4066 94.7278 54.0495 95.1324C55.8994 96.2972 57.4958 97.7123 58.7694 99.2998C59.6183 100.358 61.2198 100.306 62.0011 99.195C63.5875 96.9044 65.2451 94.6318 66.8137 92.3418C69.0017 88.7349 72.6201 87.6561 73.8731 87.8924C74.3217 87.977 74.6433 88.2783 74.703 89.0094C74.7775 89.922 74.3603 91.8526 72.6818 94.5698C69.6369 99.8066 66.5306 105.156 63.5621 110.258C62.5484 112.001 61.7848 113.311 61.2731 114.188C59.7453 116.946 57.6601 119.666 55.5282 121.315C55.013 121.707 54.7094 122.324 54.7093 122.98V131.677C54.7093 132.662 53.9641 133.422 52.9982 133.422H30.5104C29.5445 133.422 28.7998 132.662 28.7998 131.677V122.98C28.7997 122.403 28.5645 121.852 28.1505 121.459C24.7351 118.217 22.6257 114.433 21.263 109.117C21.1202 108.561 20.7578 108.09 20.2621 107.816L5.52629 99.6714C4.3584 99.0259 3.94002 97.5897 4.57276 96.3983L4.9247 95.7368C5.68419 94.3949 7.14301 94.2542 8.13315 94.7636L20.8137 101.772C21.761 102.296 22.9443 101.977 23.5138 101.043C23.8605 100.476 24.2453 99.9237 24.6665 99.3912C25.2058 98.7093 25.268 97.7556 24.822 97.0069L14.2113 79.2C13.5215 78.0423 13.8696 76.5859 15.0043 75.8824C15.2142 75.7518 15.4244 75.6216 15.6345 75.4913C16.7861 74.8131 18.2729 75.2145 18.8871 76.2998L28.9426 93.1753C29.4841 94.0839 30.6105 94.4289 31.5531 93.975C32.2159 93.6557 32.9021 93.3663 33.6093 93.109C34.5488 92.7671 35.1075 91.7816 34.9294 90.7804L30.6309 66.6176C30.3938 65.2845 31.2305 64.0521 32.5371 63.8103L33.2633 63.6757V63.6763H33.2638C34.8577 63.5377 35.7617 64.5202 36.0147 65.6207ZM54.6847 99.9107C54.5012 99.9053 54.3178 99.9253 54.1395 99.9701C50.7185 100.776 47.9155 102.465 46.0843 105.033C44.2532 107.602 43.4494 110.909 43.5006 114.732C43.5123 115.883 44.438 116.805 45.5658 116.789C46.6936 116.773 47.5942 115.826 47.5749 114.675C47.5319 111.47 48.1907 109.145 49.3796 107.478C50.5685 105.81 52.3424 104.659 55.0558 104.02C56.0636 103.799 56.7508 102.845 56.6562 101.798C56.5617 100.75 55.7152 99.9403 54.6847 99.9107Z" fill="white" fill-opacity="0.4"/>
</svg>
