<svg width="49" height="48" viewBox="0 0 49 48" fill="none" xmlns="http://www.w3.org/2000/svg">
<path d="M38.0031 41.6454L33.6484 21.8076L42.1158 13.3402C45.7446 9.71134 46.9543 4.87285 45.7446 2.45361C43.3254 1.24399 38.4869 2.45361 34.858 6.08247L26.3907 14.5498L6.55288 10.1952C5.34326 9.95326 4.37556 10.4371 3.89171 11.4048L3.16594 12.6144C2.68209 13.8241 2.92402 15.0337 3.89171 15.7595L16.7137 24.2268L11.8752 31.4845H4.61749L2.19824 33.9038L9.45597 38.7423L14.2945 46L16.7137 43.5808V36.323L23.9714 31.4845L32.4388 44.3065C33.1646 45.2742 34.3742 45.5162 35.5838 45.0323L36.7934 44.5485C37.7611 43.8227 38.245 42.855 38.0031 41.6454Z" stroke="#343636" stroke-width="4" stroke-linecap="round" stroke-linejoin="round"/>
</svg>
