<svg width="64" height="48" viewBox="0 0 64 48" fill="none" xmlns="http://www.w3.org/2000/svg">
<path d="M32.0606 45.9676C32.142 45.9321 32.0706 46.0558 32.0606 45.9676ZM32.0606 45.9676C31.9793 45.9321 32.0507 46.0558 32.0606 45.9676ZM32.0606 45.9676C31.275 38.9971 30.0976 31.6295 32.0606 26.7774M32.0606 45.9676C30.9959 36.5212 22.774 26.4241 13.8568 25.2092M32.0606 45.9676C33.1254 36.5212 41.3473 26.4241 50.2645 25.2092M32.0606 45.9676C17.7697 45.9676 7.00669 39.7585 2.16355 26.5813C1.81865 25.6429 10.7268 24.52 13.8568 25.2092M32.0606 45.9676C46.3515 45.9676 57.1146 39.7585 61.9577 26.5813C62.3026 25.6429 52.5497 24.52 50.2645 25.2092M32.0606 26.7774C30.3832 22.6313 27.3425 19.0422 23.2507 16.7411M32.0606 26.7774C33.7381 22.6313 36.7788 19.0422 40.8706 16.7411M13.8568 25.2092C13.5838 23.2053 13.6091 21.1238 13.9734 19.0188L14.8922 13.7103C14.9192 13.5546 15.0806 13.4614 15.2289 13.5159L20.2856 15.3744C21.3263 15.757 22.316 16.2154 23.2507 16.7411M50.2645 25.2092C50.5375 23.2053 50.5122 21.1238 50.1478 19.0188L49.229 13.7103C49.2021 13.5546 49.0407 13.4614 48.8924 13.5159L43.8357 15.3744C42.7949 15.757 41.8053 16.2154 40.8706 16.7411M23.2507 16.7411V16.7411C25.049 11.8626 27.6599 7.3235 30.9727 3.31609L31.7911 2.32601C31.9343 2.15288 32.1967 2.14434 32.3508 2.30778L33.7943 3.83898C37.2139 7.46645 39.6497 11.9077 40.8706 16.7411V16.7411" stroke="#343636" stroke-width="4" stroke-linecap="round"/>
</svg>
