<svg width="52" height="48" viewBox="0 0 52 48" fill="none" xmlns="http://www.w3.org/2000/svg">
<path d="M18.7727 15.6191H35.5346" stroke="#343636" stroke-width="4" stroke-linecap="round"/>
<path d="M18.7727 21.9043H35.5346" stroke="#343636" stroke-width="4" stroke-linecap="round"/>
<path d="M19 28H26" stroke="#343636" stroke-width="4" stroke-linecap="round"/>
<path d="M49.1538 43.9047L44.7311 30.6365C46.8327 26.4344 47.3705 21.6215 46.2481 17.0592C45.1257 12.4969 42.4164 8.48284 38.605 5.73544C34.7936 2.98804 30.129 1.68657 25.4458 2.06396C20.7626 2.44134 16.3666 4.47294 13.0443 7.79518C9.72206 11.1174 7.69046 15.5135 7.31308 20.1967C6.93569 24.8799 8.23716 29.5445 10.9846 33.3559C13.732 37.1672 17.746 39.8765 22.3083 40.9989C26.8707 42.1214 31.6835 41.5836 35.8856 39.482L49.1538 43.9047Z" stroke="#343636" stroke-width="4" stroke-linecap="round" stroke-linejoin="round"/>
<path d="M7.98675 27.2588C7.65447 27.4416 7.33211 27.6452 7.02167 27.869C5.21128 29.174 3.92436 31.0807 3.39121 33.2478C2.85807 35.4149 3.1135 37.701 4.11178 39.697L2.01099 45.9994L8.31338 43.8986C10.3094 44.8969 12.5955 45.1523 14.7626 44.6191C16.9297 44.086 18.8364 42.7991 20.1414 40.9887C20.2532 40.8336 20.3599 40.6756 20.4615 40.5148" stroke="#343636" stroke-width="4" stroke-linecap="round" stroke-linejoin="round"/>
</svg>
