<svg width="47" height="48" viewBox="0 0 47 48" fill="none" xmlns="http://www.w3.org/2000/svg">
<path d="M22.9879 11.2207H22.1084C19.9282 11.2207 17.7944 11.8508 15.9639 13.0353V13.0353C12.7428 15.1195 10.7979 18.6946 10.7979 22.5313L10.7979 23.446C10.7979 26.4014 12.0809 29.2112 14.3142 31.1467L16.0272 32.6313C17.1726 33.624 17.8306 35.065 17.8306 36.5806V37.1473C17.8306 37.9672 18.1096 38.7627 18.6218 39.4029V39.4029C19.3071 40.2595 20.3445 40.7581 21.4414 40.7581H22.9879" stroke="#343636" stroke-width="4"/>
<path d="M22.9882 11.2207H23.8676C26.0479 11.2207 28.1817 11.8508 30.0121 13.0353V13.0353C33.2333 15.1195 35.1782 18.6946 35.1782 22.5313L35.1782 23.446C35.1782 26.4014 33.8952 29.2112 31.6619 31.1467L29.9489 32.6313C28.8035 33.624 28.1455 35.065 28.1455 36.5806V37.1473C28.1455 37.9672 27.8665 38.7627 27.3543 39.4029V39.4029C26.669 40.2595 25.6316 40.7581 24.5346 40.7581H22.9882" stroke="#343636" stroke-width="4"/>
<path d="M19.3953 39.8604V43.9999C19.3953 45.1045 20.2907 45.9999 21.3953 45.9999H24.5581C25.6626 45.9999 26.5581 45.1045 26.5581 43.9999V39.8604" stroke="#343636" stroke-width="4"/>
<path d="M23.4568 2L23.4568 4.53178" stroke="#343636" stroke-width="4" stroke-linecap="round"/>
<path d="M4.53174 23.4561L1.99996 23.4561" stroke="#343636" stroke-width="4" stroke-linecap="round"/>
<path d="M9.0332 10.7207L7.24297 8.93047" stroke="#343636" stroke-width="4" stroke-linecap="round"/>
<path d="M37.1389 10.7207L38.9292 8.93047" stroke="#343636" stroke-width="4" stroke-linecap="round"/>
<path d="M44.0696 23.4561L41.5378 23.4561" stroke="#343636" stroke-width="4" stroke-linecap="round"/>
<path d="M16.8848 21.9482L16.9265 21.5307C17.1483 19.3134 18.8897 17.5527 21.1044 17.3066V17.3066" stroke="#343636" stroke-width="4" stroke-linecap="round"/>
</svg>
