<svg width="57" height="44" viewBox="0 0 57 44" fill="none" xmlns="http://www.w3.org/2000/svg">
<path d="M36.1709 16.5H20.376M20.376 26.4H36.1709" stroke="#343636" stroke-width="4"/>
<path d="M49.4983 16.5H52.0111C53.1157 16.5 54.0111 17.3954 54.0111 18.5V24.4C54.0111 25.5046 53.1157 26.4 52.0111 26.4H49.4983" stroke="#343636" stroke-width="4"/>
<path d="M6.71106 16.5H4.19824C3.09367 16.5 2.19824 17.3954 2.19824 18.5V24.4C2.19824 25.5046 3.09367 26.4 4.19824 26.4H6.71106" stroke="#343636" stroke-width="4"/>
<rect x="14.4785" y="2" width="5.02564" height="40" rx="2.51282" stroke="#343636" stroke-width="4"/>
<rect x="-2" y="2" width="5.02564" height="40" rx="2.51282" transform="matrix(-1 0 0 1 40.0684 0)" stroke="#343636" stroke-width="4"/>
<rect x="7.69824" y="6.59961" width="5.5" height="30.8" rx="2.75" stroke="#343636" stroke-width="4"/>
<rect width="5.5" height="30.8" rx="2.75" transform="matrix(-1 0 0 1 48.3982 6.59961)" stroke="#343636" stroke-width="4"/>
</svg>
