<svg width="58" height="48" viewBox="0 0 58 48" fill="none" xmlns="http://www.w3.org/2000/svg">
<path d="M46.2235 10.7973H10.8008V46H46.2235V10.7973Z" stroke="#343636" stroke-width="4" stroke-miterlimit="10" stroke-linecap="round" stroke-linejoin="round"/>
<path d="M34.0127 2.0001H23.0119C21.1893 2.0001 19.7117 3.47773 19.7117 5.30036V10.8008H37.313V5.30036C37.313 3.47773 35.8354 2.0001 34.0127 2.0001Z" stroke="#343636" stroke-width="4" stroke-miterlimit="10" stroke-linecap="round" stroke-linejoin="round"/>
<path d="M10.8007 10.7914H6.40033C3.97014 10.7914 2 12.7614 2 15.1918V41.5938C2 44.0241 3.97014 45.9941 6.40033 45.9941H10.8007V10.7914Z" stroke="#343636" stroke-width="4" stroke-miterlimit="10" stroke-linecap="round" stroke-linejoin="round"/>
<path d="M50.6232 10.7914H46.2229V45.9941H50.6232C53.0535 45.9941 55.0236 44.0241 55.0236 41.5938V15.1918C55.0236 12.7614 53.0535 10.7914 50.6232 10.7914Z" stroke="#343636" stroke-width="4" stroke-miterlimit="10" stroke-linecap="round" stroke-linejoin="round"/>
<path d="M31.1833 30.5948L23.5617 34.9951L17.5112 24.5154L19.6719 19.4572L25.1328 20.115L31.1833 30.5948Z" stroke="#343636" stroke-width="4" stroke-miterlimit="10" stroke-linecap="round" stroke-linejoin="round"/>
<path d="M19.6724 19.457C19.6724 19.457 15.3115 15.1934 19.7118 10.7931" stroke="#343636" stroke-width="4" stroke-miterlimit="10" stroke-linecap="round" stroke-linejoin="round"/>
<path d="M39.5129 20.7027C39.5129 22.5253 38.0352 24.0029 36.2126 24.0029C34.39 24.0029 32.9124 22.5253 32.9124 20.7027C32.9124 18.8801 34.39 17.4024 36.2126 17.4024C38.0352 17.4024 39.5129 18.8801 39.5129 20.7027Z" stroke="#343636" stroke-width="4" stroke-miterlimit="10" stroke-linecap="round" stroke-linejoin="round"/>
</svg>
