<svg width="49" height="48" viewBox="0 0 49 48" fill="none" xmlns="http://www.w3.org/2000/svg">
<path d="M45.1862 30.6H35.1982C34.0313 30.6 32.9121 31.0636 32.087 31.8887C31.2618 32.7139 30.7982 33.833 30.7982 35V44.988M13.1982 4.94806V8.60006C13.1982 10.3505 13.8936 12.0292 15.1313 13.267C16.3691 14.5047 18.0478 15.2001 19.7982 15.2001C20.9652 15.2001 22.0844 15.6636 22.9095 16.4888C23.7347 17.314 24.1982 18.4331 24.1982 19.6001C24.1982 22.0201 26.1782 24.0001 28.5982 24.0001C29.7652 24.0001 30.8844 23.5365 31.7095 22.7113C32.5347 21.8862 32.9982 20.767 32.9982 19.6001C32.9982 17.1801 34.9782 15.2001 37.3982 15.2001H44.3722M21.9983 45.89V37.2C21.9983 36.033 21.5348 34.9139 20.7096 34.0887C19.8845 33.2636 18.7653 32.8 17.5983 32.8C16.4314 32.8 15.3122 32.3364 14.4871 31.5113C13.6619 30.6861 13.1983 29.567 13.1983 28.4V26.2C13.1983 25.033 12.7348 23.9139 11.9096 23.0887C11.0845 22.2636 9.9653 21.8 8.79835 21.8H2.30835M46.1982 24C46.1982 36.1503 36.3485 46 24.1982 46C12.048 46 2.19824 36.1503 2.19824 24C2.19824 11.8497 12.048 2 24.1982 2C36.3485 2 46.1982 11.8497 46.1982 24Z" stroke="#343636" stroke-width="4" stroke-linecap="round" stroke-linejoin="round"/>
</svg>
