<svg width="368" height="368" viewBox="0 0 368 368" fill="none" xmlns="http://www.w3.org/2000/svg">
<mask id="mask0_710_123520" style="mask-type:luminance" maskUnits="userSpaceOnUse" x="0" y="0" width="368" height="368">
<path d="M0 0H368V368H0V0Z" fill="white"/>
</mask>
<g mask="url(#mask0_710_123520)">
<path d="M83.5919 185.414C82.4095 178.566 84.8288 171.591 89.9966 166.944L206.355 62.3299C213.336 55.7304 217.153 46.4542 216.838 36.8524L216.421 24.1284C216.221 18.0255 211.32 13.1243 205.217 12.9245L192.493 12.5076C182.891 12.1928 173.615 16.0094 167.015 22.9899L62.4017 139.348C57.755 144.517 50.7795 146.935 43.9305 145.754L26.3434 142.719L7.18945 161.873L50.7119 178.633L67.4725 222.156L86.6271 203.002L83.5919 185.414Z" stroke="white" stroke-width="14.375" stroke-miterlimit="10" stroke-linecap="round" stroke-linejoin="round"/>
<path d="M107.873 88.7817L31.0171 35.3333L48.4921 17.8598L141.429 51.4635L107.873 88.7817Z" stroke="white" stroke-width="14.375" stroke-miterlimit="10" stroke-linecap="round" stroke-linejoin="round"/>
<path d="M208.772 178.139L191.297 195.614L140.776 121.283L177.882 87.9412L208.772 178.139Z" stroke="white" stroke-width="14.375" stroke-miterlimit="10" stroke-linecap="round" stroke-linejoin="round"/>
<path d="M357.292 176.425C342.653 110.669 283.978 61.512 213.816 61.512C211.545 61.512 209.28 61.5622 207.03 61.6701C206.808 61.8929 206.585 62.1157 206.355 62.3313L89.9985 166.94C84.8315 171.587 82.4121 178.562 83.593 185.409L86.6276 203.003L67.4715 222.153L67.4355 222.059C74.2701 296.888 137.197 355.509 213.816 355.509C284.428 355.509 343.406 305.713 357.569 239.325" stroke="white" stroke-width="14.375" stroke-miterlimit="10" stroke-linecap="round" stroke-linejoin="round"/>
<path d="M357.292 176.425C351.019 148.246 336.671 123.114 316.785 103.601H277.239C268.205 103.601 260.88 110.926 260.88 119.967V128.635C260.88 137.671 268.205 144.995 277.239 144.995C282.946 144.995 288.121 147.308 291.859 151.053C295.603 154.791 297.918 159.958 297.918 165.673V193.165C297.918 202.99 294.015 212.413 287.072 219.356L246.534 259.893C242.789 263.638 240.684 268.712 240.684 274.01V295.637C240.684 300.934 242.789 306.009 246.534 309.753L277.706 340.932C317.972 321.474 348.004 284.189 357.575 239.325" stroke="white" stroke-width="14.375" stroke-miterlimit="10" stroke-linecap="round" stroke-linejoin="round"/>
<path d="M195.453 269.146L170.979 293.612C168.888 295.704 167.716 298.536 167.716 301.49V348.13C129.781 335.623 98.6804 308.074 81.4663 272.553L102.591 251.436C104.675 249.345 107.507 248.173 110.461 248.173H149.424C152.378 248.173 155.21 247.001 157.302 244.91L164.26 237.952C168.608 233.604 175.658 233.604 180.007 237.952L195.453 253.398C199.802 257.747 199.802 264.798 195.453 269.146Z" stroke="white" stroke-width="14.375" stroke-miterlimit="10" stroke-linecap="round" stroke-linejoin="round"/>
</g>
</svg>
