<svg width="56" height="56" viewBox="0 0 56 56" fill="none" xmlns="http://www.w3.org/2000/svg">
<mask id="path-1-outside-1_813_94752" maskUnits="userSpaceOnUse" x="0" y="0" width="56" height="56" fill="black">
<rect fill="white" width="56" height="56"/>
<path d="M50.267 43.2536C53.2508 38.9112 55 33.6573 55 28.0019C55 13.1129 42.889 1 28.0019 1C22.5625 1 17.4946 2.61821 13.2515 5.39625C13.1525 5.44867 13.0608 5.50942 12.9764 5.57745C5.75865 10.4294 1 18.6701 1 28.0019C1 42.889 13.1129 55 28.0019 55C37.1001 55 45.1607 50.4761 50.0544 43.5601C50.1359 43.4669 50.2066 43.3637 50.267 43.2536ZM28.0019 51.5443C15.0186 51.5443 4.45579 40.9834 4.45579 28.0019C4.45579 20.4532 8.02728 13.7235 13.5684 9.41155C14.4033 10.4441 15.4185 11.0919 16.5013 11.2511C16.6922 11.2792 16.8851 11.2924 17.0798 11.2924C18.406 11.2924 19.7979 10.6793 21.2628 10.0343C21.829 9.78439 22.4206 9.52325 23.029 9.29111C23.9202 8.95045 24.3676 7.95166 24.0268 7.06066C23.6871 6.1686 22.6883 5.7231 21.7963 6.06292C21.1327 6.31657 20.4868 6.59923 19.8691 6.87166C18.8207 7.33308 17.5123 7.90124 17.0049 7.83195C16.8644 7.81107 16.6748 7.69009 16.4683 7.48063C19.728 5.64126 23.4665 4.55535 27.4468 4.46275C27.1123 5.74145 26.6852 7.2756 26.2657 7.72047C25.7294 8.28768 24.711 8.7856 23.8133 9.22561C22.3335 9.94913 20.8041 10.698 20.4502 12.2302C20.3135 12.8218 20.3173 13.7428 21.1157 14.7667C22.5169 16.5648 25.0357 16.6144 27.4721 16.6631C28.82 16.6892 30.3466 16.7192 31.0551 17.1058C31.2901 17.2341 31.5063 17.5476 31.5952 17.8855C31.6682 18.1636 31.6205 18.3226 31.6111 18.3414C31.6102 18.3423 31.5587 18.3826 31.4735 18.4041C31.3378 18.3892 30.9737 18.2113 30.7331 18.0934C30.2567 17.8613 29.7157 17.5965 29.0866 17.4953C28.2414 17.3586 27.4908 17.47 26.887 17.559C26.5491 17.6086 26.2795 17.6479 25.9893 17.6517C25.5185 17.6508 24.9878 17.5572 24.4262 17.458C23.1739 17.2362 21.6163 16.961 20.0195 17.6723C18.5032 18.3472 17.2059 19.7886 16.1641 20.9474C15.9179 21.2216 15.6829 21.4828 15.4611 21.7159L15.2571 21.9292C12.9124 24.3806 11.2182 26.1516 13.2615 30.6462C14.4333 33.223 15.6361 35.1942 19.4944 35.1942C19.5074 35.1942 19.5197 35.1942 19.5318 35.1942C20.5717 35.1904 21.5274 34.9162 22.3707 34.6748C22.6599 34.5915 23.0502 34.4792 23.3385 34.4221C23.36 34.5672 23.3778 34.7731 23.3806 35.0567C23.3956 36.5346 24.3034 37.3658 24.8464 37.862C24.9821 37.9874 25.188 38.1755 25.2189 38.2195C25.2189 38.2195 25.2254 38.2775 25.1918 38.417C25.072 38.9103 24.9138 39.1518 24.7144 39.457C24.1576 40.3106 23.711 41.2233 24.3316 42.9838L24.3297 42.9857L24.3765 43.1102C24.3821 43.1252 24.3877 43.1401 24.3934 43.1561C24.3972 43.1645 24.3999 43.1739 24.4037 43.1822C24.5366 43.5492 24.6649 44.092 24.8016 44.6667C25.2808 46.6857 26.2318 50.6993 29.7119 50.6983C30.0394 50.6983 30.3904 50.6638 30.7677 50.5898C33.7769 49.9777 35.1698 46.5622 36.0908 44.3036C36.1619 44.1285 36.2452 43.9264 36.3239 43.7383C37.4817 43.5791 38.3316 43.1551 38.9092 42.4569C39.9425 41.2027 39.6515 39.6301 39.4389 38.4807C39.3734 38.1278 39.2686 37.5681 39.2845 37.2958C41.0789 36.5479 44.7517 34.9998 44.1958 31.7434C43.9506 30.2982 42.6804 29.0159 41.0733 27.3928C39.8246 26.1311 37.5015 23.7836 37.9657 22.9187C38.4179 22.0782 38.1024 21.0308 37.2618 20.5787C36.4232 20.1275 35.374 20.442 34.9218 21.2826C33.2473 24.3986 36.2248 27.4059 38.6171 29.8237C39.4268 30.6408 40.6511 31.8763 40.7886 32.3227C40.8111 32.4547 40.6707 32.9733 37.9217 34.118C35.3168 35.2048 35.8044 37.8415 36.0394 39.1088C36.1012 39.4439 36.1985 39.969 36.1928 40.2442C36.0552 40.2882 35.7669 40.35 35.2353 40.3546C34.7654 40.3593 34.318 40.553 33.9941 40.8947C33.5617 41.3505 33.294 42.0057 32.8896 42.9988C32.3243 44.3822 31.2741 46.9581 30.0769 47.2024C29.3225 47.3606 28.8901 46.9272 28.1656 43.8711C28.0158 43.2365 27.8726 42.6338 27.6873 42.0993L27.6892 42.0983L27.6443 41.9795C27.6387 41.9645 27.6339 41.9524 27.6283 41.9382C27.6274 41.9344 27.6255 41.9298 27.6245 41.9261C27.545 41.7155 27.5113 41.5864 27.4972 41.5161C27.53 41.4609 27.5683 41.4085 27.6077 41.3495C27.8791 40.932 28.291 40.304 28.5502 39.2322C29.0791 37.0504 27.7958 35.8766 27.179 35.3123C27.0498 35.1934 26.8411 35.0212 26.8365 35.0212C26.8252 33.9373 26.6727 32.3938 25.4764 31.5018C24.2053 30.5527 22.6591 30.9954 21.4179 31.352C20.7608 31.5402 20.0804 31.7349 19.5206 31.7368C17.6777 31.7208 17.3847 31.3614 16.4085 29.2143C15.332 26.849 15.5156 26.6571 17.7544 24.3171L17.9603 24.1019C18.2046 23.8463 18.463 23.559 18.7335 23.2585C19.5563 22.344 20.5793 21.205 21.4236 20.8296C22.0254 20.5619 22.7274 20.6668 23.8245 20.8605C24.476 20.9747 25.2126 21.1057 25.9829 21.1067C26.4874 21.1067 26.9751 21.0383 27.3898 20.9775C27.8343 20.911 28.2181 20.853 28.5355 20.9064C28.659 20.926 28.9932 21.0898 29.2141 21.1984C29.9076 21.5373 30.854 21.9987 31.9602 21.819C33.616 21.5466 34.7646 20.4375 35.0332 18.8528C35.3439 17.0183 34.3452 14.9628 32.7091 14.0717C31.2592 13.2827 29.3694 13.2452 27.5414 13.2087C26.5689 13.1891 25.0806 13.1601 24.2747 12.8699C24.6071 12.6846 25.0151 12.4851 25.3324 12.3298C26.4949 11.7607 27.8128 11.1158 28.7778 10.0927C29.8542 8.95445 30.3606 6.99632 30.8979 4.92312C30.9222 4.82968 30.9466 4.73623 30.9708 4.64268C41.0849 5.92117 49.218 13.6429 51.1209 23.553C50.9745 23.484 50.799 23.3948 50.5849 23.281C49.7153 22.8177 48.5257 22.185 47.1544 22.6408C45.8402 23.0788 45.346 24.2873 45.0521 25.0108C44.3201 24.4979 42.8684 23.0583 41.8042 21.8687C41.1677 21.1573 40.0753 21.0955 39.3649 21.732C38.6545 22.3675 38.5917 23.4599 39.2282 24.1713C39.7075 24.7076 42.1729 27.4211 43.6546 28.2026C44.2827 28.534 44.878 28.6996 45.4367 28.6996C45.7493 28.6996 46.0508 28.6472 46.339 28.5433C47.5193 28.1136 47.9583 27.0335 48.2513 26.3184C48.2849 26.2341 48.328 26.1302 48.3701 26.0329C48.5545 26.1162 48.7848 26.2379 48.9589 26.3315C49.5679 26.6566 50.475 27.1394 51.529 27.2024C51.538 27.4681 51.5441 27.7345 51.5441 28.0023C51.5441 31.8069 50.6359 35.4029 49.0266 38.5866C48.3865 38.0749 47.4042 37.6054 45.9215 37.528C44.3864 37.4382 41.5859 38.1008 40.0677 43.4127C39.8056 44.329 40.3373 45.2865 41.2546 45.5486C41.4128 45.5945 41.5737 45.616 41.731 45.616C42.4817 45.616 43.1734 45.1208 43.3905 44.3627C44.0008 42.2324 44.8807 40.922 45.7399 40.9791C46.6011 41.025 46.8716 41.273 46.9343 41.3479C47.0232 41.4548 47.0541 41.6307 47.0599 41.8068C42.7774 47.7025 35.8304 51.5443 28.0019 51.5443Z"/>
</mask>
<path d="M50.267 43.2536C53.2508 38.9112 55 33.6573 55 28.0019C55 13.1129 42.889 1 28.0019 1C22.5625 1 17.4946 2.61821 13.2515 5.39625C13.1525 5.44867 13.0608 5.50942 12.9764 5.57745C5.75865 10.4294 1 18.6701 1 28.0019C1 42.889 13.1129 55 28.0019 55C37.1001 55 45.1607 50.4761 50.0544 43.5601C50.1359 43.4669 50.2066 43.3637 50.267 43.2536ZM28.0019 51.5443C15.0186 51.5443 4.45579 40.9834 4.45579 28.0019C4.45579 20.4532 8.02728 13.7235 13.5684 9.41155C14.4033 10.4441 15.4185 11.0919 16.5013 11.2511C16.6922 11.2792 16.8851 11.2924 17.0798 11.2924C18.406 11.2924 19.7979 10.6793 21.2628 10.0343C21.829 9.78439 22.4206 9.52325 23.029 9.29111C23.9202 8.95045 24.3676 7.95166 24.0268 7.06066C23.6871 6.1686 22.6883 5.7231 21.7963 6.06292C21.1327 6.31657 20.4868 6.59923 19.8691 6.87166C18.8207 7.33308 17.5123 7.90124 17.0049 7.83195C16.8644 7.81107 16.6748 7.69009 16.4683 7.48063C19.728 5.64126 23.4665 4.55535 27.4468 4.46275C27.1123 5.74145 26.6852 7.2756 26.2657 7.72047C25.7294 8.28768 24.711 8.7856 23.8133 9.22561C22.3335 9.94913 20.8041 10.698 20.4502 12.2302C20.3135 12.8218 20.3173 13.7428 21.1157 14.7667C22.5169 16.5648 25.0357 16.6144 27.4721 16.6631C28.82 16.6892 30.3466 16.7192 31.0551 17.1058C31.2901 17.2341 31.5063 17.5476 31.5952 17.8855C31.6682 18.1636 31.6205 18.3226 31.6111 18.3414C31.6102 18.3423 31.5587 18.3826 31.4735 18.4041C31.3378 18.3892 30.9737 18.2113 30.7331 18.0934C30.2567 17.8613 29.7157 17.5965 29.0866 17.4953C28.2414 17.3586 27.4908 17.47 26.887 17.559C26.5491 17.6086 26.2795 17.6479 25.9893 17.6517C25.5185 17.6508 24.9878 17.5572 24.4262 17.458C23.1739 17.2362 21.6163 16.961 20.0195 17.6723C18.5032 18.3472 17.2059 19.7886 16.1641 20.9474C15.9179 21.2216 15.6829 21.4828 15.4611 21.7159L15.2571 21.9292C12.9124 24.3806 11.2182 26.1516 13.2615 30.6462C14.4333 33.223 15.6361 35.1942 19.4944 35.1942C19.5074 35.1942 19.5197 35.1942 19.5318 35.1942C20.5717 35.1904 21.5274 34.9162 22.3707 34.6748C22.6599 34.5915 23.0502 34.4792 23.3385 34.4221C23.36 34.5672 23.3778 34.7731 23.3806 35.0567C23.3956 36.5346 24.3034 37.3658 24.8464 37.862C24.9821 37.9874 25.188 38.1755 25.2189 38.2195C25.2189 38.2195 25.2254 38.2775 25.1918 38.417C25.072 38.9103 24.9138 39.1518 24.7144 39.457C24.1576 40.3106 23.711 41.2233 24.3316 42.9838L24.3297 42.9857L24.3765 43.1102C24.3821 43.1252 24.3877 43.1401 24.3934 43.1561C24.3972 43.1645 24.3999 43.1739 24.4037 43.1822C24.5366 43.5492 24.6649 44.092 24.8016 44.6667C25.2808 46.6857 26.2318 50.6993 29.7119 50.6983C30.0394 50.6983 30.3904 50.6638 30.7677 50.5898C33.7769 49.9777 35.1698 46.5622 36.0908 44.3036C36.1619 44.1285 36.2452 43.9264 36.3239 43.7383C37.4817 43.5791 38.3316 43.1551 38.9092 42.4569C39.9425 41.2027 39.6515 39.6301 39.4389 38.4807C39.3734 38.1278 39.2686 37.5681 39.2845 37.2958C41.0789 36.5479 44.7517 34.9998 44.1958 31.7434C43.9506 30.2982 42.6804 29.0159 41.0733 27.3928C39.8246 26.1311 37.5015 23.7836 37.9657 22.9187C38.4179 22.0782 38.1024 21.0308 37.2618 20.5787C36.4232 20.1275 35.374 20.442 34.9218 21.2826C33.2473 24.3986 36.2248 27.4059 38.6171 29.8237C39.4268 30.6408 40.6511 31.8763 40.7886 32.3227C40.8111 32.4547 40.6707 32.9733 37.9217 34.118C35.3168 35.2048 35.8044 37.8415 36.0394 39.1088C36.1012 39.4439 36.1985 39.969 36.1928 40.2442C36.0552 40.2882 35.7669 40.35 35.2353 40.3546C34.7654 40.3593 34.318 40.553 33.9941 40.8947C33.5617 41.3505 33.294 42.0057 32.8896 42.9988C32.3243 44.3822 31.2741 46.9581 30.0769 47.2024C29.3225 47.3606 28.8901 46.9272 28.1656 43.8711C28.0158 43.2365 27.8726 42.6338 27.6873 42.0993L27.6892 42.0983L27.6443 41.9795C27.6387 41.9645 27.6339 41.9524 27.6283 41.9382C27.6274 41.9344 27.6255 41.9298 27.6245 41.9261C27.545 41.7155 27.5113 41.5864 27.4972 41.5161C27.53 41.4609 27.5683 41.4085 27.6077 41.3495C27.8791 40.932 28.291 40.304 28.5502 39.2322C29.0791 37.0504 27.7958 35.8766 27.179 35.3123C27.0498 35.1934 26.8411 35.0212 26.8365 35.0212C26.8252 33.9373 26.6727 32.3938 25.4764 31.5018C24.2053 30.5527 22.6591 30.9954 21.4179 31.352C20.7608 31.5402 20.0804 31.7349 19.5206 31.7368C17.6777 31.7208 17.3847 31.3614 16.4085 29.2143C15.332 26.849 15.5156 26.6571 17.7544 24.3171L17.9603 24.1019C18.2046 23.8463 18.463 23.559 18.7335 23.2585C19.5563 22.344 20.5793 21.205 21.4236 20.8296C22.0254 20.5619 22.7274 20.6668 23.8245 20.8605C24.476 20.9747 25.2126 21.1057 25.9829 21.1067C26.4874 21.1067 26.9751 21.0383 27.3898 20.9775C27.8343 20.911 28.2181 20.853 28.5355 20.9064C28.659 20.926 28.9932 21.0898 29.2141 21.1984C29.9076 21.5373 30.854 21.9987 31.9602 21.819C33.616 21.5466 34.7646 20.4375 35.0332 18.8528C35.3439 17.0183 34.3452 14.9628 32.7091 14.0717C31.2592 13.2827 29.3694 13.2452 27.5414 13.2087C26.5689 13.1891 25.0806 13.1601 24.2747 12.8699C24.6071 12.6846 25.0151 12.4851 25.3324 12.3298C26.4949 11.7607 27.8128 11.1158 28.7778 10.0927C29.8542 8.95445 30.3606 6.99632 30.8979 4.92312C30.9222 4.82968 30.9466 4.73623 30.9708 4.64268C41.0849 5.92117 49.218 13.6429 51.1209 23.553C50.9745 23.484 50.799 23.3948 50.5849 23.281C49.7153 22.8177 48.5257 22.185 47.1544 22.6408C45.8402 23.0788 45.346 24.2873 45.0521 25.0108C44.3201 24.4979 42.8684 23.0583 41.8042 21.8687C41.1677 21.1573 40.0753 21.0955 39.3649 21.732C38.6545 22.3675 38.5917 23.4599 39.2282 24.1713C39.7075 24.7076 42.1729 27.4211 43.6546 28.2026C44.2827 28.534 44.878 28.6996 45.4367 28.6996C45.7493 28.6996 46.0508 28.6472 46.339 28.5433C47.5193 28.1136 47.9583 27.0335 48.2513 26.3184C48.2849 26.2341 48.328 26.1302 48.3701 26.0329C48.5545 26.1162 48.7848 26.2379 48.9589 26.3315C49.5679 26.6566 50.475 27.1394 51.529 27.2024C51.538 27.4681 51.5441 27.7345 51.5441 28.0023C51.5441 31.8069 50.6359 35.4029 49.0266 38.5866C48.3865 38.0749 47.4042 37.6054 45.9215 37.528C44.3864 37.4382 41.5859 38.1008 40.0677 43.4127C39.8056 44.329 40.3373 45.2865 41.2546 45.5486C41.4128 45.5945 41.5737 45.616 41.731 45.616C42.4817 45.616 43.1734 45.1208 43.3905 44.3627C44.0008 42.2324 44.8807 40.922 45.7399 40.9791C46.6011 41.025 46.8716 41.273 46.9343 41.3479C47.0232 41.4548 47.0541 41.6307 47.0599 41.8068C42.7774 47.7025 35.8304 51.5443 28.0019 51.5443Z" fill="#343636"/>
<path d="M50.267 43.2536C53.2508 38.9112 55 33.6573 55 28.0019C55 13.1129 42.889 1 28.0019 1C22.5625 1 17.4946 2.61821 13.2515 5.39625C13.1525 5.44867 13.0608 5.50942 12.9764 5.57745C5.75865 10.4294 1 18.6701 1 28.0019C1 42.889 13.1129 55 28.0019 55C37.1001 55 45.1607 50.4761 50.0544 43.5601C50.1359 43.4669 50.2066 43.3637 50.267 43.2536ZM28.0019 51.5443C15.0186 51.5443 4.45579 40.9834 4.45579 28.0019C4.45579 20.4532 8.02728 13.7235 13.5684 9.41155C14.4033 10.4441 15.4185 11.0919 16.5013 11.2511C16.6922 11.2792 16.8851 11.2924 17.0798 11.2924C18.406 11.2924 19.7979 10.6793 21.2628 10.0343C21.829 9.78439 22.4206 9.52325 23.029 9.29111C23.9202 8.95045 24.3676 7.95166 24.0268 7.06066C23.6871 6.1686 22.6883 5.7231 21.7963 6.06292C21.1327 6.31657 20.4868 6.59923 19.8691 6.87166C18.8207 7.33308 17.5123 7.90124 17.0049 7.83195C16.8644 7.81107 16.6748 7.69009 16.4683 7.48063C19.728 5.64126 23.4665 4.55535 27.4468 4.46275C27.1123 5.74145 26.6852 7.2756 26.2657 7.72047C25.7294 8.28768 24.711 8.7856 23.8133 9.22561C22.3335 9.94913 20.8041 10.698 20.4502 12.2302C20.3135 12.8218 20.3173 13.7428 21.1157 14.7667C22.5169 16.5648 25.0357 16.6144 27.4721 16.6631C28.82 16.6892 30.3466 16.7192 31.0551 17.1058C31.2901 17.2341 31.5063 17.5476 31.5952 17.8855C31.6682 18.1636 31.6205 18.3226 31.6111 18.3414C31.6102 18.3423 31.5587 18.3826 31.4735 18.4041C31.3378 18.3892 30.9737 18.2113 30.7331 18.0934C30.2567 17.8613 29.7157 17.5965 29.0866 17.4953C28.2414 17.3586 27.4908 17.47 26.887 17.559C26.5491 17.6086 26.2795 17.6479 25.9893 17.6517C25.5185 17.6508 24.9878 17.5572 24.4262 17.458C23.1739 17.2362 21.6163 16.961 20.0195 17.6723C18.5032 18.3472 17.2059 19.7886 16.1641 20.9474C15.9179 21.2216 15.6829 21.4828 15.4611 21.7159L15.2571 21.9292C12.9124 24.3806 11.2182 26.1516 13.2615 30.6462C14.4333 33.223 15.6361 35.1942 19.4944 35.1942C19.5074 35.1942 19.5197 35.1942 19.5318 35.1942C20.5717 35.1904 21.5274 34.9162 22.3707 34.6748C22.6599 34.5915 23.0502 34.4792 23.3385 34.4221C23.36 34.5672 23.3778 34.7731 23.3806 35.0567C23.3956 36.5346 24.3034 37.3658 24.8464 37.862C24.9821 37.9874 25.188 38.1755 25.2189 38.2195C25.2189 38.2195 25.2254 38.2775 25.1918 38.417C25.072 38.9103 24.9138 39.1518 24.7144 39.457C24.1576 40.3106 23.711 41.2233 24.3316 42.9838L24.3297 42.9857L24.3765 43.1102C24.3821 43.1252 24.3877 43.1401 24.3934 43.1561C24.3972 43.1645 24.3999 43.1739 24.4037 43.1822C24.5366 43.5492 24.6649 44.092 24.8016 44.6667C25.2808 46.6857 26.2318 50.6993 29.7119 50.6983C30.0394 50.6983 30.3904 50.6638 30.7677 50.5898C33.7769 49.9777 35.1698 46.5622 36.0908 44.3036C36.1619 44.1285 36.2452 43.9264 36.3239 43.7383C37.4817 43.5791 38.3316 43.1551 38.9092 42.4569C39.9425 41.2027 39.6515 39.6301 39.4389 38.4807C39.3734 38.1278 39.2686 37.5681 39.2845 37.2958C41.0789 36.5479 44.7517 34.9998 44.1958 31.7434C43.9506 30.2982 42.6804 29.0159 41.0733 27.3928C39.8246 26.1311 37.5015 23.7836 37.9657 22.9187C38.4179 22.0782 38.1024 21.0308 37.2618 20.5787C36.4232 20.1275 35.374 20.442 34.9218 21.2826C33.2473 24.3986 36.2248 27.4059 38.6171 29.8237C39.4268 30.6408 40.6511 31.8763 40.7886 32.3227C40.8111 32.4547 40.6707 32.9733 37.9217 34.118C35.3168 35.2048 35.8044 37.8415 36.0394 39.1088C36.1012 39.4439 36.1985 39.969 36.1928 40.2442C36.0552 40.2882 35.7669 40.35 35.2353 40.3546C34.7654 40.3593 34.318 40.553 33.9941 40.8947C33.5617 41.3505 33.294 42.0057 32.8896 42.9988C32.3243 44.3822 31.2741 46.9581 30.0769 47.2024C29.3225 47.3606 28.8901 46.9272 28.1656 43.8711C28.0158 43.2365 27.8726 42.6338 27.6873 42.0993L27.6892 42.0983L27.6443 41.9795C27.6387 41.9645 27.6339 41.9524 27.6283 41.9382C27.6274 41.9344 27.6255 41.9298 27.6245 41.9261C27.545 41.7155 27.5113 41.5864 27.4972 41.5161C27.53 41.4609 27.5683 41.4085 27.6077 41.3495C27.8791 40.932 28.291 40.304 28.5502 39.2322C29.0791 37.0504 27.7958 35.8766 27.179 35.3123C27.0498 35.1934 26.8411 35.0212 26.8365 35.0212C26.8252 33.9373 26.6727 32.3938 25.4764 31.5018C24.2053 30.5527 22.6591 30.9954 21.4179 31.352C20.7608 31.5402 20.0804 31.7349 19.5206 31.7368C17.6777 31.7208 17.3847 31.3614 16.4085 29.2143C15.332 26.849 15.5156 26.6571 17.7544 24.3171L17.9603 24.1019C18.2046 23.8463 18.463 23.559 18.7335 23.2585C19.5563 22.344 20.5793 21.205 21.4236 20.8296C22.0254 20.5619 22.7274 20.6668 23.8245 20.8605C24.476 20.9747 25.2126 21.1057 25.9829 21.1067C26.4874 21.1067 26.9751 21.0383 27.3898 20.9775C27.8343 20.911 28.2181 20.853 28.5355 20.9064C28.659 20.926 28.9932 21.0898 29.2141 21.1984C29.9076 21.5373 30.854 21.9987 31.9602 21.819C33.616 21.5466 34.7646 20.4375 35.0332 18.8528C35.3439 17.0183 34.3452 14.9628 32.7091 14.0717C31.2592 13.2827 29.3694 13.2452 27.5414 13.2087C26.5689 13.1891 25.0806 13.1601 24.2747 12.8699C24.6071 12.6846 25.0151 12.4851 25.3324 12.3298C26.4949 11.7607 27.8128 11.1158 28.7778 10.0927C29.8542 8.95445 30.3606 6.99632 30.8979 4.92312C30.9222 4.82968 30.9466 4.73623 30.9708 4.64268C41.0849 5.92117 49.218 13.6429 51.1209 23.553C50.9745 23.484 50.799 23.3948 50.5849 23.281C49.7153 22.8177 48.5257 22.185 47.1544 22.6408C45.8402 23.0788 45.346 24.2873 45.0521 25.0108C44.3201 24.4979 42.8684 23.0583 41.8042 21.8687C41.1677 21.1573 40.0753 21.0955 39.3649 21.732C38.6545 22.3675 38.5917 23.4599 39.2282 24.1713C39.7075 24.7076 42.1729 27.4211 43.6546 28.2026C44.2827 28.534 44.878 28.6996 45.4367 28.6996C45.7493 28.6996 46.0508 28.6472 46.339 28.5433C47.5193 28.1136 47.9583 27.0335 48.2513 26.3184C48.2849 26.2341 48.328 26.1302 48.3701 26.0329C48.5545 26.1162 48.7848 26.2379 48.9589 26.3315C49.5679 26.6566 50.475 27.1394 51.529 27.2024C51.538 27.4681 51.5441 27.7345 51.5441 28.0023C51.5441 31.8069 50.6359 35.4029 49.0266 38.5866C48.3865 38.0749 47.4042 37.6054 45.9215 37.528C44.3864 37.4382 41.5859 38.1008 40.0677 43.4127C39.8056 44.329 40.3373 45.2865 41.2546 45.5486C41.4128 45.5945 41.5737 45.616 41.731 45.616C42.4817 45.616 43.1734 45.1208 43.3905 44.3627C44.0008 42.2324 44.8807 40.922 45.7399 40.9791C46.6011 41.025 46.8716 41.273 46.9343 41.3479C47.0232 41.4548 47.0541 41.6307 47.0599 41.8068C42.7774 47.7025 35.8304 51.5443 28.0019 51.5443Z" stroke="#343636" stroke-width="0.8" mask="url(#path-1-outside-1_813_94752)"/>
</svg>
