<svg width="90" height="87" viewBox="0 0 90 87" fill="none" xmlns="http://www.w3.org/2000/svg">
<g clip-path="url(#clip0_385_19046)">
<path d="M56.5114 38.9376L50.1552 38.0161L47.3111 32.2565C46.8709 31.3659 45.9811 30.8125 44.9875 30.8125H44.9868C43.9932 30.8132 43.1026 31.3666 42.6632 32.2579L39.8219 38.0181L33.4663 38.9437C32.483 39.0866 31.6817 39.7629 31.3748 40.7077C31.0678 41.6532 31.3191 42.6708 32.0312 43.3644L36.6317 47.8468L35.5475 54.1769C35.38 55.1568 35.7755 56.1277 36.5795 56.7113C37.0334 57.0416 37.5649 57.2092 38.0998 57.2085C38.5117 57.2085 38.9258 57.1096 39.3082 56.9084L44.993 53.9174L50.6784 56.905C51.558 57.3671 52.6037 57.2909 53.4078 56.7072C54.2112 56.1229 54.606 55.1513 54.4378 54.1721L53.3508 47.842L57.9493 43.3568C58.6599 42.6633 58.9113 41.645 58.6036 40.7002C58.2967 39.756 57.4947 39.0804 56.5114 38.9376ZM50.5493 45.6646C49.9382 46.2606 49.6601 47.1182 49.8043 47.9587L50.6571 52.9238L46.198 50.5803C45.4427 50.1834 44.5412 50.1841 43.7859 50.581L39.3275 52.9266L40.1782 47.9614C40.3217 47.121 40.043 46.2634 39.4318 45.6674L35.8235 42.1524L40.8093 41.4266C41.6538 41.3037 42.3824 40.773 42.7593 40.0087L44.9875 35.4906L47.2184 40.0074C47.596 40.7723 48.3259 41.3017 49.1698 41.4246L54.1556 42.1476L50.5493 45.6646Z" fill="white"/>
<path d="M89.8484 48.511C90.4691 44.6129 88.8624 40.756 85.6551 38.4454C85.204 38.12 84.6244 38.0273 84.0943 38.1969C83.7661 38.3012 83.4468 38.4221 83.1358 38.5553C85.583 36.6972 87.0991 33.8387 87.2158 30.6767C87.3614 26.732 85.3008 23.0969 81.8387 21.1908C81.3505 20.9223 80.7648 20.9003 80.2587 21.1324C76.6655 22.779 74.3433 26.2527 74.1977 30.1975C74.0522 34.1422 76.1128 37.7773 79.5755 39.6835C79.8385 39.8283 80.1303 39.9011 80.4228 39.9011C80.6055 39.9011 80.7875 39.8723 80.9632 39.8153C78.86 41.4042 77.4147 43.7573 76.9841 46.4641C76.4801 49.6302 77.4449 52.7681 79.5426 55.0739C77.9042 55.5477 76.3771 56.4293 75.1103 57.6866C72.4688 60.3082 71.4477 64.0676 72.3644 67.6374C70.6478 67.5784 68.9106 67.9464 67.3066 68.7587C63.9406 70.4643 61.7997 73.7959 61.6253 77.5388C60.0645 76.5665 58.2429 76.0104 56.3175 75.9747C52.3734 75.9019 48.7747 78.0305 46.9332 81.5275C46.6736 82.0199 46.6626 82.6063 46.9043 83.1082C48.6168 86.6698 52.1331 88.9275 56.0799 88.9989C56.1452 89.0003 56.2097 89.001 56.2743 89.001C60.1442 89.001 63.6529 86.8861 65.465 83.4467C65.7245 82.9544 65.7348 82.368 65.4938 81.8661C65.3297 81.5255 65.1491 81.1973 64.9534 80.8814C66.0933 81.2975 67.2901 81.509 68.4924 81.509C70.0916 81.509 71.7004 81.1362 73.1932 80.3802C76.715 78.5963 78.8964 75.0326 78.8875 71.0803C78.8861 70.6181 78.7014 70.1814 78.3835 69.8567C80.5725 69.558 82.6462 68.5603 84.2859 66.9329C87.0881 64.152 88.0679 60.0905 86.843 56.3325C86.6761 55.8196 86.2813 55.4145 85.7759 55.2291C87.9292 53.6402 89.4117 51.2575 89.8484 48.511ZM77.7099 30.3266C77.7951 28.0249 79.0008 25.965 80.9159 24.7627C82.7375 26.103 83.7881 28.2453 83.7036 30.5477C83.6185 32.8493 82.4127 34.9092 80.4977 36.1108C78.6767 34.7712 77.6255 32.6289 77.7099 30.3266ZM56.1438 85.4854C53.8408 85.4428 51.7596 84.2755 50.5216 82.3831C51.8276 80.5374 53.9513 79.4504 56.2537 79.4889C58.5567 79.5308 60.6379 80.6981 61.8759 82.5905C60.5699 84.4362 58.4509 85.5266 56.1438 85.4854ZM71.605 77.2443C69.5498 78.2845 67.1644 78.2282 65.1848 77.1351C65.4746 74.8925 66.8403 72.9349 68.8948 71.8946C70.9492 70.8537 73.3353 70.9107 75.3149 72.0038C75.0251 74.2464 73.6594 76.2033 71.605 77.2443ZM81.8099 64.4383C80.175 66.0609 77.8871 66.7407 75.6678 66.3088C75.2538 64.0861 75.9507 61.8037 77.5856 60.1812C79.2205 58.5586 81.5077 57.8788 83.7284 58.3101C84.1424 60.5334 83.4448 62.8158 81.8099 64.4383ZM86.3774 47.9589C86.0156 50.2337 84.5702 52.133 82.524 53.095C80.8774 51.5452 80.0933 49.2917 80.4551 47.0168C80.817 44.742 82.2624 42.8427 84.3086 41.8807C85.9551 43.4305 86.7393 45.684 86.3774 47.9589Z" fill="white"/>
<path d="M33.6628 75.975C31.7375 76.01 29.9158 76.5662 28.355 77.5391C28.1806 73.7962 26.0397 70.4646 22.6738 68.759C21.0698 67.9467 19.3325 67.578 17.6159 67.6377C18.5326 64.0672 17.5116 60.3085 14.87 57.6869C13.6032 56.4296 12.0761 55.548 10.4378 55.0735C12.5355 52.7684 13.5002 49.6305 12.9962 46.4644C12.5657 43.7576 11.1203 41.4038 9.01709 39.8156C9.19287 39.8726 9.37483 39.9014 9.55748 39.9014C9.84999 39.9014 10.1418 39.8286 10.4048 39.6838C13.8675 37.7769 15.9275 34.1425 15.7826 30.1971C15.637 26.2523 13.3148 22.7786 9.72159 21.1327C9.21553 20.9006 8.62982 20.9219 8.14162 21.1904C4.67956 23.0972 2.61894 26.7323 2.76451 30.677C2.88124 33.839 4.39735 36.6975 6.84455 38.5556C6.5335 38.4217 6.21421 38.3015 5.88599 38.1972C5.3559 38.0283 4.77637 38.1203 4.32525 38.4457C1.11793 40.7563 -0.488813 44.6132 0.131227 48.5113C0.568619 51.2578 2.0504 53.6405 4.2044 55.2294C3.69903 55.4148 3.3049 55.8192 3.13736 56.3328C1.91238 60.0908 2.89222 64.1523 5.69442 66.9332C7.33412 68.5606 9.40779 69.5583 11.5968 69.8563C11.2789 70.1811 11.0942 70.6185 11.0928 71.0806C11.0839 75.0329 13.2654 78.5966 16.7872 80.3798C18.2806 81.1365 19.888 81.5093 21.4879 81.5093C22.6902 81.5093 23.8871 81.2978 25.0269 80.881C24.8312 81.1969 24.6506 81.5258 24.4865 81.8664C24.2455 82.3676 24.2558 82.954 24.5153 83.447C26.3274 86.8864 29.8355 89.0013 33.7061 89.0013C33.7706 89.0013 33.8358 89.0006 33.9004 88.9992C37.8472 88.9271 41.3635 86.6694 43.076 83.1078C43.3177 82.6066 43.3067 82.0202 43.0472 81.5272C41.2056 78.0308 37.6096 75.9049 33.6628 75.975ZM9.06447 24.763C10.9795 25.9653 12.1853 28.0252 12.2697 30.3269C12.3549 32.6292 11.3036 34.7715 9.48263 36.1112C7.56758 34.9095 6.36184 32.8496 6.27669 30.548C6.19223 28.2463 7.2428 26.1033 9.06447 24.763ZM5.67176 41.881C7.71796 42.843 9.16334 44.7423 9.5252 47.0171C9.88707 49.292 9.10292 51.5455 7.45635 53.0953C5.41015 52.1333 3.96476 50.234 3.6029 47.9592C3.24035 45.6843 4.02519 43.4308 5.67176 41.881ZM6.25197 58.3104C8.47189 57.8798 10.7591 58.5589 12.3947 60.1815C14.0289 61.804 14.7265 64.0864 14.3125 66.3091C12.0933 66.7403 9.80536 66.0612 8.16977 64.4387C6.53487 62.8161 5.83793 60.5337 6.25197 58.3104ZM18.3754 77.2446C16.3202 76.2036 14.9552 74.246 14.6654 72.0041C16.645 70.911 19.0304 70.854 21.0855 71.8949C23.14 72.9352 24.5057 74.8928 24.7955 77.1354C22.8159 78.2285 20.4305 78.2855 18.3754 77.2446ZM33.8358 85.4857C31.5301 85.5234 29.4104 84.4365 28.1044 82.5908C29.3418 80.6984 31.4237 79.5311 33.7267 79.4892C36.0304 79.4528 38.1528 80.5377 39.4581 82.3834C38.2207 84.2758 36.1388 85.4431 33.8358 85.4857Z" fill="white"/>
<path d="M54.4095 13.9692C54.8592 13.9692 55.309 13.7976 55.6523 13.4543L58.8486 10.2579C59.5353 9.57129 59.5353 8.45892 58.8486 7.77228C58.1627 7.08632 57.0496 7.08632 56.3637 7.77228L53.1673 10.9686C52.4807 11.6553 52.4807 12.7676 53.1673 13.4543C53.51 13.7976 53.9597 13.9692 54.4095 13.9692Z" fill="white"/>
<path d="M34.3267 13.4543C34.67 13.7976 35.1191 13.9692 35.5689 13.9692C36.0186 13.9692 36.469 13.7976 36.8117 13.4543C37.4983 12.7683 37.4983 11.6553 36.8117 10.9686L33.6154 7.77228C32.9287 7.08632 31.8163 7.08632 31.1297 7.77228C30.4437 8.45892 30.4437 9.57129 31.1297 10.2579L34.3267 13.4543Z" fill="white"/>
<path d="M45.011 10.7705C45.9819 10.7705 46.7688 9.98356 46.7688 9.01333V0.757122C46.7688 -0.213106 45.9819 -1 45.011 -1C44.0408 -1 43.2539 -0.213106 43.2539 0.757122V9.01333C43.2539 9.98356 44.0408 10.7705 45.011 10.7705Z" fill="white"/>
<path d="M45.013 13.9961C44.5509 13.9961 44.0977 14.1842 43.7708 14.5111C43.4419 14.8379 43.2559 15.2911 43.2559 15.7539C43.2559 16.216 43.4419 16.6692 43.7708 16.996C44.0977 17.3229 44.5509 17.511 45.013 17.511C45.4751 17.511 45.9283 17.3229 46.2551 16.996C46.5826 16.6692 46.7701 16.216 46.7701 15.7539C46.7701 15.2911 46.5826 14.8379 46.2551 14.5111C45.9283 14.1842 45.4751 13.9961 45.013 13.9961Z" fill="white"/>
<path d="M68.5383 44.0094C68.5383 31.0243 57.9743 20.4609 44.9899 20.4609C32.0047 20.4609 21.4414 31.0243 21.4414 44.0094C21.4414 56.9938 32.0047 67.5579 44.9899 67.5579C57.9743 67.5579 68.5383 56.9938 68.5383 44.0094ZM44.9899 64.0429C33.9431 64.0429 24.9557 55.0561 24.9557 44.0094C24.9557 32.9627 33.9431 23.9752 44.9899 23.9752C56.0366 23.9752 65.0234 32.9627 65.0234 44.0094C65.0234 55.0561 56.0366 64.0429 44.9899 64.0429Z" fill="white"/>
</g>
<defs>
<clipPath id="clip0_385_19046">
<rect width="90" height="90" fill="white" transform="translate(0 -1)"/>
</clipPath>
</defs>
</svg>
