<svg width="90" height="87" viewBox="0 0 90 87" fill="none" xmlns="http://www.w3.org/2000/svg">
<g clip-path="url(#clip0_385_19062)">
<path d="M33.7638 22.5499L32.1289 32.0984C31.9373 33.2176 32.3891 34.3279 33.3086 34.9953C33.8277 35.3723 34.4347 35.5639 35.0458 35.5639C35.5168 35.5639 35.9906 35.4499 36.428 35.2199L45.0015 30.71L53.5777 35.2151C54.5829 35.7438 55.7784 35.6573 56.6971 34.9892C57.6158 34.321 58.0676 33.2107 57.8747 32.0915L56.235 22.5437L63.1701 15.7802C63.9831 14.9865 64.2701 13.8226 63.9192 12.7425C63.5677 11.6624 62.651 10.89 61.527 10.7272L51.9393 9.33676L47.6505 0.650696C47.1472 -0.3676 46.1296 -1 44.9939 -1C44.9939 -1 44.9939 -1 44.9932 -1C43.8575 -0.999313 42.8399 -0.366226 42.3373 0.652069L38.0526 9.34019L28.4657 10.7361C27.3416 10.8996 26.4256 11.672 26.0748 12.7528C25.7239 13.8336 26.0116 14.9968 26.8253 15.7892L33.7638 22.5499ZM38.8464 12.7775C39.8111 12.6368 40.6447 12.0312 41.0766 11.1564L44.9946 3.21257L48.9167 11.1543C49.3486 12.0291 50.1829 12.6347 51.1476 12.7741L59.9133 14.0458L53.5728 20.2297C52.8745 20.9109 52.5559 21.8907 52.7214 22.8527L54.2204 31.582L46.3802 27.4628C45.5164 27.009 44.4858 27.009 43.622 27.4628L35.7832 31.5868L37.2781 22.8568C37.4429 21.8955 37.1243 20.915 36.4259 20.2345L30.0813 14.0533L38.8464 12.7775Z" fill="white"/>
<path d="M71.5742 17.2812C71.5742 18.2522 72.3611 19.0391 73.332 19.0391H78.7497C79.7206 19.0391 80.5075 18.2522 80.5075 17.2812C80.5075 16.3103 79.7206 15.5234 78.7497 15.5234H73.332C72.3611 15.5234 71.5742 16.3103 71.5742 17.2812Z" fill="white"/>
<path d="M73.1535 29.0534C73.4968 29.396 73.9466 29.5677 74.3963 29.5677C74.8468 29.5677 75.2965 29.396 75.6399 29.0534C76.3258 28.3668 76.3258 27.2537 75.6399 26.5671L71.8249 22.7528C71.1389 22.0668 70.0258 22.0668 69.3392 22.7528C68.6526 23.4394 68.6526 24.5524 69.3392 25.2391L73.1535 29.0534Z" fill="white"/>
<path d="M70.582 12.3187C71.0318 12.3187 71.4822 12.147 71.8249 11.8044L75.6357 7.99283C76.3224 7.30687 76.3224 6.19382 75.6357 5.50717C74.9498 4.82053 73.8367 4.82053 73.1501 5.50717L69.3392 9.31805C68.6526 10.0047 68.6526 11.1178 69.3392 11.8044C69.6825 12.1477 70.1323 12.3187 70.582 12.3187Z" fill="white"/>
<path d="M11.2383 19.0391H16.6559C17.6268 19.0391 18.4137 18.2522 18.4137 17.2812C18.4137 16.3103 17.6268 15.5234 16.6559 15.5234H11.2383C10.2674 15.5234 9.48047 16.3103 9.48047 17.2812C9.48047 18.2522 10.2674 19.0391 11.2383 19.0391Z" fill="white"/>
<path d="M18.1613 22.7528L14.347 26.5671C13.6604 27.2537 13.6604 28.3668 14.347 29.0534C14.6903 29.3967 15.1401 29.5684 15.5898 29.5684C16.0396 29.5684 16.49 29.3967 16.8327 29.0534L20.647 25.2391C21.3336 24.5524 21.3336 23.4394 20.647 22.7528C19.961 22.0668 18.848 22.0668 18.1613 22.7528Z" fill="white"/>
<path d="M18.1618 11.8039C18.5051 12.1472 18.9549 12.3189 19.4046 12.3189C19.8544 12.3189 20.3048 12.1472 20.6475 11.8039C21.3341 11.1172 21.3341 10.0042 20.6475 9.31754L16.8366 5.50666C16.1506 4.8207 15.0376 4.8207 14.3509 5.50666C13.6643 6.1933 13.6643 7.30635 14.3509 7.993L18.1618 11.8039Z" fill="white"/>
<path d="M62.3066 70.0156C61.8438 70.0156 61.3907 70.2038 61.0638 70.5306C60.737 70.8575 60.5488 71.3113 60.5488 71.7734C60.5488 72.2355 60.737 72.6894 61.0638 73.0163C61.3907 73.3431 61.8438 73.5312 62.3066 73.5312C62.7688 73.5312 63.2226 73.3431 63.5495 73.0163C63.8777 72.6894 64.0645 72.2355 64.0645 71.7734C64.0645 71.3113 63.8777 70.8575 63.5495 70.5306C63.2226 70.2038 62.7688 70.0156 62.3066 70.0156Z" fill="white"/>
<path d="M88.2422 70.0156H78.3984V56.3047C78.3984 55.3338 77.6115 54.5469 76.6406 54.5469H64.3359V40.8359C64.3359 39.865 63.549 39.0781 62.5781 39.0781H27.4219C26.451 39.0781 25.6641 39.865 25.6641 40.8359V54.5469H13.3594C12.3885 54.5469 11.6016 55.3338 11.6016 56.3047V70.0156H1.75781C0.786896 70.0156 0 70.8025 0 71.7734V87.2422C0 88.2131 0.786896 89 1.75781 89H88.2422C89.2131 89 90 88.2131 90 87.2422V71.7734C90 70.8025 89.2131 70.0156 88.2422 70.0156ZM29.1797 42.5938H60.8203V54.5469H29.1797V42.5938ZM86.4844 85.4844H3.51562V73.5312H55.0195C55.9904 73.5312 56.7773 72.7444 56.7773 71.7734C56.7773 70.8025 55.9904 70.0156 55.0195 70.0156H15.1172V65.7969H30.0586C31.0295 65.7969 31.8164 65.01 31.8164 64.0391C31.8164 63.0681 31.0295 62.2812 30.0586 62.2812H15.1172V58.0625H74.8828V70.0156H69.3162C68.3453 70.0156 67.5584 70.8025 67.5584 71.7734C67.5584 72.7444 68.3453 73.5312 69.3162 73.5312H86.4844V85.4844Z" fill="white"/>
<path d="M37.9688 62.2812C37.5066 62.2812 37.0528 62.4694 36.7259 62.7962C36.3991 63.1231 36.2109 63.577 36.2109 64.0391C36.2109 64.5012 36.3991 64.955 36.7259 65.2819C37.0528 65.6087 37.5066 65.7969 37.9688 65.7969C38.4309 65.7969 38.8847 65.6087 39.2116 65.2819C39.5384 64.955 39.7266 64.5012 39.7266 64.0391C39.7266 63.577 39.5384 63.1231 39.2116 62.7962C38.8847 62.4694 38.4309 62.2812 37.9688 62.2812Z" fill="white"/>
</g>
<defs>
<clipPath id="clip0_385_19062">
<rect width="90" height="90" fill="white" transform="translate(0 -1)"/>
</clipPath>
</defs>
</svg>
