<svg width="90" height="87" viewBox="0 0 90 87" fill="none" xmlns="http://www.w3.org/2000/svg">
<g clip-path="url(#clip0_385_18977)">
<path d="M75.9199 2.51562C76.382 2.51562 76.8352 2.32748 77.1621 2.00064C77.4896 1.6738 77.6777 1.21992 77.6777 0.757812C77.6777 0.2957 77.4896 -0.158173 77.1621 -0.485016C76.8352 -0.811859 76.382 -1 75.9199 -1C75.4571 -1 75.0039 -0.811859 74.6771 -0.485016C74.3503 -0.158173 74.1621 0.2957 74.1621 0.757812C74.1621 1.21992 74.3496 1.6738 74.6771 2.00064C75.0039 2.32748 75.4578 2.51562 75.9199 2.51562Z" fill="white"/>
<path d="M89.483 11.8355C88.7963 11.1495 87.6833 11.1495 86.9966 11.8355L72.2894 26.5427C71.9591 26.873 71.7737 27.3214 71.7744 27.7883L71.7819 32.6655C71.7854 35.4382 70.9717 38.1209 69.4267 40.424L64.612 47.6042C64.3847 47.9434 64.0379 48.1714 63.6369 48.2462C63.2359 48.3211 62.8308 48.2339 62.4957 47.9997C62.4326 47.9558 62.3673 47.9173 62.3007 47.883V44.5775C62.3007 44.3749 62.2877 44.1751 62.2636 43.978L64.3723 41.8693C65.059 41.1827 65.059 40.0696 64.3723 39.383C63.6864 38.697 62.5733 38.697 61.8867 39.383L60.5051 40.7645C59.6475 40.0538 58.5475 39.6254 57.3486 39.6254C57.3067 39.6254 57.2655 39.6274 57.2237 39.6288L48.2293 30.6338C49.652 30.4999 51.0061 29.7658 51.8795 28.5175C52.6602 27.4031 52.952 26.0525 52.7028 24.7149C52.4529 23.3773 51.6927 22.223 50.5625 21.4657L49.0965 20.4824C51.5842 18.397 54.7785 17.2181 58.0373 17.2181H58.0573L61.209 17.2229H61.2117C61.6779 17.2229 62.1249 17.0375 62.4545 16.7079L72.5132 6.64923C73.1992 5.96327 73.1992 4.85022 72.5132 4.16357C71.8266 3.47762 70.7142 3.47693 70.0269 4.16357L60.4845 13.7059L58.0621 13.7025C58.0538 13.7025 58.0456 13.7025 58.0373 13.7025C53.6181 13.7025 49.2895 15.4301 46.0794 18.4588L43.3816 16.6502C40.4963 14.7153 37.1407 13.7011 33.6607 13.6997L29.5127 13.7059L15.3218 -0.485016C14.6352 -1.17166 13.5228 -1.17166 12.8355 -0.485016C12.1495 0.200943 12.1495 1.314 12.8355 2.00064L27.5427 16.7079C27.873 17.0375 28.32 17.2229 28.7856 17.2229H28.7883L33.6655 17.216H33.6855C36.4513 17.216 39.1264 18.0304 41.424 19.5705L48.6042 24.386C48.9434 24.6133 49.1714 24.9593 49.2462 25.361C49.3211 25.762 49.2339 26.1671 48.9997 26.5022C48.5458 27.1497 47.6614 27.3365 46.9837 26.9259L43.8808 25.0452C42.9016 24.4505 41.678 24.6744 40.9715 25.5746C40.2649 26.4754 40.3397 27.7169 41.1493 28.5258L46.144 33.5204C45.6557 33.3597 45.1353 33.2712 44.5942 33.2712C42.4354 33.2712 40.5965 34.6596 39.9195 36.5897C39.388 36.3947 38.8147 36.2876 38.2166 36.2876C35.4858 36.2876 33.2639 38.5096 33.2639 41.2404V51.1651C32.8374 50.8122 32.3534 50.5307 31.8343 50.3329C31.8301 50.3295 31.8274 50.3247 31.8233 50.3213L22.2878 40.7858C19.6587 38.1566 18.2133 34.6596 18.2181 30.9407L18.2229 27.789C18.2236 27.3214 18.0382 26.8737 17.7079 26.5434L3.00064 11.8355C2.314 11.1495 1.20163 11.1495 0.514984 11.8355C-0.171661 12.5221 -0.171661 13.6352 0.514984 14.3218L14.7059 28.5127L14.7025 30.9352C14.6963 35.5955 16.507 39.9763 19.8022 43.2715L27.334 50.8033C26.7812 51.1597 26.2992 51.6266 25.9154 52.1869C25.1463 53.3095 24.8676 54.6629 25.1312 55.9978L26.8039 64.4799C27.4761 67.8891 29.1316 70.9872 31.5919 73.4406L34.5287 76.3692V87.2408C34.5287 88.2117 35.3156 88.9986 36.2865 88.9986C37.2574 88.9986 38.0443 88.2117 38.0443 87.2408V75.6393C38.0443 75.1723 37.8582 74.7246 37.5279 74.3944L34.0741 70.9508C32.111 68.9932 30.7892 66.5206 30.2536 63.8001L28.5802 55.318C28.5013 54.917 28.5851 54.5112 28.8158 54.174C29.0465 53.8376 29.3953 53.613 29.797 53.5423C30.5756 53.405 31.3344 53.8994 31.5225 54.667L32.387 58.1923C32.6596 59.304 33.6813 60.0119 34.8184 59.8739C35.9548 59.7372 36.7795 58.8061 36.7795 57.6615V41.2397C36.7795 40.4473 37.4242 39.8025 38.2159 39.8025C38.95 39.8025 39.5563 40.356 39.6414 41.0673V49.6607C39.6414 49.7259 39.6455 49.7912 39.6524 49.855V50.7971C39.6524 51.7673 40.44 52.5549 41.4102 52.5549C42.3811 52.5549 43.168 51.7673 43.168 50.7971V41.239C43.168 41.1319 43.1639 41.0261 43.157 40.9211V38.2226C43.157 37.4302 43.8018 36.7854 44.5935 36.7854C45.3859 36.7854 46.0307 37.4302 46.0307 38.2226V40.9231C46.0238 41.0275 46.019 41.1333 46.019 41.239V49.66C46.019 49.7259 46.0238 49.7898 46.0307 49.8537V50.7971C46.0307 51.7673 46.8176 52.5549 47.7885 52.5549C48.7587 52.5549 49.5463 51.7673 49.5463 50.7971V41.068C49.6307 40.3567 50.237 39.8025 50.9711 39.8025C51.7635 39.8025 52.4082 40.4466 52.4082 41.239V44.2609C52.4014 44.366 52.3965 44.471 52.3965 44.5768V49.66C52.3965 49.7259 52.4014 49.7898 52.4082 49.8537V50.7971C52.4082 51.7673 53.1951 52.5549 54.166 52.5549C55.1363 52.5549 55.9238 51.7673 55.9238 50.7971V44.4058C56.0083 43.6944 56.6146 43.1403 57.3486 43.1403C58.141 43.1403 58.7851 43.7851 58.7851 44.5768V62.3293C58.7851 66.0482 57.3349 69.5425 54.7016 72.1683L52.47 74.3944C52.1391 74.724 51.953 75.1716 51.953 75.6386V80.6662C51.953 81.6364 52.7406 82.424 53.7108 82.424C54.6817 82.424 55.4686 81.6364 55.4686 80.6662V76.3685L57.1845 74.658C60.4839 71.3676 62.3014 66.9896 62.3014 62.3293V51.6746C62.644 51.7488 62.9942 51.7886 63.3479 51.7886C63.6582 51.7886 63.9706 51.7605 64.2824 51.7021C65.62 51.4522 66.7742 50.692 67.5323 49.5618L72.347 42.3816C74.282 39.4956 75.3024 36.1338 75.2975 32.66L75.2914 28.512L89.483 14.3211C90.1696 13.6352 90.1696 12.5221 89.483 11.8355Z" fill="white"/>
<path d="M53.7109 85.4844C53.2481 85.4844 52.795 85.6705 52.4681 85.9994C52.1413 86.3248 51.9531 86.778 51.9531 87.2422C51.9531 87.7043 52.1413 88.1582 52.4681 88.485C52.797 88.8119 53.2481 89 53.7109 89C54.1751 89 54.6269 88.8119 54.9538 88.485C55.282 88.1582 55.4688 87.7043 55.4688 87.2422C55.4688 86.778 55.282 86.3262 54.9538 85.9994C54.6269 85.6705 54.1751 85.4844 53.7109 85.4844Z" fill="white"/>
<path d="M78.748 80.1328C77.7778 80.1328 76.9902 80.9197 76.9902 81.8906V84.0755C76.9902 85.0464 77.7778 85.8333 78.748 85.8333C79.719 85.8333 80.5059 85.0464 80.5059 84.0755V81.8906C80.5059 80.9197 79.719 80.1328 78.748 80.1328Z" fill="white"/>
<path d="M78.748 69.6641C77.7778 69.6641 76.9902 70.4516 76.9902 71.4219V73.6068C76.9902 74.5777 77.7778 75.3646 78.748 75.3646C79.719 75.3646 80.5059 74.5777 80.5059 73.6068V71.4219C80.5059 70.4516 79.719 69.6641 78.748 69.6641Z" fill="white"/>
<path d="M74.6048 75.9922H72.4199C71.4497 75.9922 70.6621 76.7798 70.6621 77.75C70.6621 78.7209 71.4497 79.5078 72.4199 79.5078H74.6048C75.5757 79.5078 76.3626 78.7209 76.3626 77.75C76.3626 76.7798 75.5757 75.9922 74.6048 75.9922Z" fill="white"/>
<path d="M85.0775 75.9922H82.8926C81.9223 75.9922 81.1348 76.7798 81.1348 77.75C81.1348 78.7209 81.9223 79.5078 82.8926 79.5078H85.0775C86.0484 79.5078 86.8353 78.7209 86.8353 77.75C86.8353 76.7798 86.0484 75.9922 85.0775 75.9922Z" fill="white"/>
<path d="M8.08594 52.6914C7.11571 52.6914 6.32812 53.479 6.32812 54.4492V56.6348C6.32812 57.605 7.11571 58.3926 8.08594 58.3926C9.05685 58.3926 9.84375 57.605 9.84375 56.6348V54.4492C9.84375 53.479 9.05685 52.6914 8.08594 52.6914Z" fill="white"/>
<path d="M8.08594 42.2188C7.11571 42.2188 6.32812 43.0056 6.32812 43.9766V46.1615C6.32812 47.1317 7.11571 47.9193 8.08594 47.9193C9.05685 47.9193 9.84375 47.1317 9.84375 46.1615V43.9766C9.84375 43.0056 9.05685 42.2188 8.08594 42.2188Z" fill="white"/>
<path d="M3.94272 48.5469H1.75781C0.787582 48.5469 0 49.3338 0 50.3047C0 51.2749 0.787582 52.0625 1.75781 52.0625H3.94272C4.91364 52.0625 5.70053 51.2749 5.70053 50.3047C5.70053 49.3338 4.91364 48.5469 3.94272 48.5469Z" fill="white"/>
<path d="M14.4134 48.5469H12.2285C11.2576 48.5469 10.4707 49.3338 10.4707 50.3047C10.4707 51.2749 11.2576 52.0625 12.2285 52.0625H14.4134C15.3843 52.0625 16.1712 51.2749 16.1712 50.3047C16.1712 49.3338 15.3843 48.5469 14.4134 48.5469Z" fill="white"/>
</g>
<defs>
<clipPath id="clip0_385_18977">
<rect width="90" height="90" fill="white" transform="translate(0 -1)"/>
</clipPath>
</defs>
</svg>
