<svg width="80" height="80" viewBox="0 0 80 80" fill="none" xmlns="http://www.w3.org/2000/svg">
<g clip-path="url(#clip0_385_18934)">
<path d="M41.088 37.8258C40.7913 37.4523 40.3409 37.2344 39.8636 37.2344C39.3869 37.2344 38.9365 37.4523 38.6398 37.8258L33.9023 43.803C33.4518 44.3712 33.4518 45.1744 33.9023 45.7433L38.6398 51.7199C38.9365 52.0934 39.3869 52.3113 39.8636 52.3113C40.3409 52.3113 40.7913 52.0934 41.088 51.7199L45.8255 45.7433C46.2759 45.1744 46.2759 44.3712 45.8255 43.803L41.088 37.8258ZM39.8636 48.2354L37.1188 44.7728L39.8636 41.3103L42.6089 44.7728L39.8636 48.2354Z" fill="white"/>
<path d="M68.2993 28.2543C65.648 28.2543 63.491 30.4113 63.491 33.0626C63.491 33.7157 63.6228 34.3389 63.8596 34.9071L55.4221 39.3395C54.4767 39.8363 53.3018 39.5513 52.689 38.6766L42.4375 24.0496C44.5072 23.0724 45.9434 20.9661 45.9434 18.5295C45.9434 15.1659 43.2066 12.4297 39.8429 12.4297C36.4793 12.4297 33.7424 15.1659 33.7424 18.5295C33.7424 20.9661 35.1786 23.0724 37.2483 24.0496L26.9968 38.6766C26.384 39.5513 25.2091 39.8363 24.2637 39.3395L15.8262 34.9071C16.063 34.3389 16.1948 33.7163 16.1948 33.0626C16.1948 30.4119 14.0378 28.2549 11.3865 28.2549C8.73511 28.2549 6.57812 30.4119 6.57812 33.0626C6.57812 35.714 8.73511 37.871 11.3865 37.871C11.9523 37.871 12.4955 37.7721 12.9996 37.592L18.6881 56.3909C17.1293 57.4614 16.1045 59.2553 16.1045 61.2853C16.1045 64.5574 18.7668 67.2197 22.0389 67.2197H57.6469C60.919 67.2197 63.5813 64.5574 63.5813 61.2853C63.5813 59.2553 62.5565 57.4614 60.9977 56.3909L66.6862 37.592C67.1903 37.7721 67.7335 37.871 68.2993 37.871C70.9507 37.871 73.1077 35.714 73.1077 33.0626C73.1077 30.4119 70.9507 28.2543 68.2993 28.2543ZM39.8429 15.5529C41.4841 15.5529 42.8196 16.8883 42.8196 18.5295C42.8196 20.1714 41.4841 21.5068 39.8429 21.5068C38.2017 21.5068 36.8662 20.1714 36.8662 18.5295C36.8662 16.8883 38.2017 15.5529 39.8429 15.5529ZM9.70129 33.0626C9.70129 32.1337 10.4575 31.3781 11.3865 31.3781C12.3154 31.3781 13.071 32.1337 13.071 33.0626C13.071 33.9916 12.3154 34.7478 11.3865 34.7478C10.4575 34.7478 9.70129 33.9916 9.70129 33.0626ZM57.6469 64.096H22.0389C20.4893 64.096 19.2283 62.835 19.2283 61.2853C19.2283 59.735 20.4893 58.474 22.0389 58.474H57.6469C59.1965 58.474 60.4575 59.735 60.4575 61.2853C60.4575 62.835 59.1965 64.096 57.6469 64.096ZM58.0448 55.3655C57.913 55.3563 57.7805 55.3502 57.6469 55.3502H22.0389C21.9053 55.3502 21.7728 55.3563 21.641 55.3655L16.6489 38.8677L22.811 42.1044C25.1432 43.3294 28.0424 42.6268 29.5542 40.4692L39.8429 25.7891L50.131 40.4692C51.6434 42.6268 54.542 43.3294 56.8742 42.1044L63.0363 38.8677L58.0448 55.3655ZM68.2993 34.7472C67.3704 34.7472 66.6148 33.9916 66.6148 33.0626C66.6148 32.1337 67.3704 31.3781 68.2993 31.3781C69.2283 31.3781 69.9839 32.1337 69.9839 33.0626C69.9839 33.9916 69.2283 34.7472 68.2993 34.7472Z" fill="white"/>
<path d="M53.0398 46.4609C52.629 46.4609 52.2262 46.6282 51.9357 46.9187C51.6451 47.2092 51.4785 47.6121 51.4785 48.0228C51.4785 48.4354 51.6451 48.8364 51.9357 49.127C52.2262 49.4193 52.629 49.5847 53.0398 49.5847C53.4506 49.5847 53.8534 49.4193 54.1439 49.127C54.4344 48.8364 54.6017 48.4354 54.6017 48.0228C54.6017 47.6121 54.4344 47.2092 54.1439 46.9187C53.8534 46.6282 53.4506 46.4609 53.0398 46.4609Z" fill="white"/>
<path d="M26.6869 46.4609C26.2761 46.4609 25.8745 46.6282 25.5828 46.9187C25.2922 47.2092 25.125 47.6121 25.125 48.0228C25.125 48.4354 25.2922 48.8364 25.5828 49.127C25.8745 49.4193 26.2761 49.5847 26.6869 49.5847C27.0989 49.5847 27.5005 49.4193 27.791 49.127C28.0828 48.8364 28.2482 48.4354 28.2482 48.0228C28.2482 47.6121 28.0828 47.2092 27.791 46.9187C27.5005 46.6282 27.0989 46.4609 26.6869 46.4609Z" fill="white"/>
<path d="M39.8431 8.05603C40.7056 8.05603 41.405 7.35657 41.405 6.49414V1.40564C41.405 0.543213 40.7056 -0.15625 39.8431 -0.15625C38.9807 -0.15625 38.2812 0.543213 38.2812 1.40564V6.49414C38.2812 7.35657 38.9807 8.05603 39.8431 8.05603Z" fill="white"/>
<path d="M39.8431 70.4336C38.9807 70.4336 38.2812 71.1324 38.2812 71.9949V78.2815C38.2812 79.1439 38.9807 79.8434 39.8431 79.8434C40.7056 79.8434 41.405 79.1439 41.405 78.2815V71.9949C41.405 71.1324 40.7056 70.4336 39.8431 70.4336Z" fill="white"/>
<path d="M67.0248 14.2253C67.4355 14.2253 67.8384 14.0581 68.1289 13.7676C68.4194 13.4771 68.5867 13.0754 68.5867 12.6635C68.5867 12.2527 68.4194 11.8499 68.1289 11.5593C67.8384 11.2688 67.4355 11.1016 67.0248 11.1016C66.614 11.1016 66.2112 11.2688 65.9207 11.5593C65.6301 11.8499 65.4629 12.2527 65.4629 12.6635C65.4629 13.0742 65.6301 13.4771 65.9207 13.7676C66.2112 14.0581 66.614 14.2253 67.0248 14.2253Z" fill="white"/>
<path d="M56.2456 25.0049C56.6448 25.0049 57.0446 24.8523 57.3498 24.5478L64.1064 17.7912C64.7161 17.1814 64.7161 16.1927 64.1064 15.5823C63.496 14.9726 62.5072 14.9726 61.8975 15.5823L55.1409 22.3389C54.5312 22.9486 54.5312 23.9374 55.1409 24.5478C55.4461 24.8523 55.8459 25.0049 56.2456 25.0049Z" fill="white"/>
<path d="M11.2782 66.2014L8.34793 69.1317C7.73819 69.7421 7.73819 70.7309 8.34793 71.3406C8.65311 71.6458 9.05289 71.7984 9.45206 71.7984C9.85184 71.7984 10.2516 71.6458 10.5568 71.3406L13.4871 68.4103C14.0968 67.8006 14.0968 66.8118 13.4871 66.2014C12.8774 65.5917 11.888 65.5917 11.2782 66.2014Z" fill="white"/>
<path d="M3.93289 73.5457L1.30106 76.1769C0.691315 76.7866 0.691315 77.7754 1.30106 78.3857C1.60623 78.6909 2.00601 78.8429 2.40579 78.8429C2.80496 78.8429 3.20474 78.6909 3.50992 78.3857L6.14114 75.7539C6.7515 75.1442 6.7515 74.1554 6.14114 73.5457C5.5314 72.9353 4.54263 72.9353 3.93289 73.5457Z" fill="white"/>
<path d="M68.5998 66.3909C67.9894 65.7812 67.0006 65.7812 66.3909 66.3909C65.7812 67.0006 65.7812 67.9894 66.3909 68.5998L69.9889 72.1978C70.2941 72.503 70.6939 72.6549 71.093 72.6549C71.4928 72.6549 71.8926 72.503 72.1978 72.1978C72.8075 71.588 72.8075 70.5993 72.1978 69.9889L68.5998 66.3909Z" fill="white"/>
<path d="M74.9193 73.3574C74.5085 73.3574 74.1051 73.5247 73.8152 73.8152C73.5247 74.1051 73.3574 74.5085 73.3574 74.9193C73.3574 75.3295 73.5247 75.7329 73.8152 76.0234C74.1051 76.3134 74.5085 76.4806 74.9193 76.4806C75.3295 76.4806 75.7329 76.3134 76.0234 76.0234C76.3134 75.7329 76.4806 75.3295 76.4806 74.9193C76.4806 74.5085 76.3134 74.1051 76.0234 73.8152C75.7329 73.5247 75.3295 73.3574 74.9193 73.3574Z" fill="white"/>
<path d="M9.78507 11.9933C10.0896 12.2985 10.4894 12.4511 10.8892 12.4511C11.289 12.4511 11.6888 12.2985 11.9933 11.9933C12.6031 11.3836 12.6031 10.3948 11.9933 9.78445L10.5529 8.34402C9.94315 7.73428 8.95377 7.73428 8.34402 8.34402C7.73428 8.95377 7.73428 9.94254 8.34402 10.5529L9.78507 11.9933Z" fill="white"/>
<path d="M20.3737 22.58C20.6783 22.8852 21.078 23.0378 21.4778 23.0378C21.8776 23.0378 22.2774 22.8852 22.5819 22.58C23.1917 21.9702 23.1917 20.9815 22.5819 20.3711L17.1486 14.9378C16.5388 14.328 15.5501 14.328 14.9397 14.9378C14.33 15.5475 14.33 16.5369 14.9397 17.1466L20.3737 22.58Z" fill="white"/>
<path d="M78.2816 38.2812H75.7377C74.8746 38.2812 74.1758 38.9807 74.1758 39.8431C74.1758 40.7056 74.8746 41.405 75.7377 41.405H78.2816C79.144 41.405 79.8435 40.7056 79.8435 39.8431C79.8435 38.9807 79.144 38.2812 78.2816 38.2812Z" fill="white"/>
<path d="M4.54895 41.405C5.41138 41.405 6.11023 40.7056 6.11023 39.8431C6.11023 38.9807 5.41138 38.2812 4.54895 38.2812H1.40564C0.543213 38.2812 -0.15625 38.9807 -0.15625 39.8431C-0.15625 40.7056 0.543213 41.405 1.40564 41.405H4.54895Z" fill="white"/>
</g>
<defs>
<clipPath id="clip0_385_18934">
<rect width="80" height="80" fill="white"/>
</clipPath>
</defs>
</svg>
