<svg width="96" height="87" viewBox="0 0 96 87" fill="none" xmlns="http://www.w3.org/2000/svg">
<g clip-path="url(#clip0_385_19101)">
<path d="M22.8694 72.1452C23.2149 71.8183 23.4138 71.3645 23.4138 70.9023C23.4138 70.4402 23.2149 69.9864 22.8694 69.6595C22.5239 69.3327 22.044 69.1445 21.5555 69.1445C21.067 69.1445 20.5872 69.3327 20.2417 69.6595C19.8962 69.9864 19.6973 70.4402 19.6973 70.9023C19.6973 71.3645 19.8962 71.8183 20.2417 72.1452C20.5872 72.472 21.067 72.6602 21.5555 72.6602C22.044 72.6602 22.5239 72.472 22.8694 72.1452Z" fill="white"/>
<path d="M93.2846 52.9727H85.1083V47.908C85.1083 38.5208 77.0357 30.8846 67.1122 30.8846H60.6772L49.4268 17.0529C49.4268 17.0336 49.4297 17.0151 49.4297 16.9959V0.589844C49.4297 -0.381073 48.5978 -1.16797 47.5714 -1.16797C46.545 -1.16797 45.7132 -0.381073 45.7132 0.589844V14.4402C41.1466 14.2658 36.8741 12.5045 33.6185 9.43796L32.2669 8.16423V0.589844C32.2669 -0.381073 31.4351 -1.16797 30.4087 -1.16797C29.3823 -1.16797 28.5504 -0.381073 28.5504 0.589844V8.45399L18.4679 26.3061C18.4621 26.3157 18.4556 26.3239 18.4498 26.3342C16.0014 30.7041 17.5642 36.1677 22.0088 38.7721L46.2394 52.9727H36.7935C35.7671 52.9727 34.9353 53.7596 34.9353 54.7305V69.1445H31.2187C30.1924 69.1445 29.3605 69.9314 29.3605 70.9023C29.3605 71.8733 30.1924 72.6602 31.2187 72.6602H91.4263V85.3164H3.71652V72.6602H13.921C14.9474 72.6602 15.7792 71.8733 15.7792 70.9023C15.7792 69.9314 14.9474 69.1445 13.921 69.1445H1.85826C0.831861 69.1445 0 69.9314 0 70.9023V87.0742C0 88.0451 0.831861 88.832 1.85826 88.832H93.2846C94.311 88.832 95.1429 88.0451 95.1429 87.0742V54.7305C95.1429 53.7596 94.311 52.9727 93.2846 52.9727ZM45.4671 17.9503L48.7249 21.9555C41.543 21.7172 34.6456 19.2762 29.0651 15.0025L30.8689 11.8089L30.9966 11.9284C34.8946 15.6006 40.0027 17.7196 45.4671 17.9503ZM27.2859 18.1535C33.6991 22.8742 41.5989 25.467 49.7745 25.4917H51.6015L52.4719 26.5615L48.2356 30.5695C47.5097 31.2554 47.5097 32.3685 48.2356 33.0551C48.5985 33.3985 49.074 33.5701 49.5495 33.5701C50.0249 33.5701 50.5004 33.3985 50.8633 33.0551L54.7577 29.372L57.2946 32.4914L53.7037 35.8882C52.9778 36.5749 52.9778 37.6879 53.7037 38.3739C54.0666 38.7172 54.5421 38.8889 55.0175 38.8889C55.493 38.8889 55.9692 38.7172 56.3314 38.3739L60.5321 34.4003H64.6239L61.0344 37.7957C60.3085 38.4824 60.3085 39.5954 61.0344 40.2821C61.3973 40.6254 61.8728 40.7964 62.3482 40.7964C62.8237 40.7964 63.2998 40.6254 63.6621 40.2821L69.5192 34.7415C69.562 34.701 69.602 34.6584 69.6397 34.6152C75.9244 35.6822 80.7972 40.6494 81.3417 46.7661H55.3449L22.5365 26.5636L27.2859 18.1535ZM23.9665 35.7839C21.791 34.5088 20.716 32.1419 21.0782 29.8609L53.7799 49.9967C54.0811 50.1828 54.4339 50.2817 54.7932 50.2817H81.3925V52.9727H53.2965L23.9665 35.7839ZM38.6518 69.1445V56.4883H91.4263V69.1445H38.6518Z" fill="white"/>
</g>
<defs>
<clipPath id="clip0_385_19101">
<rect width="95.1429" height="90" fill="white" transform="translate(0 -1.16797)"/>
</clipPath>
</defs>
</svg>
