<svg width="90" height="87" viewBox="0 0 90 87" fill="none" xmlns="http://www.w3.org/2000/svg">
<g clip-path="url(#clip0_385_19080)">
<path d="M44.873 12.1484V18.5157C44.873 19.4866 45.6606 20.2735 46.6309 20.2735C47.6018 20.2735 48.3887 19.4866 48.3887 18.5157V12.1484C48.3887 11.1775 47.6018 10.3906 46.6309 10.3906C45.6606 10.3906 44.873 11.1775 44.873 12.1484Z" fill="white"/>
<path d="M55.6419 17.616L53.0443 20.2143C52.3576 20.9009 52.3576 22.014 53.0443 22.7C53.3876 23.0433 53.8374 23.2149 54.2871 23.2149C54.7369 23.2149 55.1866 23.0433 55.5299 22.7L58.1282 20.1024C58.8142 19.4157 58.8142 18.3027 58.1282 17.616C57.4416 16.9301 56.3292 16.9301 55.6419 17.616Z" fill="white"/>
<path d="M35.1336 17.616C34.4477 18.3027 34.4477 19.4157 35.1336 20.1024L37.7319 22.7C38.0752 23.0433 38.525 23.2149 38.9747 23.2149C39.4245 23.2149 39.8742 23.0433 40.2175 22.7C40.9042 22.014 40.9042 20.9009 40.2175 20.2143L37.62 17.616C36.9333 16.9301 35.8203 16.9301 35.1336 17.616Z" fill="white"/>
<path d="M68.936 29.0483C68.0117 28.7496 67.0216 29.257 66.7229 30.1813C64.9301 35.7362 60.8912 40.323 55.6109 42.8183H48.3888V36.3954C50.8037 35.6277 52.5581 33.3645 52.5581 30.699C52.5581 27.4038 49.8774 24.7224 46.5815 24.7224C43.2863 24.7224 40.605 27.4038 40.605 30.699C40.605 33.4009 42.4074 35.6888 44.8732 36.4256V42.8183H37.5528C30.1707 39.3308 25.4219 31.858 25.4219 23.6753C25.4219 12.0078 34.9141 2.51562 46.5815 2.51562C55.4468 2.51562 63.4394 8.10904 66.4709 16.4346C66.8032 17.3465 67.8119 17.8168 68.7238 17.4852C69.6363 17.1528 70.106 16.1442 69.7744 15.2316C66.2388 5.52313 56.9183 -1 46.5815 -1C32.9757 -1 21.9062 10.0694 21.9062 23.6753C21.9062 31.8162 25.9382 39.3528 32.4675 43.9162C31.2178 44.8817 30.4097 46.3936 30.4097 48.0917C30.4097 50.6248 32.2059 52.7458 34.5913 53.2505V53.4894C34.5913 59.5038 39.0429 64.4964 44.8237 65.3499V71.7782C41.6157 67.5087 36.5112 64.7422 30.7722 64.7422H25.8394C24.8691 64.7422 24.0815 65.5291 24.0815 66.5V71.4329C24.0815 81.1194 31.9622 89 41.6494 89H51.5144C61.2009 89 69.0815 81.1194 69.0815 71.4329V66.5C69.0815 65.5291 68.2946 64.7422 67.3237 64.7422H62.3916C56.6519 64.7422 51.5474 67.5087 48.3394 71.7782V65.3499C54.1209 64.4971 58.5724 59.5038 58.5724 53.4894V53.2505C60.9578 52.7458 62.7534 50.6248 62.7534 48.091C62.7534 46.3936 61.9466 44.8823 60.6969 43.9169C65.0846 40.8531 68.4059 36.4146 70.0689 31.2607C70.3669 30.3371 69.8602 29.3463 68.936 29.0483ZM44.1206 30.699C44.1206 29.3422 45.2247 28.2381 46.5815 28.2381C47.939 28.2381 49.0425 29.3422 49.0425 30.699C49.0425 32.0565 47.939 33.1599 46.5815 33.1599C45.2247 33.1599 44.1206 32.0565 44.1206 30.699ZM27.5972 71.4329V68.2578H30.7722C38.5203 68.2578 44.8237 74.5612 44.8237 82.3093V82.998L37.454 75.6283C36.7673 74.9416 35.6543 74.9416 34.9676 75.6283C34.281 76.3142 34.281 77.4273 34.9676 78.1139L42.3381 85.4844H41.6494C33.9013 85.4844 27.5972 79.181 27.5972 71.4329ZM62.3916 68.2578H65.5659V71.4329C65.5659 79.181 59.2625 85.4844 51.5144 85.4844H50.8257L58.1961 78.1139C58.8828 77.4273 58.8828 76.3149 58.1961 75.6283C57.5095 74.9416 56.3965 74.9416 55.7098 75.6283L48.3394 82.998V82.3093C48.3394 74.5612 54.6434 68.2578 62.3916 68.2578ZM55.0568 53.4894C55.0568 58.1621 51.2549 61.964 46.5815 61.964C41.9082 61.964 38.107 58.1621 38.107 53.4894V53.3652H55.0568V53.4894ZM57.48 49.8495H35.6831C34.7142 49.8495 33.9253 49.0606 33.9253 48.0917C33.9253 47.1222 34.7142 46.3339 35.6831 46.3339H57.48C58.4495 46.3339 59.2378 47.1222 59.2378 48.0917C59.2378 49.0606 58.4495 49.8495 57.48 49.8495Z" fill="white"/>
<path d="M69.498 21.918C68.5271 21.918 67.7402 22.7049 67.7402 23.6758V23.695C67.7402 24.6659 68.5271 25.4528 69.498 25.4528C70.4683 25.4528 71.2559 24.6659 71.2559 23.695V23.6758C71.2559 22.7056 70.4683 21.918 69.498 21.918Z" fill="white"/>
<path d="M80.3301 60.0508C79.3598 60.0508 78.5723 60.8377 78.5723 61.8086V63.9935C78.5723 64.9644 79.3598 65.7513 80.3301 65.7513C81.301 65.7513 82.0879 64.9644 82.0879 63.9935V61.8086C82.0879 60.8377 81.301 60.0508 80.3301 60.0508Z" fill="white"/>
<path d="M80.3301 49.5781C79.3598 49.5781 78.5723 50.3657 78.5723 51.3359V53.5208C78.5723 54.4918 79.3598 55.2787 80.3301 55.2787C81.301 55.2787 82.0879 54.4918 82.0879 53.5208V51.3359C82.0879 50.3657 81.301 49.5781 80.3301 49.5781Z" fill="white"/>
<path d="M76.1869 55.9062H74.002C73.0317 55.9062 72.2441 56.6938 72.2441 57.6641C72.2441 58.635 73.0317 59.4219 74.002 59.4219H76.1869C77.1578 59.4219 77.9447 58.635 77.9447 57.6641C77.9447 56.6938 77.1578 55.9062 76.1869 55.9062Z" fill="white"/>
<path d="M86.6595 55.9062H84.4746C83.5044 55.9062 82.7168 56.6938 82.7168 57.6641C82.7168 58.635 83.5044 59.4219 84.4746 59.4219H86.6595C87.6304 59.4219 88.4173 58.635 88.4173 57.6641C88.4173 56.6938 87.6304 55.9062 86.6595 55.9062Z" fill="white"/>
<path d="M9.66797 33.0859C8.69705 33.0859 7.91016 33.8728 7.91016 34.8438V37.0287C7.91016 37.9996 8.69705 38.7865 9.66797 38.7865C10.6389 38.7865 11.4258 37.9996 11.4258 37.0287V34.8438C11.4258 33.8728 10.6389 33.0859 9.66797 33.0859Z" fill="white"/>
<path d="M9.66797 22.6133C8.69705 22.6133 7.91016 23.4002 7.91016 24.3711V26.556C7.91016 27.5269 8.69705 28.3138 9.66797 28.3138C10.6389 28.3138 11.4258 27.5269 11.4258 26.556V24.3711C11.4258 23.4009 10.6389 22.6133 9.66797 22.6133Z" fill="white"/>
<path d="M5.52475 28.9414H3.33984C2.36893 28.9414 1.58203 29.7283 1.58203 30.6992C1.58203 31.6701 2.36893 32.457 3.33984 32.457H5.52475C6.49567 32.457 7.28256 31.6701 7.28256 30.6992C7.28256 29.7283 6.49567 28.9414 5.52475 28.9414Z" fill="white"/>
<path d="M15.9955 28.9414H13.8105C12.8396 28.9414 12.0527 29.7283 12.0527 30.6992C12.0527 31.6701 12.8396 32.457 13.8105 32.457H15.9955C16.9664 32.457 17.7533 31.6701 17.7533 30.6992C17.7533 29.7283 16.9664 28.9414 15.9955 28.9414Z" fill="white"/>
</g>
<defs>
<clipPath id="clip0_385_19080">
<rect width="90" height="90" fill="white" transform="translate(0 -1)"/>
</clipPath>
</defs>
</svg>
