<svg width="61" height="60" viewBox="0 0 61 60" fill="none" xmlns="http://www.w3.org/2000/svg">
<ellipse cx="30.25" cy="30" rx="30.25" ry="30" fill="#BFF2F2" fill-opacity="0.2"/>
<path d="M41.4043 24.5974H42.7084C44.3941 24.5974 45.094 26.7373 43.7293 27.7186L37.0442 32.5257L39.6106 40.2839C40.1367 41.874 38.3005 43.2006 36.9356 42.2167L30.2758 37.4163L23.5926 42.2454C22.2293 43.2304 20.3922 41.9074 20.9148 40.3169L23.4768 32.5197L16.7743 27.7207C15.4061 26.741 16.1049 24.5974 17.7923 24.5974H26.054L28.575 16.8219C29.0917 15.2282 31.3645 15.2254 31.8851 16.818L34.4282 24.5974H35.7324" stroke="#00C0C5" stroke-width="1.8" stroke-miterlimit="10" stroke-linecap="round" stroke-linejoin="round"/>
<path d="M30.25 41.3202V46.375" stroke="#00C0C5" stroke-width="1.8" stroke-miterlimit="10" stroke-linecap="round" stroke-linejoin="round"/>
<path d="M40.7754 33.7349L45.6228 35.2969" stroke="#00C0C5" stroke-width="1.8" stroke-miterlimit="10" stroke-linecap="round" stroke-linejoin="round"/>
<path d="M36.7549 21.4648L39.7508 17.3754" stroke="#00C0C5" stroke-width="1.8" stroke-miterlimit="10" stroke-linecap="round" stroke-linejoin="round"/>
<path d="M23.7449 21.4648L20.749 17.3754" stroke="#00C0C5" stroke-width="1.8" stroke-miterlimit="10" stroke-linecap="round" stroke-linejoin="round"/>
<path d="M19.7249 33.7349L14.8774 35.2969" stroke="#00C0C5" stroke-width="1.8" stroke-miterlimit="10" stroke-linecap="round" stroke-linejoin="round"/>
</svg>
