<svg width="60" height="60" viewBox="0 0 60 60" fill="none" xmlns="http://www.w3.org/2000/svg">
<circle cx="30" cy="30" r="30" fill="#FFA0FD" fill-opacity="0.2"/>
<path d="M28.6862 36.9906C29.8568 37.9044 31.3187 38.8944 32.6875 40C39.9874 34.1032 45.375 31.2456 45.375 25C45.375 20.8582 41.8293 17.5 37.6875 17.5C35.7668 17.5 34.0144 18.9388 32.6875 20.5631C31.3606 18.9388 29.4206 17.5 27.5 17.5C23.3581 17.5 19.8125 20.8582 19.8125 25C19.8125 27.1169 20.3669 28.8075 21.4093 30.3669C21.4224 30.3876 21.4369 30.4082 21.4506 30.4288" stroke="#B38DB2" stroke-width="1.8" stroke-miterlimit="10" stroke-linecap="round" stroke-linejoin="round"/>
<path d="M42.735 26.5098C42.8294 26.0347 42.875 25.5354 42.875 24.9998C42.875 21.1341 38.5437 19.1079 36.4375 20.4491" stroke="#B38DB2" stroke-width="1.8" stroke-miterlimit="10" stroke-linecap="round" stroke-linejoin="round"/>
<path d="M28.6367 36.9475C27.3199 38.5056 25.093 40.0756 22.2929 42.5C17.6511 38.4806 14.6299 36.8325 14.6299 33.7181C14.6299 31.2831 16.5967 29.375 18.8679 29.375C19.9723 29.375 20.8011 29.8081 21.4098 30.3669C21.7817 30.7081 22.0717 31.0963 22.2929 31.4606C22.8761 30.4994 24.1261 29.375 25.9061 29.375C28.1779 29.375 29.9567 31.2831 29.9567 33.7181C29.9567 34.9406 29.4868 35.9412 28.6367 36.9475Z" stroke="#B38DB2" stroke-width="1.8" stroke-miterlimit="10" stroke-linecap="round" stroke-linejoin="round"/>
</svg>
