<svg width="60" height="60" viewBox="0 0 60 60" fill="none" xmlns="http://www.w3.org/2000/svg">
<circle cx="30" cy="30" r="30" fill="#BFF2F2" fill-opacity="0.2"/>
<path d="M29.999 20.3183C30.3994 20.3183 30.724 19.9937 30.724 19.5933V15.875C30.724 15.4746 30.3994 15.15 29.999 15.15C29.5987 15.15 29.274 15.4746 29.274 15.875V19.5933C29.274 19.9937 29.5987 20.3183 29.999 20.3183Z" fill="#00C0C5" stroke="#00C0C5" stroke-width="0.2"/>
<path d="M25.5035 21.5421L25.5035 21.5421C25.645 21.6835 25.8307 21.7542 26.0159 21.7542C26.2014 21.7542 26.3872 21.6833 26.5288 21.5417L26.5288 21.5417C26.8117 21.2584 26.8115 20.7994 26.5283 20.5164L26.5283 20.5164L25.033 19.0223L25.0329 19.0223C24.7496 18.7393 24.2906 18.7395 24.0076 19.0227L24.0076 19.0227C23.7246 19.306 23.7249 19.765 24.008 20.048L24.008 20.048L25.5035 21.5421Z" fill="#00C0C5" stroke="#00C0C5" stroke-width="0.2"/>
<path d="M34.4025 21.6387L34.4025 21.6387L35.9923 20.0476L35.9924 20.0476C36.2753 19.7644 36.2751 19.3054 35.9919 19.0223C35.7087 18.7392 35.2496 18.7395 34.9666 19.0227L34.9666 19.0227L33.3767 20.6138L33.3767 20.6138C33.0938 20.897 33.094 21.356 33.3772 21.639C33.5187 21.7806 33.7044 21.8513 33.8897 21.8513C34.0752 21.8513 34.261 21.7803 34.4025 21.6387Z" fill="#00C0C5" stroke="#00C0C5" stroke-width="0.2"/>
<path d="M41.9062 31.6499H41.5971C41.9514 31.1259 42.1589 30.4947 42.1589 29.8159V28.9339C42.1589 27.1229 40.6859 25.6499 38.875 25.6499C37.0641 25.6499 35.5911 27.1229 35.5911 28.9338V29.3781L31.0598 24.8468L31.0598 24.8468C30.7799 24.5669 30.3718 24.4714 30.0001 24.5915C29.6284 24.4714 29.2202 24.5669 28.9402 24.8468L28.9402 24.8468L24.4091 29.3781V28.9338C24.4089 27.1229 22.9359 25.6499 21.125 25.6499C19.3141 25.6499 17.8411 27.1229 17.8411 28.9338V29.8159C17.8411 30.4947 18.0486 31.1258 18.4029 31.6498H18.0938C15.7812 31.6499 13.9 33.5311 13.9 35.8436V44.1248C13.9 44.5253 14.2247 44.8498 14.625 44.8498H17.2656C17.3278 44.8498 17.388 44.8418 17.4453 44.8271C17.5027 44.8418 17.5628 44.8498 17.625 44.8498H24.625C25.0253 44.8498 25.35 44.5253 25.35 44.1248V41.9998C25.35 41.5994 25.0253 41.2748 24.625 41.2748C24.2247 41.2748 23.9 41.5994 23.9 41.9998V43.3998H18.35V36.3782C18.35 35.9777 18.0253 35.6532 17.625 35.6532C17.2247 35.6532 16.9 35.9777 16.9 36.3782V43.3998H15.35V35.8436C15.35 34.3308 16.5809 33.0999 18.0938 33.0999H22.4375C22.6349 33.0999 22.8141 33.0207 22.9447 32.8929L22.9448 32.893L22.9502 32.8876L29.258 26.5797C29.1743 27.7662 28.7832 28.9047 28.1142 29.8984L24.0237 35.9732L24.0237 35.9733C23.9431 36.0929 23.9001 36.2339 23.9001 36.3782V37.0624C23.9001 37.4628 24.2247 37.7874 24.6251 37.7874C25.0254 37.7874 25.3501 37.4628 25.3501 37.0624V36.5994L29.3169 30.7081C29.5812 30.3157 29.8088 29.9043 30.0001 29.4786C30.1913 29.9043 30.4189 30.3157 30.6832 30.7081L34.65 36.5994V44.1248C34.65 44.5253 34.9747 44.8498 35.375 44.8498H42.375C42.4372 44.8498 42.4973 44.8418 42.5547 44.8271C42.612 44.8418 42.6722 44.8498 42.7344 44.8498H45.375C45.7753 44.8498 46.1 44.5253 46.1 44.1248V35.8436C46.1 33.5311 44.2188 31.6499 41.9062 31.6499ZM22.8783 32.8179L22.8795 32.8168L22.8783 32.8179ZM22.9417 32.8951L22.9434 32.8937L22.9417 32.8952L22.9417 32.8951ZM19.2911 29.8159V28.9339C19.2911 27.9226 20.1139 27.0999 21.125 27.0999C22.1361 27.0999 22.9589 27.9226 22.9589 28.9338V29.8159C22.9589 30.8271 22.1362 31.6499 21.125 31.6499C20.1138 31.6499 19.2911 30.8271 19.2911 29.8159ZM37.0411 28.9338C37.0411 27.9226 37.8639 27.0999 38.875 27.0999C39.8861 27.0999 40.7089 27.9226 40.7089 28.9338V29.8159C40.7089 30.8271 39.8862 31.6499 38.875 31.6499C37.8638 31.6499 37.0411 30.8271 37.0411 29.8159V28.9338ZM44.65 43.3998H43.1V38.8749C43.1 38.4744 42.7753 38.1498 42.375 38.1498C41.9747 38.1498 41.65 38.4744 41.65 38.8749V43.3998H36.1V36.3782C36.1 36.2339 36.0569 36.0929 35.9764 35.9732L31.8859 29.8984C31.2168 28.9048 30.8257 27.7663 30.742 26.5797L37.0499 32.8876C37.0598 32.8976 37.0694 32.9062 37.0786 32.9139C37.2067 33.029 37.3761 33.1 37.5625 33.1H41.9062C43.4191 33.1 44.65 34.3309 44.65 35.8437V43.3998Z" fill="#00C0C5" stroke="#00C0C5" stroke-width="0.2"/>
<path d="M42.8875 35.8663L42.8877 35.8665C43.0225 36.0019 43.1 36.1878 43.1 36.3789C43.1 36.5699 43.0225 36.7565 42.8875 36.8915C42.8875 36.8915 42.8875 36.8915 42.8875 36.8915L42.8168 36.8208C42.7006 36.937 42.5394 37.0039 42.375 37.0039C42.2106 37.0039 42.0494 36.937 41.9331 36.8208L42.8875 35.8663ZM42.8875 35.8663C42.7526 35.7313 42.5659 35.6539 42.375 35.6539C42.1841 35.6539 41.9974 35.7313 41.8624 35.8663C41.7274 36.0013 41.65 36.188 41.65 36.3789C41.65 36.5698 41.7274 36.7565 41.8624 36.8915L42.8875 35.8663Z" fill="#00C0C5" stroke="#00C0C5" stroke-width="0.2"/>
<path d="M24.1124 39.1749C24.2474 39.0399 24.4341 38.9625 24.625 38.9625C24.8159 38.9625 25.0026 39.0399 25.1375 39.1749C25.1375 39.1749 25.1375 39.1749 25.1375 39.1749C25.1375 39.1749 25.1375 39.1749 25.1375 39.1749C25.2726 39.3099 25.35 39.4966 25.35 39.6875C25.35 39.8784 25.2725 40.0651 25.1375 40.2001M24.1124 39.1749L25.0668 40.1294L25.1375 40.2001M24.1124 39.1749C23.9774 39.3099 23.9 39.4966 23.9 39.6875M24.1124 39.1749L23.9 39.6875M25.1375 40.2001C25.0026 40.3351 24.8159 40.4125 24.625 40.4125M25.1375 40.2001L24.625 40.4125M23.9 39.6875C23.9 39.8784 23.9774 40.0651 24.1124 40.2001M23.9 39.6875L24.1124 40.2001M24.1124 40.2001C24.2475 40.3351 24.4341 40.4125 24.625 40.4125M24.1124 40.2001L24.625 40.4125" fill="#00C0C5" stroke="#00C0C5" stroke-width="0.2"/>
</svg>
