<svg width="61" height="60" viewBox="0 0 61 60" fill="none" xmlns="http://www.w3.org/2000/svg">
<circle cx="30.5" cy="30" r="30" fill="#8CD956" fill-opacity="0.2"/>
<path d="M26.1208 34.1707C25.4235 33.463 24.6402 32.8402 23.7865 32.3184L17.4704 28.4574C16.6347 27.9464 16.125 27.0375 16.125 26.058C16.125 24.8529 16.8928 23.7818 18.034 23.3948L19.3422 22.9512" stroke="#689647" stroke-width="1.8" stroke-miterlimit="10" stroke-linecap="round" stroke-linejoin="round"/>
<path d="M44.3303 39.8255H46.8747C46.8747 41.238 45.7297 42.383 44.3172 42.383H38.5316C35.1207 42.383 31.9024 40.9938 29.5752 38.6074" stroke="#689647" stroke-width="1.8" stroke-miterlimit="10" stroke-linecap="round" stroke-linejoin="round"/>
<path d="M35.6778 23.7024C33.833 24.5917 31.5515 24.2713 30.0214 22.7412C28.9825 21.7023 28.5013 20.3168 28.5778 18.9568C28.5978 18.6018 28.4716 18.2543 28.2237 17.9994C27.9695 17.7381 27.6143 17.5962 27.2505 17.6197C23.7174 17.8488 20.2934 20.1147 19.3613 22.9826" stroke="#689647" stroke-width="1.8" stroke-miterlimit="10" stroke-linecap="round" stroke-linejoin="round"/>
<path d="M31.0663 23.5415C31.6723 22.0854 33.0819 21.0652 34.7349 20.9746L38.1674 30.8814C38.739 32.5309 39.9559 33.8777 41.5392 34.613L44.393 35.9383C45.9067 36.6411 46.875 38.1585 46.875 39.8274H39.789C36.0041 39.8274 32.4591 37.9743 30.2988 34.8665C29.0102 33.0127 27.4132 31.3937 25.5772 30.0798C23.2939 28.4458 21.3725 26.358 19.9333 23.9471L19.3525 22.9742" stroke="#689647" stroke-width="1.8" stroke-miterlimit="10" stroke-linecap="round" stroke-linejoin="round"/>
<path d="M23.4135 18.6777C24.7715 19.9584 25.5027 21.8602 25.2089 23.8468C24.9701 25.4615 24.0995 26.8266 22.8848 27.7284" stroke="#689647" stroke-width="1.8" stroke-miterlimit="10" stroke-linecap="round" stroke-linejoin="round"/>
<path d="M32.6484 24.1152L35.3329 31.8633C35.6746 32.8492 36.179 33.7662 36.8144 34.5788C38.2759 36.4479 40.9984 36.7291 42.8181 35.2065" stroke="#689647" stroke-width="1.8" stroke-miterlimit="10" stroke-linecap="round" stroke-linejoin="round"/>
<path d="M33.8447 27.3689L36.5331 26.2695" stroke="#689647" stroke-width="1.8" stroke-miterlimit="10" stroke-linecap="round" stroke-linejoin="round"/>
<path d="M34.7119 29.8935L37.339 28.8164" stroke="#689647" stroke-width="1.8" stroke-miterlimit="10" stroke-linecap="round" stroke-linejoin="round"/>
<path d="M35.7549 32.667L38.2647 31.4258" stroke="#689647" stroke-width="1.8" stroke-miterlimit="10" stroke-linecap="round" stroke-linejoin="round"/>
<path d="M37.3916 35.1228L39.8084 33.5625" stroke="#689647" stroke-width="1.8" stroke-miterlimit="10" stroke-linecap="round" stroke-linejoin="round"/>
<path d="M38.532 42.3848H20.6797" stroke="#689647" stroke-width="1.8" stroke-miterlimit="10" stroke-linecap="round" stroke-linejoin="round"/>
<path d="M17.7344 39.0254H16.125" stroke="#689647" stroke-width="1.8" stroke-miterlimit="10" stroke-linecap="round" stroke-linejoin="round"/>
<path d="M25.2736 39.0254H20.1982" stroke="#689647" stroke-width="1.8" stroke-miterlimit="10" stroke-linecap="round" stroke-linejoin="round"/>
<path d="M22.3689 35.666H16.125" stroke="#689647" stroke-width="1.8" stroke-miterlimit="10" stroke-linecap="round" stroke-linejoin="round"/>
</svg>
