<svg width="61" height="60" viewBox="0 0 61 60" fill="none" xmlns="http://www.w3.org/2000/svg">
<circle cx="30.5" cy="30" r="30" fill="#FFA0FD" fill-opacity="0.2"/>
<path d="M23.2709 16.7306C25.0804 15.6324 27.2041 15 29.4754 15C35.551 15 41.1049 18.3376 41.1049 25.8989L43.926 30.2514C44.5768 31.4325 43.7223 32.8789 42.3738 32.8789H41.478C41.1322 32.8789 40.8518 33.1592 40.8518 33.5051V38.9357C40.8518 40.5131 39.573 41.7919 37.9956 41.7919H35.984C35.2923 41.7919 34.7315 42.3526 34.7315 43.0443V44.4951C34.7315 45.1868 34.1708 45.7476 33.4791 45.7476H24.839C24.1472 45.7476 23.5865 45.1868 23.5865 44.4951V38.448C23.5865 37.827 23.2805 37.2448 22.7664 36.8965C19.5885 34.7433 17.5 31.1033 17.5 26.9754C17.5 24.6636 18.1551 22.5048 19.2897 20.6745" stroke="#B38DB2" stroke-width="1.8" stroke-miterlimit="10" stroke-linecap="round" stroke-linejoin="round"/>
<path d="M30.2022 29.0156L29.8222 29.3956L29.4422 29.0156C26.7953 26.3687 26.7953 22.0773 29.4422 19.4304L29.7449 19.1277C29.7875 19.085 29.8567 19.085 29.8994 19.1277L30.2021 19.4304C32.849 22.0773 32.849 26.3687 30.2022 29.0156Z" stroke="#B38DB2" stroke-width="1.8" stroke-miterlimit="10" stroke-linecap="round" stroke-linejoin="round"/>
<path d="M32.2595 23.9397C32.9152 23.3519 33.6777 22.881 34.5135 22.5588C35.2372 22.2802 36.0152 22.1131 36.8286 22.0784C37.0026 22.0709 37.146 22.215 37.1385 22.3896C37.0576 24.2855 36.2558 25.9952 35 27.251C33.6783 28.5734 31.8531 29.3922 29.8369 29.3969" stroke="#B38DB2" stroke-width="1.8" stroke-miterlimit="10" stroke-linecap="round" stroke-linejoin="round"/>
<path d="M34.2166 27.9297C35.1861 28.0683 36.1241 28.4816 36.9046 29.1699C37.041 29.2902 37.0413 29.5011 36.9049 29.6214C35.9275 30.4834 34.7028 30.9144 33.4784 30.9144C32.1527 30.9144 30.8269 30.4095 29.8148 29.3991C29.8136 29.3979 29.8127 29.397 29.8115 29.3958C29.8127 29.3946 29.8136 29.3937 29.8148 29.3925" stroke="#B38DB2" stroke-width="1.8" stroke-miterlimit="10" stroke-linecap="round" stroke-linejoin="round"/>
<path d="M29.8153 29.3925C29.8165 29.3937 29.8174 29.3946 29.8186 29.3958C29.8174 29.397 29.8165 29.3979 29.8153 29.3991C28.8031 30.4095 27.4774 30.9144 26.1517 30.9144C24.9273 30.9144 23.7026 30.4835 22.7252 29.6214C22.5888 29.5011 22.5891 29.2902 22.7255 29.1699C23.5058 28.4818 24.4438 28.0683 25.4133 27.9297" stroke="#B38DB2" stroke-width="1.8" stroke-miterlimit="10" stroke-linecap="round" stroke-linejoin="round"/>
<path d="M27.3855 23.9526C26.7263 23.3587 25.9585 22.883 25.1165 22.5588C24.3928 22.2802 23.6147 22.1131 22.8013 22.0784C22.6274 22.0709 22.484 22.215 22.4915 22.3896C22.5723 24.2855 23.3742 25.9952 24.63 27.251C25.9517 28.5734 27.7769 29.3922 29.7931 29.3969" stroke="#B38DB2" stroke-width="1.8" stroke-miterlimit="10" stroke-linecap="round" stroke-linejoin="round"/>
</svg>
