<svg width="18" height="18" viewBox="0 0 18 18" fill="none" xmlns="http://www.w3.org/2000/svg">
<path d="M17.4011 4.12361C17.0418 3.74718 16.5456 3.52475 15.981 3.52475H13.1407V3.49053C13.1407 3.06277 12.9696 2.65212 12.6787 2.37836C12.3878 2.08748 11.9943 1.91638 11.5665 1.91638H6.43346C5.98859 1.91638 5.59506 2.08748 5.30418 2.37836C5.01331 2.66923 4.84221 3.06277 4.84221 3.49053V3.52475H2.01901C1.45437 3.52475 0.958175 3.74718 0.598859 4.12361C0.239544 4.48292 0 4.99623 0 5.54376V14.0647C0 14.6293 0.222433 15.1255 0.598859 15.4848C0.958175 15.8441 1.47148 16.0837 2.01901 16.0837H15.981C16.5456 16.0837 17.0418 15.8612 17.4011 15.4848C17.7605 15.1255 18 14.6122 18 14.0647V5.54376C18 4.97912 17.7776 4.48292 17.4011 4.12361ZM17.1103 14.0647H17.0932C17.0932 14.3727 16.9734 14.6464 16.7681 14.8517C16.5627 15.0571 16.289 15.1768 15.981 15.1768H2.01901C1.71103 15.1768 1.43726 15.0571 1.23194 14.8517C1.02662 14.6464 0.906844 14.3727 0.906844 14.0647V5.54376C0.906844 5.23577 1.02662 4.96201 1.23194 4.75669C1.43726 4.55136 1.71103 4.43159 2.01901 4.43159H5.32129C5.57795 4.43159 5.78327 4.22627 5.78327 3.96961V3.47342C5.78327 3.2852 5.85171 3.1141 5.97148 2.99433C6.09126 2.87456 6.26236 2.80612 6.45057 2.80612H11.5665C11.7548 2.80612 11.9259 2.87456 12.0456 2.99433C12.1654 3.1141 12.2338 3.2852 12.2338 3.47342V3.96961C12.2338 4.22627 12.4392 4.43159 12.6958 4.43159H15.9981C16.3061 4.43159 16.5798 4.55136 16.7852 4.75669C16.9905 4.96201 17.1103 5.23577 17.1103 5.54376V14.0647Z" fill="white"/>
<path d="M8.9999 5.59509C7.8364 5.59509 6.77556 6.07418 6.02271 6.82703C5.25275 7.59699 4.79077 8.64072 4.79077 9.80422C4.79077 10.9677 5.26986 12.0286 6.02271 12.7814C6.79267 13.5514 7.8364 14.0133 8.9999 14.0133C10.1634 14.0133 11.2242 13.5343 11.9771 12.7814C12.747 12.0114 13.209 10.9677 13.209 9.80422C13.209 8.64072 12.7299 7.57988 11.9771 6.82703C11.2242 6.07418 10.1634 5.59509 8.9999 5.59509ZM11.3269 12.1483C10.728 12.7301 9.90674 13.1065 8.9999 13.1065C8.09305 13.1065 7.27176 12.7301 6.6729 12.1483C6.07404 11.5495 5.71473 10.7282 5.71473 9.82133C5.71473 8.91448 6.09115 8.09319 6.6729 7.49433C7.27176 6.89547 8.09305 6.53616 8.9999 6.53616C9.90674 6.53616 10.728 6.91258 11.3269 7.49433C11.9258 8.09319 12.2851 8.91448 12.2851 9.82133C12.3022 10.7282 11.9258 11.5495 11.3269 12.1483Z" fill="white"/>
<path d="M15.0913 7.25481C15.5544 7.25481 15.9297 6.87944 15.9297 6.41641C15.9297 5.95337 15.5544 5.578 15.0913 5.578C14.6283 5.578 14.2529 5.95337 14.2529 6.41641C14.2529 6.87944 14.6283 7.25481 15.0913 7.25481Z" fill="white"/>
</svg>
