<svg width="18" height="18" viewBox="0 0 18 18" fill="none" xmlns="http://www.w3.org/2000/svg">
<g clip-path="url(#clip0_1784_498)">
<path d="M16.5 6.00055H16.2917L13.7153 1.50149C13.5161 1.15362 13.1946 0.904611 12.8086 0.801322C12.6649 0.763142 12.5191 0.745951 12.3747 0.750802C12.1326 0.758923 11.8949 0.827548 11.6792 0.952564L0.743429 7.31887C0.265375 7.59738 -0.00234006 8.10493 1.54127e-05 8.62542C0.00117557 8.87682 0.0658982 9.13159 0.199246 9.3644L2.25002 12.946V15.7501C2.25002 16.5773 2.92312 17.2501 3.75003 17.2501H16.5C17.327 17.2501 18 16.5774 18 15.7501V7.50049C18 6.67326 17.327 6.00055 16.5 6.00055ZM2.25002 7.50003V11.437L0.849636 8.99122C0.64457 8.63269 0.76614 8.1731 1.12136 7.96655L2.27048 7.29756C2.26134 7.36443 2.25002 7.4307 2.25002 7.50003ZM12.0572 1.60074C12.2271 1.50114 12.4248 1.47439 12.6145 1.52568C12.8057 1.57694 12.9654 1.70072 13.065 1.87429L15.4278 6.00055H4.49931L12.0572 1.60074ZM17.25 15.75C17.25 16.1634 16.9138 16.5 16.5 16.5H3.75003C3.3362 16.5 3.00004 16.1634 3.00004 15.75V7.50003C3.00004 7.08659 3.33624 6.75004 3.75003 6.75004H16.5C16.9139 6.75004 17.25 7.08659 17.25 7.50003V15.75Z" fill="black"/>
<path d="M16.125 12.75H11.625C11.4177 12.75 11.25 12.9177 11.25 13.125C11.25 13.3323 11.4177 13.5 11.625 13.5H16.125C16.3323 13.5 16.5 13.3323 16.5 13.125C16.5 12.9177 16.3323 12.75 16.125 12.75Z" fill="black"/>
<path d="M16.125 10.5H10.125C9.91773 10.5 9.75 10.6677 9.75 10.875C9.75 11.0823 9.91773 11.25 10.125 11.25H16.125C16.3323 11.25 16.5 11.0823 16.5 10.875C16.5 10.6677 16.3323 10.5 16.125 10.5Z" fill="black"/>
<path d="M6.75001 12C7.57692 12 8.25002 11.3273 8.25002 10.5C8.25002 9.67271 7.57692 9 6.75001 9C5.9231 9 5.25 9.67271 5.25 10.5C5.25 11.3273 5.92314 12 6.75001 12ZM6.75001 9.75002C7.16384 9.75002 7.5 10.0866 7.5 10.5C7.5 10.9134 7.1638 11.25 6.75001 11.25C6.33619 11.25 6.00002 10.9134 6.00002 10.5C6.00002 10.0865 6.33622 9.75002 6.75001 9.75002Z" fill="black"/>
<path d="M8.9905 12.9276C8.46607 12.6757 7.65234 12.375 6.74999 12.375C5.84763 12.375 5.03391 12.6757 4.50952 12.9276C4.04078 13.1532 3.75 13.6033 3.75 14.1021V14.2734C3.75 14.6741 4.0862 15 4.49999 15H8.99999C9.41381 15 9.74998 14.6741 9.74998 14.2734V14.1021C9.75001 13.6033 9.45923 13.1532 8.9905 12.9276ZM8.99999 14.25L4.49999 14.2734V14.1021C4.49999 13.894 4.62817 13.7029 4.83471 13.6036C5.28882 13.3854 5.989 13.125 6.74999 13.125C7.51098 13.125 8.21119 13.3854 8.66527 13.6036C8.87181 13.7029 8.99999 13.894 8.99999 14.1021V14.25Z" fill="black"/>
</g>
<defs>
<clipPath id="clip0_1784_498">
<rect width="18" height="18" fill="white"/>
</clipPath>
</defs>
</svg>
