<svg width="18" height="18" viewBox="0 0 18 18" fill="none" xmlns="http://www.w3.org/2000/svg">
<path fill-rule="evenodd" clip-rule="evenodd" d="M8.42861 2.43909C8.60169 2.33703 8.79901 2.2832 8.99994 2.2832C9.20092 2.2832 9.39819 2.33703 9.57133 2.43909C9.74424 2.54105 9.88672 2.68743 9.98403 2.86303M9.98431 2.86357L12.0483 6.5843C12.0491 6.58553 12.0504 6.58649 12.0518 6.58694C12.0534 6.58745 12.0552 6.58739 12.0567 6.58677C12.0566 6.58683 12.0567 6.58677 12.0567 6.58677L15.6128 5.0055L15.6147 5.00467C15.8066 4.92016 16.0184 4.89099 16.226 4.92044C16.4337 4.94989 16.6289 5.03679 16.7898 5.17133C16.9507 5.30587 17.0707 5.4827 17.1364 5.68188C17.2019 5.8805 17.2108 6.0934 17.162 6.2968C17.1618 6.29731 17.1617 6.29787 17.1616 6.29843L15.3684 13.9142C15.3326 14.0612 15.2678 14.1995 15.1777 14.321C15.0875 14.4425 14.974 14.5447 14.8437 14.6215C14.7134 14.6984 14.569 14.7484 14.4191 14.7685C14.2692 14.7886 14.1168 14.7785 13.9708 14.7387L13.9686 14.7381C10.7151 13.8373 7.27784 13.8373 4.02427 14.7381L4.02206 14.7387C3.87612 14.7785 3.72368 14.7886 3.57376 14.7685C3.42383 14.7484 3.27947 14.6984 3.14919 14.6215C3.01891 14.5447 2.90535 14.4425 2.81523 14.321C2.72511 14.1995 2.66025 14.0612 2.62449 13.9142L2.62339 13.9096L0.838328 6.29843C0.838159 6.2977 0.837991 6.29697 0.837816 6.2963C0.789154 6.09307 0.798047 5.88033 0.863517 5.68188C0.929211 5.4827 1.04927 5.30587 1.21013 5.17133C1.371 5.03679 1.56627 4.94989 1.77391 4.92044C1.98154 4.89099 2.19327 4.92016 2.3852 5.00467L2.38709 5.0055L5.94303 6.58672C5.94298 6.58666 5.94309 6.58672 5.94303 6.58672C5.94455 6.58733 5.94646 6.58745 5.9481 6.58694C5.9495 6.58649 5.95074 6.58553 5.95158 6.5843L8.0159 2.86303C8.11316 2.68743 8.25564 2.54105 8.42861 2.43909M6.92921 7.14117C6.79049 7.38434 6.56656 7.56749 6.30073 7.65524C6.03483 7.74299 5.74593 7.72915 5.48969 7.61632L5.48781 7.61547L1.93188 6.03429L1.93276 6.03789L3.71772 13.6487C3.71796 13.6494 3.71832 13.6501 3.71878 13.6508C3.71915 13.6512 3.71958 13.6517 3.72007 13.6521C3.72031 13.6523 3.72058 13.6524 3.72086 13.6526C3.72167 13.6531 3.72257 13.6534 3.72349 13.6535C3.72435 13.6536 3.72522 13.6536 3.72607 13.6534C7.17547 12.6987 10.8195 12.6988 14.2688 13.654L14.1187 14.196L14.2666 13.6533C14.2675 13.6536 14.2684 13.6536 14.2694 13.6535C14.2703 13.6534 14.2712 13.6531 14.272 13.6526C14.2728 13.6521 14.2735 13.6515 14.2741 13.6508C14.2744 13.6503 14.2747 13.6499 14.2749 13.6494C14.275 13.6491 14.2751 13.6488 14.2752 13.6486C14.2751 13.6487 14.2752 13.6485 14.2752 13.6486L16.0672 6.03744L16.068 6.03429L12.5121 7.61547L12.5102 7.61632C12.254 7.72915 11.965 7.74299 11.6992 7.65524C11.4333 7.56749 11.2094 7.38434 11.0707 7.14112L11.0674 7.13532L8.99994 3.4082L6.92921 7.14117Z" fill="black"/>
</svg>
