<svg width="18" height="18" viewBox="0 0 18 18" fill="none" xmlns="http://www.w3.org/2000/svg">
<path fill-rule="evenodd" clip-rule="evenodd" d="M7.73205 1.68751H10.2681C10.4304 1.68741 10.5718 1.68732 10.7053 1.70864C11.2327 1.79287 11.6892 2.12186 11.936 2.59563C11.9984 2.71555 12.043 2.84971 12.0942 3.0037L12.178 3.25488C12.1922 3.2974 12.1962 3.30943 12.1996 3.31891C12.331 3.682 12.6715 3.92745 13.0574 3.93723C13.0676 3.93748 13.08 3.93753 13.1251 3.93753H15.3751C15.6857 3.93753 15.9376 4.18937 15.9376 4.50003C15.9376 4.81069 15.6857 5.06253 15.3751 5.06253H2.625C2.31434 5.06253 2.0625 4.81069 2.0625 4.50003C2.0625 4.18937 2.31434 3.93753 2.625 3.93753H4.87506C4.9201 3.93753 4.93252 3.93748 4.94267 3.93723C5.32866 3.92745 5.66918 3.68202 5.80052 3.31893C5.80397 3.30939 5.80794 3.29761 5.82218 3.25488L5.90589 3.00373C5.95711 2.84974 6.00175 2.71555 6.06419 2.59563C6.3109 2.12186 6.76735 1.79287 7.29482 1.70864C7.42834 1.68732 7.56975 1.68741 7.73205 1.68751ZM6.75611 3.93753C6.79474 3.86176 6.82898 3.78303 6.85843 3.70161C6.86737 3.67689 6.87615 3.65056 6.88741 3.61675L6.96227 3.3922C7.03064 3.18706 7.04639 3.14522 7.06201 3.11523C7.14425 2.95731 7.2964 2.84764 7.47222 2.81956C7.50563 2.81423 7.55025 2.81253 7.76647 2.81253H10.2336C10.4498 2.81253 10.4945 2.81423 10.5279 2.81956C10.7037 2.84764 10.8559 2.95731 10.9382 3.11523C10.9537 3.14522 10.9695 3.18706 11.0378 3.3922L11.1127 3.61662L11.1417 3.70162C11.1712 3.78304 11.2054 3.86176 11.244 3.93753H6.75611Z" fill="#C00F0C"/>
<path d="M4.43628 6.3376C4.41561 6.02763 4.14758 5.7931 3.8376 5.81377C3.52764 5.83443 3.2931 6.10246 3.31377 6.41244L3.66135 11.6262C3.72548 12.5883 3.77727 13.3654 3.89875 13.9752C4.02505 14.6092 4.23987 15.1388 4.68356 15.5538C5.12726 15.9689 5.66992 16.148 6.31091 16.2319C6.92742 16.3125 7.70621 16.3125 8.67041 16.3125H9.32958C10.2938 16.3125 11.0726 16.3125 11.6892 16.2319C12.3301 16.148 12.8728 15.9689 13.3165 15.5538C13.7602 15.1388 13.975 14.6092 14.1013 13.9752C14.2228 13.3654 14.2746 12.5883 14.3387 11.6262L14.6863 6.41244C14.7069 6.10246 14.4724 5.83443 14.1624 5.81377C13.8525 5.7931 13.5844 6.02763 13.5638 6.3376L13.2188 11.5119C13.1514 12.5228 13.1034 13.2262 12.998 13.7554C12.8957 14.2688 12.753 14.5405 12.5479 14.7323C12.3429 14.9241 12.0622 15.0485 11.5432 15.1164C11.0082 15.1864 10.3032 15.1875 9.29006 15.1875H8.71001C7.69691 15.1875 6.99187 15.1864 6.45682 15.1164C5.93782 15.0485 5.6572 14.9241 5.45214 14.7323C5.24709 14.5405 5.10433 14.2688 5.00207 13.7554C4.89665 13.2262 4.84863 12.5228 4.78123 11.5119L4.43628 6.3376Z" fill="#C00F0C"/>
<path d="M7.06907 7.69033C7.37819 7.65943 7.65388 7.88496 7.68478 8.19411L8.05978 11.9441C8.09068 12.2532 7.86515 12.5289 7.556 12.5598C7.2469 12.5907 6.97125 12.3652 6.94033 12.056L6.56533 8.30601C6.53443 7.99693 6.75996 7.72123 7.06907 7.69033Z" fill="#C00F0C"/>
<path d="M10.931 7.69033C11.2402 7.72123 11.4657 7.99693 11.4348 8.30601L11.0598 12.056C11.0289 12.3652 10.7532 12.5907 10.4441 12.5598C10.135 12.5289 9.90943 12.2532 9.94033 11.9441L10.3153 8.19411C10.3462 7.88496 10.6219 7.65943 10.931 7.69033Z" fill="#C00F0C"/>
</svg>
