<svg width="19" height="18" viewBox="0 0 19 18" fill="none" xmlns="http://www.w3.org/2000/svg">
<path d="M12.2493 17.0618H11.5C10.3998 17.0618 9.60551 17.0618 8.95526 16.9741C8.19026 16.8706 7.66602 16.6433 7.26102 16.2383C6.50727 15.4846 6.44876 14.4181 6.43751 12.7531C6.43526 12.4426 6.68726 12.1883 6.99776 12.1883H7.00001C7.30826 12.1883 7.56026 12.4381 7.56251 12.7486C7.57151 14.3101 7.64126 15.0301 8.05526 15.4441C8.55026 15.9391 9.53576 15.9391 11.4978 15.9391H12.247C14.2113 15.9391 15.1968 15.9391 15.6895 15.4441C16.1845 14.9491 16.1845 13.9636 16.1845 12.0016V6.0008C16.1845 4.03655 16.1845 3.05105 15.6895 2.5583C15.1945 2.0633 14.209 2.0633 12.247 2.0633H11.5C9.53576 2.0633 8.55026 2.0633 8.05751 2.5583C7.64351 2.9723 7.57377 3.6923 7.56476 5.2538C7.56252 5.5643 7.31052 5.81405 7.00227 5.81405H7.00001C6.68951 5.8118 6.43977 5.5598 6.43977 5.2493C6.44877 3.58205 6.50952 2.5178 7.26327 1.76405C7.67052 1.3568 8.19251 1.12955 8.95751 1.0283C9.60776 0.940552 10.402 0.940552 11.5023 0.940552H12.2515C13.3518 0.940552 14.146 0.940552 14.7963 1.0283C15.5613 1.1318 16.0855 1.35905 16.4905 1.76405C16.8978 2.1713 17.125 2.6933 17.2263 3.4583C17.314 4.10855 17.314 4.9028 17.314 6.00305V12.0038C17.314 13.1041 17.314 13.8983 17.2263 14.5486C17.1228 15.3136 16.8955 15.8378 16.4905 16.2428C16.0833 16.6501 15.5613 16.8773 14.7963 16.9786C14.1438 17.0618 13.3495 17.0618 12.2493 17.0618Z" fill="#C00F0C"/>
<path d="M4.37429 11.8126C4.24379 11.8126 4.11554 11.7676 4.00754 11.6776L1.39079 9.43432C1.26254 9.32857 1.18604 9.16657 1.18604 9.00007C1.18604 8.83582 1.26029 8.67382 1.39079 8.56582L4.00979 6.32257C4.24604 6.12007 4.60154 6.14707 4.80403 6.38332C5.00654 6.61957 4.97954 6.97507 4.74329 7.17757L3.27179 8.43757H11.5C11.8105 8.43757 12.0625 8.68957 12.0625 9.00007C12.0625 9.31057 11.8105 9.56257 11.5 9.56257H3.26954L4.74104 10.8226C4.97729 11.0251 5.00429 11.3806 4.80179 11.6168C4.69154 11.7451 4.53404 11.8126 4.37429 11.8126Z" fill="#C00F0C"/>
</svg>
