<svg width="13" height="13" viewBox="0 0 13 13" fill="none" xmlns="http://www.w3.org/2000/svg">
<g clip-path="url(#clip0_1971_17260)">
<path d="M0.65004 5.85H5.84996V0.64996C5.84996 0.291238 6.1412 0 6.50004 0C6.85876 0 7.15 0.291238 7.15 0.64996V5.85H12.35C12.7088 5.85 13 6.14124 13 6.49996C13 6.8588 12.7088 7.15004 12.35 7.15004H7.15V12.35C7.15 12.7088 6.85876 13 6.50004 13C6.1412 13 5.84996 12.7088 5.84996 12.35V7.15004H0.65004C0.291199 7.15004 -3.91006e-05 6.8588 -3.91006e-05 6.49996C-3.91006e-05 6.14124 0.291199 5.85 0.65004 5.85Z" fill="#A850B2"/>
</g>
<defs>
<clipPath id="clip0_1971_17260">
<rect width="13" height="13" fill="white" transform="matrix(-1 0 0 1 13 0)"/>
</clipPath>
</defs>
</svg>
