<svg width="18" height="18" viewBox="0 0 18 18" fill="none" xmlns="http://www.w3.org/2000/svg">
<g clip-path="url(#clip0_1784_543)">
<path d="M8.62738 11.3753C8.8334 11.5812 9.16724 11.5812 9.37315 11.3753L12.6941 8.05434C13.6848 7.06364 13.6848 5.45169 12.6941 4.46098C12.2141 3.98107 11.576 3.71676 10.8972 3.7168C10.2185 3.71683 9.5804 3.98121 9.10051 4.4612L9.00021 4.56153L8.89953 4.46084C7.90889 3.47018 6.29691 3.47014 5.30606 4.46095C4.31308 5.45394 4.31294 7.06128 5.30613 8.05437L8.62738 11.3753ZM7.10283 4.77127C7.49981 4.77127 7.87303 4.92586 8.15376 5.20658L8.62742 5.6802C8.83326 5.88601 9.16731 5.88608 9.37326 5.68017L9.84639 5.20689C10.1271 4.92614 10.5003 4.77148 10.8974 4.77148C12.2115 4.77138 12.8852 6.37173 11.9484 7.30861L9.00032 10.2566L6.05198 7.30857C5.12487 6.38164 5.77304 4.77127 7.10283 4.77127Z" fill="black"/>
<path d="M3.20811 13.6277H6.09138L8.58139 16.8779C8.79233 17.1533 9.20781 17.1532 9.41861 16.8779L11.9086 13.6277H14.7919C16.5608 13.6277 18 12.1885 18 10.4196V4.12364C18 2.35468 16.5608 0.915527 14.7919 0.915527H3.20811C1.43916 0.915527 0 2.35468 0 4.12364V10.4196C0 12.1886 1.43916 13.6277 3.20811 13.6277ZM1.05469 4.12364C1.05469 2.93624 2.02071 1.97021 3.20811 1.97021H14.7919C15.9793 1.97021 16.9453 2.93624 16.9453 4.12364V10.4196C16.9453 11.607 15.9793 12.573 14.7919 12.573H11.6483C11.4842 12.573 11.3295 12.6494 11.2297 12.7796L9 15.6901L6.77029 12.7796C6.67051 12.6494 6.51575 12.573 6.35168 12.573H3.20811C2.02071 12.573 1.05469 11.607 1.05469 10.4196V4.12364Z" fill="black"/>
</g>
<defs>
<clipPath id="clip0_1784_543">
<rect width="18" height="18" fill="white"/>
</clipPath>
</defs>
</svg>
