<svg width="82" height="82" viewBox="0 0 82 82" fill="none" xmlns="http://www.w3.org/2000/svg">
<path opacity="0.774926" fill-rule="evenodd" clip-rule="evenodd" d="M30.6714 11.3742C27.3567 14.7373 25.3776 18.9369 25.3776 24.0624C25.3776 24.5276 25.0368 24.9132 24.5913 24.9831C24.4415 25.0858 24.2602 25.1458 24.0649 25.1458C18.9389 25.1458 14.7388 27.1247 11.3754 30.4391C10.1925 31.6047 9.20048 32.8552 8.39417 34.1042C8.11317 34.5394 7.87602 34.9422 7.68192 35.3016C7.56831 35.5119 7.49592 35.6573 7.46389 35.7268C6.3195 38.249 5.08547 40.0457 3.73547 41.0719C5.08547 42.0981 6.3195 43.8947 7.46389 46.417C7.49592 46.4865 7.56831 46.6318 7.68192 46.8422C7.87602 47.2016 8.11317 47.6043 8.39417 48.0396C9.20048 49.2886 10.1925 50.5391 11.3754 51.7047C14.7388 55.0191 18.9389 56.9979 24.0649 56.9979C24.1057 56.9979 24.1459 57.0005 24.1854 57.0056C24.1867 57.0056 24.1881 57.0056 24.1895 57.0056C24.7043 57.0056 25.1217 57.4229 25.1217 57.9377C25.1217 63.0632 27.1007 67.2628 30.4154 70.6259C31.5812 71.8087 32.8318 72.8006 34.0809 73.6068C34.5162 73.8878 34.919 74.1249 35.2784 74.319C35.4888 74.4326 35.6342 74.505 35.7037 74.537C38.2268 75.6815 40.0238 76.9157 41.05 78.2659C42.0763 76.9157 43.8733 75.6815 46.3964 74.537C46.4659 74.505 46.6113 74.4326 46.8217 74.319C47.1811 74.1249 47.5839 73.8878 48.0192 73.6068C49.2683 72.8006 50.5189 71.8087 51.6847 70.6259C54.9994 67.2628 56.9784 63.0632 56.9784 57.9377C56.9784 57.5007 57.2791 57.134 57.6849 57.0331C57.7645 57.011 57.8483 56.9992 57.9349 56.9992C63.061 56.9992 67.261 55.0203 70.6245 51.706C71.8074 50.5403 72.7994 49.2898 73.6057 48.0409C73.8867 47.6056 74.1239 47.2029 74.318 46.8435C74.4316 46.6331 74.504 46.4878 74.536 46.4183C75.7364 43.7726 77.0354 41.9253 78.4634 40.928C77.0354 39.9308 75.7364 38.0835 74.536 35.4379C74.504 35.3684 74.4316 35.223 74.318 35.0126C74.1239 34.6533 73.8868 34.2505 73.6058 33.8152C72.7995 32.5663 71.8075 31.3158 70.6245 30.1501C67.4751 27.0466 63.5921 25.1141 58.9022 24.8808C58.7696 24.9533 58.6174 24.9945 58.4557 24.9945C58.2769 24.9945 58.1099 24.9442 57.9681 24.857L57.935 24.8569C57.4202 24.8569 57.0029 24.4396 57.0029 23.9249C57.0029 23.5672 57.2043 23.2567 57.4999 23.1004C57.2677 18.4087 55.3347 14.5244 52.2297 11.3742C51.064 10.1914 49.8133 9.19952 48.5643 8.39329C48.129 8.11232 47.7261 7.8752 47.3667 7.68112C47.1563 7.56752 47.011 7.49514 46.9415 7.46311C44.2954 6.2628 42.4479 4.96388 41.4506 3.53593C40.4532 4.96388 38.6057 6.2628 35.9597 7.46311C35.8902 7.49514 35.7448 7.56752 35.5344 7.68112C35.175 7.8752 34.7722 8.11232 34.3369 8.39329C33.0878 9.19952 31.8372 10.1914 30.6714 11.3742ZM23.2765 58.8477C23.4991 64.0924 25.6468 68.4434 29.0876 71.9344C30.3552 73.2205 31.7117 74.2964 33.0698 75.173C33.891 75.703 34.5376 76.0522 34.9284 76.2322C37.9938 77.6228 39.674 79.0348 40.0928 80.3917C40.0564 80.6142 40.0382 80.8396 40.0382 81.068C40.0382 81.5828 40.4555 82.0001 40.9703 82.0001C40.9972 82.0001 41.0238 81.999 41.05 81.9967C41.0763 81.999 41.1029 82.0001 41.1297 82.0001C41.6446 82.0001 42.0619 81.5828 42.0619 81.068C42.0619 80.8396 42.0437 80.6142 42.0073 80.3917C42.4261 79.0348 44.1062 77.6228 47.1717 76.2322C47.5625 76.0522 48.2091 75.703 49.0303 75.173C50.3884 74.2964 51.7449 73.2205 53.0125 71.9344C56.4538 68.4428 58.6017 64.0909 58.8237 58.845C64.0785 58.6274 68.437 56.4787 71.9331 53.0337C73.2193 51.7663 74.2953 50.4098 75.172 49.0519C75.7021 48.2308 76.0513 47.5842 76.2314 47.1935C77.8549 43.6154 79.5075 41.9248 81.0677 41.9248C81.5825 41.9248 81.9999 41.5075 81.9999 40.9928C81.9999 40.9806 81.9996 40.9685 81.9992 40.9564C81.9988 40.9471 81.9983 40.9378 81.9977 40.9285C81.9992 40.907 81.9999 40.8853 81.9999 40.8633C81.9999 40.3486 81.5826 39.9313 81.0678 39.9313C79.5076 39.9313 77.855 38.2408 76.2315 34.6626C76.0514 34.2719 75.7022 33.6253 75.1721 32.8042C74.2954 31.4463 73.2194 30.0899 71.9332 28.8224C68.5575 25.4961 64.3778 23.3783 59.3636 23.0404C59.1153 17.8458 56.9738 13.5318 53.5576 10.0657C52.29 8.77964 50.9335 7.70374 49.5753 6.82714C48.7542 6.2971 48.1076 5.94794 47.7168 5.76786C44.1383 4.14454 42.4476 2.49213 42.4476 0.932059C42.4476 0.417297 42.0302 0 41.5154 0C41.4936 0 41.472 0.000748005 41.4506 0.00221974C41.4291 0.000748005 41.4075 0 41.3857 0C40.8709 0 40.4536 0.417297 40.4536 0.932059C40.4536 2.49213 38.7629 4.14454 35.1843 5.76786C34.7936 5.94794 34.147 6.2971 33.3258 6.82714C31.9677 7.70374 30.6111 8.77964 29.3435 10.0657C25.8731 13.5868 23.7181 17.9829 23.5272 23.2884C18.1152 23.423 13.6404 25.5899 10.0668 29.1113C8.78055 30.3788 7.70454 31.7352 6.82785 33.0932C6.29776 33.9143 5.94856 34.5608 5.76846 34.9515C4.37873 38.0145 2.96768 39.6943 1.61148 40.1145C1.38805 40.0778 1.16163 40.0594 0.932156 40.0594C0.417341 40.0594 0 40.4767 0 40.9915C0 41.0186 0.00115395 41.0454 0.00341797 41.0719C0.00115395 41.0984 0 41.1252 0 41.1523C0 41.667 0.417341 42.0843 0.932156 42.0843C1.16163 42.0843 1.38804 42.0659 1.61148 42.0293C2.96767 42.4495 4.37873 44.1293 5.76846 47.1922C5.94856 47.583 6.29776 48.2295 6.82785 49.0506C7.70454 50.4086 8.78055 51.765 10.0668 53.0324C13.5851 56.4994 17.9769 58.6534 23.2765 58.8477Z" fill="#93969F"/>
<path opacity="0.452172" fill-rule="evenodd" clip-rule="evenodd" d="M66.6342 41.455C70.4197 37.5174 72.0734 32.7917 72.1103 27.7411C72.1235 25.9354 71.9251 24.2155 71.5847 22.6355C71.3789 21.6801 71.1686 20.976 71.0196 20.5724C69.6372 16.8944 69.6102 14.5306 70.7135 13.4274C71.0775 13.0635 71.0775 12.4733 70.7135 12.1093C70.7002 12.096 70.6865 12.0832 70.6726 12.0708C70.6567 12.0522 70.64 12.0341 70.6223 12.0164C70.2583 11.6524 69.6681 11.6524 69.3041 12.0164C68.2008 13.1196 65.8368 13.0926 62.1584 11.7103C61.7547 11.5614 61.0506 11.3511 60.0951 11.1453C58.5148 10.8049 56.7948 10.6066 54.9889 10.6198C49.9423 10.6566 45.2201 12.3072 41.2842 16.0851C37.396 12.4648 32.7613 10.8784 27.8149 10.8424C26.009 10.8292 24.289 11.0275 22.7087 11.3679C21.7532 11.5737 21.0491 11.784 20.6454 11.9329C16.967 13.3152 14.603 13.3422 13.4997 12.239C13.1357 11.875 12.5455 11.875 12.1815 12.239C12.1661 12.2544 12.1515 12.2701 12.1374 12.2862C12.1213 12.3002 12.1056 12.3149 12.0903 12.3302C11.7263 12.6942 11.7263 13.2843 12.0903 13.6483C13.1936 14.7514 13.1666 17.1153 11.7842 20.7933C11.6352 21.1969 11.4249 21.9009 11.2191 22.8563C10.8787 24.4364 10.6803 26.1563 10.6935 27.9619C10.7296 32.9142 12.3202 37.554 15.9507 41.4448C12.4844 45.2831 10.961 49.8294 10.9256 54.6748C10.9124 56.4804 11.1108 58.2003 11.4512 59.7804C11.657 60.7358 11.8673 61.4398 12.0163 61.8435C13.1995 64.9915 13.3898 67.1767 12.7283 68.4328C12.5445 68.5648 12.3715 68.7118 12.2094 68.8739C11.8453 69.2379 11.8453 69.8281 12.2094 70.1921C12.2271 70.2098 12.2454 70.2267 12.2642 70.2427C12.2824 70.2647 12.3019 70.286 12.3224 70.3065C12.6865 70.6705 13.2767 70.6705 13.6407 70.3065C13.8032 70.1441 13.9504 69.9707 14.0826 69.7866C15.3388 69.1248 17.5245 69.3149 20.6733 70.4982C21.077 70.6471 21.7811 70.8574 22.7366 71.0632C24.3169 71.4036 26.0369 71.6019 27.8428 71.5888C32.7826 71.5527 37.4115 69.9705 41.2965 66.3605C45.1622 69.9096 49.7567 71.4669 54.657 71.5027C56.4628 71.5158 58.1829 71.3175 59.7632 70.9771C60.7187 70.7713 61.4228 70.561 61.8265 70.4121C64.9735 69.2295 67.1585 69.0389 68.415 69.6993C68.5474 69.8839 68.6949 70.0576 68.8577 70.2204C69.2217 70.5844 69.812 70.5844 70.176 70.2204C70.1953 70.2011 70.2135 70.1812 70.2308 70.1607C70.2513 70.1435 70.2712 70.1252 70.2904 70.106C70.6544 69.742 70.6544 69.1518 70.2904 68.7878C70.1276 68.6251 69.9539 68.4776 69.7693 68.3451C69.1088 67.0888 69.2994 64.904 70.4821 61.7573C70.6311 61.3537 70.8414 60.6496 71.0472 59.6943C71.3876 58.1142 71.586 56.3943 71.5728 54.5886C71.5377 49.7837 70.0393 45.2729 66.6342 41.455ZM55.0025 12.4838C50.2804 12.5183 45.9111 14.0886 42.2864 17.7129C42.1484 17.8509 41.9777 17.9366 41.7993 17.97C41.4333 18.2991 40.8695 18.2876 40.5174 17.9355C36.8927 14.3112 32.5234 12.7409 27.8013 12.7064C26.1405 12.6943 24.5547 12.8772 23.1013 13.1902C22.5948 13.2993 22.1423 13.4164 21.7509 13.5333C21.5218 13.6017 21.3678 13.6534 21.296 13.6798C18.5765 14.7018 16.3518 15.0896 14.6368 14.7853C14.9412 16.5 14.5534 18.7245 13.5313 21.4438C13.5048 21.5156 13.4532 21.6696 13.3847 21.8986C13.2679 22.29 13.1507 22.7425 13.0416 23.2489C12.7285 24.7021 12.5456 26.2877 12.5578 27.9483C12.5914 32.5551 14.0872 36.826 17.5265 40.3973C17.707 40.4298 17.8799 40.5159 18.0195 40.6555C18.3835 41.0194 18.3835 41.6096 18.0195 41.9736C14.3948 45.5979 12.8243 49.9667 12.7899 54.6884C12.7777 56.349 12.9606 57.9346 13.2737 59.3878C13.3828 59.8943 13.5 60.3467 13.6169 60.7381C13.6853 60.9672 13.7369 61.1211 13.7634 61.1929C14.7377 63.7852 15.1357 65.9278 14.907 67.6079C16.5875 67.3789 18.7308 67.7768 21.3239 68.7513C21.3957 68.7777 21.5497 68.8294 21.7788 68.8978C22.1702 69.0147 22.6227 69.1318 23.1292 69.2409C24.5826 69.5539 26.1684 69.7368 27.8292 69.7247C32.5513 69.6902 36.9206 68.1199 40.5453 64.4956C40.5664 64.4745 40.5883 64.4546 40.6108 64.436C40.6191 64.427 40.6276 64.4182 40.6362 64.4095C41.0003 64.0455 41.5905 64.0455 41.9545 64.4095C45.5792 68.0338 49.9485 69.6041 54.6706 69.6386C56.3314 69.6507 57.9172 69.4678 59.3706 69.1548C59.8771 69.0457 60.3296 68.9286 60.721 68.8117C60.9501 68.7433 61.1041 68.6916 61.1758 68.6652C63.7683 67.6909 65.9111 67.293 67.5913 67.5216C67.3627 65.8416 67.7607 63.699 68.735 61.1068C68.7615 61.035 68.8131 60.881 68.8815 60.652C68.9984 60.2606 69.1156 59.8081 69.2247 59.3017C69.5378 57.8485 69.7207 56.2629 69.7085 54.6022C69.6741 49.8806 68.1036 45.5118 64.4789 41.8875C64.1149 41.5235 64.1149 40.9333 64.4789 40.5693C64.6667 40.3816 64.9146 40.2907 65.1606 40.2966C68.6828 36.7012 70.212 32.3861 70.246 27.7275C70.2582 26.0669 70.0753 24.4813 69.7622 23.028C69.6531 22.5216 69.5359 22.0691 69.419 21.6778C69.3506 21.4487 69.299 21.2947 69.2725 21.2229C68.2501 18.5027 67.8623 16.2776 68.1673 14.5626C66.4523 14.8671 64.2275 14.4793 61.5078 13.4572C61.436 13.4308 61.282 13.3791 61.0529 13.3107C60.6615 13.1939 60.209 13.0767 59.7025 12.9676C58.2491 12.6546 56.6633 12.4717 55.0025 12.4838Z" fill="black" fill-opacity="0.55"/>
<path fill-rule="evenodd" clip-rule="evenodd" d="M26.7685 33.2865C27.6179 34.989 29.8954 37.2741 33.5829 40.0701C33.7919 40.1153 33.9865 40.2323 34.1265 40.4156C34.4388 40.8248 34.3603 41.4097 33.951 41.722C29.8826 44.8268 27.3594 47.3497 26.4011 49.2192C25.9066 50.1841 25.7168 51.3529 25.578 53.6505C25.4835 55.2167 25.3948 56.3255 25.2454 57.1671C26.087 57.0178 27.1956 56.9292 28.7613 56.8347C31.0591 56.696 32.228 56.5062 33.193 56.0117C34.9023 55.1357 37.1578 52.9519 39.9049 49.4753C39.9076 49.1963 40.0352 48.9215 40.2751 48.7402C40.3751 48.6647 40.4854 48.6124 40.5995 48.5824L40.6911 48.4626C41.0034 48.0534 41.5884 47.9749 41.9976 48.2872C42.4069 48.5995 42.4854 49.1844 42.1731 49.5936L42.1341 49.6446C44.7152 52.9688 46.8384 55.0389 48.4437 55.8397C49.3246 56.2791 50.4109 56.436 52.5511 56.5262C54.1422 56.5932 55.2318 56.6626 56.0447 56.8106C55.8967 55.9977 55.8273 54.9083 55.7602 53.3173C55.6701 51.1774 55.5132 50.0912 55.0737 49.2104C54.2163 47.492 51.904 45.18 48.1553 42.3482C47.7446 42.0379 47.6631 41.4534 47.9735 41.0427C48.1069 40.8661 48.2911 40.7504 48.4903 40.7005C52.4685 37.6495 54.9401 35.1668 55.8862 33.321C56.3808 32.3561 56.5706 31.1873 56.7093 28.8898C56.8039 27.3234 56.8925 26.2145 57.042 25.3729C56.2003 25.5223 55.0912 25.611 53.5247 25.7055C51.2269 25.8442 50.058 26.034 49.093 26.5285C47.2867 27.4542 44.8707 29.8401 41.9091 33.6687C41.9956 34.0196 41.8725 34.4041 41.5658 34.6358C41.1551 34.9461 40.5705 34.8647 40.2602 34.454C37.4281 30.7057 35.1159 28.3937 33.3973 27.5364C32.5163 27.0969 31.4301 26.94 29.2899 26.8499C27.7786 26.7862 26.7198 26.7204 25.9208 26.5872C25.9909 27.2709 26.0369 28.1124 26.0819 29.1797C26.172 31.3196 26.329 32.4057 26.7685 33.2865ZM59.2901 22.6118C58.9535 22.4753 58.5532 22.5435 58.2802 22.8165C57.6219 23.4748 56.6518 23.6493 53.4123 23.8448C50.8555 23.9991 49.5173 24.2164 48.2426 24.8696C46.2118 25.9103 43.7443 28.3091 40.7823 32.0817C38.2162 28.8429 36.0493 26.7761 34.2295 25.8683C33.0307 25.2703 31.7738 25.0887 29.3684 24.9874C27.1673 24.8947 26.0937 24.7912 25.4492 24.5143C25.2638 24.1143 25.018 23.7871 24.6852 23.4543C24.3212 23.0903 23.731 23.0903 23.3669 23.4543C23.0282 23.7931 23.0047 24.3277 23.2964 24.6936C23.2671 24.9645 23.3563 25.2457 23.564 25.4533C23.6701 25.5594 23.7756 25.6566 23.8831 25.7459C24.0609 26.42 24.1437 27.4648 24.2192 29.2581C24.3205 31.6632 24.5021 32.9201 25.1002 34.1187C26.0515 36.0254 28.2755 38.313 31.7869 41.0417C28.1106 43.9446 25.7674 46.3687 24.742 48.369C24.0888 49.6435 23.8715 50.9816 23.7171 53.5381C23.5252 56.7174 23.3535 57.7106 22.7248 58.3686L22.6875 58.4056C22.3235 58.7696 22.3235 59.3597 22.6875 59.7237C22.8818 59.918 23.1404 60.0085 23.3947 59.9955C23.6174 59.9843 23.8369 59.8937 24.007 59.7237L24.043 59.6873C24.7012 59.0589 25.6947 58.8873 28.8737 58.6954C31.4305 58.5411 32.7687 58.3238 34.0434 57.6706C35.9461 56.6955 38.2323 54.5282 40.9492 51.1558C43.5632 54.4742 45.7658 56.587 47.6115 57.5077C48.8103 58.1057 50.0672 58.2873 52.4726 58.3886C55.4748 58.515 56.3795 58.6617 56.9587 59.2408C57.3227 59.6048 57.9129 59.6048 58.277 59.2408C58.3107 59.2072 58.3412 59.1715 58.3687 59.1343C58.4059 59.1069 58.4415 59.0763 58.4752 59.0426C58.8392 58.6786 58.8392 58.0885 58.4752 57.7245C57.896 57.1454 57.7493 56.2408 57.6229 53.2389C57.5216 50.8337 57.34 49.5769 56.7419 48.3782C55.8135 46.5175 53.6729 44.2937 50.3063 41.6513C54.0944 38.6806 56.5021 36.2065 57.5453 34.1712C58.1986 32.8967 58.4159 31.5586 58.5702 29.0021C58.7658 25.7629 58.9403 24.793 59.5987 24.1347C59.9627 23.7707 59.9627 23.1806 59.5987 22.8166C59.5432 22.7612 59.4825 22.7142 59.4182 22.6756C59.3769 22.6509 59.334 22.6296 59.2901 22.6118Z" fill="#D37760"/>
<path fill-rule="evenodd" clip-rule="evenodd" d="M36.5005 25.5127C35.8972 27.317 35.8916 30.5426 36.5216 35.1262C36.6376 35.306 36.6927 35.5265 36.662 35.7552C36.5934 36.2653 36.1243 36.6234 35.614 36.5549C30.5415 35.8738 26.9732 35.8738 24.9735 36.5182C23.9414 36.8508 22.9807 37.5431 21.2578 39.0696C20.0833 40.1104 19.2364 40.8318 18.5356 41.3212C19.2364 41.8107 20.0833 42.5321 21.2578 43.5728C22.9807 45.0994 23.9414 45.7916 24.9735 46.1242C26.8017 46.7134 29.9408 46.7639 34.3418 46.2478C34.5412 46.0524 34.8257 45.9483 35.1236 45.9898C35.2477 46.0071 35.3627 46.048 35.4646 46.1075L35.614 46.0876C36.1243 46.0191 36.5934 46.3771 36.662 46.8873C36.7305 47.3975 36.3724 47.8666 35.8621 47.9351L35.7985 47.9436C35.2727 52.1191 35.3102 55.0841 35.879 56.7853C36.1912 57.7189 36.8483 58.5979 38.2979 60.1747C39.3756 61.3471 40.0969 62.1666 40.5671 62.8459C41.0373 62.1666 41.7586 61.3471 42.8363 60.1747C44.2859 58.5979 44.943 57.7189 45.2551 56.7853C45.8641 54.964 45.8641 51.6943 45.216 47.0415C45.1449 46.5317 45.5007 46.0608 46.0106 45.9898C46.2298 45.9592 46.4418 46.0076 46.6179 46.1131C51.5886 46.7685 55.0921 46.7605 57.0664 46.1242C58.0985 45.7916 59.0592 45.0994 60.7821 43.5728C61.9567 42.5321 62.8035 41.8107 63.5044 41.3212C62.8035 40.8318 61.9567 40.1104 60.7821 39.0696C59.0592 37.5431 58.0985 36.8508 57.0664 36.5182C55.1346 35.8957 51.7389 35.8746 46.9374 36.4879C46.7504 36.7972 46.3914 36.9822 46.0106 36.9291C45.5007 36.8581 45.1449 36.3872 45.216 35.8774C45.8641 31.2246 45.8641 27.9549 45.2551 26.1336C44.943 25.2 44.2859 24.321 42.8363 22.7442C41.8123 21.6302 41.11 20.8348 40.6392 20.1756C40.2052 20.7088 39.6425 21.3365 38.9193 22.1233C37.4697 23.7001 36.8126 24.5791 36.5005 25.5127ZM67.1011 41.1333C67.0141 40.7086 66.6383 40.3891 66.1878 40.3891C65.2568 40.3891 64.4475 39.8267 62.0185 37.6745C60.1015 35.9759 59.0015 35.1833 57.6383 34.744C55.4663 34.0441 52.0251 33.9956 47.2629 34.569C47.7387 30.4646 47.6681 27.4711 47.0233 25.5426C46.5985 24.2721 45.8381 23.255 44.2089 21.4827C42.717 19.8598 42.0311 19.0274 41.7716 18.3757C41.9231 17.9623 41.9805 17.5574 41.9805 17.0873C41.9805 16.5726 41.5632 16.1553 41.0484 16.1553C40.5689 16.1553 40.174 16.5172 40.122 16.9827C39.9104 17.1536 39.7751 17.4151 39.7751 17.7082C39.7751 17.8577 39.7809 18.0005 39.7937 18.1391C39.443 18.7417 38.7625 19.5392 37.5467 20.8617C35.9175 22.6341 35.1571 23.6512 34.7324 24.9216C34.0567 26.9423 34.0115 30.132 34.5647 34.5438C29.9123 33.9972 26.5412 34.0545 24.4017 34.744C23.0384 35.1833 21.9385 35.9759 20.0214 37.6745C17.5924 39.8267 16.7831 40.3891 15.8521 40.3891C15.3373 40.3891 14.9199 40.8064 14.9199 41.3212V41.3213C14.9199 41.8361 15.3373 42.2533 15.8521 42.2533C16.7831 42.2533 17.5924 42.8158 20.0214 44.968C21.9385 46.6666 23.0384 47.4592 24.4017 47.8985C26.4367 48.5543 29.5859 48.6382 33.8919 48.1745C33.3936 52.3691 33.457 55.4204 34.1109 57.3763C34.5357 58.6468 35.2961 59.6639 36.9253 61.4362C38.9588 63.6483 39.4948 64.3916 39.4948 65.2107C39.4948 65.7254 39.9121 66.1427 40.4269 66.1427C40.4746 66.1427 40.5214 66.1391 40.5671 66.1323C40.6128 66.1391 40.6596 66.1427 40.7072 66.1427C41.2221 66.1427 41.6394 65.7254 41.6394 65.2107C41.6394 64.3916 42.1754 63.6483 44.2089 61.4362C45.8381 59.6639 46.5985 58.6468 47.0233 57.3763C47.6827 55.4041 47.7416 52.3182 47.2297 48.0695C52.0092 48.6471 55.4613 48.6 57.6383 47.8985C59.0015 47.4592 60.1015 46.6666 62.0185 44.968C64.4475 42.8158 65.2568 42.2533 66.1878 42.2533C66.6383 42.2533 67.0142 41.9338 67.1011 41.509C67.1127 41.4521 67.1192 41.3934 67.1199 41.3332C67.12 41.3293 67.12 41.3253 67.12 41.3213C67.12 41.3213 67.12 41.3212 67.12 41.3212C67.12 41.2568 67.1135 41.194 67.1011 41.1333Z" fill="#00C0C5"/>
</svg>
