<svg width="19" height="22" viewBox="0 0 19 22" fill="none" xmlns="http://www.w3.org/2000/svg">
<path d="M6.97462 14.6112V15.3944C6.97462 15.7223 7.0959 16.0225 7.2959 16.2524V19.0523C7.2959 19.7002 7.82302 20.2272 8.47093 20.2272H10.529C11.1769 20.2272 11.704 19.7002 11.704 19.0523V16.2524C11.904 16.0225 12.0253 15.7224 12.0253 15.3944V14.6113C14.1087 13.6341 15.439 11.5553 15.439 9.23476C15.439 5.96004 12.7747 3.29588 9.49998 3.29588C6.22526 3.29588 3.56105 5.96004 3.56105 9.23476C3.561 11.5553 4.89119 13.634 6.97462 14.6112ZM10.8202 19.0522C10.8202 19.21 10.6868 19.3433 10.529 19.3433H8.47093C8.31311 19.3433 8.17975 19.21 8.17975 19.0522V18.4651H9.64321C9.8873 18.4651 10.0851 18.2673 10.0851 18.0232C10.0851 17.7791 9.8873 17.5812 9.64321 17.5812H8.17975V16.699C8.21392 16.7017 8.24844 16.703 8.28331 16.703H10.7166C10.7515 16.703 10.786 16.7017 10.8202 16.699V19.0522ZM9.49993 4.17968C12.2873 4.17968 14.5551 6.44739 14.5551 9.23471C14.5551 11.2954 13.3228 13.1321 11.4157 13.9139C11.2498 13.9819 11.1414 14.1434 11.1414 14.3228V15.3944C11.1414 15.6286 10.9508 15.8191 10.7166 15.8191H8.28326C8.04899 15.8191 7.85842 15.6286 7.85842 15.3944V14.3227C7.85842 14.1434 7.75005 13.9819 7.58413 13.9138C5.67708 13.1321 4.44485 11.2954 4.44485 9.23471C4.44485 6.44734 6.71256 4.17968 9.49993 4.17968ZM9.05785 1.66728V0.441925C9.05785 0.197835 9.25569 0 9.49978 0C9.74387 0 9.9417 0.197835 9.9417 0.441925V1.66728C9.9417 1.91137 9.74387 2.10921 9.49978 2.10921C9.25569 2.10921 9.05785 1.91137 9.05785 1.66728ZM9.058 5.74998C9.058 5.50589 9.25584 5.30806 9.49993 5.30806C11.7886 5.30806 13.6506 7.17003 13.6506 9.45871C13.6506 9.7028 13.4528 9.90064 13.2087 9.90064C12.9646 9.90064 12.7668 9.7028 12.7668 9.45871C12.7668 7.65738 11.3013 6.19191 9.49993 6.19191C9.25589 6.19191 9.058 5.99402 9.058 5.74998ZM15.7809 2.60156C15.9535 2.77416 15.9535 3.05395 15.7809 3.22654L14.9656 4.04184C14.8792 4.12812 14.7661 4.17128 14.6531 4.17128C14.5399 4.17128 14.4269 4.12817 14.3406 4.04184C14.168 3.86925 14.168 3.58946 14.3406 3.41686L15.1559 2.60156C15.3285 2.42897 15.6083 2.42902 15.7809 2.60156ZM18.3826 8.88259C18.3826 9.12668 18.1847 9.32452 17.9406 9.32452H16.9648C16.7207 9.32452 16.5229 9.12668 16.5229 8.88259C16.5229 8.6385 16.7207 8.44067 16.9648 8.44067H17.9406C18.1847 8.44067 18.3826 8.63855 18.3826 8.88259ZM15.4535 20.206C15.4535 20.8161 14.8153 21.2693 13.5026 21.5913C12.4281 21.8549 11.0067 22 9.50007 22C7.90315 22 6.36741 21.8311 5.28661 21.5367C4.11561 21.2177 3.54641 20.7824 3.54641 20.206C3.54641 19.5267 4.33456 19.0407 5.95584 18.7198C6.19501 18.6724 6.42771 18.8281 6.47515 19.0676C6.52253 19.307 6.36683 19.5395 6.1274 19.5869C4.99622 19.8108 4.55587 20.0865 4.44858 20.2046C4.51703 20.2784 4.76072 20.4774 5.51892 20.6839C6.5272 20.9586 7.97823 21.1161 9.50002 21.1161C10.8286 21.1161 12.1008 20.9974 13.0821 20.7816C14.1557 20.5456 14.4716 20.2903 14.5512 20.2046C14.4438 20.0864 14.0034 19.8107 12.8724 19.5869C12.6329 19.5395 12.4772 19.307 12.5246 19.0676C12.572 18.8282 12.8044 18.6725 13.0439 18.7198C14.6653 19.0407 15.4535 19.5268 15.4535 20.206ZM4.03425 4.04199L3.2189 3.22659C3.0463 3.05399 3.0463 2.77421 3.2189 2.60161C3.39149 2.42902 3.67128 2.42902 3.84388 2.60161L4.65923 3.41696C4.83182 3.58956 4.83182 3.86935 4.65923 4.04194C4.57296 4.12827 4.45982 4.17138 4.34674 4.17138C4.23365 4.17138 4.12057 4.12831 4.03425 4.04199ZM2.477 8.88259C2.477 9.12668 2.27917 9.32452 2.03508 9.32452H1.05911C0.815022 9.32452 0.617188 9.12668 0.617188 8.88259C0.617188 8.6385 0.815022 8.44067 1.05911 8.44067H2.03503C2.27917 8.44067 2.477 8.63855 2.477 8.88259Z" fill="black" fill-opacity="0.3"/>
</svg>
