<svg width="36" height="36" viewBox="0 0 29 34" fill="none" xmlns="http://www.w3.org/2000/svg">
<path fill-rule="evenodd" clip-rule="evenodd" d="M14.9109 32.743C15.5146 32.743 15.8832 32.8615 16.2227 32.9579C16.5169 33.0415 16.7944 33.1108 17.1329 33.1213C21.7632 33.2637 25.5462 29.578 27.488 24.9866C29.4202 20.4194 29.5065 15.0015 26.94 11.7327C25.2367 9.5633 23.4319 8.60688 21.7538 8.31002C19.7749 7.95969 17.9569 8.54348 16.6424 9.20706C16.669 8.71112 16.6687 8.0822 16.586 7.39981C19.7051 7.43769 21.7203 6.55596 23.0257 5.47918C25.1916 3.69288 25.4428 1.32655 25.4428 1.32655C25.4592 1.17906 25.4146 1.03157 25.3192 0.918196C25.2238 0.804822 25.0863 0.73524 24.9382 0.726106C21.5306 0.513061 19.3392 1.43455 17.9292 2.59139C16.9454 3.39843 16.3366 4.32852 15.9651 5.10467C15.6454 4.40025 15.1895 3.72485 14.5479 3.15234C13.4026 2.13011 12.252 2.27169 11.7445 2.71954C11.1771 3.22058 11.0452 4.31912 12.5284 5.1799C13.1815 5.55897 13.4 6.3773 13.4838 7.19482C13.5641 7.97742 13.4991 8.77775 13.4255 9.33521C12.0967 8.62193 10.1734 7.93739 8.06766 8.31002C6.38963 8.60688 4.58479 9.5633 2.88151 11.7327C0.316107 14.9998 0.401271 20.4141 2.33076 24.9802C4.26993 29.5699 8.04859 33.2564 12.6749 33.1215C13.015 33.1116 13.2949 33.0426 13.5912 32.959C13.9343 32.8623 14.3064 32.743 14.9109 32.743ZM14.9109 31.66C15.5347 31.66 15.9568 31.7584 16.3238 31.8607C16.6096 31.9405 16.8514 32.0289 17.1663 32.0386C21.3683 32.1678 24.7281 28.7312 26.4908 24.5648C28.2631 20.3746 28.4429 15.4004 26.0881 12.4017C24.5965 10.502 23.0348 9.63638 21.5652 9.37632C18.2009 8.78097 15.3765 11.2964 15.2776 11.3856C15.0737 11.5737 14.7559 11.578 14.5469 11.388C14.5469 11.388 11.6814 8.77023 8.25652 9.37632C6.78697 9.63638 5.225 10.502 3.73342 12.4017C1.37999 15.3991 1.55838 20.3697 3.32829 24.5586C5.08826 28.7239 8.44485 32.1614 12.6434 32.0391C12.9602 32.0297 13.2052 31.9411 13.4937 31.861C13.8634 31.7586 14.2876 31.66 14.9109 31.66ZM8.29226 10.4792C8.29226 10.4792 1.9893 12.7727 3.17327 20.3426C3.21948 20.6379 3.49673 20.8402 3.79199 20.794C4.08751 20.7477 4.28954 20.4705 4.24333 20.1752C3.20551 13.5389 8.66703 11.4952 8.66703 11.4952C8.94724 11.3918 9.09097 11.0801 8.98781 10.7999C8.88438 10.5195 8.57273 10.3757 8.29226 10.4792ZM15.4936 9.87521C15.5573 9.41554 15.6688 8.26891 15.4305 7.01052C15.2309 5.95605 14.7854 4.8164 13.8266 3.96046C13.437 3.61255 13.0606 3.45351 12.7522 3.4527C12.6074 3.45217 12.4758 3.46479 12.4379 3.56151C12.4186 3.61094 12.4476 3.66629 12.4841 3.72996C12.5835 3.90217 12.7788 4.07303 13.0719 4.24336C14.0114 4.78846 14.4407 5.90823 14.5614 7.0844C14.6766 8.21035 14.5248 9.36933 14.4278 9.94238C14.6191 10.0721 14.7811 10.1909 14.9109 10.29C15.0624 10.174 15.2585 10.031 15.4936 9.87521ZM16.6405 6.31712C16.8721 5.61217 17.4156 4.41396 18.6162 3.42852C19.7824 2.47157 21.5583 1.73008 24.2362 1.78085C24.0323 2.4713 23.5289 3.66037 22.3366 4.64366C21.1797 5.59793 19.3894 6.34291 16.6405 6.31712Z" fill="#F07E59"/>
</svg>
