<svg width="37" height="36" viewBox="0 0 37 36" fill="none" xmlns="http://www.w3.org/2000/svg">
<path d="M33.5808 35.0286H3.4186C2.90251 35.0286 2.40755 34.8236 2.04261 34.4587C1.67768 34.0937 1.47266 33.5988 1.47266 33.0827C1.47266 32.5666 1.67768 32.0716 2.04261 31.7067C2.40755 31.3417 2.90251 31.1367 3.4186 31.1367H33.5808C34.0969 31.1367 34.5918 31.3417 34.9568 31.7067C35.3217 32.0716 35.5267 32.5666 35.5267 33.0827C35.5267 33.5988 35.3217 34.0937 34.9568 34.4587C34.5918 34.8236 34.0969 35.0286 33.5808 35.0286ZM3.4186 32.1097C3.16055 32.1097 2.91307 32.2122 2.73061 32.3947C2.54814 32.5771 2.44563 32.8246 2.44563 33.0827C2.44563 33.3407 2.54814 33.5882 2.73061 33.7707C2.91307 33.9531 3.16055 34.0556 3.4186 34.0556H33.5808C33.8388 34.0556 34.0863 33.9531 34.2688 33.7707C34.4512 33.5882 34.5537 33.3407 34.5537 33.0827C34.5537 32.8246 34.4512 32.5771 34.2688 32.3947C34.0863 32.2122 33.8388 32.1097 33.5808 32.1097H3.4186Z" fill="#F07E59"/>
<path d="M31.1482 32.1082H10.2293C8.79853 32.1181 7.40099 31.6772 6.23496 30.8481C5.06893 30.0189 4.19363 28.8436 3.73327 27.4889C3.27291 26.1342 3.25087 24.669 3.67028 23.301C4.08969 21.9331 4.92925 20.732 6.06982 19.8682C6.89781 19.2262 7.86355 18.7854 8.89094 18.5802C9.91834 18.3751 10.9793 18.4113 11.9904 18.686L31.7758 23.9546C32.2934 24.0929 32.7509 24.3981 33.0772 24.823C33.4036 25.2479 33.5806 25.7686 33.5806 26.3044V29.6757C33.5806 30.3208 33.3244 30.9395 32.8682 31.3957C32.412 31.8519 31.7933 32.1082 31.1482 32.1082ZM10.2293 19.4206C8.67583 19.4206 7.186 20.0377 6.08754 21.1362C4.98909 22.2346 4.37198 23.7244 4.37198 25.2779C4.37198 26.8313 4.98909 28.3212 6.08754 29.4196C7.186 30.5181 8.67583 31.1352 10.2293 31.1352H31.1482C31.5353 31.1352 31.9065 30.9814 32.1802 30.7077C32.4539 30.434 32.6077 30.0628 32.6077 29.6757V26.3044C32.6077 25.9825 32.5014 25.6696 32.3051 25.4145C32.1089 25.1593 31.8339 24.9762 31.5228 24.8936L11.752 19.6249C11.2557 19.4896 10.7437 19.4209 10.2293 19.4206Z" fill="#F07E59"/>
<path d="M10.2296 28.7014C9.5561 28.7014 8.8977 28.5017 8.33768 28.1275C7.77767 27.7533 7.34119 27.2215 7.08344 26.5992C6.82569 25.977 6.75826 25.2923 6.88965 24.6317C7.02105 23.9711 7.34539 23.3643 7.82164 22.888C8.29789 22.4118 8.90468 22.0875 9.56526 21.9561C10.2258 21.8247 10.9106 21.8921 11.5328 22.1498C12.1551 22.4076 12.6869 22.8441 13.0611 23.4041C13.4353 23.9641 13.635 24.6225 13.635 25.296C13.635 25.7432 13.5469 26.1861 13.3758 26.5992C13.2047 27.0124 12.9538 27.3878 12.6376 27.704C12.3214 28.0202 11.946 28.2711 11.5328 28.4422C11.1197 28.6134 10.6768 28.7014 10.2296 28.7014ZM10.2296 22.8636C9.74854 22.8636 9.27825 23.0063 8.87824 23.2735C8.47823 23.5408 8.16646 23.9207 7.98235 24.3652C7.79825 24.8096 7.75008 25.2987 7.84393 25.7706C7.93779 26.2424 8.16945 26.6758 8.50964 27.016C8.84982 27.3562 9.28324 27.5879 9.75508 27.6817C10.2269 27.7756 10.716 27.7274 11.1605 27.5433C11.6049 27.3592 11.9848 27.0474 12.2521 26.6474C12.5194 26.2474 12.6621 25.7771 12.6621 25.296C12.6621 24.6509 12.4058 24.0322 11.9496 23.576C11.4934 23.1199 10.8747 22.8636 10.2296 22.8636Z" fill="#F07E59"/>
<path d="M9.94141 25.6836L10.4989 24.8867L15.0769 28.0896L14.5194 28.8865L9.94141 25.6836Z" fill="#F07E59"/>
<path d="M12.7988 29.8164L15.7189 26.8963L16.4068 27.5842L13.4867 30.5043L12.7988 29.8164Z" fill="#F07E59"/>
<path d="M12.1762 9.73142H6.33837C5.95129 9.73142 5.58007 9.57766 5.30637 9.30395C5.03267 9.03025 4.87891 8.65903 4.87891 8.27196C4.87891 7.88489 5.03267 7.51367 5.30637 7.23997C5.58007 6.96626 5.95129 6.8125 6.33837 6.8125H12.1762C12.5633 6.8125 12.9345 6.96626 13.2082 7.23997C13.4819 7.51367 13.6357 7.88489 13.6357 8.27196C13.6357 8.65903 13.4819 9.03025 13.2082 9.30395C12.9345 9.57766 12.5633 9.73142 12.1762 9.73142ZM6.33837 7.78547C6.20934 7.78547 6.0856 7.83673 5.99437 7.92796C5.90313 8.0192 5.85188 8.14294 5.85188 8.27196C5.85188 8.40098 5.90313 8.52472 5.99437 8.61596C6.0856 8.70719 6.20934 8.75845 6.33837 8.75845H12.1762C12.3052 8.75845 12.429 8.70719 12.5202 8.61596C12.6114 8.52472 12.6627 8.40098 12.6627 8.27196C12.6627 8.14294 12.6114 8.0192 12.5202 7.92796C12.429 7.83673 12.3052 7.78547 12.1762 7.78547H6.33837Z" fill="#F07E59"/>
<path d="M8.28352 19.4313H7.31055V9.2443C7.31055 9.11527 7.3618 8.99153 7.45304 8.9003C7.54427 8.80907 7.66801 8.75781 7.79703 8.75781H10.716C10.845 8.75781 10.9687 8.80907 11.06 8.9003C11.1512 8.99153 11.2024 9.11527 11.2024 9.2443V18.974H10.2295V9.73079H8.28352V19.4313Z" fill="#F07E59"/>
<path d="M31.2502 6.80976H23.8507C23.744 6.81498 23.6386 6.78494 23.5506 6.72428C23.4627 6.66361 23.3972 6.57569 23.3642 6.47409C23.3321 6.37641 23.3317 6.27107 23.3632 6.17318C23.3946 6.07528 23.4563 5.98988 23.5393 5.92922L29.6253 1.49247C30.047 1.19465 30.5425 1.01846 31.0575 0.983157C31.5726 0.947852 32.0875 1.05479 32.5459 1.29228C33.0043 1.52977 33.3886 1.88868 33.6569 2.32979C33.9251 2.77091 34.067 3.27727 34.0669 3.79355C34.0721 4.56112 33.783 5.30152 33.2591 5.86253C32.7352 6.42353 32.0163 6.76251 31.2502 6.80976ZM25.3393 5.83679H31.2502C31.7581 5.79035 32.2298 5.55429 32.5715 5.17564C32.9132 4.797 33.0997 4.30354 33.0939 3.79355C33.095 3.45384 33.0024 3.12042 32.8264 2.82989C32.6503 2.53936 32.3976 2.30295 32.096 2.14662C31.7944 1.99029 31.4556 1.92009 31.1167 1.94372C30.7778 1.96735 30.452 2.0839 30.175 2.28057L25.3393 5.83679Z" fill="#F07E59"/>
<path d="M30.6614 24.0305H29.6885V6.80891H27.7425V23.2522H26.7695V6.32242C26.7695 6.1934 26.8208 6.06966 26.912 5.97843C27.0033 5.88719 27.127 5.83594 27.256 5.83594H30.1749C30.304 5.83594 30.4277 5.88719 30.5189 5.97843C30.6102 6.06966 30.6614 6.1934 30.6614 6.32242V24.0305Z" fill="#F07E59"/>
</svg>
