<svg width="37" height="36" viewBox="0 0 37 36" fill="none" xmlns="http://www.w3.org/2000/svg">
<path d="M7.21061 18.9915H18.7173C18.9986 18.9915 19.2267 18.7633 19.2267 18.4821C19.2267 18.2008 18.9986 17.9727 18.7173 17.9727H7.21061C6.92936 17.9727 6.70117 18.2008 6.70117 18.4821C6.70117 18.7633 6.92936 18.9915 7.21061 18.9915Z" fill="#F07E59"/>
<path d="M12.6676 10.9056H18.7178C18.9991 10.9056 19.2273 10.6774 19.2273 10.3962C19.2273 10.1149 18.9991 9.88672 18.7178 9.88672H12.6676C12.3864 9.88672 12.1582 10.1149 12.1582 10.3962C12.1582 10.6774 12.3864 10.9056 12.6676 10.9056Z" fill="#F07E59"/>
<path d="M7.21061 14.9486H18.7173C18.9986 14.9486 19.2267 14.7204 19.2267 14.4391C19.2267 14.1579 18.9986 13.9297 18.7173 13.9297H7.21061C6.92936 13.9297 6.70117 14.1579 6.70117 14.4391C6.70117 14.7204 6.92936 14.9486 7.21061 14.9486Z" fill="#F07E59"/>
<path d="M22.6505 9.8279C23.5911 9.8279 24.3562 9.06906 24.3562 8.13576C24.3562 7.19517 23.5911 6.42969 22.6505 6.42969C21.7172 6.42969 20.958 7.19517 20.958 8.13576C20.958 9.06906 21.7172 9.8279 22.6505 9.8279ZM22.6505 7.44856C23.0355 7.44856 23.3374 7.75037 23.3374 8.13576C23.3374 8.50722 23.0292 8.80904 22.6505 8.80904C22.279 8.80904 21.9769 8.50722 21.9769 8.13576C21.9769 7.757 22.279 7.44856 22.6505 7.44856Z" fill="#F07E59"/>
<path d="M22.6505 16.0935C23.5911 16.0935 24.3562 15.334 24.3562 14.4007C24.3562 13.4601 23.5911 12.6953 22.6505 12.6953C21.7172 12.6953 20.958 13.4601 20.958 14.4007C20.958 15.334 21.7172 16.0935 22.6505 16.0935ZM22.6505 13.7142C23.0355 13.7142 23.3374 14.016 23.3374 14.4007C23.3374 14.7722 23.0292 15.0747 22.6505 15.0747C22.279 15.0747 21.9769 14.7722 21.9769 14.4007C21.9769 14.022 22.279 13.7142 22.6505 13.7142Z" fill="#F07E59"/>
<path d="M34.3981 22.5556C34.3981 22.5218 34.397 22.4673 34.391 22.4379C34.3913 22.4266 34.3961 22.4164 34.3961 22.4051C34.3961 22.305 34.3597 22.217 34.3098 22.1382C33.7307 20.7361 30.2154 20.0337 26.7366 19.93V4.22067C26.7366 2.9232 25.6806 1.86719 24.3828 1.86719H9.51572C9.50291 1.86719 9.49217 1.87357 9.47961 1.87448C9.43512 1.8778 9.3923 1.88609 9.35022 1.9006C9.33061 1.90748 9.31216 1.91412 9.29375 1.92324C9.25507 1.94206 9.22008 1.96677 9.18667 1.99546C9.17427 2.00615 9.16046 2.01411 9.14915 2.02589C9.14575 2.02945 9.14127 2.03136 9.13795 2.03501L2.73321 9.11601C2.69565 9.15747 2.66784 9.20456 2.64615 9.25406C2.64292 9.26144 2.64188 9.26957 2.63902 9.27711C2.61954 9.32819 2.60938 9.38109 2.60698 9.43557C2.60664 9.44328 2.60254 9.44983 2.60254 9.45762V28.8095C2.60254 30.1076 3.65822 31.1636 4.95602 31.1636H17.2689L17.269 31.4953C17.269 33.3062 21.7076 34.1313 25.8315 34.1313C29.9231 34.1313 34.3186 33.3182 34.3895 31.5377C34.3908 31.523 34.3981 31.5104 34.3981 31.4953V22.5556ZM18.2848 26.5736C18.2848 26.5717 18.2859 26.5701 18.2859 26.5681C18.2859 26.5661 18.2848 26.5645 18.2848 26.5626L18.283 23.7352C19.8285 24.623 22.9051 25.0405 25.8315 25.0405C28.7574 25.0405 31.8333 24.6231 33.3792 23.7357V26.6637C33.3791 26.6672 33.3772 26.6701 33.3772 26.6736C33.3772 27.1571 30.8098 28.2908 25.8315 28.2908C20.8533 28.2908 18.2859 27.1571 18.2859 26.6736C18.2859 26.6717 18.2848 26.6703 18.2848 26.6684L18.2848 26.5736ZM33.352 22.4872C33.0972 23.0052 30.5487 24.0216 25.8315 24.0216C21.0879 24.0216 18.5388 22.9941 18.3086 22.4789C18.5651 21.9174 21.2529 20.9338 25.8305 20.9338C30.4021 20.9338 33.0889 21.9155 33.352 22.4872ZM9.00628 3.69929V8.94819H4.25853L9.00628 3.69929ZM4.95602 30.1448C4.22006 30.1448 3.62141 29.5458 3.62141 28.8095V9.96706H9.51572C9.79696 9.96706 10.0252 9.73887 10.0252 9.45762V2.88606H24.3828C25.1188 2.88606 25.7178 3.48504 25.7178 4.22067V19.9163C22.0591 19.9299 18.107 20.6063 17.3942 22.0157H7.21066C6.92941 22.0157 6.70123 22.2439 6.70123 22.5251C6.70123 22.8064 6.92941 23.0346 7.21066 23.0346H17.2671L17.2678 26.0587H7.21066C6.92941 26.0587 6.70123 26.2869 6.70123 26.5681C6.70123 26.8494 6.92941 27.0775 7.21066 27.0775H17.268L17.2687 30.1448H4.95602ZM25.8315 33.1125C20.8543 33.1125 18.2879 31.9788 18.2879 31.4953L18.2873 30.6568C18.2873 30.6558 18.2879 30.6551 18.2879 30.6542C18.2879 30.6532 18.2873 30.6525 18.2873 30.6515L18.2857 28.0054C19.8321 28.8922 22.9068 29.3096 25.8315 29.3096C28.7574 29.3096 31.8333 28.892 33.3792 28.0044V31.4854C33.3791 31.4889 33.3772 31.4918 33.3772 31.4953C33.3772 31.9788 30.8098 33.1125 25.8315 33.1125Z" fill="#F07E59"/>
</svg>
