<svg width="37" height="36" viewBox="0 0 37 36" fill="none" xmlns="http://www.w3.org/2000/svg">
<path d="M20.8584 12.5961C20.5108 12.9431 19.9494 13.032 19.5112 12.8155L19.1158 12.6169C18.2506 12.1849 17.1532 12.3638 16.4703 13.0466L16.4141 13.1029L17.2094 13.8983L17.2657 13.842C17.6127 13.4944 18.1736 13.405 18.6129 13.6226L19.0083 13.8212C19.325 13.9793 19.6788 14.0631 20.0326 14.0631C20.6452 14.0631 21.2206 13.8246 21.6537 13.392L21.71 13.3358L20.9146 12.5404L20.8584 12.5961Z" fill="#F07E59"/>
<path d="M15.9994 8.53125L15.375 9.46725L16.3605 10.1242L15.375 10.7812L15.9994 11.7173L18.3889 10.1242L15.9994 8.53125Z" fill="#F07E59"/>
<path d="M21.7637 10.1242L22.7492 9.46725L22.1249 8.53125L19.7354 10.1242L22.1249 11.7173L22.7492 10.7812L21.7637 10.1242Z" fill="#F07E59"/>
<path d="M35.9375 14.3173C35.9375 13.3318 35.7153 12.3401 35.2962 11.4491L31.8853 4.20075C31.5213 3.42675 30.9751 2.73544 30.3069 2.19994C28.9873 1.14413 27.329 0.5625 25.6381 0.5625H22.8222C22.4156 0.5625 22.0477 0.725625 21.776 0.988312C20.9008 0.711 19.9912 0.5625 19.0625 0.5625C14.1001 0.5625 10.0625 4.60013 10.0625 9.5625V11.2101C10.0625 13.6862 10.2318 16.1831 10.5575 18.6407C9.19794 19.7567 8.375 21.4369 8.375 23.256V35.4375H25.8125V30.8559C25.8125 30.3041 25.9947 29.7568 26.3261 29.3147C27.0832 28.3056 27.5 27.0557 27.5 25.7934C27.5 25.7158 27.4859 25.6399 27.4831 25.5623L33.9643 19.0811C35.2366 17.8088 35.9375 16.1167 35.9375 14.3173ZM11.1875 11.2101V9.5625C11.1875 5.22 14.72 1.6875 19.0625 1.6875C19.8331 1.6875 20.5886 1.80394 21.3176 2.02163C21.317 2.03906 21.3125 2.05537 21.3125 2.07281C21.3125 2.76694 21.7828 3.36994 22.4566 3.53756L23.6187 3.82838C23.8021 4.545 24.4085 5.103 25.1712 5.19806L25.6511 5.25825C26.4903 6.53794 26.9375 8.01956 26.9375 9.5625V11.2101C26.9375 13.2429 26.8194 15.2977 26.5949 17.325C26.06 17.4403 25.5031 17.4684 24.9491 17.3891L21.7529 16.9324L21.4874 15.8344C22.4038 15.4249 23.2053 14.7701 23.7802 13.9067C24.3736 13.0157 24.6875 11.9796 24.6875 10.9097V7.82775C24.6875 6.30281 23.4472 5.0625 21.9228 5.0625C21.4211 5.0625 20.9289 5.19863 20.5002 5.45625L19.2802 6.18919C18.6676 6.55594 17.9668 6.75 17.2535 6.75H15.6875C14.4466 6.75 13.4375 7.75912 13.4375 9V10.9097C13.4375 11.9796 13.7514 13.0157 14.3448 13.9067C14.9191 14.7684 15.719 15.4226 16.6342 15.8327L16.3586 16.9341L13.5044 17.3419C12.9864 17.4161 12.479 17.5579 11.9947 17.7649C11.8625 17.8217 11.7331 17.883 11.6066 17.9482C11.3338 15.7151 11.1875 13.4539 11.1875 11.2101ZM27.0562 5.43319L28.1666 5.57212L29.9412 13.1136C30.1426 13.9691 29.9272 14.8832 29.3647 15.5588L29.1841 15.7748C28.7887 16.2495 28.3044 16.6292 27.7683 16.9071C27.9596 15.0148 28.0625 13.1034 28.0625 11.2101V9.5625C28.0625 8.109 27.7143 6.70331 27.0562 5.43319ZM19.2847 15.1875H18.8409C17.4071 15.1875 16.0767 14.4754 15.2814 13.2823C14.8106 12.5769 14.5625 11.7563 14.5625 10.9097V9C14.5625 8.37956 15.0671 7.875 15.6875 7.875H17.2535C18.1704 7.875 19.0709 7.62581 19.8584 7.15388L21.0791 6.42094C21.3333 6.2685 21.6252 6.1875 21.9228 6.1875C22.8267 6.1875 23.5625 6.92325 23.5625 7.82719V10.9091C23.5625 11.7562 23.3144 12.5769 22.8442 13.2823C22.0488 14.4754 20.7179 15.1875 19.2847 15.1875ZM18.8403 16.3125H19.2841C19.6711 16.3125 20.0497 16.2636 20.4192 16.1842L20.75 17.5067V20.8125H17.375V17.5067L17.7057 16.1842C18.0753 16.2636 18.4539 16.3125 18.8403 16.3125ZM17.375 21.9375H20.75V22.5C20.75 23.4304 19.9929 24.1875 19.0625 24.1875C18.1321 24.1875 17.375 23.4304 17.375 22.5V21.9375ZM9.5 23.256C9.5 21.3137 10.6537 19.5643 12.4385 18.7993C12.5808 18.7386 12.7282 18.6924 12.875 18.6452V19.4501C12.875 20.2297 12.6466 20.9852 12.2135 21.6343L11.6105 22.5388C10.9653 23.5052 10.625 24.6308 10.625 25.7934C10.625 27.0551 11.0418 28.3056 11.7989 29.3147C12.1302 29.7568 12.3125 30.3041 12.3125 30.8559V34.3125H9.5V23.256ZM25.4261 28.6403C24.9502 29.2753 24.6875 30.0623 24.6875 30.8559V34.3125H13.4375V30.8559C13.4375 30.0623 13.1748 29.2747 12.6989 28.6403C12.0869 27.8246 11.75 26.8132 11.75 25.7934C11.75 24.8535 12.0251 23.9439 12.5465 23.1626L13.1495 22.2581C13.7064 21.4234 14 20.4525 14 19.4501V18.4078L16.2646 18.0844L16.25 22.5C16.25 24.0508 17.5117 25.3125 19.0625 25.3125C20.6133 25.3125 21.875 24.0508 21.875 22.5V18.0861L24.125 18.4072V19.4496C24.125 20.4519 24.4186 21.4228 24.9755 22.2576L25.5785 23.1621C26.0999 23.9439 26.375 24.8541 26.375 25.7934C26.375 26.8132 26.0381 27.8246 25.4261 28.6403ZM27.2699 24.1847C27.1046 23.6042 26.8548 23.0484 26.5145 22.5388L25.9115 21.6343C25.4784 20.9852 25.25 20.2297 25.25 19.4501V18.5349C25.3783 18.5434 25.5065 18.5625 25.6347 18.5625C27.3447 18.5625 28.9535 17.8088 30.0487 16.4953L30.2292 16.2788C31.0168 15.3332 31.3194 14.0535 31.0376 12.8559L29.0829 4.55288L25.3108 4.0815C24.9558 4.03706 24.6875 3.73331 24.6875 3.375V2.93569L22.7294 2.44687C22.5579 2.403 22.4375 2.24944 22.4375 2.07281C22.4375 1.86019 22.6102 1.6875 22.8228 1.6875H25.6387C27.0748 1.6875 28.4832 2.18138 29.6043 3.07912C30.1392 3.50719 30.5763 4.06069 30.8677 4.68L34.2787 11.9289C34.628 12.6703 34.8125 13.4966 34.8125 14.3173C34.8125 15.8164 34.2286 17.2254 33.1689 18.2857L27.2699 24.1847Z" fill="#F07E59"/>
<path d="M5.93263 1.99856L6.43606 3.00487C6.7235 3.57975 7.30231 3.9375 7.94525 3.9375H8.80419C9.01906 3.9375 9.212 4.05675 9.30762 4.24856L9.55906 4.752L10.5654 4.24856L10.3139 3.74513C10.0265 3.17025 9.44769 2.8125 8.80475 2.8125H7.94581C7.73094 2.8125 7.538 2.69325 7.44237 2.50144L6.93894 1.49512C6.6515 0.92025 6.07269 0.5625 5.42975 0.5625H4.4375V1.6875H5.42975C5.64462 1.6875 5.837 1.80675 5.93263 1.99856Z" fill="#F07E59"/>
<path d="M5.64991 8.43731C6.07179 8.43731 6.48073 8.31356 6.83285 8.079L7.35766 7.72913C7.57929 7.58119 7.87854 7.61044 8.06754 7.79944L8.5406 8.2725L9.33598 7.47713L8.86291 7.00406C8.29591 6.43706 7.39929 6.34875 6.73385 6.79312L6.20904 7.143C5.8226 7.40063 5.26685 7.34606 4.93835 7.017L3.71041 5.78906L2.91504 6.58444L4.14298 7.81238C4.53954 8.21006 5.0891 8.43731 5.64991 8.43731Z" fill="#F07E59"/>
<path d="M9.18874 10.7466L8.34105 10.323C8.08174 10.1936 7.79093 10.125 7.50124 10.125C6.78462 10.125 6.13999 10.5232 5.81993 11.1645L5.42337 11.9582C5.24281 12.3199 4.77368 12.4774 4.41087 12.2957C3.67737 11.9278 2.78637 12.1387 2.29418 12.7957L1.1748 14.2875L2.0748 14.9625L3.19418 13.4702C3.36012 13.2491 3.66105 13.1788 3.90855 13.302C4.16787 13.4314 4.45868 13.5 4.74837 13.5C5.46499 13.5 6.10962 13.1018 6.42968 12.4605L6.82624 11.6668C7.0068 11.3057 7.47649 11.1488 7.83874 11.3293L8.68587 11.7529L9.18874 10.7466Z" fill="white"/>
</svg>
