<svg width="42" height="43" viewBox="0 0 42 43" fill="none" xmlns="http://www.w3.org/2000/svg">
<path d="M35.1094 16.5518H34.043V15.5536C34.042 14.6716 33.696 13.8259 33.0808 13.2021C32.4657 12.5784 31.6317 12.2276 30.7617 12.2266H7.71094C6.841 12.2276 6.00696 12.5784 5.39182 13.2021C4.77668 13.8259 4.43066 14.6716 4.42969 15.5536V27.0321C4.43066 27.9142 4.77668 28.7599 5.39182 29.3836C6.00696 30.0073 6.841 30.3582 7.71094 30.3592H30.7617C31.6317 30.3582 32.4657 30.0073 33.0808 29.3836C33.696 28.7599 34.042 27.9142 34.043 27.0321V26.034H35.1094C36.4663 26.034 37.5703 25.0561 37.5703 23.8541V18.7316C37.5703 17.5297 36.4663 16.5518 35.1094 16.5518ZM32.4023 27.0321C32.4018 27.4731 32.2288 27.896 31.9213 28.2078C31.6137 28.5197 31.1967 28.6951 30.7617 28.6956H7.71094C7.27597 28.6951 6.85896 28.5197 6.55139 28.2078C6.24382 27.896 6.07081 27.4731 6.07031 27.0321V15.5536C6.07081 15.1126 6.24382 14.6898 6.55139 14.3779C6.85896 14.066 7.27597 13.8906 7.71094 13.8901H30.7617C31.1967 13.8906 31.6137 14.066 31.9213 14.3779C32.2288 14.6898 32.4018 15.1126 32.4023 15.5536V27.0321ZM35.9297 23.8541C35.9297 24.0979 35.5789 24.3704 35.1094 24.3704H34.043V18.2153H35.1094C35.5789 18.2153 35.9297 18.4879 35.9297 18.7316V23.8541Z" fill="#9EE26D"/>
<path d="M10 26C9.73478 26 9.48043 25.9136 9.29289 25.7599C9.10536 25.6062 9 25.3977 9 25.1803V16.8197C9 16.6023 9.10536 16.3938 9.29289 16.2401C9.48043 16.0864 9.73478 16 10 16C10.2652 16 10.5196 16.0864 10.7071 16.2401C10.8946 16.3938 11 16.6023 11 16.8197V25.1803C11 25.3977 10.8946 25.6062 10.7071 25.7599C10.5196 25.9136 10.2652 26 10 26Z" fill="#9EE26D"/>
<path d="M14.5 26C14.2348 26 13.9804 25.9136 13.7929 25.7599C13.6054 25.6062 13.5 25.3977 13.5 25.1803V16.8197C13.5 16.6023 13.6054 16.3938 13.7929 16.2401C13.9804 16.0864 14.2348 16 14.5 16C14.7652 16 15.0196 16.0864 15.2071 16.2401C15.3946 16.3938 15.5 16.6023 15.5 16.8197V25.1803C15.5 25.3977 15.3946 25.6062 15.2071 25.7599C15.0196 25.9136 14.7652 26 14.5 26Z" fill="#9EE26D"/>
<path d="M19 26C18.7348 26 18.4804 25.9136 18.2929 25.7599C18.1054 25.6062 18 25.3977 18 25.1803V16.8197C18 16.6023 18.1054 16.3938 18.2929 16.2401C18.4804 16.0864 18.7348 16 19 16C19.2652 16 19.5196 16.0864 19.7071 16.2401C19.8946 16.3938 20 16.6023 20 16.8197V25.1803C20 25.3977 19.8946 25.6062 19.7071 25.7599C19.5196 25.9136 19.2652 26 19 26Z" fill="#9EE26D"/>
<path d="M23.5 26C23.2348 26 22.9804 25.9136 22.7929 25.7599C22.6054 25.6062 22.5 25.3977 22.5 25.1803V16.8197C22.5 16.6023 22.6054 16.3938 22.7929 16.2401C22.9804 16.0864 23.2348 16 23.5 16C23.7652 16 24.0196 16.0864 24.2071 16.2401C24.3946 16.3938 24.5 16.6023 24.5 16.8197V25.1803C24.5 25.3977 24.3946 25.6062 24.2071 25.7599C24.0196 25.9136 23.7652 26 23.5 26Z" fill="#9EE26D"/>
<path d="M28 26C27.7348 26 27.4804 25.9136 27.2929 25.7599C27.1054 25.6062 27 25.3977 27 25.1803V16.8197C27 16.6023 27.1054 16.3938 27.2929 16.2401C27.4804 16.0864 27.7348 16 28 16C28.2652 16 28.5196 16.0864 28.7071 16.2401C28.8946 16.3938 29 16.6023 29 16.8197V25.1803C29 25.3977 28.8946 25.6062 28.7071 25.7599C28.5196 25.9136 28.2652 26 28 26Z" fill="#9EE26D"/>
</svg>
