<svg width="32" height="32" viewBox="0 0 32 32" fill="none" xmlns="http://www.w3.org/2000/svg">
<g clip-path="url(#clip0_1058_20909)">
<path d="M12.2364 13.4202C12.0215 13.2955 11.7464 13.3688 11.6219 13.5836C10.827 14.9546 10.4346 16.2825 10.4221 17.6429C10.3938 20.7223 12.8762 23.2506 15.9556 23.2789C15.973 23.279 15.9902 23.2791 16.0075 23.2791C17.872 23.2791 19.6028 22.3571 20.6454 20.8057C20.7839 20.5996 20.7291 20.3202 20.523 20.1818C20.3169 20.0432 20.0376 20.0981 19.8991 20.3041C19.016 21.6182 17.5454 22.3968 15.9639 22.3797C13.3802 22.3559 11.2976 20.2347 11.3212 17.6511C11.3323 16.4504 11.6851 15.2674 12.3998 14.0346C12.5244 13.8198 12.4512 13.5447 12.2364 13.4202Z" fill="#F07E59"/>
<path d="M20.9958 19.3362C21.1991 19.3361 21.3833 19.1974 21.4327 18.991C21.534 18.5668 21.5855 18.1286 21.5855 17.6885C21.5855 14.4012 19.2865 11.845 17.7653 10.1534C17.4243 9.77423 17.1297 9.44674 16.897 9.15469C16.6783 8.88013 16.3515 8.72266 16.0005 8.72266C15.6496 8.72266 15.3228 8.88013 15.104 9.15475C14.8713 9.44674 14.5768 9.77435 14.2357 10.1536C13.749 10.6948 13.1973 11.3082 12.6636 12.0018C12.5122 12.1986 12.549 12.4808 12.7458 12.6323C12.9425 12.7836 13.2248 12.7469 13.3763 12.5501C13.889 11.8838 14.4283 11.2841 14.9043 10.7549C15.2404 10.3812 15.5579 10.0281 15.8073 9.71506C15.8719 9.63401 15.9561 9.62184 16.0005 9.62184C16.045 9.62184 16.1292 9.63395 16.1938 9.715C16.4431 10.0281 16.7606 10.3811 17.0967 10.7548C18.6116 12.4392 20.6863 14.7461 20.6863 17.6886C20.6863 18.0583 20.6432 18.4262 20.5581 18.782C20.5004 19.0235 20.6494 19.2661 20.8909 19.3238C20.926 19.3322 20.9611 19.3362 20.9958 19.3362Z" fill="#F07E59"/>
<path d="M5.10167 13.8405C4.92615 13.665 4.64146 13.665 4.46588 13.8405L3.44554 14.8608C4.02258 8.44038 9.4324 3.39138 16.0004 3.39138C18.7126 3.39138 21.2965 4.23925 23.4728 5.84346C25.6065 7.4162 27.1672 9.57234 27.9863 12.0787C28.0635 12.3147 28.3173 12.4435 28.5534 12.3664C28.7894 12.2893 28.9182 12.0355 28.841 11.7994C27.9634 9.11405 26.2916 6.80422 24.0063 5.11968C21.6744 3.40073 18.906 2.49219 16.0004 2.49219C12.3928 2.49219 9.00109 3.89702 6.45009 6.44802C4.14709 8.75102 2.77877 11.7394 2.53443 14.9531L1.42177 13.8405C1.24619 13.665 0.961505 13.665 0.785983 13.8405C0.610401 14.0161 0.610401 14.3008 0.785983 14.4763L2.6259 16.3163C2.71366 16.404 2.82876 16.4479 2.9438 16.4479C3.05883 16.4479 3.17393 16.404 3.26169 16.3163L5.10167 14.4763C5.27731 14.3007 5.27731 14.0161 5.10167 13.8405Z" fill="#F07E59"/>
<path d="M31.2148 17.4833L29.3748 15.6434C29.2905 15.5591 29.1762 15.5117 29.0569 15.5117C28.9377 15.5117 28.8233 15.5591 28.739 15.6434L26.8991 17.4833C26.7235 17.659 26.7235 17.9436 26.8991 18.1192C27.0746 18.2947 27.3593 18.2947 27.5349 18.1192L28.5588 17.0951C28.0018 23.5355 22.5827 28.6065 16.0004 28.6065C13.412 28.6065 10.9252 27.8281 8.80865 26.3554C6.73968 24.9158 5.16382 22.9189 4.25132 20.5805C4.1611 20.3492 3.9004 20.2352 3.66907 20.3251C3.43779 20.4154 3.32342 20.676 3.4137 20.9074C4.39123 23.4125 6.07919 25.5517 8.29515 27.0935C10.5631 28.6715 13.2275 29.5056 16.0004 29.5056C19.6081 29.5056 22.9998 28.1007 25.5507 25.5497C27.8625 23.238 29.2312 20.2355 29.4679 17.0079L30.5791 18.1191C30.6668 18.2069 30.7819 18.2508 30.897 18.2508C31.012 18.2508 31.1271 18.2069 31.2149 18.1191C31.3905 17.9435 31.3905 17.6589 31.2148 17.4833Z" fill="#F07E59"/>
</g>
<defs>
<clipPath id="clip0_1058_20909">
<rect width="30.6923" height="30.6923" fill="white" transform="translate(0.654297 0.652344)"/>
</clipPath>
</defs>
</svg>
