<svg width="31" height="32" viewBox="0 0 31 32" fill="none" xmlns="http://www.w3.org/2000/svg">
<g clip-path="url(#clip0_1058_20871)">
<path d="M11.7364 13.4202C11.5215 13.2955 11.2464 13.3688 11.1219 13.5836C10.327 14.9546 9.93458 16.2825 9.92211 17.6429C9.89382 20.7223 12.3762 23.2506 15.4556 23.2789C15.473 23.279 15.4902 23.2791 15.5075 23.2791C17.372 23.2791 19.1028 22.3571 20.1454 20.8057C20.2839 20.5996 20.2291 20.3202 20.023 20.1818C19.8169 20.0432 19.5376 20.0981 19.3991 20.3041C18.516 21.6182 17.0454 22.3968 15.4639 22.3797C12.8802 22.3559 10.7976 20.2347 10.8212 17.6511C10.8323 16.4504 11.1851 15.2674 11.8998 14.0346C12.0244 13.8198 11.9512 13.5447 11.7364 13.4202Z" fill="#D96D99"/>
<path d="M20.4958 19.3362C20.6991 19.3361 20.8833 19.1974 20.9327 18.991C21.034 18.5668 21.0855 18.1286 21.0855 17.6885C21.0855 14.4012 18.7865 11.845 17.2653 10.1534C16.9243 9.77423 16.6297 9.44674 16.397 9.15469C16.1783 8.88013 15.8515 8.72266 15.5005 8.72266C15.1496 8.72266 14.8228 8.88013 14.604 9.15475C14.3713 9.44674 14.0768 9.77435 13.7357 10.1536C13.249 10.6948 12.6973 11.3082 12.1636 12.0018C12.0122 12.1986 12.049 12.4808 12.2458 12.6323C12.4425 12.7836 12.7248 12.7469 12.8763 12.5501C13.389 11.8838 13.9283 11.2841 14.4043 10.7549C14.7404 10.3812 15.0579 10.0281 15.3073 9.71506C15.3719 9.63401 15.4561 9.62184 15.5005 9.62184C15.545 9.62184 15.6292 9.63395 15.6938 9.715C15.9431 10.0281 16.2606 10.3811 16.5967 10.7548C18.1116 12.4392 20.1863 14.7461 20.1863 17.6886C20.1863 18.0583 20.1432 18.4262 20.0581 18.782C20.0004 19.0235 20.1494 19.2661 20.3909 19.3238C20.426 19.3322 20.4611 19.3362 20.4958 19.3362Z" fill="#D96D99"/>
<path d="M4.60167 13.8405C4.42615 13.665 4.14146 13.665 3.96588 13.8405L2.94554 14.8608C3.52258 8.44038 8.9324 3.39138 15.5004 3.39138C18.2126 3.39138 20.7965 4.23925 22.9728 5.84346C25.1065 7.4162 26.6672 9.57234 27.4863 12.0787C27.5635 12.3147 27.8173 12.4435 28.0534 12.3664C28.2894 12.2893 28.4182 12.0355 28.341 11.7994C27.4634 9.11405 25.7916 6.80422 23.5063 5.11968C21.1744 3.40073 18.406 2.49219 15.5004 2.49219C11.8928 2.49219 8.50109 3.89702 5.95009 6.44802C3.64709 8.75102 2.27877 11.7394 2.03443 14.9531L0.921769 13.8405C0.746188 13.665 0.461505 13.665 0.285983 13.8405C0.110401 14.0161 0.110401 14.3008 0.285983 14.4763L2.1259 16.3163C2.21366 16.404 2.32876 16.4479 2.4438 16.4479C2.55883 16.4479 2.67393 16.404 2.76169 16.3163L4.60167 14.4763C4.77731 14.3007 4.77731 14.0161 4.60167 13.8405Z" fill="#D96D99"/>
<path d="M30.7148 17.4833L28.8748 15.6434C28.7905 15.5591 28.6762 15.5117 28.5569 15.5117C28.4377 15.5117 28.3233 15.5591 28.239 15.6434L26.3991 17.4833C26.2235 17.659 26.2235 17.9436 26.3991 18.1192C26.5746 18.2947 26.8593 18.2947 27.0349 18.1192L28.0588 17.0951C27.5018 23.5355 22.0827 28.6065 15.5004 28.6065C12.912 28.6065 10.4252 27.8281 8.30865 26.3554C6.23968 24.9158 4.66382 22.9189 3.75132 20.5805C3.6611 20.3492 3.4004 20.2352 3.16907 20.3251C2.93779 20.4154 2.82342 20.676 2.9137 20.9074C3.89123 23.4125 5.57919 25.5517 7.79515 27.0935C10.0631 28.6715 12.7275 29.5056 15.5004 29.5056C19.1081 29.5056 22.4998 28.1007 25.0507 25.5497C27.3625 23.238 28.7312 20.2355 28.9679 17.0079L30.0791 18.1191C30.1668 18.2069 30.2819 18.2508 30.397 18.2508C30.512 18.2508 30.6271 18.2069 30.7149 18.1191C30.8905 17.9435 30.8905 17.6589 30.7148 17.4833Z" fill="#D96D99"/>
</g>
<defs>
<clipPath id="clip0_1058_20871">
<rect width="30.6923" height="30.6923" fill="white" transform="translate(0.154297 0.652344)"/>
</clipPath>
</defs>
</svg>
