<svg width="42" height="42" viewBox="0 0 42 42" fill="none" xmlns="http://www.w3.org/2000/svg">
<path d="M35.1094 16.3242H34.043V15.3398C34.042 14.4699 33.696 13.6359 33.0808 13.0207C32.4657 12.4056 31.6317 12.0596 30.7617 12.0586H7.71094C6.841 12.0596 6.00696 12.4056 5.39182 13.0207C4.77668 13.6359 4.43066 14.4699 4.42969 15.3398V26.6602C4.43066 27.5301 4.77668 28.3641 5.39182 28.9793C6.00696 29.5944 6.841 29.9404 7.71094 29.9414H30.7617C31.6317 29.9404 32.4657 29.5944 33.0808 28.9793C33.696 28.3641 34.042 27.5301 34.043 26.6602V25.6758H35.1094C36.4663 25.6758 37.5703 24.7113 37.5703 23.526V18.474C37.5703 17.2887 36.4663 16.3242 35.1094 16.3242ZM32.4023 26.6602C32.4018 27.0951 32.2288 27.5121 31.9213 27.8197C31.6137 28.1273 31.1967 28.3003 30.7617 28.3008H7.71094C7.27597 28.3003 6.85896 28.1273 6.55139 27.8197C6.24382 27.5121 6.07081 27.0951 6.07031 26.6602V15.3398C6.07081 14.9049 6.24382 14.4879 6.55139 14.1803C6.85896 13.8727 7.27597 13.6997 7.71094 13.6992H30.7617C31.1967 13.6997 31.6137 13.8727 31.9213 14.1803C32.2288 14.4879 32.4018 14.9049 32.4023 15.3398V26.6602ZM35.9297 23.526C35.9297 23.7663 35.5789 24.0352 35.1094 24.0352H34.043V17.9648H35.1094C35.5789 17.9648 35.9297 18.2337 35.9297 18.474V23.526Z" fill="#FE2424"/>
<path d="M9.76172 26.0039C9.54416 26.0039 9.33551 25.9175 9.18167 25.7636C9.02783 25.6098 8.94141 25.4012 8.94141 25.1836V16.8164C8.94141 16.5988 9.02783 16.3902 9.18167 16.2364C9.33551 16.0825 9.54416 15.9961 9.76172 15.9961C9.97928 15.9961 10.1879 16.0825 10.3418 16.2364C10.4956 16.3902 10.582 16.5988 10.582 16.8164V25.1836C10.582 25.4012 10.4956 25.6098 10.3418 25.7636C10.1879 25.9175 9.97928 26.0039 9.76172 26.0039Z" fill="#FE2424"/>
</svg>
