<svg width="37" height="36" viewBox="0 0 37 36" fill="none" xmlns="http://www.w3.org/2000/svg">
<g clip-path="url(#clip0_1283_6741)">
<path d="M9.55999 14.7383H27.5317C29.9456 14.7383 32.1953 15.8211 33.7037 17.709C33.8881 17.9396 34.2245 17.9773 34.4552 17.7929C34.6859 17.6086 34.7235 17.2722 34.5392 17.0415C34.3025 16.7454 34.0493 16.4674 33.7824 16.207C34.4629 14.8639 34.6854 13.6538 34.4597 12.5192C34.2392 11.4111 33.5972 10.3556 32.4391 9.19751C30.8519 7.61037 33.0108 5.39995 33.1028 5.30721C33.3116 5.09841 33.3116 4.75986 33.1028 4.55113C32.894 4.34233 32.5555 4.34233 32.3467 4.55113C32.3168 4.581 31.6092 5.2948 31.1595 6.28442C30.5255 7.67902 30.7115 8.98215 31.683 9.95366C33.5648 11.8354 33.9386 13.3853 32.9465 15.486C31.4056 14.315 29.5179 13.6691 27.5318 13.6691H9.55999C7.49757 13.6691 5.59248 14.3574 4.06665 15.5136C3.05828 13.3988 3.42705 11.8437 5.31703 9.95373C6.28854 8.98222 6.47445 7.67916 5.84056 6.28449C5.39074 5.29495 4.68314 4.58114 4.65327 4.5512C4.44475 4.34262 4.10707 4.34269 3.89812 4.55085C3.68925 4.75901 3.68868 5.09741 3.89648 5.30664C3.98916 5.39995 6.14803 7.61044 4.56088 9.19758C3.40274 10.3557 2.76066 11.4112 2.54016 12.5192C2.31304 13.6607 2.53945 14.8785 3.22966 16.2312C1.55397 17.854 0.50847 20.1121 0.500058 22.6059C0.492074 24.8376 1.30974 26.9794 2.80243 28.6366C2.90801 28.7538 3.05365 28.8134 3.19986 28.8134C3.32739 28.8134 3.45528 28.7681 3.55751 28.6761C3.77693 28.4784 3.79454 28.1403 3.59693 27.921C2.28232 26.4616 1.56224 24.5753 1.5693 22.6097C1.58399 18.2694 5.16854 14.7383 9.55999 14.7383Z" fill="#F07E59"/>
<path d="M35.7182 18.972C35.5972 18.7026 35.2805 18.5824 35.0114 18.7033C34.7421 18.8242 34.6217 19.1406 34.7427 19.41C35.1883 20.4024 35.4195 21.4628 35.43 22.5615C35.4707 26.878 31.9946 30.455 27.6812 30.5351C24.8172 30.5853 22.1407 29.0815 20.6997 26.6046C20.4762 26.2196 20.1553 25.8978 19.7716 25.674C19.3853 25.4486 18.9453 25.3295 18.4992 25.3295C17.5985 25.3295 16.7589 25.8126 16.3078 26.5905C14.8973 29.0244 12.2765 30.5364 9.46845 30.5364C7.90996 30.5364 6.40266 30.0831 5.10957 29.2254C4.86342 29.0621 4.53164 29.1293 4.36847 29.3754C4.20522 29.6215 4.27244 29.9532 4.51845 30.1165C5.98726 31.0907 7.69895 31.6057 9.46838 31.6057C12.6566 31.6057 15.6318 29.8894 17.2329 27.1268C17.4932 26.6778 17.9784 26.3988 18.4991 26.3988C18.7561 26.3988 19.0098 26.4676 19.2326 26.5976C19.4567 26.7283 19.644 26.9162 19.7749 27.1417C21.3834 29.9065 24.3454 31.6058 27.5356 31.6057C27.5905 31.6057 27.6458 31.6052 27.7007 31.6042C32.5984 31.5132 36.5453 27.4521 36.4991 22.5514C36.4874 21.3041 36.2247 20.0999 35.7182 18.972Z" fill="#F07E59"/>
<path d="M13.3529 25.4051C13.4494 25.5848 13.6338 25.6869 13.8244 25.6869C13.9098 25.6869 13.9964 25.6664 14.0769 25.6232C14.337 25.4835 14.4347 25.1594 14.295 24.8992L13.5649 23.5396C13.7671 23.3819 13.9628 23.2119 14.1486 23.026C14.3574 22.8172 14.3574 22.4786 14.1486 22.2699C13.9398 22.0611 13.6013 22.0611 13.3925 22.2699C12.407 23.2554 11.0967 23.7981 9.70292 23.7981C8.30918 23.7981 6.99877 23.2554 6.01329 22.2699C5.80449 22.0611 5.46594 22.0611 5.25721 22.2699C5.04841 22.4787 5.04841 22.8172 5.25721 23.026C5.43707 23.2058 5.62605 23.3708 5.82117 23.5243L5.08135 24.7453C4.92836 24.9978 5.00906 25.3266 5.26156 25.4797C5.34818 25.5321 5.4437 25.5571 5.53809 25.5571C5.71894 25.5571 5.89538 25.4653 5.99589 25.2994L6.71554 24.1115C7.04632 24.29 7.38971 24.4361 7.74144 24.551L7.29661 25.7075C7.1906 25.9831 7.32804 26.2925 7.60364 26.3985C7.6668 26.4228 7.73167 26.4343 7.79548 26.4343C8.01027 26.4343 8.21287 26.3039 8.29456 26.0915L8.79193 24.7985C9.09384 24.8423 9.39838 24.8644 9.70285 24.8644C9.82732 24.8644 9.95164 24.8594 10.0759 24.8521L10.2136 26.1297C10.2432 26.4038 10.475 26.6072 10.7446 26.6072C10.7637 26.6072 10.7831 26.6062 10.8025 26.6041C11.0961 26.5724 11.3085 26.3087 11.2768 26.0152L11.1349 24.6992C11.6629 24.5766 12.1779 24.3855 12.6656 24.1252L13.3529 25.4051Z" fill="#F07E59"/>
<path d="M31.0034 25.2995C31.104 25.4654 31.2805 25.5572 31.4612 25.5572C31.5556 25.5572 31.6512 25.5321 31.7378 25.4797C31.9903 25.3268 32.071 24.998 31.9181 24.7454L31.1782 23.5243C31.3734 23.3708 31.5623 23.2058 31.7422 23.026C31.951 22.8172 31.951 22.4786 31.7422 22.2699C31.5333 22.0611 31.1948 22.0611 30.986 22.2699C30.0006 23.2554 28.6902 23.7981 27.2964 23.7981C25.9026 23.7981 24.5923 23.2554 23.6068 22.2699C23.3979 22.0611 23.0594 22.0611 22.8506 22.2699C22.6418 22.4787 22.6418 22.8172 22.8506 23.026C23.0366 23.2119 23.2322 23.3819 23.4345 23.5396L22.7044 24.8992C22.5646 25.1593 22.6623 25.4835 22.9225 25.6232C23.003 25.6664 23.0896 25.6869 23.1749 25.6869C23.3656 25.6869 23.55 25.5848 23.6464 25.4051L24.3337 24.1253C24.8215 24.3856 25.3364 24.5766 25.8643 24.6993L25.7225 26.0153C25.6909 26.3088 25.9032 26.5724 26.1967 26.6042C26.2162 26.6062 26.2355 26.6072 26.2547 26.6072C26.5243 26.6072 26.7561 26.4039 26.7856 26.1298L26.9234 24.8522C27.0476 24.8595 27.1719 24.8645 27.2964 24.8645C27.601 24.8645 27.9054 24.8424 28.2074 24.7985L28.7048 26.0915C28.7865 26.304 28.9891 26.4344 29.2039 26.4344C29.2677 26.4344 29.3327 26.4228 29.3957 26.3986C29.6713 26.2926 29.8088 25.9832 29.7028 25.7076L29.2579 24.5511C29.6096 24.4362 29.953 24.29 30.2838 24.1116L31.0034 25.2995Z" fill="#F07E59"/>
</g>
<defs>
<clipPath id="clip0_1283_6741">
<rect width="36" height="36" fill="white" transform="translate(0.5)"/>
</clipPath>
</defs>
</svg>
