<svg width="37" height="36" viewBox="0 0 37 36" fill="none" xmlns="http://www.w3.org/2000/svg">
<path d="M27.5 26.5781H20.75C20.6381 26.5781 20.5308 26.6226 20.4517 26.7017C20.3726 26.7808 20.3281 26.8881 20.3281 27C20.3281 27.1119 20.3726 27.2192 20.4517 27.2983C20.5308 27.3774 20.6381 27.4219 20.75 27.4219H27.5C27.6119 27.4219 27.7192 27.3774 27.7983 27.2983C27.8774 27.2192 27.9219 27.1119 27.9219 27C27.9219 26.8881 27.8774 26.7808 27.7983 26.7017C27.7192 26.6226 27.6119 26.5781 27.5 26.5781Z" fill="#F07E59"/>
<path d="M27.5 28.2656H20.75C20.6381 28.2656 20.5308 28.3101 20.4517 28.3892C20.3726 28.4683 20.3281 28.5756 20.3281 28.6875C20.3281 28.7994 20.3726 28.9067 20.4517 28.9858C20.5308 29.0649 20.6381 29.1094 20.75 29.1094H27.5C27.6119 29.1094 27.7192 29.0649 27.7983 28.9858C27.8774 28.9067 27.9219 28.7994 27.9219 28.6875C27.9219 28.5756 27.8774 28.4683 27.7983 28.3892C27.7192 28.3101 27.6119 28.2656 27.5 28.2656Z" fill="#F07E59"/>
<path d="M34.5312 33.3281H30.5634C31.0332 32.8353 31.2958 32.1809 31.2969 31.5V22.3071C31.2998 21.2424 31.0915 20.1878 30.684 19.2042C30.2766 18.2206 29.6781 17.3276 28.9231 16.5769C28.2469 15.9042 27.7109 15.1041 27.3459 14.2228C26.9809 13.3416 26.7943 12.3967 26.7969 11.4429V7.36875C26.9717 7.22535 27.1128 7.04513 27.2101 6.84095C27.3073 6.63677 27.3583 6.41365 27.3594 6.1875V1.6875C27.3591 1.27733 27.196 0.884054 26.906 0.594023C26.6159 0.303992 26.2227 0.140923 25.8125 0.140625H22.4375C22.0273 0.140923 21.6341 0.303992 21.344 0.594023C21.054 0.884054 20.8909 1.27733 20.8906 1.6875V6.1875C20.8917 6.41365 20.9427 6.63677 21.0399 6.84095C21.1372 7.04513 21.2783 7.22535 21.4531 7.36875V11.4407C21.4557 12.3945 21.2691 13.3393 20.9041 14.2206C20.5391 15.1018 20.0031 15.9019 19.3269 16.5746C18.5719 17.3253 17.9734 18.2183 17.566 19.2019C17.1585 20.1855 16.9502 21.2402 16.9531 22.3048V31.5C16.9536 32.1806 17.2154 32.835 17.6844 33.3281H13.8251C13.8898 33.0776 13.8631 32.8121 13.7497 32.5795C13.6362 32.3469 13.4436 32.1624 13.2063 32.0591L11.3281 31.2261V28.3359C12.2892 27.5936 13.0676 26.6412 13.6039 25.5517C14.1401 24.4622 14.4199 23.2644 14.4219 22.05V19.6875C14.4219 19.5756 14.3774 19.4683 14.2983 19.3892C14.2192 19.3101 14.1119 19.2656 14 19.2656H6.125C6.01311 19.2656 5.90581 19.3101 5.82669 19.3892C5.74757 19.4683 5.70312 19.5756 5.70312 19.6875V22.05C5.70499 23.2644 5.98476 24.4624 6.521 25.552C7.05724 26.6417 7.83574 27.5941 8.79688 28.3365V31.2266L6.92037 32.0625C6.68314 32.1657 6.4905 32.3501 6.37708 32.5826C6.26366 32.8151 6.23691 33.0805 6.30163 33.3309H2.46875C2.13309 33.3309 1.81117 33.4643 1.57382 33.7016C1.33647 33.939 1.20313 34.2609 1.20312 34.5966C1.20313 34.9322 1.33647 35.2541 1.57382 35.4915C1.81117 35.7288 2.13309 35.8622 2.46875 35.8622H34.5312C34.8669 35.8622 35.1888 35.7288 35.4262 35.4915C35.6635 35.2541 35.7969 34.9322 35.7969 34.5966C35.7969 34.2609 35.6635 33.939 35.4262 33.7016C35.1888 33.4643 34.8669 33.3309 34.5312 33.3309V33.3281ZM21.7344 1.6875C21.7347 1.50111 21.8088 1.32244 21.9406 1.19064C22.0724 1.05885 22.2511 0.984672 22.4375 0.984375H25.8125C25.9989 0.984672 26.1776 1.05885 26.3094 1.19064C26.4412 1.32244 26.5153 1.50111 26.5156 1.6875V4.64062H21.7344V1.6875ZM21.7344 5.48438H26.5156V6.1875C26.5153 6.37389 26.4412 6.55256 26.3094 6.68436C26.1776 6.81615 25.9989 6.89033 25.8125 6.89062H22.4375C22.2511 6.89033 22.0724 6.81615 21.9406 6.68436C21.8088 6.55256 21.7347 6.37389 21.7344 6.1875V5.48438ZM26.3795 14.0243L24.125 16.2782L21.8705 14.0243C22.1515 13.1926 22.2955 12.3208 22.2969 11.4429V7.72031C22.3441 7.72425 22.3891 7.73438 22.4375 7.73438H25.8125C25.8609 7.73438 25.9059 7.72425 25.9531 7.72031V11.4429C25.9545 12.3208 26.0985 13.1926 26.3795 14.0243ZM19.9231 17.1731C20.5879 16.5062 21.1312 15.7284 21.5285 14.8748L23.8269 17.1731C23.866 17.2124 23.9124 17.2435 23.9636 17.2648C24.0147 17.286 24.0696 17.297 24.125 17.297C24.1804 17.297 24.2353 17.286 24.2864 17.2648C24.3376 17.2435 24.384 17.2124 24.4231 17.1731L26.7215 14.8748C27.1188 15.7284 27.6621 16.5062 28.3269 17.1731C28.4923 17.3391 28.6481 17.5106 28.796 17.6906C28.2091 17.7899 27.6339 17.9496 27.0798 18.1671C26.1416 18.545 25.1362 18.7274 24.125 18.7031C23.1138 18.7274 22.1084 18.545 21.1702 18.1671C20.6168 17.9497 20.0424 17.7901 19.4563 17.6906C19.6019 17.5118 19.7577 17.3391 19.9231 17.1731ZM17.7969 22.3071C17.7958 20.9499 18.1777 19.62 18.8988 18.4702C19.5795 18.5413 20.2472 18.7062 20.8827 18.9602C21.9129 19.3722 23.0158 19.5718 24.125 19.5469C25.2342 19.5718 26.3371 19.3722 27.3673 18.9602C28.0028 18.7062 28.6705 18.5413 29.3512 18.4702C30.0723 19.62 30.4542 20.9499 30.4531 22.3071V24.8906H17.7969V22.3071ZM17.7969 25.7344H30.4531V29.9531H17.7969V25.7344ZM17.7969 31.5V30.7969H30.4531V31.5C30.4525 31.9847 30.2597 32.4493 29.917 32.792C29.5743 33.1347 29.1097 33.3275 28.625 33.3281H19.625C19.1403 33.3275 18.6757 33.1347 18.333 32.792C17.9903 32.4493 17.7975 31.9847 17.7969 31.5ZM6.54688 20.1094H13.5781V20.9728C13.0005 21.0179 12.4354 21.1651 11.9092 21.4076C11.3324 21.6796 10.7 21.8129 10.0625 21.7969C9.425 21.8129 8.79259 21.6796 8.21581 21.4076C7.6896 21.1651 7.12453 21.0179 6.54688 20.9728V20.1094ZM6.54688 22.0494V21.8205C7.01178 21.8649 7.46568 21.9883 7.889 22.1856C8.56939 22.5008 9.3128 22.6565 10.0625 22.6406C10.8122 22.6565 11.5556 22.5008 12.236 22.1856C12.6593 21.9883 13.1132 21.8649 13.5781 21.8205V22.05C13.5755 23.1461 13.3193 24.2267 12.8298 25.2074C12.3402 26.1881 11.6305 27.0422 10.7561 27.7031H9.36894C8.49451 27.0422 7.78478 26.1881 7.29522 25.2074C6.80566 24.2267 6.54954 23.1455 6.54688 22.0494ZM7.10938 33.0682C7.10941 33.018 7.12397 32.9687 7.15132 32.9265C7.17866 32.8843 7.21762 32.8509 7.2635 32.8303L9.39031 31.8859C9.46481 31.8526 9.52808 31.7984 9.5725 31.7299C9.61691 31.6615 9.64057 31.5816 9.64062 31.5V28.5469H10.4844V31.5C10.4844 31.5816 10.5081 31.6615 10.5525 31.7299C10.5969 31.7984 10.6602 31.8526 10.7347 31.8859L12.8609 32.8298C12.9154 32.854 12.9599 32.8962 12.987 32.9493C13.0141 33.0024 13.0222 33.0631 13.0099 33.1215C12.9976 33.1798 12.9656 33.2321 12.9194 33.2697C12.8731 33.3074 12.8154 33.328 12.7557 33.3281H7.36925C7.33512 33.3281 7.30133 33.3214 7.2698 33.3083C7.23827 33.2953 7.20962 33.2761 7.18549 33.252C7.16136 33.2279 7.14222 33.1992 7.12916 33.1677C7.1161 33.1362 7.10938 33.1024 7.10938 33.0682ZM34.5312 35.0156H2.46875C2.35686 35.0156 2.24956 34.9712 2.17044 34.8921C2.09132 34.8129 2.04688 34.7056 2.04688 34.5938C2.04688 34.4819 2.09132 34.3746 2.17044 34.2954C2.24956 34.2163 2.35686 34.1719 2.46875 34.1719H34.5312C34.6431 34.1719 34.7504 34.2163 34.8296 34.2954C34.9087 34.3746 34.9531 34.4819 34.9531 34.5938C34.9531 34.7056 34.9087 34.8129 34.8296 34.8921C34.7504 34.9712 34.6431 35.0156 34.5312 35.0156Z" fill="#F07E59"/>
</svg>
