<svg width="37" height="36" viewBox="0 0 37 36" fill="none" xmlns="http://www.w3.org/2000/svg">
<path d="M17.4831 27.3511H17.0166L17.2416 26.7158C17.2759 26.6227 17.2913 26.5237 17.287 26.4245C17.2827 26.3254 17.2588 26.2281 17.2166 26.1383C17.1744 26.0485 17.1149 25.9679 17.0413 25.9013C16.9678 25.8346 16.8818 25.7833 16.7882 25.7501C16.6947 25.717 16.5955 25.7027 16.4964 25.7082C16.3974 25.7136 16.3003 25.7387 16.211 25.7819C16.1217 25.8251 16.0418 25.8857 15.9761 25.96C15.9103 26.0343 15.8599 26.1209 15.8279 26.2148L15.2481 27.8506C15.2081 27.9637 15.1957 28.0847 15.2121 28.2036C15.2285 28.3225 15.2732 28.4357 15.3424 28.5337C15.4116 28.6317 15.5034 28.7117 15.6099 28.7669C15.7164 28.8221 15.8347 28.851 15.9546 28.8511H16.3971L16.0971 29.6491C16.0611 29.7414 16.0436 29.84 16.0459 29.9391C16.0481 30.0382 16.07 30.1359 16.1102 30.2265C16.1504 30.3171 16.2082 30.3988 16.2803 30.467C16.3523 30.5351 16.4371 30.5883 16.5298 30.6234C16.6225 30.6586 16.7212 30.675 16.8203 30.6717C16.9194 30.6685 17.0169 30.6456 17.107 30.6044C17.1972 30.5633 17.2784 30.5047 17.3458 30.4319C17.4131 30.3592 17.4655 30.2739 17.4996 30.1808L18.1866 28.3666C18.2296 28.2531 18.2444 28.1308 18.2297 28.0104C18.215 27.8899 18.1713 27.7748 18.1024 27.6749C18.0334 27.575 17.9412 27.4934 17.8338 27.437C17.7263 27.3806 17.6068 27.3511 17.4854 27.3511H17.4831Z" fill="#F07E59"/>
<path d="M32.4144 11.3454C32.5551 11.3457 32.693 11.3059 32.8119 11.2307L34.0366 10.4627C34.1241 10.4124 34.2005 10.3449 34.2613 10.2644C34.3222 10.1839 34.3661 10.0919 34.3905 9.99396C34.4149 9.89604 34.4193 9.7942 34.4034 9.69454C34.3876 9.59488 34.3518 9.49945 34.2981 9.41396C34.2445 9.32847 34.1742 9.25468 34.0914 9.19701C34.0085 9.13934 33.9149 9.09898 33.8161 9.07835C33.7174 9.05771 33.6154 9.05722 33.5164 9.07691C33.4175 9.0966 33.3235 9.13607 33.2401 9.19294L32.0154 9.96019C31.8775 10.0467 31.7715 10.1757 31.7135 10.3278C31.6554 10.4798 31.6483 10.6466 31.6934 10.803C31.7384 10.9594 31.8331 11.0969 31.9632 11.1948C32.0932 11.2926 32.2516 11.3455 32.4144 11.3454Z" fill="#F07E59"/>
<path d="M34.9661 13.812L33.5216 13.752C33.4225 13.7447 33.323 13.7578 33.2292 13.7904C33.1353 13.8231 33.0491 13.8747 32.976 13.9419C32.9028 14.0092 32.8442 14.0907 32.8038 14.1815C32.7634 14.2722 32.742 14.3703 32.7409 14.4697C32.7368 14.5682 32.7521 14.6665 32.786 14.759C32.8199 14.8515 32.8716 14.9365 32.9384 15.009C33.0051 15.0815 33.0854 15.1401 33.1748 15.1816C33.2642 15.223 33.3609 15.2464 33.4594 15.2505L34.9039 15.3105H34.9354C35.1343 15.3145 35.3267 15.2394 35.4702 15.1017C35.6138 14.9639 35.6967 14.7747 35.7008 14.5758C35.7048 14.3769 35.6297 14.1845 35.492 14.041C35.3542 13.8975 35.1651 13.8145 34.9661 13.8105V13.812Z" fill="#F07E59"/>
<path d="M32.618 17.7281C32.4588 17.6088 32.2588 17.5575 32.0619 17.5857C31.865 17.6138 31.6873 17.719 31.568 17.8781C31.4486 18.0373 31.3974 18.2373 31.4255 18.4342C31.4536 18.6311 31.5588 18.8088 31.718 18.9281L32.8752 19.7981C33.0344 19.9175 33.2344 19.9687 33.4313 19.9406C33.6282 19.9125 33.8059 19.8073 33.9252 19.6481C34.0446 19.489 34.0958 19.289 34.0677 19.0921C34.0396 18.8951 33.9344 18.7175 33.7752 18.5981L32.618 17.7281Z" fill="#F07E59"/>
<path d="M29.069 8.61133C29.1594 8.65045 29.2566 8.67137 29.3551 8.67291C29.4536 8.67444 29.5515 8.65655 29.643 8.62027C29.7346 8.58398 29.8182 8.53001 29.8889 8.46143C29.9596 8.39285 30.0161 8.31101 30.0552 8.22058L30.6305 6.89833C30.6699 6.80797 30.6911 6.71073 30.6929 6.61216C30.6947 6.5136 30.6771 6.41564 30.6411 6.32389C30.605 6.23213 30.5513 6.14837 30.4828 6.07739C30.4144 6.00641 30.3327 5.9496 30.2423 5.91021C30.152 5.87081 30.0547 5.8496 29.9562 5.84778C29.8576 5.84597 29.7597 5.86358 29.6679 5.89962C29.5761 5.93566 29.4924 5.98942 29.4214 6.05784C29.3504 6.12625 29.2936 6.20797 29.2542 6.29833L28.679 7.62508C28.5999 7.80759 28.5966 8.01402 28.6697 8.19897C28.7429 8.38392 28.8865 8.53225 29.069 8.61133Z" fill="#F07E59"/>
<path d="M25.3447 8.19598C25.4554 8.19602 25.5647 8.17158 25.6648 8.1244C25.7649 8.07722 25.8533 8.00848 25.9237 7.9231C25.9941 7.83772 26.0447 7.73782 26.072 7.63056C26.0992 7.5233 26.1024 7.41135 26.0812 7.30273L25.8045 5.88373C25.7664 5.68849 25.6523 5.51639 25.4873 5.40527C25.3223 5.29416 25.12 5.25314 24.9247 5.29123C24.7295 5.32932 24.5574 5.44341 24.4463 5.60839C24.3352 5.77338 24.2942 5.97574 24.3322 6.17098L24.609 7.58998C24.6424 7.76061 24.734 7.91435 24.8682 8.02489C25.0024 8.13543 25.1709 8.19591 25.3447 8.19598Z" fill="#F07E59"/>
<path d="M29.8138 18.321C30.743 17.4736 31.3372 16.3209 31.4883 15.0724C31.6393 13.824 31.3372 12.5628 30.6369 11.5183C29.9366 10.4738 28.8847 9.71531 27.6724 9.38088C26.4602 9.04645 25.1681 9.15827 24.0313 9.696C22.9257 8.59788 21.5466 7.81522 20.0369 7.42902C18.5272 7.04282 16.9417 7.06712 15.4445 7.4994C13.9473 7.93169 12.5929 8.75625 11.5214 9.88774C10.4499 11.0192 9.70027 12.4165 9.3501 13.935C9.15585 13.9193 8.9661 13.9125 8.7786 13.9125C6.81188 13.9322 4.93242 14.7273 3.54866 16.125C2.1649 17.5227 1.38867 19.4101 1.38867 21.3769C1.38867 23.3437 2.1649 25.231 3.54866 26.6287C4.93242 28.0264 6.81188 28.8215 8.7786 28.8413H12.6576C12.8565 28.8413 13.0473 28.7622 13.1879 28.6216C13.3286 28.4809 13.4076 28.2902 13.4076 28.0913C13.4076 27.8923 13.3286 27.7016 13.1879 27.5609C13.0473 27.4203 12.8565 27.3413 12.6576 27.3413H8.92485C8.92485 27.3413 8.81685 27.3413 8.7576 27.3413C7.76491 27.3424 6.78774 27.095 5.91521 26.6216C5.04267 26.1482 4.30255 25.4639 3.76233 24.631C3.22212 23.7982 2.89902 22.8434 2.82249 21.8536C2.74596 20.8639 2.91844 19.8708 3.32421 18.9648C3.72997 18.0588 4.3561 17.2689 5.14549 16.667C5.93488 16.0651 6.86241 15.6704 7.84347 15.5189C8.82453 15.3674 9.8279 15.464 10.7621 15.7998C11.6962 16.1355 12.5315 16.6999 13.1916 17.4413C13.2559 17.5186 13.3351 17.5822 13.4245 17.6283C13.5139 17.6744 13.6116 17.7021 13.7119 17.7097C13.8122 17.7172 13.913 17.7046 14.0083 17.6724C14.1036 17.6402 14.1914 17.5892 14.2666 17.5224C14.3418 17.4555 14.4028 17.3743 14.4459 17.2834C14.489 17.1926 14.5134 17.0939 14.5177 16.9935C14.5219 16.893 14.5059 16.7926 14.4706 16.6985C14.4353 16.6043 14.3814 16.5182 14.3121 16.4453C13.3787 15.398 12.1677 14.6366 10.8193 14.2493C11.2267 12.518 12.2562 10.9969 13.712 9.97526C15.1678 8.95361 16.9483 8.50269 18.7149 8.70827C20.4815 8.91384 22.1109 9.76158 23.2932 11.0902C24.4755 12.4189 25.1282 14.1357 25.1271 15.9143C25.128 16.3583 25.0858 16.8014 25.0011 17.2373C24.8311 18.1279 24.4926 18.9779 24.0036 19.7415C23.9502 19.8243 23.9137 19.9168 23.896 20.0137C23.8784 20.1106 23.88 20.21 23.9008 20.3063C23.9216 20.4026 23.9611 20.4938 24.0172 20.5748C24.0732 20.6558 24.1447 20.725 24.2275 20.7784C24.3947 20.8862 24.5978 20.9232 24.7923 20.8812C24.8886 20.8604 24.9798 20.8208 25.0608 20.7648C25.1418 20.7087 25.211 20.6373 25.2644 20.5545C25.7329 19.8244 26.0884 19.0276 26.3188 18.1913C27.4615 18.3775 28.4921 18.9874 29.2054 19.8994C29.9186 20.8114 30.2621 21.9586 30.1676 23.1125C30.073 24.2664 29.5472 25.3423 28.695 26.126C27.8428 26.9096 26.7266 27.3435 25.5688 27.3413H20.8536C20.6547 27.3413 20.4639 27.4203 20.3233 27.5609C20.1826 27.7016 20.1036 27.8923 20.1036 28.0913C20.1036 28.2902 20.1826 28.4809 20.3233 28.6216C20.4639 28.7622 20.6547 28.8413 20.8536 28.8413H25.5726C26.7917 28.8407 27.9827 28.4758 28.9929 27.7935C30.0032 27.1112 30.7864 26.1426 31.2423 25.0119C31.6981 23.8813 31.8056 22.6402 31.5511 21.4481C31.2966 20.2559 30.6916 19.1669 29.8138 18.321ZM26.5888 16.6883C26.6922 15.6416 26.6027 14.5849 26.3248 13.5705C26.3095 13.5325 26.291 13.4958 26.2693 13.461C26.0022 12.5499 25.588 11.6885 25.0431 10.911C25.6753 10.69 26.3552 10.6427 27.012 10.7738C27.6688 10.905 28.2783 11.2099 28.7772 11.6567C29.276 12.1036 29.6459 12.676 29.8483 13.3144C30.0507 13.9529 30.0782 14.6339 29.9278 15.2865C29.7321 16.1287 29.2482 16.876 28.5598 17.3993C27.9474 17.0589 27.2809 16.8268 26.5896 16.713L26.5888 16.6883Z" fill="#F07E59"/>
<path d="M6.82739 12.0923C7.17764 12.0923 7.52003 11.9884 7.81124 11.7938C8.10246 11.5992 8.32942 11.3226 8.46342 10.999C8.59742 10.6754 8.63245 10.3193 8.56406 9.9758C8.49568 9.63229 8.32695 9.31677 8.07923 9.06916C7.83152 8.82154 7.51593 8.65296 7.17239 8.58472C6.82885 8.51648 6.47278 8.55165 6.14923 8.68579C5.82568 8.81993 5.54918 9.047 5.3547 9.3383C5.16022 9.6296 5.05649 9.97203 5.05664 10.3223C5.05724 10.7917 5.24401 11.2416 5.57598 11.5735C5.90796 11.9053 6.35801 12.0919 6.82739 12.0923ZM6.82739 9.75078C6.94024 9.75078 7.05056 9.78424 7.1444 9.84692C7.23825 9.9096 7.3114 9.9987 7.35462 10.1029C7.39784 10.2072 7.40919 10.3219 7.38723 10.4326C7.36527 10.5433 7.31098 10.645 7.23124 10.7248C7.15149 10.8047 7.04986 10.8591 6.9392 10.8812C6.82853 10.9033 6.7138 10.8921 6.60949 10.8491C6.50519 10.806 6.416 10.7329 6.35319 10.6392C6.29039 10.5454 6.25679 10.4351 6.25664 10.3223C6.25704 10.171 6.3173 10.0261 6.42425 9.91914C6.5312 9.81219 6.67614 9.75193 6.82739 9.75153V9.75078Z" fill="#F07E59"/>
<path d="M31.9465 27.7109C31.5963 27.7109 31.254 27.8148 30.9628 28.0094C30.6716 28.2039 30.4446 28.4805 30.3106 28.8041C30.1765 29.1276 30.1415 29.4837 30.2098 29.8271C30.2781 30.1706 30.4468 30.4862 30.6944 30.7338C30.9421 30.9814 31.2576 31.1501 31.6011 31.2184C31.9446 31.2867 32.3006 31.2517 32.6242 31.1176C32.9477 30.9836 33.2243 30.7567 33.4189 30.4655C33.6134 30.1743 33.7173 29.8319 33.7173 29.4817C33.7167 29.0122 33.5299 28.5622 33.198 28.2302C32.866 27.8983 32.416 27.7115 31.9465 27.7109ZM31.9465 30.0532C31.8335 30.0533 31.7229 30.0199 31.6288 29.9572C31.5347 29.8945 31.4614 29.8053 31.418 29.7009C31.3746 29.5965 31.3632 29.4816 31.3852 29.3707C31.4071 29.2597 31.4615 29.1578 31.5414 29.0778C31.6213 28.9978 31.7231 28.9433 31.834 28.9212C31.9449 28.8991 32.0598 28.9104 32.1643 28.9536C32.2688 28.9969 32.3581 29.0701 32.4209 29.1641C32.4837 29.2581 32.5173 29.3686 32.5173 29.4817C32.5171 29.6331 32.4569 29.7782 32.3499 29.8853C32.243 29.9924 32.0979 30.0528 31.9465 30.0532Z" fill="#F07E59"/>
<path d="M3.92022 29.8238C3.86509 29.7678 3.7986 29.7243 3.72522 29.6963C3.65309 29.6647 3.57521 29.6484 3.49647 29.6484C3.41774 29.6484 3.33986 29.6647 3.26772 29.6963C3.17559 29.7324 3.09402 29.7911 3.03047 29.867C2.96693 29.9429 2.92346 30.0335 2.90406 30.1305C2.88465 30.2276 2.88992 30.328 2.91939 30.4224C2.94886 30.5169 3.00158 30.6025 3.07272 30.6713C3.12639 30.729 3.19332 30.7728 3.26772 30.7988C3.33886 30.8291 3.4154 30.8446 3.49272 30.8445C3.57127 30.8459 3.6493 30.8316 3.72224 30.8024C3.79518 30.7732 3.86154 30.7298 3.91744 30.6746C3.97334 30.6194 4.01764 30.5536 4.04774 30.481C4.07784 30.4084 4.09314 30.3306 4.09272 30.252C4.09314 30.1723 4.07785 30.0933 4.04772 30.0195C4.01871 29.9464 3.97536 29.8799 3.92022 29.8238Z" fill="white"/>
<path d="M14.6152 5.89839C14.6864 5.9284 14.763 5.94371 14.8402 5.94339C14.9199 5.94325 14.9987 5.92727 15.0721 5.89637C15.1455 5.86546 15.212 5.82026 15.2677 5.76338C15.3229 5.70828 15.3665 5.64278 15.3961 5.57068C15.4257 5.49859 15.4407 5.42133 15.4402 5.34338C15.441 5.18379 15.379 5.03028 15.2677 4.91589C15.1831 4.83249 15.0757 4.77593 14.9591 4.75327C14.8425 4.73061 14.7218 4.74287 14.6121 4.78851C14.5024 4.83415 14.4086 4.91114 14.3424 5.00985C14.2763 5.10855 14.2407 5.22457 14.2402 5.34338C14.2411 5.4218 14.2574 5.49928 14.2883 5.57136C14.3192 5.64344 14.364 5.7087 14.4202 5.76338C14.4736 5.82319 14.5405 5.86946 14.6152 5.89839Z" fill="white"/>
</svg>
