<svg width="37" height="36" viewBox="0 0 37 36" fill="none" xmlns="http://www.w3.org/2000/svg">
<path d="M28.7231 21.9083C28.412 21.9083 28.1606 21.6563 28.1606 21.3458V19.6094C28.1606 19.2994 27.9086 19.0469 27.5981 19.0469H22.9023C22.5918 19.0469 22.3398 19.2994 22.3398 19.6094V21.3458C22.3398 21.6563 22.0884 21.9083 21.7773 21.9083C21.4663 21.9083 21.2148 21.6563 21.2148 21.3458V19.6094C21.2148 18.679 21.972 17.9219 22.9023 17.9219H27.5981C28.5285 17.9219 29.2856 18.679 29.2856 19.6094V21.3458C29.2856 21.6563 29.0342 21.9083 28.7231 21.9083Z" fill="#F07E59"/>
<path d="M16.2506 31.6744C16.2343 31.6744 16.2179 31.6744 16.2016 31.6721C8.6585 31.023 2.75 24.5723 2.75 16.9875C2.75 8.86106 9.36106 2.25 17.4875 2.25C25.6139 2.25 32.2306 8.86106 32.2306 16.9875C32.2306 17.7458 32.1749 18.4849 32.0664 19.1835C32.0186 19.4901 31.7379 19.6987 31.4234 19.6526C31.1163 19.6048 30.9065 19.3168 30.9543 19.0097C31.055 18.3679 31.1056 17.6873 31.1056 16.9869C31.1056 9.48094 24.9969 3.37444 17.4875 3.37444C9.97813 3.37444 3.875 9.4815 3.875 16.9875C3.875 23.9934 9.33181 29.9514 16.2984 30.5516C16.6077 30.5781 16.8372 30.8509 16.8103 31.1602C16.7855 31.4533 16.5397 31.6744 16.2506 31.6744Z" fill="#F07E59"/>
<path d="M17.4895 19.2955C16.2194 19.2955 15.1855 18.2622 15.1855 16.9915C15.1855 15.7208 16.2189 14.6875 17.4895 14.6875C18.7602 14.6875 19.7935 15.7208 19.7935 16.9915C19.7935 18.2622 18.7602 19.2955 17.4895 19.2955ZM17.4895 15.8125C16.8393 15.8125 16.3105 16.3413 16.3105 16.9915C16.3105 17.6418 16.8393 18.1705 17.4895 18.1705C18.1398 18.1705 18.6685 17.6418 18.6685 16.9915C18.6685 16.3413 18.1398 15.8125 17.4895 15.8125Z" fill="#F07E59"/>
<path d="M17.4902 15.8102C17.1797 15.8102 16.9277 15.5582 16.9277 15.2477V8.14844C16.9277 7.83794 17.1797 7.58594 17.4902 7.58594C17.8007 7.58594 18.0527 7.83794 18.0527 8.14844V15.2477C18.0527 15.5582 17.8007 15.8102 17.4902 15.8102Z" fill="#F07E59"/>
<path d="M15.7494 17.5547H10.2402C9.92973 17.5547 9.67773 17.3027 9.67773 16.9922C9.67773 16.6817 9.92973 16.4297 10.2402 16.4297H15.7494C16.0599 16.4297 16.3119 16.6817 16.3119 16.9922C16.3119 17.3027 16.0599 17.5547 15.7494 17.5547Z" fill="#F07E59"/>
<path d="M17.4902 5.0625C17.1797 5.0625 16.9277 4.8105 16.9277 4.5V2.8125C16.9277 2.502 17.1797 2.25 17.4902 2.25C17.8007 2.25 18.0527 2.502 18.0527 2.8125V4.5C18.0527 4.8105 17.8007 5.0625 17.4902 5.0625Z" fill="#F07E59"/>
<path d="M8.65805 8.72055C8.51405 8.72055 8.37005 8.66542 8.26036 8.55573L7.0673 7.36267C6.84736 7.14273 6.84736 6.78723 7.0673 6.5673C7.28723 6.34736 7.64273 6.34736 7.86267 6.5673L9.05573 7.76036C9.27567 7.9803 9.27567 8.3358 9.05573 8.55573C8.94605 8.66542 8.80205 8.72055 8.65805 8.72055Z" fill="#F07E59"/>
<path d="M5 17.5547H3.3125C3.002 17.5547 2.75 17.3027 2.75 16.9922C2.75 16.6817 3.002 16.4297 3.3125 16.4297H5C5.3105 16.4297 5.5625 16.6817 5.5625 16.9922C5.5625 17.3027 5.3105 17.5547 5 17.5547Z" fill="#F07E59"/>
<path d="M7.46498 27.576C7.32098 27.576 7.17698 27.5209 7.0673 27.4112C6.84736 27.1913 6.84736 26.8358 7.0673 26.6158L8.26036 25.4228C8.4803 25.2028 8.8358 25.2028 9.05573 25.4228C9.27567 25.6427 9.27567 25.9982 9.05573 26.2181L7.86267 27.4112C7.75298 27.5209 7.60898 27.576 7.46498 27.576Z" fill="#F07E59"/>
<path d="M31.6674 17.5547H29.9805C29.6694 17.5547 29.418 17.3027 29.418 16.9922C29.418 16.6817 29.6694 16.4297 29.9805 16.4297H31.6674C31.9785 16.4297 32.2299 16.6817 32.2299 16.9922C32.2299 17.3027 31.9785 17.5547 31.6674 17.5547Z" fill="#F07E59"/>
<path d="M26.3224 8.72055C26.1784 8.72055 26.0344 8.66542 25.9247 8.55573C25.7048 8.3358 25.7048 7.9803 25.9247 7.76036L27.1178 6.5673C27.3377 6.34736 27.6932 6.34736 27.9132 6.5673C28.1331 6.78723 28.1331 7.14273 27.9132 7.36267L26.7201 8.55573C26.6104 8.66542 26.4664 8.72055 26.3224 8.72055Z" fill="#F07E59"/>
<path d="M32.0002 33.7497H18.5002C18.1897 33.7497 17.9377 33.4977 17.9377 33.1872V27.574H17.2773C16.9668 27.574 16.7148 27.322 16.7148 27.0115V23.0312C16.7148 21.7904 17.724 20.7812 18.9648 20.7812H31.5356C32.7765 20.7812 33.7856 21.7904 33.7856 23.0312V27.0115C33.7856 27.322 33.5342 27.574 33.2231 27.574H32.5627V33.1872C32.5627 33.4977 32.3113 33.7497 32.0002 33.7497ZM19.0627 32.6247H31.4377V27.0115C31.4377 26.701 31.6892 26.449 32.0002 26.449H32.6606V23.0312C32.6606 22.4108 32.156 21.9062 31.5356 21.9062H18.9648C18.3444 21.9062 17.8398 22.4108 17.8398 23.0312V26.449H18.5002C18.8107 26.449 19.0627 26.701 19.0627 27.0115V32.6247Z" fill="#F07E59"/>
<path d="M29.9726 27.5742H20.5254C20.2143 27.5742 19.9629 27.3222 19.9629 27.0117C19.9629 26.7012 20.2143 26.4492 20.5254 26.4492H29.9726C30.2836 26.4492 30.5351 26.7012 30.5351 27.0117C30.5351 27.3222 30.2836 27.5742 29.9726 27.5742Z" fill="#F07E59"/>
<path d="M22.1621 29.6285C21.851 29.6285 21.5996 29.3765 21.5996 29.066V27.0117C21.5996 26.7012 21.851 26.4492 22.1621 26.4492C22.4732 26.4492 22.7246 26.7012 22.7246 27.0117V29.066C22.7246 29.3765 22.4732 29.6285 22.1621 29.6285Z" fill="#F07E59"/>
<path d="M28.3359 29.6285C28.0249 29.6285 27.7734 29.3765 27.7734 29.066V27.0117C27.7734 26.7012 28.0249 26.4492 28.3359 26.4492C28.647 26.4492 28.8984 26.7012 28.8984 27.0117V29.066C28.8984 29.3765 28.647 29.6285 28.3359 29.6285Z" fill="#F07E59"/>
</svg>
