<svg width="45" height="42" viewBox="0 0 45 42" fill="none" xmlns="http://www.w3.org/2000/svg">
<path d="M5.69993 41.8942C6.48959 41.8988 7.27143 41.7376 7.9949 41.4211C8.71837 41.1046 9.36737 40.6398 9.89993 40.0567C10.4349 40.6369 11.0843 41.1 11.8072 41.4167C12.5301 41.7335 13.3107 41.897 14.0999 41.897C14.8891 41.897 15.6698 41.7335 16.3927 41.4167C17.1155 41.1 17.7649 40.6369 18.2999 40.0567C18.8349 40.6369 19.4843 41.1 20.2072 41.4167C20.9301 41.7335 21.7107 41.897 22.4999 41.897C23.2891 41.897 24.0698 41.7335 24.7927 41.4167C25.5155 41.1 26.1649 40.6369 26.6999 40.0567C27.2349 40.6369 27.8843 41.1 28.6072 41.4167C29.3301 41.7335 30.1107 41.897 30.8999 41.897C31.6891 41.897 32.4698 41.7335 33.1927 41.4167C33.9155 41.1 34.5649 40.6369 35.0999 40.0567C35.6324 40.6399 36.2814 41.1048 37.0049 41.4213C37.7284 41.7378 38.5102 41.8989 39.2999 41.8942C40.3299 41.9079 41.343 41.6328 42.2246 41.1C43.1061 40.5672 43.8207 39.7981 44.2874 38.8798C44.3808 38.672 44.3895 38.436 44.3116 38.2219C44.2336 38.0078 44.0752 37.8325 43.8701 37.7333C43.665 37.6342 43.4292 37.619 43.213 37.6909C42.9969 37.7629 42.8172 37.9163 42.7124 38.1186C42.3781 38.7318 41.8848 39.2435 41.2843 39.6001C40.6838 39.9566 39.9983 40.1448 39.2999 40.1448C38.6016 40.1448 37.9161 39.9566 37.3156 39.6001C36.7151 39.2435 36.2217 38.7318 35.8874 38.1186C35.8158 37.9707 35.7039 37.8459 35.5646 37.7586C35.4254 37.6713 35.2643 37.625 35.0999 37.625C34.9356 37.625 34.7745 37.6713 34.6352 37.7586C34.4959 37.8459 34.3841 37.9707 34.3124 38.1186C33.9779 38.7315 33.4845 39.243 32.884 39.5994C32.2836 39.9558 31.5982 40.1438 30.8999 40.1438C30.2017 40.1438 29.5163 39.9558 28.9158 39.5994C28.3153 39.243 27.8219 38.7315 27.4874 38.1186C27.4158 37.9707 27.3039 37.8459 27.1646 37.7586C27.0254 37.6713 26.8643 37.625 26.6999 37.625C26.5356 37.625 26.3745 37.6713 26.2352 37.7586C26.096 37.8459 25.9841 37.9707 25.9124 38.1186C25.5783 38.732 25.085 39.244 24.4845 39.6007C23.884 39.9575 23.1984 40.1457 22.4999 40.1457C21.8014 40.1457 21.1159 39.9575 20.5153 39.6007C19.9148 39.244 19.4215 38.732 19.0874 38.1186C19.0158 37.9707 18.9039 37.8459 18.7646 37.7586C18.6254 37.6713 18.4643 37.625 18.2999 37.625C18.1356 37.625 17.9745 37.6713 17.8352 37.7586C17.6959 37.8459 17.5841 37.9707 17.5124 38.1186C17.1779 38.7315 16.6845 39.243 16.084 39.5994C15.4836 39.9558 14.7982 40.1438 14.0999 40.1438C13.4017 40.1438 12.7163 39.9558 12.1158 39.5994C11.5153 39.243 11.0219 38.7315 10.6874 38.1186C10.6158 37.9707 10.5039 37.8459 10.3646 37.7586C10.2254 37.6713 10.0643 37.625 9.89993 37.625C9.73555 37.625 9.5745 37.6713 9.43523 37.7586C9.29595 37.8459 9.18408 37.9707 9.11243 38.1186C8.78887 38.7407 8.29792 39.26 7.69495 39.6179C7.09198 39.9758 6.40099 40.1581 5.69993 40.1442C4.99887 40.1581 4.30788 39.9758 3.70491 39.6179C3.10194 39.26 2.61098 38.7407 2.28743 38.1186C2.1826 37.9163 2.003 37.7629 1.78681 37.6909C1.57062 37.619 1.3349 37.6342 1.12976 37.7333C0.924615 37.8325 0.76624 38.0078 0.688306 38.2219C0.610372 38.436 0.619026 38.672 0.712428 38.8798C1.17912 39.7981 1.89375 40.5672 2.77528 41.1C3.65681 41.6328 4.66999 41.9079 5.69993 41.8942Z" fill="white"/>
<path d="M31.9605 34.6167C31.9102 34.7202 31.8807 34.8325 31.8738 34.9473C31.8668 35.0621 31.8826 35.1771 31.9201 35.2858C31.996 35.5054 32.1559 35.6859 32.3647 35.7875C32.5736 35.8891 32.8143 35.9037 33.0338 35.8278C33.2534 35.752 33.4338 35.5921 33.5355 35.3833L39.7917 22.5496C39.9684 22.1891 40.0601 21.7929 40.0596 21.3915C40.0592 20.99 39.9667 20.594 39.7892 20.2339C39.6117 19.8738 39.354 19.5592 39.0359 19.3143C38.7178 19.0694 38.3478 18.9007 37.9542 18.8213L34.75 18.1807V7.875C34.75 7.17881 34.4734 6.51113 33.9811 6.01884C33.4889 5.52656 32.8212 5.25 32.125 5.25H26V0.875C26 0.642936 25.9078 0.420376 25.7437 0.256282C25.5796 0.0921874 25.3571 0 25.125 0H19.875C19.6429 0 19.4204 0.0921874 19.2563 0.256282C19.0922 0.420376 19 0.642936 19 0.875V5.25H12.875C12.1788 5.25 11.5111 5.52656 11.0188 6.01884C10.5266 6.51113 10.25 7.17881 10.25 7.875V18.1877L7.05887 18.8213C6.66478 18.8995 6.29391 19.0672 5.97483 19.3113C5.65575 19.5555 5.39698 19.8696 5.21845 20.2296C5.03992 20.5895 4.94639 20.9856 4.94508 21.3874C4.94376 21.7892 5.03469 22.1859 5.21087 22.547L11.4671 35.3833C11.5688 35.5921 11.7492 35.752 11.9688 35.8278C12.1883 35.9037 12.429 35.8891 12.6379 35.7875C12.8467 35.6859 13.0066 35.5054 13.0825 35.2858C13.1583 35.0663 13.1438 34.8256 13.0421 34.6167L6.78324 21.7779C6.72412 21.6589 6.69336 21.5279 6.69336 21.3951C6.69336 21.2622 6.72412 21.1312 6.78324 21.0122C6.84258 20.8906 6.92934 20.7844 7.03668 20.7019C7.14402 20.6195 7.26903 20.5631 7.40187 20.5371L21.6644 17.7091C22.2652 17.584 22.8853 17.584 23.4861 17.7091L37.606 20.5354C37.7376 20.5621 37.8614 20.6188 37.9676 20.701C38.0738 20.7833 38.1597 20.8889 38.2185 21.0096C38.2779 21.1293 38.3087 21.261 38.3087 21.3946C38.3087 21.5282 38.2779 21.66 38.2185 21.7796L31.9605 34.6167ZM20.75 1.75H24.25V5.25H20.75V1.75ZM21.3152 15.9941L12 17.8412V7.875C12 7.64294 12.0922 7.42038 12.2563 7.25628C12.4204 7.09219 12.6429 7 12.875 7H32.125C32.3571 7 32.5796 7.09219 32.7437 7.25628C32.9078 7.42038 33 7.64294 33 7.875V17.8307L23.8326 15.9932C23.0023 15.8207 22.1454 15.821 21.3152 15.9941Z" fill="white"/>
<path d="M27.75 8.75H17.25C17.0179 8.75 16.7954 8.84219 16.6313 9.00628C16.4672 9.17038 16.375 9.39294 16.375 9.625V14.3675C16.375 14.5996 16.4672 14.8221 16.6313 14.9862C16.7954 15.1503 17.0179 15.2425 17.25 15.2425C17.4821 15.2425 17.7046 15.1503 17.8687 14.9862C18.0328 14.8221 18.125 14.5996 18.125 14.3675V10.5H26.875V14.3544C26.875 14.5864 26.9672 14.809 27.1313 14.9731C27.2954 15.1372 27.5179 15.2294 27.75 15.2294C27.9821 15.2294 28.2046 15.1372 28.3687 14.9731C28.5328 14.809 28.625 14.5864 28.625 14.3544V9.625C28.625 9.39294 28.5328 9.17038 28.3687 9.00628C28.2046 8.84219 27.9821 8.75 27.75 8.75Z" fill="white"/>
</svg>
