<svg width="47" height="40" viewBox="0 0 47 40" fill="none" xmlns="http://www.w3.org/2000/svg">
<path d="M43.988 20.8227V6.356C43.988 4.48 42.4667 2.95867 40.5907 2.95867H36.0267C35.364 2.95867 34.7667 2.79067 34.2907 2.48267C31.9107 0.924 27.8133 0 23.3333 0C18.8533 0 14.756 0.924 12.376 2.48267C11.9 2.79067 11.3027 2.95867 10.64 2.95867H6.08533C4.20933 2.95867 2.688 4.48 2.688 6.356V20.8227C1.13867 21.2427 0 22.6333 0 24.304V38.7333C0 39.2467 0.42 39.6667 0.933333 39.6667H5.84267C6.356 39.6667 6.776 39.2467 6.776 38.7333V34.7573H39.8907V38.7333C39.8907 39.2467 40.3107 39.6667 40.824 39.6667H45.7333C46.2467 39.6667 46.6667 39.2467 46.6667 38.7333V24.304C46.6667 22.6333 45.528 21.2427 43.988 20.8227ZM4.54533 6.356C4.54533 5.50667 5.236 4.82533 6.076 4.82533H10.6307C11.6573 4.82533 12.6093 4.55467 13.3933 4.05067C15.4467 2.70667 19.2547 1.876 23.3333 1.876C27.4027 1.876 31.2107 2.70667 33.2733 4.05067C34.048 4.55467 35.0093 4.82533 36.036 4.82533H40.5907C41.44 4.82533 42.1213 5.516 42.1213 6.356V20.692H40.124V19.3573C40.124 17.7427 38.9947 16.324 37.4547 15.988C34.5147 15.3533 31.528 15.3533 28.588 15.988C27.0387 16.324 25.9093 17.7427 25.9093 19.3573V20.692H20.7573V19.3573C20.7573 17.7427 19.628 16.324 18.0787 15.988C15.1387 15.3533 12.152 15.3533 9.212 15.988C7.66267 16.324 6.54267 17.7427 6.54267 19.3573V20.692H4.54533V6.356ZM27.776 20.692V19.3573C27.776 18.6107 28.28 17.9667 28.98 17.8173C31.6587 17.2387 34.384 17.2387 37.0627 17.8173C37.7627 17.9667 38.2667 18.62 38.2667 19.3573V20.692H27.776ZM8.40933 20.692V19.3573C8.40933 18.6107 8.91333 17.9667 9.61333 17.8173C12.292 17.2387 15.0173 17.2387 17.696 17.8173C18.396 17.9667 18.9 18.62 18.9 19.3573V20.692H8.40933ZM1.86667 24.304C1.86667 23.3427 2.65067 22.5587 3.612 22.5587H43.0267C43.988 22.5587 44.772 23.3427 44.772 24.304V28.224H1.86667V24.304ZM44.8 37.8H41.7573V33.824C41.7573 33.3107 41.3373 32.8907 40.824 32.8907H5.84267C5.32933 32.8907 4.90933 33.3107 4.90933 33.824V37.8H1.86667V30.0907H44.8V37.8Z" fill="white"/>
</svg>
