<svg width="43" height="42" viewBox="0 0 43 42" fill="none" xmlns="http://www.w3.org/2000/svg">
<path d="M0.598783 31.1273C0.974228 31.3906 1.45409 31.4547 1.88529 31.2991L17.6002 25.6423L17.6011 34.1666L13.8815 37.2659C13.5611 37.5334 13.3758 37.9294 13.3762 38.3468V40.5907C13.3762 41.0358 13.5866 41.4547 13.9434 41.7203C14.3004 41.9861 14.7622 42.0674 15.1886 41.9397L21.1203 40.1595L27.052 41.9397C27.1845 41.9797 27.3221 42 27.4603 42C28.2364 41.9965 28.8638 41.3667 28.8645 40.5907V38.3468C28.8645 37.9288 28.6788 37.5321 28.3575 37.2646L24.6405 34.1669V25.6423L40.3547 31.2991C40.7862 31.4551 41.2664 31.3906 41.6418 31.1273C42.0173 30.8637 42.2406 30.4335 42.2406 29.9749V26.4338C42.2419 25.9536 41.997 25.506 41.5916 25.2485L24.6405 14.3997V3.52053C24.6408 2.5273 24.2215 1.57983 23.4858 0.912733C22.75 0.245316 21.7665 -0.0801752 20.7781 0.0168275C18.9498 0.237903 17.5808 1.79929 17.6002 3.64073V14.3997L0.649058 25.2475C0.243641 25.5057 -0.00128402 25.9533 5.06338e-06 26.4338V29.9749C0.000327334 30.4335 0.223661 30.8634 0.598783 31.1273ZM1.408 26.4338L18.6839 15.3771C18.886 15.2479 19.0082 15.0245 19.0082 14.7844V3.64073C18.9843 2.52343 19.8035 1.56662 20.9112 1.41805C21.5051 1.35875 22.0961 1.55372 22.5383 1.9543C22.9805 2.35488 23.2328 2.92369 23.2325 3.52053V14.7844C23.2325 15.0245 23.3546 15.2479 23.5567 15.3771L40.8326 26.4338V29.9749L24.1748 23.9788C23.9592 23.9008 23.7191 23.933 23.5315 24.0645C23.344 24.1963 23.2322 24.4112 23.2325 24.6407V34.1666C23.2322 34.5846 23.4181 34.9813 23.7391 35.2488L27.4565 38.3464V40.5904L21.5225 38.8102C21.2592 38.7319 20.9792 38.7322 20.7162 38.8108L14.7842 40.5907L14.7835 38.3468L18.5028 35.2475C18.8235 34.98 19.0085 34.584 19.0082 34.1666V24.6407C19.0085 24.4112 18.8966 24.1963 18.7091 24.0645C18.5215 23.933 18.2814 23.9008 18.0658 23.9788L1.408 29.9749V26.4338Z" fill="white"/>
</svg>
