<svg width="58" height="49" viewBox="0 0 58 49" fill="none" xmlns="http://www.w3.org/2000/svg">
<path d="M47.0376 10.9594H10.9629V46.8101H47.0376V10.9594Z" stroke="#343636" stroke-width="4" stroke-miterlimit="10" stroke-linecap="round" stroke-linejoin="round"/>
<path d="M34.6019 2.00022H23.3986C21.5424 2.00022 20.0376 3.50505 20.0376 5.36122V10.9629H37.9629V5.36122C37.9629 3.50505 36.4581 2.00022 34.6019 2.00022Z" stroke="#343636" stroke-width="4" stroke-miterlimit="10" stroke-linecap="round" stroke-linejoin="round"/>
<path d="M10.9627 10.953H6.48133C4.0064 10.953 2 12.9593 2 15.4344V42.3224C2 44.7974 4.0064 46.8037 6.48133 46.8037H10.9627V10.953Z" stroke="#343636" stroke-width="4" stroke-miterlimit="10" stroke-linecap="round" stroke-linejoin="round"/>
<path d="M51.5184 10.953H47.0371V46.8037H51.5184C53.9935 46.8037 55.9998 44.7974 55.9998 42.3224V15.4344C55.9998 12.9593 53.9935 10.953 51.5184 10.953Z" stroke="#343636" stroke-width="4" stroke-miterlimit="10" stroke-linecap="round" stroke-linejoin="round"/>
<path d="M31.7203 31.1219L23.9585 35.6033L17.7966 24.9306L19.9971 19.7793L25.5585 20.4493L31.7203 31.1219Z" stroke="#343636" stroke-width="4" stroke-miterlimit="10" stroke-linecap="round" stroke-linejoin="round"/>
<path d="M19.9976 19.7788C19.9976 19.7788 15.5565 15.4367 20.0378 10.9554" stroke="#343636" stroke-width="4" stroke-miterlimit="10" stroke-linecap="round" stroke-linejoin="round"/>
<path d="M40.2034 21.0472C40.2034 22.9034 38.6986 24.4082 36.8424 24.4082C34.9863 24.4082 33.4814 22.9034 33.4814 21.0472C33.4814 19.191 34.9863 17.6862 36.8424 17.6862C38.6986 17.6862 40.2034 19.191 40.2034 21.0472Z" stroke="#343636" stroke-width="4" stroke-miterlimit="10" stroke-linecap="round" stroke-linejoin="round"/>
</svg>
