<svg width="20" height="21" viewBox="0 0 20 21" fill="none" xmlns="http://www.w3.org/2000/svg">
<path d="M8.125 10.5C8.125 11.5338 8.96625 12.375 10 12.375C11.0338 12.375 11.875 11.5338 11.875 10.5C11.875 9.46625 11.0338 8.625 10 8.625C8.96625 8.625 8.125 9.46625 8.125 10.5Z" fill="black"/>
<path d="M8.125 16.75C8.125 17.7838 8.96625 18.625 10 18.625C11.0338 18.625 11.875 17.7838 11.875 16.75C11.875 15.7162 11.0338 14.875 10 14.875C8.96625 14.875 8.125 15.7162 8.125 16.75Z" fill="black"/>
<path d="M8.125 4.25C8.125 5.28375 8.96625 6.125 10 6.125C11.0338 6.125 11.875 5.28375 11.875 4.25C11.875 3.21625 11.0338 2.375 10 2.375C8.96625 2.375 8.125 3.21625 8.125 4.25Z" fill="black"/>
</svg>
