<svg width="44" height="45" viewBox="0 0 44 45" fill="none" xmlns="http://www.w3.org/2000/svg">
<circle cx="22" cy="22.0352" r="22" fill="#A850B2" fill-opacity="0.15"/>
<g clip-path="url(#clip0_1394_15898)">
<path d="M26.2812 20.4102H25.75V18.2852C25.75 15.9412 23.8439 14.0352 21.5 14.0352C19.1561 14.0352 17.25 15.9412 17.25 18.2852V20.4102H16.7188C15.8404 20.4102 15.125 21.1248 15.125 22.0039V29.4414C15.125 30.3205 15.8404 31.0352 16.7188 31.0352H26.2812C27.1596 31.0352 27.875 30.3205 27.875 29.4414V22.0039C27.875 21.1248 27.1596 20.4102 26.2812 20.4102ZM18.6667 18.2852C18.6667 16.7225 19.9374 15.4519 21.5 15.4519C23.0626 15.4519 24.3333 16.7225 24.3333 18.2852V20.4102H18.6667V18.2852Z" fill="#A850B2"/>
</g>
<defs>
<clipPath id="clip0_1394_15898">
<rect width="17" height="17" fill="white" transform="translate(13 14.0352)"/>
</clipPath>
</defs>
</svg>
