<svg width="73" height="72" viewBox="0 0 73 72" fill="none" xmlns="http://www.w3.org/2000/svg">
<path opacity="0.774926" fill-rule="evenodd" clip-rule="evenodd" d="M51.2545 21.6528L51.2744 21.6528C51.3988 21.7302 51.5457 21.775 51.703 21.775C51.8457 21.775 51.9798 21.7382 52.0963 21.6735C56.1821 21.8767 59.5647 23.5603 62.3084 26.2642C63.3388 27.2797 64.203 28.3691 64.9053 29.4572C65.1501 29.8364 65.3567 30.1873 65.5258 30.5004C65.6247 30.6836 65.6878 30.8103 65.7157 30.8708C66.7614 33.1758 67.893 34.7851 69.137 35.6539C67.893 36.5227 66.7613 38.132 65.7156 40.4371C65.6877 40.4976 65.6246 40.6242 65.5257 40.8075C65.3566 41.1206 65.15 41.4715 64.9052 41.8507C64.2029 42.9387 63.3387 44.0282 62.3083 45.0437C59.3784 47.9311 55.7198 49.6551 51.2544 49.6551C51.1739 49.6551 51.0961 49.6668 51.0226 49.6886C50.6742 49.7801 50.4173 50.0971 50.4173 50.4741C50.4173 54.9394 48.6933 58.5981 45.8059 61.528C44.7904 62.5584 43.7009 63.4225 42.6129 64.1249C42.2337 64.3697 41.8828 64.5763 41.5697 64.7454C41.3864 64.8443 41.2598 64.9074 41.1992 64.9353C39.0019 65.9322 37.4367 67.0071 36.5426 68.1831C35.6486 67.0071 34.0834 65.9322 31.886 64.9353C31.8255 64.9074 31.6988 64.8443 31.5156 64.7454C31.2025 64.5763 30.8516 64.3697 30.4724 64.1249C29.3843 63.4225 28.2949 62.5584 27.2794 61.528C24.392 58.5981 22.668 54.9394 22.668 50.4741C22.668 50.0257 22.3044 49.6621 21.856 49.6621C21.8542 49.6621 21.8524 49.6621 21.8506 49.6621C21.8162 49.6577 21.7811 49.6554 21.7455 49.6554C17.2801 49.6554 13.6215 47.9314 10.6916 45.044C9.66115 44.0285 8.79702 42.939 8.09464 41.851C7.84986 41.4718 7.64328 41.1209 7.47419 40.8078C7.37523 40.6245 7.31217 40.4979 7.28428 40.4374C6.28753 38.2403 5.21273 36.6752 4.03693 35.7811C5.21273 34.887 6.28753 33.3219 7.28428 31.1249C7.31217 31.0643 7.37523 30.9377 7.47419 30.7544C7.64328 30.4414 7.84986 30.0905 8.09464 29.7113C8.79702 28.6232 9.66115 27.5338 10.6916 26.5183C13.6215 23.6308 17.2801 21.9069 21.7455 21.9069C21.9156 21.9069 22.0735 21.8546 22.2039 21.7651C22.5921 21.7042 22.889 21.3683 22.889 20.963C22.889 16.4977 24.613 12.839 27.5004 9.90912C28.516 8.87868 29.6054 8.01455 30.6935 7.31217C31.0726 7.06739 31.4235 6.86081 31.7366 6.69173C31.9199 6.59276 32.0465 6.52971 32.1071 6.50181C34.4119 5.45618 36.0212 4.32464 36.89 3.08072C37.7588 4.32464 39.3681 5.45617 41.673 6.5018C41.7335 6.5297 41.8601 6.59276 42.0434 6.69172C42.3565 6.86081 42.7074 7.06739 43.0866 7.31216C44.1746 8.01455 45.2641 8.87868 46.2796 9.90912C48.9843 12.6537 50.6682 16.0377 50.8704 20.1252C50.6157 20.2622 50.4425 20.5313 50.4425 20.8408C50.4425 21.2892 50.8061 21.6528 51.2545 21.6528ZM21.2771 20.2887C21.4435 15.6665 23.3207 11.8367 26.3437 8.76919C27.4479 7.64875 28.6296 6.71144 29.8127 5.94775C30.528 5.48599 31.0913 5.1818 31.4317 5.02491C34.5489 3.61069 36.0217 2.17112 36.0217 0.812006C36.0217 0.363549 36.3852 3.44831e-06 36.8337 3.44831e-06C36.8526 3.44831e-06 36.8714 0.000650525 36.89 0.00192375C36.9086 0.000648245 36.9274 0 36.9463 0C37.3948 0 37.7583 0.363546 37.7583 0.812002C37.7583 2.17112 39.2311 3.61069 42.3484 5.02491C42.6887 5.18179 43.252 5.48598 43.9673 5.94775C45.1504 6.71143 46.3321 7.64875 47.4363 8.76918C50.4115 11.7882 52.2769 15.5456 52.4937 20.0699C56.8639 20.3631 60.5066 22.2084 63.4483 25.1075C64.5688 26.2117 65.5061 27.3934 66.2698 28.5764C66.7315 29.2917 67.0357 29.855 67.1926 30.1954C68.6068 33.3127 70.0464 34.7854 71.4055 34.7854C71.854 34.7854 72.2175 35.149 72.2175 35.5974C72.2175 35.6083 72.2173 35.6192 72.2169 35.6299C72.2165 35.6382 72.2161 35.6464 72.2155 35.6546C72.2168 35.673 72.2174 35.6916 72.2174 35.7104C72.2174 36.1589 71.8539 36.5224 71.4054 36.5224C70.0463 36.5224 68.6067 37.9952 67.1925 41.1124C67.0356 41.4528 66.7314 42.0161 66.2697 42.7314C65.506 43.9145 64.5687 45.0962 63.4482 46.2004C60.402 49.2025 56.6039 51.0746 52.0247 51.2633C51.8316 55.834 49.9605 59.6258 46.9626 62.6679C45.8584 63.7883 44.6767 64.7257 43.4936 65.4893C42.7783 65.9511 42.215 66.2553 41.8746 66.4122C39.2062 67.6228 37.7428 68.852 37.3767 70.0333C37.4086 70.228 37.4247 70.4252 37.4247 70.6251C37.4247 71.0735 37.0611 71.4371 36.6126 71.4371C36.5891 71.4371 36.5657 71.4361 36.5426 71.4341C36.5195 71.4361 36.4962 71.4371 36.4726 71.4371C36.0241 71.4371 35.6606 71.0735 35.6606 70.6251C35.6606 70.4252 35.6766 70.228 35.7085 70.0333C35.3425 68.852 33.8791 67.6228 31.2106 66.4122C30.8702 66.2553 30.307 65.9511 29.5916 65.4893C28.4086 64.7257 27.2269 63.7883 26.1227 62.6679C23.1255 59.6266 21.2546 55.8361 21.0607 51.2669C16.4432 51.0981 12.6169 49.2215 9.55165 46.2007C8.43122 45.0965 7.4939 43.9148 6.73022 42.7317C6.26845 42.0164 5.96426 41.4531 5.80738 41.1127C4.59732 38.4455 3.36871 36.9822 2.18781 36.6153C1.99266 36.6474 1.79491 36.6635 1.59447 36.6635C1.14602 36.6635 0.782471 36.3 0.782471 35.8515C0.782471 35.8278 0.783487 35.8043 0.78548 35.7811C0.783487 35.7579 0.782471 35.7344 0.782471 35.7107C0.782471 35.2623 1.14602 34.8987 1.59447 34.8987C1.79491 34.8987 1.99266 34.9148 2.18781 34.9469C3.3687 34.58 4.59732 33.1167 5.80738 30.4495C5.96426 30.1091 6.26845 29.5458 6.73022 28.8305C7.4939 27.6475 8.43122 26.4658 9.55165 25.3616C12.6646 22.2937 16.5627 20.4059 21.2771 20.2887Z" fill="#370B3C"/>
<path opacity="0.452172" fill-rule="evenodd" clip-rule="evenodd" d="M58.8282 36.1117C62.1255 32.6814 63.5659 28.5646 63.598 24.1648C63.6095 22.5917 63.4367 21.0933 63.1401 19.7168C62.9608 18.8845 62.7776 18.2711 62.6479 17.9195C61.4436 14.7152 61.4202 12.6559 62.3812 11.6948C62.6983 11.3777 62.6983 10.8636 62.3812 10.5465C62.3678 10.5331 62.3541 10.5203 62.34 10.508C62.3278 10.494 62.315 10.4803 62.3016 10.4669C61.9845 10.1498 61.4703 10.1498 61.1532 10.4669C60.1922 11.4279 58.1329 11.4045 54.9286 10.2002C54.577 10.0705 53.9636 9.88726 53.1313 9.70796C51.7547 9.41143 50.2564 9.23863 48.6833 9.25011C44.289 9.28218 40.1771 10.719 36.7494 14.0074C33.363 10.8553 29.3268 9.47405 25.0192 9.44261C23.4461 9.43113 21.9478 9.60393 20.5712 9.90046C19.7389 10.0798 19.1255 10.263 18.7739 10.3927C15.5696 11.597 13.5103 11.6204 12.5493 10.6594C12.2322 10.3423 11.718 10.3423 11.4009 10.6594C11.3876 10.6728 11.3747 10.6865 11.3625 10.7006C11.3484 10.7128 11.3347 10.7256 11.3213 10.739C11.0042 11.0561 11.0042 11.5702 11.3213 11.8873C12.2824 12.8484 12.2589 14.9077 11.0546 18.112C10.9249 18.4636 10.7417 19.077 10.5624 19.9093C10.2659 21.2859 10.0931 22.7842 10.1045 24.3573C10.136 28.6694 11.5202 32.7097 14.6794 36.0983C11.6564 39.4433 10.3279 43.406 10.2971 47.6296C10.2856 49.2026 10.4584 50.701 10.7549 52.0775C10.9342 52.9099 11.1174 53.5233 11.2472 53.8749C12.2777 56.6168 12.4435 58.5204 11.8677 59.6148C11.7071 59.7301 11.556 59.8584 11.4144 60.0001C11.0973 60.3172 11.0973 60.8313 11.4144 61.1484L11.4237 61.1575L11.4299 61.1635C11.4418 61.1748 11.4539 61.1856 11.4662 61.196C11.4812 61.2138 11.4971 61.2311 11.5138 61.2478C11.8309 61.5649 12.3451 61.5649 12.6622 61.2478C12.8038 61.1062 12.9322 60.9551 13.0474 60.7945C14.1418 60.2187 16.0454 60.3846 18.7874 61.4151C19.139 61.5448 19.7524 61.728 20.5847 61.9073C21.9612 62.2039 23.4596 62.3767 25.0327 62.3652C29.3368 62.3338 33.37 60.9547 36.7547 57.808C40.1227 60.9018 44.1259 62.2593 48.3958 62.2904C49.9689 62.3019 51.4672 62.1291 52.8438 61.8326C53.6761 61.6533 54.2895 61.4701 54.6411 61.3403C57.3831 60.3098 59.2866 60.144 60.3811 60.7198C60.4963 60.8803 60.6246 61.0314 60.7663 61.1731C61.0834 61.4902 61.5975 61.4902 61.9146 61.1731C61.9314 61.1563 61.9472 61.139 61.9622 61.1212C61.98 61.1063 61.9973 61.0904 62.0141 61.0737C62.3312 60.7565 62.3312 60.2424 62.0141 59.9253C61.8724 59.7837 61.7213 59.6553 61.5607 59.5401C60.9849 58.4457 61.1508 56.5421 62.1813 53.8001C62.3111 53.4485 62.4943 52.8351 62.6735 52.0028C62.9701 50.6262 63.1429 49.1279 63.1314 47.5548C63.1008 43.3683 61.7953 39.4381 58.8282 36.1117ZM48.6952 10.8741C44.5817 10.9041 40.7756 12.2721 37.6182 15.4296C37.4997 15.548 37.3538 15.6222 37.201 15.6522C36.8822 15.9389 36.3911 15.9288 36.0844 15.6221C32.9269 12.4646 29.1208 11.0966 25.0073 11.0666C23.5606 11.056 22.1793 11.2153 20.9132 11.488C20.472 11.5831 20.0778 11.6851 19.7369 11.787C19.5373 11.8466 19.4032 11.8915 19.3406 11.9146C16.9715 12.805 15.0335 13.1428 13.5395 12.8776C13.8048 14.3715 13.4669 16.3096 12.5765 18.6787C12.5535 18.7412 12.5085 18.8754 12.4489 19.0749C12.3471 19.4159 12.245 19.8101 12.15 20.2513C11.8773 21.5173 11.7179 22.8987 11.7285 24.3454C11.7578 28.3599 13.0615 32.0817 16.0593 35.1935C16.2122 35.2234 16.3581 35.2976 16.4765 35.4161C16.7936 35.7332 16.7936 36.2473 16.4765 36.5644C13.3191 39.7219 11.951 43.528 11.921 47.6414C11.9105 49.0881 12.0698 50.4695 12.3425 51.7356C12.4375 52.1768 12.5396 52.571 12.6414 52.9119C12.701 53.1115 12.746 53.2456 12.7691 53.3081C13.6178 55.5666 13.9645 57.4333 13.7653 58.897C15.2289 58.6977 17.0957 59.0444 19.3541 59.8932C19.4166 59.9163 19.5508 59.9612 19.7503 60.0208C20.0913 60.1227 20.4855 60.2247 20.9267 60.3197C22.1927 60.5925 23.5741 60.7518 25.0208 60.7412C29.1343 60.7112 32.9404 59.3432 36.0978 56.1857C36.1233 56.1602 36.15 56.1368 36.1779 56.1154C36.1793 56.1139 36.1808 56.1124 36.1823 56.111C36.4994 55.7938 37.0135 55.7938 37.3306 56.111C40.4881 59.2684 44.2942 60.6364 48.4076 60.6665C49.8544 60.677 51.2357 60.5177 52.5018 60.245C52.943 60.1499 53.3372 60.0479 53.6781 59.9461C53.8777 59.8865 54.0118 59.8415 54.0744 59.8184C56.3328 58.9696 58.1995 58.623 59.6632 58.8222C59.464 57.3585 59.8106 55.4918 60.6594 53.2334C60.6825 53.1708 60.7274 53.0367 60.787 52.8371C60.8889 52.4962 60.9909 52.102 61.086 51.6608C61.3587 50.3947 61.518 49.0134 61.5074 47.5667C61.4774 43.4532 60.1094 39.6471 56.9519 36.4897C56.6348 36.1726 56.6348 35.6584 56.9519 35.3413C57.1149 35.1783 57.3299 35.0991 57.5435 35.1037C60.6121 31.9712 61.9444 28.2117 61.974 24.1529C61.9846 22.7062 61.8253 21.3248 61.5525 20.0588C61.4575 19.6176 61.3554 19.2234 61.2536 18.8824C61.194 18.6829 61.149 18.5487 61.126 18.4862C60.2356 16.1171 59.8978 14.179 60.163 12.6851C58.6691 12.9503 56.731 12.6125 54.3619 11.7221C54.2994 11.699 54.1652 11.6541 53.9656 11.5945C53.6247 11.4926 53.2305 11.3906 52.7893 11.2955C51.5233 11.0228 50.1419 10.8635 48.6952 10.8741Z" fill="#370B3C"/>
<path fill-rule="evenodd" clip-rule="evenodd" d="M51.5329 19.8882C50.9596 20.4531 50.1078 20.6043 47.3029 20.7737C45.0757 20.9081 43.91 21.0974 42.7996 21.6665C41.0308 22.5731 38.8816 24.6625 36.3018 27.9485C34.0667 25.1273 32.1793 23.327 30.5942 22.5362C29.55 22.0152 28.455 21.857 26.3597 21.7687C24.4381 21.6878 23.5029 21.5974 22.9419 21.3549C22.7806 21.0079 22.5669 20.7237 22.2779 20.4347C21.9608 20.1176 21.4467 20.1176 21.1296 20.4347C20.8337 20.7305 20.8139 21.1978 21.07 21.5166C21.0458 21.7514 21.1236 21.9947 21.3035 22.1746C21.3948 22.2659 21.4856 22.3497 21.578 22.4266C21.7338 23.0138 21.806 23.9246 21.872 25.4909C21.9602 27.5862 22.1184 28.6811 22.6394 29.7254C23.4681 31.3863 25.405 33.3791 28.4634 35.756C25.261 38.285 23.2197 40.3969 22.3266 42.1395C21.7575 43.2498 21.5682 44.4156 21.4338 46.6428C21.2645 49.4477 21.1133 50.2995 20.5483 50.8728L20.5379 50.8832C20.2208 51.2003 20.2208 51.7144 20.5379 52.0315C20.855 52.3487 21.3692 52.3487 21.6863 52.0316L21.6967 52.0212C22.27 51.4562 23.1218 51.305 25.9267 51.1357C28.1539 51.0012 29.3196 50.812 30.43 50.2429C32.0875 49.3934 34.079 47.5052 36.4458 44.567C38.7231 47.4584 40.642 49.2992 42.2498 50.1014C43.2941 50.6224 44.389 50.7806 46.4844 50.8688C49.0996 50.979 49.8877 51.1067 50.3922 51.6113C50.7093 51.9284 51.2235 51.9284 51.5406 51.6113C51.5701 51.5817 51.597 51.5504 51.621 51.5177C51.6537 51.4937 51.685 51.4669 51.7145 51.4373C52.0316 51.1202 52.0316 50.6061 51.7145 50.289C51.21 49.7844 51.0822 48.9964 50.9721 46.3811C50.8838 44.2858 50.7256 43.1909 50.2046 42.1466C49.3958 40.5254 47.531 38.5879 44.598 36.2857C47.8973 33.6979 49.9943 31.5428 50.903 29.7699C51.4721 28.6595 51.6614 27.4938 51.7958 25.2665C51.9651 22.4617 52.1163 21.6099 52.6813 21.0366C52.6848 21.0331 52.6882 21.0296 52.6917 21.0262C52.9265 20.7914 52.9874 20.4487 52.8746 20.1579C52.835 20.0558 52.7741 19.9602 52.6917 19.8778M24.0926 29.0004C24.8325 30.4835 26.8161 32.474 30.0279 34.9096C30.21 34.949 30.3795 35.0509 30.5014 35.2105C30.7734 35.567 30.705 36.0766 30.3485 36.3487C26.8045 39.0536 24.6066 41.2515 23.7718 42.8802C23.341 43.7209 23.1757 44.7391 23.0548 46.7407C22.9725 48.1052 22.8952 49.0712 22.7651 49.8044C23.4983 49.6742 24.4643 49.597 25.8288 49.5146C27.8304 49.3938 28.8486 49.2285 29.6892 48.7976C31.1784 48.0344 33.1434 46.1317 35.5367 43.1023C35.5394 42.8597 35.6505 42.6208 35.8592 42.4632C35.9459 42.3977 36.0415 42.3522 36.1405 42.326L36.2208 42.2209C36.4929 41.8645 37.0024 41.796 37.3589 42.0681C37.7154 42.3402 37.7838 42.8498 37.5118 43.2062L37.478 43.2504C39.7266 46.1469 41.5763 47.9505 42.9748 48.6482C43.7422 49.031 44.6884 49.1677 46.5527 49.2463C47.9398 49.3047 48.8893 49.3652 49.5976 49.4943C49.4685 48.786 49.4079 47.8365 49.3495 46.4495C49.271 44.5852 49.1343 43.6389 48.7514 42.8716C48.0046 41.3745 45.9904 39.3603 42.7249 36.8933C42.3671 36.6229 42.2961 36.1137 42.5665 35.7559C42.6823 35.6025 42.8421 35.5019 43.015 35.4582C46.4805 32.8002 48.6336 30.6372 49.4578 29.0291C49.8886 28.1885 50.0539 27.1703 50.1748 25.1687C50.2571 23.8042 50.3343 22.8381 50.4645 22.105C49.7313 22.2351 48.7653 22.3123 47.4008 22.3947C45.3992 22.5156 44.381 22.6809 43.5403 23.1117C41.9672 23.918 39.8629 25.9961 37.2837 29.3306C37.3596 29.6367 37.2524 29.9723 36.9849 30.1744C36.6271 30.4447 36.1179 30.3738 35.8475 30.0159C33.3805 26.7504 31.3663 24.7363 29.8692 23.9894C29.1019 23.6065 28.1557 23.4698 26.2914 23.3913C24.9733 23.3358 24.0503 23.2783 23.354 23.162C23.4152 23.758 23.4554 24.4918 23.4946 25.4225C23.5731 27.2868 23.7098 28.2331 24.0926 29.0004Z" fill="#370B3C"/>
<path d="M52.4231 19.6994C52.1298 19.5805 51.7812 19.6399 51.5433 19.8778C51.5398 19.8812 51.5364 19.8847 51.5329 19.8882" fill="#370B3C"/>
<path d="M52.6917 19.8778C52.6124 19.7986 52.5208 19.7391 52.4231 19.6994L52.6917 19.8778Z" fill="#370B3C"/>
<path fill-rule="evenodd" clip-rule="evenodd" d="M32.5662 22.2266C32.0407 23.7984 32.0358 26.6085 32.5846 30.6016C32.6855 30.7582 32.7333 30.9501 32.7066 31.1492C32.6469 31.5937 32.2382 31.9056 31.7937 31.8459C27.375 31.2526 24.2667 31.2526 22.5248 31.814C21.6257 32.1038 20.7888 32.7069 19.2881 34.0368C18.2649 34.9434 17.5272 35.5719 16.9168 35.9983C17.5272 36.4247 18.2649 37.0532 19.2881 37.9598C20.7888 39.2897 21.6257 39.8928 22.5248 40.1825C24.1173 40.6958 26.852 40.7398 30.686 40.2902C30.8595 40.1208 31.1068 40.0306 31.3656 40.0667C31.4731 40.0816 31.5727 40.117 31.6611 40.1683L31.7937 40.1506C32.2382 40.0909 32.6469 40.4029 32.7066 40.8473C32.7663 41.2918 32.4543 41.7005 32.0099 41.7602L31.9537 41.7677C31.4955 45.406 31.5281 47.9894 32.0237 49.4716C32.2956 50.285 32.868 51.0507 34.1307 52.4245C35.0711 53.4475 35.6999 54.1621 36.1095 54.7545C36.519 54.1621 37.1478 53.4475 38.0882 52.4245C39.3509 51.0507 39.9233 50.285 40.1952 49.4716C40.7257 47.8849 40.7257 45.0364 40.1611 40.9829C40.0992 40.5388 40.4092 40.1285 40.8533 40.0667C41.0436 40.0402 41.2276 40.0819 41.3806 40.1731C45.7096 40.7438 48.7609 40.7368 50.4805 40.1825C51.3796 39.8928 52.2165 39.2897 53.7173 37.9598C54.7404 37.0532 55.4781 36.4247 56.0885 35.9983C55.4781 35.5719 54.7404 34.9434 53.7173 34.0368C52.2165 32.7069 51.3796 32.1038 50.4805 31.814C48.7984 31.2719 45.8419 31.2533 41.6616 31.787C41.499 32.0575 41.1857 32.2193 40.8533 32.1731C40.4092 32.1112 40.0992 31.701 40.1611 31.2568C40.7257 27.2033 40.7257 24.3548 40.1952 22.7681C39.9233 21.9548 39.3509 21.189 38.0882 19.8152C37.195 18.8435 36.5829 18.1501 36.1728 17.5753C35.7945 18.0402 35.3039 18.5876 34.6732 19.2737C33.4105 20.6475 32.8381 21.4133 32.5662 22.2266ZM58.4164 35.1863C57.6094 35.1823 56.9016 34.6887 54.7943 32.8213C53.1244 31.3415 52.1662 30.651 50.9787 30.2683C49.0872 29.6587 46.0908 29.6163 41.9443 30.1154C42.3587 26.5405 42.2971 23.9331 41.7355 22.2532C41.3654 21.1463 40.7031 20.2602 39.2838 18.7162C37.9812 17.299 37.384 16.5738 37.1591 16.0054C37.2901 15.6464 37.3399 15.2947 37.3399 14.8865C37.3399 14.438 36.9763 14.0745 36.5279 14.0745C36.1091 14.0745 35.7644 14.3914 35.7206 14.7985C35.5381 14.9474 35.4216 15.1741 35.4216 15.428C35.4216 15.5564 35.4265 15.6793 35.4373 15.7986C35.1326 16.324 34.5394 17.0195 33.4776 18.1747C32.0583 19.7187 31.396 20.6048 31.026 21.7117C30.4375 23.472 30.398 26.2507 30.8798 30.0939C26.8271 29.6177 23.8904 29.6676 22.0266 30.2683C20.8391 30.651 19.8809 31.3415 18.211 32.8213C16.1038 34.6885 15.396 35.1822 14.5891 35.1863L14.5791 35.1863C14.1306 35.1863 13.7671 35.5498 13.7671 35.9983V35.9983C13.7671 36.4467 14.1306 36.8103 14.5791 36.8103L14.5891 36.8103C15.396 36.8143 16.1038 37.308 18.211 39.1752C19.8809 40.655 20.8391 41.3455 22.0266 41.7282C23.7992 42.2995 26.5422 42.3727 30.2928 41.9688C29.8586 45.6237 29.9137 48.2824 30.4835 49.9866C30.8535 51.0934 31.5158 51.9795 32.9351 53.5235C34.7065 55.4506 35.1734 56.0982 35.1734 56.8117C35.1734 57.2602 35.5369 57.6237 35.9854 57.6237C36.0276 57.6237 36.069 57.6205 36.1095 57.6143C36.1499 57.6205 36.1914 57.6237 36.2336 57.6237C36.682 57.6237 37.0456 57.2602 37.0456 56.8117C37.0456 56.0982 37.5125 55.4506 39.2838 53.5235C40.7031 51.9795 41.3654 51.0934 41.7355 49.9866C42.3099 48.2682 42.3612 45.5795 41.9152 41.8776C46.0768 42.3804 49.0828 42.3393 50.9787 41.7282C52.1662 41.3455 53.1244 40.655 54.7943 39.1752C56.9016 37.3079 57.6094 36.8143 58.4163 36.8103C58.4196 36.8103 58.4229 36.8103 58.4262 36.8103C58.5926 36.8103 58.7474 36.7602 58.8762 36.6743C59.0944 36.5288 59.2382 36.2803 59.2382 35.9983C59.2382 35.718 59.0962 35.4709 58.8802 35.325C58.7506 35.2374 58.5944 35.1863 58.4262 35.1863C58.4229 35.1863 58.4196 35.1863 58.4164 35.1863Z" fill="#370B3C"/>
</svg>
