<svg width="44" height="44" viewBox="0 0 44 44" fill="none" xmlns="http://www.w3.org/2000/svg">
<circle cx="22" cy="22" r="22" fill="#A850B2"/>
<path d="M18.6666 15.7705H17.25C16.272 15.7705 15.4791 16.5633 15.4791 17.5413V27.458C15.4791 28.436 16.272 29.2288 17.25 29.2288H18.6666C19.6446 29.2288 20.4375 28.436 20.4375 27.458V17.5413C20.4375 16.5633 19.6446 15.7705 18.6666 15.7705Z" fill="white"/>
<path d="M25.75 15.7705H24.3333C23.3553 15.7705 22.5625 16.5633 22.5625 17.5413V27.458C22.5625 28.436 23.3553 29.2288 24.3333 29.2288H25.75C26.728 29.2288 27.5208 28.436 27.5208 27.458V17.5413C27.5208 16.5633 26.728 15.7705 25.75 15.7705Z" fill="white"/>
</svg>
