<svg width="52" height="52" viewBox="0 0 52 52" fill="none" xmlns="http://www.w3.org/2000/svg">
<circle cx="26" cy="26" r="26" fill="black" fill-opacity="0.03"/>
<path d="M26.0001 26.8604C22.364 26.8604 19.4045 23.901 19.4045 20.2648C19.4045 16.6286 22.364 13.6692 26.0001 13.6692C29.6363 13.6692 32.5957 16.6286 32.5957 20.2648C32.5957 23.901 29.6363 26.8604 26.0001 26.8604ZM26.0001 15.3898C23.316 15.3898 21.1251 17.5807 21.1251 20.2648C21.1251 22.9489 23.316 25.1398 26.0001 25.1398C28.6842 25.1398 30.8751 22.9489 30.8751 20.2648C30.8751 17.5807 28.6842 15.3898 26.0001 15.3898Z" fill="#9C9C9C"/>
<path d="M35.8534 38.3309C35.3831 38.3309 34.9931 37.9409 34.9931 37.4706C34.9931 33.5133 30.9556 30.3015 26.0003 30.3015C21.045 30.3015 17.0073 33.5133 17.0073 37.4706C17.0073 37.9409 16.6173 38.3309 16.147 38.3309C15.6767 38.3309 15.2867 37.9409 15.2867 37.4706C15.2867 32.5727 20.0929 28.5809 26.0003 28.5809C31.9077 28.5809 36.7137 32.5727 36.7137 37.4706C36.7137 37.9409 36.3237 38.3309 35.8534 38.3309Z" fill="#9C9C9C"/>
</svg>
