<svg width="76" height="76" viewBox="0 0 76 76" fill="none" xmlns="http://www.w3.org/2000/svg">
<circle cx="38" cy="38" r="30" fill="white"/>
<circle cx="38" cy="38" r="34" stroke="white" stroke-opacity="0.1" stroke-width="8"/>
<g clip-path="url(#clip0_721_22187)">
<path d="M49.6256 28.303C46.6443 25.3215 42.6804 23.6797 38.4641 23.6797C34.2478 23.6797 30.2841 25.3216 27.3029 28.303C24.3216 31.2843 22.6797 35.2481 22.6797 39.4644C22.6797 43.6807 24.3215 47.6445 27.3029 50.6258C30.2841 53.6071 34.2479 55.2489 38.4641 55.2489C42.6803 55.2489 46.6442 53.6071 49.6256 50.6258C52.607 47.6445 54.2488 43.6806 54.2488 39.4644C54.2488 35.2481 52.607 31.2843 49.6256 28.303ZM44.6128 28.2244C44.8389 28.0027 45.0686 27.7773 45.2826 27.5551C46.1732 28.0669 47.0008 28.6763 47.7518 29.3678C47.7481 29.3728 47.7442 29.3786 47.7409 29.3827C47.6048 29.3695 47.421 29.3092 47.2274 29.2457C46.8526 29.1228 46.386 28.97 45.845 29.0133C45.3179 29.0556 44.8755 29.2735 44.5201 29.4485C44.3554 29.5295 44.0819 29.6642 43.9878 29.6647C43.8917 29.6186 43.6923 29.3634 43.613 29.2614C43.8591 28.9636 44.2418 28.5883 44.6128 28.2244ZM34.133 26.4393C34.3779 27.187 34.6577 27.8926 34.9316 28.5641C35.1566 29.1158 35.4117 29.7409 35.3595 30.2534C35.3383 30.4613 35.3021 30.5625 35.2841 30.602C35.1924 30.6314 34.9734 30.6498 34.8239 30.6622C34.3538 30.7014 33.7101 30.7551 33.1144 31.1734C32.9975 31.2555 32.8926 31.3375 32.791 31.4168C32.6199 31.5504 32.443 31.6887 32.3318 31.7198C32.2219 31.7506 32.0018 31.7255 31.7891 31.7012C31.6323 31.6834 31.4547 31.6631 31.2675 31.657C30.6935 31.6376 29.2901 31.8818 28.6206 32.7562C28.2753 33.2071 28.176 33.7527 28.3411 34.2928C28.4635 34.6933 28.7211 34.9664 28.9319 35.1597C29.8532 36.0044 31.1159 36.6024 32.3964 36.8005C32.575 36.8282 32.7452 36.849 32.9098 36.8692C33.7982 36.9779 34.0486 37.0503 34.2773 37.4624C34.3469 37.5879 34.4091 37.7528 34.4751 37.9275C34.5575 38.1459 34.651 38.3934 34.787 38.6429C35.2254 39.447 35.9817 39.9191 36.7591 39.874C37.3377 39.8407 37.7501 39.5492 38.0513 39.3364C38.1564 39.2621 38.2651 39.1852 38.3291 39.1586C38.4509 39.1079 38.7439 39.1614 39.0999 39.3986C39.4475 39.6303 39.6857 39.8999 39.7708 40.1577C39.8323 40.3442 39.7919 40.5566 39.7107 40.6253L37.8253 42.2357C37.3407 42.6496 36.4387 43.42 36.4108 44.5829C36.4027 44.9175 36.4674 45.2187 36.5245 45.4845C36.5356 45.5361 36.5489 45.5985 36.5607 45.6587C36.384 45.7021 36.1681 45.7575 35.9425 45.8713C34.7977 46.4493 34.6948 47.7676 34.6333 48.5553C34.6153 48.7854 34.5694 48.9641 34.5233 49.0859C34.4977 49.0379 34.4739 48.9808 34.4577 48.9173C34.4135 48.7447 34.3909 48.5358 34.3671 48.3146C34.3282 47.9537 34.284 47.5447 34.132 47.1234C33.9363 46.5809 33.6116 46.1546 33.3251 45.7786C33.0756 45.4512 32.8602 45.1684 32.7984 44.9072C32.7519 44.7107 32.774 44.4328 32.7973 44.1386C32.8328 43.6924 32.873 43.1865 32.7235 42.6427C32.5109 41.869 32.0121 41.3457 31.5721 40.8841C31.3232 40.6229 31.0881 40.3762 30.9629 40.1372C30.8379 39.8987 30.8469 39.6432 30.8737 39.2123C30.8993 38.7996 30.9312 38.2859 30.7479 37.749C30.5494 37.1675 30.0988 36.8449 29.7969 36.6287C29.0041 36.0611 28.2615 35.4148 27.5898 34.7076C27.255 34.355 26.9292 33.9751 26.8131 33.5848C26.7777 33.4659 26.7532 33.3761 26.7341 33.3058C26.6643 33.0506 26.6047 32.8912 26.504 32.737C28.1653 29.795 30.8801 27.5239 34.133 26.4393ZM38.4641 53.1901C30.8958 53.1901 24.7385 47.0327 24.7385 39.4644C24.7385 38.0061 24.968 36.6006 25.3912 35.281C25.6109 35.5955 25.8591 35.875 26.0971 36.1255C26.8584 36.927 27.6999 37.6596 28.6022 38.3056C28.6691 38.3535 28.7643 38.4217 28.814 38.4663C28.8479 38.6179 28.8343 38.8362 28.8189 39.0849C28.7862 39.6119 28.7414 40.3336 29.1394 41.0931C29.3987 41.5878 29.7617 41.9686 30.0819 42.3047C30.3938 42.6319 30.6631 42.9144 30.7384 43.1885C30.7921 43.3838 30.7692 43.6712 30.745 43.9756C30.7117 44.3947 30.6739 44.8699 30.7948 45.3811C30.9574 46.0682 31.3453 46.5773 31.6875 47.0265C31.9032 47.3096 32.107 47.5772 32.1954 47.8221C32.2635 48.0111 32.2911 48.2658 32.3201 48.5355C32.3493 48.8059 32.3824 49.1123 32.4632 49.4279C32.7053 50.3735 33.4901 51.2809 34.5492 51.2808C34.6056 51.2808 34.663 51.2782 34.7209 51.2729C35.8176 51.1727 36.5706 50.1928 36.6861 48.7155C36.7048 48.4764 36.754 47.8461 36.8759 47.707C36.9137 47.692 37.0056 47.6695 37.0738 47.6528C37.3639 47.5818 37.8022 47.4744 38.1644 47.1034C38.8315 46.4203 38.6476 45.5638 38.5376 45.0521C38.5046 44.898 38.467 44.7232 38.4692 44.6322C38.475 44.3883 38.9745 43.9617 39.1626 43.8011L41.0442 42.1939C41.7767 41.5744 42.0507 40.4968 41.726 39.5125C41.4942 38.8099 40.9811 38.178 40.242 37.6853C39.3301 37.0775 38.3443 36.9217 37.5376 37.2578C37.2633 37.372 37.0415 37.5288 36.8632 37.6547C36.8093 37.6929 36.7382 37.7432 36.6803 37.7799C36.6538 37.7503 36.6231 37.7093 36.5947 37.6571C36.5269 37.5327 36.4659 37.3712 36.4014 37.2001C36.3164 36.9751 36.2201 36.7199 36.0776 36.4631C35.3151 35.0891 34.0695 34.9366 33.16 34.8254C33.0046 34.8064 32.8577 34.7884 32.7112 34.7658C31.9456 34.6473 31.1668 34.3112 30.5689 33.8486C30.788 33.7698 31.0558 33.7091 31.2 33.7147C31.3043 33.7181 31.4266 33.7321 31.5562 33.7468C31.9276 33.7892 32.3896 33.8418 32.8875 33.7022C33.3902 33.5613 33.7609 33.2718 34.0586 33.0392C34.1436 32.9729 34.2238 32.9102 34.2978 32.8583C34.4371 32.7605 34.7082 32.7378 34.9953 32.7139C35.7101 32.6542 37.1975 32.53 37.408 30.4618C37.5122 29.4385 37.1385 28.5224 36.8381 27.7863C36.5883 27.1739 36.346 26.5661 36.1345 25.9371C36.8919 25.8072 37.6701 25.7386 38.4642 25.7386C40.1681 25.7386 41.8 26.0516 43.3068 26.6215C43.2617 26.6659 43.2164 26.7103 43.1713 26.7545C42.7138 27.2032 42.2406 27.6673 41.915 28.0889C41.7773 28.2672 41.5469 28.5654 41.479 28.9949C41.3639 29.7236 41.7996 30.2834 41.9857 30.5224C42.2622 30.8777 42.7251 31.4725 43.4897 31.6632C43.6605 31.7057 43.8254 31.724 43.9836 31.724C44.5598 31.724 45.0498 31.4827 45.4298 31.2956C45.6485 31.1879 45.8748 31.0764 46.01 31.0656C46.1387 31.055 46.366 31.13 46.5862 31.2021C46.9077 31.3075 47.272 31.4269 47.7012 31.4425C47.7271 31.4435 47.7527 31.4439 47.7783 31.4439C48.3113 31.4439 48.7845 31.241 49.1596 30.8722C50.0711 32.0045 50.8068 33.2837 51.3248 34.6684C51.2514 34.6703 51.1767 34.6714 51.11 34.6722C50.9083 34.6747 50.6795 34.6776 50.4303 34.6967C49.8554 34.7409 49.405 34.574 48.8347 34.3627C48.4432 34.2176 47.9994 34.0531 47.479 33.9497C46.0768 33.671 44.6385 34.4355 43.8147 35.8973C43.5748 36.323 42.4275 38.5148 43.4037 39.8595C43.7697 40.3636 44.2594 40.6572 44.653 40.8929C45.181 41.2094 45.727 41.5366 46.3455 41.7862C46.4772 41.8394 46.6076 41.8875 46.7337 41.934C47.1088 42.0725 47.4967 42.2158 47.6355 42.4057C47.7132 42.5122 47.7944 42.7519 47.7391 43.289C47.702 43.6483 47.5582 44.0404 47.406 44.4554C47.031 45.4781 46.5173 46.8789 47.7209 48.2541C47.9364 48.5002 48.1795 48.7086 48.4434 48.8782C45.939 51.5314 42.3918 53.1901 38.4641 53.1901ZM49.2702 46.8982C48.9175 46.4953 48.9647 46.1848 49.3389 45.1643C49.5191 44.6726 49.7234 44.1155 49.7869 43.5C49.8865 42.5332 49.7265 41.778 49.2977 41.1911C48.7924 40.4996 48.0462 40.224 47.4465 40.0027C47.3294 39.9595 47.2188 39.9186 47.1156 39.877C46.6467 39.6878 46.1923 39.4155 45.7112 39.1271C45.4645 38.9792 45.2097 38.8266 45.0845 38.6695C45.0116 38.4166 45.2235 37.5907 45.6081 36.9081C45.9186 36.357 46.4931 35.8526 47.0775 35.969C47.4373 36.0405 47.7684 36.1632 48.1191 36.2932C48.7959 36.544 49.5629 36.8281 50.5881 36.7495C50.7714 36.7354 50.9567 36.7331 51.1358 36.7309C51.3902 36.7277 51.6496 36.7243 51.9074 36.6869C52.0925 37.5842 52.1899 38.5131 52.1899 39.4644C52.19 42.3536 51.292 45.0364 49.7615 47.2502C49.5775 47.1765 49.4112 47.0594 49.2702 46.8982Z" fill="#9AC17E"/>
</g>
<defs>
<clipPath id="clip0_721_22187">
<rect width="38" height="38" fill="white" transform="translate(18 19)"/>
</clipPath>
</defs>
</svg>
