<svg width="58" height="58" viewBox="0 0 58 58" fill="none" xmlns="http://www.w3.org/2000/svg">
<path d="M47.4556 10.545C42.526 5.6152 35.9717 2.90039 29.0001 2.90039C22.0284 2.90039 15.4744 5.6153 10.5448 10.545C5.6153 15.4747 2.90039 22.0289 2.90039 29.0006C2.90039 35.9723 5.6152 42.5264 10.5448 47.456C15.4744 52.3856 22.0285 55.1004 29.0001 55.1004C35.9716 55.1004 42.5259 52.3856 47.4556 47.4559C52.3854 42.5264 55.1002 35.9721 55.1002 29.0005C55.1002 22.0288 52.3854 15.4747 47.4556 10.545ZM39.1671 10.415C39.5408 10.0485 39.9207 9.67579 40.2745 9.30835C41.7471 10.1548 43.1156 11.1624 44.3574 12.3057C44.3513 12.314 44.3447 12.3235 44.3393 12.3303C44.1142 12.3085 43.8103 12.2089 43.4902 12.1038C42.8705 11.9006 42.0989 11.648 41.2045 11.7195C40.3328 11.7896 39.6014 12.1498 39.0136 12.4391C38.7414 12.5731 38.2891 12.7959 38.1336 12.7967C37.9746 12.7204 37.6449 12.2984 37.5138 12.1298C37.9207 11.6375 38.5535 11.0169 39.1671 10.415ZM21.8386 7.4634C22.2436 8.69979 22.7061 9.86654 23.159 10.9768C23.5311 11.889 23.9529 12.9227 23.8666 13.7701C23.8316 14.1138 23.7716 14.2812 23.742 14.3465C23.5904 14.3951 23.2282 14.4255 22.9809 14.4461C22.2037 14.5109 21.1393 14.5997 20.1543 15.2914C19.9609 15.4271 19.7875 15.5627 19.6196 15.6938C19.3367 15.9147 19.0442 16.1433 18.8602 16.1948C18.6786 16.2456 18.3146 16.2042 17.9628 16.1641C17.7037 16.1346 17.41 16.1011 17.1004 16.0909C16.1513 16.0589 13.8308 16.4627 12.7238 17.9085C12.1527 18.6541 11.9886 19.5563 12.2615 20.4493C12.464 21.1115 12.89 21.563 13.2384 21.8826C14.7619 23.2794 16.8498 24.2682 18.967 24.5958C19.2624 24.6416 19.5438 24.6759 19.8159 24.7093C21.2849 24.889 21.6989 25.0088 22.0771 25.6903C22.1922 25.8978 22.295 26.1704 22.4041 26.4592C22.5404 26.8204 22.695 27.2297 22.9199 27.6423C23.6449 28.9718 24.8954 29.7524 26.1808 29.6778C27.1375 29.6227 27.8194 29.1408 28.3174 28.7889C28.4912 28.6661 28.6711 28.5389 28.7768 28.4949C28.9783 28.411 29.4627 28.4996 30.0514 28.8918C30.626 29.2749 31.02 29.7207 31.1607 30.147C31.2623 30.4554 31.1956 30.8066 31.0614 30.9201L27.9437 33.5829C27.1425 34.2673 25.651 35.5412 25.6048 37.464C25.5916 38.0173 25.6985 38.5154 25.7928 38.9548C25.8112 39.0401 25.8333 39.1433 25.8528 39.2429C25.5606 39.3146 25.2036 39.4062 24.8306 39.5944C22.9376 40.5501 22.7675 42.73 22.6658 44.0324C22.6361 44.4129 22.5601 44.7084 22.4839 44.9098C22.4415 44.8303 22.4023 44.736 22.3754 44.631C22.3023 44.3457 22.2651 44.0002 22.2256 43.6344C22.1613 43.0377 22.0883 42.3613 21.837 41.6647C21.5134 40.7678 20.9765 40.0629 20.5027 39.4412C20.0902 38.8998 19.734 38.4322 19.6317 38.0002C19.5549 37.6753 19.5914 37.2159 19.63 36.7294C19.6886 35.9915 19.7552 35.1551 19.5079 34.2559C19.1563 32.9766 18.3316 32.1113 17.6041 31.348C17.1925 30.9162 16.8037 30.5083 16.5968 30.1131C16.39 29.7186 16.405 29.2963 16.4492 28.5837C16.4916 27.9012 16.5443 27.052 16.2413 26.1642C15.913 25.2025 15.168 24.6692 14.6687 24.3117C13.3578 23.3732 12.13 22.3045 11.0193 21.1351C10.4657 20.5521 9.927 19.9239 9.73502 19.2787C9.6765 19.082 9.63592 18.9335 9.60432 18.8173C9.48901 18.3953 9.39042 18.1317 9.22393 17.8767C11.9709 13.0121 16.4599 9.25676 21.8386 7.4634ZM29.0001 51.6961C16.4857 51.6961 6.30471 41.5148 6.30471 29.0006C6.30471 26.5893 6.68408 24.2652 7.38388 22.0833C7.74724 22.6032 8.1575 23.0655 8.55104 23.4797C9.80986 24.805 11.2014 26.0163 12.6933 27.0844C12.8039 27.1636 12.9614 27.2764 13.0435 27.3502C13.0996 27.6009 13.077 27.9619 13.0517 28.3731C12.9976 29.2445 12.9235 30.4378 13.5816 31.6936C14.0103 32.5117 14.6105 33.1413 15.1401 33.697C15.6557 34.238 16.1011 34.7052 16.2256 35.1584C16.3143 35.4813 16.2765 35.9566 16.2365 36.4598C16.1814 37.1529 16.1189 37.9386 16.3189 38.7839C16.5876 39.92 17.229 40.7618 17.7948 41.5045C18.1516 41.9727 18.4885 42.4151 18.6347 42.82C18.7474 43.1325 18.7929 43.5538 18.841 43.9997C18.8892 44.4468 18.9439 44.9535 19.0775 45.4753C19.4778 47.0389 20.7755 48.5392 22.5267 48.5391C22.62 48.5391 22.7149 48.5348 22.8107 48.526C24.6241 48.3604 25.8692 46.7401 26.0601 44.2973C26.091 43.902 26.1723 42.8597 26.374 42.6298C26.4364 42.6049 26.5884 42.5677 26.7011 42.5402C27.1808 42.4227 27.9056 42.2451 28.5045 41.6318C29.6075 40.5021 29.3034 39.0859 29.1216 38.2398C29.067 37.985 29.0049 37.6961 29.0084 37.5455C29.0181 37.1423 29.8441 36.4368 30.155 36.1713L33.2662 33.5138C34.4775 32.4894 34.9306 30.7076 34.3937 29.0801C34.0104 27.9183 33.1619 26.8735 31.9398 26.0587C30.432 25.0538 28.8019 24.7961 27.468 25.3519C27.0144 25.5408 26.6477 25.8 26.353 26.0083C26.2638 26.0714 26.1462 26.1545 26.0506 26.2151C26.0066 26.1662 25.956 26.0985 25.909 26.0122C25.7968 25.8065 25.6961 25.5394 25.5893 25.2566C25.4489 24.8844 25.2896 24.4626 25.054 24.0379C23.7931 21.7659 21.7335 21.5139 20.2297 21.3299C19.9726 21.2985 19.7298 21.2688 19.4877 21.2314C18.2217 21.0355 16.9338 20.4797 15.9452 19.7148C16.3075 19.5845 16.7504 19.4841 16.9888 19.4934C17.1613 19.4991 17.3635 19.5221 17.5778 19.5465C18.1918 19.6165 18.9558 19.7035 19.7791 19.4727C20.6104 19.2397 21.2232 18.761 21.7155 18.3765C21.856 18.2668 21.9887 18.1631 22.111 18.0772C22.3414 17.9155 22.7897 17.8781 23.2643 17.8385C24.4462 17.7398 26.9057 17.5345 27.2538 14.1147C27.4261 12.4227 26.8081 10.9079 26.3115 9.69067C25.8985 8.67807 25.4977 7.67302 25.148 6.633C26.4005 6.41828 27.6872 6.30481 29.0003 6.30481C31.8177 6.30481 34.5161 6.82243 37.0075 7.76478C36.9329 7.83818 36.858 7.91149 36.7835 7.98459C36.0269 8.7266 35.2445 9.494 34.7061 10.1911C34.4784 10.4858 34.0975 10.979 33.9852 11.6892C33.7948 12.894 34.5153 13.8197 34.823 14.2148C35.2802 14.8024 36.0457 15.7858 37.31 16.1012C37.5924 16.1715 37.865 16.2017 38.1266 16.2017C39.0793 16.2017 39.8896 15.8028 40.5178 15.4933C40.8796 15.3152 41.2536 15.131 41.4772 15.113C41.6901 15.0956 42.0659 15.2195 42.43 15.3388C42.9615 15.5131 43.564 15.7105 44.2737 15.7363C44.3165 15.7379 44.3588 15.7386 44.4012 15.7386C45.2825 15.7385 46.065 15.403 46.6852 14.7933C48.1923 16.6656 49.4088 18.7807 50.2654 21.0704C50.144 21.0735 50.0205 21.0753 49.9102 21.0766C49.5766 21.0808 49.1983 21.0856 48.7863 21.1172C47.8356 21.1903 47.091 20.9143 46.148 20.5648C45.5006 20.3249 44.7667 20.0529 43.9063 19.8819C41.5877 19.4212 39.2095 20.6852 37.8473 23.1023C37.4506 23.8062 35.5535 27.4303 37.1678 29.6538C37.7729 30.4874 38.5827 30.9728 39.2334 31.3626C40.1066 31.886 41.0093 32.427 42.032 32.8397C42.2498 32.9276 42.4654 33.0072 42.6738 33.0841C43.2941 33.3131 43.9356 33.5499 44.165 33.8641C44.2936 34.04 44.4277 34.4364 44.3363 35.3245C44.275 35.9186 44.0373 36.5669 43.7855 37.2533C43.1655 38.9443 42.3161 41.2605 44.3063 43.5344C44.6625 43.9413 45.0645 44.2859 45.5009 44.5664C41.3599 48.9534 35.4945 51.6961 29.0001 51.6961ZM46.868 41.2925C46.2849 40.6262 46.3629 40.1128 46.9816 38.4253C47.2797 37.6124 47.6174 36.6911 47.7224 35.6735C47.8871 34.0749 47.6225 32.8261 46.9135 31.8557C46.0781 30.7122 44.8441 30.2566 43.8525 29.8906C43.6589 29.8192 43.4761 29.7516 43.3053 29.6828C42.5301 29.37 41.7787 28.9196 40.9831 28.4428C40.5752 28.1983 40.154 27.9459 39.947 27.6862C39.8264 27.268 40.1767 25.9024 40.8128 24.7736C41.3261 23.8625 42.2761 23.0285 43.2423 23.2209C43.8373 23.3391 44.3848 23.542 44.9646 23.7569C46.0838 24.1717 47.3521 24.6414 49.0472 24.5115C49.3502 24.4881 49.6566 24.4843 49.9528 24.4806C50.3735 24.4754 50.8025 24.4698 51.2286 24.4079C51.5348 25.8916 51.6958 27.4276 51.6958 29.0006C51.6959 33.7778 50.211 38.2139 47.6803 41.8745C47.3761 41.7526 47.1012 41.5589 46.868 41.2925Z" fill="white" fill-opacity="0.6"/>
</svg>
