<svg width="375" height="320" viewBox="0 0 375 320" fill="none" xmlns="http://www.w3.org/2000/svg">
<path opacity="0.321405" d="M0 0H375V300C375 311.046 366.046 320 355 320H20C8.95431 320 0 311.046 0 300V0Z" fill="#F26D4A"/>
<path d="M0 0H375V300C375 311.046 366.046 320 355 320H20C8.95431 320 0 311.046 0 300V0Z" fill="black"/>
<mask id="mask0_766_20617" style="mask-type:luminance" maskUnits="userSpaceOnUse" x="0" y="0" width="375" height="320">
<path d="M0 0H375V300C375 311.046 366.046 320 355 320H20C8.95431 320 0 311.046 0 300V0Z" fill="white"/>
</mask>
<g mask="url(#mask0_766_20617)">
<rect x="-81.1621" y="-170" width="435.433" height="613.223" fill="url(#paint0_linear_766_20617)"/>
<rect x="-228.166" y="-169.883" width="612.457" height="612.987" fill="url(#paint1_linear_766_20617)"/>
<path d="M158.832 167.404C189.327 140.574 220.439 114.438 252.169 88.998C257.088 97.7893 262.028 106.583 266.991 115.379C267.596 116.448 268.26 117.59 269.367 118.121C271.661 119.249 274.162 117.274 276.464 116.161C283.768 112.622 292.216 117.878 298.037 123.532C319.728 144.539 331.429 173.508 342.547 201.577L281.061 202.218C240.047 202.645 197.839 202.867 159.658 187.881C156.832 186.776 153.933 185.508 151.978 183.193C150.023 180.879 149.322 177.215 151.24 174.834C152.642 173.065 155.003 172.454 156.98 171.37C158.957 170.286 160.794 168.009 159.88 165.952L158.832 167.404Z" fill="#FC9588"/>
<path d="M65.1188 209.537C78.6572 201.038 92.0406 191.677 101.661 178.91C111.857 165.384 117.258 148.748 127.344 135.133C128.47 133.447 129.91 131.994 131.586 130.851C134.603 129.022 137.864 129.244 141.022 130.593C149.093 134.042 158.5 131.403 164.056 124.607C168.246 119.447 172.695 114.229 176.723 109.533C180.417 105.233 185.718 102.64 191.383 102.361C197.048 102.082 202.578 104.143 206.677 108.059C209.71 111.008 212.491 113.779 214.284 115.858C224.738 127.939 235.635 139.644 246.525 151.335C253.903 159.229 261.222 167.116 268.85 174.731C288.542 194.389 310.277 212.382 326.198 235.174C307.237 240.333 288.144 245.493 268.563 247.1C242.999 249.223 217.353 245.257 191.7 244.749C168.829 244.299 145.958 246.591 123.087 246.4C90.9025 246.226 58.965 240.778 28.5469 230.272C29.7273 223.122 35.4156 217.358 41.9303 214.166C48.4449 210.974 55.7637 209.913 62.9497 208.903C65.0303 208.608 67.1108 208.313 69.2062 208.217L65.1188 209.537Z" fill="#FB8077"/>
<path d="M-167.137 323.391C-155.553 309.799 -143.968 296.197 -132.38 282.585C-125.216 274.182 -117.476 265.381 -106.926 262.101C-96.3758 258.821 -82.4612 263.855 -80.4692 274.713C-69.1879 255.138 -56.7567 236.247 -43.2406 218.14C-38.1442 219.401 -33.6375 222.376 -30.477 226.565C6.25731 185.073 36.8089 145.254 64.5054 100.748C77.2026 80.3444 107.828 83.6614 115.848 106.305L116.113 107.043C118.327 113.249 124.059 117.288 130.626 117.782C134.157 118.038 137.487 119.525 140.032 121.984C145.307 127.306 147.034 135.053 149.815 142.011C152.597 148.969 157.732 156.141 165.198 156.753C168.149 156.996 171.322 156.141 174.118 157.195C177.386 158.426 179.186 161.839 180.706 164.979C214.925 235.742 249.141 306.504 283.354 377.267C143.456 380.458 3.27666 383.643 -136.246 372.932C-152.44 371.694 -172.095 367.64 -176.979 352.168C-181.243 338.649 -171.143 325.124 -161.301 314.915L-167.137 323.391Z" fill="#FD6E6E"/>
<path d="M-279.693 241.529C-247.437 238.131 -215.145 229.735 -191.653 213.15C-185.235 208.624 -179.561 203.568 -173.386 198.85C-166.436 193.565 -158.866 188.744 -151.304 183.931L-126.264 167.987C-121.697 165.076 -117.123 162.164 -112.172 159.614C-106.462 156.665 -100.176 154.159 -95.6973 150.238C-91.4034 146.464 -89.1384 141.695 -85.7815 137.442C-81.8343 132.437 -76.4042 128.169 -71.0258 123.945L-37.3312 97.5197C-33.6422 94.6524 -28.9204 91.527 -23.7264 92.4558C-18.6726 93.3624 -16.3486 97.564 -12.6154 100.203C-7.45093 103.888 0.664673 104.53 5.97672 108.09C12.4545 112.417 13.4136 120.053 20.1791 124.137C23.8016 126.348 28.6267 127.181 32.3304 129.296C36.0341 131.412 38.2326 134.456 40.3722 137.478C47.2041 147.085 54.0385 156.685 60.8752 166.277C80.611 168.489 104.309 172.793 111.701 186.4C114.188 190.978 114.601 196.344 119.013 200.066C127.445 207.194 145.138 204.165 153.688 211.219C156.271 213.342 157.621 216.128 159.997 218.376C164.202 222.364 171.019 224.221 177.135 226.484C212.497 239.752 228.566 270.32 258.225 289.713C273.209 299.517 291.352 306.254 308.254 314.2C313.979 316.891 320.214 322.264 315.868 326.105C313.869 327.874 310.423 328.257 307.302 328.471C279.79 330.417 252.079 329.451 224.464 328.625C76.076 324.203 -72.3981 323.977 -220.958 327.947C-276.55 329.422 -333.175 331.434 -386.871 320.79C-386.502 312.586 -378.962 305.311 -369.858 300.578C-360.754 295.846 -350.07 293.016 -339.882 289.64L-279.693 241.529Z" fill="#FC5454"/>
<path d="M491.889 224.966C485.374 221.767 478.048 220.713 470.862 219.703C469.601 219.526 468.332 219.349 467.063 219.216C454.092 210.99 441.402 201.887 432.18 189.651C421.991 176.117 416.583 159.481 406.498 145.866C405.375 144.178 403.934 142.723 402.256 141.584C399.245 139.756 395.984 139.977 392.827 141.326C390.219 142.434 387.394 142.938 384.564 142.8C377.842 135.503 371.18 128.161 364.688 120.687C362.895 118.608 360.106 115.807 357.081 112.888C352.987 108.967 347.459 106.9 341.795 107.172C336.13 107.444 330.826 110.031 327.127 114.326C323.091 119.021 318.65 124.269 314.459 129.399C308.904 136.196 299.497 138.834 291.418 135.385C288.261 134.036 285 133.815 281.989 135.643C280.311 136.782 278.87 138.236 277.747 139.925C267.662 153.54 262.254 170.147 252.065 183.71C242.843 195.946 230.153 205.049 217.19 213.275C215.913 213.408 214.652 213.585 213.383 213.762C206.197 214.771 198.871 215.825 192.356 219.025C185.841 222.224 180.16 227.98 178.973 235.13C188.884 238.592 198.983 241.494 209.222 243.821C208.698 244.558 208.159 245.295 207.65 246.032C226.611 251.192 245.698 256.352 265.279 257.959C290.843 260.081 316.496 256.116 342.141 255.607C365.012 255.158 387.884 257.457 410.755 257.258C442.942 257.089 474.882 251.64 505.302 241.13C504.085 233.936 498.404 228.157 491.889 224.966Z" fill="#FB8077"/>
<path d="M402.839 150.833C407.554 145.305 390.112 143.757 382.875 144.413C375.637 145.069 368.687 147.538 361.479 148.607C344.643 151.121 327.762 145.88 311.206 141.914C303.091 139.975 294.105 138.435 286.808 142.467C283.185 144.472 280.374 147.671 276.914 149.949C265.67 157.32 249.911 153.229 239.693 144.479C238.885 143.649 237.891 143.023 236.794 142.651C234.661 142.135 232.655 143.69 230.773 144.826C221.92 150.177 210.285 146.808 201.387 141.494C196.584 138.619 190.962 135.088 185.82 137.307C184.344 137.956 182.994 139.076 181.393 139.386C178.708 139.894 176.229 138.029 173.595 137.226C169.906 136.106 165.959 137.115 162.24 138.125C155.364 139.998 148.37 141.929 142.394 145.799C136.418 149.668 131.659 155.462 126.901 160.924C100.026 191.8 67.3242 217.08 30.6641 235.32C65.9301 258.908 109.961 256.048 151.476 264.805C165.442 267.753 179.032 272.316 193.021 275.161C228.914 282.481 266.01 278.346 302.641 278.434C322.782 278.486 343.16 279.805 362.866 275.662C376.072 272.891 388.637 267.738 401.386 263.316C410.306 260.22 419.594 257.345 426.854 251.316C434.114 245.286 438.88 235.099 435.56 226.254C434.084 222.392 431.318 219.215 429.222 215.662C424.796 208.099 423.593 199.128 421.306 190.652L402.839 150.833Z" fill="#FD385C"/>
<path d="M-404.924 223.815C-400.217 222.23 -395.443 220.587 -390.471 220.402C-384.443 220.188 -378.578 222.142 -372.653 223.351C-358.122 226.217 -343.057 224.464 -329.574 218.338C-321.023 214.432 -312.48 208.653 -303.154 209.795C-299.266 210.267 -295.643 211.94 -292.021 213.422C-276.343 219.857 -259.558 223.13 -242.936 226.365C-217.482 231.319 -191.845 236.287 -165.911 236.471C-139.978 236.656 -113.448 231.724 -91.3141 218.235C-85.9725 214.977 -79.6423 211.093 -73.9171 213.613C-70.3241 215.198 -68.2067 218.891 -65.2408 221.456C-59.4123 226.491 -50.972 226.756 -43.2696 226.55C-16.855 225.864 9.43903 222.732 35.2749 217.196C42.8667 215.567 50.9824 213.768 58.1979 216.65C62.3221 218.294 65.7084 221.316 69.1392 224.125C85.0695 237.141 103.651 246.526 123.588 251.626C155.039 259.639 180.545 281.752 210.646 293.966C193.48 303.409 174.457 308.994 154.907 310.33C153.077 310.455 150.945 310.713 150.008 312.29C149.469 313.182 149.462 314.339 148.827 315.172C148.089 316.175 130.383 360.637 129.143 360.785C84.0129 366.151 17.9296 356.406 5.616 355.072C-17.0879 352.605 -39.9682 352.188 -62.7471 353.826C-75.8944 354.777 -87.6989 350.229 -100.595 347.502C-102.764 347.045 -105.443 345.954 -105.406 343.743C-100.769 342.651 -96.646 340.008 -93.7192 336.254C-93.0578 335.535 -92.6531 334.617 -92.5683 333.644C-92.5683 332.214 -93.7635 331.101 -94.9218 330.261C-104.891 323.234 -117.971 322.413 -128.742 328.138C-132.431 330.158 -135.655 332.892 -139.189 335.163C-145.601 339.282 -152.897 341.828 -160.481 342.593C-161.126 342.642 -161.745 342.864 -162.274 343.234C-164.65 345.01 -162.274 348.276 -161.595 351.011C-160.393 356.038 -165.69 360.07 -170.368 362.266C-187.196 370.177 -205.569 374.265 -224.167 374.237C-316.781 374.045 -406.237 371.215 -498.622 377.738C-509.173 353.974 -506.738 325.912 -496.8 301.904C-496.446 301.042 -496.062 300.194 -495.708 299.339C-480.421 264.585 -450.475 238.388 -414.286 226.815L-404.924 223.815Z" fill="#E1324F"/>
<path d="M720.712 267.798C704.122 261.567 687.679 254.609 671.384 246.923C666.677 244.712 661.896 242.397 656.931 242.147C650.903 241.845 645.038 244.579 639.113 246.238C624.704 250.27 609.395 247.778 596.034 239.228C587.483 233.766 578.94 225.672 569.614 227.272C565.726 227.935 562.104 230.272 558.481 232.351C542.803 241.351 526.018 245.928 509.396 250.454C483.943 257.383 458.305 264.334 432.372 264.592C406.438 264.85 379.9 258.009 357.767 239.117C352.425 234.555 346.095 229.115 340.37 232.653C336.777 234.864 334.659 240.024 331.694 243.614C325.865 250.653 317.425 251.029 309.722 250.749C283.089 249.753 256.693 245.353 231.178 237.658C223.586 235.38 215.463 232.867 208.255 236.921C204.131 239.22 200.744 243.451 197.314 247.388C181.451 265.543 162.726 278.774 142.865 285.857C111.413 297.069 85.9082 328.005 55.8066 345.091C72.9011 358.271 92.0687 366.151 111.546 367.986C113.376 368.163 115.508 368.517 116.445 370.721C116.984 371.981 116.991 373.595 117.626 374.767C118.363 376.168 119.765 376.485 121.012 376.691C165.966 384.182 211.526 387.43 257.089 386.392C256.218 397.566 247.638 403.743 240.223 408.099C232.808 412.456 224.309 419.156 223.925 430.39C235.841 435.129 248.523 432.454 260.815 430.581C283.441 427.13 306.412 426.545 329.185 428.842C342.332 430.168 354.137 423.8 367.033 419.996C369.203 419.355 371.881 417.837 371.836 414.733C367.24 413.259 363.042 409.47 360.157 404.259C359.46 403.151 359.063 401.881 359.006 400.574C359.006 398.583 360.202 397.028 361.36 395.849C370.995 386.045 384.733 384.836 395.18 392.9C398.869 395.731 402.093 399.534 405.627 402.733C411.787 408.276 418.863 411.822 426.137 413.016C427.111 413.178 428.166 413.333 428.904 414.247C430.948 416.768 428.675 421.19 428.033 424.906C426.831 431.938 432.128 437.576 436.806 440.658C453.561 451.714 472.079 457.464 490.597 457.405C583.211 457.125 672.668 453.174 765.053 462.299C775.603 429.055 773.169 389.797 763.231 356.2C753.293 322.602 736.383 293.921 718.189 267.916L720.712 267.798Z" fill="#CE0054"/>
<path d="M-191.963 266.951C-185.139 247.676 -175.466 230.014 -163.581 215.147C-162.172 219.993 -161.296 224.979 -160.969 230.014L-157.044 226.366C-152.472 231.745 -149.081 238.023 -147.091 244.793C-145.985 242.563 -144.883 240.332 -143.786 238.101C-139.261 242.784 -135.829 248.41 -133.737 254.575C-128.612 239.341 -123.487 224.125 -118.362 208.926C-107.089 229.064 -101.053 253.779 -101.393 278.42L-94.6643 257.133L-92.6944 265.772C-91.0565 263.098 -89.4162 260.42 -87.7734 257.737C-84.5665 268.759 -81.6153 279.887 -78.92 291.121C-75.7135 287.635 -73.2732 283.517 -71.7561 279.032C-70.974 282.084 -70.1969 285.131 -69.4247 288.172L-65.5513 284L-61.4566 291.828C-56.1401 283.41 -51.5612 274.549 -47.7707 265.344C-46.888 275.635 -44.5788 285.754 -40.9093 295.411C-39.0254 288.22 -36.6566 281.164 -33.8192 274.293C-31.6001 281.182 -30.1598 288.297 -29.5253 295.507L-25.1945 288.489C-22.3602 293.845 -20.2277 299.543 -18.8496 305.443C-15.4656 297.163 -12.0841 288.882 -8.70506 280.602C-7.86398 284.848 -7.02045 289.096 -6.17445 293.347C-4.54149 288.85 -2.90854 284.352 -1.27557 279.85C2.48973 290.493 5.36224 301.43 7.31224 312.549L15.5975 301.949L21.4998 314.155L26.0667 307.883L33.024 324.409C38.2486 321.154 43.0895 317.321 47.4551 312.983L58.3005 351.556L69.5074 328.286L73.9341 335.568C73.9341 335.568 78.7445 323.111 83.304 314.775C83.304 314.775 93.5223 346.839 97.0415 362.967C100.392 361.466 103.169 358.925 104.958 355.721C107.064 363.986 110.365 371.899 114.756 379.213C117.999 375.468 120.87 371.417 123.329 367.117C126.556 372.101 128.946 377.579 130.404 383.333L134.3 379.559L139.206 388.404L146.421 379.913C149.443 382.45 151.832 385.655 153.401 389.274L156.61 383.864C159.381 386.118 161.518 389.051 162.815 392.377L171.314 386.429C177.993 419.764 187.42 452.49 199.498 484.273C84.3369 486.528 -30.7574 477.639 -145.712 468.749C-158.903 467.732 -173.806 465.609 -181.774 452.312C-186.939 443.636 -187.891 432.159 -188.621 421.353C-190.436 394.419 -192.207 366.807 -186.496 340.758C-184.039 329.532 -180.196 318.593 -179.856 306.954C-179.45 292.949 -184.548 278.885 -193.195 270.098L-191.963 266.951Z" fill="#CE0054"/>
<path d="M-276.247 266.951C-269.726 248.23 -260.134 230.724 -247.864 215.147C-246.457 219.994 -245.579 224.979 -245.245 230.014L-241.328 226.366C-236.753 231.744 -233.36 238.022 -231.367 244.793L-228.07 238.101C-223.542 242.782 -220.11 248.409 -218.021 254.575L-202.638 208.926C-191.372 229.064 -185.337 253.779 -185.669 278.42L-178.941 257.133L-176.949 265.786L-172.027 257.752C-168.821 268.774 -165.869 279.902 -163.174 291.136C-159.962 287.653 -157.519 283.534 -156.003 279.047C-155.231 282.099 -154.453 285.145 -153.671 288.187L-149.805 284.015L-145.711 291.843C-140.395 283.424 -135.813 274.563 -132.017 265.359C-131.137 275.65 -128.831 285.769 -125.163 295.425C-123.298 288.229 -120.944 281.169 -118.118 274.293C-115.905 281.184 -114.465 288.298 -113.824 295.507L-109.515 288.482C-106.681 293.838 -104.548 299.536 -103.17 305.435C-99.7861 297.155 -96.4046 288.875 -93.0256 280.595C-92.1796 284.841 -91.3361 289.089 -90.495 293.339C-88.862 288.843 -87.2291 284.344 -85.5961 279.843C-81.8308 290.486 -78.9583 301.423 -77.0083 312.541C-74.249 309.013 -71.4872 305.48 -68.723 301.942L-62.8207 314.148C-61.296 312.06 -59.7737 309.969 -58.2538 307.875C-55.9274 313.379 -53.6058 318.888 -51.2891 324.401C-46.0683 321.144 -41.23 317.312 -36.8655 312.976L-26.0201 351.549L-14.7762 328.286L-10.3495 335.568C-10.3495 335.568 -5.53915 323.111 -0.979645 314.775C-0.979645 314.775 9.23865 346.839 12.7579 362.967C16.1088 361.466 18.8853 358.925 20.6743 355.721C22.7806 363.986 26.0812 371.899 30.4721 379.213C33.7088 375.459 36.5703 371.398 39.0156 367.087C42.2458 372.07 44.636 377.548 46.091 383.304L49.9865 379.53L54.8927 388.375L62.1156 379.883C65.1349 382.421 67.5218 385.626 69.0877 389.245L72.2971 383.834C75.0699 386.086 77.2082 389.02 78.5018 392.348L87.0085 386.399C93.6878 419.756 103.122 452.502 115.214 484.302C0.0532227 486.558 -115.041 477.668 -229.995 468.779C-243.187 467.762 -258.09 465.639 -266.058 452.341C-271.223 443.665 -272.174 432.189 -272.905 421.383C-274.72 394.449 -276.49 366.837 -270.78 340.787C-268.323 329.561 -264.479 318.622 -264.14 306.983C-263.741 292.978 -268.84 278.914 -277.486 270.128L-276.247 266.951Z" fill="#CE0054"/>
<path d="M401.938 372.223C370.53 352.86 343.114 328.992 321.261 301.984C315.868 305.471 310.276 309.179 307.546 314.39C300.677 327.488 312.519 347.464 297.682 354.592L277.304 333.157L175.099 342.289C175.128 346.118 175.155 349.943 175.18 353.766L168.754 350.818C132.172 357.818 95.1682 362.408 57.983 364.558C51.1512 371.685 53.4457 381.961 52.1914 391.027C49.4026 411.135 24.5614 427.145 0.54657 424.337C-8.83804 402.858 -16.4225 392.907 -43.6024 389.995C-43.9787 395.45 -79.3038 397.086 -84.483 400.425C-123.586 425.649 -162.349 428.531 -211.773 428.583C-261.197 428.634 -310.747 422.966 -359.92 427.145C-334.732 423.865 -307.832 431.915 -290.863 447.785C-288.451 450.047 -286.142 452.517 -282.947 453.954C-278.454 455.981 -273.024 455.642 -267.94 455.259C-114.703 443.834 39.627 448.013 193.093 457.043C265.182 461.281 337.699 466.581 409.552 460.36C414.097 459.969 419.564 458.93 420.965 455.296C421.652 453.519 421.106 451.61 420.56 449.782C412.69 423.851 404.82 397.922 396.951 371.995L401.938 372.223Z" fill="#450054"/>
<path d="M80.538 381.643C80.0658 381.223 79.8813 381.054 79.6969 380.906C79.1657 380.39 78.9591 378.319 78.9591 378.319L78.605 374.361L78.214 369.864C77.3729 360.333 76.185 350.817 74.5988 341.375C74.5472 341.058 74.5029 340.8 74.4586 340.542C74.3996 340.166 74.348 339.864 74.2889 339.569C74.2889 339.414 74.2447 339.274 74.2152 339.142C74.1488 338.729 74.075 338.316 74.0012 337.903C73.8536 337.07 73.6987 336.23 73.5438 335.397C73.4331 334.793 73.3151 334.173 73.197 333.569C72.8724 331.849 72.5306 330.129 72.1715 328.409C72.1125 328.1 72.0535 327.842 72.0018 327.591C71.9502 327.34 71.8985 327.083 71.8543 326.906C71.81 326.729 71.7952 326.625 71.7657 326.508C71.6993 326.146 71.6182 325.77 71.537 325.439C71.419 324.908 71.3083 324.385 71.1829 323.861C71.0574 323.338 70.9394 322.756 70.814 322.203C70.4525 320.64 70.0762 319.085 69.6925 317.522C69.5081 316.785 69.4712 316.601 69.4269 316.446C69.2868 315.856 69.213 315.569 69.1392 315.281C68.9917 314.706 68.8441 314.124 68.6892 313.542C68.5859 313.136 68.4826 312.731 68.3645 312.318C68.003 310.947 67.6268 309.576 67.2431 308.213C66.9185 307.048 66.8816 306.93 66.8521 306.812C66.8226 306.694 66.7783 306.576 66.7488 306.458L66.3209 304.984L66.0258 304.004C65.6421 302.696 65.2437 301.392 64.8306 300.09L64.4543 298.888C64.2846 298.343 64.1518 297.945 64.0116 297.539C63.9378 297.281 63.8493 297.023 63.7681 296.802C63.4361 295.785 63.0968 294.768 62.75 293.758C62.75 293.758 63.5763 295.748 63.9231 296.773C64.0042 297.038 64.0928 297.303 64.1813 297.569C64.2698 297.834 64.41 298.247 64.5133 298.586L64.6977 299.146C65.4355 301.357 65.8413 302.714 66.2619 304.055C66.3578 304.387 66.4611 304.719 66.5643 305.05L66.9406 306.281C67.0144 306.532 67.0955 306.775 67.1693 307.018C67.9071 309.584 68.3424 311.028 68.7556 312.48L69.0949 313.704L69.4712 315.068L69.7368 316.026C70.5484 319.055 70.9615 320.662 71.3673 322.277C71.4854 322.748 71.6034 323.227 71.7141 323.699C71.8838 324.392 72.0535 325.07 72.2158 325.756L72.3264 326.227L72.5035 326.965C72.6732 327.702 72.7175 327.886 72.7691 328.1C73.3151 330.481 73.7577 332.522 74.1783 334.52C74.2963 335.08 74.4144 335.633 74.525 336.186C74.6062 336.584 74.6873 336.967 74.7611 337.358C74.8792 337.925 74.9898 338.486 75.1005 339.046C75.2333 339.783 75.2628 339.908 75.2923 340.063C75.3218 340.218 75.344 340.328 75.3661 340.461C75.3882 340.594 75.4178 340.704 75.4399 340.822C77.0925 349.668 78.3099 358.063 79.1288 366.51C79.2395 367.579 79.3354 368.655 79.4313 369.732L79.8371 374.324L80.0879 377.221L80.1838 378.186L80.3166 379.778L80.4199 380.877L80.4642 381.385L80.538 381.643Z" fill="#450054"/>
<path d="M71.2187 316.912C71.1723 318.149 71.0292 319.382 70.7908 320.597C70.599 320.84 70.3481 318.931 70.4957 316.912C70.6432 314.892 71.2334 313.027 71.3146 313.315C71.3644 314.514 71.3323 315.716 71.2187 316.912Z" fill="#450054"/>
<path d="M68.5622 306.703C68.5076 307.94 68.3646 309.171 68.1343 310.388C67.9425 310.631 67.6916 308.722 67.8318 306.703C67.972 304.683 68.5696 302.818 68.6581 303.106C68.7079 304.305 68.6759 305.507 68.5622 306.703Z" fill="#450054"/>
<path d="M65.6038 299.538C65.5848 300.058 65.5231 300.576 65.4193 301.086C65.3455 301.189 65.2422 300.393 65.3013 299.56C65.2962 299.049 65.4125 298.544 65.6407 298.086C65.6597 298.57 65.6474 299.055 65.6038 299.538Z" fill="#450054"/>
<path d="M65.4207 304.013C65.7491 304.417 66.1067 304.796 66.4905 305.148C66.6159 305.148 66.2249 304.477 65.6789 303.843C65.1329 303.209 64.4763 302.73 64.5132 302.848C64.7899 303.256 65.093 303.645 65.4207 304.013Z" fill="#450054"/>
<path d="M66.9987 312.224C67.6559 313.283 68.396 314.288 69.212 315.231C69.4998 315.349 68.7546 313.572 67.6184 311.907C66.4822 310.241 65.0583 308.899 65.1026 309.209C65.6635 310.257 66.2971 311.264 66.9987 312.224Z" fill="#450054"/>
<path d="M69.2495 321.128C69.9127 322.183 70.6525 323.188 71.4628 324.135C71.7505 324.253 71.0054 322.469 69.8766 320.803C68.7478 319.137 67.3091 317.803 67.3607 318.105C67.9201 319.155 68.5511 320.165 69.2495 321.128Z" fill="#450054"/>
<path d="M83.6794 381.733C83.3474 381.202 83.2219 380.996 83.1039 380.76C82.7571 380.104 83.2072 378.077 83.2072 378.077L84.0556 374.192L85.0295 369.769C87.0806 360.423 88.7996 350.995 90.1202 341.509L90.2383 340.668C90.2899 340.292 90.3342 339.99 90.3637 339.688C90.3637 339.533 90.408 339.4 90.4227 339.26C90.4817 338.848 90.5334 338.435 90.5924 338.015C90.6957 337.174 90.8064 336.334 90.9097 335.486C90.9834 334.875 91.0572 334.255 91.1236 333.644C91.3228 331.904 91.5146 330.172 91.6843 328.44C91.6843 328.123 91.736 327.865 91.7655 327.607C91.795 327.349 91.8171 327.091 91.8319 326.87C91.8466 326.648 91.8319 326.59 91.8319 326.464C91.8688 326.103 91.8983 325.727 91.9352 325.381L92.068 323.766C92.1196 323.199 92.1639 322.639 92.2082 322.078C92.341 320.481 92.4541 318.879 92.5475 317.272C92.5992 316.484 92.6139 316.329 92.6139 316.167C92.6582 315.562 92.673 315.268 92.6877 314.973C92.6877 314.376 92.7541 313.771 92.7836 313.174C92.7836 312.754 92.8279 312.334 92.8426 311.914C92.9017 310.498 92.9607 309.076 93.005 307.653C93.005 306.444 93.005 306.326 93.005 306.179C93.005 306.032 93.005 305.928 93.005 305.803C93.005 305.294 93.005 304.786 93.005 304.277C93.005 303.938 93.005 303.599 93.005 303.253C93.005 301.889 93.005 300.525 93.005 299.162V297.909C93.005 297.334 93.005 296.914 93.005 296.486C93.005 296.213 93.005 295.948 93.005 295.675C93.005 294.606 93.005 293.538 92.9459 292.469C92.9459 292.469 93.1451 294.621 93.1599 295.705C93.1599 295.977 93.1599 296.257 93.1599 296.53C93.1599 296.803 93.1599 297.267 93.1599 297.606V298.196C93.1599 300.54 93.1599 301.941 93.1599 303.356C93.1599 303.71 93.1599 304.093 93.1599 304.403C93.1599 304.712 93.1599 305.258 93.1599 305.685C93.1599 305.95 93.1599 306.208 93.1599 306.466C93.1599 309.142 93.0861 310.646 93.0419 312.15C93.0419 312.577 93.0419 312.997 92.9976 313.425C92.9533 313.852 92.9976 314.361 92.9459 314.833C92.9459 315.164 92.9459 315.496 92.9459 315.828C92.8058 318.96 92.7246 320.619 92.6213 322.277C92.6213 322.771 92.5697 323.258 92.5328 323.752C92.4885 324.489 92.4442 325.167 92.3926 325.875C92.3926 326.037 92.3926 326.191 92.3926 326.346C92.3926 326.501 92.3926 326.855 92.3336 327.083C92.2819 327.82 92.2672 328.027 92.2524 328.248C92.0606 330.688 91.8835 332.737 91.6769 334.801L91.4999 336.489C91.4999 336.894 91.4261 337.285 91.3745 337.676C91.3228 338.251 91.2564 338.818 91.19 339.386C91.1089 340.123 91.0941 340.263 91.072 340.418L91.0277 340.823L90.9834 341.192C89.9063 350.118 88.5561 358.492 86.8223 366.806C86.6084 367.86 86.3797 368.914 86.1509 369.968L85.1623 374.472L84.5352 377.31L84.3286 378.261L83.9819 379.816C83.9819 379.971 83.7458 380.9 83.7458 380.9L83.6351 381.394L83.6794 381.733Z" fill="#450054"/>
<path d="M94.1711 317.185C93.7535 318.362 93.2454 319.506 92.6512 320.605C92.393 320.782 92.725 318.88 93.4628 317.015C94.2006 315.15 95.3072 313.521 95.3294 313.831C95.0206 314.974 94.6336 316.095 94.1711 317.185Z" fill="#450054"/>
<path d="M94.7018 306.644C94.2791 307.823 93.7686 308.969 93.1746 310.071C92.9163 310.248 93.2484 308.347 93.9935 306.474C94.7387 304.602 95.8306 302.981 95.8527 303.29C95.546 304.433 95.1614 305.553 94.7018 306.644Z" fill="#450054"/>
<path d="M94.0243 298.919C93.8494 299.409 93.6372 299.884 93.3898 300.342C93.2866 300.415 93.3898 299.605 93.7292 298.868C94.0686 298.13 94.467 297.393 94.467 297.548C94.349 298.014 94.2011 298.472 94.0243 298.919Z" fill="#450054"/>
<path d="M92.5121 303.134C92.7028 303.62 92.9297 304.091 93.1909 304.542C93.3015 304.609 93.1392 303.805 92.8072 303.068C92.4752 302.331 91.9957 301.645 91.9883 301.771C92.1337 302.236 92.3086 302.691 92.5121 303.134Z" fill="#450054"/>
<path d="M91.5522 311.448C91.8701 312.659 92.2846 313.842 92.7917 314.986C93.0278 315.185 92.8507 313.262 92.2753 311.301C91.6998 309.34 90.7259 307.667 90.6816 307.977C90.8906 309.153 91.1815 310.313 91.5522 311.448Z" fill="#450054"/>
<path d="M91.0284 320.612C91.3494 321.821 91.7613 323.003 92.2605 324.15C92.5039 324.349 92.3269 322.425 91.744 320.501C91.1612 318.578 90.202 316.867 90.1504 317.177C90.3661 318.34 90.6594 319.488 91.0284 320.612Z" fill="#450054"/>
<path d="M161.811 306.097C161.811 306.26 161.811 306.422 161.811 306.584C161.811 306.746 161.811 306.916 161.811 307.085C161.811 309.584 161.766 310.962 161.766 312.341C161.766 312.687 161.766 313.078 161.766 313.387C161.766 313.94 161.766 314.486 161.766 315.031C161.766 315.422 161.766 315.606 161.766 315.768C161.766 316.299 161.766 316.439 161.766 316.564C161.766 318.584 161.825 320.346 161.87 322.1C161.87 322.542 161.87 322.985 161.87 323.419C161.87 324.083 161.914 324.732 161.936 325.388V325.874C161.936 326.036 161.936 326.184 161.936 326.331C161.936 326.884 161.936 327.002 161.936 327.12C162.039 329.574 162.128 331.402 162.238 333.238C162.238 333.783 162.297 334.329 162.334 334.882L162.489 337.181C162.489 337.557 162.534 337.918 162.57 338.316C162.607 338.921 162.622 339.127 162.637 339.326C162.652 339.525 162.637 339.577 162.637 339.702C162.821 342.216 162.998 344.287 163.19 346.336C163.257 347.073 163.33 347.81 163.397 348.547C163.463 349.285 163.537 349.933 163.603 350.619C163.655 351.091 163.699 351.555 163.751 352.019C163.751 352.181 163.751 352.344 163.81 352.498C163.81 352.786 163.854 353.022 163.884 353.236C163.943 353.759 163.98 354.098 164.016 354.437C164.275 356.744 164.54 358.985 164.835 361.218C164.931 362.014 165.035 362.803 165.138 363.599C165.285 364.683 165.44 365.774 165.588 366.865C165.669 367.395 165.743 367.933 165.817 368.464C165.817 368.641 165.868 368.811 165.898 368.995C165.957 369.4 166.016 369.784 166.075 370.16C166.134 370.535 166.186 370.941 166.245 371.273C168.06 383.243 170.332 395.074 173.062 406.764C173.136 407.103 173.209 407.428 173.29 407.759L173.475 408.548C173.336 408.638 173.175 408.686 173.01 408.688C172.634 408.74 172.272 408.777 171.881 408.814L171.719 408.128C171.645 407.782 171.564 407.435 171.483 407.096C171.335 406.462 171.232 405.99 171.129 405.511L170.863 404.369C168.473 393.558 166.552 382.673 165.101 371.715C164.983 370.889 164.968 370.734 164.946 370.58L164.88 370.064C164.88 369.865 164.828 369.658 164.799 369.459C164.747 369.032 164.725 368.877 164.71 368.722C164.614 367.985 164.518 367.248 164.437 366.511C164.378 366.017 164.319 365.523 164.267 365.037C164.171 364.3 164.09 363.562 164.009 362.825C163.714 360.147 163.443 357.479 163.198 354.82C163.131 354.083 163.102 353.796 163.087 353.516C162.991 352.521 162.969 352.196 162.939 351.872C162.939 351.658 162.902 351.459 162.888 351.238C162.814 350.329 162.74 349.43 162.666 348.54C162.622 347.899 162.578 347.265 162.526 346.646C162.371 344.486 162.231 342.348 162.113 340.203C162.113 339.466 162.069 339.326 162.054 339.194V338.729C162.01 337.867 161.988 337.432 161.965 337.012C161.965 336.407 161.906 335.818 161.884 335.221C161.862 334.624 161.833 334.122 161.811 333.569C161.732 331.604 161.663 329.658 161.604 327.732C161.604 327.164 161.604 327.046 161.604 326.921C161.604 326.795 161.604 326.685 161.604 326.56C161.604 325.874 161.604 325.542 161.604 325.211C161.604 324.658 161.604 324.105 161.604 323.56C161.604 323.014 161.604 322.66 161.604 322.211C161.574 320.397 161.555 318.586 161.545 316.778C161.545 316.085 161.545 315.96 161.545 315.82C161.545 315.304 161.545 315.039 161.545 314.788C161.545 314.324 161.545 313.874 161.545 313.432C161.545 312.989 161.545 312.695 161.545 312.341C161.545 310.948 161.545 309.547 161.545 308.154C161.545 306.451 161.545 306.252 161.545 306.061L161.811 306.097Z" fill="#450054"/>
<path d="M162.816 314.892C162.358 315.519 161.834 315.917 161.65 315.784C161.465 315.651 161.694 315.047 162.152 314.405C162.609 313.764 163.133 313.381 163.317 313.521C163.502 313.661 163.273 314.28 162.816 314.892Z" fill="#450054"/>
<path d="M160.623 314.944C161.11 315.548 161.649 315.917 161.826 315.777C162.003 315.637 161.752 315.04 161.265 314.428C160.778 313.816 160.24 313.448 160.063 313.595C159.886 313.742 160.136 314.339 160.623 314.944Z" fill="#450054"/>
<path d="M160.837 314.796C161.693 315.615 162.187 316.477 161.951 316.728C161.715 316.978 160.822 316.514 159.974 315.703C159.125 314.892 158.616 314.022 158.86 313.772C159.103 313.521 159.981 313.978 160.837 314.796Z" fill="#450054"/>
<path d="M163.501 315.622C162.682 316.477 161.819 316.971 161.568 316.735C161.317 316.499 161.782 315.608 162.594 314.76C163.405 313.912 164.276 313.404 164.527 313.647C164.777 313.89 164.32 314.767 163.501 315.622Z" fill="#450054"/>
<path d="M162.358 314.449C162.358 315.628 162.129 316.594 161.783 316.601C161.436 316.609 161.133 315.658 161.104 314.479C161.074 313.299 161.34 312.334 161.687 312.326C162.033 312.319 162.336 313.27 162.358 314.449Z" fill="#450054"/>
<path d="M161.044 315.296C161.708 315.93 162.091 316.601 161.907 316.771C161.723 316.94 161.036 316.609 160.365 315.975C159.694 315.341 159.317 314.663 159.502 314.5C159.686 314.338 160.38 314.663 161.044 315.296Z" fill="#450054"/>
<path d="M163.117 315.938C162.483 316.601 161.811 316.992 161.642 316.808C161.472 316.623 161.804 315.93 162.439 315.267C163.073 314.604 163.752 314.213 163.914 314.397C164.076 314.581 163.752 315.274 163.117 315.938Z" fill="#450054"/>
<path d="M162.233 315.016C162.233 315.938 162.048 316.69 161.775 316.69C161.502 316.69 161.274 315.953 161.252 315.039C161.229 314.125 161.436 313.373 161.702 313.365C161.967 313.358 162.211 314.11 162.233 315.016Z" fill="#450054"/>
<path d="M162.572 306.614C162.203 307.123 161.782 307.447 161.627 307.351C161.472 307.255 161.627 306.747 162.033 306.238C162.439 305.73 162.83 305.413 162.978 305.501C163.125 305.59 162.948 306.113 162.572 306.614Z" fill="#450054"/>
<path d="M160.801 306.658C161.192 307.145 161.627 307.447 161.775 307.336C161.922 307.226 161.708 306.725 161.317 306.238C160.926 305.752 160.484 305.449 160.344 305.56C160.203 305.67 160.403 306.172 160.801 306.658Z" fill="#450054"/>
<path d="M160.956 306.54C161.65 307.196 162.048 307.896 161.856 308.103C161.665 308.309 160.949 307.933 160.255 307.27C159.562 306.606 159.156 305.913 159.355 305.707C159.555 305.501 160.278 305.877 160.956 306.54Z" fill="#450054"/>
<path d="M163.169 307.212C162.505 307.897 161.804 308.303 161.605 308.111C161.406 307.919 161.774 307.197 162.431 306.504C163.088 305.811 163.796 305.413 163.995 305.605C164.194 305.796 163.789 306.519 163.169 307.212Z" fill="#450054"/>
<path d="M162.203 306.26C162.203 307.211 162.018 307.993 161.738 308C161.458 308.007 161.207 307.263 161.192 306.283C161.177 305.302 161.377 304.543 161.657 304.543C161.937 304.543 162.181 305.302 162.203 306.26Z" fill="#450054"/>
<path d="M161.139 306.945C161.678 307.461 161.988 307.999 161.877 308.161C161.766 308.324 161.139 308.029 160.63 307.513C160.121 306.997 159.774 306.459 159.892 306.297C160.01 306.134 160.601 306.429 161.139 306.945Z" fill="#450054"/>
<path d="M162.815 307.47C162.306 308 161.76 308.317 161.597 308.207C161.435 308.096 161.73 307.47 162.247 306.954C162.763 306.438 163.309 306.106 163.464 306.217C163.619 306.327 163.331 306.909 162.815 307.47Z" fill="#450054"/>
<path d="M162.099 306.725C162.099 307.462 161.951 308.074 161.73 308.081C161.509 308.088 161.324 307.484 161.31 306.747C161.295 306.01 161.457 305.391 161.671 305.391C161.885 305.391 162.084 305.98 162.099 306.725Z" fill="#450054"/>
<path d="M174.508 329.567C177.924 332.066 186.121 341.987 186.386 342.717C187.124 344.803 190.665 344.39 192.812 344.751C205.006 346.791 217.471 346.566 229.583 344.088C230.628 343.967 231.617 343.556 232.439 342.901C233.176 342.164 233.494 340.808 232.771 340.041C230.875 340.941 228.794 339.525 226.935 338.567C225.076 337.609 222.147 337.528 221.586 339.592C221.051 338.668 220.146 338.018 219.099 337.805C218.053 337.592 216.965 337.837 216.111 338.479L214.001 331.764C214.084 335.057 212.563 338.187 209.921 340.159C209.039 338.908 207.322 338.582 206.041 339.422C205.023 338.088 204.345 336.527 204.063 334.874C202.973 336.3 201.563 337.452 199.947 338.235L197.896 333.481C197.127 334.522 196.013 335.257 194.753 335.552C196.747 328.88 197.622 321.923 197.342 314.965L190.348 338.486L184.999 331.97C186.597 334.591 187.463 337.592 187.508 340.66L184.645 336.975C182.837 334.656 180.559 332.745 177.961 331.366L174.508 329.567Z" fill="#450054"/>
<path d="M367.491 322.049C364.083 324.548 355.871 334.47 355.613 335.199C354.875 337.285 351.334 336.873 349.187 337.234C336.993 339.274 324.528 339.049 312.416 336.57C311.371 336.45 310.382 336.039 309.56 335.384C308.823 334.647 308.505 333.29 309.228 332.524C311.124 333.423 313.205 332.008 315.064 331.049C316.923 330.091 319.852 330.01 320.413 332.074C320.948 331.151 321.853 330.5 322.9 330.287C323.946 330.075 325.034 330.32 325.888 330.961L327.998 324.246C327.915 327.54 329.436 330.669 332.078 332.642C332.96 331.39 334.677 331.064 335.958 331.905C336.975 330.57 337.654 329.01 337.936 327.357C339.026 328.783 340.436 329.934 342.052 330.718L344.103 325.963C344.872 327.005 345.986 327.739 347.246 328.035C345.252 321.362 344.377 314.405 344.657 307.447L351.651 330.968L357 324.452C355.402 327.074 354.536 330.074 354.491 333.143L357.354 329.457C359.162 327.139 361.44 325.227 364.038 323.848L367.491 322.049Z" fill="#450054"/>
</g>
<path opacity="0.426432" d="M0 0H375V300C375 311.046 366.046 320 355 320H20C8.95431 320 0 311.046 0 300V0Z" fill="url(#paint2_linear_766_20617)"/>
<defs>
<linearGradient id="paint0_linear_766_20617" x1="335.759" y1="412.869" x2="335.759" y2="-148.204" gradientUnits="userSpaceOnUse">
<stop stop-color="#E4E4E4"/>
<stop offset="0.2" stop-color="#DEDEDE"/>
<stop offset="0.77" stop-color="#D2D2D2"/>
<stop offset="0.81" stop-color="#CDCDCD"/>
<stop offset="0.88" stop-color="#BDBDBD"/>
<stop offset="0.95" stop-color="#A3A3A3"/>
<stop offset="1" stop-color="#8A8A8A"/>
</linearGradient>
<linearGradient id="paint1_linear_766_20617" x1="-128.183" y1="-72.1422" x2="-128.183" y2="340.712" gradientUnits="userSpaceOnUse">
<stop stop-color="#FD7878"/>
<stop offset="0.11" stop-color="#FD948C"/>
<stop offset="0.29" stop-color="#FDB7A6"/>
<stop offset="0.46" stop-color="#FDD3BA"/>
<stop offset="0.64" stop-color="#FDE6C9"/>
<stop offset="0.82" stop-color="#FDF2D1"/>
<stop offset="1" stop-color="#FDF6D4"/>
</linearGradient>
<linearGradient id="paint2_linear_766_20617" x1="93.75" y1="160" x2="93.75" y2="320" gradientUnits="userSpaceOnUse">
<stop stop-opacity="0.01"/>
<stop offset="1"/>
</linearGradient>
</defs>
</svg>
