<svg width="157" height="93" viewBox="0 0 157 93" fill="none" xmlns="http://www.w3.org/2000/svg">
<path d="M57.64 32.2976C41.7508 19.9095 18.7373 24.8658 5.8143 30.2151C2.78713 31.4681 0.29495 33.6786 -1.62951 36.33L-10.4446 48.4753C-13.8807 53.2094 -15.1865 59.1622 -14.0474 64.8999L-6.73878 101.713C-5.96562 105.608 -4.10426 109.203 -1.37058 112.083L16.5524 130.962C20.6542 135.282 26.398 137.657 32.3534 137.495L128.317 134.884C132.616 134.767 136.775 133.333 140.233 130.776L162.955 113.971C168.309 110.011 171.468 103.746 171.468 97.0869V64.2773C171.468 63.0099 171.594 61.7516 171.766 60.496C173.285 49.4319 172.138 28.6357 156.62 20.8769C136.063 10.5981 80.1009 49.8096 57.64 32.2976Z" fill="white"/>
<circle cx="23.7582" cy="39.6879" r="35.0239" fill="white"/>
<circle cx="137.204" cy="16.0852" r="15.2278" fill="white"/>
<circle cx="107.512" cy="23.6991" r="22.8416" fill="white"/>
<circle cx="74.0103" cy="33.5982" r="16.7505" fill="white"/>
</svg>
