<svg width="76" height="76" viewBox="0 0 76 76" fill="none" xmlns="http://www.w3.org/2000/svg">
<circle cx="38" cy="38" r="30" fill="white"/>
<circle cx="38" cy="38" r="34" stroke="white" stroke-opacity="0.1" stroke-width="8"/>
<path d="M44.2085 26.7625C42.5106 25.3235 40.7617 23.8307 38.9916 22.0663L37.9827 21.0645L36.9922 22.0677C33.8057 25.2627 32.3002 30.1683 31.6465 33.1115C31.1462 32.3359 30.7749 31.4844 30.5471 30.59L29.9486 28.2794L28.2082 29.9151C25.1589 32.7775 23.1256 35.6174 23.1256 40.165C23.067 46.9141 27.6072 52.8379 34.1396 54.5354C35.0962 54.7681 36.0727 54.9102 37.0559 54.9599C37.3789 54.9832 38.3038 55.0065 38.4623 54.9967C46.4766 54.7556 52.8465 48.1857 52.8398 40.1678C52.8398 34.092 48.8397 30.6961 44.2085 26.7625ZM38.2568 52.1484C38.1086 52.1612 37.9739 52.1626 37.8241 52.1612C35.1782 52.0803 33.0733 49.9154 33.0669 47.2683C33.0669 45.4752 34.0285 44.5814 36.2049 42.729C36.7535 42.2623 37.3503 41.7546 37.9782 41.1734C38.5283 41.6726 39.0628 42.1251 39.5563 42.5451C41.7426 44.4004 42.8837 45.4539 42.8837 47.264C42.8788 49.8608 40.8495 52.0031 38.2568 52.1484ZM45.3556 49.644L45.3274 49.6638C45.5812 48.8905 45.711 48.082 45.712 47.2682C45.712 44.0653 43.6106 42.2806 41.3876 40.3927C40.6 39.7253 39.7868 39.0352 38.9751 38.2234L37.9739 37.2236L36.9741 38.2234C36.0578 39.1384 35.1612 39.902 34.3707 40.5751C32.1534 42.4616 30.2372 44.0921 30.2372 47.2682C30.2402 48.117 30.3836 48.9594 30.6615 49.7613C27.6776 47.47 25.936 43.9158 25.9539 40.1537C25.9306 37.6723 26.8911 35.2825 28.6251 33.5073C28.9238 34.1133 29.2779 34.6903 29.6829 35.2312C30.2874 36.0469 31.3189 36.4253 32.3076 36.1942C33.3126 35.9704 34.094 35.1796 34.3057 34.172C34.8979 30.9218 36.1785 27.836 38.0617 25.1215C39.5535 26.5357 41.0313 27.7872 42.3648 28.9199C46.7939 32.6815 50.0012 35.3994 50.0012 40.1622C50.0082 43.8728 48.2913 47.3761 45.3543 49.644H45.3556Z" fill="#F07E59"/>
</svg>
