<svg width="57" height="57" viewBox="0 0 57 57" fill="none" xmlns="http://www.w3.org/2000/svg">
<g clip-path="url(#clip0_721_21908)">
<path d="M38.8642 9.69833C36.0504 7.31367 33.1522 4.83987 30.219 1.91599L28.5471 0.255859L26.9057 1.9183C21.6253 7.21287 19.1304 15.3423 18.0472 20.2195C17.218 18.9342 16.6027 17.5231 16.2253 16.0411L15.2334 12.2121L12.3494 14.9227C7.29616 19.666 3.92671 24.3721 3.92671 31.9082C3.82965 43.0924 11.3534 52.9089 22.1786 55.7219C23.7638 56.1075 25.3818 56.343 27.0112 56.4253C27.5464 56.464 29.0792 56.5026 29.3419 56.4862C42.6226 56.0868 53.1784 45.1995 53.1673 31.9128C53.1673 21.8444 46.5386 16.2168 38.8642 9.69833ZM29.0012 51.7663C28.7557 51.7876 28.5325 51.7898 28.2842 51.7874C23.8995 51.6534 20.4116 48.0659 20.4009 43.6793C20.4009 40.7079 21.9945 39.2268 25.6009 36.157C26.5101 35.3837 27.4991 34.5424 28.5396 33.5792C29.4512 34.4064 30.3369 35.1563 31.1548 35.8523C34.7777 38.9268 36.6688 40.6726 36.6688 43.6722C36.6606 47.9754 33.2977 51.5254 29.0012 51.7663ZM40.7651 47.6161L40.7182 47.6489C41.1388 46.3675 41.3539 45.0278 41.3556 43.6792C41.3556 38.3714 37.8732 35.4139 34.1895 32.2855C32.8842 31.1794 31.5367 30.0359 30.1917 28.6907L28.5325 27.0338L26.8757 28.6907C25.3572 30.2069 23.8715 31.4723 22.5615 32.5878C18.887 35.7139 15.7117 38.4158 15.7117 43.6792C15.7166 45.0856 15.9542 46.4817 16.4148 47.8106C11.47 44.0136 8.58401 38.1238 8.61361 31.8894C8.57509 27.7773 10.1667 23.8171 13.0403 20.8754C13.5352 21.8796 14.122 22.8359 14.7932 23.7321C15.7949 25.0839 17.5042 25.711 19.1425 25.3279C20.8081 24.9571 22.103 23.6467 22.4538 21.9769C23.435 16.5908 25.5573 11.4772 28.6779 6.97902C31.1502 9.32242 33.5991 11.3963 35.8089 13.2735C43.1484 19.5069 48.4633 24.0109 48.4633 31.9035C48.475 38.0525 45.6298 43.858 40.7629 47.6161H40.7651Z" fill="white" fill-opacity="0.6"/>
</g>
<defs>
<clipPath id="clip0_721_21908">
<rect x="0.40625" y="0.150391" width="56.3427" height="56.3427" rx="21" fill="white"/>
</clipPath>
</defs>
</svg>
