<svg width="76" height="76" viewBox="0 0 76 76" fill="none" xmlns="http://www.w3.org/2000/svg">
<circle cx="38" cy="38" r="30" fill="white"/>
<circle cx="38" cy="38" r="34" stroke="white" stroke-opacity="0.1" stroke-width="8"/>
<path d="M54 34.6667C54 36.0854 53.6587 37.6067 52.984 39.1894C52.768 39.696 52.276 40.0014 51.7573 40.0014C51.5827 40.0014 51.4053 39.9667 51.2347 39.8934C50.556 39.6054 50.2413 38.8214 50.5307 38.144C51.0627 36.8934 51.3333 35.724 51.3333 34.6667C51.3333 31.0534 48.5853 28 45.3333 28C42.3533 28 40.656 29.2067 39.512 30.2587L34.4133 34.9907C33.9427 35.4627 33.8307 36.256 34.196 36.764C34.4347 37.096 34.7853 37.296 35.1813 37.328C35.5747 37.364 35.956 37.22 36.232 36.9414L41.796 31.6147C42.324 31.1067 43.1707 31.124 43.6813 31.656C44.1907 32.188 44.172 33.032 43.64 33.5414L41.9893 35.1214L48.3187 40.676C49.8013 41.9774 50.1667 44.1627 49.168 45.7587C48.5533 46.74 47.5493 47.4 46.4147 47.5667C46.3373 47.5774 46.2613 47.5867 46.184 47.5934C46.1787 48.28 45.996 48.96 45.6213 49.56C45.0067 50.5414 44.0027 51.2014 42.868 51.368C42.6213 51.4027 42.376 51.4174 42.1307 51.4054C42.0587 51.9147 41.8853 52.4107 41.604 52.86C40.9893 53.8414 39.9987 54.7094 38.2813 54.7094C37.3387 54.7094 36.424 54.3694 35.7067 53.7387L31.568 50.0267C27.2013 46.08 22 40.2147 22 34.6667C22 29.52 25.888 25.3334 30.6667 25.3334C31.768 25.3334 32.844 25.5574 33.8627 26C34.5387 26.2934 34.8493 27.0787 34.556 27.7534C34.2627 28.428 33.4773 28.7374 32.8027 28.4467C32.12 28.1507 31.4013 28.0014 30.6653 28.0014C27.4133 28.0014 24.6653 31.0547 24.6653 34.668C24.6653 38.2334 27.7493 42.984 33.352 48.0467L37.4773 51.7454C37.74 51.976 38.104 52.0827 38.464 52.0307C38.8293 51.9774 39.1427 51.7707 39.344 51.4467C39.6507 50.9547 39.4987 50.224 38.996 49.784L34.72 45.7187C34.188 45.212 34.1653 44.3694 34.6707 43.8347C35.1773 43.3014 36.02 43.2787 36.5547 43.7827L41.5173 48.468C41.756 48.676 42.1253 48.7854 42.48 48.7294C42.8453 48.676 43.1587 48.468 43.36 48.1454C43.6667 47.6534 43.5147 46.9227 43.012 46.4814L38.2653 42.184C37.7213 41.692 37.6773 40.8507 38.168 40.3054C38.6573 39.76 39.4987 39.712 40.0467 40.2L45.036 44.64C45.3027 44.8747 45.668 44.984 46.0267 44.928C46.392 44.8747 46.7053 44.6667 46.9067 44.344C47.2133 43.852 47.0613 43.1214 46.5587 42.68L40.0547 36.972L38.0947 38.848C37.2853 39.6587 36.1427 40.08 34.964 39.9867C33.7933 39.892 32.7227 39.2854 32.0293 38.3214C30.9027 36.756 31.1307 34.4987 32.56 33.0694L37.7 28.2987C39.0893 27.0227 41.3853 25.332 45.3307 25.332C50.1093 25.332 53.9973 29.5187 53.9973 34.6654L54 34.6667Z" fill="#D96D99"/>
</svg>
