<svg width="375" height="320" viewBox="0 0 375 320" fill="none" xmlns="http://www.w3.org/2000/svg">
<path d="M0 0H375V300C375 311.046 366.046 320 355 320H20C8.95431 320 0 311.046 0 300V0Z" fill="black"/>
<mask id="mask0_721_22224" style="mask-type:luminance" maskUnits="userSpaceOnUse" x="0" y="0" width="375" height="320">
<path d="M0 0H375V300C375 311.046 366.046 320 355 320H20C8.95431 320 0 311.046 0 300V0Z" fill="white"/>
</mask>
<g mask="url(#mask0_721_22224)">
<rect x="-81.1602" y="-170" width="435.433" height="613.223" fill="url(#paint0_linear_721_22224)"/>
<rect x="-228.164" y="-169.883" width="612.457" height="612.987" fill="url(#paint1_linear_721_22224)"/>
<path d="M158.832 167.404C189.327 140.574 220.439 114.438 252.169 88.998C257.088 97.7893 262.028 106.583 266.991 115.379C267.596 116.448 268.26 117.59 269.367 118.121C271.661 119.249 274.162 117.274 276.464 116.161C283.768 112.622 292.216 117.878 298.037 123.532C319.728 144.539 331.429 173.508 342.547 201.577L281.061 202.218C240.047 202.645 197.839 202.867 159.658 187.881C156.832 186.776 153.933 185.508 151.978 183.193C150.023 180.879 149.322 177.215 151.24 174.834C152.642 173.065 155.003 172.454 156.98 171.37C158.957 170.286 160.794 168.009 159.88 165.952L158.832 167.404Z" fill="#FF9CC4"/>
<path d="M65.1188 209.537C78.6572 201.038 92.0406 191.677 101.661 178.91C111.857 165.384 117.258 148.748 127.344 135.133C128.47 133.447 129.91 131.994 131.586 130.851C134.603 129.022 137.864 129.244 141.022 130.593C149.093 134.042 158.5 131.403 164.056 124.607C168.246 119.447 172.695 114.229 176.723 109.533C180.417 105.233 185.718 102.64 191.383 102.361C197.048 102.082 202.578 104.143 206.677 108.059C209.71 111.008 212.491 113.779 214.284 115.858C224.738 127.939 235.635 139.644 246.525 151.335C253.903 159.229 261.222 167.116 268.85 174.731C288.542 194.389 310.277 212.382 326.198 235.174C307.237 240.333 288.144 245.493 268.563 247.1C242.999 249.223 217.353 245.257 191.7 244.749C168.829 244.299 145.958 246.591 123.087 246.4C90.9025 246.226 58.965 240.778 28.5469 230.272C29.7273 223.122 35.4156 217.358 41.9303 214.166C48.4449 210.974 55.7637 209.913 62.9497 208.903C65.0303 208.608 67.1108 208.313 69.2062 208.217L65.1188 209.537Z" fill="#FF9CC4"/>
<path d="M-167.135 323.391C-155.552 309.799 -143.966 296.197 -132.378 282.585C-125.214 274.182 -117.474 265.381 -106.924 262.101C-96.3739 258.821 -82.4593 263.855 -80.4672 274.713C-69.186 255.138 -56.7547 236.247 -43.2387 218.14C-38.1423 219.401 -33.6355 222.376 -30.475 226.565C6.25926 185.073 36.8109 145.254 64.5073 100.748C77.2046 80.3444 107.83 83.6614 115.85 106.305L116.115 107.043C118.329 113.249 124.061 117.288 130.628 117.782C134.159 118.038 137.489 119.525 140.034 121.984C145.309 127.306 147.036 135.053 149.817 142.011C152.599 148.969 157.734 156.141 165.2 156.753C168.151 156.996 171.324 156.141 174.12 157.195C177.388 158.426 179.188 161.839 180.708 164.979C214.927 235.742 249.143 306.504 283.356 377.267C143.458 380.458 3.27861 383.643 -136.244 372.932C-152.438 371.694 -172.093 367.64 -176.977 352.168C-181.241 338.649 -171.141 325.124 -161.299 314.915L-167.135 323.391Z" fill="#D96D99"/>
<path d="M-279.691 241.529C-247.435 238.131 -215.143 229.735 -191.652 213.15C-185.233 208.624 -179.559 203.568 -173.384 198.85C-166.434 193.565 -158.864 188.744 -151.302 183.931L-126.262 167.987C-121.695 165.076 -117.121 162.164 -112.17 159.614C-106.46 156.665 -100.174 154.159 -95.6953 150.238C-91.4014 146.464 -89.1364 141.695 -85.7795 137.442C-81.8324 132.437 -76.4023 128.169 -71.0238 123.945L-37.3292 97.5197C-33.6403 94.6524 -28.9185 91.527 -23.7245 92.4558C-18.6707 93.3624 -16.3466 97.564 -12.6135 100.203C-7.44897 103.888 0.666626 104.53 5.97867 108.09C12.4564 112.417 13.4156 120.053 20.181 124.137C23.8036 126.348 28.6287 127.181 32.3323 129.296C36.036 131.412 38.2346 134.456 40.3742 137.478C47.2061 147.085 54.0404 156.685 60.8772 166.277C80.6129 168.489 104.311 172.793 111.703 186.4C114.189 190.978 114.603 196.344 119.015 200.066C127.447 207.194 145.14 204.165 153.69 211.219C156.273 213.342 157.623 216.128 159.998 218.376C164.204 222.364 171.021 224.221 177.137 226.484C212.499 239.752 228.568 270.32 258.227 289.713C273.211 299.517 291.354 306.254 308.256 314.2C313.981 316.891 320.216 322.264 315.87 326.105C313.871 327.874 310.425 328.257 307.304 328.471C279.792 330.417 252.081 329.451 224.466 328.625C76.078 324.203 -72.3961 323.977 -220.956 327.947C-276.548 329.422 -333.173 331.434 -386.869 320.79C-386.5 312.586 -378.96 305.311 -369.856 300.578C-360.752 295.846 -350.068 293.016 -339.88 289.64L-279.691 241.529Z" fill="#FF9CC4"/>
<path d="M491.891 224.966C485.376 221.767 478.05 220.713 470.864 219.703C469.602 219.526 468.333 219.349 467.064 219.216C454.094 210.99 441.404 201.887 432.182 189.651C421.993 176.117 416.585 159.481 406.5 145.866C405.377 144.178 403.936 142.723 402.258 141.584C399.247 139.756 395.986 139.977 392.829 141.326C390.221 142.434 387.396 142.938 384.565 142.8C377.844 135.503 371.182 128.161 364.69 120.687C362.897 118.608 360.108 115.807 357.083 112.888C352.989 108.967 347.461 106.9 341.797 107.172C336.132 107.444 330.828 110.031 327.129 114.326C323.093 119.021 318.652 124.269 314.461 129.399C308.906 136.196 299.499 138.834 291.42 135.385C288.263 134.036 285.002 133.815 281.991 135.643C280.313 136.782 278.872 138.236 277.749 139.925C267.664 153.54 262.256 170.147 252.067 183.71C242.845 195.946 230.155 205.049 217.192 213.275C215.915 213.408 214.654 213.585 213.385 213.762C206.199 214.771 198.873 215.825 192.358 219.025C185.843 222.224 180.162 227.98 178.975 235.13C188.886 238.592 198.985 241.494 209.224 243.821C208.7 244.558 208.161 245.295 207.652 246.032C226.613 251.192 245.7 256.352 265.281 257.959C290.845 260.081 316.498 256.116 342.143 255.607C365.014 255.158 387.886 257.457 410.757 257.258C442.944 257.089 474.884 251.64 505.304 241.13C504.086 233.936 498.406 228.157 491.891 224.966Z" fill="#FF9CC4"/>
<path d="M402.839 150.833C407.554 145.305 390.112 143.757 382.875 144.413C375.637 145.069 368.687 147.538 361.479 148.607C344.643 151.121 327.762 145.88 311.206 141.914C303.091 139.975 294.105 138.435 286.808 142.467C283.185 144.472 280.374 147.671 276.914 149.949C265.67 157.32 249.911 153.229 239.693 144.479C238.885 143.649 237.891 143.023 236.794 142.651C234.661 142.135 232.655 143.69 230.773 144.826C221.92 150.177 210.285 146.808 201.387 141.494C196.584 138.619 190.962 135.088 185.82 137.307C184.344 137.956 182.994 139.076 181.393 139.386C178.708 139.894 176.229 138.029 173.595 137.226C169.906 136.106 165.959 137.115 162.24 138.125C155.364 139.998 148.37 141.929 142.394 145.799C136.418 149.668 131.659 155.462 126.901 160.924C100.026 191.8 67.3242 217.08 30.6641 235.32C65.9301 258.908 109.961 256.048 151.476 264.805C165.442 267.753 179.032 272.316 193.021 275.161C228.914 282.481 266.01 278.346 302.641 278.434C322.782 278.486 343.16 279.805 362.866 275.662C376.072 272.891 388.637 267.738 401.386 263.316C410.306 260.22 419.594 257.345 426.854 251.316C434.114 245.286 438.88 235.099 435.56 226.254C434.084 222.392 431.318 219.215 429.222 215.662C424.796 208.099 423.593 199.128 421.306 190.652L402.839 150.833Z" fill="#D96D99"/>
<path d="M8.55267 226.167C13.2597 224.582 18.0332 222.938 23.0059 222.754C29.0335 222.54 34.8989 224.493 40.8233 225.702C55.3546 228.569 70.4195 226.816 83.9025 220.69C92.4535 216.783 100.997 211.004 110.323 212.147C114.211 212.619 117.833 214.292 121.456 215.773C137.134 222.208 153.918 225.481 170.541 228.717C195.994 233.67 221.632 238.639 247.565 238.823C273.498 239.007 300.029 234.076 322.163 220.587C327.504 217.329 333.834 213.444 339.559 215.965C343.152 217.55 345.27 221.243 348.236 223.808C354.064 228.842 362.505 229.108 370.207 228.901C396.622 228.215 422.916 225.084 448.751 219.547C456.343 217.918 464.459 216.12 471.674 219.002C475.799 220.646 479.185 223.668 482.616 226.476C498.546 239.492 517.128 248.878 537.064 253.978C568.516 261.99 594.021 284.103 624.123 296.317C606.957 305.761 587.934 311.345 568.383 312.681C566.553 312.806 564.421 313.064 563.484 314.642C562.946 315.534 562.938 316.691 562.304 317.524C561.566 318.526 543.859 362.989 542.62 363.136C497.489 368.502 431.406 358.758 419.093 357.424C396.389 354.957 373.508 354.54 350.729 356.178C337.582 357.129 325.778 352.581 312.881 349.854C310.712 349.396 308.034 348.306 308.071 346.094C312.707 345.002 316.831 342.36 319.757 338.605C320.419 337.886 320.823 336.969 320.908 335.996C320.908 334.566 319.713 333.453 318.555 332.613C308.585 325.586 295.506 324.765 284.735 330.49C281.046 332.509 277.822 335.244 274.288 337.514C267.876 341.633 260.58 344.179 252.995 344.944C252.351 344.994 251.732 345.215 251.202 345.586C248.827 347.362 251.202 350.627 251.881 353.362C253.084 358.389 247.786 362.421 243.109 364.618C226.281 372.529 207.908 376.617 189.31 376.588C96.6957 376.397 7.23941 373.566 -85.1459 380.09C-95.6962 356.325 -93.2615 328.264 -83.3236 304.256C-82.9694 303.394 -82.5858 302.546 -82.2316 301.691C-66.9448 266.936 -36.9981 240.739 -0.809814 229.167L8.55267 226.167Z" fill="#CA5D89"/>
<path d="M-191.961 266.951C-185.137 247.676 -175.464 230.014 -163.579 215.147C-162.17 219.993 -161.294 224.979 -160.967 230.014L-157.042 226.366C-152.47 231.745 -149.079 238.023 -147.089 244.793C-145.983 242.563 -144.881 240.332 -143.784 238.101C-139.259 242.784 -135.828 248.41 -133.735 254.575C-128.61 239.341 -123.485 224.125 -118.36 208.926C-107.087 229.064 -101.052 253.779 -101.391 278.42L-94.6623 257.133L-92.6924 265.772C-91.0546 263.098 -89.4142 260.42 -87.7714 257.737C-84.5645 268.759 -81.6134 279.887 -78.918 291.121C-75.7115 287.635 -73.2712 283.517 -71.7541 279.032C-70.9721 282.084 -70.1949 285.131 -69.4227 288.172L-65.5494 284L-61.4547 291.828C-56.1382 283.41 -51.5592 274.549 -47.7688 265.344C-46.886 275.635 -44.5768 285.754 -40.9074 295.411C-39.0235 288.22 -36.6547 281.164 -33.8173 274.293C-31.5981 281.182 -30.1579 288.297 -29.5234 295.507L-25.1926 288.489C-22.3582 293.845 -20.2257 299.543 -18.8476 305.443C-15.4637 297.163 -12.0822 288.882 -8.70311 280.602C-7.86203 284.848 -7.01849 289.096 -6.1725 293.347C-4.53954 288.85 -2.90659 284.352 -1.27362 279.85C2.49168 290.493 5.3642 301.43 7.31419 312.549L15.5995 301.949L21.5018 314.155L26.0686 307.883L33.026 324.409C38.2505 321.154 43.0914 317.321 47.457 312.983L58.3024 351.556L69.5094 328.286L73.9361 335.568C73.9361 335.568 78.7464 323.111 83.3059 314.775C83.3059 314.775 93.5242 346.839 97.0435 362.967C100.394 361.466 103.171 358.925 104.96 355.721C107.066 363.986 110.367 371.899 114.758 379.213C118.001 375.468 120.872 371.417 123.331 367.117C126.558 372.101 128.948 377.579 130.406 383.333L134.302 379.559L139.208 388.404L146.423 379.913C149.445 382.45 151.834 385.655 153.403 389.274L156.612 383.864C159.383 386.118 161.52 389.051 162.817 392.377L171.316 386.429C177.995 419.764 187.422 452.49 199.5 484.273C84.3388 486.528 -30.7555 477.639 -145.71 468.749C-158.901 467.732 -173.804 465.609 -181.772 452.312C-186.937 443.636 -187.889 432.159 -188.619 421.353C-190.434 394.419 -192.205 366.807 -186.494 340.758C-184.037 329.532 -180.194 318.593 -179.854 306.954C-179.448 292.949 -184.547 278.885 -193.193 270.098L-191.961 266.951Z" fill="#D96D99"/>
<path d="M-276.245 266.951C-269.724 248.23 -260.132 230.724 -247.862 215.147C-246.455 219.994 -245.577 224.979 -245.243 230.014L-241.326 226.366C-236.751 231.744 -233.358 238.022 -231.366 244.793L-228.068 238.101C-223.54 242.782 -220.108 248.409 -218.019 254.575L-202.636 208.926C-191.37 229.064 -185.335 253.779 -185.667 278.42L-178.939 257.133L-176.947 265.786L-172.026 257.752C-168.819 268.774 -165.868 279.902 -163.172 291.136C-159.96 287.653 -157.517 283.534 -156.001 279.047C-155.229 282.099 -154.452 285.145 -153.669 288.187L-149.803 284.015L-145.709 291.843C-140.393 283.424 -135.811 274.563 -132.016 265.359C-131.135 275.65 -128.829 285.769 -125.161 295.425C-123.296 288.229 -120.942 281.169 -118.116 274.293C-115.904 281.184 -114.463 288.298 -113.822 295.507L-109.513 288.482C-106.679 293.838 -104.546 299.536 -103.168 305.435C-99.7842 297.155 -96.4027 288.875 -93.0236 280.595C-92.1776 284.841 -91.3341 289.089 -90.493 293.339C-88.8601 288.843 -87.2271 284.344 -85.5941 279.843C-81.8288 290.486 -78.9563 301.423 -77.0063 312.541C-74.247 309.013 -71.4853 305.48 -68.721 301.942L-62.8188 314.148C-61.294 312.06 -59.7717 309.969 -58.2519 307.875C-55.9254 313.379 -53.6038 318.888 -51.2872 324.401C-46.0663 321.144 -41.2281 317.312 -36.8635 312.976L-26.0181 351.549L-14.7743 328.286L-10.3476 335.568C-10.3476 335.568 -5.5372 323.111 -0.977692 314.775C-0.977692 314.775 9.2406 346.839 12.7598 362.967C16.1108 361.466 18.8873 358.925 20.6763 355.721C22.7826 363.986 26.0832 371.899 30.474 379.213C33.7107 375.459 36.5722 371.398 39.0176 367.087C42.2477 372.07 44.6379 377.548 46.0929 383.304L49.9884 379.53L54.8947 388.375L62.1176 379.883C65.1368 382.421 67.5237 385.626 69.0896 389.245L72.299 383.834C75.0718 386.086 77.2102 389.02 78.5038 392.348L87.0104 386.399C93.6898 419.756 103.124 452.502 115.216 484.302C0.0551758 486.558 -115.039 477.668 -229.993 468.779C-243.185 467.762 -258.088 465.639 -266.056 452.341C-271.221 443.665 -272.172 432.189 -272.903 421.383C-274.718 394.449 -276.488 366.837 -270.778 340.787C-268.321 329.561 -264.477 318.622 -264.138 306.983C-263.739 292.978 -268.838 278.914 -277.484 270.128L-276.245 266.951Z" fill="#CE0054"/>
</g>
<defs>
<linearGradient id="paint0_linear_721_22224" x1="335.761" y1="412.869" x2="335.761" y2="-148.204" gradientUnits="userSpaceOnUse">
<stop stop-color="#E4E4E4"/>
<stop offset="0.2" stop-color="#DEDEDE"/>
<stop offset="0.77" stop-color="#D2D2D2"/>
<stop offset="0.81" stop-color="#CDCDCD"/>
<stop offset="0.88" stop-color="#BDBDBD"/>
<stop offset="0.95" stop-color="#A3A3A3"/>
<stop offset="1" stop-color="#8A8A8A"/>
</linearGradient>
<linearGradient id="paint1_linear_721_22224" x1="17.8634" y1="-2.48411" x2="17.8634" y2="118.029" gradientUnits="userSpaceOnUse">
<stop stop-color="#D96D99"/>
<stop offset="1" stop-color="#EF87B1"/>
</linearGradient>
</defs>
</svg>
