<svg width="56" height="56" viewBox="0 0 56 56" fill="none" xmlns="http://www.w3.org/2000/svg">
<path d="M56 18.6657C56 21.1484 55.4027 23.8107 54.222 26.5804C53.844 27.4671 52.983 28.0014 52.0753 28.0014C51.7697 28.0014 51.4593 27.9407 51.1607 27.8124C49.973 27.3084 49.4223 25.9364 49.9287 24.7511C50.8597 22.5624 51.3333 20.5161 51.3333 18.6657C51.3333 12.3424 46.5243 6.99908 40.8333 6.99908C35.6183 6.99908 32.648 9.11074 30.646 10.9517L21.7233 19.2327C20.8997 20.0587 20.7037 21.4471 21.343 22.3361C21.7607 22.9171 22.3743 23.2671 23.0673 23.3231C23.7557 23.3861 24.423 23.1341 24.906 22.6464L34.643 13.3247C35.567 12.4357 37.0487 12.4661 37.9423 13.3971C38.8337 14.3281 38.801 15.8051 37.87 16.6964L34.9813 19.4614L46.0577 29.1821C48.6523 31.4594 49.2917 35.2837 47.544 38.0767C46.4683 39.7941 44.7113 40.9491 42.7257 41.2407C42.5903 41.2594 42.4573 41.2757 42.322 41.2874C42.3127 42.4891 41.993 43.6791 41.3373 44.7291C40.2617 46.4464 38.5047 47.6014 36.519 47.8931C36.0873 47.9537 35.658 47.9794 35.2287 47.9584C35.1027 48.8497 34.7993 49.7177 34.307 50.5041C33.2313 52.2214 31.4977 53.7404 28.4923 53.7404C26.8427 53.7404 25.242 53.1454 23.9867 52.0417L16.744 45.5457C9.10233 38.6391 0 28.3747 0 18.6657C0 9.65908 6.804 2.33241 15.1667 2.33241C17.094 2.33241 18.977 2.72441 20.7597 3.49908C21.9427 4.01241 22.4863 5.38674 21.973 6.56741C21.4597 7.74808 20.0853 8.28941 18.9047 7.78074C17.71 7.26274 16.4523 7.00141 15.1643 7.00141C9.47333 7.00141 4.66433 12.3447 4.66433 18.6681C4.66433 24.9074 10.0613 33.2211 19.866 42.0807L27.0853 48.5534C27.545 48.9571 28.182 49.1437 28.812 49.0527C29.4513 48.9594 29.9997 48.5977 30.352 48.0307C30.8887 47.1697 30.6227 45.8911 29.743 45.1211L22.26 38.0067C21.329 37.1201 21.2893 35.6454 22.1737 34.7097C23.0603 33.7764 24.535 33.7367 25.4707 34.6187L34.1553 42.8181C34.573 43.1821 35.2193 43.3734 35.84 43.2754C36.4793 43.1821 37.0277 42.8181 37.38 42.2534C37.9167 41.3924 37.6507 40.1137 36.771 39.3414L28.4643 31.8211C27.5123 30.9601 27.4353 29.4877 28.294 28.5334C29.1503 27.5791 30.6227 27.4951 31.5817 28.3491L40.313 36.1191C40.7797 36.5297 41.419 36.7211 42.0467 36.6231C42.686 36.5297 43.2343 36.1657 43.5867 35.6011C44.1233 34.7401 43.8573 33.4614 42.9777 32.6891L31.5957 22.7001L28.1657 25.9831C26.7493 27.4017 24.7497 28.1391 22.687 27.9757C20.6383 27.8101 18.7647 26.7484 17.5513 25.0614C15.5797 22.3221 15.9787 18.3717 18.48 15.8704L27.475 7.52174C29.9063 5.28874 33.9243 2.33008 40.8287 2.33008C49.1913 2.33008 55.9953 9.65674 55.9953 18.6634L56 18.6657Z" fill="white" fill-opacity="0.6"/>
</svg>
