<svg width="62" height="62" viewBox="0 0 62 62" fill="none" xmlns="http://www.w3.org/2000/svg">
<mask id="mask0_721_21920" style="mask-type:luminance" maskUnits="userSpaceOnUse" x="3" y="3" width="56" height="56">
<path d="M58.8996 3.10156H3.09961V58.9015H58.8996V3.10156Z" fill="white"/>
<path d="M38.4117 31.0012C38.4117 35.0941 35.0938 38.4121 31.0008 38.4121C26.9078 38.4121 23.5898 35.0941 23.5898 31.0012C23.5898 26.9083 26.9078 23.5902 31.0008 23.5902C35.0938 23.5902 38.4117 26.9083 38.4117 31.0012Z" fill="white"/>
<path d="M49.5722 15.7129C47.7589 15.7129 46.2891 14.2429 46.2891 12.4297C46.2891 10.6165 47.7589 9.14659 49.5722 9.14659C51.3855 9.14659 52.8554 10.6165 52.8554 12.4297C52.8554 14.2429 51.3855 15.7129 49.5722 15.7129Z" fill="white"/>
<path d="M12.4277 52.8574C10.6144 52.8574 9.14453 51.3876 9.14453 49.5743C9.14453 47.7611 10.6144 46.2911 12.4277 46.2911C14.241 46.2911 15.7108 47.7611 15.7108 49.5743C15.7108 51.3876 14.241 52.8574 12.4277 52.8574Z" fill="white"/>
<path d="M34.2831 14.586C34.2831 16.3993 32.8131 17.8691 31 17.8691C29.1867 17.8691 27.7168 16.3993 27.7168 14.586C27.7168 12.7727 29.1867 11.3028 31 11.3028C32.8131 11.3028 34.2831 12.7727 34.2831 14.586Z" fill="white"/>
<path d="M45.8905 42.6094C45.8905 44.4227 44.4207 45.8926 42.6074 45.8926C40.7941 45.8926 39.3242 44.4227 39.3242 42.6094C39.3242 40.7963 40.7941 39.3263 42.6074 39.3263C44.4207 39.3263 45.8905 40.7963 45.8905 42.6094Z" fill="white"/>
</mask>
<g mask="url(#mask0_721_21920)">
<mask id="mask1_721_21920" style="mask-type:luminance" maskUnits="userSpaceOnUse" x="3" y="3" width="56" height="56">
<path d="M3.09961 3.10043H58.8996V58.9004H3.09961V3.10043Z" fill="white"/>
</mask>
<g mask="url(#mask1_721_21920)">
<path d="M14.8887 51.7445C19.3371 55.2043 24.9269 57.2656 30.9988 57.2656C45.5046 57.2656 57.2638 45.5064 57.2638 31.0007C57.2638 24.9288 55.2024 19.3389 51.7426 14.8905" stroke="white" stroke-opacity="0.6" stroke-width="2.10937" stroke-miterlimit="10"/>
<path d="M47.1102 10.2572C42.6618 6.79705 37.0716 4.7355 30.9993 4.7355C16.4936 4.7355 4.73438 16.4947 4.73438 31.0004C4.73438 37.0727 6.79592 42.6628 10.2561 47.1113" stroke="white" stroke-opacity="0.6" stroke-width="2.10937" stroke-miterlimit="10"/>
<path d="M38.4098 31.0012C38.4098 35.0941 35.0918 38.4121 30.9988 38.4121C26.9058 38.4121 23.5879 35.0941 23.5879 31.0012C23.5879 26.9083 26.9058 23.5902 30.9988 23.5902C35.0918 23.5902 38.4098 26.9083 38.4098 31.0012Z" fill="white" fill-opacity="0.6"/>
<path d="M49.5722 15.7109C47.7589 15.7109 46.2891 14.241 46.2891 12.4278C46.2891 10.6145 47.7589 9.14463 49.5722 9.14463C51.3855 9.14463 52.8554 10.6145 52.8554 12.4278C52.8554 14.241 51.3855 15.7109 49.5722 15.7109Z" fill="white" fill-opacity="0.6"/>
<path d="M12.4277 52.8574C10.6144 52.8574 9.14453 51.3875 9.14453 49.5743C9.14453 47.7611 10.6144 46.2911 12.4277 46.2911C14.241 46.2911 15.7108 47.7611 15.7108 49.5743C15.7108 51.3875 14.241 52.8574 12.4277 52.8574Z" fill="white" fill-opacity="0.6"/>
<path d="M34.2831 14.586C34.2831 16.3993 32.8131 17.8691 31 17.8691C29.1867 17.8691 27.7168 16.3993 27.7168 14.586C27.7168 12.7727 29.1867 11.3028 31 11.3028C32.8131 11.3028 34.2831 12.7727 34.2831 14.586Z" fill="white" fill-opacity="0.6"/>
<path d="M45.8905 42.6094C45.8905 44.4227 44.4207 45.8926 42.6074 45.8926C40.7941 45.8926 39.3242 44.4227 39.3242 42.6094C39.3242 40.7963 40.7941 39.3263 42.6074 39.3263C44.4207 39.3263 45.8905 40.7963 45.8905 42.6094Z" fill="white" fill-opacity="0.6"/>
<path d="M49.5722 15.7109C47.7589 15.7109 46.2891 14.241 46.2891 12.4278C46.2891 10.6145 47.7589 9.14463 49.5722 9.14463C51.3855 9.14463 52.8554 10.6145 52.8554 12.4278C52.8554 14.241 51.3855 15.7109 49.5722 15.7109Z" stroke="white" stroke-opacity="0.6" stroke-width="1.40625" stroke-miterlimit="10"/>
<path d="M12.4277 52.8574C10.6144 52.8574 9.14453 51.3875 9.14453 49.5743C9.14453 47.7611 10.6144 46.2911 12.4277 46.2911C14.241 46.2911 15.7108 47.7611 15.7108 49.5743C15.7108 51.3875 14.241 52.8574 12.4277 52.8574Z" stroke="white" stroke-opacity="0.6" stroke-width="1.40625" stroke-miterlimit="10"/>
<path d="M34.2831 14.586C34.2831 16.3993 32.8131 17.8691 31 17.8691C29.1867 17.8691 27.7168 16.3993 27.7168 14.586C27.7168 12.7727 29.1867 11.3028 31 11.3028C32.8131 11.3028 34.2831 12.7727 34.2831 14.586Z" stroke="white" stroke-opacity="0.6" stroke-width="1.40625" stroke-miterlimit="10"/>
<path d="M27.7334 14.9113C20.2322 16.426 14.584 23.0541 14.584 31.0019C14.584 40.0683 21.9337 47.418 31.0001 47.418C34.3519 47.418 37.4685 46.4125 40.0666 44.688" stroke="white" stroke-opacity="0.6" stroke-width="2.10937" stroke-miterlimit="10"/>
<path d="M44.6864 40.0664C46.4108 37.4684 47.4163 34.3518 47.4163 31C47.4163 23.0524 41.7685 16.4244 34.2676 14.9096" stroke="white" stroke-opacity="0.6" stroke-width="2.10937" stroke-miterlimit="10"/>
<path d="M45.8905 42.6094C45.8905 44.4227 44.4207 45.8926 42.6074 45.8926C40.7941 45.8926 39.3242 44.4227 39.3242 42.6094C39.3242 40.7963 40.7941 39.3263 42.6074 39.3263C44.4207 39.3263 45.8905 40.7963 45.8905 42.6094Z" stroke="white" stroke-opacity="0.6" stroke-width="1.40625" stroke-miterlimit="10"/>
</g>
</g>
</svg>
