<svg width="375" height="320" viewBox="0 0 375 320" fill="none" xmlns="http://www.w3.org/2000/svg">
<path d="M0 0H375V300C375 311.046 366.046 320 355 320H20C8.95431 320 0 311.046 0 300V0Z" fill="black"/>
<mask id="mask0_766_20620" style="mask-type:luminance" maskUnits="userSpaceOnUse" x="0" y="0" width="375" height="320">
<path d="M0 0H375V300C375 311.046 366.046 320 355 320H20C8.95431 320 0 311.046 0 300V0Z" fill="white"/>
</mask>
<g mask="url(#mask0_766_20620)">
<rect x="-81.1621" y="-170" width="435.433" height="613.223" fill="url(#paint0_linear_766_20620)"/>
<rect x="-228.166" y="-169.883" width="612.457" height="612.987" fill="url(#paint1_linear_766_20620)"/>
<path d="M158.832 167.404C189.327 140.574 220.439 114.438 252.169 88.998C257.088 97.7893 262.028 106.583 266.991 115.379C267.596 116.448 268.26 117.59 269.367 118.121C271.661 119.249 274.162 117.274 276.464 116.161C283.768 112.622 292.216 117.878 298.037 123.532C319.728 144.539 331.429 173.508 342.547 201.577L281.061 202.218C240.047 202.645 197.839 202.867 159.658 187.881C156.832 186.776 153.933 185.508 151.978 183.193C150.023 180.879 149.322 177.215 151.24 174.834C152.642 173.065 155.003 172.454 156.98 171.37C158.957 170.286 160.794 168.009 159.88 165.952L158.832 167.404Z" fill="#B972B3"/>
<path d="M65.1188 209.537C78.6572 201.038 92.0406 191.677 101.661 178.91C111.857 165.384 117.258 148.748 127.344 135.133C128.47 133.447 129.91 131.994 131.586 130.851C134.603 129.022 137.864 129.244 141.022 130.593C149.093 134.042 158.5 131.403 164.056 124.607C168.246 119.447 172.695 114.229 176.723 109.533C180.417 105.233 185.718 102.64 191.383 102.361C197.048 102.082 202.578 104.143 206.677 108.059C209.71 111.008 212.491 113.779 214.284 115.858C224.738 127.939 235.635 139.644 246.525 151.335C253.903 159.229 261.222 167.116 268.85 174.731C288.542 194.389 310.277 212.382 326.198 235.174C307.237 240.333 288.144 245.493 268.563 247.1C242.999 249.223 217.353 245.257 191.7 244.749C168.829 244.299 145.958 246.591 123.087 246.4C90.9025 246.226 58.965 240.778 28.5469 230.272C29.7273 223.122 35.4156 217.358 41.9303 214.166C48.4449 210.974 55.7637 209.913 62.9497 208.903C65.0303 208.608 67.1108 208.313 69.2062 208.217L65.1188 209.537Z" fill="#E1A6DC"/>
<path d="M-167.137 323.391C-155.553 309.799 -143.968 296.197 -132.38 282.585C-125.216 274.182 -117.476 265.381 -106.926 262.101C-96.3758 258.821 -82.4612 263.855 -80.4692 274.713C-69.1879 255.138 -56.7567 236.247 -43.2406 218.14C-38.1442 219.401 -33.6375 222.376 -30.477 226.565C6.25731 185.073 36.8089 145.254 64.5054 100.748C77.2026 80.3444 107.828 83.6614 115.848 106.305L116.113 107.043C118.327 113.249 124.059 117.288 130.626 117.782C134.157 118.038 137.487 119.525 140.032 121.984C145.307 127.306 147.034 135.053 149.815 142.011C152.597 148.969 157.732 156.141 165.198 156.753C168.149 156.996 171.322 156.141 174.118 157.195C177.386 158.426 179.186 161.839 180.706 164.979C214.925 235.742 249.141 306.504 283.354 377.267C143.456 380.458 3.27666 383.643 -136.246 372.932C-152.44 371.694 -172.095 367.64 -176.979 352.168C-181.243 338.649 -171.143 325.124 -161.301 314.915L-167.137 323.391Z" fill="#B972B3"/>
<path d="M-279.693 241.529C-247.437 238.131 -215.145 229.735 -191.653 213.15C-185.235 208.624 -179.561 203.568 -173.386 198.85C-166.436 193.565 -158.866 188.744 -151.304 183.931L-126.264 167.987C-121.697 165.076 -117.123 162.164 -112.172 159.614C-106.462 156.665 -100.176 154.159 -95.6973 150.238C-91.4034 146.464 -89.1384 141.695 -85.7815 137.442C-81.8343 132.437 -76.4042 128.169 -71.0258 123.945L-37.3312 97.5197C-33.6422 94.6524 -28.9204 91.527 -23.7264 92.4558C-18.6726 93.3624 -16.3486 97.564 -12.6154 100.203C-7.45093 103.888 0.664673 104.53 5.97672 108.09C12.4545 112.417 13.4136 120.053 20.1791 124.137C23.8016 126.348 28.6267 127.181 32.3304 129.296C36.0341 131.412 38.2326 134.456 40.3722 137.478C47.2041 147.085 54.0385 156.685 60.8752 166.277C80.611 168.489 104.309 172.793 111.701 186.4C114.188 190.978 114.601 196.344 119.013 200.066C127.445 207.194 145.138 204.165 153.688 211.219C156.271 213.342 157.621 216.128 159.997 218.376C164.202 222.364 171.019 224.221 177.135 226.484C212.497 239.752 228.566 270.32 258.225 289.713C273.209 299.517 291.352 306.254 308.254 314.2C313.979 316.891 320.214 322.264 315.868 326.105C313.869 327.874 310.423 328.257 307.302 328.471C279.79 330.417 252.079 329.451 224.464 328.625C76.076 324.203 -72.3981 323.977 -220.958 327.947C-276.55 329.422 -333.175 331.434 -386.871 320.79C-386.502 312.586 -378.962 305.311 -369.858 300.578C-360.754 295.846 -350.07 293.016 -339.882 289.64L-279.693 241.529Z" fill="#E1A6DC"/>
<path d="M491.889 224.966C485.374 221.767 478.048 220.713 470.862 219.703C469.601 219.526 468.332 219.349 467.063 219.216C454.092 210.99 441.402 201.887 432.18 189.651C421.991 176.117 416.583 159.481 406.498 145.866C405.375 144.178 403.934 142.723 402.256 141.584C399.245 139.756 395.984 139.977 392.827 141.326C390.219 142.434 387.394 142.938 384.564 142.8C377.842 135.503 371.18 128.161 364.688 120.687C362.895 118.608 360.106 115.807 357.081 112.888C352.987 108.967 347.459 106.9 341.795 107.172C336.13 107.444 330.826 110.031 327.127 114.326C323.091 119.021 318.65 124.269 314.459 129.399C308.904 136.196 299.497 138.834 291.418 135.385C288.261 134.036 285 133.815 281.989 135.643C280.311 136.782 278.87 138.236 277.747 139.925C267.662 153.54 262.254 170.147 252.065 183.71C242.843 195.946 230.153 205.049 217.19 213.275C215.913 213.408 214.652 213.585 213.383 213.762C206.197 214.771 198.871 215.825 192.356 219.025C185.841 222.224 180.16 227.98 178.973 235.13C188.884 238.592 198.983 241.494 209.222 243.821C208.698 244.558 208.159 245.295 207.65 246.032C226.611 251.192 245.698 256.352 265.279 257.959C290.843 260.081 316.496 256.116 342.141 255.607C365.012 255.158 387.884 257.457 410.755 257.258C442.942 257.089 474.882 251.64 505.302 241.13C504.085 233.936 498.404 228.157 491.889 224.966Z" fill="#E1A6DC"/>
<path d="M402.839 150.835C407.554 145.307 390.112 143.759 382.875 144.415C375.637 145.071 368.687 147.54 361.479 148.609C344.643 151.122 327.762 145.882 311.206 141.916C303.091 139.977 294.105 138.437 286.808 142.469C283.185 144.474 280.374 147.673 276.914 149.95C265.67 157.322 249.911 153.231 239.693 144.481C238.885 143.651 237.891 143.025 236.794 142.653C234.661 142.137 232.655 143.692 230.773 144.828C221.92 150.179 210.285 146.81 201.387 141.496C196.584 138.621 190.962 135.09 185.82 137.309C184.344 137.958 182.994 139.078 181.393 139.388C178.708 139.896 176.229 138.031 173.595 137.228C169.906 136.108 165.959 137.117 162.24 138.127C155.364 140 148.37 141.931 142.394 145.801C136.418 149.67 131.659 155.464 126.901 160.926C100.026 191.802 67.3242 217.082 30.6641 235.322C65.9301 258.91 109.961 256.05 151.476 264.807C165.442 267.755 179.032 272.318 193.021 275.163C228.914 282.483 266.01 278.347 302.641 278.436C322.782 278.488 343.16 279.807 362.866 275.664C376.072 272.893 388.637 267.74 401.386 263.318C410.306 260.222 419.594 257.347 426.854 251.318C434.114 245.288 438.88 235.101 435.56 226.256C434.084 222.394 431.318 219.217 429.222 215.664C424.796 208.101 423.593 199.13 421.306 190.654L402.839 150.835Z" fill="#BB8AB7"/>
<path d="M-404.924 223.815C-400.217 222.23 -395.443 220.587 -390.471 220.402C-384.443 220.188 -378.578 222.142 -372.653 223.351C-358.122 226.217 -343.057 224.464 -329.574 218.338C-321.023 214.432 -312.48 208.653 -303.154 209.795C-299.266 210.267 -295.643 211.94 -292.021 213.422C-276.343 219.857 -259.558 223.13 -242.936 226.365C-217.482 231.319 -191.845 236.287 -165.911 236.471C-139.978 236.656 -113.448 231.724 -91.3141 218.235C-85.9725 214.977 -79.6423 211.093 -73.9171 213.613C-70.3241 215.198 -68.2067 218.891 -65.2408 221.456C-59.4123 226.491 -50.972 226.756 -43.2696 226.55C-16.855 225.864 9.43903 222.732 35.2749 217.196C42.8667 215.567 50.9824 213.768 58.1979 216.65C62.3221 218.294 65.7084 221.316 69.1392 224.125C85.0695 237.141 103.651 246.526 123.588 251.626C155.039 259.639 180.545 281.752 210.646 293.966C193.48 303.409 174.457 308.994 154.907 310.33C153.077 310.455 150.945 310.713 150.008 312.29C149.469 313.182 149.462 314.339 148.827 315.172C148.089 316.175 130.383 360.637 129.143 360.785C84.0129 366.151 17.9296 356.406 5.616 355.072C-17.0879 352.605 -39.9682 352.188 -62.7471 353.826C-75.8944 354.777 -87.6989 350.229 -100.595 347.502C-102.764 347.045 -105.443 345.954 -105.406 343.743C-100.769 342.651 -96.646 340.008 -93.7192 336.254C-93.0578 335.535 -92.6531 334.617 -92.5683 333.644C-92.5683 332.214 -93.7635 331.101 -94.9218 330.261C-104.891 323.234 -117.971 322.413 -128.742 328.138C-132.431 330.158 -135.655 332.892 -139.189 335.163C-145.601 339.282 -152.897 341.828 -160.481 342.593C-161.126 342.642 -161.745 342.864 -162.274 343.234C-164.65 345.01 -162.274 348.276 -161.595 351.011C-160.393 356.038 -165.69 360.07 -170.368 362.266C-187.196 370.177 -205.569 374.265 -224.167 374.237C-316.781 374.045 -406.237 371.215 -498.622 377.738C-509.173 353.974 -506.738 325.912 -496.8 301.904C-496.446 301.042 -496.062 300.194 -495.708 299.339C-480.421 264.585 -450.475 238.388 -414.286 226.815L-404.924 223.815Z" fill="#B972B3"/>
<path d="M720.712 267.798C704.122 261.567 687.679 254.609 671.384 246.923C666.677 244.712 661.896 242.397 656.931 242.147C650.903 241.845 645.038 244.579 639.113 246.238C624.704 250.27 609.395 247.778 596.034 239.228C587.483 233.766 578.94 225.672 569.614 227.272C565.726 227.935 562.104 230.272 558.481 232.351C542.803 241.351 526.018 245.928 509.396 250.454C483.943 257.383 458.305 264.334 432.372 264.592C406.438 264.85 379.9 258.009 357.767 239.117C352.425 234.555 346.095 229.115 340.37 232.653C336.777 234.864 334.659 240.024 331.694 243.614C325.865 250.653 317.425 251.029 309.722 250.749C283.089 249.753 256.693 245.353 231.178 237.658C223.586 235.38 215.463 232.867 208.255 236.921C204.131 239.22 200.744 243.451 197.314 247.388C181.451 265.543 162.726 278.774 142.865 285.857C111.413 297.069 85.9082 328.005 55.8066 345.091C72.9011 358.271 92.0687 366.151 111.546 367.986C113.376 368.163 115.508 368.517 116.445 370.721C116.984 371.981 116.991 373.595 117.626 374.767C118.363 376.168 119.765 376.485 121.012 376.691C165.966 384.182 211.526 387.43 257.089 386.392C256.218 397.566 247.638 403.743 240.223 408.099C232.808 412.456 224.309 419.156 223.925 430.39C235.841 435.129 248.523 432.454 260.815 430.581C283.441 427.13 306.412 426.545 329.185 428.842C342.332 430.168 354.137 423.8 367.033 419.996C369.203 419.355 371.881 417.837 371.836 414.733C367.24 413.259 363.042 409.47 360.157 404.259C359.46 403.151 359.063 401.881 359.006 400.574C359.006 398.583 360.202 397.028 361.36 395.849C370.995 386.045 384.733 384.836 395.18 392.9C398.869 395.731 402.093 399.534 405.627 402.733C411.787 408.276 418.863 411.822 426.137 413.016C427.111 413.178 428.166 413.333 428.904 414.247C430.948 416.768 428.675 421.19 428.033 424.906C426.831 431.938 432.128 437.576 436.806 440.658C453.561 451.714 472.079 457.464 490.597 457.405C583.211 457.125 672.668 453.174 765.053 462.299C775.603 429.055 773.169 389.797 763.231 356.2C753.293 322.602 736.383 293.921 718.189 267.916L720.712 267.798Z" fill="#B972B3"/>
<path d="M-191.963 266.951C-185.139 247.676 -175.466 230.014 -163.581 215.147C-162.172 219.993 -161.296 224.979 -160.969 230.014L-157.044 226.366C-152.472 231.745 -149.081 238.023 -147.091 244.793C-145.985 242.563 -144.883 240.332 -143.786 238.101C-139.261 242.784 -135.829 248.41 -133.737 254.575C-128.612 239.341 -123.487 224.125 -118.362 208.926C-107.089 229.064 -101.053 253.779 -101.393 278.42L-94.6643 257.133L-92.6944 265.772C-91.0565 263.098 -89.4162 260.42 -87.7734 257.737C-84.5665 268.759 -81.6153 279.887 -78.92 291.121C-75.7135 287.635 -73.2732 283.517 -71.7561 279.032C-70.974 282.084 -70.1969 285.131 -69.4247 288.172L-65.5513 284L-61.4566 291.828C-56.1401 283.41 -51.5612 274.549 -47.7707 265.344C-46.888 275.635 -44.5788 285.754 -40.9093 295.411C-39.0254 288.22 -36.6566 281.164 -33.8192 274.293C-31.6001 281.182 -30.1598 288.297 -29.5253 295.507L-25.1945 288.489C-22.3602 293.845 -20.2277 299.543 -18.8496 305.443C-15.4656 297.163 -12.0841 288.882 -8.70506 280.602C-7.86398 284.848 -7.02045 289.096 -6.17445 293.347C-4.54149 288.85 -2.90854 284.352 -1.27557 279.85C2.48973 290.493 5.36224 301.43 7.31224 312.549L15.5975 301.949L21.4998 314.155L26.0667 307.883L33.024 324.409C38.2486 321.154 43.0895 317.321 47.4551 312.983L58.3005 351.556L69.5074 328.286L73.9341 335.568C73.9341 335.568 78.7445 323.111 83.304 314.775C83.304 314.775 93.5223 346.839 97.0415 362.967C100.392 361.466 103.169 358.925 104.958 355.721C107.064 363.986 110.365 371.899 114.756 379.213C117.999 375.468 120.87 371.417 123.329 367.117C126.556 372.101 128.946 377.579 130.404 383.333L134.3 379.559L139.206 388.404L146.421 379.913C149.443 382.45 151.832 385.655 153.401 389.274L156.61 383.864C159.381 386.118 161.518 389.051 162.815 392.377L171.314 386.429C177.993 419.764 187.42 452.49 199.498 484.273C84.3369 486.528 -30.7574 477.639 -145.712 468.749C-158.903 467.732 -173.806 465.609 -181.774 452.312C-186.939 443.636 -187.891 432.159 -188.621 421.353C-190.436 394.419 -192.207 366.807 -186.496 340.758C-184.039 329.532 -180.196 318.593 -179.856 306.954C-179.45 292.949 -184.548 278.885 -193.195 270.098L-191.963 266.951Z" fill="#B972B3"/>
<path d="M-276.247 266.951C-269.726 248.23 -260.134 230.724 -247.864 215.147C-246.457 219.994 -245.579 224.979 -245.245 230.014L-241.328 226.366C-236.753 231.744 -233.36 238.022 -231.367 244.793L-228.07 238.101C-223.542 242.782 -220.11 248.409 -218.021 254.575L-202.638 208.926C-191.372 229.064 -185.337 253.779 -185.669 278.42L-178.941 257.133L-176.949 265.786L-172.027 257.752C-168.821 268.774 -165.869 279.902 -163.174 291.136C-159.962 287.653 -157.519 283.534 -156.003 279.047C-155.231 282.099 -154.453 285.145 -153.671 288.187L-149.805 284.015L-145.711 291.843C-140.395 283.424 -135.813 274.563 -132.017 265.359C-131.137 275.65 -128.831 285.769 -125.163 295.425C-123.298 288.229 -120.944 281.169 -118.118 274.293C-115.905 281.184 -114.465 288.298 -113.824 295.507L-109.515 288.482C-106.681 293.838 -104.548 299.536 -103.17 305.435C-99.7861 297.155 -96.4046 288.875 -93.0256 280.595C-92.1796 284.841 -91.3361 289.089 -90.495 293.339C-88.862 288.843 -87.2291 284.344 -85.5961 279.843C-81.8308 290.486 -78.9583 301.423 -77.0083 312.541C-74.249 309.013 -71.4872 305.48 -68.723 301.942L-62.8207 314.148C-61.296 312.06 -59.7737 309.969 -58.2538 307.875C-55.9274 313.379 -53.6058 318.888 -51.2891 324.401C-46.0683 321.144 -41.23 317.312 -36.8655 312.976L-26.0201 351.549L-14.7762 328.286L-10.3495 335.568C-10.3495 335.568 -5.53915 323.111 -0.979645 314.775C-0.979645 314.775 9.23865 346.839 12.7579 362.967C16.1088 361.466 18.8853 358.925 20.6743 355.721C22.7806 363.986 26.0812 371.899 30.4721 379.213C33.7088 375.459 36.5703 371.398 39.0156 367.087C42.2458 372.07 44.636 377.548 46.091 383.304L49.9865 379.53L54.8927 388.375L62.1156 379.883C65.1349 382.421 67.5218 385.626 69.0877 389.245L72.2971 383.834C75.0699 386.086 77.2082 389.02 78.5018 392.348L87.0085 386.399C93.6878 419.756 103.122 452.502 115.214 484.302C0.0532227 486.558 -115.041 477.668 -229.995 468.779C-243.187 467.762 -258.09 465.639 -266.058 452.341C-271.223 443.665 -272.174 432.189 -272.905 421.383C-274.72 394.449 -276.49 366.837 -270.78 340.787C-268.323 329.561 -264.479 318.622 -264.14 306.983C-263.741 292.978 -268.84 278.914 -277.486 270.128L-276.247 266.951Z" fill="#CE0054"/>
</g>
<path opacity="0.426432" d="M0 0H375V300C375 311.046 366.046 320 355 320H20C8.95431 320 0 311.046 0 300V0Z" fill="url(#paint2_linear_766_20620)"/>
<defs>
<linearGradient id="paint0_linear_766_20620" x1="335.759" y1="412.869" x2="335.759" y2="-148.204" gradientUnits="userSpaceOnUse">
<stop stop-color="#E4E4E4"/>
<stop offset="0.2" stop-color="#DEDEDE"/>
<stop offset="0.77" stop-color="#D2D2D2"/>
<stop offset="0.81" stop-color="#CDCDCD"/>
<stop offset="0.88" stop-color="#BDBDBD"/>
<stop offset="0.95" stop-color="#A3A3A3"/>
<stop offset="1" stop-color="#8A8A8A"/>
</linearGradient>
<linearGradient id="paint1_linear_766_20620" x1="-128.183" y1="-72.1422" x2="-128.183" y2="340.712" gradientUnits="userSpaceOnUse">
<stop stop-color="#A11D96"/>
<stop offset="0.11" stop-color="#B85EB0"/>
<stop offset="0.29" stop-color="#BB8AB7"/>
<stop offset="0.46" stop-color="#BB8AB7"/>
<stop offset="0.64" stop-color="#FDE6C9"/>
<stop offset="0.82" stop-color="#FDF2D1"/>
<stop offset="1" stop-color="#FDF6D4"/>
</linearGradient>
<linearGradient id="paint2_linear_766_20620" x1="93.75" y1="160" x2="93.75" y2="320" gradientUnits="userSpaceOnUse">
<stop stop-opacity="0.01"/>
<stop offset="1"/>
</linearGradient>
</defs>
</svg>
