<svg width="76" height="76" viewBox="0 0 76 76" fill="none" xmlns="http://www.w3.org/2000/svg">
<circle cx="38" cy="38" r="30" fill="white"/>
<circle cx="38" cy="38" r="34" stroke="white" stroke-opacity="0.1" stroke-width="8"/>
<mask id="mask0_721_22731" style="mask-type:luminance" maskUnits="userSpaceOnUse" x="18" y="18" width="40" height="40">
<path d="M57.7992 18.2012H18.1992V57.8012H57.7992V18.2012Z" fill="white"/>
<path d="M43.257 38.0023C43.257 40.907 40.9024 43.2617 37.9977 43.2617C35.0929 43.2617 32.7383 40.907 32.7383 38.0023C32.7383 35.0977 35.0929 32.743 37.9977 32.743C40.9024 32.743 43.257 35.0977 43.257 38.0023Z" fill="white"/>
<path d="M51.1796 27.1504C49.8927 27.1504 48.8496 26.1072 48.8496 24.8204C48.8496 23.5336 49.8927 22.4904 51.1796 22.4904C52.4664 22.4904 53.5096 23.5336 53.5096 24.8204C53.5096 26.1072 52.4664 27.1504 51.1796 27.1504Z" fill="white"/>
<path d="M24.8183 53.5117C23.5314 53.5117 22.4883 52.4686 22.4883 51.1817C22.4883 49.895 23.5314 48.8518 24.8183 48.8518C26.1051 48.8518 27.1482 49.895 27.1482 51.1817C27.1482 52.4686 26.1051 53.5117 24.8183 53.5117Z" fill="white"/>
<path d="M40.3279 26.3517C40.3279 27.6385 39.2847 28.6816 37.9979 28.6816C36.7111 28.6816 35.668 27.6385 35.668 26.3517C35.668 25.0648 36.7111 24.0217 37.9979 24.0217C39.2847 24.0217 40.3279 25.0648 40.3279 26.3517Z" fill="white"/>
<path d="M48.5662 46.2403C48.5662 47.5272 47.5231 48.5703 46.2362 48.5703C44.9494 48.5703 43.9062 47.5272 43.9062 46.2403C43.9062 44.9536 44.9494 43.9104 46.2362 43.9104C47.5231 43.9104 48.5662 44.9536 48.5662 46.2403Z" fill="white"/>
</mask>
<g mask="url(#mask0_721_22731)">
<mask id="mask1_721_22731" style="mask-type:luminance" maskUnits="userSpaceOnUse" x="18" y="18" width="40" height="40">
<path d="M18.1992 18.2008H57.7992V57.8008H18.1992V18.2008Z" fill="white"/>
</mask>
<g mask="url(#mask1_721_22731)">
<path d="M26.5664 52.7224C29.7233 55.1777 33.6903 56.6406 37.9994 56.6406C48.2938 56.6406 56.639 48.2954 56.639 38.001C56.639 33.6919 55.1762 29.7249 52.7208 26.5679" stroke="#B38DB2" stroke-width="2.10937" stroke-miterlimit="10"/>
<path d="M49.4326 23.279C46.2756 20.8235 42.3083 19.3604 37.999 19.3604C27.7046 19.3604 19.3594 27.7057 19.3594 38C19.3594 42.3094 20.8224 46.2766 23.278 49.4336" stroke="#B38DB2" stroke-width="2.10937" stroke-miterlimit="10"/>
<path d="M43.259 38.0023C43.259 40.907 40.9043 43.2617 37.9996 43.2617C35.0949 43.2617 32.7402 40.907 32.7402 38.0023C32.7402 35.0977 35.0949 32.743 37.9996 32.743C40.9043 32.743 43.259 35.0977 43.259 38.0023Z" fill="#B38DB2"/>
<path d="M51.1796 27.1504C49.8927 27.1504 48.8496 26.1072 48.8496 24.8204C48.8496 23.5336 49.8927 22.4904 51.1796 22.4904C52.4664 22.4904 53.5096 23.5336 53.5096 24.8204C53.5096 26.1072 52.4664 27.1504 51.1796 27.1504Z" fill="#B38DB2"/>
<path d="M24.8183 53.5117C23.5314 53.5117 22.4883 52.4686 22.4883 51.1817C22.4883 49.895 23.5314 48.8518 24.8183 48.8518C26.1051 48.8518 27.1482 49.895 27.1482 51.1817C27.1482 52.4686 26.1051 53.5117 24.8183 53.5117Z" fill="#B38DB2"/>
<path d="M40.3299 26.3517C40.3299 27.6385 39.2867 28.6816 37.9999 28.6816C36.7131 28.6816 35.6699 27.6385 35.6699 26.3517C35.6699 25.0648 36.7131 24.0217 37.9999 24.0217C39.2867 24.0217 40.3299 25.0648 40.3299 26.3517Z" fill="#B38DB2"/>
<path d="M48.5662 46.2384C48.5662 47.5252 47.5231 48.5684 46.2362 48.5684C44.9494 48.5684 43.9062 47.5252 43.9062 46.2384C43.9062 44.9516 44.9494 43.9084 46.2362 43.9084C47.5231 43.9084 48.5662 44.9516 48.5662 46.2384Z" fill="#B38DB2"/>
<path d="M51.1796 27.1504C49.8927 27.1504 48.8496 26.1072 48.8496 24.8204C48.8496 23.5336 49.8927 22.4904 51.1796 22.4904C52.4664 22.4904 53.5096 23.5336 53.5096 24.8204C53.5096 26.1072 52.4664 27.1504 51.1796 27.1504Z" stroke="#B38DB2" stroke-width="1.40625" stroke-miterlimit="10"/>
<path d="M24.8183 53.5117C23.5314 53.5117 22.4883 52.4686 22.4883 51.1817C22.4883 49.895 23.5314 48.8518 24.8183 48.8518C26.1051 48.8518 27.1482 49.895 27.1482 51.1817C27.1482 52.4686 26.1051 53.5117 24.8183 53.5117Z" stroke="#B38DB2" stroke-width="1.40625" stroke-miterlimit="10"/>
<path d="M40.3299 26.3517C40.3299 27.6385 39.2867 28.6816 37.9999 28.6816C36.7131 28.6816 35.6699 27.6385 35.6699 26.3517C35.6699 25.0648 36.7131 24.0217 37.9999 24.0217C39.2867 24.0217 40.3299 25.0648 40.3299 26.3517Z" stroke="#B38DB2" stroke-width="1.40625" stroke-miterlimit="10"/>
<path d="M35.6814 26.5831C30.358 27.658 26.3496 32.3618 26.3496 38.0022C26.3496 44.4364 31.5655 49.6523 37.9997 49.6523C40.3784 49.6523 42.5902 48.9388 44.434 47.715" stroke="#B38DB2" stroke-width="2.10937" stroke-miterlimit="10"/>
<path d="M47.7123 44.4355C48.9362 42.5918 49.6497 40.38 49.6497 38.0013C49.6497 32.3611 45.6416 27.6574 40.3184 26.5823" stroke="#B38DB2" stroke-width="2.10937" stroke-miterlimit="10"/>
<path d="M48.5662 46.2384C48.5662 47.5252 47.5231 48.5684 46.2362 48.5684C44.9494 48.5684 43.9062 47.5252 43.9062 46.2384C43.9062 44.9516 44.9494 43.9084 46.2362 43.9084C47.5231 43.9084 48.5662 44.9516 48.5662 46.2384Z" stroke="#B38DB2" stroke-width="1.40625" stroke-miterlimit="10"/>
</g>
</g>
</svg>
