<svg width="76" height="76" viewBox="0 0 76 76" fill="none" xmlns="http://www.w3.org/2000/svg">
<circle cx="38" cy="38" r="30" fill="white"/>
<circle cx="38" cy="38" r="34" stroke="white" stroke-opacity="0.1" stroke-width="8"/>
<path d="M47.4022 30.8575L39.3609 22.3167C39.1252 22.0663 38.7968 21.9243 38.4527 21.9238C38.4519 21.9238 38.4515 21.9238 38.451 21.9238C38.1074 21.9238 37.779 22.0651 37.5428 22.3146L29.5024 30.8133C24.6283 35.9612 24.6267 44.3744 29.4982 49.5676C31.8655 52.0911 35.0293 53.4851 38.4069 53.4931C38.4169 53.4931 38.4265 53.4931 38.4361 53.4931C41.822 53.4931 45.0046 52.1015 47.3997 49.5718C52.3071 44.389 52.3059 35.9907 47.4022 30.8575ZM45.584 47.8532C43.6659 49.8788 41.1278 50.9933 38.4356 50.9933C38.4281 50.9933 38.4202 50.9933 38.4127 50.9933C35.7309 50.9874 33.2124 49.8734 31.3213 47.8574C27.3384 43.6116 27.3363 36.7365 31.3176 32.5319L38.4485 24.9947L45.5882 32.5777C49.592 36.7694 49.5903 43.622 45.584 47.8532Z" fill="#00C0C5"/>
</svg>
