<svg width="60" height="60" viewBox="0 0 60 60" fill="none" xmlns="http://www.w3.org/2000/svg">
<path d="M45.2909 18.2813L31.5361 3.67205C31.1328 3.24374 30.5712 3.00074 29.9826 3C29.9812 3 29.9805 3 29.9797 3C29.3918 3 28.8302 3.24163 28.4262 3.66846L14.6728 18.2057C6.33563 27.0112 6.33279 41.4023 14.6657 50.2854C18.7149 54.602 24.1267 56.9864 29.9042 57C29.9213 57 29.9377 57 29.9541 57C35.7458 57 41.1897 54.6198 45.2866 50.2926C53.6809 41.4272 53.6788 27.0617 45.2909 18.2813ZM42.1809 47.3529C38.8998 50.8177 34.5584 52.7241 29.9534 52.7241C29.9405 52.7241 29.927 52.7241 29.9141 52.7241C25.3269 52.7141 21.0189 50.8085 17.7842 47.3601C10.9713 40.0975 10.9677 28.3374 17.7777 21.1454L29.9754 8.25287L42.188 21.2237C49.0366 28.3937 49.0337 40.1153 42.1809 47.3529Z" fill="white" fill-opacity="0.6"/>
</svg>
