<svg width="157" height="84" viewBox="0 0 157 84" fill="none" xmlns="http://www.w3.org/2000/svg">
<path d="M58.501 19.9681C31.5256 19.9681 16.7337 18.0445 5.90612 21.3913C2.77597 22.3588 0.29495 24.646 -1.62951 27.2975L-10.4446 39.4427C-13.8807 44.1768 -15.1865 50.1296 -14.0473 55.8673L-6.73878 92.6809C-5.96562 96.5753 -4.10426 100.171 -1.37058 103.05L16.5524 121.929C20.6542 126.25 26.398 128.625 32.3534 128.463L128.317 125.851C132.616 125.734 136.775 124.3 140.233 121.743L162.955 104.938C168.309 100.978 171.468 94.7137 171.468 88.0543V55.2447C171.468 53.9774 171.568 52.7088 171.864 51.4765C174.142 41.9939 179.45 34.6932 164.001 26.9686C143.443 16.6898 86.9819 19.9681 58.501 19.9681Z" fill="white"/>
<path d="M49.6699 8.46874C51.5944 5.13541 56.4056 5.13542 58.3301 8.46875L64.3923 18.9688C66.3168 22.3021 63.9112 26.4688 60.0622 26.4688H47.9378C44.0888 26.4688 41.6832 22.3021 43.6077 18.9688L49.6699 8.46874Z" fill="white"/>
<path d="M117.67 8.46874C119.594 5.13541 124.406 5.13542 126.33 8.46875L132.392 18.9688C134.317 22.3021 131.911 26.4688 128.062 26.4688H115.938C112.089 26.4688 109.683 22.3021 111.608 18.9688L117.67 8.46874Z" fill="white"/>
<path d="M-1.33012 8.46874C0.594378 5.13541 5.40563 5.13542 7.33013 8.46875L13.3923 18.9688C15.3168 22.3021 12.9112 26.4688 9.06218 26.4688H-3.06219C-6.91119 26.4688 -9.31681 22.3021 -7.39231 18.9688L-1.33012 8.46874Z" fill="white"/>
<path d="M66.6699 8.46874C68.5944 5.13541 73.4056 5.13542 75.3301 8.46875L81.3923 18.9688C83.3168 22.3021 80.9112 26.4688 77.0622 26.4688H64.9378C61.0888 26.4688 58.6832 22.3021 60.6077 18.9688L66.6699 8.46874Z" fill="white"/>
<path d="M134.67 8.46874C136.594 5.13541 141.406 5.13542 143.33 8.46875L149.392 18.9688C151.317 22.3021 148.911 26.4688 145.062 26.4688H132.938C129.089 26.4688 126.683 22.3021 128.608 18.9688L134.67 8.46874Z" fill="white"/>
<path d="M15.6699 8.46874C17.5944 5.13541 22.4056 5.13542 24.3301 8.46875L30.3923 18.9688C32.3168 22.3021 29.9112 26.4688 26.0622 26.4688H13.9378C10.0888 26.4688 7.68319 22.3021 9.60769 18.9688L15.6699 8.46874Z" fill="white"/>
<path d="M83.6699 8.46874C85.5944 5.13541 90.4056 5.13542 92.3301 8.46875L98.3923 18.9688C100.317 22.3021 97.9112 26.4688 94.0622 26.4688H81.9378C78.0888 26.4688 75.6832 22.3021 77.6077 18.9688L83.6699 8.46874Z" fill="white"/>
<path d="M151.67 8.46874C153.594 5.13541 158.406 5.13542 160.33 8.46875L166.392 18.9688C168.317 22.3021 165.911 26.4688 162.062 26.4688H149.938C146.089 26.4688 143.683 22.3021 145.608 18.9688L151.67 8.46874Z" fill="white"/>
<path d="M32.6699 8.46874C34.5944 5.13541 39.4056 5.13542 41.3301 8.46875L47.3923 18.9688C49.3168 22.3021 46.9112 26.4688 43.0622 26.4688H30.9378C27.0888 26.4688 24.6832 22.3021 26.6077 18.9688L32.6699 8.46874Z" fill="white"/>
<path d="M100.67 8.46874C102.594 5.13541 107.406 5.13542 109.33 8.46875L115.392 18.9688C117.317 22.3021 114.911 26.4688 111.062 26.4688H98.9378C95.0888 26.4688 92.6832 22.3021 94.6077 18.9688L100.67 8.46874Z" fill="white"/>
</svg>
