<svg width="57" height="58" viewBox="0 0 57 58" fill="none" xmlns="http://www.w3.org/2000/svg">
<g clip-path="url(#clip0_721_21936)">
<path d="M0 29.1392C0 28.5166 0.247325 27.9195 0.687567 27.4793C1.12781 27.039 1.7249 26.7917 2.3475 26.7917H16.4325C17.0551 26.7917 17.6522 27.039 18.0924 27.4793C18.5327 27.9195 18.78 28.5166 18.78 29.1392C18.78 29.7618 18.5327 30.3589 18.0924 30.7991C17.6522 31.2394 17.0551 31.4867 16.4325 31.4867H2.3475C1.7249 31.4867 1.12781 31.2394 0.687567 30.7991C0.247325 30.3589 0 29.7618 0 29.1392ZM49.0299 27.0429C50.2 25.5807 51.0025 23.8593 51.3701 22.023C51.7377 20.1867 51.6597 18.289 51.1426 16.4891C50.6255 14.6892 49.6844 13.0395 48.3981 11.6783C47.1119 10.3171 45.5181 9.28418 43.7503 8.66607C41.9825 8.04796 40.0923 7.8627 38.2381 8.12583C36.384 8.38896 34.6199 9.0928 33.0939 10.1783C31.5679 11.2639 30.3244 12.6995 29.4676 14.3648C28.6109 16.03 28.1659 17.8765 28.17 19.7492C28.17 20.3718 28.4173 20.9689 28.8576 21.4091C29.2978 21.8494 29.8949 22.0967 30.5175 22.0967C31.1401 22.0967 31.7372 21.8494 32.1774 21.4091C32.6177 20.9689 32.865 20.3718 32.865 19.7492C32.865 18.3563 33.278 16.9947 34.0519 15.8366C34.8257 14.6785 35.9256 13.7758 37.2125 13.2428C38.4993 12.7097 39.9153 12.5703 41.2814 12.842C42.6475 13.1138 43.9024 13.7845 44.8873 14.7694C45.8722 15.7543 46.5429 17.0092 46.8147 18.3753C47.0864 19.7414 46.947 21.1574 46.4139 22.4442C45.8809 23.7311 44.9782 24.831 43.8201 25.6048C42.662 26.3787 41.3004 26.7917 39.9075 26.7917H25.8225C25.1999 26.7917 24.6028 27.039 24.1626 27.4793C23.7223 27.9195 23.475 28.5166 23.475 29.1392C23.475 29.7618 23.7223 30.3589 24.1626 30.7991C24.6028 31.2394 25.1999 31.4867 25.8225 31.4867H46.95C48.1952 31.4867 49.3894 31.9813 50.2699 32.8618C51.1504 33.7423 51.645 34.9365 51.645 36.1817C51.6239 41.6678 43.9429 42.3979 42.1212 37.7475C41.9139 37.1604 41.4818 36.6797 40.9201 36.4111C40.3583 36.1426 39.7129 36.1082 39.1258 36.3155C38.5387 36.5228 38.058 36.9549 37.7894 37.5166C37.5209 38.0784 37.4865 38.7238 37.6938 39.3109C41.3512 48.8934 56.2273 46.9309 56.34 36.1817C56.3359 34.0559 55.6106 31.9943 54.2827 30.3342C52.9548 28.6741 51.1029 27.5138 49.0299 27.0429ZM25.8225 38.5292H2.3475C1.7249 38.5292 1.12781 38.7765 0.687567 39.2168C0.247325 39.657 0 40.2541 0 40.8767C0 41.4993 0.247325 42.0964 0.687567 42.5366C1.12781 42.9769 1.7249 43.2242 2.3475 43.2242H25.8225C27.0677 43.2242 28.2619 43.7188 29.1424 44.5993C30.0229 45.4798 30.5175 46.674 30.5175 47.9192C30.4964 53.4053 22.8154 54.1354 20.9937 49.485C20.891 49.1943 20.7321 48.9266 20.526 48.6973C20.3199 48.4681 20.0707 48.2816 19.7926 48.1486C19.5144 48.0157 19.2128 47.9388 18.9049 47.9224C18.5971 47.906 18.289 47.9503 17.9983 48.053C17.7076 48.1557 17.4399 48.3146 17.2106 48.5207C16.9814 48.7268 16.7949 48.976 16.6619 49.2541C16.529 49.5323 16.4521 49.8339 16.4357 50.1418C16.4193 50.4496 16.4637 50.7577 16.5663 51.0484C20.2237 60.6309 35.0998 58.6684 35.2125 47.9192C35.2125 45.4288 34.2232 43.0404 32.4622 41.2795C30.7013 39.5185 28.3129 38.5292 25.8225 38.5292ZM2.3475 19.7492H16.4325C18.9229 19.7492 21.3113 18.7599 23.0722 16.9989C24.8332 15.238 25.8225 12.8496 25.8225 10.3592C25.7098 -0.394701 10.829 -2.35017 7.17631 7.22998C6.96898 7.81709 7.00338 8.46251 7.27193 9.02426C7.54047 9.586 8.02118 10.0181 8.60828 10.2254C9.19539 10.4327 9.84081 10.3983 10.4026 10.1298C10.9643 9.86122 11.3964 9.38052 11.6037 8.79341C13.4277 4.14067 21.1064 4.87309 21.1275 10.3592C21.1275 11.6044 20.6328 12.7986 19.7524 13.6791C18.8719 14.5595 17.6777 15.0542 16.4325 15.0542H2.3475C1.7249 15.0542 1.12781 15.3015 0.687567 15.7418C0.247325 16.182 0 16.7791 0 17.4017C0 18.0243 0.247325 18.6214 0.687567 19.0616C1.12781 19.5019 1.7249 19.7492 2.3475 19.7492Z" fill="white" fill-opacity="0.6"/>
</g>
<defs>
<clipPath id="clip0_721_21936">
<rect width="56.34" height="56.34" fill="white" transform="translate(0 0.96875)"/>
</clipPath>
</defs>
</svg>
