<svg width="76" height="76" viewBox="0 0 76 76" fill="none" xmlns="http://www.w3.org/2000/svg">
<circle cx="38" cy="38" r="30" fill="white"/>
<circle cx="38" cy="38" r="34" stroke="white" stroke-opacity="0.1" stroke-width="8"/>
<path d="M27.2377 40.7482H25.6592C22.9758 40.7482 20.9238 38.6962 20.9238 36.0128C20.9238 33.3294 22.9758 31.2773 25.6592 31.2773H27.2377C28.1848 31.2773 28.8161 31.9087 28.8161 32.8558C28.8161 33.8029 28.1848 34.4343 27.2377 34.4343H25.6592C24.7121 34.4343 24.0808 35.0657 24.0808 36.0128C24.0808 36.9598 24.7121 37.5912 25.6592 37.5912H27.2377C28.1848 37.5912 28.8161 38.2226 28.8161 39.1697C28.8161 40.1168 28.1848 40.7482 27.2377 40.7482Z" fill="#539ED8"/>
<path d="M35.1304 53.3751H32.7627C30.0793 53.3751 28.0273 51.3231 28.0273 48.6397C28.0273 45.9563 30.0793 43.9043 32.7627 43.9043H35.1304C36.0775 43.9043 36.7089 44.5357 36.7089 45.4828C36.7089 46.4299 36.0775 47.0612 35.1304 47.0612H32.7627C31.8157 47.0612 31.1843 47.6926 31.1843 48.6397C31.1843 49.5868 31.8157 50.2182 32.7627 50.2182H35.1304C36.0775 50.2182 36.7089 50.8496 36.7089 51.7967C36.7089 52.7437 36.0775 53.3751 35.1304 53.3751Z" fill="#539ED8"/>
<path d="M39.0757 32.8556H36.708C34.0247 32.8556 31.9727 30.8036 31.9727 28.1202C31.9727 25.4368 34.0247 23.3848 36.708 23.3848H39.0757C40.0228 23.3848 40.6542 24.0162 40.6542 24.9632C40.6542 25.9103 40.0228 26.5417 39.0757 26.5417H36.708C35.761 26.5417 35.1296 27.1731 35.1296 28.1202C35.1296 29.0673 35.761 29.6987 36.708 29.6987H39.0757C40.0228 29.6987 40.6542 30.33 40.6542 31.2771C40.6542 32.2242 40.0228 32.8556 39.0757 32.8556Z" fill="#539ED8"/>
<path d="M49.337 32.8562H36.7093C35.7622 32.8562 35.1309 32.2248 35.1309 31.2777C35.1309 30.3306 35.7622 29.6992 36.7093 29.6992H49.337C50.2841 29.6992 50.9155 30.3306 50.9155 31.2777C50.9155 32.2248 50.2841 32.8562 49.337 32.8562Z" fill="#539ED8"/>
<path d="M50.9155 40.7487H27.2386C26.2915 40.7487 25.6602 40.1174 25.6602 39.1703C25.6602 38.2232 26.2915 37.5918 27.2386 37.5918H50.9155C51.8626 37.5918 52.494 38.2232 52.494 39.1703C52.494 40.1174 51.8626 40.7487 50.9155 40.7487Z" fill="#539ED8"/>
<path d="M44.6 47.0612H35.1292C34.1822 47.0612 33.5508 46.4299 33.5508 45.4828C33.5508 44.5357 34.1822 43.9043 35.1292 43.9043H44.6C45.5471 43.9043 46.1785 44.5357 46.1785 45.4828C46.1785 46.4299 45.5471 47.0612 44.6 47.0612Z" fill="#539ED8"/>
</svg>
