<svg width="61" height="61" viewBox="0 0 61 61" fill="none" xmlns="http://www.w3.org/2000/svg">
<circle cx="30.8806" cy="30.8809" r="28.3237" transform="rotate(3.5 30.8806 30.8809)" fill="#8CD956" fill-opacity="0.2"/>
<path d="M34.1331 21.7179C34.5359 21.7179 34.8624 21.3914 34.8624 20.9886C34.8624 20.5859 34.5359 20.2594 34.1331 20.2594C33.7304 20.2594 33.4039 20.5859 33.4039 20.9886C33.4039 21.3914 33.7304 21.7179 34.1331 21.7179Z" fill="#689647" stroke="#689647" stroke-width="0.2"/>
<path d="M20.2852 44.8045C20.3126 44.8045 20.3399 44.804 20.3663 44.803C20.1514 45.209 19.9864 45.5978 19.8681 45.9038C19.8004 46.0788 19.7479 46.2269 19.7102 46.3356C19.7015 46.3605 19.6937 46.383 19.6867 46.4033C19.6783 46.4277 19.671 46.4489 19.6646 46.467C19.6589 46.4834 19.6542 46.4964 19.6506 46.5061C19.6465 46.517 19.6449 46.5203 19.6452 46.5198L19.642 46.5261L19.6398 46.5329C19.5077 46.9289 19.7728 47.3102 20.1067 47.4354L20.1237 47.4418H20.1418C20.161 47.4418 20.175 47.4459 20.2027 47.4552L20.205 47.4559C20.2328 47.4652 20.2735 47.4788 20.3269 47.4788C20.629 47.4788 20.9285 47.2657 21.0152 46.9621L21.0153 46.9621L21.0157 46.9604C21.0877 46.6904 21.2793 46.1604 21.5587 45.6154C21.8369 45.0726 22.1956 44.5282 22.6 44.2077C23.308 43.8876 23.9235 43.4635 24.2791 43.0258C24.7799 43.2695 25.2818 43.4464 25.8162 43.5889L25.8289 43.5923H25.8397C25.8406 43.5925 25.8436 43.593 25.8492 43.5946C25.8588 43.5972 25.8699 43.6008 25.8844 43.6057L25.8857 43.6061C25.8987 43.6105 25.9148 43.6158 25.9302 43.62C25.9448 43.624 25.9669 43.6293 25.99 43.6293C26.2922 43.6293 26.5917 43.4162 26.6784 43.1126L26.6786 43.1127L26.6799 43.1068C26.7642 42.7273 26.5542 42.3361 26.1619 42.2477C23.134 41.4443 21.0191 38.708 21.0191 35.6083C21.0191 31.814 24.0835 28.7496 27.8778 28.7496C31.672 28.7496 34.7365 31.814 34.7365 35.6083C34.7365 38.3079 33.131 40.7889 30.6505 41.8832L30.6504 41.8831L30.6461 41.8853C30.307 42.0549 30.1295 42.4821 30.3053 42.8338C30.4749 43.1729 30.9021 43.3504 31.2538 43.1746C31.3052 43.1489 31.3599 43.1226 31.4164 43.0955C31.5775 43.0181 31.7538 42.9335 31.9142 42.8329C33.2423 43.6425 34.5032 45.1634 35.3372 47.0491L35.3371 47.0492L35.3392 47.0534C35.4647 47.3044 35.7187 47.4788 35.9839 47.4788H35.9854C36.0217 47.4788 36.0721 47.4788 36.1234 47.4737C36.1743 47.4686 36.2347 47.4578 36.2877 47.4312C36.6262 47.262 36.8036 46.8362 36.6296 46.4849C35.7944 44.5975 34.5337 42.9891 33.1873 42.0066C33.6783 41.5993 34.1099 41.1352 34.482 40.6407C35.4372 41.4641 36.5342 42.0399 37.772 42.3675L37.7846 42.3708H37.7953C37.7962 42.371 37.7992 42.3716 37.8048 42.3731C37.8144 42.3757 37.8255 42.3794 37.84 42.3842L37.8413 42.3846C37.8543 42.389 37.8704 42.3943 37.8858 42.3986C37.9004 42.4025 37.9225 42.4079 37.9457 42.4079C38.2478 42.4079 38.5473 42.1947 38.634 41.8912L38.6342 41.8912L38.6355 41.8854C38.7198 41.5059 38.5098 41.1147 38.1175 41.0263C37.0483 40.7408 36.0834 40.2116 35.2565 39.472C35.8339 38.3278 36.1579 37.041 36.1579 35.6823C36.1579 33.6855 35.4283 31.8358 34.2582 30.3845C35.5384 28.5613 37.5964 27.4911 39.8334 27.4911C43.6276 27.4911 46.6921 30.5555 46.6921 34.3498C46.6921 37.0494 45.0866 39.5304 42.6061 40.6248L42.6061 40.6246L42.6017 40.6268C42.2626 40.7964 42.0851 41.2236 42.2609 41.5753C42.3864 41.8263 42.6404 42.0007 42.9056 42.0007C42.9277 42.0007 42.9515 41.9958 42.9712 41.9908C42.9929 41.9854 43.0181 41.9777 43.046 41.9682C43.1018 41.9492 43.1726 41.9215 43.255 41.8862C43.4084 41.8204 43.6055 41.7267 43.8276 41.6087C44.2291 41.8607 44.6128 42.2617 44.9649 42.7311C45.3301 43.218 45.6569 43.7728 45.9307 44.2974C46.2044 44.8217 46.4241 45.3141 46.5755 45.6755C46.6511 45.8561 46.7096 46.0038 46.7492 46.1063C46.7689 46.1575 46.7839 46.1974 46.794 46.2244L46.8053 46.2551L46.8081 46.2628L46.8088 46.2647L46.809 46.2651L46.809 46.2652L46.8084 46.2655L46.8137 46.2761C46.9392 46.5271 47.1931 46.7015 47.4583 46.7015C47.4948 46.7015 47.5459 46.7016 47.5978 46.6964C47.6487 46.6913 47.7091 46.6805 47.7621 46.6539C48.0921 46.489 48.269 46.0802 48.1166 45.7343C48.1166 45.7315 48.1165 45.7288 48.1164 45.7263C48.1159 45.7093 48.1133 45.6905 48.1101 45.6718C48.1034 45.6338 48.0913 45.5845 48.075 45.5265C48.0422 45.4098 47.9897 45.2499 47.9194 45.0587C47.7789 44.676 47.5658 44.1638 47.2934 43.6145C46.7717 42.5621 46.0243 41.3566 45.142 40.6762C47.0303 39.1375 48.1876 36.7792 48.1876 34.2758C48.1876 29.7051 44.4787 25.9586 39.8704 25.9586C37.2466 25.9586 34.8409 27.1619 33.2658 29.2442C31.8159 28.0121 29.9372 27.2541 27.8778 27.2541C23.3071 27.2541 19.5606 30.963 19.5606 35.5713C19.5606 37.2271 20.0307 38.776 20.901 40.0747L20.8902 40.0856L20.8795 40.0937C20.4901 40.3903 19.8431 40.8832 19.3593 41.5112C18.8687 42.148 18.5331 42.9414 18.8251 43.819C18.9858 44.3397 19.3883 44.6562 19.9686 44.7737C20.0073 44.7856 20.0581 44.7927 20.108 44.7972C20.1629 44.8021 20.225 44.8045 20.2852 44.8045ZM21.797 41.1854C22.162 41.5764 22.557 41.9383 22.9822 42.2448C22.7114 42.4859 22.1889 42.8561 21.643 43.125C21.3373 43.2756 21.0302 43.3913 20.7603 43.4365C20.4903 43.4817 20.2764 43.4533 20.1332 43.3425C20.0868 43.2975 20.067 43.2405 20.0722 43.164C20.0779 43.0817 20.1131 42.9799 20.1775 42.8618C20.3061 42.626 20.5343 42.3552 20.7872 42.0954C21.0387 41.837 21.3092 41.5951 21.5173 41.4175C21.6212 41.3288 21.7093 41.2563 21.7713 41.2061C21.7805 41.1987 21.789 41.1918 21.797 41.1854Z" fill="#689647" stroke="#689647" stroke-width="0.2"/>
<path d="M40.923 34.0465L40.9226 34.0468C40.1893 34.5655 39.506 34.5993 38.9886 34.4887C38.4653 34.3769 38.1127 34.1175 38.0529 34.0578L38.0535 34.0572L38.0436 34.0495C37.6643 33.7545 37.1208 33.841 36.8299 34.2151C36.5403 34.5874 36.5774 35.1325 36.9585 35.4289L36.9589 35.4292C37.4536 35.8098 38.3629 36.2642 39.4628 36.2642C40.2239 36.2642 41.0577 36.0357 41.888 35.4696L41.8881 35.4697L41.8931 35.4659C42.26 35.1805 42.3959 34.6381 42.0957 34.2521C41.9541 34.0701 41.7679 33.9435 41.5603 33.901C41.3511 33.858 41.129 33.9023 40.923 34.0465Z" fill="#689647" stroke="#689647" stroke-width="0.2"/>
<path d="M38.4152 31.4626C38.4152 30.9235 37.9606 30.4742 37.3898 30.4742C36.8534 30.4742 36.4015 30.9261 36.4015 31.4626C36.4015 32.0374 36.8541 32.4491 37.3862 32.4509C37.9648 32.4902 38.4152 32.0334 38.4152 31.4626Z" fill="#689647" stroke="#689647" stroke-width="0.2"/>
<path d="M41.5739 30.4742C41.0375 30.4742 40.5855 30.9261 40.5855 31.4626C40.5855 32.0387 41.0402 32.4509 41.5739 32.4509C42.109 32.4509 42.5601 32.0011 42.5622 31.4664C42.6018 30.9215 42.1413 30.4742 41.5739 30.4742Z" fill="#689647" stroke="#689647" stroke-width="0.2"/>
<path d="M18.7324 37.0925L18.7324 37.0924L18.7301 37.0903L17.5087 35.9428L17.5087 35.9428L17.5053 35.9398C17.2077 35.6848 16.7783 35.6848 16.4811 35.982L16.4809 35.9818L16.4759 35.9877C16.2209 36.2852 16.221 36.7146 16.5182 37.0118L16.5181 37.0119L16.5215 37.015L17.7784 38.1609C17.9145 38.296 18.0917 38.3366 18.2545 38.3366C18.4288 38.3366 18.6394 38.2522 18.7694 38.1222C19.0751 37.8165 19.0225 37.3825 18.7324 37.0925Z" fill="#689647" stroke="#689647" stroke-width="0.2"/>
<path d="M18.2033 39.8894L18.2033 39.8894L18.2039 39.8868C18.2904 39.4973 18.0314 39.1127 17.6468 39.0272C17.3093 38.9522 16.8246 38.8777 16.4171 38.8222C16.2129 38.7943 16.0272 38.7711 15.8878 38.7548C15.8181 38.7467 15.7597 38.7403 15.7162 38.7359C15.6809 38.7323 15.6505 38.7295 15.633 38.7289C15.2417 38.6879 14.9031 38.9915 14.8607 39.3729C14.8171 39.7653 15.1203 40.1058 15.5021 40.1493L15.5056 40.1499L15.5217 40.1524L15.583 40.1618L15.8021 40.1953C15.9837 40.2231 16.2267 40.2601 16.472 40.2971C16.7172 40.3342 16.965 40.3712 17.1561 40.399C17.2516 40.4129 17.3333 40.4245 17.3935 40.4327C17.4235 40.4368 17.4486 40.44 17.4676 40.4423C17.4833 40.4442 17.5021 40.4463 17.5141 40.4463C17.8599 40.4463 18.1191 40.2262 18.2033 39.8894Z" fill="#689647" stroke="#689647" stroke-width="0.2"/>
<path d="M15.3132 43.2L15.3131 43.2L15.3151 43.2041C15.4406 43.4551 15.6946 43.6295 15.9598 43.6295C15.9618 43.6295 15.9638 43.6295 15.9658 43.6295C16.0355 43.6295 16.128 43.6296 16.2217 43.5843C16.3798 43.524 16.6982 43.355 16.9937 43.1913C17.2919 43.0262 17.5767 42.8609 17.6737 42.8028C18.0105 42.6321 18.1862 42.2066 18.011 41.8561C17.8488 41.5319 17.4651 41.2976 17.1022 41.477C16.9647 41.5364 16.6643 41.7057 16.3775 41.8696C16.3164 41.9044 16.2559 41.9391 16.1973 41.9727C15.9752 42.1 15.7813 42.2112 15.6949 42.2546C15.5089 42.3379 15.3693 42.4752 15.2985 42.6441C15.227 42.8144 15.2286 43.0097 15.3132 43.2Z" fill="#689647" stroke="#689647" stroke-width="0.2"/>
<path d="M32.1458 35.2982L32.1465 35.2978L32.139 35.2883C31.8541 34.9219 31.3129 34.7859 30.9271 35.0842C30.1945 35.6017 29.5118 35.6353 28.9949 35.5249C28.4716 35.413 28.119 35.1537 28.0592 35.0939L28.0598 35.0933L28.0499 35.0857C27.6706 34.7906 27.1271 34.8772 26.8362 35.2513C26.5461 35.6242 26.5839 36.1711 27.0039 36.4667C27.4991 36.847 28.4075 37.3004 29.5061 37.3004C30.267 37.3004 31.1007 37.0719 31.9309 36.506C32.3164 36.2486 32.3898 35.7049 32.1458 35.2982Z" fill="#689647" stroke="#689647" stroke-width="0.2"/>
<path d="M27.3971 33.5241C27.943 33.5241 28.3855 33.0816 28.3855 32.5358C28.3855 31.99 27.943 31.5475 27.3971 31.5475C26.8513 31.5475 26.4088 31.99 26.4088 32.5358C26.4088 33.0816 26.8513 33.5241 27.3971 33.5241Z" fill="#689647" stroke="#689647" stroke-width="0.2"/>
<path d="M32.5685 32.5358C32.5685 31.9994 32.1166 31.5475 31.5801 31.5475C31.0094 31.5475 30.5548 31.9968 30.5548 32.5358C30.5548 33.0749 31.0094 33.5241 31.5801 33.5241C32.1166 33.5241 32.5685 33.0722 32.5685 32.5358Z" fill="#689647" stroke="#689647" stroke-width="0.2"/>
<path d="M24.9067 16.0123L24.9067 16.0123L24.9057 16.0139C23.9654 17.5937 23.8847 19.1128 24.6823 20.5186C25.094 21.267 25.6174 21.9769 26.3256 22.7224C27.5895 24.0606 29.1123 25.3602 31.0778 26.7694L31.0842 26.7741L31.0913 26.7776C31.247 26.8555 31.3739 26.8992 31.5432 26.8992C31.8288 26.8992 31.9998 26.778 32.0892 26.6907C33.8284 25.4322 35.2381 24.2822 36.4268 23.0564L36.4276 23.0555C37.0941 22.3521 37.8798 21.4923 38.442 20.443C38.7041 19.9562 38.972 19.3096 38.972 18.6191L38.972 18.6166C38.9343 17.0724 38.3305 15.7861 37.16 14.8413C36.473 14.2316 35.5607 13.9293 34.6154 13.9293C33.5547 13.9293 32.4916 14.3455 31.7677 15.107C31.7094 15.1654 31.6609 15.2235 31.6155 15.278L31.6144 15.2793C31.5919 15.3063 31.5701 15.3325 31.5477 15.3581C30.6321 14.2793 29.1921 13.7462 27.7869 14.0049C26.5355 14.2325 25.5867 14.9168 24.9067 16.0123ZM30.8259 16.8158L30.8329 16.8287L30.8425 16.8383C30.8423 16.8384 30.8464 16.8452 30.8548 16.8745C30.8558 16.8779 30.8568 16.8816 30.8579 16.8855C30.8659 16.9143 30.8777 16.9565 30.8985 16.9981L30.9033 17.0076L30.9099 17.0159C31.0738 17.2208 31.2818 17.3449 31.5661 17.3855L31.5731 17.3866H31.5802C31.8432 17.3866 32.0952 17.2147 32.2212 17.0049L32.2214 17.005L32.2249 16.9981C32.405 16.6378 32.5846 16.386 32.8011 16.1331C33.2629 15.6727 33.9393 15.3878 34.6524 15.3878C35.2584 15.3878 35.828 15.6018 36.254 15.9568L36.254 15.9569L36.256 15.9584C37.1178 16.6407 37.514 17.5363 37.5505 18.6577C37.5501 19.0375 37.3768 19.4241 37.1913 19.7951C36.7179 20.7053 36.0247 21.436 35.396 22.0647C34.3024 23.1583 33.1012 24.2155 31.5069 25.3438C29.7992 24.1041 28.4526 22.9368 27.3233 21.7347C26.6956 21.0331 26.2208 20.4479 25.8564 19.792C25.5865 19.3062 25.4628 18.825 25.4894 18.3283C25.516 17.8317 25.6933 17.3119 26.0375 16.7496C26.5766 15.996 27.2184 15.5682 28.0379 15.3877C28.1145 15.3869 28.198 15.3776 28.2753 15.369L28.2785 15.3687C28.3632 15.3593 28.4406 15.3508 28.508 15.3508C29.4671 15.3508 30.3234 15.8825 30.8259 16.8158Z" fill="#689647" stroke="#689647" stroke-width="0.2"/>
<path d="M34.5821 17.5665L34.5821 17.5665L34.585 17.5674C34.9011 17.6622 35.0363 17.9845 35.0709 18.1575L35.0707 18.1575L35.0725 18.1642C35.1724 18.5303 35.041 18.9381 34.802 19.2144C34.4989 19.4801 34.5091 19.9513 34.8021 20.2444C34.9322 20.3744 35.1428 20.4587 35.317 20.4587C35.4977 20.4587 35.6674 20.369 35.8212 20.2537L35.8216 20.2541L35.8296 20.2466C36.4519 19.6632 36.6795 18.6996 36.488 17.8566L36.488 17.8566L36.4869 17.8525C36.2578 17.0124 35.7562 16.4265 35.0148 16.192C34.6249 16.0625 34.2386 16.2822 34.1117 16.6627C33.9817 17.0529 34.2014 17.4396 34.5821 17.5665Z" fill="#689647" stroke="#689647" stroke-width="0.2"/>
</svg>
