<svg width="61" height="61" viewBox="0 0 61 61" fill="none" xmlns="http://www.w3.org/2000/svg">
<circle cx="30.367" cy="30.3672" r="28.3237" transform="rotate(3.5 30.367 30.3672)" fill="#BFF2F2" fill-opacity="0.2"/>
<path d="M44.3163 31.5665V28.9947C44.3133 27.5208 43.1241 26.2997 41.6655 26.2728C41.6524 26.2724 40.1962 26.2728 40.1828 26.2727C38.7065 26.247 37.4565 27.4659 37.4389 28.941C37.4269 29.9558 37.9761 30.8819 38.8723 31.358C38.9754 31.4127 39.084 31.4624 39.1817 31.5265H38.6424C38.2856 31.5265 37.9963 31.8158 37.9963 32.1726V35.3311C37.9963 35.6442 37.7416 35.8989 37.4285 35.8989H33.839C35.3835 34.4171 35.4496 32.9926 35.3965 30.9312C35.772 30.9706 36.1297 30.6595 36.1165 30.277C36.0951 28.568 35.1674 26.9753 33.6349 26.0167C33.3323 25.8273 32.9337 25.9191 32.7445 26.2218C32.5552 26.5244 32.6471 26.923 32.9496 27.1122C33.9056 27.7102 34.55 28.625 34.7548 29.6389C34.1603 29.6331 33.7042 29.4214 33.216 29.0816C32.9741 28.9127 32.692 28.8423 32.4237 29.013C31.8475 29.3792 31.2032 29.6387 30.5116 29.6387C30.5052 29.639 26.3487 29.6381 26.3428 29.639H26.2656C26.528 28.5972 27.3635 27.6015 28.1576 27.0982C28.459 26.9071 28.5484 26.5079 28.3574 26.2065C28.1664 25.9052 27.7672 25.8157 27.4658 26.0067C25.6958 27.1286 24.8896 29.011 24.8896 30.2851C24.8896 30.6419 25.1789 30.9312 25.5357 30.9312H25.7001V32.3426C25.7001 33.7467 26.3005 35.0127 27.2574 35.899H23.5776C23.3534 35.899 23.0098 35.432 23.0098 35.0284V32.1727C23.0098 31.8159 22.7206 31.5266 22.3637 31.5266H21.8854C21.9054 31.5135 22.1946 31.3581 22.1946 31.3581C23.7864 30.5126 24.1045 28.2924 22.8082 27.0347C22.2895 26.5316 21.6048 26.2616 20.8843 26.2728C20.8724 26.2729 19.4125 26.2725 19.4016 26.2729C17.9429 26.2998 16.7538 27.5208 16.7507 28.9961V31.6073C16.5518 31.7174 16.417 31.9292 16.417 32.1727V35.7458C16.417 38.9295 18.7045 41.7646 21.8146 42.4388L23.2804 42.7565V46.0187C23.2804 46.3755 23.5697 46.6649 23.9265 46.6649C24.2834 46.6649 24.5727 46.3755 24.5727 46.0187V42.2355C24.5727 41.9314 24.3606 41.6685 24.0635 41.6041L22.0884 41.1758C19.5652 40.6289 17.7093 38.3286 17.7093 35.7458V32.8188H21.7177V35.0284C21.7177 36.0494 22.5132 37.1912 23.5778 37.1912H26.9633C27.8976 40.9534 33.2007 40.951 34.1336 37.1912H37.4287C38.4543 37.1912 39.2887 36.3568 39.2887 35.3312V32.8188H43.4485V35.7372C43.4485 38.3116 41.6044 40.6069 39.0917 41.1624L37.5899 41.4944C37.294 41.5599 37.0833 41.8222 37.0833 42.1254V46.021C37.115 46.8762 38.3442 46.8755 38.3756 46.0187V42.6442L39.3706 42.4242C42.4677 41.7395 44.7407 38.9107 44.7407 35.7373V32.1727C44.7406 31.894 44.5637 31.6571 44.3163 31.5665ZM18.043 31.5266V28.9974C18.0446 28.2234 18.6618 27.5819 19.42 27.5649C19.4319 27.5648 20.8907 27.5652 20.9017 27.5648C21.2802 27.5604 21.6371 27.699 21.9084 27.9621C22.5842 28.6178 22.4186 29.7758 21.5884 30.2168C21.0221 30.5178 20.5553 30.8929 20.3473 31.5266H18.043ZM26.9923 32.3426V30.9313H30.5112C31.2983 30.9313 32.0612 30.7035 32.7471 30.3243C33.1601 30.5895 33.618 30.8087 34.1043 30.8963V32.3426C34.1043 34.2995 32.5156 35.8919 30.5603 35.8987H30.5355C28.5806 35.8919 26.9923 34.2995 26.9923 32.3426ZM30.5483 38.7379C29.533 38.7379 28.6539 38.0976 28.3105 37.1912H32.7862C32.4427 38.0976 31.5636 38.7379 30.5483 38.7379ZM40.7198 31.5266C40.5118 30.8934 40.0448 30.5176 39.4786 30.2168C38.1711 29.5016 38.7018 27.5638 40.1773 27.5649H41.6471C42.4053 27.5819 43.0225 28.2233 43.0241 28.996V31.5265H40.7198V31.5266Z" fill="#00C0C5"/>
<path d="M17.8838 22.3054C17.8856 22.306 17.8909 22.3077 17.8926 22.3083C18.6519 22.5521 19.2382 23.1548 19.4611 23.9204C19.5943 24.378 20.004 24.687 20.4805 24.6893C20.9566 24.6918 21.3701 24.3868 21.5076 23.9305C21.7392 23.1567 22.3277 22.5497 23.0977 22.3017C24.0265 22 24.0332 20.676 23.1079 20.3646C22.3196 20.0995 21.7441 19.5064 21.5016 18.711C21.3635 18.2581 20.9525 17.9543 20.4792 17.9551C20.0058 17.9558 19.5957 18.2607 19.4588 18.7143C19.2259 19.4876 18.6625 20.1131 17.8856 20.3655C17.4632 20.5028 17.1799 20.8934 17.1807 21.3376C17.1815 21.7817 17.4661 22.1713 17.8838 22.3054ZM20.4821 19.6583C20.8226 20.3723 21.3855 20.96 22.0831 21.331C21.3876 21.7001 20.8271 22.2834 20.486 22.9943C20.1457 22.2838 19.5873 21.702 18.8946 21.3337C19.588 20.9601 20.1454 20.3728 20.4821 19.6583Z" fill="#00C0C5"/>
<path d="M35.1002 20.188L35.1067 20.1901C36.5677 20.6593 37.696 21.819 38.1248 23.2923C38.5106 24.6171 40.4268 24.5685 40.7766 23.2479C41.2128 21.8023 42.3306 20.6606 43.7665 20.194L43.8119 20.1793C44.991 19.806 44.9998 18.1107 43.8251 17.7251C42.3337 17.2536 41.1884 16.0543 40.7493 14.5589C40.5716 13.976 40.0425 13.585 39.4332 13.5859C38.8237 13.5868 38.296 13.9795 38.1199 14.5629C37.68 16.0453 36.5795 17.2462 35.0963 17.7281C34.5527 17.9047 34.2022 18.3881 34.2031 18.9596C34.2041 19.5312 34.5563 20.0134 35.1002 20.188ZM35.4954 18.9572C37.3594 18.3886 38.8266 16.7967 39.3571 14.9363C39.3804 14.8593 39.4899 14.859 39.5134 14.9359C40.0648 16.8366 41.5363 18.3349 43.4127 18.9497C41.1917 19.8149 40.162 21.016 39.5223 22.9319C39.4989 23.0096 39.3885 23.0095 39.3657 22.9311C38.8166 21.045 37.3723 19.5604 35.5022 18.9599C35.5041 18.9597 35.4954 18.9594 35.4954 18.9572Z" fill="#00C0C5"/>
<path d="M29.9598 26.0287C30.1853 26.5741 30.9787 26.5483 31.1676 25.9891C31.3573 25.4309 30.7293 24.9272 30.2242 25.2274C29.9529 25.3888 29.8387 25.7377 29.9598 26.0287Z" fill="#00C0C5"/>
</svg>
