<svg width="61" height="61" viewBox="0 0 61 61" fill="none" xmlns="http://www.w3.org/2000/svg">
<circle cx="30.7754" cy="30.7754" r="30" fill="#FF936E" fill-opacity="0.2"/>
<mask id="mask0_627_123670" style="mask-type:luminance" maskUnits="userSpaceOnUse" x="13" y="13" width="35" height="35">
<path d="M13.7754 13.7754H47.7754V47.7754H13.7754V13.7754Z" fill="white"/>
</mask>
<g mask="url(#mask0_627_123670)">
<path d="M34.7627 18.7559C34.7627 20.9564 32.9788 22.7402 30.7783 22.7402C28.5778 22.7402 26.7939 20.9564 26.7939 18.7559C26.7939 16.5554 28.5778 14.7715 30.7783 14.7715C32.9788 14.7715 34.7627 16.5554 34.7627 18.7559Z" stroke="#F07E58" stroke-width="2.03125" stroke-miterlimit="10"/>
<path d="M24.8018 46.7793H20.8174C18.6199 46.7793 16.833 44.9924 16.833 42.7949C16.833 40.5975 18.6199 38.8105 20.8174 38.8105C21.8997 38.8105 26.5947 41.2607 30.7783 43.5268" stroke="#F07E58" stroke-width="2.03125" stroke-miterlimit="10"/>
<path d="M44.7236 42.7949C44.7236 40.5975 42.9367 38.8105 40.7393 38.8105C39.0262 38.8105 28.2647 44.9476 24.8018 46.7793H40.7393C42.9367 46.7793 44.7236 44.9924 44.7236 42.7949Z" stroke="#F07E58" stroke-width="2.03125" stroke-miterlimit="10"/>
<path d="M34.0577 41.7764L35.6777 32.6199C37.3644 36.2133 40.9399 38.8108 44.9229 38.8108C42.2076 36.6385 40.2718 33.437 39.8457 30.0291C39.4786 27.0932 37.1631 24.7327 34.2043 24.7327H27.3523C24.3936 24.7327 22.078 27.0932 21.7109 30.0291C21.2848 33.437 19.3489 36.6385 16.6338 38.8108C20.4204 38.8108 24.4407 36.4629 26.0285 33.1437L27.4989 41.7764" stroke="#F07E58" stroke-width="2.03125" stroke-miterlimit="10"/>
</g>
</svg>
