<svg width="61" height="61" viewBox="0 0 61 61" fill="none" xmlns="http://www.w3.org/2000/svg">
<circle cx="30.7754" cy="30.7754" r="30" fill="#FFA0FD" fill-opacity="0.2"/>
<mask id="path-2-outside-1_627_123725" maskUnits="userSpaceOnUse" x="14.2847" y="17.2471" width="33" height="31" fill="black">
<rect fill="white" x="14.2847" y="17.2471" width="33" height="31"/>
<path d="M46.2338 27.704C46.2338 25.2911 45.295 23.0232 43.5906 21.3195C41.8905 19.6127 39.6232 18.6733 37.2073 18.6733C34.8644 18.6733 32.6637 19.5647 30.9762 21.1756L30.8269 21.0245C29.0356 19.2338 26.673 18.2471 24.1743 18.2471C21.7794 18.2471 19.5409 19.1673 17.8695 20.8393C14.3517 24.3631 14.435 30.1751 18.0553 33.7954L18.4516 34.1917C18.2478 34.5646 18.1878 35.0286 18.2885 35.519C18.4078 36.0975 18.7376 36.676 19.2225 37.1532C19.8112 37.7323 20.5354 38.0656 21.223 38.0884C21.2284 38.2047 21.2338 38.321 21.2584 38.4415C21.3777 39.02 21.7074 39.5985 22.187 40.0703C22.7751 40.6494 23.4999 40.9821 24.1875 41.0049C24.1929 41.1212 24.1983 41.2375 24.2229 41.3586C24.3422 41.9371 24.6719 42.5156 25.1515 42.9874C25.7402 43.5665 26.4644 43.8993 27.1514 43.922C27.1568 44.0383 27.1622 44.1552 27.1868 44.2757C27.3061 44.8536 27.6358 45.4322 28.1208 45.9099C28.7305 46.5094 29.4864 46.8529 30.195 46.8529C30.689 46.8529 31.1158 46.6851 31.4282 46.3674L34.3944 43.3525C34.5263 43.2182 34.6193 43.0612 34.6948 42.8951C35.2637 42.8088 35.7871 42.554 36.1929 42.1422C36.796 41.5397 37.0418 40.7184 36.9531 39.9276C37.055 39.939 37.1569 39.957 37.2594 39.957C37.9524 39.957 38.6454 39.6932 39.1724 39.1663C39.7773 38.5614 40.0237 37.7395 39.9343 36.9488C40.035 36.9602 40.1346 36.9781 40.2377 36.9781C40.9613 36.9781 41.6417 36.6958 42.1536 36.1844C42.5415 35.7965 42.7957 35.3116 42.897 34.7846L43.5906 34.0916C45.295 32.3854 46.2338 30.117 46.2338 27.704ZM37.2073 19.8723C39.3025 19.8723 41.2676 20.6864 42.7423 22.1665C44.2207 23.6449 45.0354 25.6118 45.0354 27.704C45.0354 29.7956 44.2219 31.7608 42.7453 33.2391C42.6111 32.9112 42.412 32.6091 42.1536 32.3513L35.9142 26.113C35.9088 26.1076 35.9022 26.1064 35.8968 26.1016L35.3596 25.5644L35.7913 25.3109C36.0766 25.1424 36.1713 24.7749 36.0029 24.4902C35.8344 24.2042 35.4669 24.1101 35.1816 24.2779L30.3958 27.0931C29.5176 27.6021 28.4199 27.526 27.6406 26.9355C27.4949 26.8252 27.4649 26.6795 27.4589 26.6022C27.4535 26.5236 27.4643 26.3732 27.595 26.2425L31.6656 22.1659C33.1457 20.687 35.1132 19.8723 37.2073 19.8723ZM19.4623 35.278C19.4372 35.1569 19.3964 34.8559 19.5595 34.6905L22.5263 31.6757C22.6295 31.5707 22.7889 31.5486 22.9046 31.5486C23.2895 31.5486 23.7625 31.7782 24.1432 32.1534C24.4507 32.4562 24.6677 32.8261 24.7379 33.1684C24.763 33.2901 24.8038 33.591 24.6407 33.7565L21.6745 36.7713C21.5714 36.8762 21.4119 36.8984 21.2962 36.8984C20.9113 36.8984 20.4389 36.6688 20.0576 36.2935C19.7501 35.9908 19.5331 35.6209 19.4623 35.278ZM22.4322 38.1999C22.407 38.0788 22.3663 37.7779 22.5293 37.6124L25.4956 34.5976C25.5987 34.4927 25.7582 34.4705 25.8739 34.4705C26.2588 34.4705 26.7318 34.7001 27.107 35.0694C27.7107 35.6635 27.8678 36.4056 27.6052 36.6736L24.6389 39.6878C24.5352 39.7933 24.3758 39.8149 24.2607 39.8149C23.8758 39.8149 23.4034 39.5853 23.0275 39.216C22.72 38.9127 22.503 38.5428 22.4322 38.1999ZM25.4932 40.5283L28.4595 37.5141C28.5632 37.4086 28.7227 37.387 28.8384 37.387C29.2232 37.387 29.6956 37.6166 30.0709 37.9859C30.6746 38.5794 30.8317 39.3221 30.5691 39.5895L27.6028 42.6044C27.4997 42.7093 27.3402 42.7315 27.2245 42.7315C26.8397 42.7315 26.3667 42.5018 25.9914 42.1326C25.3877 41.5379 25.2306 40.7957 25.4932 40.5283ZM33.539 42.5108L30.5727 45.5257C30.4696 45.6306 30.3101 45.6528 30.1944 45.6528C29.8089 45.6528 29.3365 45.4232 28.9553 45.0479C28.6477 44.7451 28.4307 44.3753 28.3606 44.0329C28.3354 43.9112 28.2946 43.6103 28.4577 43.4448L31.424 40.43C31.5271 40.3251 31.6865 40.3029 31.8023 40.3029C32.1871 40.3029 32.6601 40.5325 33.0408 40.9078C33.6445 41.5013 33.8015 42.2441 33.539 42.5108ZM39.1688 35.3349L32.9299 29.0966C32.6955 28.8622 32.3166 28.8622 32.0822 29.0966C31.8478 29.331 31.8478 29.7099 32.0822 29.9443L38.3241 36.1856C38.6089 36.4704 38.7653 36.8487 38.7653 37.2509C38.7653 37.6532 38.6083 38.032 38.3241 38.3162C37.7384 38.9019 36.7846 38.9025 36.1971 38.3192C36.1953 38.3174 36.1941 38.315 36.1923 38.3132L29.9516 32.0725C29.7172 31.8381 29.3383 31.8381 29.1039 32.0725C28.9864 32.19 28.9283 32.3441 28.9289 32.4982C28.9289 32.6516 28.9876 32.8051 29.1045 32.922L35.3464 39.1639L35.3482 39.1657C35.9297 39.7568 35.9291 40.7088 35.3416 41.2957C35.1876 41.4521 35.0017 41.5648 34.7931 41.6392C34.6714 41.093 34.3675 40.5301 33.8771 40.0469C33.289 39.4684 32.5648 39.1351 31.8778 39.1117C31.8448 38.4505 31.5205 37.7281 30.9132 37.1298C30.3251 36.5513 29.6009 36.218 28.9139 36.1952C28.8809 35.534 28.5566 34.811 27.9493 34.2127C27.3606 33.6336 26.6364 33.3009 25.9488 33.2781C25.9434 33.1618 25.938 33.0455 25.9135 32.9244C25.7942 32.3465 25.4644 31.768 24.9795 31.2902C24.3698 30.6907 23.6144 30.3472 22.9058 30.3472C22.4112 30.3472 21.985 30.515 21.6727 30.8328L19.2507 33.2943L18.9036 32.9472C15.7503 29.7939 15.6676 24.7413 18.7178 21.6857C20.1625 20.241 22.1007 19.4455 24.1749 19.4455C26.3535 19.4455 28.4151 20.3075 29.9774 21.8692L30.1219 22.0155L26.7479 25.3942C26.4074 25.7347 26.2306 26.2053 26.2636 26.6837C26.2965 27.1615 26.5351 27.6009 26.9176 27.8905C28.0746 28.7669 29.7052 28.8784 31.0007 28.1279L34.2925 26.1915L35.0629 26.9619C35.0683 26.9673 35.0749 26.9685 35.0803 26.9732L41.3054 33.1984C41.5907 33.4843 41.7478 33.8632 41.7478 34.2666C41.7478 34.6701 41.5907 35.0496 41.3054 35.3343C40.7347 35.9075 39.7395 35.9069 39.1688 35.3349Z"/>
</mask>
<path d="M46.2338 27.704C46.2338 25.2911 45.295 23.0232 43.5906 21.3195C41.8905 19.6127 39.6232 18.6733 37.2073 18.6733C34.8644 18.6733 32.6637 19.5647 30.9762 21.1756L30.8269 21.0245C29.0356 19.2338 26.673 18.2471 24.1743 18.2471C21.7794 18.2471 19.5409 19.1673 17.8695 20.8393C14.3517 24.3631 14.435 30.1751 18.0553 33.7954L18.4516 34.1917C18.2478 34.5646 18.1878 35.0286 18.2885 35.519C18.4078 36.0975 18.7376 36.676 19.2225 37.1532C19.8112 37.7323 20.5354 38.0656 21.223 38.0884C21.2284 38.2047 21.2338 38.321 21.2584 38.4415C21.3777 39.02 21.7074 39.5985 22.187 40.0703C22.7751 40.6494 23.4999 40.9821 24.1875 41.0049C24.1929 41.1212 24.1983 41.2375 24.2229 41.3586C24.3422 41.9371 24.6719 42.5156 25.1515 42.9874C25.7402 43.5665 26.4644 43.8993 27.1514 43.922C27.1568 44.0383 27.1622 44.1552 27.1868 44.2757C27.3061 44.8536 27.6358 45.4322 28.1208 45.9099C28.7305 46.5094 29.4864 46.8529 30.195 46.8529C30.689 46.8529 31.1158 46.6851 31.4282 46.3674L34.3944 43.3525C34.5263 43.2182 34.6193 43.0612 34.6948 42.8951C35.2637 42.8088 35.7871 42.554 36.1929 42.1422C36.796 41.5397 37.0418 40.7184 36.9531 39.9276C37.055 39.939 37.1569 39.957 37.2594 39.957C37.9524 39.957 38.6454 39.6932 39.1724 39.1663C39.7773 38.5614 40.0237 37.7395 39.9343 36.9488C40.035 36.9602 40.1346 36.9781 40.2377 36.9781C40.9613 36.9781 41.6417 36.6958 42.1536 36.1844C42.5415 35.7965 42.7957 35.3116 42.897 34.7846L43.5906 34.0916C45.295 32.3854 46.2338 30.117 46.2338 27.704ZM37.2073 19.8723C39.3025 19.8723 41.2676 20.6864 42.7423 22.1665C44.2207 23.6449 45.0354 25.6118 45.0354 27.704C45.0354 29.7956 44.2219 31.7608 42.7453 33.2391C42.6111 32.9112 42.412 32.6091 42.1536 32.3513L35.9142 26.113C35.9088 26.1076 35.9022 26.1064 35.8968 26.1016L35.3596 25.5644L35.7913 25.3109C36.0766 25.1424 36.1713 24.7749 36.0029 24.4902C35.8344 24.2042 35.4669 24.1101 35.1816 24.2779L30.3958 27.0931C29.5176 27.6021 28.4199 27.526 27.6406 26.9355C27.4949 26.8252 27.4649 26.6795 27.4589 26.6022C27.4535 26.5236 27.4643 26.3732 27.595 26.2425L31.6656 22.1659C33.1457 20.687 35.1132 19.8723 37.2073 19.8723ZM19.4623 35.278C19.4372 35.1569 19.3964 34.8559 19.5595 34.6905L22.5263 31.6757C22.6295 31.5707 22.7889 31.5486 22.9046 31.5486C23.2895 31.5486 23.7625 31.7782 24.1432 32.1534C24.4507 32.4562 24.6677 32.8261 24.7379 33.1684C24.763 33.2901 24.8038 33.591 24.6407 33.7565L21.6745 36.7713C21.5714 36.8762 21.4119 36.8984 21.2962 36.8984C20.9113 36.8984 20.4389 36.6688 20.0576 36.2935C19.7501 35.9908 19.5331 35.6209 19.4623 35.278ZM22.4322 38.1999C22.407 38.0788 22.3663 37.7779 22.5293 37.6124L25.4956 34.5976C25.5987 34.4927 25.7582 34.4705 25.8739 34.4705C26.2588 34.4705 26.7318 34.7001 27.107 35.0694C27.7107 35.6635 27.8678 36.4056 27.6052 36.6736L24.6389 39.6878C24.5352 39.7933 24.3758 39.8149 24.2607 39.8149C23.8758 39.8149 23.4034 39.5853 23.0275 39.216C22.72 38.9127 22.503 38.5428 22.4322 38.1999ZM25.4932 40.5283L28.4595 37.5141C28.5632 37.4086 28.7227 37.387 28.8384 37.387C29.2232 37.387 29.6956 37.6166 30.0709 37.9859C30.6746 38.5794 30.8317 39.3221 30.5691 39.5895L27.6028 42.6044C27.4997 42.7093 27.3402 42.7315 27.2245 42.7315C26.8397 42.7315 26.3667 42.5018 25.9914 42.1326C25.3877 41.5379 25.2306 40.7957 25.4932 40.5283ZM33.539 42.5108L30.5727 45.5257C30.4696 45.6306 30.3101 45.6528 30.1944 45.6528C29.8089 45.6528 29.3365 45.4232 28.9553 45.0479C28.6477 44.7451 28.4307 44.3753 28.3606 44.0329C28.3354 43.9112 28.2946 43.6103 28.4577 43.4448L31.424 40.43C31.5271 40.3251 31.6865 40.3029 31.8023 40.3029C32.1871 40.3029 32.6601 40.5325 33.0408 40.9078C33.6445 41.5013 33.8015 42.2441 33.539 42.5108ZM39.1688 35.3349L32.9299 29.0966C32.6955 28.8622 32.3166 28.8622 32.0822 29.0966C31.8478 29.331 31.8478 29.7099 32.0822 29.9443L38.3241 36.1856C38.6089 36.4704 38.7653 36.8487 38.7653 37.2509C38.7653 37.6532 38.6083 38.032 38.3241 38.3162C37.7384 38.9019 36.7846 38.9025 36.1971 38.3192C36.1953 38.3174 36.1941 38.315 36.1923 38.3132L29.9516 32.0725C29.7172 31.8381 29.3383 31.8381 29.1039 32.0725C28.9864 32.19 28.9283 32.3441 28.9289 32.4982C28.9289 32.6516 28.9876 32.8051 29.1045 32.922L35.3464 39.1639L35.3482 39.1657C35.9297 39.7568 35.9291 40.7088 35.3416 41.2957C35.1876 41.4521 35.0017 41.5648 34.7931 41.6392C34.6714 41.093 34.3675 40.5301 33.8771 40.0469C33.289 39.4684 32.5648 39.1351 31.8778 39.1117C31.8448 38.4505 31.5205 37.7281 30.9132 37.1298C30.3251 36.5513 29.6009 36.218 28.9139 36.1952C28.8809 35.534 28.5566 34.811 27.9493 34.2127C27.3606 33.6336 26.6364 33.3009 25.9488 33.2781C25.9434 33.1618 25.938 33.0455 25.9135 32.9244C25.7942 32.3465 25.4644 31.768 24.9795 31.2902C24.3698 30.6907 23.6144 30.3472 22.9058 30.3472C22.4112 30.3472 21.985 30.515 21.6727 30.8328L19.2507 33.2943L18.9036 32.9472C15.7503 29.7939 15.6676 24.7413 18.7178 21.6857C20.1625 20.241 22.1007 19.4455 24.1749 19.4455C26.3535 19.4455 28.4151 20.3075 29.9774 21.8692L30.1219 22.0155L26.7479 25.3942C26.4074 25.7347 26.2306 26.2053 26.2636 26.6837C26.2965 27.1615 26.5351 27.6009 26.9176 27.8905C28.0746 28.7669 29.7052 28.8784 31.0007 28.1279L34.2925 26.1915L35.0629 26.9619C35.0683 26.9673 35.0749 26.9685 35.0803 26.9732L41.3054 33.1984C41.5907 33.4843 41.7478 33.8632 41.7478 34.2666C41.7478 34.6701 41.5907 35.0496 41.3054 35.3343C40.7347 35.9075 39.7395 35.9069 39.1688 35.3349Z" fill="#B38DB2"/>
<path d="M46.2338 27.704C46.2338 25.2911 45.295 23.0232 43.5906 21.3195C41.8905 19.6127 39.6232 18.6733 37.2073 18.6733C34.8644 18.6733 32.6637 19.5647 30.9762 21.1756L30.8269 21.0245C29.0356 19.2338 26.673 18.2471 24.1743 18.2471C21.7794 18.2471 19.5409 19.1673 17.8695 20.8393C14.3517 24.3631 14.435 30.1751 18.0553 33.7954L18.4516 34.1917C18.2478 34.5646 18.1878 35.0286 18.2885 35.519C18.4078 36.0975 18.7376 36.676 19.2225 37.1532C19.8112 37.7323 20.5354 38.0656 21.223 38.0884C21.2284 38.2047 21.2338 38.321 21.2584 38.4415C21.3777 39.02 21.7074 39.5985 22.187 40.0703C22.7751 40.6494 23.4999 40.9821 24.1875 41.0049C24.1929 41.1212 24.1983 41.2375 24.2229 41.3586C24.3422 41.9371 24.6719 42.5156 25.1515 42.9874C25.7402 43.5665 26.4644 43.8993 27.1514 43.922C27.1568 44.0383 27.1622 44.1552 27.1868 44.2757C27.3061 44.8536 27.6358 45.4322 28.1208 45.9099C28.7305 46.5094 29.4864 46.8529 30.195 46.8529C30.689 46.8529 31.1158 46.6851 31.4282 46.3674L34.3944 43.3525C34.5263 43.2182 34.6193 43.0612 34.6948 42.8951C35.2637 42.8088 35.7871 42.554 36.1929 42.1422C36.796 41.5397 37.0418 40.7184 36.9531 39.9276C37.055 39.939 37.1569 39.957 37.2594 39.957C37.9524 39.957 38.6454 39.6932 39.1724 39.1663C39.7773 38.5614 40.0237 37.7395 39.9343 36.9488C40.035 36.9602 40.1346 36.9781 40.2377 36.9781C40.9613 36.9781 41.6417 36.6958 42.1536 36.1844C42.5415 35.7965 42.7957 35.3116 42.897 34.7846L43.5906 34.0916C45.295 32.3854 46.2338 30.117 46.2338 27.704ZM37.2073 19.8723C39.3025 19.8723 41.2676 20.6864 42.7423 22.1665C44.2207 23.6449 45.0354 25.6118 45.0354 27.704C45.0354 29.7956 44.2219 31.7608 42.7453 33.2391C42.6111 32.9112 42.412 32.6091 42.1536 32.3513L35.9142 26.113C35.9088 26.1076 35.9022 26.1064 35.8968 26.1016L35.3596 25.5644L35.7913 25.3109C36.0766 25.1424 36.1713 24.7749 36.0029 24.4902C35.8344 24.2042 35.4669 24.1101 35.1816 24.2779L30.3958 27.0931C29.5176 27.6021 28.4199 27.526 27.6406 26.9355C27.4949 26.8252 27.4649 26.6795 27.4589 26.6022C27.4535 26.5236 27.4643 26.3732 27.595 26.2425L31.6656 22.1659C33.1457 20.687 35.1132 19.8723 37.2073 19.8723ZM19.4623 35.278C19.4372 35.1569 19.3964 34.8559 19.5595 34.6905L22.5263 31.6757C22.6295 31.5707 22.7889 31.5486 22.9046 31.5486C23.2895 31.5486 23.7625 31.7782 24.1432 32.1534C24.4507 32.4562 24.6677 32.8261 24.7379 33.1684C24.763 33.2901 24.8038 33.591 24.6407 33.7565L21.6745 36.7713C21.5714 36.8762 21.4119 36.8984 21.2962 36.8984C20.9113 36.8984 20.4389 36.6688 20.0576 36.2935C19.7501 35.9908 19.5331 35.6209 19.4623 35.278ZM22.4322 38.1999C22.407 38.0788 22.3663 37.7779 22.5293 37.6124L25.4956 34.5976C25.5987 34.4927 25.7582 34.4705 25.8739 34.4705C26.2588 34.4705 26.7318 34.7001 27.107 35.0694C27.7107 35.6635 27.8678 36.4056 27.6052 36.6736L24.6389 39.6878C24.5352 39.7933 24.3758 39.8149 24.2607 39.8149C23.8758 39.8149 23.4034 39.5853 23.0275 39.216C22.72 38.9127 22.503 38.5428 22.4322 38.1999ZM25.4932 40.5283L28.4595 37.5141C28.5632 37.4086 28.7227 37.387 28.8384 37.387C29.2232 37.387 29.6956 37.6166 30.0709 37.9859C30.6746 38.5794 30.8317 39.3221 30.5691 39.5895L27.6028 42.6044C27.4997 42.7093 27.3402 42.7315 27.2245 42.7315C26.8397 42.7315 26.3667 42.5018 25.9914 42.1326C25.3877 41.5379 25.2306 40.7957 25.4932 40.5283ZM33.539 42.5108L30.5727 45.5257C30.4696 45.6306 30.3101 45.6528 30.1944 45.6528C29.8089 45.6528 29.3365 45.4232 28.9553 45.0479C28.6477 44.7451 28.4307 44.3753 28.3606 44.0329C28.3354 43.9112 28.2946 43.6103 28.4577 43.4448L31.424 40.43C31.5271 40.3251 31.6865 40.3029 31.8023 40.3029C32.1871 40.3029 32.6601 40.5325 33.0408 40.9078C33.6445 41.5013 33.8015 42.2441 33.539 42.5108ZM39.1688 35.3349L32.9299 29.0966C32.6955 28.8622 32.3166 28.8622 32.0822 29.0966C31.8478 29.331 31.8478 29.7099 32.0822 29.9443L38.3241 36.1856C38.6089 36.4704 38.7653 36.8487 38.7653 37.2509C38.7653 37.6532 38.6083 38.032 38.3241 38.3162C37.7384 38.9019 36.7846 38.9025 36.1971 38.3192C36.1953 38.3174 36.1941 38.315 36.1923 38.3132L29.9516 32.0725C29.7172 31.8381 29.3383 31.8381 29.1039 32.0725C28.9864 32.19 28.9283 32.3441 28.9289 32.4982C28.9289 32.6516 28.9876 32.8051 29.1045 32.922L35.3464 39.1639L35.3482 39.1657C35.9297 39.7568 35.9291 40.7088 35.3416 41.2957C35.1876 41.4521 35.0017 41.5648 34.7931 41.6392C34.6714 41.093 34.3675 40.5301 33.8771 40.0469C33.289 39.4684 32.5648 39.1351 31.8778 39.1117C31.8448 38.4505 31.5205 37.7281 30.9132 37.1298C30.3251 36.5513 29.6009 36.218 28.9139 36.1952C28.8809 35.534 28.5566 34.811 27.9493 34.2127C27.3606 33.6336 26.6364 33.3009 25.9488 33.2781C25.9434 33.1618 25.938 33.0455 25.9135 32.9244C25.7942 32.3465 25.4644 31.768 24.9795 31.2902C24.3698 30.6907 23.6144 30.3472 22.9058 30.3472C22.4112 30.3472 21.985 30.515 21.6727 30.8328L19.2507 33.2943L18.9036 32.9472C15.7503 29.7939 15.6676 24.7413 18.7178 21.6857C20.1625 20.241 22.1007 19.4455 24.1749 19.4455C26.3535 19.4455 28.4151 20.3075 29.9774 21.8692L30.1219 22.0155L26.7479 25.3942C26.4074 25.7347 26.2306 26.2053 26.2636 26.6837C26.2965 27.1615 26.5351 27.6009 26.9176 27.8905C28.0746 28.7669 29.7052 28.8784 31.0007 28.1279L34.2925 26.1915L35.0629 26.9619C35.0683 26.9673 35.0749 26.9685 35.0803 26.9732L41.3054 33.1984C41.5907 33.4843 41.7478 33.8632 41.7478 34.2666C41.7478 34.6701 41.5907 35.0496 41.3054 35.3343C40.7347 35.9075 39.7395 35.9069 39.1688 35.3349Z" stroke="#B38DB2" stroke-width="0.8" mask="url(#path-2-outside-1_627_123725)"/>
</svg>
