<svg width="61" height="61" viewBox="0 0 61 61" fill="none" xmlns="http://www.w3.org/2000/svg">
<circle cx="30.7754" cy="30.7754" r="30" fill="#FF936E" fill-opacity="0.2"/>
<mask id="path-2-outside-1_627_123730" maskUnits="userSpaceOnUse" x="16.0117" y="16.0127" width="29" height="29" fill="black">
<rect fill="white" x="16.0117" y="16.0127" width="29" height="29"/>
<path d="M39.617 40.4936C42.3297 40.4936 44.5367 38.2866 44.5367 35.5739C44.5367 33.7592 43.5418 32.1073 41.9681 31.2514C42.0068 31.0086 42.0264 30.7623 42.0264 30.5151C42.0264 27.9567 39.9451 25.8753 37.3867 25.8753C36.8967 25.8753 36.4245 25.9522 35.9808 26.0937C35.9871 25.9482 35.9914 25.8025 35.9914 25.6571C35.9914 23.889 35.5193 22.1536 34.6262 20.6385C33.7595 19.1682 32.5206 17.9395 31.0434 17.0849C30.8769 16.9886 30.6715 16.9886 30.505 17.0849C29.0278 17.9395 27.7889 19.1682 26.9222 20.6385C26.0291 22.1536 25.5569 23.889 25.5569 25.6571C25.5569 25.7309 25.559 25.8044 25.5606 25.878C25.103 25.7875 24.6361 25.7411 24.1652 25.7411C22.6913 25.7411 21.2759 26.1858 20.0719 27.0272C18.8957 27.8492 18.0022 28.9888 17.4881 30.3227C17.3813 30.5997 17.5194 30.9109 17.7964 31.0177C17.86 31.0422 17.9253 31.0538 17.9896 31.0538C18.2055 31.0538 18.4091 30.9228 18.4913 30.7093C19.3888 28.3807 21.6689 26.8162 24.1652 26.8162C24.6685 26.8162 25.1658 26.8785 25.6486 26.9995C25.8254 28.2955 26.2567 29.5468 26.9222 30.6757C27.7167 32.0234 28.8247 33.1674 30.1416 34.0071C29.6468 36.6852 27.4052 38.7097 24.7028 38.9489V36.8969L27.1536 34.4461C27.3635 34.2361 27.3635 33.8957 27.1536 33.6858C26.9437 33.4758 26.6033 33.4758 26.3933 33.6858L24.7028 35.3762V31.3753C24.7028 31.0784 24.4621 30.8377 24.1652 30.8377C23.8683 30.8377 23.6276 31.0784 23.6276 31.3753V33.0577L22.5787 32.0087C22.3687 31.7988 22.0283 31.7988 21.8183 32.0087C21.6083 32.2187 21.6084 32.5591 21.8183 32.769L23.6276 34.5783V38.9477C21.3466 38.7416 19.324 37.24 18.4914 35.0799C18.3846 34.8029 18.0735 34.6649 17.7964 34.7716C17.5194 34.8784 17.3813 35.1896 17.4881 35.4667C18.0023 36.8005 18.8958 37.9401 20.072 38.762C21.1288 39.5005 22.3485 39.9332 23.6276 40.028V43.4625H17.5493C17.2524 43.4625 17.0117 43.7032 17.0117 44.0001C17.0117 44.297 17.2524 44.5377 17.5493 44.5377H43.9991C44.296 44.5377 44.5367 44.297 44.5367 44.0001C44.5367 43.7032 44.296 43.4625 43.9991 43.4625H37.5797V40.0529C38.2144 40.3426 38.9046 40.4936 39.617 40.4936ZM40.9512 30.5151C40.9512 30.8201 40.9126 31.1231 40.8365 31.4156C40.7698 31.6721 40.8999 31.939 41.1431 32.0443C42.5515 32.6543 43.4615 34.0397 43.4615 35.5739C43.4615 37.6938 41.7369 39.4185 39.617 39.4185C38.8886 39.4185 38.1898 39.2169 37.5797 38.8341V35.6805L39.6954 33.5647C39.9054 33.3548 39.9054 33.0143 39.6954 32.8044C39.4855 32.5944 39.1451 32.5944 38.9351 32.8044L37.5796 34.1599V32.997C37.5796 32.7001 37.3389 32.4594 37.042 32.4594C36.7451 32.4594 36.5044 32.7001 36.5044 32.997V36.2133L35.282 34.9909C35.0721 34.781 34.7317 34.781 34.5217 34.9909C34.3117 35.2009 34.3118 35.5413 34.5217 35.7513L36.5044 37.7339V38.8475C35.9537 39.2216 35.3149 39.4184 34.6415 39.4184C32.8055 39.4184 31.3117 37.9247 31.3117 36.0886C31.3117 34.554 32.3508 33.225 33.8386 32.8568C33.9969 32.8176 34.1287 32.7088 34.1973 32.5609C34.2658 32.413 34.2635 32.2421 34.1911 32.0961C33.9462 31.6022 33.822 31.0702 33.822 30.5151C33.822 28.5495 35.4211 26.9505 37.3866 26.9505C39.352 26.9505 40.9512 28.5496 40.9512 30.5151ZM26.6322 25.6571C26.6322 22.6225 28.2114 19.7855 30.7742 18.1778C33.3371 19.7855 34.9163 22.6225 34.9163 25.6571C34.9163 25.9801 34.8979 26.3045 34.863 26.6247C33.5906 27.453 32.7469 28.8869 32.7469 30.5151C32.7469 30.802 32.7734 31.084 32.8242 31.3603C32.3746 31.8907 31.8686 32.3626 31.3118 32.7711V26.5129L32.964 24.8607C33.174 24.6508 33.174 24.3104 32.964 24.1004C32.7541 23.8905 32.4137 23.8905 32.2037 24.1004L31.3118 24.9924V22.7112C31.3118 22.4143 31.0711 22.1736 30.7742 22.1736C30.4773 22.1736 30.2366 22.4143 30.2366 22.7112V27.5105L28.9043 26.1781C28.6944 25.9682 28.354 25.9682 28.144 26.1781C27.9341 26.3881 27.9341 26.7285 28.144 26.9384L30.2366 29.031V32.7696C27.9927 31.1183 26.6322 28.4731 26.6322 25.6571ZM24.7028 40.0277C27.017 39.8539 29.0541 38.5679 30.2366 36.6775V43.4625H24.7028V40.0277ZM31.3118 43.4625V38.9675C32.1202 39.9012 33.3127 40.4937 34.6416 40.4937C35.2965 40.4937 35.927 40.3531 36.5045 40.0821V43.4625H31.3118Z"/>
</mask>
<path d="M39.617 40.4936C42.3297 40.4936 44.5367 38.2866 44.5367 35.5739C44.5367 33.7592 43.5418 32.1073 41.9681 31.2514C42.0068 31.0086 42.0264 30.7623 42.0264 30.5151C42.0264 27.9567 39.9451 25.8753 37.3867 25.8753C36.8967 25.8753 36.4245 25.9522 35.9808 26.0937C35.9871 25.9482 35.9914 25.8025 35.9914 25.6571C35.9914 23.889 35.5193 22.1536 34.6262 20.6385C33.7595 19.1682 32.5206 17.9395 31.0434 17.0849C30.8769 16.9886 30.6715 16.9886 30.505 17.0849C29.0278 17.9395 27.7889 19.1682 26.9222 20.6385C26.0291 22.1536 25.5569 23.889 25.5569 25.6571C25.5569 25.7309 25.559 25.8044 25.5606 25.878C25.103 25.7875 24.6361 25.7411 24.1652 25.7411C22.6913 25.7411 21.2759 26.1858 20.0719 27.0272C18.8957 27.8492 18.0022 28.9888 17.4881 30.3227C17.3813 30.5997 17.5194 30.9109 17.7964 31.0177C17.86 31.0422 17.9253 31.0538 17.9896 31.0538C18.2055 31.0538 18.4091 30.9228 18.4913 30.7093C19.3888 28.3807 21.6689 26.8162 24.1652 26.8162C24.6685 26.8162 25.1658 26.8785 25.6486 26.9995C25.8254 28.2955 26.2567 29.5468 26.9222 30.6757C27.7167 32.0234 28.8247 33.1674 30.1416 34.0071C29.6468 36.6852 27.4052 38.7097 24.7028 38.9489V36.8969L27.1536 34.4461C27.3635 34.2361 27.3635 33.8957 27.1536 33.6858C26.9437 33.4758 26.6033 33.4758 26.3933 33.6858L24.7028 35.3762V31.3753C24.7028 31.0784 24.4621 30.8377 24.1652 30.8377C23.8683 30.8377 23.6276 31.0784 23.6276 31.3753V33.0577L22.5787 32.0087C22.3687 31.7988 22.0283 31.7988 21.8183 32.0087C21.6083 32.2187 21.6084 32.5591 21.8183 32.769L23.6276 34.5783V38.9477C21.3466 38.7416 19.324 37.24 18.4914 35.0799C18.3846 34.8029 18.0735 34.6649 17.7964 34.7716C17.5194 34.8784 17.3813 35.1896 17.4881 35.4667C18.0023 36.8005 18.8958 37.9401 20.072 38.762C21.1288 39.5005 22.3485 39.9332 23.6276 40.028V43.4625H17.5493C17.2524 43.4625 17.0117 43.7032 17.0117 44.0001C17.0117 44.297 17.2524 44.5377 17.5493 44.5377H43.9991C44.296 44.5377 44.5367 44.297 44.5367 44.0001C44.5367 43.7032 44.296 43.4625 43.9991 43.4625H37.5797V40.0529C38.2144 40.3426 38.9046 40.4936 39.617 40.4936ZM40.9512 30.5151C40.9512 30.8201 40.9126 31.1231 40.8365 31.4156C40.7698 31.6721 40.8999 31.939 41.1431 32.0443C42.5515 32.6543 43.4615 34.0397 43.4615 35.5739C43.4615 37.6938 41.7369 39.4185 39.617 39.4185C38.8886 39.4185 38.1898 39.2169 37.5797 38.8341V35.6805L39.6954 33.5647C39.9054 33.3548 39.9054 33.0143 39.6954 32.8044C39.4855 32.5944 39.1451 32.5944 38.9351 32.8044L37.5796 34.1599V32.997C37.5796 32.7001 37.3389 32.4594 37.042 32.4594C36.7451 32.4594 36.5044 32.7001 36.5044 32.997V36.2133L35.282 34.9909C35.0721 34.781 34.7317 34.781 34.5217 34.9909C34.3117 35.2009 34.3118 35.5413 34.5217 35.7513L36.5044 37.7339V38.8475C35.9537 39.2216 35.3149 39.4184 34.6415 39.4184C32.8055 39.4184 31.3117 37.9247 31.3117 36.0886C31.3117 34.554 32.3508 33.225 33.8386 32.8568C33.9969 32.8176 34.1287 32.7088 34.1973 32.5609C34.2658 32.413 34.2635 32.2421 34.1911 32.0961C33.9462 31.6022 33.822 31.0702 33.822 30.5151C33.822 28.5495 35.4211 26.9505 37.3866 26.9505C39.352 26.9505 40.9512 28.5496 40.9512 30.5151ZM26.6322 25.6571C26.6322 22.6225 28.2114 19.7855 30.7742 18.1778C33.3371 19.7855 34.9163 22.6225 34.9163 25.6571C34.9163 25.9801 34.8979 26.3045 34.863 26.6247C33.5906 27.453 32.7469 28.8869 32.7469 30.5151C32.7469 30.802 32.7734 31.084 32.8242 31.3603C32.3746 31.8907 31.8686 32.3626 31.3118 32.7711V26.5129L32.964 24.8607C33.174 24.6508 33.174 24.3104 32.964 24.1004C32.7541 23.8905 32.4137 23.8905 32.2037 24.1004L31.3118 24.9924V22.7112C31.3118 22.4143 31.0711 22.1736 30.7742 22.1736C30.4773 22.1736 30.2366 22.4143 30.2366 22.7112V27.5105L28.9043 26.1781C28.6944 25.9682 28.354 25.9682 28.144 26.1781C27.9341 26.3881 27.9341 26.7285 28.144 26.9384L30.2366 29.031V32.7696C27.9927 31.1183 26.6322 28.4731 26.6322 25.6571ZM24.7028 40.0277C27.017 39.8539 29.0541 38.5679 30.2366 36.6775V43.4625H24.7028V40.0277ZM31.3118 43.4625V38.9675C32.1202 39.9012 33.3127 40.4937 34.6416 40.4937C35.2965 40.4937 35.927 40.3531 36.5045 40.0821V43.4625H31.3118Z" fill="#F07E58"/>
<path d="M39.617 40.4936C42.3297 40.4936 44.5367 38.2866 44.5367 35.5739C44.5367 33.7592 43.5418 32.1073 41.9681 31.2514C42.0068 31.0086 42.0264 30.7623 42.0264 30.5151C42.0264 27.9567 39.9451 25.8753 37.3867 25.8753C36.8967 25.8753 36.4245 25.9522 35.9808 26.0937C35.9871 25.9482 35.9914 25.8025 35.9914 25.6571C35.9914 23.889 35.5193 22.1536 34.6262 20.6385C33.7595 19.1682 32.5206 17.9395 31.0434 17.0849C30.8769 16.9886 30.6715 16.9886 30.505 17.0849C29.0278 17.9395 27.7889 19.1682 26.9222 20.6385C26.0291 22.1536 25.5569 23.889 25.5569 25.6571C25.5569 25.7309 25.559 25.8044 25.5606 25.878C25.103 25.7875 24.6361 25.7411 24.1652 25.7411C22.6913 25.7411 21.2759 26.1858 20.0719 27.0272C18.8957 27.8492 18.0022 28.9888 17.4881 30.3227C17.3813 30.5997 17.5194 30.9109 17.7964 31.0177C17.86 31.0422 17.9253 31.0538 17.9896 31.0538C18.2055 31.0538 18.4091 30.9228 18.4913 30.7093C19.3888 28.3807 21.6689 26.8162 24.1652 26.8162C24.6685 26.8162 25.1658 26.8785 25.6486 26.9995C25.8254 28.2955 26.2567 29.5468 26.9222 30.6757C27.7167 32.0234 28.8247 33.1674 30.1416 34.0071C29.6468 36.6852 27.4052 38.7097 24.7028 38.9489V36.8969L27.1536 34.4461C27.3635 34.2361 27.3635 33.8957 27.1536 33.6858C26.9437 33.4758 26.6033 33.4758 26.3933 33.6858L24.7028 35.3762V31.3753C24.7028 31.0784 24.4621 30.8377 24.1652 30.8377C23.8683 30.8377 23.6276 31.0784 23.6276 31.3753V33.0577L22.5787 32.0087C22.3687 31.7988 22.0283 31.7988 21.8183 32.0087C21.6083 32.2187 21.6084 32.5591 21.8183 32.769L23.6276 34.5783V38.9477C21.3466 38.7416 19.324 37.24 18.4914 35.0799C18.3846 34.8029 18.0735 34.6649 17.7964 34.7716C17.5194 34.8784 17.3813 35.1896 17.4881 35.4667C18.0023 36.8005 18.8958 37.9401 20.072 38.762C21.1288 39.5005 22.3485 39.9332 23.6276 40.028V43.4625H17.5493C17.2524 43.4625 17.0117 43.7032 17.0117 44.0001C17.0117 44.297 17.2524 44.5377 17.5493 44.5377H43.9991C44.296 44.5377 44.5367 44.297 44.5367 44.0001C44.5367 43.7032 44.296 43.4625 43.9991 43.4625H37.5797V40.0529C38.2144 40.3426 38.9046 40.4936 39.617 40.4936ZM40.9512 30.5151C40.9512 30.8201 40.9126 31.1231 40.8365 31.4156C40.7698 31.6721 40.8999 31.939 41.1431 32.0443C42.5515 32.6543 43.4615 34.0397 43.4615 35.5739C43.4615 37.6938 41.7369 39.4185 39.617 39.4185C38.8886 39.4185 38.1898 39.2169 37.5797 38.8341V35.6805L39.6954 33.5647C39.9054 33.3548 39.9054 33.0143 39.6954 32.8044C39.4855 32.5944 39.1451 32.5944 38.9351 32.8044L37.5796 34.1599V32.997C37.5796 32.7001 37.3389 32.4594 37.042 32.4594C36.7451 32.4594 36.5044 32.7001 36.5044 32.997V36.2133L35.282 34.9909C35.0721 34.781 34.7317 34.781 34.5217 34.9909C34.3117 35.2009 34.3118 35.5413 34.5217 35.7513L36.5044 37.7339V38.8475C35.9537 39.2216 35.3149 39.4184 34.6415 39.4184C32.8055 39.4184 31.3117 37.9247 31.3117 36.0886C31.3117 34.554 32.3508 33.225 33.8386 32.8568C33.9969 32.8176 34.1287 32.7088 34.1973 32.5609C34.2658 32.413 34.2635 32.2421 34.1911 32.0961C33.9462 31.6022 33.822 31.0702 33.822 30.5151C33.822 28.5495 35.4211 26.9505 37.3866 26.9505C39.352 26.9505 40.9512 28.5496 40.9512 30.5151ZM26.6322 25.6571C26.6322 22.6225 28.2114 19.7855 30.7742 18.1778C33.3371 19.7855 34.9163 22.6225 34.9163 25.6571C34.9163 25.9801 34.8979 26.3045 34.863 26.6247C33.5906 27.453 32.7469 28.8869 32.7469 30.5151C32.7469 30.802 32.7734 31.084 32.8242 31.3603C32.3746 31.8907 31.8686 32.3626 31.3118 32.7711V26.5129L32.964 24.8607C33.174 24.6508 33.174 24.3104 32.964 24.1004C32.7541 23.8905 32.4137 23.8905 32.2037 24.1004L31.3118 24.9924V22.7112C31.3118 22.4143 31.0711 22.1736 30.7742 22.1736C30.4773 22.1736 30.2366 22.4143 30.2366 22.7112V27.5105L28.9043 26.1781C28.6944 25.9682 28.354 25.9682 28.144 26.1781C27.9341 26.3881 27.9341 26.7285 28.144 26.9384L30.2366 29.031V32.7696C27.9927 31.1183 26.6322 28.4731 26.6322 25.6571ZM24.7028 40.0277C27.017 39.8539 29.0541 38.5679 30.2366 36.6775V43.4625H24.7028V40.0277ZM31.3118 43.4625V38.9675C32.1202 39.9012 33.3127 40.4937 34.6416 40.4937C35.2965 40.4937 35.927 40.3531 36.5045 40.0821V43.4625H31.3118Z" stroke="#F07E58" stroke-width="0.4" mask="url(#path-2-outside-1_627_123730)"/>
<path d="M43.3622 20.2204C43.3622 19.0997 42.4504 18.1879 41.3298 18.1879C40.2092 18.1879 39.2973 19.0997 39.2973 20.2204H43.3622ZM43.3622 20.2204C43.3622 21.341 42.4504 22.2529 41.3298 22.2529M43.3622 20.2204L41.3298 22.2529M41.3298 22.2529C40.2091 22.2529 39.2973 21.341 39.2973 20.2204L41.3298 22.2529ZM41.3298 23.528C43.1537 23.528 44.6374 22.0443 44.6374 20.2203C44.6374 18.3964 43.1537 16.9127 41.3298 16.9127C39.5058 16.9127 38.0221 18.3964 38.0221 20.2204C38.0221 22.0444 39.5058 23.528 41.3298 23.528Z" fill="#F07E58" stroke="#F07E58" stroke-width="0.2"/>
<path d="M17.9996 33.3454L17.9998 33.3452C18.1182 33.2261 18.1864 33.0627 18.1864 32.8946C18.1864 32.726 18.1183 32.5625 17.9998 32.4434L17.9996 32.4433C17.8809 32.3245 17.7168 32.2564 17.5488 32.2564C17.3809 32.2564 17.2168 32.3245 17.098 32.4433C16.9793 32.562 16.9112 32.7261 16.9112 32.8946C16.9112 33.0625 16.9793 33.2267 17.098 33.3454C17.2169 33.4643 17.3811 33.5316 17.5488 33.5316C17.7165 33.5316 17.8807 33.4643 17.9996 33.3454Z" fill="#F07E58" stroke="#F07E58" stroke-width="0.2"/>
</svg>
