<svg width="61" height="61" viewBox="0 0 61 61" fill="none" xmlns="http://www.w3.org/2000/svg">
<circle cx="30.8806" cy="30.8809" r="28.3237" transform="rotate(3.5 30.8806 30.8809)" fill="#BFF2F2" fill-opacity="0.2"/>
<path d="M26.9387 33.9509V36.5037C26.9387 37.9617 25.7605 39.1436 24.3073 39.1436C22.8539 39.1436 21.6758 37.9617 21.6758 36.5037V33.7413" stroke="#00C0C5" stroke-width="1.8" stroke-miterlimit="10"/>
<path d="M24.7507 39.1439H23.859C20.1836 39.1439 17.2041 42.1233 17.2041 45.7987V45.8125H31.4055V45.7987C31.4055 42.1233 28.4261 39.1439 24.7507 39.1439Z" stroke="#00C0C5" stroke-width="1.8" stroke-miterlimit="10" stroke-linecap="round" stroke-linejoin="round"/>
<path d="M38.9465 39.1439H38.0548C34.3794 39.1439 31.3999 42.1233 31.3999 45.7987V45.8125H45.6013V45.7987C45.6013 42.1233 42.6218 39.1439 38.9465 39.1439Z" stroke="#00C0C5" stroke-width="1.8" stroke-miterlimit="10" stroke-linecap="round" stroke-linejoin="round"/>
<path d="M19.6377 29.8186H24.0423C25.5666 29.8186 26.8023 31.0543 26.8023 32.5785V34.2803H22.3976C20.8733 34.2803 19.6377 33.0446 19.6377 31.5204V29.8186Z" stroke="#00C0C5" stroke-width="1.8" stroke-miterlimit="10" stroke-linecap="round" stroke-linejoin="round"/>
<path d="M38.608 14.3144C37.1546 12.8618 34.7982 12.8618 33.3449 14.3144L31.444 16.2146L29.5429 14.3144C28.0896 12.8618 25.7333 12.8618 24.28 14.3144C22.8266 15.7672 22.8266 18.1225 24.28 19.5752L28.8124 24.1057C30.2658 25.5585 32.6221 25.5585 34.0755 24.1057L38.608 19.5752C40.0613 18.1225 40.0613 15.7672 38.608 14.3144Z" stroke="#00C0C5" stroke-width="1.8" stroke-miterlimit="10" stroke-linejoin="round"/>
<path d="M41.1344 36.2676H43.2761V34.2629C43.2761 31.6268 41.139 29.4899 38.503 29.4899C35.867 29.4899 33.73 31.6268 33.73 34.2629V36.2676H35.8715" stroke="#00C0C5" stroke-width="1.8" stroke-miterlimit="10" stroke-linejoin="round"/>
<path d="M39.1671 33.4814H37.6039C37.6039 34.4395 36.8273 35.2162 35.8691 35.2162V36.5037C35.8691 37.9617 37.0472 39.1436 38.5005 39.1436C39.9538 39.1436 41.132 37.9617 41.132 36.5037V35.4463C41.132 34.361 40.2523 33.4814 39.1671 33.4814Z" stroke="#00C0C5" stroke-width="1.8" stroke-miterlimit="10" stroke-linejoin="round"/>
</svg>
