<svg width="61" height="61" viewBox="0 0 61 61" fill="none" xmlns="http://www.w3.org/2000/svg">
<circle cx="30.8806" cy="30.8809" r="28.3237" transform="rotate(3.5 30.8806 30.8809)" fill="#8CD956" fill-opacity="0.2"/>
<mask id="path-2-outside-1_627_123652" maskUnits="userSpaceOnUse" x="17.8237" y="14.5889" width="27" height="33" fill="black">
<rect fill="white" x="17.8237" y="14.5889" width="27" height="33"/>
<path d="M37.1203 40.1883C36.1017 39.2671 34.8956 38.6052 33.5973 38.2391C34.9798 37.4165 35.9085 35.9079 35.9085 34.1858C35.9085 31.5867 33.794 29.4721 31.1948 29.4721C28.5957 29.4721 26.4811 31.5867 26.4811 34.1858C26.4811 35.9079 27.4099 37.4165 28.7923 38.2391C27.494 38.6052 26.2879 39.2671 25.2692 40.1883C23.6547 41.6484 22.6384 43.6395 22.4078 45.7948C22.3928 45.9348 22.438 46.0745 22.5321 46.1792C22.6262 46.2838 22.7604 46.3437 22.901 46.3437L39.4885 46.3436C39.6293 46.3436 39.7634 46.2838 39.8574 46.1791C39.9516 46.0744 39.9967 45.9347 39.9817 45.7947C39.7511 43.6395 38.7348 41.6484 37.1203 40.1883ZM27.4733 34.1858C27.4733 32.1337 29.1428 30.4642 31.1949 30.4642C33.247 30.4642 34.9165 32.1337 34.9165 34.1858C34.9165 36.2377 33.2475 37.9069 31.1957 37.9074C31.1955 37.9074 31.1952 37.9074 31.1949 37.9074C31.1947 37.9074 31.1944 37.9074 31.1941 37.9074C29.1423 37.907 27.4733 36.2377 27.4733 34.1858ZM23.4724 45.3516C24.134 41.6368 27.3609 38.8999 31.1941 38.8995H31.1949C31.1949 38.8995 31.1954 38.8995 31.1957 38.8995C35.0286 38.8999 38.2557 41.6368 38.9173 45.3516L23.4724 45.3516ZM25.7343 20.5414L28.2296 22.547L27.3898 25.6362C27.3079 25.9374 27.4182 26.2506 27.6707 26.4341C27.8021 26.5296 27.9549 26.5775 28.1082 26.5775C28.2494 26.5775 28.391 26.5367 28.5163 26.4547L31.1948 24.7013L33.8734 26.4547C34.1345 26.6256 34.4664 26.6176 34.7191 26.434C34.9716 26.2505 35.0818 25.9373 34.9999 25.6362L34.16 22.547L36.6553 20.5414C36.8986 20.3458 36.9934 20.0277 36.8969 19.7308C36.8004 19.4339 36.5367 19.2323 36.225 19.2171L33.0273 19.0612L31.8911 16.0683C31.7805 15.7771 31.5073 15.5889 31.1949 15.5889C30.8825 15.5889 30.6092 15.7771 30.4985 16.0683L29.3623 19.0612L26.1647 19.2171C25.8529 19.2323 25.5891 19.434 25.4926 19.7309C25.3962 20.0277 25.491 20.3459 25.7343 20.5414ZM29.5722 20.0442C29.868 20.0298 30.1271 19.8417 30.2323 19.5647L31.1948 17.0295L32.1574 19.5648C32.2625 19.8417 32.5217 20.0298 32.8174 20.0442L35.526 20.1762L33.4124 21.8751C33.1813 22.0607 33.0824 22.3654 33.1603 22.651L33.8717 25.2678L31.6027 23.7825C31.4789 23.7015 31.3369 23.661 31.1949 23.661C31.0529 23.661 30.9109 23.7015 30.787 23.7826L28.5181 25.2678L29.2295 22.651C29.3072 22.3653 29.2083 22.0607 28.9775 21.8751L26.8638 20.1762L29.5722 20.0442ZM23.2246 28.1305H19.3198C19.0458 28.1305 18.8237 27.9084 18.8237 27.6344C18.8237 27.3605 19.0458 27.1384 19.3198 27.1384H23.2247C23.4986 27.1384 23.7207 27.3605 23.7207 27.6344C23.7207 27.9084 23.4985 28.1305 23.2246 28.1305ZM20.4811 21.4489C20.618 21.2116 20.9214 21.1303 21.1587 21.2674L24.5404 23.2198C24.7776 23.3568 24.859 23.6602 24.722 23.8974C24.6301 24.0565 24.4633 24.1455 24.2919 24.1455C24.2078 24.1455 24.1225 24.124 24.0444 24.0789L20.6626 22.1265C20.4254 21.9895 20.344 21.6861 20.4811 21.4489ZM24.5404 32.0492L21.1587 34.0016C21.0806 34.0467 20.9952 34.0681 20.9112 34.0681C20.7396 34.0681 20.573 33.9792 20.4811 33.82C20.344 33.5828 20.4254 33.2794 20.6626 33.1424L24.0444 31.19C24.2818 31.053 24.5851 31.1345 24.722 31.3716C24.859 31.6088 24.7776 31.9122 24.5404 32.0492ZM41.9085 33.82C41.8166 33.9791 41.6498 34.0681 41.4784 34.0681C41.3943 34.0681 41.309 34.0466 41.2309 34.0015L37.8492 32.0491C37.612 31.9121 37.5306 31.6087 37.6677 31.3715C37.8046 31.1343 38.108 31.0529 38.3453 31.1899L41.7269 33.1424C41.9642 33.2794 42.0455 33.5828 41.9085 33.82ZM43.5659 27.6344C43.5659 27.9084 43.3438 28.1305 43.0698 28.1305H39.165C38.8911 28.1305 38.669 27.9084 38.669 27.6344C38.669 27.3605 38.8911 27.1384 39.165 27.1384H43.0699C43.3438 27.1384 43.5659 27.3605 43.5659 27.6344ZM37.6677 23.8973C37.5306 23.6601 37.612 23.3567 37.8492 23.2197L41.2309 21.2673C41.4683 21.1303 41.7716 21.2117 41.9085 21.4488C42.0455 21.6861 41.9642 21.9895 41.7269 22.1264L38.3453 24.0789C38.2671 24.124 38.1818 24.1454 38.0977 24.1454C37.9262 24.1455 37.7595 24.0565 37.6677 23.8973Z"/>
</mask>
<path d="M37.1203 40.1883C36.1017 39.2671 34.8956 38.6052 33.5973 38.2391C34.9798 37.4165 35.9085 35.9079 35.9085 34.1858C35.9085 31.5867 33.794 29.4721 31.1948 29.4721C28.5957 29.4721 26.4811 31.5867 26.4811 34.1858C26.4811 35.9079 27.4099 37.4165 28.7923 38.2391C27.494 38.6052 26.2879 39.2671 25.2692 40.1883C23.6547 41.6484 22.6384 43.6395 22.4078 45.7948C22.3928 45.9348 22.438 46.0745 22.5321 46.1792C22.6262 46.2838 22.7604 46.3437 22.901 46.3437L39.4885 46.3436C39.6293 46.3436 39.7634 46.2838 39.8574 46.1791C39.9516 46.0744 39.9967 45.9347 39.9817 45.7947C39.7511 43.6395 38.7348 41.6484 37.1203 40.1883ZM27.4733 34.1858C27.4733 32.1337 29.1428 30.4642 31.1949 30.4642C33.247 30.4642 34.9165 32.1337 34.9165 34.1858C34.9165 36.2377 33.2475 37.9069 31.1957 37.9074C31.1955 37.9074 31.1952 37.9074 31.1949 37.9074C31.1947 37.9074 31.1944 37.9074 31.1941 37.9074C29.1423 37.907 27.4733 36.2377 27.4733 34.1858ZM23.4724 45.3516C24.134 41.6368 27.3609 38.8999 31.1941 38.8995H31.1949C31.1949 38.8995 31.1954 38.8995 31.1957 38.8995C35.0286 38.8999 38.2557 41.6368 38.9173 45.3516L23.4724 45.3516ZM25.7343 20.5414L28.2296 22.547L27.3898 25.6362C27.3079 25.9374 27.4182 26.2506 27.6707 26.4341C27.8021 26.5296 27.9549 26.5775 28.1082 26.5775C28.2494 26.5775 28.391 26.5367 28.5163 26.4547L31.1948 24.7013L33.8734 26.4547C34.1345 26.6256 34.4664 26.6176 34.7191 26.434C34.9716 26.2505 35.0818 25.9373 34.9999 25.6362L34.16 22.547L36.6553 20.5414C36.8986 20.3458 36.9934 20.0277 36.8969 19.7308C36.8004 19.4339 36.5367 19.2323 36.225 19.2171L33.0273 19.0612L31.8911 16.0683C31.7805 15.7771 31.5073 15.5889 31.1949 15.5889C30.8825 15.5889 30.6092 15.7771 30.4985 16.0683L29.3623 19.0612L26.1647 19.2171C25.8529 19.2323 25.5891 19.434 25.4926 19.7309C25.3962 20.0277 25.491 20.3459 25.7343 20.5414ZM29.5722 20.0442C29.868 20.0298 30.1271 19.8417 30.2323 19.5647L31.1948 17.0295L32.1574 19.5648C32.2625 19.8417 32.5217 20.0298 32.8174 20.0442L35.526 20.1762L33.4124 21.8751C33.1813 22.0607 33.0824 22.3654 33.1603 22.651L33.8717 25.2678L31.6027 23.7825C31.4789 23.7015 31.3369 23.661 31.1949 23.661C31.0529 23.661 30.9109 23.7015 30.787 23.7826L28.5181 25.2678L29.2295 22.651C29.3072 22.3653 29.2083 22.0607 28.9775 21.8751L26.8638 20.1762L29.5722 20.0442ZM23.2246 28.1305H19.3198C19.0458 28.1305 18.8237 27.9084 18.8237 27.6344C18.8237 27.3605 19.0458 27.1384 19.3198 27.1384H23.2247C23.4986 27.1384 23.7207 27.3605 23.7207 27.6344C23.7207 27.9084 23.4985 28.1305 23.2246 28.1305ZM20.4811 21.4489C20.618 21.2116 20.9214 21.1303 21.1587 21.2674L24.5404 23.2198C24.7776 23.3568 24.859 23.6602 24.722 23.8974C24.6301 24.0565 24.4633 24.1455 24.2919 24.1455C24.2078 24.1455 24.1225 24.124 24.0444 24.0789L20.6626 22.1265C20.4254 21.9895 20.344 21.6861 20.4811 21.4489ZM24.5404 32.0492L21.1587 34.0016C21.0806 34.0467 20.9952 34.0681 20.9112 34.0681C20.7396 34.0681 20.573 33.9792 20.4811 33.82C20.344 33.5828 20.4254 33.2794 20.6626 33.1424L24.0444 31.19C24.2818 31.053 24.5851 31.1345 24.722 31.3716C24.859 31.6088 24.7776 31.9122 24.5404 32.0492ZM41.9085 33.82C41.8166 33.9791 41.6498 34.0681 41.4784 34.0681C41.3943 34.0681 41.309 34.0466 41.2309 34.0015L37.8492 32.0491C37.612 31.9121 37.5306 31.6087 37.6677 31.3715C37.8046 31.1343 38.108 31.0529 38.3453 31.1899L41.7269 33.1424C41.9642 33.2794 42.0455 33.5828 41.9085 33.82ZM43.5659 27.6344C43.5659 27.9084 43.3438 28.1305 43.0698 28.1305H39.165C38.8911 28.1305 38.669 27.9084 38.669 27.6344C38.669 27.3605 38.8911 27.1384 39.165 27.1384H43.0699C43.3438 27.1384 43.5659 27.3605 43.5659 27.6344ZM37.6677 23.8973C37.5306 23.6601 37.612 23.3567 37.8492 23.2197L41.2309 21.2673C41.4683 21.1303 41.7716 21.2117 41.9085 21.4488C42.0455 21.6861 41.9642 21.9895 41.7269 22.1264L38.3453 24.0789C38.2671 24.124 38.1818 24.1454 38.0977 24.1454C37.9262 24.1455 37.7595 24.0565 37.6677 23.8973Z" fill="#689647"/>
<path d="M37.1203 40.1883C36.1017 39.2671 34.8956 38.6052 33.5973 38.2391C34.9798 37.4165 35.9085 35.9079 35.9085 34.1858C35.9085 31.5867 33.794 29.4721 31.1948 29.4721C28.5957 29.4721 26.4811 31.5867 26.4811 34.1858C26.4811 35.9079 27.4099 37.4165 28.7923 38.2391C27.494 38.6052 26.2879 39.2671 25.2692 40.1883C23.6547 41.6484 22.6384 43.6395 22.4078 45.7948C22.3928 45.9348 22.438 46.0745 22.5321 46.1792C22.6262 46.2838 22.7604 46.3437 22.901 46.3437L39.4885 46.3436C39.6293 46.3436 39.7634 46.2838 39.8574 46.1791C39.9516 46.0744 39.9967 45.9347 39.9817 45.7947C39.7511 43.6395 38.7348 41.6484 37.1203 40.1883ZM27.4733 34.1858C27.4733 32.1337 29.1428 30.4642 31.1949 30.4642C33.247 30.4642 34.9165 32.1337 34.9165 34.1858C34.9165 36.2377 33.2475 37.9069 31.1957 37.9074C31.1955 37.9074 31.1952 37.9074 31.1949 37.9074C31.1947 37.9074 31.1944 37.9074 31.1941 37.9074C29.1423 37.907 27.4733 36.2377 27.4733 34.1858ZM23.4724 45.3516C24.134 41.6368 27.3609 38.8999 31.1941 38.8995H31.1949C31.1949 38.8995 31.1954 38.8995 31.1957 38.8995C35.0286 38.8999 38.2557 41.6368 38.9173 45.3516L23.4724 45.3516ZM25.7343 20.5414L28.2296 22.547L27.3898 25.6362C27.3079 25.9374 27.4182 26.2506 27.6707 26.4341C27.8021 26.5296 27.9549 26.5775 28.1082 26.5775C28.2494 26.5775 28.391 26.5367 28.5163 26.4547L31.1948 24.7013L33.8734 26.4547C34.1345 26.6256 34.4664 26.6176 34.7191 26.434C34.9716 26.2505 35.0818 25.9373 34.9999 25.6362L34.16 22.547L36.6553 20.5414C36.8986 20.3458 36.9934 20.0277 36.8969 19.7308C36.8004 19.4339 36.5367 19.2323 36.225 19.2171L33.0273 19.0612L31.8911 16.0683C31.7805 15.7771 31.5073 15.5889 31.1949 15.5889C30.8825 15.5889 30.6092 15.7771 30.4985 16.0683L29.3623 19.0612L26.1647 19.2171C25.8529 19.2323 25.5891 19.434 25.4926 19.7309C25.3962 20.0277 25.491 20.3459 25.7343 20.5414ZM29.5722 20.0442C29.868 20.0298 30.1271 19.8417 30.2323 19.5647L31.1948 17.0295L32.1574 19.5648C32.2625 19.8417 32.5217 20.0298 32.8174 20.0442L35.526 20.1762L33.4124 21.8751C33.1813 22.0607 33.0824 22.3654 33.1603 22.651L33.8717 25.2678L31.6027 23.7825C31.4789 23.7015 31.3369 23.661 31.1949 23.661C31.0529 23.661 30.9109 23.7015 30.787 23.7826L28.5181 25.2678L29.2295 22.651C29.3072 22.3653 29.2083 22.0607 28.9775 21.8751L26.8638 20.1762L29.5722 20.0442ZM23.2246 28.1305H19.3198C19.0458 28.1305 18.8237 27.9084 18.8237 27.6344C18.8237 27.3605 19.0458 27.1384 19.3198 27.1384H23.2247C23.4986 27.1384 23.7207 27.3605 23.7207 27.6344C23.7207 27.9084 23.4985 28.1305 23.2246 28.1305ZM20.4811 21.4489C20.618 21.2116 20.9214 21.1303 21.1587 21.2674L24.5404 23.2198C24.7776 23.3568 24.859 23.6602 24.722 23.8974C24.6301 24.0565 24.4633 24.1455 24.2919 24.1455C24.2078 24.1455 24.1225 24.124 24.0444 24.0789L20.6626 22.1265C20.4254 21.9895 20.344 21.6861 20.4811 21.4489ZM24.5404 32.0492L21.1587 34.0016C21.0806 34.0467 20.9952 34.0681 20.9112 34.0681C20.7396 34.0681 20.573 33.9792 20.4811 33.82C20.344 33.5828 20.4254 33.2794 20.6626 33.1424L24.0444 31.19C24.2818 31.053 24.5851 31.1345 24.722 31.3716C24.859 31.6088 24.7776 31.9122 24.5404 32.0492ZM41.9085 33.82C41.8166 33.9791 41.6498 34.0681 41.4784 34.0681C41.3943 34.0681 41.309 34.0466 41.2309 34.0015L37.8492 32.0491C37.612 31.9121 37.5306 31.6087 37.6677 31.3715C37.8046 31.1343 38.108 31.0529 38.3453 31.1899L41.7269 33.1424C41.9642 33.2794 42.0455 33.5828 41.9085 33.82ZM43.5659 27.6344C43.5659 27.9084 43.3438 28.1305 43.0698 28.1305H39.165C38.8911 28.1305 38.669 27.9084 38.669 27.6344C38.669 27.3605 38.8911 27.1384 39.165 27.1384H43.0699C43.3438 27.1384 43.5659 27.3605 43.5659 27.6344ZM37.6677 23.8973C37.5306 23.6601 37.612 23.3567 37.8492 23.2197L41.2309 21.2673C41.4683 21.1303 41.7716 21.2117 41.9085 21.4488C42.0455 21.6861 41.9642 21.9895 41.7269 22.1264L38.3453 24.0789C38.2671 24.124 38.1818 24.1454 38.0977 24.1454C37.9262 24.1455 37.7595 24.0565 37.6677 23.8973Z" stroke="#689647" stroke-width="0.8" mask="url(#path-2-outside-1_627_123652)"/>
</svg>
