<svg width="61" height="61" viewBox="0 0 61 61" fill="none" xmlns="http://www.w3.org/2000/svg">
<circle cx="30.7754" cy="30.7754" r="30" fill="#FFA0FD" fill-opacity="0.2"/>
<path d="M29.5698 23.9896C36.2667 22.1954 39.0676 24.0766 39.7255 26.5318C40.3834 28.9874 38.8983 32.0171 32.2019 33.8112C25.505 35.606 22.7041 33.7249 22.0462 31.2692C21.3883 28.8135 22.8729 25.7839 29.5698 23.9896Z" stroke="#B38DB2" stroke-width="2.45244" stroke-miterlimit="10" stroke-linecap="round" stroke-linejoin="round"/>
<path d="M31.0549 34.5223C41.0692 34.5223 44.2738 37.4381 44.2738 40.3544C44.2738 43.2707 41.0692 46.1865 31.0549 46.1865C21.0406 46.1865 17.8359 43.2707 17.8359 40.3544C17.8359 37.4381 21.0406 34.5223 31.0549 34.5223Z" stroke="#B38DB2" stroke-width="2.45244" stroke-miterlimit="10" stroke-linecap="round" stroke-linejoin="round"/>
<path d="M30.8867 15.681C33.9479 15.681 36.433 17.4381 36.433 19.6025C36.433 21.7668 33.9479 23.5244 30.8867 23.5244C27.8254 23.5244 25.3403 21.7668 25.3403 19.6025C25.3403 17.4381 27.8254 15.681 30.8867 15.681Z" stroke="#B38DB2" stroke-width="2.45244" stroke-miterlimit="10" stroke-linecap="round" stroke-linejoin="round"/>
<path d="M15.8027 46.1865H46.308" stroke="#B38DB2" stroke-width="2.45244" stroke-miterlimit="10" stroke-linecap="round" stroke-linejoin="round"/>
</svg>
