<svg width="62" height="62" viewBox="0 0 62 62" fill="none" xmlns="http://www.w3.org/2000/svg">
<g clip-path="url(#clip0_781_12447)">
<path opacity="0.774926" fill-rule="evenodd" clip-rule="evenodd" d="M43.2844 18.9996L43.3091 18.9996C43.414 19.0638 43.5374 19.1009 43.6694 19.1009C43.7889 19.1009 43.9013 19.0706 43.9993 19.0172C47.4758 19.1897 50.354 20.6221 52.6884 22.9227C53.5651 23.7866 54.3002 24.7135 54.8978 25.6391C55.106 25.9617 55.2818 26.2602 55.4256 26.5266C55.5098 26.6825 55.5634 26.7903 55.5872 26.8418C56.4768 28.8026 57.4394 30.1717 58.4977 30.9109C57.4394 31.65 56.4768 33.0191 55.5872 34.98C55.5634 35.0315 55.5098 35.1392 55.4256 35.2951C55.2818 35.5615 55.106 35.86 54.8978 36.1826C54.3002 37.1083 53.5651 38.0351 52.6884 38.8991C50.1958 41.3555 47.0833 42.8222 43.2844 42.8222C43.2216 42.8222 43.1608 42.8306 43.1029 42.8462C42.8 42.9195 42.575 43.1923 42.575 43.5177C42.575 47.3166 41.1084 50.4292 38.6519 52.9218C37.788 53.7984 36.8612 54.5336 35.9355 55.1311C35.6129 55.3393 35.3144 55.5151 35.048 55.6589C34.8921 55.7431 34.7844 55.7968 34.7329 55.8205C32.863 56.6688 31.5313 57.5835 30.7708 58.5843C30.0103 57.5835 28.6785 56.6688 26.8087 55.8205C26.7572 55.7968 26.6494 55.7431 26.4935 55.6589C26.2272 55.5151 25.9286 55.3393 25.606 55.1311C24.6804 54.5336 23.7535 53.7984 22.8896 52.9218C20.4331 50.4292 18.9665 47.3166 18.9665 43.5177C18.9665 43.137 18.6585 42.8282 18.278 42.8269C18.247 42.8227 18.2153 42.8205 18.183 42.8205C14.3842 42.8205 11.2716 41.3538 8.77901 38.8973C7.90237 38.0334 7.16721 37.1066 6.56966 36.1809C6.36142 35.8583 6.18567 35.5598 6.04183 35.2934C5.95763 35.1375 5.90399 35.0298 5.88025 34.9783C5.03214 33.1088 4.1176 31.7772 3.1171 31.0166C4.1176 30.256 5.03214 28.9244 5.88025 27.055C5.90399 27.0035 5.95763 26.8957 6.04183 26.7398C6.18567 26.4735 6.36142 26.1749 6.56966 25.8524C7.16721 24.9267 7.90237 23.9999 8.77901 23.1359C11.2716 20.6794 14.3842 19.2128 18.183 19.2128C18.3275 19.2128 18.4615 19.1685 18.5724 19.0927C18.903 19.0411 19.1559 18.7552 19.1559 18.4101C19.1559 14.6113 20.6226 11.4987 23.0791 9.00613C23.943 8.12948 24.8698 7.39433 25.7955 6.79678C26.1181 6.58854 26.4166 6.41279 26.683 6.26895C26.8389 6.18475 26.9466 6.13111 26.9981 6.10737C28.959 5.21776 30.3282 4.25506 31.0673 3.19674C31.8064 4.25504 33.1756 5.21771 35.1364 6.1073C35.1879 6.13104 35.2957 6.18468 35.4516 6.26888C35.7179 6.41272 36.0165 6.58847 36.3391 6.79672C37.2647 7.39426 38.1915 8.12942 39.0555 9.00606C41.3567 11.3411 42.7893 14.2203 42.9612 17.6981C42.7425 17.8141 42.5936 18.044 42.5936 18.3088C42.5936 18.6903 42.9029 18.9996 43.2844 18.9996ZM17.7846 17.8361C17.9262 13.904 19.5232 10.6459 22.095 8.03633C23.0344 7.08313 24.0397 6.28571 25.0462 5.63601C25.6547 5.24317 26.1339 4.98438 26.4235 4.85091C29.0755 3.64777 30.3285 2.42307 30.3285 1.2668C30.3285 0.885281 30.6378 0.575996 31.0193 0.575996C31.0352 0.575996 31.0511 0.576538 31.0668 0.577603C31.0828 0.576492 31.099 0.575928 31.1153 0.575928C31.4968 0.575928 31.8061 0.885212 31.8061 1.26673C31.8061 2.423 33.059 3.6477 35.711 4.85084C36.0006 4.98431 36.4798 5.2431 37.0884 5.63594C38.0948 6.28565 39.1001 7.08306 40.0395 8.03627C42.5714 10.6053 44.1585 13.8028 44.3423 17.6532C48.0586 17.9035 51.1564 19.4731 53.6582 21.9386C54.6114 22.878 55.4088 23.8834 56.0585 24.8898C56.4514 25.4984 56.7102 25.9776 56.8436 26.2672C58.0468 28.9192 59.2715 30.1721 60.4277 30.1721C60.8093 30.1721 61.1185 30.4814 61.1185 30.8629C61.1185 30.879 61.118 30.895 61.1169 30.9109C61.118 30.9267 61.1185 30.9427 61.1185 30.9588C61.1185 31.3403 60.8093 31.6496 60.4277 31.6496C59.2715 31.6496 58.0468 32.9026 56.8436 35.5546C56.7102 35.8442 56.4514 36.3234 56.0585 36.9319C55.4088 37.9384 54.6114 38.9437 53.6582 39.8831C51.0672 42.4365 47.837 44.0291 43.9425 44.1903C43.778 48.0783 42.1863 51.3038 39.636 53.8916C38.6966 54.8448 37.6913 55.6422 36.6848 56.2919C36.0762 56.6847 35.597 56.9435 35.3075 57.077C33.0357 58.1076 31.7905 59.1541 31.4802 60.1598C31.5071 60.3247 31.5206 60.4918 31.5206 60.6611C31.5206 61.0426 31.2114 61.3519 30.8298 61.3519C30.8099 61.3519 30.7902 61.351 30.7708 61.3494C30.7513 61.351 30.7316 61.3519 30.7117 61.3519C30.3302 61.3519 30.0209 61.0426 30.0209 60.6611C30.0209 60.4918 30.0344 60.3247 30.0613 60.1598C29.751 59.1541 28.5059 58.1076 26.2341 57.077C25.9445 56.9435 25.4653 56.6847 24.8567 56.2919C23.8503 55.6422 22.8449 54.8448 21.9056 53.8916C19.3555 51.304 17.7638 48.0789 17.5991 44.1914C13.6714 44.0475 10.4166 42.451 7.80921 39.8814C6.85601 38.942 6.05859 37.9367 5.40889 36.9302C5.01605 36.3216 4.75726 35.8424 4.62379 35.5529C3.59381 33.2825 2.54801 32.0375 1.54288 31.7262C1.37737 31.7533 1.20966 31.767 1.03968 31.767C0.658161 31.767 0.348877 31.4577 0.348877 31.0761C0.348877 31.0561 0.349731 31.0362 0.351406 31.0166C0.349731 30.997 0.348877 30.9772 0.348877 30.9571C0.348877 30.5756 0.658161 30.2663 1.03968 30.2663C1.20966 30.2663 1.37738 30.2799 1.54288 30.307C2.54801 29.9957 3.59381 28.7507 4.62379 26.4804C4.75726 26.1908 5.01605 25.7116 5.40889 25.103C6.05859 24.0966 6.85601 23.0913 7.80921 22.1519C10.4576 19.5419 13.7738 17.9359 17.7846 17.8361Z" fill="#00C0C5"/>
<path opacity="0.452172" fill-rule="evenodd" clip-rule="evenodd" d="M41.1103 9.8283C37.6108 9.85384 34.3728 11.0177 31.6866 13.7039C31.5844 13.806 31.4582 13.8695 31.3262 13.8943C31.055 14.1388 30.6368 14.1304 30.3756 13.8693C27.6894 11.1831 24.4514 10.0192 20.9519 9.99368C19.7211 9.9847 18.5459 10.1202 17.4688 10.3522C17.0935 10.4331 16.7581 10.5199 16.4681 10.6066C16.2983 10.6573 16.1842 10.6955 16.131 10.7151C14.1155 11.4726 12.4668 11.76 11.1959 11.5344C11.4215 12.8054 11.1341 14.4541 10.3766 16.4696C10.357 16.5228 10.3187 16.6369 10.268 16.8067C10.1814 17.0968 10.0946 17.4321 10.0137 17.8075C9.7817 18.8846 9.64617 20.0598 9.65515 21.2905C9.68007 24.7047 10.7884 27.8699 13.3368 30.5167C13.4708 30.5407 13.5991 30.6045 13.7027 30.7081C13.9724 30.9779 13.9724 31.4153 13.7027 31.685C11.0165 34.3712 9.85262 37.6092 9.82708 41.1087C9.8181 42.3395 9.95363 43.5147 10.1857 44.5918C10.2665 44.9672 10.3533 45.3025 10.44 45.5926C10.4907 45.7624 10.5289 45.8765 10.5485 45.9297C11.2706 47.851 11.5656 49.4391 11.3961 50.6843C12.6413 50.5149 14.2293 50.8098 16.1505 51.5319C16.2037 51.5515 16.3178 51.5898 16.4876 51.6405C16.7777 51.7271 17.113 51.8139 17.4884 51.8948C18.5655 52.1268 19.7407 52.2623 20.9714 52.2533C24.471 52.2278 27.709 51.064 30.3952 48.3778C30.4121 48.3608 30.4297 48.345 30.4478 48.3302C30.453 48.3247 30.4582 48.3192 30.4636 48.3139C30.7334 48.0441 31.1708 48.0441 31.4406 48.3139C34.1267 51.0001 37.3648 52.1639 40.8643 52.1895C42.095 52.1984 43.2702 52.0629 44.3473 51.8309C44.7227 51.75 45.058 51.6632 45.3481 51.5766C45.5179 51.5259 45.632 51.4876 45.6852 51.468C47.6064 50.7459 49.1944 50.451 50.4396 50.6204C50.2702 49.3753 50.5651 47.7873 51.2872 45.8661C51.3068 45.8129 51.345 45.6988 51.3958 45.529C51.4824 45.2389 51.5692 44.9036 51.6501 44.5282C51.8821 43.4511 52.0176 42.276 52.0086 41.0452C51.9831 37.5457 50.8192 34.3077 48.133 31.6215C47.8633 31.3517 47.8633 30.9143 48.133 30.6445C48.2721 30.5054 48.4558 30.438 48.638 30.4424C51.2484 27.7775 52.3818 24.5792 52.407 21.1264C52.416 19.8956 52.2805 18.7204 52.0484 17.6433C51.9676 17.268 51.8808 16.9326 51.7941 16.6425C51.7434 16.4728 51.7052 16.3587 51.6855 16.3055C50.9278 14.2893 50.6405 12.6401 50.8665 11.369C49.5955 11.5947 47.9467 11.3073 45.9312 10.5498C45.878 10.5301 45.7639 10.4919 45.5941 10.4412C45.304 10.3545 44.9687 10.2677 44.5933 10.1869C43.5162 9.95485 42.3411 9.81932 41.1103 9.8283ZM49.7302 31.3008C52.5357 28.3824 53.7613 24.8799 53.7886 21.1365C53.7983 19.7982 53.6513 18.5235 53.3991 17.3524C53.2465 16.6443 53.0907 16.1224 52.9803 15.8233C51.9558 13.0973 51.9358 11.3453 52.7534 10.5277C53.0232 10.258 53.0232 9.82056 52.7534 9.55078C52.7436 9.54097 52.7336 9.5315 52.7233 9.5224C52.7115 9.50853 52.699 9.49501 52.6859 9.48189C52.4161 9.21211 51.9787 9.21211 51.7089 9.48189C50.8913 10.2995 49.1394 10.2795 46.4134 9.25502C46.1142 9.14463 45.5924 8.98878 44.8843 8.83624C43.7132 8.58397 42.4385 8.43696 41.1002 8.44672C37.3601 8.47402 33.8605 9.69742 30.9436 12.4976C28.0622 9.81456 24.6276 8.63885 20.962 8.6121C19.6237 8.60234 18.349 8.74935 17.1779 9.00162C16.4698 9.15416 15.9479 9.31001 15.6488 9.4204C12.9228 10.4449 11.1708 10.4649 10.3532 9.64727C10.0835 9.37749 9.64607 9.37749 9.37629 9.64726C9.36476 9.65879 9.35373 9.67063 9.34318 9.68275C9.33143 9.69302 9.31994 9.70375 9.30874 9.71495C9.03896 9.98473 9.03896 10.4221 9.30874 10.6919C10.1263 11.5095 10.1064 13.2615 9.08187 15.9875C8.97148 16.2866 8.81563 16.8084 8.66309 17.5165C8.41082 18.6876 8.26381 19.9624 8.27358 21.3006C8.30036 24.9709 9.47903 28.4096 12.1694 31.2933C9.60066 34.1381 8.47171 37.5075 8.4455 41.0987C8.43574 42.4369 8.58275 43.7117 8.83502 44.8827C8.98756 45.5908 9.14341 46.1127 9.2538 46.4118C10.1304 48.7443 10.2716 50.3637 9.78186 51.2948C9.64513 51.3929 9.51645 51.5022 9.39585 51.6228C9.12608 51.8926 9.12608 52.33 9.39585 52.5998C9.41035 52.6142 9.42532 52.628 9.44073 52.6409C9.45331 52.6558 9.46662 52.6703 9.48067 52.6843C9.75044 52.9541 10.1878 52.9541 10.4576 52.6843C10.5782 52.5638 10.6874 52.4352 10.7855 52.2985C11.7166 51.8089 13.3359 51.95 15.6684 52.8266C15.9675 52.937 16.4893 53.0929 17.1974 53.2454C18.3685 53.4977 19.6433 53.6447 20.9815 53.6349C24.6426 53.6082 28.0732 52.4354 30.9524 49.7594C33.8173 52.3902 37.2224 53.5445 40.8542 53.571C42.1924 53.5808 43.4672 53.4338 44.6383 53.1815C45.3464 53.029 45.8682 52.8731 46.1673 52.7627C48.4995 51.8863 50.1187 51.745 51.0499 52.2344C51.148 52.3713 51.2574 52.5001 51.3781 52.6208C51.6479 52.8905 52.0853 52.8905 52.355 52.6208C52.3694 52.6064 52.383 52.5916 52.3958 52.5763C52.4109 52.5636 52.4256 52.5501 52.4399 52.5359C52.7096 52.2661 52.7096 51.8287 52.4399 51.5589C52.3192 51.4383 52.1904 51.3289 52.0536 51.2307C51.5642 50.2996 51.7054 48.6804 52.5819 46.3483C52.6923 46.0491 52.8481 45.5273 53.0007 44.8192C53.253 43.6481 53.4 42.3734 53.3902 41.0351C53.3642 37.4738 52.2538 34.1306 49.7302 31.3008Z" fill="#00C0C5"/>
<path fill-rule="evenodd" clip-rule="evenodd" d="M20.1868 25.2476C20.8164 26.5095 22.5044 28.2033 25.2377 30.2759C25.392 30.3096 25.5355 30.3962 25.6388 30.5315C25.8703 30.8348 25.8121 31.2683 25.5088 31.4998C22.4937 33.801 20.6239 35.6709 19.9137 37.0565C19.5472 37.7717 19.4065 38.6379 19.3037 40.3408C19.2336 41.5016 19.1679 42.3234 19.0572 42.9472C19.681 42.8364 20.5028 42.7707 21.6638 42.7007C23.3666 42.5979 24.2329 42.4572 24.948 42.0907C26.2148 41.4414 27.8862 39.8229 29.922 37.2462C29.9241 37.0394 30.0186 36.8357 30.1964 36.7014C30.2705 36.6454 30.3522 36.6067 30.4368 36.5844L30.5047 36.4956C30.7362 36.1923 31.1697 36.1341 31.473 36.3656C31.7762 36.597 31.8345 37.0305 31.603 37.3338L31.5741 37.3717C33.4869 39.8355 35.0604 41.3697 36.25 41.9632C36.9029 42.2889 37.7079 42.4053 39.2939 42.472C40.4731 42.5217 41.2806 42.5732 41.883 42.6828C41.7733 42.0804 41.7218 41.2729 41.6722 40.0936C41.6054 38.5076 41.4891 37.7026 41.1634 37.0498C40.528 35.7761 38.8144 34.0626 36.0363 31.9638C35.7319 31.7338 35.6715 31.3006 35.9015 30.9962C36.0004 30.8652 36.137 30.7794 36.2847 30.7425C39.2328 28.4813 41.0644 26.6412 41.7655 25.2732C42.132 24.5581 42.2727 23.6918 42.3755 21.989C42.4456 20.8279 42.5113 20.006 42.622 19.3822C41.9983 19.493 41.1764 19.5587 40.0155 19.6288C38.3126 19.7315 37.4464 19.8722 36.7312 20.2387C35.3926 20.9248 33.6021 22.6931 31.4074 25.5307C31.4716 25.7909 31.3803 26.076 31.153 26.2477C30.8486 26.4777 30.4154 26.4174 30.1854 26.1129C28.0866 23.3348 26.373 21.6213 25.0994 20.9859C24.4466 20.6602 23.6416 20.5439 22.0555 20.4771C20.9354 20.4299 20.1508 20.3811 19.5586 20.2823C19.6106 20.7891 19.6447 21.4128 19.678 22.2037C19.7448 23.7897 19.8611 24.5947 20.1868 25.2476ZM44.7007 17.8177C44.6724 17.6967 44.611 17.5819 44.5167 17.4875C44.2469 17.2177 43.8095 17.2177 43.5397 17.4875C43.0518 17.9754 42.333 18.1047 39.9322 18.2496C38.0374 18.364 37.0456 18.5251 36.101 19.0092C34.596 19.7806 32.7673 21.5584 30.5723 24.3546C28.6706 21.9542 27.0648 20.4224 25.7162 19.7496C24.8278 19.3063 23.8963 19.1717 22.1137 19.0967C20.4824 19.028 19.6868 18.9512 19.2091 18.746C19.0718 18.4495 18.8896 18.2069 18.6429 17.9603C18.3732 17.6905 17.9358 17.6905 17.666 17.9603C17.4149 18.2114 17.3975 18.6077 17.6138 18.8789C17.5921 19.0797 17.6582 19.2881 17.8121 19.442C17.8907 19.5206 17.9689 19.5926 18.0485 19.6587C18.1803 20.1584 18.2416 20.9327 18.2976 22.2618C18.3727 24.0444 18.5073 24.9759 18.9505 25.8643C19.6555 27.2774 21.3035 28.9729 23.9056 30.9951C21.1808 33.1469 19.4441 34.9437 18.6842 36.4263C18.2 37.3709 18.039 38.3627 17.9246 40.2575C17.7801 42.6507 17.6512 43.3726 17.1671 43.8604L17.1625 43.865L17.1497 43.8782C17.1212 43.9081 17.096 43.94 17.074 43.9734C16.8969 44.2415 16.9264 44.6059 17.1625 44.842C17.4323 45.1118 17.8696 45.1118 18.1394 44.842L18.1443 44.8371C18.6322 44.3532 19.3542 44.2242 21.747 44.0798C23.6418 43.9654 24.6336 43.8043 25.5782 43.3202C26.9883 42.5975 28.6825 40.9912 30.696 38.4918C32.6332 40.9512 34.2655 42.5172 35.6333 43.1995C36.5217 43.6428 37.4532 43.7774 39.2358 43.8524C41.4607 43.9461 42.1311 44.0548 42.5604 44.4841C42.8301 44.7538 43.2675 44.7538 43.5373 44.4841C43.5624 44.459 43.5851 44.4325 43.6055 44.4048C43.633 44.3845 43.6593 44.3619 43.6842 44.337C43.954 44.0673 43.954 43.6299 43.6842 43.3601C43.255 42.9308 43.1463 42.2604 43.0526 40.0355C42.9775 38.2529 42.8429 37.3214 42.3997 36.433C41.7116 35.0538 40.1253 33.4057 37.6304 31.4473C40.4376 29.2455 42.2219 27.4119 42.995 25.9034C43.4792 24.9588 43.6402 23.967 43.7546 22.0722C43.8995 19.6714 44.0288 18.9526 44.5167 18.4647C44.6922 18.2892 44.7536 18.0428 44.7007 17.8177Z" fill="#00C0C5"/>
<path fill-rule="evenodd" clip-rule="evenodd" d="M27.3995 19.4839C26.9523 20.8214 26.9482 23.2125 27.4153 26.6104C27.5007 26.7434 27.5411 26.9063 27.5184 27.0752C27.4677 27.4534 27.12 27.7187 26.7419 27.668C22.9827 27.1632 20.3383 27.1632 18.8563 27.6408C18.0915 27.8873 17.3795 28.4004 16.1027 29.5318C15.2322 30.3032 14.6046 30.8379 14.0852 31.2007C14.6046 31.5634 15.2322 32.0981 16.1027 32.8695C17.3795 34.0009 18.0915 34.514 18.8563 34.7605C20.2112 35.1971 22.5376 35.2346 25.7991 34.8521C25.9469 34.7073 26.1577 34.6302 26.3784 34.6609C26.4703 34.6737 26.5555 34.7041 26.631 34.7481L26.7419 34.7333C27.12 34.6826 27.4677 34.9479 27.5184 35.3261C27.5692 35.7042 27.3038 36.0519 26.9257 36.1027L26.8786 36.109C26.4889 39.2037 26.5167 41.4012 26.9383 42.6622C27.1696 43.3541 27.6565 44.0056 28.7308 45.1743C29.5295 46.0432 30.064 46.6506 30.4125 47.1541C30.7609 46.6506 31.2955 46.0432 32.0942 45.1743C33.1685 44.0056 33.6554 43.3541 33.8867 42.6622C34.338 41.3123 34.338 38.8889 33.8577 35.4404C33.8051 35.0625 34.0687 34.7136 34.4466 34.6609C34.609 34.6383 34.766 34.6741 34.8965 34.7523C38.5803 35.238 41.1767 35.2321 42.6399 34.7605C43.4047 34.514 44.1167 34.0009 45.3935 32.8695C46.264 32.0981 46.8916 31.5634 47.411 31.2007C46.8916 30.8379 46.264 30.3032 45.3935 29.5318C44.1167 28.4004 43.4047 27.8873 42.6399 27.6408C41.2083 27.1794 38.6918 27.1637 35.1334 27.6183C34.9948 27.8476 34.7288 27.9846 34.4466 27.9453C34.0687 27.8927 33.8051 27.5437 33.8577 27.1658C34.338 23.7173 34.338 21.294 33.8867 19.9441C33.6554 19.2522 33.1685 18.6007 32.0942 17.432C31.3355 16.6066 30.8152 16.0172 30.4663 15.5287C30.1447 15.9238 29.7278 16.389 29.192 16.9718C28.1178 18.1406 27.6308 18.792 27.3995 19.4839ZM50.0904 31.2095C50.0904 31.2065 50.0904 31.2035 50.0904 31.2006C50.0904 30.819 49.7812 30.5098 49.3996 30.5098C48.7097 30.5098 48.1099 30.0929 46.3098 28.4978C44.8891 27.2388 44.074 26.6514 43.0637 26.3258C41.4541 25.807 38.9039 25.7711 35.3746 26.1961C35.7273 23.1541 35.6749 20.9354 35.1971 19.506C34.8823 18.5644 34.3188 17.8106 33.1114 16.497C32.0064 15.2949 31.4981 14.678 31.3055 14.1952C31.418 13.8884 31.4607 13.5881 31.4607 13.2394C31.4607 12.8579 31.1514 12.5486 30.7698 12.5486C30.4148 12.5486 30.1222 12.8165 30.0834 13.1612C29.9262 13.2878 29.8256 13.4819 29.8256 13.6995C29.8256 13.8107 29.8299 13.9169 29.8394 14.0199C29.5794 14.4664 29.0752 15.0574 28.1748 16.0368C26.9674 17.3504 26.4039 18.1043 26.0891 19.0459C25.5885 20.5435 25.5549 22.9077 25.9649 26.1775C22.5167 25.7723 20.0182 25.8147 18.4325 26.3258C17.4222 26.6514 16.6071 27.2388 15.1864 28.4978C13.3863 30.0929 12.7865 30.5098 12.0966 30.5098C11.715 30.5098 11.4058 30.819 11.4058 31.2006V31.2007C11.4058 31.5823 11.715 31.8915 12.0966 31.8915C12.7865 31.8915 13.3863 32.3084 15.1864 33.9035C16.6071 35.1625 17.4222 35.7499 18.4325 36.0755C19.9406 36.5616 22.2745 36.6238 25.4656 36.2801C25.0963 39.389 25.1433 41.6505 25.6279 43.1002C25.9427 44.0418 26.5062 44.7957 27.7136 46.1093C29.2206 47.7488 29.6178 48.2997 29.6178 48.9067C29.6178 49.2882 29.9271 49.5975 30.3086 49.5975C30.3439 49.5975 30.3786 49.5949 30.4125 49.5898C30.4464 49.5949 30.4811 49.5975 30.5164 49.5975C30.8979 49.5975 31.2072 49.2882 31.2072 48.9067C31.2072 48.2997 31.6044 47.7488 33.1114 46.1093C34.3188 44.7957 34.8823 44.0418 35.1971 43.1002C35.6857 41.6385 35.7294 39.3513 35.35 36.2022C38.892 36.6304 41.4503 36.5955 43.0637 36.0755C44.074 35.7499 44.8891 35.1625 46.3098 33.9035C48.1099 32.3084 48.7097 31.8915 49.3996 31.8915C49.7424 31.8915 50.0269 31.6419 50.0811 31.3145C50.0868 31.2803 50.0899 31.2452 50.0904 31.2095Z" fill="#00C0C5"/>
</g>
<defs>
<clipPath id="clip0_781_12447">
<rect width="62" height="62" fill="white"/>
</clipPath>
</defs>
</svg>
