<svg width="147" height="109" viewBox="0 0 147 109" fill="none" xmlns="http://www.w3.org/2000/svg">
<g clip-path="url(#clip0_642_12947)">
<path opacity="0.774926" fill-rule="evenodd" clip-rule="evenodd" d="M85.7844 18.9996L85.8091 18.9996C85.914 19.0638 86.0374 19.1009 86.1694 19.1009C86.2889 19.1009 86.4013 19.0706 86.4993 19.0172C89.9758 19.1897 92.854 20.6221 95.1884 22.9227C96.0651 23.7866 96.8002 24.7135 97.3978 25.6391C97.606 25.9617 97.7818 26.2602 97.9256 26.5266C98.0098 26.6825 98.0634 26.7903 98.0872 26.8418C98.9768 28.8026 99.9394 30.1717 100.998 30.9109C99.9394 31.65 98.9768 33.0191 98.0872 34.98C98.0634 35.0315 98.0098 35.1392 97.9256 35.2951C97.7818 35.5615 97.606 35.86 97.3978 36.1826C96.8002 37.1083 96.0651 38.0351 95.1884 38.8991C92.6958 41.3555 89.5833 42.8222 85.7844 42.8222C85.7216 42.8222 85.6608 42.8306 85.6029 42.8462C85.3 42.9195 85.075 43.1923 85.075 43.5177C85.075 47.3166 83.6084 50.4292 81.1519 52.9218C80.288 53.7984 79.3612 54.5336 78.4355 55.1311C78.1129 55.3393 77.8144 55.5151 77.548 55.6589C77.3921 55.7431 77.2844 55.7968 77.2329 55.8205C75.363 56.6688 74.0313 57.5835 73.2708 58.5843C72.5103 57.5835 71.1785 56.6688 69.3087 55.8205C69.2572 55.7968 69.1494 55.7431 68.9935 55.6589C68.7272 55.5151 68.4286 55.3393 68.106 55.1311C67.1804 54.5336 66.2535 53.7984 65.3896 52.9218C62.9331 50.4292 61.4665 47.3166 61.4665 43.5177C61.4665 43.137 61.1585 42.8282 60.778 42.8269C60.747 42.8227 60.7153 42.8205 60.683 42.8205C56.8842 42.8205 53.7716 41.3538 51.279 38.8973C50.4024 38.0334 49.6672 37.1066 49.0697 36.1809C48.8614 35.8583 48.6857 35.5598 48.5418 35.2934C48.4576 35.1375 48.404 35.0298 48.3803 34.9783C47.5321 33.1088 46.6176 31.7772 45.6171 31.0166C46.6176 30.256 47.5321 28.9244 48.3803 27.055C48.404 27.0035 48.4576 26.8957 48.5418 26.7398C48.6857 26.4735 48.8614 26.1749 49.0697 25.8524C49.6672 24.9267 50.4024 23.9999 51.279 23.1359C53.7716 20.6794 56.8842 19.2128 60.683 19.2128C60.8275 19.2128 60.9615 19.1685 61.0724 19.0927C61.403 19.0411 61.6559 18.7552 61.6559 18.4101C61.6559 14.6113 63.1226 11.4987 65.5791 9.00613C66.443 8.12948 67.3698 7.39433 68.2955 6.79678C68.6181 6.58854 68.9166 6.41279 69.183 6.26895C69.3389 6.18475 69.4466 6.13111 69.4981 6.10737C71.459 5.21776 72.8282 4.25506 73.5673 3.19674C74.3064 4.25504 75.6756 5.21771 77.6364 6.1073C77.6879 6.13104 77.7957 6.18468 77.9516 6.26888C78.2179 6.41272 78.5165 6.58847 78.8391 6.79672C79.7647 7.39426 80.6915 8.12942 81.5555 9.00606C83.8567 11.3411 85.2893 14.2203 85.4612 17.6981C85.2425 17.8141 85.0936 18.044 85.0936 18.3088C85.0936 18.6903 85.4029 18.9996 85.7844 18.9996ZM60.2846 17.8361C60.4262 13.904 62.0232 10.6459 64.595 8.03633C65.5344 7.08313 66.5397 6.28571 67.5462 5.63601C68.1547 5.24317 68.6339 4.98438 68.9235 4.85091C71.5755 3.64777 72.8285 2.42307 72.8285 1.2668C72.8285 0.885281 73.1378 0.575996 73.5193 0.575996C73.5352 0.575996 73.5511 0.576538 73.5668 0.577603C73.5828 0.576492 73.599 0.575928 73.6153 0.575928C73.9968 0.575928 74.3061 0.885212 74.3061 1.26673C74.3061 2.423 75.559 3.6477 78.211 4.85084C78.5006 4.98431 78.9798 5.2431 79.5884 5.63594C80.5948 6.28565 81.6001 7.08306 82.5395 8.03627C85.0714 10.6053 86.6585 13.8028 86.8423 17.6532C90.5586 17.9035 93.6564 19.4731 96.1582 21.9386C97.1114 22.878 97.9088 23.8834 98.5585 24.8898C98.9514 25.4984 99.2102 25.9776 99.3436 26.2672C100.547 28.9192 101.771 30.1721 102.928 30.1721C103.309 30.1721 103.619 30.4814 103.619 30.8629C103.619 30.879 103.618 30.895 103.617 30.9109C103.618 30.9267 103.619 30.9427 103.619 30.9588C103.619 31.3403 103.309 31.6496 102.928 31.6496C101.771 31.6496 100.547 32.9026 99.3436 35.5546C99.2102 35.8442 98.9514 36.3234 98.5585 36.9319C97.9088 37.9384 97.1114 38.9437 96.1582 39.8831C93.5672 42.4365 90.337 44.0291 86.4425 44.1903C86.278 48.0783 84.6863 51.3038 82.136 53.8916C81.1966 54.8448 80.1913 55.6422 79.1848 56.2919C78.5762 56.6847 78.097 56.9435 77.8075 57.077C75.5357 58.1076 74.2905 59.1541 73.9802 60.1598C74.0071 60.3247 74.0206 60.4918 74.0206 60.6611C74.0206 61.0426 73.7114 61.3519 73.3298 61.3519C73.3099 61.3519 73.2902 61.351 73.2708 61.3494C73.2513 61.351 73.2316 61.3519 73.2117 61.3519C72.8302 61.3519 72.5209 61.0426 72.5209 60.6611C72.5209 60.4918 72.5344 60.3247 72.5613 60.1598C72.251 59.1541 71.0059 58.1076 68.7341 57.077C68.4445 56.9435 67.9653 56.6847 67.3567 56.2919C66.3503 55.6422 65.3449 54.8448 64.4056 53.8916C61.8555 51.304 60.2638 48.0789 60.0991 44.1914C56.1714 44.0475 52.9166 42.451 50.3092 39.8814C49.356 38.942 48.5586 37.9367 47.9089 36.9302C47.516 36.3216 47.2573 35.8424 47.1238 35.5529C46.0938 33.2825 45.048 32.0375 44.0429 31.7262C43.8774 31.7533 43.7097 31.767 43.5397 31.767C43.1582 31.767 42.8489 31.4577 42.8489 31.0761C42.8489 31.0561 42.8497 31.0362 42.8514 31.0166C42.8497 30.997 42.8489 30.9772 42.8489 30.9571C42.8489 30.5756 43.1582 30.2663 43.5397 30.2663C43.7097 30.2663 43.8774 30.2799 44.0429 30.307C45.048 29.9957 46.0938 28.7507 47.1238 26.4804C47.2573 26.1908 47.516 25.7116 47.9089 25.103C48.5586 24.0966 49.356 23.0913 50.3092 22.1519C52.9576 19.5419 56.2738 17.9359 60.2846 17.8361Z" fill="#00C0C5"/>
<path opacity="0.452172" fill-rule="evenodd" clip-rule="evenodd" d="M83.6103 9.82842C80.1108 9.85396 76.8728 11.0178 74.1866 13.704C74.0844 13.8062 73.9582 13.8696 73.8262 13.8944C73.555 14.1389 73.1368 14.1305 72.8756 13.8694C70.1894 11.1832 66.9514 10.0193 63.4519 9.9938C62.2211 9.98482 61.0459 10.1204 59.9688 10.3524C59.5935 10.4332 59.2581 10.52 58.9681 10.6067C58.7983 10.6574 58.6842 10.6956 58.631 10.7153C56.6155 11.4727 54.9668 11.7601 53.6959 11.5346C53.9215 12.8055 53.6341 14.4543 52.8766 16.4697C52.857 16.5229 52.8187 16.6371 52.768 16.8068C52.6814 17.0969 52.5946 17.4323 52.5137 17.8076C52.2817 18.8847 52.1462 20.0599 52.1552 21.2907C52.1801 24.7048 53.2884 27.87 55.8368 30.5168C55.9708 30.5408 56.0991 30.6046 56.2027 30.7082C56.4724 30.978 56.4724 31.4154 56.2027 31.6852C53.5165 34.3714 52.3526 37.6094 52.3271 41.1089C52.3181 42.3396 52.4536 43.5148 52.6857 44.5919C52.7665 44.9673 52.8533 45.3026 52.94 45.5927C52.9907 45.7625 53.0289 45.8766 53.0485 45.9298C53.7706 47.8511 54.0656 49.4392 53.8961 50.6844C55.1413 50.515 56.7293 50.8099 58.6505 51.532C58.7037 51.5516 58.8178 51.5899 58.9876 51.6406C59.2777 51.7272 59.613 51.814 59.9884 51.8949C61.0655 52.1269 62.2407 52.2624 63.4714 52.2535C66.971 52.2279 70.209 51.0641 72.8952 48.3779C72.9121 48.3609 72.9297 48.3451 72.9478 48.3303C72.953 48.3248 72.9582 48.3194 72.9636 48.314C73.2334 48.0442 73.6708 48.0442 73.9406 48.314C76.6267 51.0002 79.8648 52.164 83.3643 52.1896C84.595 52.1986 85.7702 52.063 86.8473 51.831C87.2227 51.7502 87.558 51.6633 87.8481 51.5767C88.0179 51.526 88.132 51.4877 88.1852 51.4681C90.1064 50.7461 91.6944 50.4511 92.9396 50.6205C92.7702 49.3754 93.0651 47.7874 93.7872 45.8662C93.8068 45.813 93.845 45.6989 93.8958 45.5291C93.9824 45.2391 94.0692 44.9037 94.1501 44.5283C94.3821 43.4513 94.5176 42.2761 94.5086 41.0453C94.4831 37.5458 93.3192 34.3078 90.633 31.6216C90.3633 31.3518 90.3633 30.9144 90.633 30.6446C90.7721 30.5055 90.9558 30.4382 91.138 30.4425C93.7484 27.7776 94.8818 24.5794 94.907 21.1265C94.916 19.8957 94.7805 18.7205 94.5484 17.6434C94.4676 17.2681 94.3808 16.9327 94.2941 16.6427C94.2434 16.4729 94.2052 16.3588 94.1855 16.3056C93.4278 14.2894 93.1405 12.6403 93.3665 11.3691C92.0955 11.5948 90.4467 11.3074 88.4312 10.5499C88.378 10.5303 88.2639 10.492 88.0941 10.4413C87.804 10.3547 87.4687 10.2679 87.0933 10.187C86.0162 9.95497 84.8411 9.81944 83.6103 9.82842ZM92.2302 31.301C95.0357 28.3825 96.2613 24.88 96.2886 21.1366C96.2983 19.7983 96.1513 18.5236 95.8991 17.3525C95.7465 16.6444 95.5907 16.1226 95.4803 15.8234C94.4558 13.0974 94.4358 11.3455 95.2534 10.5279C95.5232 10.2581 95.5232 9.82068 95.2534 9.55091C95.2436 9.54109 95.2336 9.53163 95.2233 9.52252C95.2115 9.50865 95.199 9.49513 95.1859 9.48201C94.9161 9.21223 94.4787 9.21223 94.2089 9.48201C93.3913 10.2996 91.6394 10.2796 88.9134 9.25514C88.6142 9.14475 88.0924 8.9889 87.3843 8.83636C86.2132 8.58409 84.9385 8.43708 83.6002 8.44685C79.8601 8.47414 76.3605 9.69754 73.4436 12.4978C70.5622 9.81468 67.1276 8.63897 63.462 8.61222C62.1237 8.60246 60.849 8.74947 59.6779 9.00174C58.9698 9.15428 58.4479 9.31013 58.1488 9.42052C55.4228 10.445 53.6708 10.465 52.8532 9.64739C52.5835 9.37761 52.1461 9.37761 51.8763 9.64739C51.8648 9.65892 51.8537 9.67075 51.8432 9.68287C51.8314 9.69314 51.8199 9.70387 51.8087 9.71508C51.539 9.98485 51.539 10.4222 51.8087 10.692C52.6263 11.5096 52.6064 13.2616 51.5819 15.9876C51.4715 16.2867 51.3156 16.8086 51.1631 17.5167C50.9108 18.6878 50.7638 19.9625 50.7736 21.3007C50.8004 24.971 51.979 28.4098 54.6694 31.2934C52.1007 34.1382 50.9717 37.5077 50.9455 41.0988C50.9357 42.4371 51.0827 43.7118 51.335 44.8829C51.4876 45.591 51.6434 46.1128 51.7538 46.412C52.6304 48.7445 52.7716 50.3638 52.2819 51.2949C52.1451 51.393 52.0165 51.5023 51.8959 51.6229C51.6261 51.8927 51.6261 52.3301 51.8959 52.5999C51.9103 52.6144 51.9253 52.6281 51.9407 52.641C51.9533 52.6559 51.9666 52.6704 51.9807 52.6845C52.2504 52.9542 52.6878 52.9542 52.9576 52.6845C53.0782 52.5639 53.1874 52.4353 53.2855 52.2986C54.2166 51.809 55.8359 51.9502 58.1684 52.8267C58.4675 52.9371 58.9893 53.093 59.6974 53.2455C60.8685 53.4978 62.1433 53.6448 63.4815 53.635C67.1426 53.6083 70.5732 52.4355 73.4524 49.7595C76.3173 52.3903 79.7224 53.5447 83.3542 53.5712C84.6924 53.5809 85.9672 53.4339 87.1383 53.1816C87.8464 53.0291 88.3682 52.8733 88.6673 52.7629C90.9995 51.8864 92.6187 51.7451 93.5499 52.2346C93.648 52.3714 93.7574 52.5002 93.8781 52.6209C94.1479 52.8907 94.5853 52.8907 94.855 52.6209C94.8694 52.6065 94.883 52.5917 94.8958 52.5764C94.9109 52.5637 94.9256 52.5502 94.9399 52.536C95.2096 52.2662 95.2096 51.8288 94.9399 51.559C94.8192 51.4384 94.6904 51.329 94.5536 51.2309C94.0642 50.2997 94.2054 48.6805 95.0819 46.3484C95.1923 46.0492 95.3481 45.5274 95.5007 44.8193C95.753 43.6482 95.9 42.3735 95.8902 41.0352C95.8642 37.474 94.7538 34.1307 92.2302 31.301Z" fill="#00C0C5"/>
<path fill-rule="evenodd" clip-rule="evenodd" d="M62.6868 25.2476C63.3164 26.5096 65.0044 28.2034 67.7377 30.276C67.892 30.3097 68.0355 30.3962 68.1388 30.5316C68.3703 30.8349 68.3121 31.2684 68.0088 31.4999C64.9937 33.8011 63.1239 35.671 62.4137 37.0566C62.0472 37.7717 61.9065 38.638 61.8037 40.3408C61.7336 41.5017 61.6679 42.3235 61.5572 42.9472C62.181 42.8365 63.0028 42.7708 64.1638 42.7007C65.8666 42.5979 66.7329 42.4573 67.448 42.0907C68.7148 41.4415 70.3862 39.823 72.422 37.2463C72.4241 37.0394 72.5186 36.8358 72.6964 36.7015C72.7705 36.6455 72.8522 36.6067 72.9368 36.5845L73.0047 36.4956C73.2362 36.1924 73.6697 36.1341 73.973 36.3656C74.2762 36.5971 74.3345 37.0306 74.103 37.3339L74.0741 37.3717C75.9869 39.8356 77.5604 41.3698 78.75 41.9633C79.4029 42.289 80.2079 42.4053 81.7939 42.4721C82.9731 42.5218 83.7806 42.5732 84.383 42.6829C84.2733 42.0805 84.2218 41.273 84.1722 40.0937C84.1054 38.5077 83.9891 37.7027 83.6634 37.0498C83.028 35.7762 81.3144 34.0626 78.5363 31.9638C78.2319 31.7338 78.1715 31.3006 78.4015 30.9962C78.5004 30.8653 78.637 30.7795 78.7847 30.7425C81.7328 28.4814 83.5644 26.6413 84.2655 25.2733C84.632 24.5581 84.7727 23.6919 84.8755 21.989C84.9456 20.828 85.0113 20.0061 85.122 19.3823C84.4983 19.493 83.6764 19.5587 82.5155 19.6288C80.8126 19.7316 79.9464 19.8723 79.2312 20.2388C77.8926 20.9248 76.1021 22.6932 73.9074 25.5308C73.9716 25.7909 73.8803 26.076 73.653 26.2478C73.3486 26.4778 72.9154 26.4174 72.6854 26.113C70.5866 23.3349 68.873 21.6213 67.5994 20.9859C66.9466 20.6602 66.1416 20.5439 64.5555 20.4771C63.4354 20.43 62.6508 20.3811 62.0586 20.2824C62.1106 20.7891 62.1447 21.4128 62.178 22.2037C62.2448 23.7898 62.3611 24.5948 62.6868 25.2476ZM87.2007 17.8178C87.1724 17.6968 87.111 17.5819 87.0167 17.4876C86.7469 17.2178 86.3095 17.2178 86.0397 17.4876C85.5518 17.9755 84.833 18.1048 82.4322 18.2497C80.5374 18.3641 79.5456 18.5251 78.601 19.0093C77.096 19.7806 75.2673 21.5585 73.0723 24.3546C71.1706 21.9542 69.5648 20.4225 68.2162 19.7496C67.3278 19.3064 66.3963 19.1718 64.6137 19.0967C62.9824 19.028 62.1868 18.9513 61.7091 18.746C61.5718 18.4495 61.3896 18.207 61.1429 17.9604C60.8732 17.6906 60.4358 17.6906 60.166 17.9604C59.9149 18.2114 59.8975 18.6077 60.1138 18.879C60.0921 19.0797 60.1582 19.2882 60.3121 19.4421C60.3907 19.5206 60.4689 19.5927 60.5485 19.6588C60.6803 20.1584 60.7416 20.9328 60.7976 22.2619C60.8727 24.0445 61.0073 24.976 61.4505 25.8644C62.1555 27.2775 63.8035 28.9729 66.4056 30.9952C63.6808 33.1469 61.9441 34.9437 61.1842 36.4264C60.7 37.371 60.539 38.3628 60.4246 40.2576C60.2801 42.6507 60.1512 43.3726 59.6671 43.8604L59.6625 43.865L59.6497 43.8783C59.6212 43.9082 59.596 43.9401 59.574 43.9735C59.3969 44.2416 59.4264 44.606 59.6625 44.842C59.9323 45.1118 60.3696 45.1118 60.6394 44.842L60.6443 44.8371C61.1322 44.3532 61.8542 44.2243 64.247 44.0798C66.1418 43.9654 67.1336 43.8044 68.0782 43.3203C69.4883 42.5976 71.1825 40.9913 73.196 38.4918C75.1332 40.9513 76.7655 42.5172 78.1333 43.1996C79.0217 43.6428 79.9532 43.7774 81.7358 43.8525C83.9607 43.9462 84.6311 44.0549 85.0604 44.4841C85.3301 44.7539 85.7675 44.7539 86.0373 44.4841C86.0624 44.4591 86.0851 44.4325 86.1055 44.4049C86.133 44.3846 86.1593 44.362 86.1842 44.3371C86.454 44.0673 86.454 43.6299 86.1842 43.3601C85.755 42.9309 85.6463 42.2605 85.5526 40.0356C85.4775 38.253 85.3429 37.3215 84.8997 36.433C84.2116 35.0539 82.6253 33.4058 80.1304 31.4474C82.9376 29.2456 84.7219 27.4119 85.495 25.9034C85.9792 24.9588 86.1402 23.9671 86.2546 22.0723C86.3995 19.6715 86.5288 18.9526 87.0167 18.4647C87.1922 18.2893 87.2536 18.0428 87.2007 17.8178Z" fill="#00C0C5"/>
<path fill-rule="evenodd" clip-rule="evenodd" d="M69.8995 19.4841C69.4523 20.8215 69.4482 23.2126 69.9153 26.6105C70.0007 26.7436 70.0411 26.9064 70.0184 27.0754C69.9677 27.4535 69.62 27.7189 69.2419 27.6681C65.4827 27.1633 62.8383 27.1633 61.3563 27.6409C60.5915 27.8874 59.8795 28.4005 58.6027 29.5319C57.7322 30.3033 57.1046 30.838 56.5852 31.2008C57.1046 31.5635 57.7322 32.0982 58.6027 32.8696C59.8795 34.001 60.5915 34.5141 61.3563 34.7606C62.7112 35.1973 65.0376 35.2347 68.2991 34.8522C68.4469 34.7075 68.6577 34.6303 68.8784 34.661C68.9703 34.6738 69.0555 34.7042 69.131 34.7482L69.2419 34.7335C69.62 34.6827 69.9677 34.9481 70.0184 35.3262C70.0692 35.7043 69.8038 36.052 69.4257 36.1028L69.3786 36.1091C68.9889 39.2039 69.0167 41.4014 69.4383 42.6623C69.6696 43.3542 70.1565 44.0057 71.2308 45.1744C72.0295 46.0433 72.564 46.6507 72.9125 47.1542C73.2609 46.6507 73.7955 46.0433 74.5942 45.1744C75.6685 44.0057 76.1554 43.3542 76.3867 42.6623C76.838 41.3124 76.838 38.889 76.3577 35.4405C76.3051 35.0627 76.5687 34.7137 76.9466 34.661C77.109 34.6384 77.266 34.6742 77.3965 34.7524C81.0803 35.2382 83.6767 35.2322 85.1399 34.7606C85.9047 34.5141 86.6167 34.001 87.8935 32.8696C88.764 32.0982 89.3916 31.5635 89.911 31.2008C89.3916 30.838 88.764 30.3033 87.8935 29.5319C86.6167 28.4005 85.9047 27.8874 85.1399 27.6409C83.7083 27.1795 81.1918 27.1639 77.6334 27.6184C77.4948 27.8477 77.2288 27.9848 76.9466 27.9455C76.5687 27.8928 76.3051 27.5438 76.3577 27.166C76.838 23.7175 76.838 21.2941 76.3867 19.9442C76.1554 19.2523 75.6685 18.6008 74.5942 17.4321C73.8355 16.6067 73.3152 16.0174 72.9663 15.5288C72.6447 15.9239 72.2278 16.3891 71.692 16.9719C70.6178 18.1407 70.1308 18.7921 69.8995 19.4841ZM92.5904 31.2096C92.5904 31.2066 92.5904 31.2037 92.5904 31.2007C92.5904 30.8192 92.2812 30.5099 91.8996 30.5099C91.2097 30.5099 90.6099 30.093 88.8098 28.4979C87.3891 27.239 86.574 26.6515 85.5637 26.3259C83.9541 25.8072 81.4039 25.7712 77.8746 26.1962C78.2273 23.1542 78.1749 20.9355 77.6971 19.5062C77.3823 18.5645 76.8188 17.8107 75.6114 16.4971C74.5064 15.295 73.9981 14.6782 73.8055 14.1953C73.918 13.8885 73.9607 13.5882 73.9607 13.2395C73.9607 12.858 73.6514 12.5487 73.2698 12.5487C72.9148 12.5487 72.6222 12.8166 72.5834 13.1613C72.4262 13.288 72.3256 13.4821 72.3256 13.6997C72.3256 13.8108 72.3299 13.917 72.3394 14.02C72.0794 14.4665 71.5752 15.0575 70.6748 16.037C69.4674 17.3505 68.9039 18.1044 68.5891 19.046C68.0885 20.5437 68.0549 22.9078 68.4649 26.1776C65.0167 25.7724 62.5182 25.8149 60.9325 26.3259C59.9222 26.6515 59.1071 27.239 57.6864 28.4979C55.8863 30.093 55.2865 30.5099 54.5966 30.5099C54.215 30.5099 53.9058 30.8192 53.9058 31.2007V31.2009C53.9058 31.5824 54.215 31.8917 54.5966 31.8917C55.2865 31.8917 55.8863 32.3086 57.6864 33.9037C59.1071 35.1626 59.9222 35.75 60.9325 36.0756C62.4406 36.5617 64.7745 36.6239 67.9656 36.2802C67.5963 39.3891 67.6433 41.6507 68.1279 43.1003C68.4427 44.042 69.0062 44.7958 70.2136 46.1094C71.7206 47.7489 72.1178 48.2998 72.1178 48.9068C72.1178 49.2884 72.4271 49.5976 72.8086 49.5976C72.8439 49.5976 72.8786 49.595 72.9125 49.5899C72.9464 49.595 72.9811 49.5976 73.0164 49.5976C73.3979 49.5976 73.7072 49.2884 73.7072 48.9068C73.7072 48.2998 74.1044 47.7489 75.6114 46.1094C76.8188 44.7958 77.3823 44.042 77.6971 43.1003C78.1857 41.6386 78.2294 39.3514 77.85 36.2023C81.392 36.6305 83.9503 36.5956 85.5637 36.0756C86.574 35.75 87.3891 35.1626 88.8098 33.9037C90.6099 32.3086 91.2097 31.8917 91.8996 31.8917C92.2424 31.8917 92.5269 31.642 92.5811 31.3146C92.5868 31.2804 92.5899 31.2453 92.5904 31.2096Z" fill="#00C0C5"/>
</g>
<path d="M31.1567 86L27.5807 86L24.1967 80.168L21.6767 80.168L21.6767 86H18.3647L18.3647 69.2L25.0847 69.2C26.6367 69.2 27.9567 69.744 29.0447 70.832C30.1327 71.92 30.6767 73.232 30.6767 74.768C30.6767 75.808 30.3807 76.776 29.7887 77.672C29.1967 78.552 28.4127 79.216 27.4367 79.664L31.1567 86ZM25.0847 72.296H21.6767L21.6767 77.264H25.0847C25.7087 77.264 26.2447 77.024 26.6927 76.544C27.1407 76.048 27.3647 75.456 27.3647 74.768C27.3647 74.08 27.1407 73.496 26.6927 73.016C26.2447 72.536 25.7087 72.296 25.0847 72.296ZM44.0175 81.272L34.9695 81.272C35.3695 82.776 36.4975 83.528 38.3535 83.528C39.5375 83.528 40.4335 83.128 41.0415 82.328L43.5375 83.768C42.3535 85.48 40.6095 86.336 38.3055 86.336C36.3215 86.336 34.7295 85.736 33.5295 84.536C32.3295 83.336 31.7295 81.824 31.7295 80C31.7295 78.208 32.3215 76.704 33.5055 75.488C34.6735 74.272 36.1935 73.664 38.0655 73.664C39.8415 73.664 41.2895 74.272 42.4095 75.488C43.5615 76.704 44.1375 78.208 44.1375 80C44.1375 80.336 44.0975 80.76 44.0175 81.272ZM34.9215 78.872L41.0415 78.872C40.8655 78.088 40.5055 77.488 39.9615 77.072C39.4335 76.656 38.8015 76.448 38.0655 76.448C37.2335 76.448 36.5455 76.664 36.0015 77.096C35.4575 77.512 35.0975 78.104 34.9215 78.872ZM52.9708 73.664C54.2988 73.664 55.3788 74.104 56.2108 74.984C57.0748 75.88 57.5068 77.096 57.5068 78.632L57.5068 86L54.4108 86L54.4108 79.016C54.4108 78.232 54.1948 77.624 53.7628 77.192C53.3468 76.76 52.7708 76.544 52.0348 76.544C51.2188 76.544 50.5708 76.8 50.0908 77.312C49.6268 77.808 49.3948 78.544 49.3948 79.52L49.3948 86H46.2988L46.2988 74H49.3948L49.3948 75.344C50.1308 74.224 51.3228 73.664 52.9708 73.664ZM71.8144 81.272L62.7664 81.272C63.1664 82.776 64.2944 83.528 66.1504 83.528C67.3344 83.528 68.2304 83.128 68.8384 82.328L71.3344 83.768C70.1504 85.48 68.4064 86.336 66.1024 86.336C64.1184 86.336 62.5264 85.736 61.3264 84.536C60.1264 83.336 59.5264 81.824 59.5264 80C59.5264 78.208 60.1184 76.704 61.3024 75.488C62.4704 74.272 63.9904 73.664 65.8624 73.664C67.6384 73.664 69.0864 74.272 70.2064 75.488C71.3584 76.704 71.9344 78.208 71.9344 80C71.9344 80.336 71.8944 80.76 71.8144 81.272ZM62.7184 78.872H68.8384C68.6624 78.088 68.3024 77.488 67.7584 77.072C67.2304 76.656 66.5984 76.448 65.8624 76.448C65.0304 76.448 64.3424 76.664 63.7984 77.096C63.2544 77.512 62.8944 78.104 62.7184 78.872ZM85.0989 81.392L87.1389 74L90.4269 74L86.6109 86H83.6589L81.4509 78.728L79.2429 86L76.2909 86L72.4749 74H75.7629L77.8029 81.368L79.9869 74H82.9149L85.0989 81.392Z" fill="#5D697C"/>
<path d="M105.272 69.2H108.68L108.68 86H105.392L105.392 75.104L100.664 82.904H100.28L95.5517 75.128L95.5517 86L92.2397 86L92.2397 69.2L95.6477 69.2L100.472 77.144L105.272 69.2ZM123.33 81.272L114.282 81.272C114.682 82.776 115.81 83.528 117.666 83.528C118.85 83.528 119.746 83.128 120.354 82.328L122.85 83.768C121.666 85.48 119.922 86.336 117.618 86.336C115.634 86.336 114.042 85.736 112.842 84.536C111.642 83.336 111.042 81.824 111.042 80C111.042 78.208 111.634 76.704 112.818 75.488C113.986 74.272 115.506 73.664 117.378 73.664C119.154 73.664 120.602 74.272 121.722 75.488C122.874 76.704 123.45 78.208 123.45 80C123.45 80.336 123.41 80.76 123.33 81.272ZM114.234 78.872H120.354C120.178 78.088 119.818 77.488 119.274 77.072C118.746 76.656 118.114 76.448 117.378 76.448C116.546 76.448 115.858 76.664 115.314 77.096C114.77 77.512 114.41 78.104 114.234 78.872Z" fill="#778294"/>
<path d="M124.861 65.2H126.901V65.64H126.113V68H125.653V65.64H124.861V65.2ZM129.429 65.2H129.921V68H129.461V66.004L128.609 67.412H128.553L127.701 66V68H127.241V65.2H127.737L128.581 66.6L129.429 65.2Z" fill="#5D697C"/>
<path d="M5.98711 100.644C6.37911 100.836 6.68711 101.104 6.91111 101.448C7.13511 101.792 7.24711 102.184 7.24711 102.624C7.24711 103.296 7.01111 103.86 6.53911 104.316C6.06711 104.772 5.49111 105 4.81111 105L1.18711 105L1.18711 96.6L4.54711 96.6C5.21111 96.6 5.76711 96.82 6.21511 97.26C6.67111 97.7 6.89911 98.244 6.89911 98.892C6.89911 99.644 6.59511 100.228 5.98711 100.644ZM4.54711 97.644L2.30311 97.644L2.30311 100.212L4.54711 100.212C4.89911 100.212 5.19511 100.088 5.43511 99.84C5.67511 99.592 5.79511 99.288 5.79511 98.928C5.79511 98.576 5.67111 98.276 5.42311 98.028C5.18311 97.772 4.89111 97.644 4.54711 97.644ZM2.30311 103.956L4.81111 103.956C5.18711 103.956 5.50311 103.824 5.75911 103.56C6.01511 103.296 6.14311 102.972 6.14311 102.588C6.14311 102.212 6.01111 101.892 5.74711 101.628C5.49911 101.364 5.18711 101.232 4.81111 101.232L2.30311 101.232L2.30311 103.956ZM13.4651 100.032L13.4651 99H14.5091L14.5091 105H13.4651L13.4651 103.968C12.9531 104.76 12.1971 105.156 11.1971 105.156C10.3491 105.156 9.63308 104.852 9.04908 104.244C8.45708 103.628 8.16108 102.88 8.16108 102C8.16108 101.128 8.45708 100.384 9.04908 99.768C9.64108 99.152 10.3571 98.844 11.1971 98.844C12.1971 98.844 12.9531 99.24 13.4651 100.032ZM11.3291 104.148C11.9371 104.148 12.4451 103.944 12.8531 103.536C13.2611 103.112 13.4651 102.6 13.4651 102C13.4651 101.392 13.2611 100.884 12.8531 100.476C12.4451 100.06 11.9371 99.852 11.3291 99.852C10.7291 99.852 10.2251 100.06 9.81708 100.476C9.40908 100.884 9.20508 101.392 9.20508 102C9.20508 102.6 9.40908 103.112 9.81708 103.536C10.2251 103.944 10.7291 104.148 11.3291 104.148ZM17.1348 105H16.0908L16.0908 96.24H17.1348L17.1348 105ZM23.6955 100.032L23.6955 99H24.7395L24.7395 105H23.6955V103.968C23.1835 104.76 22.4275 105.156 21.4275 105.156C20.5795 105.156 19.8635 104.852 19.2795 104.244C18.6875 103.628 18.3915 102.88 18.3915 102C18.3915 101.128 18.6875 100.384 19.2795 99.768C19.8715 99.152 20.5875 98.844 21.4275 98.844C22.4275 98.844 23.1835 99.24 23.6955 100.032ZM21.5595 104.148C22.1675 104.148 22.6755 103.944 23.0835 103.536C23.4915 103.112 23.6955 102.6 23.6955 102C23.6955 101.392 23.4915 100.884 23.0835 100.476C22.6755 100.06 22.1675 99.852 21.5595 99.852C20.9595 99.852 20.4555 100.06 20.0475 100.476C19.6395 100.884 19.4355 101.392 19.4355 102C19.4355 102.6 19.6395 103.112 20.0475 103.536C20.4555 103.944 20.9595 104.148 21.5595 104.148ZM29.3093 98.844C30.0133 98.844 30.5773 99.068 31.0013 99.516C31.4253 99.956 31.6373 100.556 31.6373 101.316L31.6373 105H30.5933L30.5933 101.376C30.5933 100.896 30.4613 100.52 30.1973 100.248C29.9333 99.976 29.5693 99.84 29.1053 99.84C28.5693 99.84 28.1453 100.008 27.8333 100.344C27.5213 100.672 27.3653 101.164 27.3653 101.82L27.3653 105H26.3213L26.3213 99H27.3653L27.3653 99.864C27.7813 99.184 28.4293 98.844 29.3093 98.844ZM35.9147 105.156C35.0107 105.156 34.2587 104.856 33.6587 104.256C33.0587 103.648 32.7587 102.896 32.7587 102C32.7587 101.104 33.0587 100.356 33.6587 99.756C34.2587 99.148 35.0107 98.844 35.9147 98.844C36.5067 98.844 37.0387 98.988 37.5107 99.276C37.9827 99.556 38.3347 99.936 38.5667 100.416L37.6907 100.92C37.5387 100.6 37.3027 100.344 36.9827 100.152C36.6707 99.96 36.3147 99.864 35.9147 99.864C35.3147 99.864 34.8107 100.068 34.4027 100.476C34.0027 100.892 33.8027 101.4 33.8027 102C33.8027 102.592 34.0027 103.096 34.4027 103.512C34.8107 103.92 35.3147 104.124 35.9147 104.124C36.3147 104.124 36.6747 104.032 36.9947 103.848C37.3147 103.656 37.5587 103.4 37.7267 103.08L38.6147 103.596C38.3507 104.076 37.9787 104.456 37.4987 104.736C37.0187 105.016 36.4907 105.156 35.9147 105.156ZM45.3235 102.48L40.2955 102.48C40.3995 103.008 40.6435 103.424 41.0275 103.728C41.4115 104.024 41.8915 104.172 42.4675 104.172C43.2595 104.172 43.8355 103.88 44.1955 103.296L45.0835 103.8C44.4915 104.704 43.6115 105.156 42.4435 105.156C41.4995 105.156 40.7235 104.86 40.1155 104.268C39.5235 103.66 39.2275 102.904 39.2275 102C39.2275 101.088 39.5195 100.336 40.1035 99.744C40.6875 99.144 41.4435 98.844 42.3715 98.844C43.2515 98.844 43.9675 99.156 44.5195 99.78C45.0795 100.388 45.3595 101.132 45.3595 102.012C45.3595 102.164 45.3475 102.32 45.3235 102.48ZM42.3715 99.828C41.8195 99.828 41.3555 99.984 40.9795 100.296C40.6115 100.608 40.3835 101.032 40.2955 101.568H44.3035C44.2155 101.016 43.9955 100.588 43.6435 100.284C43.2915 99.98 42.8675 99.828 42.3715 99.828ZM50.0876 97.908C49.8876 97.908 49.7196 97.84 49.5836 97.704C49.4476 97.568 49.3796 97.404 49.3796 97.212C49.3796 97.02 49.4476 96.856 49.5836 96.72C49.7196 96.576 49.8876 96.504 50.0876 96.504C50.2796 96.504 50.4436 96.576 50.5796 96.72C50.7156 96.856 50.7836 97.02 50.7836 97.212C50.7836 97.404 50.7156 97.568 50.5796 97.704C50.4436 97.84 50.2796 97.908 50.0876 97.908ZM50.6036 105H49.5596L49.5596 99H50.6036L50.6036 105ZM53.0846 100.62C53.0846 101.004 53.4806 101.304 54.2726 101.52C54.5686 101.584 54.8166 101.652 55.0166 101.724C55.2246 101.788 55.4486 101.888 55.6886 102.024C55.9366 102.16 56.1246 102.34 56.2526 102.564C56.3806 102.788 56.4446 103.052 56.4446 103.356C56.4446 103.9 56.2326 104.336 55.8086 104.664C55.3846 104.992 54.8486 105.156 54.2006 105.156C53.6246 105.156 53.1246 105.032 52.7006 104.784C52.2846 104.528 51.9886 104.184 51.8126 103.752L52.7126 103.236C52.8086 103.524 52.9886 103.752 53.2526 103.92C53.5166 104.088 53.8326 104.172 54.2006 104.172C54.5606 104.172 54.8486 104.104 55.0646 103.968C55.2806 103.832 55.3886 103.628 55.3886 103.356C55.3886 102.948 54.9926 102.652 54.2006 102.468C53.9366 102.396 53.7366 102.34 53.6006 102.3C53.4646 102.26 53.2766 102.188 53.0366 102.084C52.8046 101.98 52.6286 101.872 52.5086 101.76C52.3886 101.64 52.2766 101.484 52.1726 101.292C52.0766 101.092 52.0286 100.872 52.0286 100.632C52.0286 100.112 52.2286 99.684 52.6286 99.348C53.0366 99.012 53.5446 98.844 54.1526 98.844C54.6406 98.844 55.0726 98.956 55.4486 99.18C55.8326 99.396 56.1206 99.7 56.3126 100.092L55.4366 100.584C55.2206 100.072 54.7926 99.816 54.1526 99.816C53.8486 99.816 53.5926 99.888 53.3846 100.032C53.1846 100.176 53.0846 100.372 53.0846 100.62ZM63.9927 98.844C64.8327 98.844 65.5487 99.152 66.1407 99.768C66.7327 100.384 67.0287 101.128 67.0287 102C67.0287 102.88 66.7327 103.628 66.1407 104.244C65.5567 104.852 64.8407 105.156 63.9927 105.156C63.0007 105.156 62.2447 104.76 61.7247 103.968L61.7247 105L60.6807 105L60.6807 96.6H61.7247V100.032C62.2447 99.24 63.0007 98.844 63.9927 98.844ZM63.8607 104.148C64.4607 104.148 64.9647 103.944 65.3727 103.536C65.7807 103.112 65.9847 102.6 65.9847 102C65.9847 101.392 65.7807 100.884 65.3727 100.476C64.9647 100.06 64.4607 99.852 63.8607 99.852C63.2527 99.852 62.7447 100.06 62.3367 100.476C61.9287 100.884 61.7247 101.392 61.7247 102C61.7247 102.6 61.9287 103.112 62.3367 103.536C62.7447 103.944 63.2527 104.148 63.8607 104.148ZM74.0344 102.48L69.0064 102.48C69.1104 103.008 69.3544 103.424 69.7384 103.728C70.1224 104.024 70.6024 104.172 71.1784 104.172C71.9704 104.172 72.5464 103.88 72.9064 103.296L73.7944 103.8C73.2024 104.704 72.3224 105.156 71.1544 105.156C70.2104 105.156 69.4344 104.86 68.8264 104.268C68.2344 103.66 67.9384 102.904 67.9384 102C67.9384 101.088 68.2304 100.336 68.8144 99.744C69.3984 99.144 70.1544 98.844 71.0824 98.844C71.9624 98.844 72.6784 99.156 73.2304 99.78C73.7904 100.388 74.0704 101.132 74.0704 102.012C74.0704 102.164 74.0584 102.32 74.0344 102.48ZM71.0824 99.828C70.5304 99.828 70.0664 99.984 69.6904 100.296C69.3224 100.608 69.0944 101.032 69.0064 101.568L73.0144 101.568C72.9264 101.016 72.7064 100.588 72.3544 100.284C72.0024 99.98 71.5784 99.828 71.0824 99.828ZM78.3587 99V100.008H76.7627V103.26C76.7627 103.556 76.8187 103.768 76.9307 103.896C77.0507 104.016 77.2307 104.08 77.4707 104.088C77.7107 104.088 78.0067 104.08 78.3587 104.064V105C77.4387 105.12 76.7667 105.044 76.3427 104.772C75.9267 104.5 75.7187 103.996 75.7187 103.26V100.008H74.5307V99H75.7187L75.7187 97.632L76.7627 97.32L76.7627 99H78.3587ZM82.5423 99V100.008H80.9463V103.26C80.9463 103.556 81.0023 103.768 81.1143 103.896C81.2343 104.016 81.4143 104.08 81.6543 104.088C81.8943 104.088 82.1903 104.08 82.5423 104.064V105C81.6223 105.12 80.9503 105.044 80.5263 104.772C80.1103 104.5 79.9023 103.996 79.9023 103.26V100.008H78.7143V99H79.9023L79.9023 97.632L80.9463 97.32L80.9463 99H82.5423ZM89.2336 102.48L84.2056 102.48C84.3096 103.008 84.5536 103.424 84.9376 103.728C85.3216 104.024 85.8016 104.172 86.3776 104.172C87.1696 104.172 87.7456 103.88 88.1056 103.296L88.9936 103.8C88.4016 104.704 87.5216 105.156 86.3536 105.156C85.4096 105.156 84.6336 104.86 84.0256 104.268C83.4336 103.66 83.1376 102.904 83.1376 102C83.1376 101.088 83.4296 100.336 84.0136 99.744C84.5976 99.144 85.3536 98.844 86.2816 98.844C87.1616 98.844 87.8776 99.156 88.4296 99.78C88.9896 100.388 89.2696 101.132 89.2696 102.012C89.2696 102.164 89.2576 102.32 89.2336 102.48ZM86.2816 99.828C85.7296 99.828 85.2656 99.984 84.8896 100.296C84.5216 100.608 84.2936 101.032 84.2056 101.568L88.2136 101.568C88.1256 101.016 87.9056 100.588 87.5536 100.284C87.2016 99.98 86.7776 99.828 86.2816 99.828ZM91.5137 99V100.008C91.8577 99.264 92.4817 98.892 93.3857 98.892V99.984C92.8737 99.96 92.4337 100.096 92.0657 100.392C91.6977 100.688 91.5137 101.164 91.5137 101.82V105H90.4697V99H91.5137ZM100.671 99V100.008H99.0752V103.26C99.0752 103.556 99.1312 103.768 99.2432 103.896C99.3632 104.016 99.5432 104.08 99.7832 104.088C100.023 104.088 100.319 104.08 100.671 104.064V105C99.7512 105.12 99.0792 105.044 98.6552 104.772C98.2392 104.5 98.0312 103.996 98.0312 103.26V100.008H96.8432V99H98.0312L98.0312 97.632L99.0752 97.32L99.0752 99H100.671ZM106.667 104.244C106.059 104.852 105.311 105.156 104.423 105.156C103.535 105.156 102.787 104.852 102.179 104.244C101.571 103.636 101.267 102.888 101.267 102C101.267 101.112 101.571 100.364 102.179 99.756C102.787 99.148 103.535 98.844 104.423 98.844C105.311 98.844 106.059 99.148 106.667 99.756C107.283 100.372 107.591 101.12 107.591 102C107.591 102.88 107.283 103.628 106.667 104.244ZM104.423 104.136C105.023 104.136 105.527 103.932 105.935 103.524C106.343 103.116 106.547 102.608 106.547 102C106.547 101.392 106.343 100.884 105.935 100.476C105.527 100.068 105.023 99.864 104.423 99.864C103.831 99.864 103.331 100.068 102.923 100.476C102.515 100.884 102.311 101.392 102.311 102C102.311 102.608 102.515 103.116 102.923 103.524C103.331 103.932 103.831 104.136 104.423 104.136ZM113.801 100.032V99H114.833V104.748C114.833 105.636 114.533 106.324 113.933 106.812C113.325 107.308 112.605 107.556 111.773 107.556C111.101 107.556 110.521 107.428 110.033 107.172C109.545 106.924 109.177 106.564 108.929 106.092L109.841 105.576C110.169 106.248 110.821 106.584 111.797 106.584C112.421 106.584 112.909 106.42 113.261 106.092C113.621 105.764 113.801 105.316 113.801 104.748V103.896C113.273 104.696 112.521 105.096 111.545 105.096C110.681 105.096 109.957 104.792 109.373 104.184C108.781 103.568 108.485 102.828 108.485 101.964C108.485 101.1 108.781 100.364 109.373 99.756C109.957 99.148 110.681 98.844 111.545 98.844C112.529 98.844 113.281 99.24 113.801 100.032ZM113.801 101.964C113.801 101.364 113.597 100.86 113.189 100.452C112.781 100.044 112.273 99.84 111.665 99.84C111.057 99.84 110.549 100.044 110.141 100.452C109.733 100.86 109.529 101.364 109.529 101.964C109.529 102.572 109.733 103.08 110.141 103.488C110.549 103.896 111.057 104.1 111.665 104.1C112.273 104.1 112.781 103.896 113.189 103.488C113.597 103.08 113.801 102.572 113.801 101.964ZM122.175 102.48L117.147 102.48C117.251 103.008 117.495 103.424 117.879 103.728C118.263 104.024 118.743 104.172 119.319 104.172C120.111 104.172 120.687 103.88 121.047 103.296L121.935 103.8C121.343 104.704 120.463 105.156 119.295 105.156C118.351 105.156 117.575 104.86 116.967 104.268C116.375 103.66 116.079 102.904 116.079 102C116.079 101.088 116.371 100.336 116.955 99.744C117.539 99.144 118.295 98.844 119.223 98.844C120.103 98.844 120.819 99.156 121.371 99.78C121.931 100.388 122.211 101.132 122.211 102.012C122.211 102.164 122.199 102.32 122.175 102.48ZM119.223 99.828C118.671 99.828 118.207 99.984 117.831 100.296C117.463 100.608 117.235 101.032 117.147 101.568L121.155 101.568C121.067 101.016 120.847 100.588 120.495 100.284C120.143 99.98 119.719 99.828 119.223 99.828ZM126.499 99V100.008H124.903V103.26C124.903 103.556 124.959 103.768 125.071 103.896C125.191 104.016 125.371 104.08 125.611 104.088C125.851 104.088 126.147 104.08 126.499 104.064V105C125.579 105.12 124.907 105.044 124.483 104.772C124.067 104.5 123.859 103.996 123.859 103.26V100.008H122.671V99H123.859L123.859 97.632L124.903 97.32L124.903 99H126.499ZM130.723 98.844C131.427 98.844 131.991 99.068 132.415 99.516C132.839 99.956 133.051 100.556 133.051 101.316L133.051 105H132.007L132.007 101.376C132.007 100.896 131.875 100.52 131.611 100.248C131.347 99.976 130.983 99.84 130.519 99.84C129.983 99.84 129.559 100.008 129.247 100.344C128.935 100.672 128.779 101.164 128.779 101.82L128.779 105L127.735 105L127.735 96.6L128.779 96.6V99.864C129.195 99.184 129.843 98.844 130.723 98.844ZM140.269 102.48L135.241 102.48C135.345 103.008 135.589 103.424 135.973 103.728C136.357 104.024 136.837 104.172 137.413 104.172C138.205 104.172 138.781 103.88 139.141 103.296L140.029 103.8C139.437 104.704 138.557 105.156 137.389 105.156C136.445 105.156 135.669 104.86 135.061 104.268C134.469 103.66 134.173 102.904 134.173 102C134.173 101.088 134.465 100.336 135.049 99.744C135.633 99.144 136.389 98.844 137.317 98.844C138.197 98.844 138.913 99.156 139.465 99.78C140.025 100.388 140.305 101.132 140.305 102.012C140.305 102.164 140.293 102.32 140.269 102.48ZM137.317 99.828C136.765 99.828 136.301 99.984 135.925 100.296C135.557 100.608 135.329 101.032 135.241 101.568L139.249 101.568C139.161 101.016 138.941 100.588 138.589 100.284C138.237 99.98 137.813 99.828 137.317 99.828ZM142.549 99V100.008C142.893 99.264 143.517 98.892 144.421 98.892V99.984C143.909 99.96 143.469 100.096 143.101 100.392C142.733 100.688 142.549 101.164 142.549 101.82L142.549 105H141.505L141.505 99H142.549ZM145.247 105.132C145.031 105.132 144.847 105.056 144.695 104.904C144.543 104.752 144.467 104.568 144.467 104.352C144.467 104.136 144.543 103.952 144.695 103.8C144.847 103.648 145.031 103.572 145.247 103.572C145.471 103.572 145.655 103.648 145.799 103.8C145.951 103.952 146.027 104.136 146.027 104.352C146.027 104.568 145.951 104.752 145.799 104.904C145.655 105.056 145.471 105.132 145.247 105.132Z" fill="#606060"/>
<defs>
<clipPath id="clip0_642_12947">
<rect width="62" height="62" fill="white" transform="translate(42.5)"/>
</clipPath>
</defs>
</svg>
