<svg width="150" height="42" viewBox="0 0 150 42" fill="none" xmlns="http://www.w3.org/2000/svg">
<path d="M19.5423 31L14.7743 31L10.2623 23.224L6.90225 23.224L6.90225 31L2.48625 31L2.48625 8.6L11.4463 8.6C13.5156 8.6 15.2756 9.32533 16.7263 10.776C18.1769 12.2267 18.9023 13.976 18.9023 16.024C18.9023 17.4107 18.5076 18.7013 17.7183 19.896C16.9289 21.0693 15.8836 21.9547 14.5823 22.552L19.5423 31ZM11.4463 12.728L6.90225 12.728L6.90225 19.352L11.4463 19.352C12.2783 19.352 12.9929 19.032 13.5903 18.392C14.1876 17.7307 14.4863 16.9413 14.4863 16.024C14.4863 15.1067 14.1876 14.328 13.5903 13.688C12.9929 13.048 12.2783 12.728 11.4463 12.728ZM36.69 24.696L24.626 24.696C25.1593 26.7013 26.6633 27.704 29.138 27.704C30.7167 27.704 31.9113 27.1707 32.722 26.104L36.05 28.024C34.4713 30.3067 32.146 31.448 29.074 31.448C26.4287 31.448 24.306 30.648 22.706 29.048C21.106 27.448 20.306 25.432 20.306 23C20.306 20.6107 21.0953 18.6053 22.674 16.984C24.2313 15.3627 26.258 14.552 28.754 14.552C31.122 14.552 33.0527 15.3627 34.546 16.984C36.082 18.6053 36.85 20.6107 36.85 23C36.85 23.448 36.7967 24.0133 36.69 24.696ZM24.562 21.496L32.722 21.496C32.4873 20.4507 32.0073 19.6507 31.282 19.096C30.578 18.5413 29.7353 18.264 28.754 18.264C27.6447 18.264 26.7273 18.552 26.002 19.128C25.2767 19.6827 24.7967 20.472 24.562 21.496ZM48.6278 14.552C50.3984 14.552 51.8384 15.1387 52.9478 16.312C54.0998 17.5067 54.6758 19.128 54.6758 21.176L54.6758 31L50.5478 31L50.5478 21.688C50.5478 20.6427 50.2598 19.832 49.6838 19.256C49.1291 18.68 48.3611 18.392 47.3798 18.392C46.2918 18.392 45.4278 18.7333 44.7878 19.416C44.1691 20.0773 43.8598 21.0587 43.8598 22.36L43.8598 31L39.7318 31L39.7318 15L43.8598 15L43.8598 16.792C44.8411 15.2987 46.4304 14.552 48.6278 14.552ZM73.7525 24.696L61.6885 24.696C62.2218 26.7013 63.7258 27.704 66.2005 27.704C67.7792 27.704 68.9738 27.1707 69.7845 26.104L73.1125 28.024C71.5338 30.3067 69.2085 31.448 66.1365 31.448C63.4912 31.448 61.3685 30.648 59.7685 29.048C58.1685 27.448 57.3685 25.432 57.3685 23C57.3685 20.6107 58.1578 18.6053 59.7365 16.984C61.2938 15.3627 63.3205 14.552 65.8165 14.552C68.1845 14.552 70.1152 15.3627 71.6085 16.984C73.1445 18.6053 73.9125 20.6107 73.9125 23C73.9125 23.448 73.8592 24.0133 73.7525 24.696ZM61.6245 21.496L69.7845 21.496C69.5498 20.4507 69.0698 19.6507 68.3445 19.096C67.6405 18.5413 66.7978 18.264 65.8165 18.264C64.7072 18.264 63.7898 18.552 63.0645 19.128C62.3392 19.6827 61.8592 20.472 61.6245 21.496ZM91.4653 24.856L94.1853 15L98.5693 15L93.4813 31L89.5453 31L86.6013 21.304L83.6573 31L79.7213 31L74.6333 15L79.0173 15L81.7373 24.824L84.6493 15L88.5533 15L91.4653 24.856Z" fill="#4F5969"/>
<path d="M118.362 8.6L122.906 8.6L122.906 31L118.522 31L118.522 16.472L112.218 26.872H111.706L105.402 16.504L105.402 31L100.986 31L100.986 8.6L105.53 8.6L111.962 19.192L118.362 8.6ZM142.44 24.696L130.376 24.696C130.909 26.7013 132.413 27.704 134.888 27.704C136.467 27.704 137.661 27.1707 138.472 26.104L141.8 28.024C140.221 30.3067 137.896 31.448 134.824 31.448C132.179 31.448 130.056 30.648 128.456 29.048C126.856 27.448 126.056 25.432 126.056 23C126.056 20.6107 126.845 18.6053 128.424 16.984C129.981 15.3627 132.008 14.552 134.504 14.552C136.872 14.552 138.803 15.3627 140.296 16.984C141.832 18.6053 142.6 20.6107 142.6 23C142.6 23.448 142.547 24.0133 142.44 24.696ZM130.312 21.496L138.472 21.496C138.237 20.4507 137.757 19.6507 137.032 19.096C136.328 18.5413 135.485 18.264 134.504 18.264C133.395 18.264 132.477 18.552 131.752 19.128C131.027 19.6827 130.547 20.472 130.312 21.496Z" fill="#778294"/>
<path d="M144.361 3.2L146.401 3.2V3.64L145.613 3.64V6L145.153 6V3.64L144.361 3.64V3.2ZM148.929 3.2L149.421 3.2V6H148.961V4.004L148.109 5.412H148.053L147.201 4V6H146.741V3.2L147.237 3.2L148.081 4.6L148.929 3.2Z" fill="#778294"/>
</svg>
